# Blender 4.3.2
# www.blender.org
mtllib link3_02.mtl
o link3_02
v 0.020873 0.031500 -0.154099
v 0.018652 0.031500 -0.153787
v 0.021727 0.031500 -0.153341
v 0.000345 0.031500 -0.132998
v 0.000037 0.031500 -0.135098
v -0.008826 0.031500 -0.133871
v -0.000345 0.031500 -0.174502
v 0.003475 0.031500 -0.175221
v 0.000537 0.031500 -0.175488
v -0.011304 0.031500 -0.135168
v -0.013595 0.031500 -0.136772
v 0.021400 0.031500 -0.153853
v -0.006201 0.031500 -0.132903
v -0.003475 0.031500 -0.132279
v -0.000537 0.031500 -0.132012
v -0.018652 0.031500 -0.153713
v -0.018582 0.031500 -0.165054
v -0.019879 0.031500 -0.162576
v -0.020873 0.031500 -0.153401
v -0.020847 0.031500 -0.159951
v -0.021471 0.031500 -0.157225
v -0.021727 0.031500 -0.154159
v -0.005789 0.031500 -0.170372
v -0.006345 0.031500 -0.171289
v -0.016978 0.031500 -0.167345
v 0.009332 0.031500 -0.151969
v 0.009515 0.031500 -0.153544
v 0.000087 0.031500 -0.175320
v -0.000244 0.031500 -0.174937
v 0.005163 0.031500 -0.137701
v 0.008782 0.031500 -0.150127
v 0.004411 0.031500 -0.138093
v 0.007873 0.031500 -0.148433
v -0.007120 0.031500 -0.147461
v 0.001210 0.031500 -0.137528
v -0.005709 0.031500 -0.146157
v -0.004063 0.031500 -0.145163
v -0.015092 0.031500 -0.169412
v -0.012958 0.031500 -0.171219
v -0.006773 0.031500 -0.173369
v -0.010608 0.031500 -0.172737
v 0.019879 0.031500 -0.144924
v 0.005789 0.031500 -0.137128
v 0.018582 0.031500 -0.142446
v 0.006345 0.031500 -0.136211
v 0.016978 0.031500 -0.140155
v 0.021471 0.031500 -0.150275
v 0.020847 0.031500 -0.147549
v 0.000244 0.031500 -0.132563
v -0.000087 0.031500 -0.132180
v -0.021400 0.031500 -0.153647
v 0.006641 0.031500 -0.146957
v 0.005138 0.031500 -0.145759
v 0.003583 0.031500 -0.138276
v 0.003424 0.031500 -0.144889
v 0.002735 0.031500 -0.138239
v 0.001571 0.031500 -0.144381
v 0.001926 0.031500 -0.137984
v -0.000348 0.031500 -0.144256
v -0.002252 0.031500 -0.144521
v 0.015092 0.031500 -0.138088
v 0.012958 0.031500 -0.136281
v 0.010608 0.031500 -0.134763
v 0.017600 0.031500 -0.153995
v 0.016847 0.031500 -0.154387
v 0.009278 0.031500 -0.155793
v 0.016222 0.031500 -0.154960
v 0.015511 0.031500 -0.156485
v 0.015474 0.031500 -0.157333
v 0.013595 0.031500 -0.170728
v 0.015657 0.031500 -0.158161
v 0.016049 0.031500 -0.158913
v 0.006448 0.031500 -0.160727
v 0.007720 0.031500 -0.159286
v 0.008677 0.031500 -0.157619
v 0.004911 0.031500 -0.161882
v 0.015766 0.031500 -0.155676
v -0.001210 0.031500 -0.169972
v -0.001926 0.031500 -0.169516
v 0.001306 0.031500 -0.163160
v -0.007939 0.031500 -0.173994
v -0.004411 0.031500 -0.169407
v -0.005920 0.031500 -0.161180
v -0.003583 0.031500 -0.169224
v -0.004303 0.031500 -0.162219
v -0.002735 0.031500 -0.169261
v -0.002510 0.031500 -0.162912
v -0.000615 0.031500 -0.163230
v -0.009103 0.031500 -0.156466
v -0.005163 0.031500 -0.169799
v 0.016622 0.031500 -0.159539
v 0.017539 0.031500 -0.160095
v 0.015662 0.031500 -0.168842
v 0.017469 0.031500 -0.166708
v 0.019619 0.031500 -0.160523
v -0.007459 0.031500 -0.173989
v -0.007017 0.031500 -0.173743
v 0.006811 0.031500 -0.134017
v 0.007222 0.031500 -0.133606
v 0.007816 0.031500 -0.133473
v 0.003174 0.031500 -0.162704
v -0.000637 0.031500 -0.170597
v -0.000245 0.031500 -0.171350
v -0.000037 0.031500 -0.172402
v 0.011304 0.031500 -0.172332
v 0.008826 0.031500 -0.173629
v 0.006201 0.031500 -0.174597
v -0.008370 0.031500 -0.158243
v -0.007295 0.031500 -0.159836
v 0.020243 0.031500 -0.161689
v 0.018987 0.031500 -0.164358
v 0.000637 0.031500 -0.136903
v -0.016049 0.031500 -0.148587
v 0.000245 0.031500 -0.136150
v -0.016622 0.031500 -0.147961
v -0.015657 0.031500 -0.149339
v -0.015474 0.031500 -0.150167
v -0.008241 0.031500 -0.149023
v -0.009023 0.031500 -0.150779
v -0.015511 0.031500 -0.151015
v -0.009437 0.031500 -0.152656
v -0.015766 0.031500 -0.151824
v -0.009464 0.031500 -0.154578
v -0.016222 0.031500 -0.152540
v -0.016847 0.031500 -0.153113
v -0.017600 0.031500 -0.153505
v -0.020243 0.031500 -0.145811
v -0.018987 0.031500 -0.143142
v -0.019619 0.031500 -0.146977
v -0.017469 0.031500 -0.140792
v -0.017539 0.031500 -0.147405
v -0.015662 0.031500 -0.138658
v 0.019993 0.031500 -0.160767
v 0.020239 0.031500 -0.161209
v -0.019993 0.031500 -0.146733
v -0.020239 0.031500 -0.146291
v -0.028495 0.021750 -0.154579
v -0.028453 0.030500 -0.151261
v -0.028276 0.030500 -0.157555
v -0.027714 0.021750 -0.146723
v -0.026711 0.030500 -0.143553
v -0.024614 0.021750 -0.139333
v -0.021806 0.030500 -0.135175
v -0.021290 0.021750 -0.134803
v -0.016940 0.021750 -0.130705
v -0.013587 0.030500 -0.128552
v -0.009440 0.021750 -0.126800
v -0.003841 0.030500 -0.125421
v -0.001136 0.021750 -0.125184
v 0.011163 0.021750 -0.127505
v 0.012597 0.030500 -0.128009
v 0.005763 0.021750 -0.125839
v 0.004428 0.030500 -0.125552
v 0.019166 0.030500 -0.132572
v 0.016862 0.021750 -0.130732
v 0.021736 0.021750 -0.135277
v 0.024333 0.030500 -0.138687
v 0.025099 0.021750 -0.140216
v 0.027653 0.021750 -0.146548
v 0.027646 0.030500 -0.146647
v 0.028536 0.030500 -0.152920
v 0.028563 0.021750 -0.154685
v 0.027863 0.030500 -0.159998
v 0.027185 0.021750 -0.162408
v 0.025844 0.030500 -0.165801
v 0.024614 0.021750 -0.168167
v 0.021805 0.030500 -0.172325
v 0.020602 0.021750 -0.173491
v 0.014285 0.021750 -0.178540
v 0.013587 0.030500 -0.178948
v 0.005538 0.021750 -0.181788
v 0.003841 0.030500 -0.182079
v -0.003247 0.021750 -0.182215
v -0.004428 0.030500 -0.181948
v -0.012503 0.030500 -0.179559
v -0.019166 0.030500 -0.174928
v -0.016862 0.021750 -0.176768
v -0.010991 0.021750 -0.180105
v -0.021736 0.021750 -0.172223
v -0.023179 0.030500 -0.170385
v -0.025099 0.021750 -0.167284
v -0.026456 0.030500 -0.164516
v -0.027618 0.021750 -0.161150
v 0.013798 0.021750 -0.150188
v 0.022356 0.021750 -0.136073
v 0.020153 0.021750 -0.133598
v 0.017677 0.021750 -0.131394
v -0.000829 0.021750 -0.125262
v -0.004131 0.021750 -0.125551
v -0.022356 0.021750 -0.171427
v -0.020153 0.021750 -0.173902
v -0.017677 0.021750 -0.176106
v 0.023703 0.021750 -0.151192
v 0.023947 0.021750 -0.150768
v 0.023787 0.021750 -0.152153
v 0.022013 0.021750 -0.154067
v 0.023660 0.021750 -0.151680
v 0.024323 0.021750 -0.150453
v 0.024960 0.021750 -0.150312
v 0.027911 0.021750 -0.147987
v 0.025582 0.021750 -0.150508
v 0.025757 0.021750 -0.152500
v 0.028488 0.021750 -0.154579
v 0.025332 0.021750 -0.152746
v 0.026023 0.021750 -0.150989
v 0.028392 0.021750 -0.151266
v 0.026150 0.021750 -0.151462
v 0.026107 0.021750 -0.151950
v 0.024850 0.021750 -0.152830
v 0.024228 0.021750 -0.152634
v 0.027529 0.021750 -0.161126
v 0.028199 0.021750 -0.157880
v 0.023346 0.021750 -0.170097
v 0.025086 0.021750 -0.167276
v 0.026486 0.021750 -0.164272
v 0.021290 0.021750 -0.172697
v 0.016347 0.021750 -0.177096
v 0.018947 0.021750 -0.175040
v 0.013221 0.021750 -0.174810
v 0.013080 0.021750 -0.174174
v 0.010455 0.021750 -0.170742
v 0.013276 0.021750 -0.173552
v 0.013757 0.021750 -0.173111
v 0.014719 0.021750 -0.173027
v 0.015269 0.021750 -0.173377
v 0.013526 0.021750 -0.178836
v 0.014612 0.021750 -0.175459
v 0.010522 0.021750 -0.180236
v 0.013662 0.021750 -0.175292
v 0.014230 0.021750 -0.172983
v 0.015542 0.021750 -0.174608
v 0.015570 0.021750 -0.173956
v 0.015191 0.021750 -0.175158
v 0.014122 0.021750 -0.175460
v 0.000829 0.021750 -0.182238
v 0.007376 0.021750 -0.181279
v 0.004131 0.021750 -0.181949
v -0.002484 0.021750 -0.182141
v -0.011825 0.021750 -0.176353
v -0.011628 0.021750 -0.175731
v -0.011147 0.021750 -0.175290
v -0.010186 0.021750 -0.175206
v -0.009636 0.021750 -0.175556
v -0.007137 0.021750 -0.174678
v -0.009363 0.021750 -0.176786
v -0.005763 0.021750 -0.181661
v -0.011495 0.021750 -0.177259
v -0.012045 0.021750 -0.179580
v -0.010945 0.021750 -0.177610
v -0.010674 0.021750 -0.175162
v -0.009335 0.021750 -0.176135
v -0.009714 0.021750 -0.177337
v -0.008965 0.021750 -0.180804
v -0.010293 0.021750 -0.177638
v -0.011740 0.021750 -0.176835
v -0.014962 0.021750 -0.178007
v -0.013798 0.021750 -0.157312
v -0.024257 0.021750 -0.168712
v -0.027911 0.021750 -0.159513
v -0.027053 0.021750 -0.162715
v -0.025830 0.021750 -0.165795
v -0.028488 0.021750 -0.152921
v -0.028392 0.021750 -0.156234
v -0.028199 0.021750 -0.149620
v -0.022013 0.021750 -0.153434
v -0.027529 0.021750 -0.146374
v -0.023346 0.021750 -0.137403
v -0.025086 0.021750 -0.140224
v -0.026486 0.021750 -0.143228
v -0.021290 0.021750 -0.134803
v -0.016347 0.021750 -0.130404
v -0.018947 0.021750 -0.132460
v -0.015542 0.021750 -0.132892
v -0.015191 0.021750 -0.132342
v -0.014612 0.021750 -0.132041
v -0.013526 0.021750 -0.128664
v -0.010663 0.021750 -0.134379
v -0.013757 0.021750 -0.134389
v -0.014230 0.021750 -0.134517
v -0.014719 0.021750 -0.134473
v -0.015269 0.021750 -0.134123
v -0.014122 0.021750 -0.132040
v -0.013662 0.021750 -0.132208
v -0.010522 0.021750 -0.127264
v -0.013221 0.021750 -0.132690
v -0.015570 0.021750 -0.133544
v -0.013080 0.021750 -0.133326
v -0.013276 0.021750 -0.133948
v -0.007376 0.021750 -0.126221
v 0.005763 0.021750 -0.125839
v 0.002484 0.021750 -0.125359
v 0.008964 0.021750 -0.126696
v 0.009363 0.021750 -0.130714
v 0.009714 0.021750 -0.130163
v 0.010037 0.021750 -0.132225
v 0.009636 0.021750 -0.131944
v 0.007137 0.021750 -0.132822
v 0.009335 0.021750 -0.131365
v 0.010293 0.021750 -0.129862
v 0.010945 0.021750 -0.129890
v 0.011495 0.021750 -0.130241
v 0.011740 0.021750 -0.130665
v 0.011825 0.021750 -0.131147
v 0.011628 0.021750 -0.131769
v 0.011147 0.021750 -0.132210
v 0.010511 0.021750 -0.132352
v 0.012045 0.021750 -0.127920
v 0.014962 0.021750 -0.129493
v 0.027053 0.021750 -0.144786
v 0.025830 0.021750 -0.141705
v 0.024257 0.021750 -0.138788
v -0.014196 0.021750 -0.154992
v -0.010440 0.021750 -0.163449
v -0.011894 0.021750 -0.161599
v -0.013023 0.021750 -0.159534
v 0.002410 0.021750 -0.167795
v 0.000066 0.021750 -0.168000
v -0.004565 0.021750 -0.167249
v -0.006725 0.021750 -0.166313
v -0.008701 0.021750 -0.165035
v -0.002281 0.021750 -0.167816
v 0.008804 0.021750 -0.164955
v 0.006840 0.021750 -0.166251
v 0.004689 0.021750 -0.167206
v 0.013830 0.021750 -0.157185
v 0.013076 0.021750 -0.159414
v 0.011965 0.021750 -0.161489
v 0.010528 0.021750 -0.163353
v 0.014207 0.021750 -0.154861
v 0.014196 0.021750 -0.152508
v 0.010440 0.021750 -0.144051
v 0.011894 0.021750 -0.145901
v 0.013023 0.021750 -0.147966
v -0.002410 0.021750 -0.139705
v -0.000066 0.021750 -0.139500
v 0.004565 0.021750 -0.140251
v 0.006725 0.021750 -0.141187
v 0.008701 0.021750 -0.142465
v 0.002281 0.021750 -0.139684
v -0.008804 0.021750 -0.142545
v -0.006840 0.021750 -0.141249
v -0.010246 0.021750 -0.139136
v -0.004689 0.021750 -0.140294
v -0.013076 0.021750 -0.148086
v -0.011965 0.021750 -0.146011
v -0.010528 0.021750 -0.144147
v -0.014207 0.021750 -0.152639
v -0.013830 0.021750 -0.150315
v 0.004745 0.021750 -0.135960
v 0.004274 0.021750 -0.136431
v 0.001626 0.021750 -0.135410
v 0.001664 0.021750 -0.134523
v 0.002036 0.021750 -0.136197
v 0.002784 0.021750 -0.136673
v 0.003670 0.021750 -0.136712
v 0.004820 0.021750 -0.134247
v 0.004221 0.021750 -0.133593
v 0.005012 0.021750 -0.135113
v 0.002141 0.021750 -0.133775
v 0.002928 0.021750 -0.133365
v 0.003595 0.021750 -0.133364
v -0.020157 0.021750 -0.149530
v -0.017553 0.021750 -0.151714
v -0.017077 0.021750 -0.150966
v -0.019975 0.021750 -0.151609
v -0.020385 0.021750 -0.150822
v -0.020386 0.021750 -0.150155
v -0.018636 0.021750 -0.148738
v -0.017790 0.021750 -0.149005
v -0.017319 0.021750 -0.149476
v -0.017038 0.021750 -0.150080
v -0.018340 0.021750 -0.152124
v -0.019227 0.021750 -0.152086
v -0.019503 0.021750 -0.148930
v -0.024101 0.021750 -0.154971
v -0.023787 0.021750 -0.155347
v -0.026150 0.021750 -0.156038
v -0.026107 0.021750 -0.155550
v -0.024526 0.021750 -0.154727
v -0.026023 0.021750 -0.156511
v -0.025757 0.021750 -0.155000
v -0.024323 0.021750 -0.157047
v -0.023947 0.021750 -0.156732
v -0.023703 0.021750 -0.156308
v -0.025178 0.021750 -0.154698
v -0.023660 0.021750 -0.155820
v -0.024960 0.021750 -0.157188
v -0.025582 0.021750 -0.156992
v 0.017319 0.021750 -0.158024
v 0.017038 0.021750 -0.157420
v 0.020157 0.021750 -0.157970
v 0.020386 0.021750 -0.157345
v 0.017077 0.021750 -0.156534
v 0.017553 0.021750 -0.155786
v 0.020385 0.021750 -0.156678
v 0.018416 0.021750 -0.158724
v 0.017790 0.021750 -0.158495
v 0.019227 0.021750 -0.155414
v 0.018340 0.021750 -0.155376
v 0.019975 0.021750 -0.155891
v 0.019686 0.021750 -0.158442
v 0.019083 0.021750 -0.158723
v -0.001664 0.021750 -0.172977
v -0.002141 0.021750 -0.173725
v -0.004221 0.021750 -0.173907
v -0.004820 0.021750 -0.173253
v -0.005012 0.021750 -0.172387
v -0.004745 0.021750 -0.171540
v -0.004274 0.021750 -0.171069
v -0.002784 0.021750 -0.170827
v -0.002035 0.021750 -0.171303
v -0.002928 0.021750 -0.174135
v -0.003595 0.021750 -0.174136
v -0.003670 0.021750 -0.170788
v -0.001626 0.021750 -0.172090
v 0.016948 0.024250 -0.156905
v 0.017271 0.021750 -0.158146
v 0.017551 0.024250 -0.158341
v 0.019028 0.024250 -0.158790
v 0.019160 0.021750 -0.158760
v 0.020377 0.024250 -0.157645
v 0.020505 0.021750 -0.157292
v 0.020060 0.024250 -0.155905
v 0.019604 0.021750 -0.155522
v 0.018161 0.024250 -0.155325
v 0.018301 0.021750 -0.155386
v 0.017184 0.021750 -0.156156
v -0.005008 0.024250 -0.172346
v -0.004974 0.021750 -0.173149
v -0.004648 0.024250 -0.173606
v -0.003309 0.021750 -0.174230
v -0.002749 0.024250 -0.174186
v -0.001772 0.021750 -0.173354
v -0.001536 0.024250 -0.172606
v -0.001636 0.021750 -0.172051
v -0.002293 0.024250 -0.171007
v -0.002406 0.021750 -0.170935
v -0.004277 0.024250 -0.170938
v -0.004396 0.021750 -0.171022
v -0.020480 0.024250 -0.150065
v -0.020505 0.021750 -0.150209
v -0.019542 0.024250 -0.152059
v -0.019604 0.021750 -0.151978
v -0.018301 0.021750 -0.152114
v -0.017764 0.024250 -0.151906
v -0.017184 0.021750 -0.151344
v -0.016948 0.024250 -0.150595
v -0.017272 0.021750 -0.149354
v -0.017551 0.024250 -0.149159
v -0.019028 0.024250 -0.148711
v -0.019160 0.021750 -0.148740
v 0.001619 0.024250 -0.135370
v 0.001636 0.021750 -0.135449
v 0.002293 0.024250 -0.136493
v 0.002601 0.021750 -0.136709
v 0.004277 0.024250 -0.136562
v 0.004543 0.021750 -0.136297
v 0.005008 0.024250 -0.135154
v 0.004974 0.021750 -0.134351
v 0.004648 0.024250 -0.133894
v 0.003309 0.021750 -0.133270
v 0.003206 0.024250 -0.133305
v 0.001845 0.024250 -0.134032
v 0.001772 0.021750 -0.134146
v 0.019083 0.024250 -0.158723
v 0.018995 0.024250 -0.160287
v 0.018416 0.024250 -0.158724
v 0.018147 0.024250 -0.160250
v 0.017790 0.024250 -0.158495
v 0.017338 0.024250 -0.159995
v 0.016622 0.024250 -0.159539
v 0.017319 0.024250 -0.158024
v 0.016049 0.024250 -0.158913
v 0.017038 0.024250 -0.157420
v 0.015657 0.024250 -0.158161
v 0.015474 0.024250 -0.157333
v 0.017077 0.024250 -0.156534
v 0.015511 0.024250 -0.156485
v 0.015766 0.024250 -0.155676
v 0.017553 0.024250 -0.155786
v 0.016222 0.024250 -0.154960
v 0.016847 0.024250 -0.154387
v 0.018340 0.024250 -0.155376
v 0.017600 0.024250 -0.153995
v 0.018428 0.024250 -0.153812
v 0.019227 0.024250 -0.155414
v 0.019276 0.024250 -0.153849
v 0.020085 0.024250 -0.154104
v 0.019975 0.024250 -0.155891
v 0.020800 0.024250 -0.154560
v 0.021374 0.024250 -0.155185
v 0.020385 0.024250 -0.156678
v 0.021765 0.024250 -0.155938
v 0.021949 0.024250 -0.156766
v 0.020386 0.024250 -0.157345
v 0.021912 0.024250 -0.157614
v 0.020157 0.024250 -0.157970
v 0.021657 0.024250 -0.158423
v 0.021201 0.024250 -0.159138
v 0.019686 0.024250 -0.158442
v 0.020575 0.024250 -0.159711
v 0.019823 0.024250 -0.160103
v 0.020072 0.030500 -0.153990
v 0.020107 0.024250 -0.154055
v 0.018000 0.024250 -0.153842
v 0.021579 0.024250 -0.155469
v 0.021651 0.030500 -0.155606
v 0.021998 0.024250 -0.157516
v 0.021959 0.030500 -0.157735
v 0.020980 0.024250 -0.159411
v 0.020866 0.030500 -0.159515
v 0.019016 0.024250 -0.160364
v 0.017137 0.031500 -0.159965
v 0.018262 0.031500 -0.153788
v 0.016242 0.031500 -0.154832
v 0.015792 0.024250 -0.155342
v 0.015385 0.031500 -0.157655
v 0.015532 0.024250 -0.157834
v 0.016588 0.024250 -0.159580
v -0.006345 0.031500 -0.171289
v -0.006626 0.030500 -0.173200
v -0.006624 0.024250 -0.172752
v -0.005223 0.030500 -0.175242
v -0.005346 0.024250 -0.175074
v -0.002443 0.024250 -0.175733
v -0.002269 0.030500 -0.175617
v -0.000240 0.030500 -0.173822
v -0.000305 0.024250 -0.173857
v -0.000163 0.024250 -0.171320
v -0.000122 0.031500 -0.171195
v -0.001998 0.024250 -0.169408
v -0.002614 0.031500 -0.169214
v -0.004083 0.024250 -0.169282
v -0.005111 0.031500 -0.169680
v -0.005830 0.024250 -0.170338
v -0.020157 0.024250 -0.149530
v -0.021201 0.024250 -0.148362
v -0.019503 0.024250 -0.148930
v -0.020575 0.024250 -0.147788
v -0.019823 0.024250 -0.147397
v -0.018636 0.024250 -0.148738
v -0.018995 0.024250 -0.147213
v -0.018147 0.024250 -0.147250
v -0.017790 0.024250 -0.149005
v -0.017338 0.024250 -0.147505
v -0.016622 0.024250 -0.147961
v -0.017319 0.024250 -0.149476
v -0.016049 0.024250 -0.148587
v -0.017038 0.024250 -0.150080
v -0.015657 0.024250 -0.149339
v -0.015474 0.024250 -0.150167
v -0.017077 0.024250 -0.150966
v -0.015511 0.024250 -0.151015
v -0.015766 0.024250 -0.151824
v -0.017553 0.024250 -0.151714
v -0.016222 0.024250 -0.152540
v -0.016847 0.024250 -0.153113
v -0.018340 0.024250 -0.152124
v -0.017600 0.024250 -0.153505
v -0.018428 0.024250 -0.153688
v -0.019227 0.024250 -0.152086
v -0.019276 0.024250 -0.153651
v -0.020085 0.024250 -0.153396
v -0.019975 0.024250 -0.151609
v -0.020800 0.024250 -0.152940
v -0.021374 0.024250 -0.152315
v -0.020385 0.024250 -0.150822
v -0.021765 0.024250 -0.151562
v -0.021949 0.024250 -0.150734
v -0.020386 0.024250 -0.150155
v -0.021912 0.024250 -0.149886
v -0.021657 0.024250 -0.149077
v -0.020687 0.030500 -0.153339
v -0.020107 0.024250 -0.153445
v -0.018000 0.024250 -0.153658
v -0.021768 0.030500 -0.151897
v -0.021579 0.024250 -0.152031
v -0.021998 0.024250 -0.149984
v -0.021492 0.030500 -0.148527
v -0.020980 0.024250 -0.148089
v -0.019016 0.024250 -0.147136
v -0.017137 0.031500 -0.147535
v -0.017863 0.031500 -0.153689
v -0.015792 0.024250 -0.152158
v -0.015992 0.031500 -0.152275
v -0.015385 0.031500 -0.149845
v -0.015532 0.024250 -0.149666
v -0.016588 0.024250 -0.147920
v 0.006345 0.031500 -0.136211
v 0.006616 0.030500 -0.134866
v 0.006353 0.024250 -0.136340
v 0.006479 0.024250 -0.134254
v 0.005223 0.030500 -0.132258
v 0.005346 0.024250 -0.132426
v 0.002443 0.024250 -0.131767
v 0.002667 0.030500 -0.131826
v 0.000830 0.030500 -0.132821
v 0.000305 0.024250 -0.133643
v 0.000359 0.030500 -0.132843
v 0.000278 0.024250 -0.136611
v 0.000122 0.031500 -0.136305
v 0.002614 0.031500 -0.138286
v 0.002833 0.024250 -0.138325
v 0.005111 0.031500 -0.137820
v 0.004879 0.024250 -0.137907
v 0.004745 0.024250 -0.135960
v 0.005789 0.024250 -0.137128
v 0.004274 0.024250 -0.136431
v 0.005163 0.024250 -0.137701
v 0.003670 0.024250 -0.136712
v 0.004411 0.024250 -0.138093
v 0.003583 0.024250 -0.138276
v 0.002784 0.024250 -0.136673
v 0.002735 0.024250 -0.138239
v 0.001926 0.024250 -0.137984
v 0.002036 0.024250 -0.136197
v 0.001210 0.024250 -0.137528
v 0.000637 0.024250 -0.136903
v 0.001626 0.024250 -0.135410
v 0.000245 0.024250 -0.136150
v 0.000062 0.024250 -0.135322
v 0.001664 0.024250 -0.134523
v 0.000099 0.024250 -0.134474
v 0.000354 0.024250 -0.133665
v 0.002141 0.024250 -0.133775
v 0.000810 0.024250 -0.132950
v 0.001435 0.024250 -0.132376
v 0.002928 0.024250 -0.133365
v 0.002188 0.024250 -0.131985
v 0.003016 0.024250 -0.131801
v 0.003595 0.024250 -0.133364
v 0.003864 0.024250 -0.131838
v 0.004221 0.024250 -0.133593
v 0.004673 0.024250 -0.132093
v 0.005388 0.024250 -0.132549
v 0.004820 0.024250 -0.134247
v 0.005962 0.024250 -0.133175
v 0.006353 0.024250 -0.133927
v 0.005012 0.024250 -0.135113
v 0.006537 0.024250 -0.134755
v 0.006500 0.024250 -0.135603
v 0.006245 0.024250 -0.136412
v -0.002928 0.024250 -0.174135
v -0.002188 0.024250 -0.175515
v -0.003016 0.024250 -0.175699
v -0.003595 0.024250 -0.174136
v -0.003864 0.024250 -0.175662
v -0.004221 0.024250 -0.173907
v -0.004673 0.024250 -0.175407
v -0.005388 0.024250 -0.174951
v -0.004820 0.024250 -0.173253
v -0.005962 0.024250 -0.174325
v -0.006353 0.024250 -0.173573
v -0.005012 0.024250 -0.172387
v -0.006537 0.024250 -0.172745
v -0.006500 0.024250 -0.171897
v -0.004745 0.024250 -0.171540
v -0.006245 0.024250 -0.171088
v -0.005789 0.024250 -0.170372
v -0.004274 0.024250 -0.171069
v -0.005163 0.024250 -0.169799
v -0.003670 0.024250 -0.170788
v -0.004411 0.024250 -0.169407
v -0.003583 0.024250 -0.169224
v -0.002784 0.024250 -0.170827
v -0.002735 0.024250 -0.169261
v -0.001926 0.024250 -0.169516
v -0.002035 0.024250 -0.171303
v -0.001210 0.024250 -0.169972
v -0.000637 0.024250 -0.170597
v -0.001626 0.024250 -0.172090
v -0.000245 0.024250 -0.171350
v -0.000062 0.024250 -0.172178
v -0.001664 0.024250 -0.172977
v -0.000099 0.024250 -0.173026
v -0.000354 0.024250 -0.173835
v -0.002141 0.024250 -0.173725
v -0.000810 0.024250 -0.174550
v -0.001435 0.024250 -0.175124
v 0.014984 0.021750 -0.175359
v 0.014896 0.030500 -0.175404
v 0.013533 0.021750 -0.175282
v 0.013456 0.030500 -0.175209
v 0.013085 0.021750 -0.173885
v 0.013115 0.030500 -0.173791
v 0.014010 0.021750 -0.172971
v 0.013943 0.030500 -0.173015
v 0.015079 0.030500 -0.173159
v 0.015127 0.021750 -0.173224
v 0.015648 0.021750 -0.174286
v 0.015641 0.030500 -0.174383
v -0.009921 0.021750 -0.177538
v -0.011527 0.021750 -0.177368
v -0.011601 0.030500 -0.177277
v -0.011688 0.021750 -0.175751
v -0.011635 0.030500 -0.175668
v -0.010209 0.021750 -0.175088
v -0.010459 0.030500 -0.175111
v -0.009390 0.030500 -0.175851
v -0.009257 0.021750 -0.176465
v -0.009697 0.030500 -0.177454
v 0.026133 0.021750 -0.152085
v 0.026026 0.030500 -0.152353
v 0.025059 0.021750 -0.152838
v 0.024467 0.030500 -0.152796
v 0.023980 0.021750 -0.152486
v 0.023575 0.030500 -0.151634
v 0.023677 0.021750 -0.151058
v 0.024500 0.030500 -0.150303
v 0.024751 0.021750 -0.150304
v 0.025830 0.021750 -0.150657
v 0.025896 0.030500 -0.150729
v 0.009921 0.021750 -0.129962
v 0.010009 0.030500 -0.129917
v 0.011372 0.021750 -0.130040
v 0.011449 0.030500 -0.130112
v 0.011820 0.021750 -0.131436
v 0.011790 0.030500 -0.131530
v 0.010895 0.021750 -0.132351
v 0.010961 0.030500 -0.132306
v 0.009826 0.030500 -0.132162
v 0.009778 0.021750 -0.132097
v 0.009257 0.021750 -0.131036
v 0.009264 0.030500 -0.130938
v -0.015459 0.021750 -0.132619
v -0.014896 0.030500 -0.132096
v -0.014332 0.021750 -0.131971
v -0.013456 0.030500 -0.132291
v -0.013319 0.021750 -0.132510
v -0.013085 0.021750 -0.133615
v -0.013115 0.030500 -0.133709
v -0.014010 0.021750 -0.134529
v -0.013943 0.030500 -0.134485
v -0.015079 0.030500 -0.134341
v -0.015398 0.021750 -0.134078
v -0.015641 0.030500 -0.133117
v -0.023677 0.021750 -0.156442
v -0.023680 0.030500 -0.156367
v -0.024672 0.030500 -0.157208
v -0.024751 0.021750 -0.157196
v -0.025830 0.021750 -0.156843
v -0.025896 0.030500 -0.156771
v -0.026169 0.021750 -0.155750
v -0.026154 0.030500 -0.155665
v -0.025549 0.021750 -0.154799
v -0.025309 0.030500 -0.154661
v -0.024091 0.021750 -0.154876
v -0.023913 0.030500 -0.155087
v 0.017542 0.030500 -0.140839
v 0.019278 0.031500 -0.143538
v 0.020356 0.030500 -0.145973
v 0.021297 0.031500 -0.149136
v 0.021841 0.030500 -0.152950
v 0.016079 0.031500 -0.139081
v 0.012740 0.030500 -0.135981
v 0.012038 0.031500 -0.135586
v 0.007846 0.031500 -0.133478
v 0.007787 0.030500 -0.133471
v 0.021151 0.030500 -0.154066
v 0.021089 0.031500 -0.154087
v 0.025086 0.030500 -0.167276
v 0.023346 0.030500 -0.170097
v -0.024257 0.030500 -0.168712
v -0.025830 0.030500 -0.165794
v -0.022356 0.030500 -0.171427
v 0.024257 0.030500 -0.138788
v 0.025830 0.030500 -0.141706
v 0.022356 0.030500 -0.136073
v -0.018147 0.030500 -0.147250
v -0.019884 0.030500 -0.153496
v -0.020873 0.030500 -0.153401
v 0.019884 0.030500 -0.154004
v 0.020873 0.030500 -0.154099
v 0.018147 0.030500 -0.160250
v 0.021201 0.030500 -0.159138
v 0.021657 0.030500 -0.158423
v 0.020239 0.030500 -0.161209
v 0.020800 0.030500 -0.154560
v 0.019619 0.030500 -0.160523
v 0.018995 0.030500 -0.160287
v 0.019823 0.030500 -0.160103
v 0.019993 0.030500 -0.160767
v 0.020240 0.030500 -0.161717
v 0.020575 0.030500 -0.159711
v 0.021400 0.030500 -0.153853
v 0.021374 0.030500 -0.155185
v 0.021765 0.030500 -0.155938
v 0.021949 0.030500 -0.156766
v 0.021912 0.030500 -0.157614
v 0.021727 0.030500 -0.153341
v 0.021471 0.030500 -0.150275
v 0.020847 0.030500 -0.147549
v 0.019879 0.030500 -0.144924
v 0.018582 0.030500 -0.142446
v 0.021290 0.030500 -0.172697
v 0.018946 0.030500 -0.175041
v 0.018987 0.030500 -0.164358
v 0.014230 0.030500 -0.172983
v 0.013757 0.030500 -0.173111
v 0.013595 0.030500 -0.170728
v 0.011304 0.030500 -0.172332
v 0.015269 0.030500 -0.173377
v 0.014719 0.030500 -0.173027
v 0.013276 0.030500 -0.173552
v 0.008826 0.030500 -0.173629
v 0.013080 0.030500 -0.174174
v 0.006201 0.030500 -0.174597
v 0.003475 0.030500 -0.175221
v 0.013233 0.030500 -0.174843
v 0.000829 0.030500 -0.182238
v 0.015536 0.030500 -0.174641
v 0.015570 0.030500 -0.173956
v 0.015662 0.030500 -0.168842
v 0.017469 0.030500 -0.166708
v -0.000254 0.030500 -0.173634
v -0.000345 0.030500 -0.174502
v -0.006773 0.030500 -0.173369
v -0.006562 0.030500 -0.172521
v -0.005962 0.030500 -0.174325
v -0.005388 0.030500 -0.174951
v -0.014960 0.030500 -0.178008
v -0.016978 0.030500 -0.167345
v -0.011628 0.030500 -0.175731
v -0.002188 0.030500 -0.175515
v -0.001435 0.030500 -0.175124
v -0.007939 0.030500 -0.173994
v -0.009636 0.030500 -0.175556
v -0.010186 0.030500 -0.175206
v -0.011672 0.030500 -0.177022
v -0.011825 0.030500 -0.176353
v -0.009335 0.030500 -0.176135
v -0.009369 0.030500 -0.176820
v -0.010608 0.030500 -0.172737
v 0.000564 0.030500 -0.175494
v -0.010674 0.030500 -0.175162
v -0.012958 0.030500 -0.171219
v -0.011147 0.030500 -0.175290
v -0.015092 0.030500 -0.169412
v -0.006353 0.030500 -0.173573
v -0.007017 0.030500 -0.173743
v -0.007459 0.030500 -0.173989
v -0.004673 0.030500 -0.175407
v -0.003864 0.030500 -0.175662
v -0.003016 0.030500 -0.175699
v -0.000810 0.030500 -0.174550
v -0.000244 0.030500 -0.174937
v 0.000087 0.030500 -0.175320
v -0.017677 0.030500 -0.176106
v -0.020153 0.030500 -0.173903
v -0.018582 0.030500 -0.165054
v -0.021949 0.030500 -0.150734
v -0.021765 0.030500 -0.151562
v -0.019619 0.030500 -0.146977
v -0.018995 0.030500 -0.147213
v -0.019823 0.030500 -0.147397
v -0.019993 0.030500 -0.146733
v -0.021912 0.030500 -0.149886
v -0.023346 0.030500 -0.137403
v -0.021657 0.030500 -0.149077
v -0.021201 0.030500 -0.148362
v -0.020239 0.030500 -0.146291
v -0.020800 0.030500 -0.152940
v -0.020240 0.030500 -0.145783
v -0.020575 0.030500 -0.147788
v -0.021374 0.030500 -0.152315
v -0.021727 0.030500 -0.154159
v -0.021471 0.030500 -0.157225
v -0.020847 0.030500 -0.159951
v -0.019879 0.030500 -0.162576
v -0.021400 0.030500 -0.153647
v -0.021290 0.030500 -0.134803
v -0.018946 0.030500 -0.132459
v -0.018987 0.030500 -0.143142
v -0.015536 0.030500 -0.132859
v -0.014230 0.030500 -0.134517
v -0.013757 0.030500 -0.134389
v -0.013595 0.030500 -0.136772
v -0.011304 0.030500 -0.135168
v -0.015269 0.030500 -0.134123
v -0.014719 0.030500 -0.134473
v -0.013276 0.030500 -0.133948
v -0.008826 0.030500 -0.133871
v -0.013080 0.030500 -0.133326
v -0.006201 0.030500 -0.132903
v -0.003475 0.030500 -0.132279
v -0.013233 0.030500 -0.132657
v -0.000829 0.030500 -0.125262
v -0.015570 0.030500 -0.133544
v -0.015662 0.030500 -0.138658
v -0.017469 0.030500 -0.140792
v 0.006811 0.030500 -0.134017
v 0.006562 0.030500 -0.134979
v 0.000254 0.030500 -0.133866
v 0.000345 0.030500 -0.132998
v 0.002188 0.030500 -0.131985
v 0.001435 0.030500 -0.132376
v 0.007816 0.030500 -0.133473
v 0.009369 0.030500 -0.130680
v 0.006353 0.030500 -0.133927
v 0.014960 0.030500 -0.129492
v 0.016978 0.030500 -0.140155
v 0.011628 0.030500 -0.131769
v 0.007222 0.030500 -0.133606
v 0.005962 0.030500 -0.133175
v 0.005388 0.030500 -0.132549
v 0.004673 0.030500 -0.132093
v 0.003864 0.030500 -0.131838
v 0.003016 0.030500 -0.131801
v -0.000564 0.030500 -0.132006
v 0.011672 0.030500 -0.130478
v 0.011825 0.030500 -0.131147
v 0.000244 0.030500 -0.132563
v 0.000810 0.030500 -0.132950
v -0.000087 0.030500 -0.132180
v 0.009335 0.030500 -0.131365
v 0.009636 0.030500 -0.131944
v 0.010037 0.030500 -0.132225
v 0.010608 0.030500 -0.134763
v 0.010511 0.030500 -0.132352
v 0.012958 0.030500 -0.136281
v 0.011147 0.030500 -0.132210
v 0.015092 0.030500 -0.138088
v 0.017677 0.030500 -0.131394
v 0.020153 0.030500 -0.133597
v 0.013526 0.030500 -0.178836
v 0.014612 0.030500 -0.175459
v 0.016347 0.030500 -0.177096
v 0.015191 0.030500 -0.175158
v 0.013662 0.030500 -0.175292
v 0.004131 0.030500 -0.181949
v 0.007376 0.030500 -0.181279
v 0.010522 0.030500 -0.180236
v 0.014122 0.030500 -0.175460
v -0.011369 0.030500 -0.177365
v -0.012045 0.030500 -0.179580
v -0.008965 0.030500 -0.180804
v -0.010293 0.030500 -0.177638
v -0.005763 0.030500 -0.181661
v -0.009714 0.030500 -0.177337
v -0.002484 0.030500 -0.182141
v -0.010945 0.030500 -0.177610
v -0.013526 0.030500 -0.128664
v -0.014612 0.030500 -0.132041
v -0.016347 0.030500 -0.130404
v -0.015191 0.030500 -0.132342
v -0.013662 0.030500 -0.132208
v -0.004131 0.030500 -0.125551
v -0.007376 0.030500 -0.126221
v -0.010522 0.030500 -0.127264
v -0.014122 0.030500 -0.132040
v 0.011369 0.030500 -0.130135
v 0.012045 0.030500 -0.127920
v 0.008965 0.030500 -0.126696
v 0.010293 0.030500 -0.129862
v 0.005763 0.030500 -0.125839
v 0.009714 0.030500 -0.130163
v 0.002484 0.030500 -0.125359
v 0.010945 0.030500 -0.129890
v 0.028392 0.030500 -0.151266
v 0.026150 0.030500 -0.151462
v 0.026023 0.030500 -0.150989
v 0.027911 0.030500 -0.147987
v 0.024323 0.030500 -0.150453
v 0.023947 0.030500 -0.150768
v 0.023703 0.030500 -0.151192
v 0.028488 0.030500 -0.154579
v 0.026107 0.030500 -0.151950
v 0.023787 0.030500 -0.152153
v 0.024228 0.030500 -0.152634
v 0.024850 0.030500 -0.152830
v 0.023660 0.030500 -0.151680
v 0.027529 0.030500 -0.161126
v 0.025582 0.030500 -0.150508
v 0.027053 0.030500 -0.144786
v 0.024960 0.030500 -0.150312
v 0.025332 0.030500 -0.152746
v 0.028199 0.030500 -0.157880
v 0.025757 0.030500 -0.152500
v -0.027529 0.030500 -0.146374
v -0.026486 0.030500 -0.143228
v -0.025086 0.030500 -0.140224
v -0.028392 0.030500 -0.156234
v -0.026150 0.030500 -0.156038
v -0.026023 0.030500 -0.156511
v -0.027911 0.030500 -0.159513
v -0.024323 0.030500 -0.157047
v -0.023947 0.030500 -0.156732
v -0.023703 0.030500 -0.156308
v -0.023660 0.030500 -0.155820
v -0.023787 0.030500 -0.155347
v -0.024101 0.030500 -0.154971
v -0.028488 0.030500 -0.152921
v -0.026107 0.030500 -0.155550
v -0.024526 0.030500 -0.154727
v -0.025178 0.030500 -0.154698
v -0.028199 0.030500 -0.149620
v -0.025757 0.030500 -0.155000
v -0.025582 0.030500 -0.156992
v -0.027053 0.030500 -0.162714
v -0.024960 0.030500 -0.157188
v 0.026486 0.030500 -0.164272
v 0.000349 0.031500 -0.132785
v -0.004853 0.031500 -0.132521
v -0.007777 0.030500 -0.133394
v -0.009884 0.031500 -0.134330
v -0.012702 0.030500 -0.136044
v -0.014501 0.031500 -0.137485
v -0.017475 0.030500 -0.140680
v -0.018303 0.031500 -0.141918
v -0.020313 0.030500 -0.146029
v -0.020299 0.031500 -0.146025
v -0.021089 0.031500 -0.153413
v -0.017542 0.030500 -0.166661
v -0.019278 0.031500 -0.163962
v -0.020853 0.030500 -0.160322
v -0.021297 0.031500 -0.158364
v -0.016079 0.031500 -0.168419
v -0.012740 0.030500 -0.171519
v -0.012038 0.031500 -0.171914
v -0.007725 0.031500 -0.174049
v -0.007657 0.030500 -0.174048
v -0.000336 0.030500 -0.174772
v -0.000349 0.031500 -0.174715
v 0.004853 0.031500 -0.174979
v 0.007777 0.030500 -0.174106
v 0.009884 0.031500 -0.173170
v 0.012702 0.030500 -0.171456
v 0.014501 0.031500 -0.170015
v 0.017475 0.030500 -0.166820
v 0.018303 0.031500 -0.165582
v 0.020313 0.030500 -0.161471
v 0.020299 0.031500 -0.161475
v -0.021716 0.030500 -0.154066
v -0.021719 0.031500 -0.154131
v -0.019852 0.031500 -0.146894
v -0.019445 0.030500 -0.147122
v 0.000297 0.031500 -0.175471
v 0.000540 0.030500 -0.175572
v -0.006874 0.031500 -0.173619
v 0.019852 0.031500 -0.160607
v 0.019445 0.030500 -0.160378
v 0.021719 0.031500 -0.153369
v 0.006937 0.031500 -0.133767
v 0.006897 0.030500 -0.133818
v -0.000297 0.031500 -0.132029
v -0.000540 0.030500 -0.131928
v 0.009485 0.036000 -0.152203
v 0.009496 0.031500 -0.152769
v 0.008326 0.031500 -0.149085
v 0.007438 0.036000 -0.147770
v 0.005811 0.031500 -0.146179
v 0.003698 0.036000 -0.144866
v 0.002354 0.031500 -0.144501
v -0.002040 0.036000 -0.144346
v -0.001483 0.031500 -0.144322
v -0.005978 0.031500 -0.146210
v -0.006349 0.036000 -0.146625
v -0.008645 0.036000 -0.149706
v -0.009214 0.031500 -0.150976
v -0.009539 0.036000 -0.153443
v -0.009341 0.031500 -0.155709
v -0.008887 0.036000 -0.157229
v -0.007811 0.031500 -0.159234
v -0.006188 0.036000 -0.161119
v -0.005016 0.031500 -0.161870
v -0.001748 0.036000 -0.163132
v -0.001407 0.031500 -0.163189
v 0.002980 0.036000 -0.162900
v 0.002429 0.031500 -0.162979
v 0.006711 0.031500 -0.160647
v 0.007038 0.036000 -0.160196
v 0.009009 0.036000 -0.156899
v 0.009118 0.031500 -0.156570
v 0.009332 0.036000 -0.151969
v 0.009515 0.036000 -0.153544
v 0.008468 0.036000 -0.153009
v 0.008437 0.036000 -0.154786
v 0.009278 0.036000 -0.155793
v 0.008037 0.036000 -0.156517
v 0.008677 0.036000 -0.157619
v 0.007286 0.036000 -0.158128
v 0.007720 0.036000 -0.159286
v 0.006217 0.036000 -0.159547
v 0.006448 0.036000 -0.160727
v 0.004875 0.036000 -0.160713
v 0.004911 0.036000 -0.161882
v 0.003321 0.036000 -0.161574
v 0.003174 0.036000 -0.162704
v 0.001622 0.036000 -0.162094
v 0.001306 0.036000 -0.163160
v -0.000148 0.036000 -0.162249
v -0.000615 0.036000 -0.163230
v -0.001912 0.036000 -0.162032
v -0.002510 0.036000 -0.162912
v -0.003592 0.036000 -0.161454
v -0.004303 0.036000 -0.162219
v -0.005115 0.036000 -0.160538
v -0.005920 0.036000 -0.161180
v -0.006415 0.036000 -0.159327
v -0.007295 0.036000 -0.159836
v -0.007434 0.036000 -0.157871
v -0.008370 0.036000 -0.158243
v -0.008129 0.036000 -0.156235
v -0.009103 0.036000 -0.156466
v -0.008468 0.036000 -0.154491
v -0.009464 0.036000 -0.154578
v -0.008437 0.036000 -0.152714
v -0.009437 0.036000 -0.152656
v -0.008037 0.036000 -0.150983
v -0.009023 0.036000 -0.150779
v -0.007286 0.036000 -0.149372
v -0.008241 0.036000 -0.149023
v -0.006217 0.036000 -0.147953
v -0.007120 0.036000 -0.147461
v -0.004875 0.036000 -0.146787
v -0.005709 0.036000 -0.146157
v -0.003321 0.036000 -0.145926
v -0.004063 0.036000 -0.145163
v -0.001622 0.036000 -0.145406
v -0.002252 0.036000 -0.144521
v 0.000148 0.036000 -0.145251
v -0.000348 0.036000 -0.144256
v 0.001912 0.036000 -0.145468
v 0.001571 0.036000 -0.144381
v 0.003592 0.036000 -0.146046
v 0.003424 0.036000 -0.144889
v 0.005115 0.036000 -0.146962
v 0.005138 0.036000 -0.145759
v 0.006415 0.036000 -0.148173
v 0.006641 0.036000 -0.146957
v 0.007434 0.036000 -0.149629
v 0.007873 0.036000 -0.148433
v 0.008129 0.036000 -0.151265
v 0.008782 0.036000 -0.150127
v -0.008542 0.036000 -0.153761
v -0.008414 0.041000 -0.155222
v -0.007799 0.036000 -0.157234
v -0.007088 0.041000 -0.158517
v -0.005001 0.036000 -0.160767
v -0.003848 0.041000 -0.161460
v -0.000882 0.036000 -0.162246
v -0.000148 0.041000 -0.162249
v 0.003155 0.041000 -0.161769
v 0.002650 0.036000 -0.161870
v 0.005724 0.036000 -0.160090
v 0.006724 0.041000 -0.159018
v 0.007808 0.036000 -0.157214
v 0.008285 0.041000 -0.155827
v 0.008542 0.036000 -0.153739
v 0.008414 0.041000 -0.152278
v 0.007423 0.036000 -0.149373
v 0.007088 0.041000 -0.148983
v 0.003848 0.041000 -0.146040
v 0.003433 0.036000 -0.145846
v 0.000148 0.041000 -0.145251
v -0.001868 0.036000 -0.145338
v -0.003155 0.041000 -0.145731
v -0.005724 0.036000 -0.147410
v -0.006724 0.041000 -0.148482
v -0.007808 0.036000 -0.150286
v -0.008285 0.041000 -0.151673
v 0.004505 0.041000 -0.150595
v 0.007434 0.041000 -0.149629
v 0.005168 0.041000 -0.151869
v 0.008129 0.041000 -0.151265
v 0.005479 0.041000 -0.153271
v 0.008468 0.041000 -0.153009
v 0.005416 0.041000 -0.154705
v 0.008437 0.041000 -0.154786
v 0.004985 0.041000 -0.156074
v -0.000479 0.041000 -0.148271
v 0.000148 0.041000 -0.145251
v 0.000955 0.041000 -0.148334
v 0.001912 0.041000 -0.145468
v 0.002324 0.041000 -0.148765
v 0.003592 0.041000 -0.146046
v 0.003535 0.041000 -0.149537
v 0.005115 0.041000 -0.146962
v 0.006415 0.041000 -0.148173
v -0.004505 0.041000 -0.156905
v -0.007434 0.041000 -0.157871
v -0.005168 0.041000 -0.155631
v -0.008129 0.041000 -0.156235
v -0.005479 0.041000 -0.154229
v -0.008468 0.041000 -0.154491
v -0.005416 0.041000 -0.152795
v -0.008437 0.041000 -0.152714
v -0.004985 0.041000 -0.151426
v 0.000479 0.041000 -0.159229
v -0.000148 0.041000 -0.162249
v -0.000955 0.041000 -0.159166
v -0.001912 0.041000 -0.162032
v -0.002324 0.041000 -0.158735
v -0.003592 0.041000 -0.161454
v -0.003535 0.041000 -0.157963
v -0.005115 0.041000 -0.160538
v -0.006415 0.041000 -0.159327
v 0.008037 0.041000 -0.156517
v 0.007286 0.041000 -0.158128
v 0.004213 0.041000 -0.157285
v 0.006217 0.041000 -0.159547
v 0.003155 0.041000 -0.158255
v 0.004875 0.041000 -0.160713
v 0.001881 0.041000 -0.158918
v 0.003321 0.041000 -0.161574
v 0.001622 0.041000 -0.162094
v -0.008037 0.041000 -0.150983
v -0.007286 0.041000 -0.149372
v -0.004213 0.041000 -0.150215
v -0.006217 0.041000 -0.147953
v -0.003155 0.041000 -0.149245
v -0.004875 0.041000 -0.146787
v -0.001881 0.041000 -0.148582
v -0.003321 0.041000 -0.145926
v -0.001622 0.041000 -0.145406
v -0.004505 0.028500 -0.156905
v -0.010440 0.028500 -0.163449
v -0.003535 0.028500 -0.157963
v -0.008701 0.028500 -0.165035
v -0.002324 0.028500 -0.158735
v -0.005479 0.028500 -0.154229
v -0.005416 0.028500 -0.152795
v -0.014207 0.028500 -0.152638
v -0.014196 0.028500 -0.154992
v -0.013798 0.028500 -0.157312
v -0.005168 0.028500 -0.155631
v -0.013023 0.028500 -0.159534
v -0.011894 0.028500 -0.161599
v -0.004213 0.028500 -0.150215
v -0.011965 0.028500 -0.146011
v -0.004985 0.028500 -0.151426
v -0.013076 0.028500 -0.148086
v -0.013830 0.028500 -0.150315
v 0.000955 0.028500 -0.148334
v -0.000065 0.028500 -0.139500
v -0.000479 0.028500 -0.148271
v -0.002410 0.028500 -0.139705
v -0.001881 0.028500 -0.148582
v 0.004213 0.028500 -0.157285
v 0.011965 0.028500 -0.161489
v 0.004985 0.028500 -0.156074
v 0.013076 0.028500 -0.159414
v 0.005416 0.028500 -0.154705
v -0.004689 0.028500 -0.140294
v -0.006840 0.028500 -0.141249
v -0.003155 0.028500 -0.149245
v -0.008804 0.028500 -0.142545
v -0.010528 0.028500 -0.144147
v 0.002324 0.028500 -0.148765
v 0.004565 0.028500 -0.140251
v 0.002281 0.028500 -0.139684
v 0.004505 0.028500 -0.150595
v 0.010440 0.028500 -0.144051
v 0.003535 0.028500 -0.149537
v 0.008701 0.028500 -0.142465
v 0.006725 0.028500 -0.141187
v 0.001881 0.028500 -0.158918
v 0.006840 0.028500 -0.166251
v 0.003155 0.028500 -0.158255
v 0.008804 0.028500 -0.164955
v 0.010528 0.028500 -0.163353
v -0.006725 0.028500 -0.166313
v -0.004565 0.028500 -0.167249
v -0.000955 0.028500 -0.159166
v 0.005479 0.028500 -0.153271
v 0.013798 0.028500 -0.150188
v 0.005168 0.028500 -0.151869
v 0.013023 0.028500 -0.147966
v 0.011894 0.028500 -0.145901
v -0.002281 0.028500 -0.167816
v 0.000065 0.028500 -0.168000
v 0.000479 0.028500 -0.159229
v 0.002410 0.028500 -0.167795
v 0.004689 0.028500 -0.167206
v 0.013830 0.028500 -0.157185
v 0.014207 0.028500 -0.154861
v 0.014196 0.028500 -0.152508
v -0.013968 0.028500 -0.157080
v -0.013575 0.021750 -0.158329
v -0.011368 0.028500 -0.162415
v -0.011108 0.021750 -0.162746
v -0.007010 0.028500 -0.166281
v -0.006445 0.021750 -0.166579
v -0.001117 0.028500 -0.168019
v -0.000770 0.021750 -0.168035
v 0.004445 0.028500 -0.167419
v 0.003776 0.021750 -0.167536
v 0.007864 0.021750 -0.165668
v 0.009545 0.028500 -0.164372
v 0.011258 0.021750 -0.162611
v 0.012502 0.028500 -0.160680
v 0.013526 0.021750 -0.158324
v 0.014114 0.028500 -0.156040
v 0.014279 0.021750 -0.154118
v 0.014092 0.028500 -0.151333
v 0.013568 0.021750 -0.149225
v 0.012639 0.028500 -0.147075
v 0.011108 0.021750 -0.144754
v 0.009645 0.028500 -0.143176
v 0.006445 0.021750 -0.140921
v 0.005874 0.028500 -0.140719
v 0.001117 0.028500 -0.139481
v 0.000770 0.021750 -0.139465
v -0.004445 0.028500 -0.140081
v -0.003776 0.021750 -0.139964
v -0.009052 0.021750 -0.142618
v -0.009545 0.028500 -0.143128
v -0.012502 0.028500 -0.146820
v -0.012700 0.021750 -0.147191
v -0.014127 0.028500 -0.151458
v -0.014278 0.021750 -0.152560
v 0.005437 0.041000 -0.152679
v 0.005167 0.028500 -0.155952
v 0.005244 0.041000 -0.155541
v 0.003646 0.041000 -0.157923
v 0.002674 0.028500 -0.158604
v 0.001071 0.041000 -0.159187
v -0.000111 0.028500 -0.159291
v -0.001791 0.041000 -0.158994
v -0.003464 0.028500 -0.158172
v -0.004173 0.041000 -0.157396
v -0.005576 0.028500 -0.154427
v -0.005609 0.041000 -0.154052
v -0.004743 0.028500 -0.150884
v -0.004602 0.041000 -0.150663
v -0.002674 0.028500 -0.148896
v -0.001743 0.041000 -0.148410
v 0.000111 0.028500 -0.148209
v 0.001791 0.041000 -0.148506
v 0.002866 0.028500 -0.149007
v 0.004173 0.041000 -0.150104
v 0.005211 0.028500 -0.151653
vn -0.0000 1.0000 -0.0000
vn -0.9996 -0.0173 -0.0205
vn -0.9957 0.0082 0.0926
vn -0.9905 0.0132 -0.1369
vn -0.9696 -0.0161 0.2443
vn -0.9303 0.0158 0.3666
vn -0.8684 -0.0074 0.4958
vn -0.7593 0.0211 0.6503
vn -0.7462 -0.0157 0.6655
vn -0.5882 -0.0012 0.8087
vn -0.4734 0.0222 0.8806
vn -0.3265 -0.0094 0.9452
vn -0.1449 0.0183 0.9893
vn -0.0431 -0.0103 0.9990
vn 0.3852 -0.0099 0.9228
vn 0.4328 0.0055 0.9015
vn 0.2037 -0.0030 0.9790
vn 0.1579 0.0118 0.9874
vn 0.6725 0.0123 0.7400
vn 0.5918 -0.0144 0.8060
vn 0.7590 -0.0121 0.6510
vn 0.8559 0.0078 0.5170
vn 0.8882 -0.0025 0.4595
vn 0.9672 -0.0000 0.2541
vn 0.9646 0.0038 0.2636
vn 0.9995 0.0053 0.0301
vn 0.9994 -0.0124 -0.0313
vn 0.9769 0.0070 -0.2134
vn 0.9548 -0.0147 -0.2969
vn 0.9036 0.0118 -0.4283
vn 0.8626 -0.0114 -0.5058
vn 0.7487 0.0081 -0.6628
vn 0.7065 -0.0029 -0.7077
vn 0.5016 0.0008 -0.8651
vn 0.4760 0.0092 -0.8794
vn 0.2057 -0.0061 -0.9786
vn 0.1448 0.0136 -0.9894
vn -0.1163 0.0021 -0.9932
vn -0.1629 0.0080 -0.9866
vn -0.4267 0.0013 -0.9044
vn -0.6666 0.0088 -0.7454
vn -0.5925 -0.0144 -0.8054
vn -0.3681 -0.0055 -0.9298
vn -0.7602 -0.0139 -0.6496
vn -0.8155 0.0098 -0.5786
vn -0.8797 -0.0116 -0.4754
vn -0.9263 0.0139 -0.3765
vn -0.9663 -0.0087 -0.2572
vn -0.0000 -1.0000 -0.0000
vn 0.9922 -0.0493 -0.1147
vn 0.7823 0.0463 0.6212
vn 0.6423 -0.0122 0.7664
vn -0.1829 0.0071 0.9831
vn -0.2480 0.0308 0.9683
vn -0.9345 -0.0335 0.3545
vn -0.9887 0.0491 0.1413
vn -0.7525 -0.0496 -0.6568
vn -0.5442 0.0275 -0.8385
vn 0.3002 -0.0674 -0.9515
vn 0.2367 0.0371 -0.9709
vn 0.8856 0.0407 -0.4626
vn 0.9930 -0.0149 -0.1172
vn 0.9302 0.0748 0.3594
vn 0.7113 -0.0451 0.7015
vn 0.0376 0.0564 0.9977
vn -0.3004 -0.0625 0.9518
vn -0.8407 0.0368 0.5402
vn -0.9936 -0.0669 0.0911
vn -0.9650 0.0233 -0.2612
vn -0.5421 -0.0354 -0.8395
vn -0.4461 0.0152 -0.8949
vn 0.5021 -0.0167 -0.8647
vn 0.6100 0.0514 -0.7907
vn 0.9809 -0.0214 -0.1935
vn 0.9926 0.0062 -0.1213
vn 0.5067 -0.0348 0.8614
vn 0.5760 0.0123 0.8174
vn -0.2384 0.0208 0.9709
vn -0.5189 -0.0549 0.8530
vn -0.8862 0.0561 0.4600
vn -0.9965 -0.0350 0.0753
vn -0.7822 0.0463 -0.6212
vn -0.6422 -0.0122 -0.7664
vn 0.2052 0.0060 -0.9787
vn 0.2558 0.0194 -0.9665
vn 0.9821 -0.0115 0.1882
vn 0.9650 0.0209 0.2615
vn 0.5280 -0.0365 0.8485
vn 0.3520 0.0321 0.9355
vn -0.5091 -0.0321 0.8601
vn -0.7041 0.0672 0.7069
vn -0.9935 -0.0283 0.1107
vn -0.9237 0.0670 -0.3771
vn -0.7326 -0.0250 -0.6802
vn -0.0134 0.0359 -0.9993
vn 0.0627 -0.0114 -0.9980
vn 0.8061 -0.0032 -0.5918
vn 0.8402 0.0139 -0.5421
vn -0.2624 0.0026 -0.9649
vn -0.4214 0.0071 -0.9068
vn 0.2415 0.0145 -0.9703
vn -0.8753 0.0042 -0.4836
vn -0.8961 -0.0077 -0.4438
vn -0.9896 0.0074 0.1435
vn -0.9790 -0.0074 0.2035
vn -0.6918 0.0076 0.7221
vn -0.6955 0.0128 0.7184
vn -0.0756 0.0174 0.9970
vn 0.1341 0.0074 0.9909
vn 0.5216 0.0036 0.8532
vn 0.1782 0.0008 -0.9840
vn 0.7622 -0.0214 -0.6470
vn 0.8585 0.0167 -0.5126
vn 0.9834 -0.0268 0.1792
vn 0.9745 0.0143 0.2237
vn 0.6266 0.0120 0.7793
vn 0.9947 0.0151 0.1012
vn 0.9929 0.0152 -0.1181
vn 0.9229 0.0019 -0.3850
vn 0.5359 0.0104 0.8442
vn 0.6081 0.0094 0.7938
vn -0.2512 0.0072 0.9679
vn -0.3026 -0.0093 0.9531
vn -0.9687 -0.0162 0.2478
vn -0.8980 0.0069 0.4400
vn -0.9384 0.0136 -0.3452
vn -0.9152 -0.0164 -0.4026
vn -0.4218 0.0131 -0.9066
vn -0.2396 -0.0276 -0.9705
vn 0.2379 0.0190 -0.9711
vn 0.5242 -0.0224 -0.8513
vn 0.7822 0.0233 -0.6226
vn 0.1775 0.0134 0.9840
vn 0.4152 0.0039 0.9097
vn -0.2389 0.0048 0.9710
vn 0.9495 0.0034 0.3138
vn 0.8727 0.0159 0.4881
vn 0.9899 0.0174 -0.1405
vn 0.8492 -0.0109 -0.5280
vn 0.6773 0.0040 -0.7357
vn 0.0854 0.0057 -0.9963
vn -0.1220 0.0084 -0.9925
vn -0.5216 0.0037 -0.8532
vn -0.2616 0.0135 0.9651
vn -0.8568 0.0130 0.5154
vn -0.8306 -0.0139 0.5567
vn -0.9798 -0.0195 -0.1988
vn -0.9745 0.0143 -0.2237
vn -0.6266 0.0120 -0.7793
vn -0.9164 0.0177 0.3999
vn -0.9978 0.0297 0.0592
vn -0.9131 0.0162 0.4074
vn -0.9671 0.0085 -0.2542
vn -0.5780 -0.0096 -0.8160
vn -0.5870 0.0102 -0.8095
vn 0.2394 0.0251 -0.9706
vn 0.1569 -0.0148 -0.9875
vn 0.3140 0.0566 -0.9477
vn 0.9156 0.0204 -0.4017
vn 0.9856 0.0340 -0.1655
vn 0.8867 0.0040 0.4623
vn 0.9192 0.0022 0.3937
vn 0.2388 -0.0122 0.9710
vn 0.1879 0.0030 0.9822
vn -0.5230 -0.0088 0.8523
vn -0.4815 0.0049 0.8765
vn -0.9989 0.0018 0.0468
vn -0.9950 -0.0055 0.0999
vn -0.4633 0.0058 0.8862
vn -0.3926 -0.0062 0.9197
vn 0.6104 0.0062 0.7920
vn 0.6707 -0.0070 0.7417
vn 0.9712 0.0058 -0.2381
vn 0.9573 -0.0023 -0.2893
vn 0.2750 0.0057 -0.9614
vn 0.3103 -0.0025 -0.9506
vn -0.5920 -0.0057 -0.8059
vn -0.6218 0.0024 -0.7832
vn -0.9995 0.0227 -0.0219
vn -0.5958 -0.0229 0.8028
vn -0.4316 0.0025 0.9021
vn 0.7049 -0.0030 0.7093
vn 0.7328 -0.0095 0.6804
vn 0.8651 0.0074 -0.5015
vn 0.8478 0.0019 -0.5303
vn -0.2622 0.0193 -0.9648
vn -0.0725 -0.0048 -0.9974
vn -0.9241 -0.0240 -0.3813
vn -0.9319 0.0127 0.3624
vn -0.8226 -0.0217 0.5682
vn -0.1469 0.0165 0.9890
vn 0.3146 -0.0255 0.9489
vn 0.7418 0.0210 0.6702
vn 0.9993 -0.0278 0.0252
vn 0.9293 0.0214 -0.3686
vn 0.3206 -0.0185 -0.9470
vn 0.1394 0.0041 -0.9902
vn -0.7408 -0.0017 -0.6718
vn -0.7776 -0.0110 -0.6287
vn 0.9989 0.0018 -0.0468
vn 0.9950 -0.0055 -0.0999
vn 0.4633 0.0058 -0.8862
vn 0.3927 -0.0062 -0.9197
vn -0.6104 0.0062 -0.7920
vn -0.6707 -0.0070 -0.7417
vn -0.9712 0.0058 0.2381
vn -0.9572 -0.0023 0.2893
vn -0.2750 0.0057 0.9614
vn -0.3103 -0.0025 0.9506
vn 0.5920 -0.0057 0.8060
vn 0.6218 0.0024 0.7832
vn 0.3938 -0.0207 -0.9190
vn 0.8750 0.0229 -0.4835
vn 0.9947 -0.0189 -0.1009
vn 0.0148 0.0172 -0.9997
vn -0.6743 -0.0157 -0.7383
vn -0.8038 0.0023 -0.5948
vn -0.9592 -0.0026 0.2826
vn -0.9573 -0.0023 0.2892
vn -0.2343 0.0119 0.9721
vn 0.5880 -0.0135 0.8088
vn 0.7954 0.0219 0.6057
vn -0.1788 -0.0061 0.9839
vn -0.9385 0.0105 0.3452
vn -0.9425 -0.0032 0.3343
vn -0.1450 0.0027 0.9894
vn 0.7111 0.0017 0.7031
vn 0.7467 -0.0048 0.6652
vn 0.9904 0.0044 -0.1385
vn 0.9730 -0.0075 -0.2308
vn 0.4569 0.0112 -0.8895
vn 0.2856 -0.0146 -0.9582
vn -0.6315 0.0166 -0.7752
vn -0.7508 -0.0083 -0.6604
vn 0.9346 0.0965 0.3423
vn 0.8715 -0.1376 0.4706
vn 0.8046 0.0778 0.5887
vn 0.9613 -0.1799 0.2087
vn 0.9906 0.0239 -0.1349
vn 0.9368 0.0305 -0.3485
vn 0.7167 -0.1214 0.6868
vn 0.6014 0.0803 0.7949
vn 0.5109 0.0196 0.8594
vn 0.0947 0.0002 0.9955
vn 0.0493 -0.0137 0.9987
vn -0.7414 0.0298 0.6704
vn -0.7385 -0.0292 0.6736
vn 0.4371 -0.0400 -0.8985
vn 0.3551 0.0130 -0.9347
vn -0.0000 1.0000 -0.0001
vn 0.9444 -0.0092 0.3286
vn 0.4188 0.0143 0.9080
vn -0.2027 -0.1954 0.9596
vn 0.2628 -0.0006 0.9649
vn -0.3418 0.0769 0.9366
vn -0.4632 -0.0958 0.8811
vn -0.5722 0.0889 0.8153
vn -0.6785 -0.1370 0.7217
vn -0.7788 0.0858 0.6213
vn -0.8616 -0.0773 0.5017
vn -0.9968 -0.0544 -0.0589
vn -0.9998 0.0142 -0.0104
vn -0.6492 -0.0154 -0.7605
vn -0.4005 -0.0060 0.9163
vn -0.9383 0.1394 -0.3166
vn -0.8677 -0.1964 -0.4567
vn -0.8061 0.0716 -0.5874
vn -0.9817 -0.0968 -0.1639
vn -0.9250 -0.0583 0.3756
vn -0.9569 0.0162 0.2901
vn -0.7167 -0.1214 -0.6868
vn -0.6000 0.0785 -0.7961
vn -0.5070 0.0159 -0.8618
vn -0.0166 -0.0021 -0.9999
vn 0.0810 -0.0598 -0.9949
vn 0.7734 0.0186 -0.6336
vn -0.9392 -0.0271 -0.3422
vn -0.9560 -0.0049 -0.2934
vn -0.4040 0.0366 -0.9140
vn 0.2027 -0.1954 -0.9596
vn -0.2405 0.0059 -0.9706
vn 0.3418 0.0769 -0.9366
vn 0.4632 -0.0958 -0.8811
vn 0.5722 0.0889 -0.8153
vn 0.6786 -0.1370 -0.7217
vn 0.7788 0.0858 -0.6213
vn 0.8616 -0.0773 -0.5017
vn 0.9968 -0.0544 0.0589
vn 0.9998 0.0141 0.0103
vn 0.6492 -0.0154 0.7605
vn 0.9961 -0.0088 0.0880
vn 0.9876 0.0160 0.1562
vn 0.8748 -0.0099 0.4843
vn 0.7819 0.0324 0.6226
vn 0.6121 -0.0169 0.7906
vn 0.3673 0.0277 0.9297
vn 0.2238 -0.0023 0.9746
vn -0.2027 0.0154 0.9791
vn -0.1576 -0.0143 0.9874
vn -0.6286 -0.0154 0.7776
vn -0.6635 0.0143 0.7480
vn -0.8956 0.0023 0.4450
vn -0.9518 -0.0277 0.3055
vn -0.9995 0.0169 0.0281
vn -0.9807 -0.0264 -0.1937
vn -0.9265 0.0264 -0.3753
vn -0.8207 -0.0169 -0.5711
vn -0.6386 0.0236 -0.7692
vn -0.5121 -0.0141 -0.8588
vn -0.1811 0.0178 -0.9833
vn -0.1392 0.0005 -0.9903
vn 0.3099 0.0055 -0.9507
vn 0.2567 -0.0143 -0.9664
vn 0.6972 -0.0055 -0.7169
vn 0.7358 0.0143 -0.6770
vn 0.9463 0.0007 -0.3232
vn 0.9535 0.0004 -0.3015
vn -0.9998 -0.0208 -0.0007
vn -0.9847 0.0208 -0.1729
vn -0.9061 -0.0258 -0.4222
vn -0.8221 0.0197 -0.5689
vn -0.5864 -0.0248 -0.8096
vn -0.4480 0.0188 -0.8938
vn -0.1035 -0.0117 -0.9946
vn -0.0165 0.0019 -0.9999
vn 0.3733 0.0045 -0.9277
vn 0.2974 -0.0107 -0.9547
vn 0.6679 -0.0132 -0.7442
vn 0.7771 0.0258 -0.6288
vn 0.9136 -0.0208 -0.4060
vn 0.9699 0.0208 -0.2425
vn 0.9995 -0.0258 0.0171
vn 0.9844 0.0132 0.1752
vn 0.8502 -0.0188 0.5261
vn 0.8124 0.0089 0.5831
vn 0.4663 -0.0007 0.8846
vn 0.4044 -0.0264 0.9142
vn 0.0407 0.0048 0.9992
vn -0.1975 -0.0359 0.9796
vn -0.3902 0.0196 0.9205
vn -0.6601 -0.0197 0.7509
vn -0.7771 0.0258 0.6289
vn -0.9136 -0.0208 0.4060
vn -0.9699 0.0208 0.2425
vn 0.9717 -0.0126 0.2359
vn 0.9477 0.0115 0.3191
vn 0.7940 -0.0124 0.6078
vn 0.7683 0.0076 0.6400
vn 0.4882 -0.0074 0.8727
vn 0.4487 0.0075 0.8937
vn 0.0876 -0.0067 0.9961
vn 0.0654 0.0014 0.9979
vn -0.3101 -0.0112 0.9506
vn -0.2560 0.0085 0.9667
vn -0.5482 0.0086 0.8363
vn -0.6576 -0.0239 0.7530
vn -0.7876 0.0136 0.6160
vn -0.8761 -0.0188 0.4818
vn -0.9456 0.0152 0.3250
vn -0.9864 -0.0170 0.1634
vn -0.9997 0.0175 0.0178
vn -0.9862 -0.0136 -0.1651
vn -0.9480 0.0205 -0.3177
vn -0.8815 -0.0144 -0.4719
vn -0.7714 0.0235 -0.6359
vn -0.6763 -0.0076 -0.7366
vn -0.4447 0.0149 -0.8955
vn -0.3957 -0.0060 -0.9184
vn -0.0785 0.0008 -0.9969
vn -0.0654 0.0014 -0.9979
vn 0.3140 -0.0045 -0.9494
vn 0.2729 0.0103 -0.9620
vn 0.6325 0.0069 -0.7745
vn 0.6660 -0.0077 -0.7460
vn 0.8716 0.0008 -0.4903
vn 0.8857 0.0113 -0.4641
vn 0.9870 -0.0094 -0.1604
vn 0.9964 0.0159 -0.0834
vn -0.9367 0.0177 -0.3496
vn -0.9826 -0.0060 -0.1858
vn -0.9277 0.0168 0.3729
vn -0.9481 -0.0046 0.3180
vn -0.6584 -0.0112 0.7526
vn -0.5033 0.0153 0.8640
vn -0.1933 -0.0129 0.9811
vn 0.0384 0.0155 0.9991
vn 0.3216 -0.0144 0.9468
vn 0.6364 0.0177 0.7711
vn 0.7717 -0.0118 0.6359
vn 0.9904 0.0125 0.1379
vn 0.9983 -0.0066 0.0571
vn 0.8680 0.0061 -0.4965
vn 0.8292 -0.0097 -0.5589
vn 0.4868 0.0105 -0.8735
vn 0.3160 -0.0159 -0.9486
vn -0.0216 0.0144 -0.9997
vn -0.3057 -0.0155 -0.9520
vn -0.5328 0.0155 -0.8461
vn -0.7519 -0.0144 -0.6592
s 1
usemtl link3_02_mat
f 1//1 2//1 3//1
f 4//1 5//1 6//1
f 7//1 8//1 9//1
f 6//1 5//1 10//1
f 10//1 5//1 11//1
f 1//1 3//1 12//1
f 6//1 13//1 4//1
f 14//1 4//1 13//1
f 4//1 14//1 15//1
f 18//1 16//1 17//1
f 16//1 18//1 19//1
f 18//1 20//1 19//1
f 21//1 19//1 20//1
f 19//1 21//1 22//1
f 23//1 24//1 25//1
f 26//1 3//1 27//1
f 2//1 27//1 3//1
f 28//1 7//1 9//1
f 28//1 29//1 7//1
f 30//1 31//1 32//1
f 33//1 32//1 31//1
f 34//1 35//1 36//1
f 37//1 36//1 35//1
f 25//1 24//1 38//1
f 38//1 24//1 39//1
f 40//1 39//1 24//1
f 39//1 40//1 41//1
f 42//1 43//1 44//1
f 45//1 44//1 43//1
f 44//1 45//1 46//1
f 26//1 31//1 3//1
f 30//1 3//1 31//1
f 3//1 30//1 47//1
f 43//1 47//1 30//1
f 47//1 43//1 48//1
f 42//1 48//1 43//1
f 50//1 4//1 15//1
f 49//1 4//1 50//1
f 19//1 22//1 51//1
f 33//1 52//1 32//1
f 53//1 32//1 52//1
f 32//1 53//1 54//1
f 55//1 54//1 53//1
f 54//1 55//1 56//1
f 57//1 56//1 55//1
f 56//1 57//1 58//1
f 59//1 58//1 57//1
f 58//1 59//1 35//1
f 60//1 35//1 59//1
f 35//1 60//1 37//1
f 46//1 45//1 61//1
f 61//1 45//1 62//1
f 98//1 62//1 45//1
f 62//1 98//1 63//1
f 2//1 64//1 27//1
f 65//1 27//1 64//1
f 27//1 65//1 66//1
f 67//1 66//1 65//1
f 68//1 69//1 70//1
f 71//1 70//1 69//1
f 70//1 71//1 72//1
f 73//1 74//1 67//1
f 75//1 67//1 74//1
f 67//1 75//1 66//1
f 73//1 67//1 76//1
f 77//1 76//1 67//1
f 76//1 77//1 68//1
f 78//1 79//1 80//1
f 40//1 81//1 41//1
f 82//1 83//1 84//1
f 85//1 84//1 83//1
f 84//1 85//1 86//1
f 87//1 86//1 85//1
f 86//1 87//1 79//1
f 88//1 79//1 87//1
f 79//1 88//1 80//1
f 89//1 82//1 90//1
f 72//1 91//1 70//1
f 92//1 70//1 91//1
f 70//1 92//1 93//1
f 93//1 92//1 94//1
f 95//1 94//1 92//1
f 81//1 97//1 96//1
f 40//1 97//1 81//1
f 98//1 99//1 100//1
f 80//1 101//1 78//1
f 76//1 78//1 101//1
f 78//1 76//1 102//1
f 68//1 102//1 76//1
f 102//1 68//1 103//1
f 70//1 103//1 68//1
f 103//1 70//1 104//1
f 105//1 104//1 70//1
f 106//1 104//1 105//1
f 104//1 106//1 7//1
f 107//1 7//1 106//1
f 7//1 107//1 8//1
f 89//1 108//1 82//1
f 109//1 82//1 108//1
f 82//1 109//1 83//1
f 111//1 95//1 110//1
f 95//1 111//1 94//1
f 63//1 98//1 100//1
f 112//1 113//1 114//1
f 115//1 114//1 113//1
f 112//1 35//1 113//1
f 34//1 113//1 35//1
f 113//1 34//1 116//1
f 117//1 116//1 34//1
f 34//1 118//1 117//1
f 119//1 117//1 118//1
f 117//1 119//1 120//1
f 121//1 120//1 119//1
f 120//1 121//1 122//1
f 123//1 122//1 121//1
f 122//1 123//1 124//1
f 89//1 124//1 123//1
f 124//1 89//1 125//1
f 90//1 125//1 89//1
f 125//1 90//1 126//1
f 23//1 126//1 90//1
f 126//1 23//1 16//1
f 25//1 16//1 23//1
f 16//1 25//1 17//1
f 127//1 128//1 129//1
f 130//1 129//1 128//1
f 129//1 130//1 131//1
f 132//1 131//1 130//1
f 11//1 131//1 132//1
f 131//1 11//1 115//1
f 5//1 115//1 11//1
f 115//1 5//1 114//1
f 95//1 133//1 134//1
f 95//1 134//1 110//1
f 129//1 135//1 136//1
f 127//1 129//1 136//1
f 137//2 138//3 139//4
f 140//5 138//3 137//2
f 138//3 140//5 141//6
f 142//7 141//6 140//5
f 141//6 142//7 143//8
f 144//9 143//8 142//7
f 145//10 143//8 144//9
f 143//8 145//10 146//11
f 147//12 146//11 145//10
f 146//11 147//12 148//13
f 149//14 148//13 147//12
f 150//15 151//16 152//17
f 153//18 152//17 151//16
f 152//17 153//18 149//14
f 148//13 149//14 153//18
f 154//19 151//16 155//20
f 155//20 151//16 150//15
f 156//21 154//19 155//20
f 154//19 156//21 157//22
f 158//23 157//22 156//21
f 159//24 157//22 158//23
f 157//22 159//24 160//25
f 160//25 159//24 161//26
f 159//24 162//27 161//26
f 161//26 162//27 163//28
f 164//29 163//28 162//27
f 163//28 164//29 165//30
f 166//31 165//30 164//29
f 165//30 166//31 167//32
f 168//33 167//32 166//31
f 169//34 167//32 168//33
f 167//32 169//34 170//35
f 171//36 170//35 169//34
f 170//35 171//36 172//37
f 171//36 173//38 172//37
f 172//37 173//38 174//39
f 174//39 173//38 175//40
f 176//41 175//40 177//42
f 173//38 178//43 175//40
f 177//42 175//40 178//43
f 179//44 176//41 177//42
f 176//41 179//44 180//45
f 181//46 180//45 179//44
f 180//45 181//46 182//47
f 183//48 182//47 181//46
f 182//47 183//48 139//4
f 137//2 139//4 183//48
f 193//49 194//49 184//49
f 197//49 196//49 195//49
f 196//49 197//49 184//49
f 193//49 184//49 197//49
f 194//49 198//49 184//49
f 184//49 198//49 199//49
f 201//49 200//49 199//49
f 204//49 203//49 202//49
f 205//49 200//49 201//49
f 200//49 205//49 206//49
f 205//49 207//49 206//49
f 208//49 206//49 207//49
f 206//49 208//49 203//49
f 203//49 208//49 202//49
f 209//49 210//49 196//49
f 196//49 210//49 195//49
f 211//49 212//49 196//49
f 204//49 209//49 203//49
f 196//49 203//49 209//49
f 212//49 203//49 196//49
f 215//49 196//49 214//49
f 196//49 215//49 211//49
f 216//49 213//49 214//49
f 217//49 218//49 216//49
f 219//49 220//49 221//49
f 220//49 222//49 221//49
f 221//49 222//49 223//49
f 224//49 225//49 216//49
f 226//49 217//49 227//49
f 228//49 229//49 219//49
f 230//49 221//49 223//49
f 221//49 230//49 216//49
f 224//49 216//49 230//49
f 232//49 216//49 225//49
f 231//49 233//49 217//49
f 217//49 233//49 227//49
f 234//49 226//49 227//49
f 226//49 234//49 228//49
f 229//49 228//49 234//49
f 232//49 217//49 216//49
f 217//49 232//49 231//49
f 221//49 228//49 219//49
f 235//49 228//49 221//49
f 228//49 235//49 236//49
f 237//49 236//49 235//49
f 239//49 240//49 192//49
f 192//49 240//49 241//49
f 242//49 243//49 244//49
f 247//49 248//49 249//49
f 250//49 192//49 241//49
f 192//49 250//49 244//49
f 242//49 244//49 250//49
f 251//49 244//49 243//49
f 245//49 252//49 246//49
f 246//49 252//49 253//49
f 252//49 254//49 253//49
f 253//49 254//49 248//49
f 249//49 248//49 254//49
f 255//49 248//49 247//49
f 248//49 255//49 192//49
f 239//49 192//49 255//49
f 238//49 235//49 246//49
f 244//49 246//49 235//49
f 251//49 246//49 244//49
f 246//49 251//49 245//49
f 192//49 256//49 248//49
f 257//49 258//49 190//49
f 259//49 260//49 257//49
f 261//49 257//49 260//49
f 257//49 261//49 258//49
f 262//49 263//49 259//49
f 265//49 264//49 262//49
f 264//49 265//49 266//49
f 269//49 265//49 268//49
f 265//49 269//49 266//49
f 270//49 267//49 268//49
f 271//49 272//49 270//49
f 271//49 273//49 274//49
f 271//49 275//49 276//49
f 275//49 271//49 274//49
f 277//49 278//49 279//49
f 280//49 281//49 270//49
f 282//49 283//49 284//49
f 284//49 283//49 285//49
f 277//49 279//49 270//49
f 280//49 270//49 279//49
f 281//49 286//49 270//49
f 270//49 286//49 271//49
f 273//49 271//49 286//49
f 285//49 287//49 277//49
f 277//49 287//49 288//49
f 278//49 277//49 288//49
f 275//49 282//49 276//49
f 284//49 276//49 282//49
f 289//49 188//49 189//49
f 188//49 289//49 284//49
f 291//49 188//49 290//49
f 293//49 294//49 290//49
f 290//49 294//49 292//49
f 295//49 296//49 297//49
f 298//49 297//49 296//49
f 294//49 299//49 292//49
f 292//49 299//49 307//49
f 300//49 307//49 299//49
f 300//49 301//49 307//49
f 307//49 301//49 302//49
f 303//49 304//49 186//49
f 186//49 304//49 305//49
f 306//49 186//49 305//49
f 186//49 306//49 297//49
f 297//49 306//49 295//49
f 302//49 303//49 307//49
f 186//49 307//49 303//49
f 308//49 186//49 187//49
f 186//49 308//49 307//49
f 199//49 200//49 184//49
f 184//49 200//49 309//49
f 309//49 310//49 184//49
f 311//49 184//49 310//49
f 184//49 311//49 185//49
f 313//49 314//49 191//49
f 315//49 191//49 314//49
f 191//49 315//49 257//49
f 318//49 319//49 191//49
f 320//49 191//49 319//49
f 191//49 320//49 313//49
f 316//49 317//49 191//49
f 321//49 191//49 317//49
f 191//49 321//49 318//49
f 322//49 323//49 221//49
f 324//49 221//49 323//49
f 221//49 324//49 316//49
f 216//49 325//49 326//49
f 326//49 327//49 216//49
f 328//49 216//49 327//49
f 216//49 328//49 221//49
f 221//49 328//49 322//49
f 331//49 332//49 186//49
f 333//49 186//49 332//49
f 186//49 333//49 184//49
f 336//49 337//49 186//49
f 338//49 186//49 337//49
f 186//49 338//49 331//49
f 334//49 335//49 186//49
f 339//49 186//49 335//49
f 186//49 339//49 336//49
f 340//49 341//49 342//49
f 343//49 342//49 341//49
f 342//49 343//49 334//49
f 344//49 345//49 270//49
f 346//49 270//49 345//49
f 270//49 346//49 342//49
f 342//49 346//49 340//49
f 312//49 347//49 270//49
f 348//49 270//49 347//49
f 270//49 348//49 344//49
f 277//49 284//49 285//49
f 284//49 277//49 188//49
f 349//49 350//49 186//49
f 352//49 188//49 351//49
f 354//49 353//49 334//49
f 350//49 355//49 186//49
f 186//49 355//49 334//49
f 354//49 334//49 355//49
f 357//49 356//49 297//49
f 349//49 186//49 358//49
f 352//49 359//49 188//49
f 188//49 359//49 360//49
f 360//49 361//49 297//49
f 357//49 297//49 361//49
f 297//49 188//49 360//49
f 188//49 297//49 290//49
f 298//49 290//49 297//49
f 290//49 298//49 293//49
f 356//49 358//49 297//49
f 186//49 297//49 358//49
f 342//49 277//49 270//49
f 277//49 342//49 188//49
f 334//49 188//49 342//49
f 188//49 334//49 351//49
f 353//49 351//49 334//49
f 363//49 312//49 364//49
f 365//49 366//49 265//49
f 265//49 366//49 268//49
f 367//49 268//49 366//49
f 268//49 367//49 362//49
f 368//49 369//49 270//49
f 369//49 370//49 270//49
f 371//49 270//49 370//49
f 270//49 371//49 312//49
f 312//49 371//49 364//49
f 372//49 312//49 363//49
f 365//49 265//49 373//49
f 362//49 374//49 268//49
f 268//49 374//49 270//49
f 368//49 270//49 374//49
f 375//49 376//49 265//49
f 262//49 377//49 378//49
f 375//49 265//49 379//49
f 380//49 262//49 259//49
f 262//49 380//49 377//49
f 381//49 262//49 378//49
f 382//49 257//49 383//49
f 384//49 383//49 257//49
f 381//49 385//49 262//49
f 262//49 385//49 265//49
f 379//49 265//49 385//49
f 386//49 265//49 376//49
f 265//49 386//49 257//49
f 384//49 257//49 386//49
f 387//49 257//49 382//49
f 257//49 387//49 259//49
f 259//49 387//49 388//49
f 380//49 259//49 388//49
f 389//49 390//49 216//49
f 325//49 216//49 329//49
f 329//49 216//49 330//49
f 390//49 330//49 216//49
f 392//49 391//49 214//49
f 390//49 393//49 330//49
f 330//49 393//49 394//49
f 392//49 214//49 395//49
f 196//49 395//49 214//49
f 396//49 397//49 216//49
f 216//49 397//49 389//49
f 399//49 330//49 394//49
f 398//49 400//49 196//49
f 196//49 400//49 395//49
f 184//49 185//49 186//49
f 184//49 330//49 196//49
f 399//49 196//49 330//49
f 196//49 399//49 398//49
f 391//49 401//49 214//49
f 402//49 214//49 401//49
f 214//49 402//49 216//49
f 216//49 402//49 396//49
f 257//49 190//49 191//49
f 257//49 312//49 265//49
f 372//49 265//49 312//49
f 265//49 372//49 373//49
f 316//49 235//49 221//49
f 404//49 235//49 403//49
f 406//49 244//49 405//49
f 407//49 408//49 191//49
f 191//49 408//49 409//49
f 316//49 410//49 411//49
f 404//49 412//49 235//49
f 235//49 412//49 244//49
f 413//49 244//49 412//49
f 244//49 413//49 405//49
f 409//49 414//49 191//49
f 191//49 414//49 316//49
f 410//49 316//49 414//49
f 415//49 316//49 411//49
f 316//49 415//49 235//49
f 235//49 415//49 403//49
f 244//49 191//49 192//49
f 191//49 244//49 407//49
f 406//49 407//49 244//49
f 416//50 417//51 418//52
f 418//52 417//51 419//53
f 420//54 419//53 417//51
f 419//53 420//54 421//55
f 422//56 421//55 420//54
f 421//55 422//56 423//57
f 424//58 423//57 422//56
f 423//57 424//58 425//59
f 426//60 425//59 424//58
f 427//61 425//59 426//60
f 425//59 427//61 416//50
f 417//51 416//50 427//61
f 428//62 429//63 430//64
f 431//65 430//64 429//63
f 430//64 431//65 432//66
f 433//67 432//66 431//65
f 432//66 433//67 434//68
f 435//69 434//68 433//67
f 434//68 435//69 436//70
f 437//71 436//70 435//69
f 436//70 437//71 438//72
f 439//73 438//72 437//71
f 438//72 439//73 428//62
f 429//63 428//62 439//73
f 440//74 441//75 442//76
f 443//77 442//76 441//75
f 444//78 442//76 443//77
f 442//76 444//78 445//79
f 446//80 445//79 444//78
f 445//79 446//80 447//81
f 448//82 447//81 446//80
f 447//81 448//82 449//83
f 449//83 448//82 450//84
f 451//85 450//84 448//82
f 450//84 451//85 440//74
f 441//75 440//74 451//85
f 452//86 453//87 454//88
f 455//89 454//88 453//87
f 454//88 455//89 456//90
f 457//91 456//90 455//89
f 456//90 457//91 458//92
f 459//93 458//92 457//91
f 458//92 459//93 460//94
f 461//95 460//94 459//93
f 460//94 461//95 462//96
f 462//96 461//95 463//97
f 464//98 463//97 461//95
f 463//97 464//98 452//86
f 453//87 452//86 464//98
f 465//1 466//1 467//1
f 468//1 467//1 466//1
f 467//1 468//1 469//1
f 470//1 469//1 468//1
f 471//1 469//1 470//1
f 469//1 471//1 472//1
f 473//1 472//1 471//1
f 472//1 473//1 474//1
f 475//1 474//1 473//1
f 476//1 474//1 475//1
f 474//1 476//1 477//1
f 478//1 477//1 476//1
f 479//1 477//1 478//1
f 477//1 479//1 480//1
f 481//1 480//1 479//1
f 482//1 480//1 481//1
f 480//1 482//1 483//1
f 484//1 483//1 482//1
f 485//1 483//1 484//1
f 483//1 485//1 486//1
f 487//1 486//1 485//1
f 488//1 486//1 487//1
f 486//1 488//1 489//1
f 490//1 489//1 488//1
f 491//1 489//1 490//1
f 489//1 491//1 492//1
f 493//1 492//1 491//1
f 494//1 492//1 493//1
f 492//1 494//1 495//1
f 496//1 495//1 494//1
f 495//1 496//1 497//1
f 498//1 497//1 496//1
f 499//1 497//1 498//1
f 497//1 499//1 500//1
f 501//1 500//1 499//1
f 500//1 501//1 465//1
f 502//1 465//1 501//1
f 466//1 465//1 502//1
f 503//99 504//100 505//101
f 504//100 503//99 506//102
f 507//103 506//102 503//99
f 506//102 507//103 508//104
f 509//105 508//104 507//103
f 508//104 509//105 510//106
f 511//107 510//106 509//105
f 510//106 511//107 512//108
f 1041//109 512//108 511//107
f 512//108 1041//109 513//110
f 505//101 514//111 503//99
f 514//111 505//101 515//112
f 516//113 515//112 505//101
f 515//112 516//113 517//114
f 518//115 517//114 516//113
f 519//116 517//114 518//115
f 517//114 519//116 513//110
f 513//110 519//116 512//108
f 522//117 521//118 520//119
f 521//118 522//117 523//120
f 524//121 523//120 522//117
f 525//122 523//120 524//121
f 523//120 525//122 526//123
f 526//123 525//122 527//124
f 528//125 527//124 525//122
f 527//124 528//125 529//126
f 529//126 530//127 527//124
f 531//128 530//127 529//126
f 530//127 531//128 532//129
f 533//130 532//129 531//128
f 532//129 533//130 534//131
f 535//132 534//131 533//130
f 534//131 535//132 520//119
f 520//119 535//132 522//117
f 536//1 537//1 538//1
f 539//1 538//1 537//1
f 540//1 538//1 539//1
f 538//1 540//1 541//1
f 542//1 541//1 540//1
f 543//1 541//1 542//1
f 541//1 543//1 544//1
f 545//1 544//1 543//1
f 546//1 544//1 545//1
f 544//1 546//1 547//1
f 548//1 547//1 546//1
f 547//1 548//1 549//1
f 550//1 549//1 548//1
f 551//1 549//1 550//1
f 549//1 551//1 552//1
f 553//1 552//1 551//1
f 554//1 552//1 553//1
f 552//1 554//1 555//1
f 556//1 555//1 554//1
f 557//1 555//1 556//1
f 555//1 557//1 558//1
f 559//1 558//1 557//1
f 560//1 558//1 559//1
f 558//1 560//1 561//1
f 562//1 561//1 560//1
f 563//1 561//1 562//1
f 561//1 563//1 564//1
f 565//1 564//1 563//1
f 566//1 564//1 565//1
f 564//1 566//1 567//1
f 568//1 567//1 566//1
f 569//1 567//1 568//1
f 567//1 569//1 570//1
f 571//1 570//1 569//1
f 570//1 571//1 536//1
f 572//1 536//1 571//1
f 537//1 536//1 572//1
f 573//133 574//134 575//135
f 576//136 574//134 573//133
f 574//134 576//136 577//137
f 577//137 576//136 578//138
f 579//139 578//138 576//136
f 578//138 579//139 580//140
f 580//140 579//139 581//141
f 1036//142 581//141 579//139
f 581//141 1036//142 582//143
f 575//135 583//144 573//133
f 584//145 583//144 575//135
f 583//144 584//145 585//146
f 585//146 584//145 586//147
f 587//148 586//147 584//145
f 588//149 586//147 587//148
f 586//147 588//149 582//143
f 582//143 588//149 581//141
f 591//150 590//151 589//152
f 592//153 590//151 591//150
f 590//151 592//153 593//154
f 594//155 593//154 592//153
f 595//156 593//154 594//155
f 593//154 595//156 596//157
f 596//157 595//156 597//158
f 598//159 597//158 595//156
f 597//158 598//159 599//160
f 599//160 598//159 600//161
f 600//161 601//162 599//160
f 601//162 600//161 602//163
f 603//164 602//163 600//161
f 602//163 603//164 604//165
f 605//166 604//165 603//164
f 591//150 604//165 605//166
f 604//165 591//150 589//152
f 606//1 607//1 608//1
f 609//1 608//1 607//1
f 608//1 609//1 610//1
f 611//1 610//1 609//1
f 612//1 610//1 611//1
f 610//1 612//1 613//1
f 614//1 613//1 612//1
f 615//1 613//1 614//1
f 613//1 615//1 616//1
f 617//1 616//1 615//1
f 618//1 616//1 617//1
f 616//1 618//1 619//1
f 620//1 619//1 618//1
f 621//1 619//1 620//1
f 619//1 621//1 622//1
f 623//1 622//1 621//1
f 624//1 622//1 623//1
f 622//1 624//1 625//1
f 626//1 625//1 624//1
f 627//1 625//1 626//1
f 625//1 627//1 628//1
f 629//1 628//1 627//1
f 630//1 628//1 629//1
f 628//1 630//1 631//1
f 632//1 631//1 630//1
f 631//1 632//1 633//1
f 634//1 633//1 632//1
f 635//1 633//1 634//1
f 633//1 635//1 636//1
f 637//1 636//1 635//1
f 638//1 636//1 637//1
f 636//1 638//1 639//1
f 640//1 639//1 638//1
f 641//1 639//1 640//1
f 639//1 641//1 606//1
f 642//1 606//1 641//1
f 607//1 606//1 642//1
f 645//1 643//1 644//1
f 643//1 645//1 646//1
f 647//1 646//1 645//1
f 646//1 647//1 648//1
f 649//1 648//1 647//1
f 650//1 648//1 649//1
f 648//1 650//1 651//1
f 652//1 651//1 650//1
f 653//1 651//1 652//1
f 651//1 653//1 654//1
f 655//1 654//1 653//1
f 656//1 654//1 655//1
f 654//1 656//1 657//1
f 658//1 657//1 656//1
f 659//1 657//1 658//1
f 657//1 659//1 660//1
f 661//1 660//1 659//1
f 660//1 661//1 662//1
f 663//1 662//1 661//1
f 664//1 662//1 663//1
f 662//1 664//1 665//1
f 666//1 665//1 664//1
f 667//1 665//1 666//1
f 665//1 667//1 668//1
f 669//1 668//1 667//1
f 670//1 668//1 669//1
f 668//1 670//1 671//1
f 672//1 671//1 670//1
f 673//1 671//1 672//1
f 671//1 673//1 674//1
f 675//1 674//1 673//1
f 676//1 674//1 675//1
f 674//1 676//1 677//1
f 678//1 677//1 676//1
f 679//1 677//1 678//1
f 677//1 679//1 643//1
f 644//1 643//1 679//1
f 690//167 691//168 680//169
f 681//170 680//169 691//168
f 680//169 681//170 682//171
f 683//172 682//171 681//170
f 682//171 683//172 684//173
f 685//174 684//173 683//172
f 684//173 685//174 686//175
f 687//176 686//175 685//174
f 688//177 686//175 687//176
f 686//175 688//177 689//178
f 689//178 688//177 690//167
f 691//168 690//167 688//177
f 700//179 701//180 692//181
f 692//181 701//180 693//182
f 694//183 693//182 701//180
f 693//182 694//183 695//184
f 696//185 695//184 694//183
f 695//184 696//185 697//186
f 698//187 697//186 696//185
f 699//188 697//186 698//187
f 697//186 699//188 700//179
f 701//180 700//179 699//188
f 702//189 703//190 704//191
f 705//192 704//191 703//190
f 704//191 705//192 706//193
f 707//194 706//193 705//192
f 706//193 707//194 708//195
f 709//196 708//195 707//194
f 708//195 709//196 710//197
f 710//197 709//196 711//198
f 712//199 711//198 709//196
f 711//198 712//199 702//189
f 703//190 702//189 712//199
f 723//200 724//201 713//202
f 714//203 713//202 724//201
f 713//202 714//203 715//204
f 716//205 715//204 714//203
f 715//204 716//205 717//206
f 718//207 717//206 716//205
f 717//206 718//207 719//208
f 720//209 719//208 718//207
f 721//210 719//208 720//209
f 719//208 721//210 722//211
f 722//211 721//210 723//200
f 724//201 723//200 721//210
f 726//212 725//213 736//214
f 725//213 726//212 727//215
f 728//216 727//215 726//212
f 727//215 728//216 729//217
f 729//217 728//216 730//218
f 731//219 730//218 728//216
f 730//218 731//219 732//220
f 733//209 732//220 731//219
f 734//221 732//220 733//209
f 732//220 734//221 735//222
f 736//214 735//222 734//221
f 735//222 736//214 725//213
f 739//223 737//224 738//225
f 737//224 739//223 740//226
f 740//226 739//223 741//227
f 742//228 741//227 739//223
f 741//227 742//228 743//229
f 744//230 743//229 742//228
f 743//229 744//230 745//231
f 746//232 745//231 744//230
f 745//231 746//232 747//233
f 748//234 747//233 746//232
f 747//233 748//234 737//224
f 738//225 737//224 748//234
f 751//235 750//236 749//237
f 750//236 751//235 752//238
f 753//239 752//238 751//235
f 752//238 753//239 1042//240
f 754//241 749//237 750//236
f 749//237 754//241 755//242
f 756//243 755//242 754//241
f 757//244 755//242 756//243
f 755//242 757//244 758//245
f 1043//246 589//152 1044//247
f 590//151 1044//247 589//152
f 759//248 503//99 760//249
f 514//111 760//249 503//99
f 763//1 764//1 765//1
f 766//1 767//1 768//1
f 775//1 776//1 762//1
f 772//1 773//1 778//1
f 780//250 779//1 774//250
f 781//1 779//1 780//250
f 779//1 781//1 782//1
f 762//1 783//1 777//1
f 775//1 762//1 784//1
f 777//1 784//1 762//1
f 784//1 777//1 781//1
f 782//1 781//1 777//1
f 773//1 785//1 778//1
f 778//1 785//1 786//1
f 787//1 768//1 788//1
f 762//1 788//1 768//1
f 788//1 762//1 789//1
f 776//1 789//1 762//1
f 785//1 790//1 786//1
f 786//1 790//1 787//1
f 787//1 790//1 768//1
f 791//1 768//1 790//1
f 768//1 791//1 792//1
f 792//1 793//1 768//1
f 794//1 768//1 793//1
f 795//1 796//1 797//1
f 783//1 762//1 797//1
f 797//1 762//1 795//1
f 798//1 799//1 800//1
f 800//1 799//1 801//1
f 797//1 802//1 803//1
f 799//1 804//1 801//1
f 801//1 804//1 805//1
f 806//1 805//1 804//1
f 805//1 806//1 807//1
f 807//1 806//1 808//1
f 809//1 808//1 806//1
f 808//1 809//1 810//1
f 811//1 812//1 796//1
f 796//1 812//1 797//1
f 802//1 797//1 812//1
f 798//1 800//1 803//1
f 813//1 803//1 800//1
f 814//1 803//1 813//1
f 803//1 814//1 797//1
f 819//1 820//1 832//1
f 821//1 822//1 823//1
f 824//1 825//1 810//1
f 826//1 827//1 828//1
f 829//1 821//1 830//1
f 823//1 830//1 821//1
f 831//1 826//1 832//1
f 826//1 828//1 833//1
f 810//1 825//1 834//1
f 827//1 826//1 831//1
f 835//1 833//1 828//1
f 833//1 835//1 836//1
f 837//1 836//1 835//1
f 836//1 837//1 838//1
f 838//1 837//1 822//1
f 823//1 822//1 837//1
f 839//1 817//1 818//1
f 817//1 839//1 840//1
f 841//1 832//1 826//1
f 820//1 842//1 832//1
f 843//1 832//1 842//1
f 832//1 843//1 844//1
f 810//1 834//1 808//1
f 841//1 819//1 832//1
f 819//1 841//1 839//1
f 840//1 839//1 841//1
f 815//1 816//1 845//1
f 845//1 816//1 846//1
f 847//1 845//1 846//1
f 845//1 847//1 825//1
f 825//1 847//1 834//1
f 821//1 848//1 822//1
f 849//1 822//1 848//1
f 822//1 849//1 850//1
f 851//1 852//1 765//1
f 854//1 853//1 769//1
f 855//1 853//1 854//1
f 853//1 855//1 856//1
f 857//1 858//1 859//1
f 860//1 859//1 858//1
f 770//1 771//1 862//1
f 858//1 863//1 861//1
f 860//1 858//1 864//1
f 861//1 864//1 858//1
f 864//1 861//1 855//1
f 856//1 855//1 861//1
f 865//1 866//1 852//1
f 852//1 866//1 765//1
f 867//1 765//1 866//1
f 765//1 867//1 868//1
f 868//1 869//1 765//1
f 850//1 765//1 869//1
f 771//1 870//1 862//1
f 862//1 870//1 865//1
f 866//1 865//1 870//1
f 871//1 872//1 873//1
f 863//1 858//1 873//1
f 873//1 858//1 871//1
f 875//1 876//1 877//1
f 877//1 876//1 878//1
f 873//1 879//1 880//1
f 876//1 881//1 878//1
f 878//1 881//1 882//1
f 883//1 882//1 881//1
f 882//1 883//1 884//1
f 884//1 883//1 885//1
f 886//1 885//1 883//1
f 885//1 886//1 887//1
f 874//1 888//1 872//1
f 872//1 888//1 873//1
f 879//1 873//1 888//1
f 875//1 877//1 880//1
f 889//1 880//1 877//1
f 890//1 880//1 889//1
f 880//1 890//1 873//1
f 895//1 896//1 887//1
f 899//1 891//1 892//1
f 900//1 901//1 902//1
f 898//1 897//1 903//1
f 904//1 905//1 898//1
f 905//1 906//1 898//1
f 907//1 898//1 906//1
f 898//1 907//1 908//1
f 887//1 896//1 909//1
f 910//1 900//1 911//1
f 902//1 911//1 900//1
f 903//1 904//1 898//1
f 904//1 903//1 899//1
f 899//1 903//1 891//1
f 887//1 909//1 885//1
f 914//1 913//1 912//1
f 913//1 914//1 896//1
f 896//1 914//1 909//1
f 898//1 915//1 897//1
f 897//1 915//1 916//1
f 917//1 897//1 916//1
f 897//1 917//1 918//1
f 893//1 894//1 913//1
f 913//1 894//1 912//1
f 917//1 919//1 918//1
f 918//1 919//1 920//1
f 921//1 920//1 919//1
f 920//1 921//1 922//1
f 922//1 921//1 901//1
f 902//1 901//1 921//1
f 900//1 923//1 901//1
f 924//1 901//1 923//1
f 901//1 924//1 794//1
f 925//1 926//1 927//1
f 926//1 928//1 927//1
f 927//1 928//1 796//1
f 811//1 796//1 928//1
f 810//1 809//1 929//1
f 930//1 810//1 931//1
f 929//1 931//1 810//1
f 931//1 929//1 932//1
f 932//1 929//1 925//1
f 933//1 925//1 929//1
f 925//1 933//1 926//1
f 829//1 934//1 935//1
f 936//1 937//1 938//1
f 939//1 938//1 937//1
f 938//1 939//1 940//1
f 935//1 821//1 829//1
f 832//1 940//1 939//1
f 940//1 832//1 810//1
f 844//1 810//1 832//1
f 810//1 844//1 824//1
f 934//1 941//1 935//1
f 935//1 941//1 936//1
f 937//1 936//1 941//1
f 942//1 943//1 944//1
f 943//1 945//1 944//1
f 944//1 945//1 872//1
f 874//1 872//1 945//1
f 887//1 886//1 946//1
f 947//1 887//1 948//1
f 946//1 948//1 887//1
f 948//1 946//1 949//1
f 949//1 946//1 942//1
f 950//1 942//1 946//1
f 942//1 950//1 943//1
f 910//1 951//1 952//1
f 953//1 954//1 955//1
f 956//1 955//1 954//1
f 955//1 956//1 957//1
f 952//1 900//1 910//1
f 898//1 957//1 956//1
f 957//1 898//1 887//1
f 908//1 887//1 898//1
f 887//1 908//1 895//1
f 951//1 958//1 952//1
f 952//1 958//1 953//1
f 954//1 953//1 958//1
f 959//1 960//1 961//1
f 959//1 961//1 962//1
f 963//1 964//1 768//1
f 965//1 768//1 964//1
f 966//1 967//1 959//1
f 959//1 967//1 960//1
f 968//1 969//1 762//1
f 762//1 969//1 970//1
f 971//1 768//1 965//1
f 768//1 971//1 762//1
f 968//1 762//1 971//1
f 973//1 962//1 961//1
f 962//1 973//1 974//1
f 974//1 973//1 767//1
f 975//1 767//1 973//1
f 767//1 975//1 768//1
f 963//1 768//1 975//1
f 976//1 972//1 970//1
f 972//1 976//1 977//1
f 978//1 977//1 976//1
f 977//1 978//1 966//1
f 966//1 978//1 967//1
f 794//1 924//1 768//1
f 979//1 980//1 858//1
f 981//1 858//1 980//1
f 982//1 983//1 984//1
f 982//1 984//1 985//1
f 986//1 987//1 765//1
f 988//1 765//1 987//1
f 857//1 851//1 858//1
f 765//1 858//1 851//1
f 858//1 765//1 989//1
f 988//1 989//1 765//1
f 989//1 990//1 858//1
f 858//1 990//1 991//1
f 992//1 993//1 982//1
f 982//1 993//1 983//1
f 991//1 994//1 858//1
f 858//1 994//1 979//1
f 995//1 979//1 994//1
f 979//1 995//1 996//1
f 997//1 996//1 995//1
f 996//1 997//1 992//1
f 992//1 997//1 993//1
f 998//1 985//1 984//1
f 985//1 998//1 999//1
f 999//1 998//1 764//1
f 1000//1 764//1 998//1
f 764//1 1000//1 765//1
f 986//1 765//1 1000//1
f 850//1 849//1 765//1
f 970//1 972//1 762//1
f 1001//1 762//1 972//1
f 762//1 1001//1 761//1
f 601//162 1002//251 599//160
f 1045//252 1003//253 1046//254
f 1046//254 1003//253 1004//255
f 1005//256 1004//255 1003//253
f 1004//255 1005//256 1006//257
f 1007//258 1006//257 1005//256
f 1006//257 1007//258 1008//259
f 1009//260 1008//259 1007//258
f 1008//259 1009//260 1010//261
f 1011//262 1010//261 1009//260
f 582//143 1036//142 1035//263
f 583//144 1012//264 573//133
f 1015//265 1014//266 1013//267
f 1014//266 1015//265 1016//268
f 1033//269 1016//268 1015//265
f 1016//268 1033//269 1034//270
f 1017//271 1013//267 1014//266
f 1013//267 1017//271 1018//272
f 1019//273 1018//272 1017//271
f 1020//274 1018//272 1019//273
f 1018//272 1020//274 1021//275
f 1039//276 520//119 521//118
f 1022//277 527//124 1023//278
f 530//127 1023//278 527//124
f 1037//279 1024//280 1038//281
f 1038//281 1024//280 1025//282
f 1026//283 1025//282 1024//280
f 1025//282 1026//283 1027//284
f 1028//285 1027//284 1026//283
f 1027//284 1028//285 1029//286
f 1030//287 1029//286 1028//285
f 1029//286 1030//287 1031//288
f 1032//289 1031//288 1030//287
f 513//110 1041//109 1040//290
f 573//133 1012//264 1033//269
f 1034//270 1033//269 1012//264
f 1035//263 1010//261 1011//262
f 1010//261 1035//263 1036//142
f 1037//279 1022//277 1023//278
f 1022//277 1037//279 1038//281
f 1039//276 1021//275 1020//274
f 1021//275 1039//276 521//118
f 1040//290 1031//288 1032//289
f 1031//288 1040//290 1041//109
f 1042//240 759//248 760//249
f 759//248 1042//240 753//239
f 1043//246 758//245 757//244
f 758//245 1043//246 1044//247
f 1045//252 599//160 1002//251
f 599//160 1045//252 1046//254
f 1048//291 1047//292 1049//293
f 1050//294 1049//293 1047//292
f 1049//293 1050//294 1051//295
f 1052//296 1051//295 1050//294
f 1051//295 1052//296 1053//297
f 1054//298 1053//297 1052//296
f 1053//297 1054//298 1055//299
f 1055//299 1054//298 1056//300
f 1057//301 1056//300 1054//298
f 1058//302 1056//300 1057//301
f 1056//300 1058//302 1059//303
f 1060//304 1059//303 1058//302
f 1059//303 1060//304 1061//305
f 1062//306 1061//305 1060//304
f 1061//305 1062//306 1063//307
f 1064//308 1063//307 1062//306
f 1063//307 1064//308 1065//309
f 1066//310 1065//309 1064//308
f 1065//309 1066//310 1067//311
f 1068//312 1067//311 1066//310
f 1067//311 1068//312 1069//313
f 1069//313 1068//312 1070//314
f 1071//315 1070//314 1068//312
f 1072//316 1070//314 1071//315
f 1070//314 1072//316 1073//317
f 1047//292 1073//317 1072//316
f 1073//317 1047//292 1048//291
f 1074//1 1075//1 1076//1
f 1076//1 1075//1 1077//1
f 1078//1 1077//1 1075//1
f 1077//1 1078//1 1079//1
f 1080//1 1079//1 1078//1
f 1079//1 1080//1 1081//1
f 1082//1 1081//1 1080//1
f 1081//1 1082//1 1083//1
f 1084//1 1083//1 1082//1
f 1083//1 1084//1 1085//1
f 1086//1 1085//1 1084//1
f 1085//1 1086//1 1087//1
f 1088//1 1087//1 1086//1
f 1087//1 1088//1 1089//1
f 1090//1 1089//1 1088//1
f 1089//1 1090//1 1091//1
f 1092//1 1091//1 1090//1
f 1091//1 1092//1 1093//1
f 1094//1 1093//1 1092//1
f 1093//1 1094//1 1095//1
f 1096//1 1095//1 1094//1
f 1095//1 1096//1 1097//1
f 1098//1 1097//1 1096//1
f 1097//1 1098//1 1099//1
f 1100//1 1099//1 1098//1
f 1099//1 1100//1 1101//1
f 1102//1 1101//1 1100//1
f 1101//1 1102//1 1103//1
f 1104//1 1103//1 1102//1
f 1103//1 1104//1 1105//1
f 1106//1 1105//1 1104//1
f 1105//1 1106//1 1107//1
f 1108//1 1107//1 1106//1
f 1107//1 1108//1 1109//1
f 1110//1 1109//1 1108//1
f 1109//1 1110//1 1111//1
f 1112//1 1111//1 1110//1
f 1111//1 1112//1 1113//1
f 1114//1 1113//1 1112//1
f 1113//1 1114//1 1115//1
f 1116//1 1115//1 1114//1
f 1115//1 1116//1 1117//1
f 1118//1 1117//1 1116//1
f 1117//1 1118//1 1119//1
f 1120//1 1119//1 1118//1
f 1119//1 1120//1 1121//1
f 1122//1 1121//1 1120//1
f 1121//1 1122//1 1123//1
f 1124//1 1123//1 1122//1
f 1123//1 1124//1 1125//1
f 1126//1 1125//1 1124//1
f 1125//1 1126//1 1127//1
f 1128//1 1127//1 1126//1
f 1127//1 1128//1 1129//1
f 1130//1 1129//1 1128//1
f 1129//1 1130//1 1131//1
f 1132//1 1131//1 1130//1
f 1131//1 1132//1 1133//1
f 1134//1 1133//1 1132//1
f 1133//1 1134//1 1076//1
f 1074//1 1076//1 1134//1
f 1135//318 1136//319 1137//320
f 1138//321 1137//320 1136//319
f 1137//320 1138//321 1139//322
f 1140//323 1139//322 1138//321
f 1139//322 1140//323 1141//324
f 1142//325 1141//324 1140//323
f 1143//326 1141//324 1142//325
f 1141//324 1143//326 1144//327
f 1144//327 1143//326 1145//328
f 1146//329 1145//328 1143//326
f 1145//328 1146//329 1147//330
f 1148//331 1147//330 1146//329
f 1147//330 1148//331 1149//332
f 1150//333 1149//332 1148//331
f 1149//332 1150//333 1151//334
f 1152//335 1151//334 1150//333
f 1153//336 1151//334 1152//335
f 1151//334 1153//336 1154//337
f 1155//338 1154//337 1153//336
f 1154//337 1155//338 1156//339
f 1157//340 1156//339 1155//338
f 1156//339 1157//340 1158//341
f 1159//342 1158//341 1157//340
f 1158//341 1159//342 1160//343
f 1161//344 1160//343 1159//342
f 1160//343 1161//344 1135//318
f 1136//319 1135//318 1161//344
f 1162//1 1163//1 1164//1
f 1165//1 1164//1 1163//1
f 1164//1 1165//1 1166//1
f 1167//1 1166//1 1165//1
f 1166//1 1167//1 1168//1
f 1169//1 1168//1 1167//1
f 1168//1 1169//1 1170//1
f 1171//1 1172//1 1173//1
f 1174//1 1173//1 1172//1
f 1173//1 1174//1 1175//1
f 1176//1 1175//1 1174//1
f 1175//1 1176//1 1177//1
f 1178//1 1177//1 1176//1
f 1177//1 1178//1 1162//1
f 1179//1 1162//1 1178//1
f 1162//1 1179//1 1163//1
f 1180//1 1181//1 1182//1
f 1183//1 1182//1 1181//1
f 1182//1 1183//1 1184//1
f 1185//1 1184//1 1183//1
f 1184//1 1185//1 1186//1
f 1187//1 1186//1 1185//1
f 1186//1 1187//1 1188//1
f 1189//1 1190//1 1191//1
f 1192//1 1191//1 1190//1
f 1191//1 1192//1 1193//1
f 1194//1 1193//1 1192//1
f 1193//1 1194//1 1195//1
f 1196//1 1195//1 1194//1
f 1195//1 1196//1 1180//1
f 1197//1 1180//1 1196//1
f 1180//1 1197//1 1181//1
f 1169//1 1198//1 1170//1
f 1199//1 1170//1 1198//1
f 1170//1 1199//1 1200//1
f 1201//1 1200//1 1199//1
f 1200//1 1201//1 1202//1
f 1203//1 1202//1 1201//1
f 1202//1 1203//1 1204//1
f 1205//1 1204//1 1203//1
f 1204//1 1205//1 1189//1
f 1206//1 1189//1 1205//1
f 1189//1 1206//1 1190//1
f 1187//1 1207//1 1188//1
f 1208//1 1188//1 1207//1
f 1188//1 1208//1 1209//1
f 1210//1 1209//1 1208//1
f 1209//1 1210//1 1211//1
f 1212//1 1211//1 1210//1
f 1211//1 1212//1 1213//1
f 1214//1 1213//1 1212//1
f 1213//1 1214//1 1171//1
f 1215//1 1171//1 1214//1
f 1171//1 1215//1 1172//1
f 1216//49 1217//49 1218//49
f 1219//49 1218//49 1217//49
f 1218//49 1219//49 1220//49
f 1221//49 1222//49 1223//49
f 1223//49 1224//49 1221//49
f 1225//49 1221//49 1224//49
f 1221//49 1225//49 1226//49
f 1227//49 1226//49 1225//49
f 1226//49 1227//49 1216//49
f 1228//49 1216//49 1227//49
f 1216//49 1228//49 1217//49
f 1229//49 1230//49 1231//49
f 1232//49 1231//49 1230//49
f 1231//49 1232//49 1222//49
f 1233//49 1222//49 1232//49
f 1222//49 1233//49 1223//49
f 1234//49 1235//49 1236//49
f 1237//49 1236//49 1235//49
f 1236//49 1237//49 1238//49
f 1239//49 1240//49 1241//49
f 1242//49 1241//49 1240//49
f 1241//49 1242//49 1243//49
f 1237//49 1244//49 1238//49
f 1245//49 1238//49 1244//49
f 1238//49 1245//49 1246//49
f 1247//49 1246//49 1245//49
f 1246//49 1247//49 1229//49
f 1248//49 1229//49 1247//49
f 1229//49 1248//49 1230//49
f 1249//49 1250//49 1234//49
f 1251//49 1234//49 1250//49
f 1234//49 1251//49 1235//49
f 1252//49 1253//49 1254//49
f 1255//49 1254//49 1253//49
f 1254//49 1255//49 1249//49
f 1256//49 1249//49 1255//49
f 1249//49 1256//49 1250//49
f 1257//49 1258//49 1259//49
f 1260//49 1259//49 1258//49
f 1259//49 1260//49 1239//49
f 1261//49 1239//49 1260//49
f 1239//49 1261//49 1240//49
f 1219//49 1262//49 1220//49
f 1263//49 1220//49 1262//49
f 1220//49 1263//49 1264//49
f 1265//49 1266//49 1267//49
f 1268//49 1267//49 1266//49
f 1267//49 1268//49 1252//49
f 1269//49 1252//49 1268//49
f 1252//49 1269//49 1253//49
f 1263//49 1270//49 1264//49
f 1271//49 1264//49 1270//49
f 1264//49 1271//49 1272//49
f 1273//49 1272//49 1271//49
f 1272//49 1273//49 1257//49
f 1274//49 1257//49 1273//49
f 1257//49 1274//49 1258//49
f 1242//49 1275//49 1243//49
f 1276//49 1243//49 1275//49
f 1243//49 1276//49 1265//49
f 1277//49 1265//49 1276//49
f 1265//49 1277//49 1266//49
f 1278//345 1279//346 1280//347
f 1281//348 1280//347 1279//346
f 1280//347 1281//348 1282//349
f 1281//348 1283//350 1282//349
f 1282//349 1283//350 1284//351
f 1285//352 1284//351 1283//350
f 1284//351 1285//352 1286//353
f 1287//354 1286//353 1285//352
f 1288//355 1286//353 1287//354
f 1286//353 1288//355 1289//356
f 1290//357 1289//356 1288//355
f 1289//356 1290//357 1291//358
f 1292//359 1291//358 1290//357
f 1291//358 1292//359 1293//360
f 1294//361 1293//360 1292//359
f 1293//360 1294//361 1295//362
f 1296//363 1295//362 1294//361
f 1295//362 1296//363 1297//364
f 1298//365 1297//364 1296//363
f 1297//364 1298//365 1299//366
f 1298//365 1300//367 1299//366
f 1299//366 1300//367 1301//368
f 1301//368 1300//367 1302//369
f 1303//370 1302//369 1300//367
f 1302//369 1303//370 1304//371
f 1305//372 1304//371 1303//370
f 1306//373 1304//371 1305//372
f 1304//371 1306//373 1307//374
f 1307//374 1306//373 1308//375
f 1309//376 1308//375 1306//373
f 1308//375 1309//376 1310//377
f 1311//378 1310//377 1309//376
f 1310//377 1311//378 1278//345
f 1278//345 1311//378 1279//346
f 1332//379 1312//380 1313//381
f 1314//382 1313//381 1312//380
f 1315//383 1313//381 1314//382
f 1313//381 1315//383 1316//384
f 1317//385 1316//384 1315//383
f 1316//384 1317//385 1318//386
f 1319//387 1318//386 1317//385
f 1318//386 1319//387 1320//388
f 1321//389 1320//388 1319//387
f 1320//388 1321//389 1322//390
f 1323//391 1322//390 1321//389
f 1322//390 1323//391 1324//392
f 1325//393 1324//392 1323//391
f 1324//392 1325//393 1326//394
f 1327//395 1326//394 1325//393
f 1326//394 1327//395 1328//396
f 1329//397 1328//396 1327//395
f 1328//396 1329//397 1330//398
f 1331//399 1330//398 1329//397
f 1330//398 1331//399 1332//379
f 1312//380 1332//379 1331//399
