# Blender 4.3.2
# www.blender.org
mtllib finger_outter_03.mtl
o finger_outter_03
v -0.026472 -0.006385 -0.039485
v -0.020470 -0.004637 -0.038602
v -0.020470 -0.008004 -0.041283
v -0.020467 -0.010903 -0.046080
v -0.026470 -0.010342 -0.045637
v -0.026469 -0.014514 -0.047184
v -0.020470 -0.014493 -0.047021
v -0.020467 -0.017821 -0.045433
v -0.026468 -0.018660 -0.044261
v -0.020470 -0.019028 -0.042239
v -0.026470 0.001433 -0.035036
v -0.020470 0.001419 -0.034980
v -0.020470 -0.000802 -0.037289
v -0.026470 -0.000882 -0.037313
v -0.022970 -0.005583 -0.003252
v -0.021470 -0.005147 -0.004458
v -0.022970 -0.004682 -0.004774
v -0.021470 -0.003210 -0.004895
v -0.022970 -0.002700 -0.004660
v -0.021470 -0.002161 -0.003763
v -0.022970 -0.002121 -0.002516
v -0.021470 -0.002482 -0.002008
v -0.022970 -0.004521 -0.001566
v -0.021470 -0.004181 -0.001536
v -0.021470 -0.005417 -0.002484
v -0.021470 0.003044 -0.002291
v -0.022970 0.003280 -0.002801
v -0.021470 0.004631 -0.003495
v -0.022944 0.005629 -0.003276
v -0.021470 0.006309 -0.002435
v -0.022970 0.006301 -0.000998
v -0.021470 0.006157 -0.000673
v -0.022970 0.005147 0.000026
v -0.021470 0.004554 0.000075
v -0.022970 0.003262 -0.000597
v -0.021470 0.003247 -0.000746
v -0.022984 -0.002527 0.004104
v -0.021470 -0.002225 0.003695
v -0.022970 -0.000640 0.003202
v -0.021470 -0.000054 0.003315
v -0.022970 0.000785 0.004241
v -0.021470 0.000874 0.005314
v -0.022970 0.000345 0.006184
v -0.021470 -0.000362 0.006573
v -0.022964 -0.001754 0.006531
v -0.021478 -0.002387 0.005988
v -0.022970 -0.015275 0.002759
v -0.026470 -0.011945 -0.032286
v -0.026470 -0.009502 -0.037340
v -0.026470 -0.008627 -0.042360
v -0.026470 0.000522 -0.007837
v -0.026470 0.009480 -0.003088
v -0.026470 0.010108 -0.003658
v -0.026470 0.012332 -0.009390
v -0.026470 0.011063 -0.004124
v -0.026470 0.007946 -0.001954
v -0.026470 0.007905 -0.001107
v -0.026470 0.008720 -0.000719
v -0.026470 0.008900 0.000110
v -0.026470 0.014475 -0.005508
v -0.026470 0.013950 -0.004472
v -0.026470 0.013465 -0.007678
v -0.026470 0.001509 -0.002267
v -0.026470 0.001768 -0.003075
v -0.026470 0.002228 -0.003788
v -0.026470 0.002856 -0.004358
v -0.026470 0.003610 -0.004746
v -0.026470 0.004440 -0.004926
v -0.026470 0.006808 -0.004166
v -0.026470 0.006095 -0.004625
v -0.026470 0.005287 -0.004885
v -0.026470 0.008762 -0.001567
v -0.026470 0.009021 -0.002375
v -0.026470 0.007766 -0.002783
v -0.026470 0.007378 -0.003538
v -0.026470 0.001468 -0.001420
v -0.026470 0.001214 0.000549
v -0.026470 0.001647 -0.000590
v -0.026470 0.014379 -0.004949
v -0.026470 0.002606 0.000792
v -0.026470 0.002035 0.000164
v -0.026470 0.002167 0.003823
v -0.026470 0.002346 0.004652
v -0.026470 0.004127 0.001511
v -0.026470 0.004974 0.001552
v -0.026470 0.010571 0.001952
v -0.026470 0.009858 0.001493
v -0.026470 0.009288 0.000864
v -0.026470 0.007646 -0.000299
v -0.026470 0.001779 0.003069
v -0.026470 0.003319 0.001252
v -0.026470 0.001209 0.002440
v -0.026470 0.015175 0.002926
v -0.026470 0.014256 0.002097
v -0.026470 0.014910 0.004235
v -0.026470 0.011589 0.002255
v -0.026470 0.007186 0.000415
v -0.026470 0.006558 0.000985
v -0.026470 0.005803 0.001373
v -0.026470 0.014776 0.002280
v -0.026470 -0.000876 -0.001845
v -0.026470 -0.001335 -0.001132
v -0.026470 -0.004081 -0.006472
v -0.026470 -0.003234 -0.006431
v -0.026470 -0.002426 -0.006172
v -0.026470 -0.001713 -0.005712
v -0.026470 -0.001143 -0.005084
v -0.026470 -0.000755 -0.004329
v -0.026470 -0.000575 -0.003500
v -0.026470 -0.000616 -0.002653
v -0.026470 -0.001963 -0.000561
v -0.026470 -0.002718 -0.000173
v -0.026470 -0.003547 0.000006
v -0.026470 -0.004911 -0.006292
v -0.026470 -0.011697 -0.018666
v -0.026470 -0.005665 -0.005904
v -0.026470 -0.005916 -0.000754
v -0.026470 -0.008720 0.000719
v -0.026470 -0.006486 -0.001382
v -0.026470 -0.007012 -0.003813
v -0.026470 -0.007053 -0.002966
v -0.026470 -0.006874 -0.002136
v -0.026470 -0.006753 -0.004621
v -0.026470 -0.006294 -0.005334
v -0.026470 -0.004394 -0.000035
v -0.026470 -0.005202 -0.000294
v -0.026470 -0.003831 0.003532
v -0.026470 -0.003372 0.002818
v -0.026470 -0.002744 0.002248
v -0.026470 0.000495 0.001981
v -0.026470 -0.001989 0.001860
v -0.026470 -0.001160 0.001681
v -0.026470 -0.000312 0.001722
v -0.026470 -0.003952 0.006016
v -0.026470 -0.004132 0.005187
v -0.026470 -0.004090 0.004339
v -0.026470 -0.003564 0.006771
v -0.026470 -0.004521 0.014826
v -0.026470 -0.003046 0.015179
v -0.026470 -0.002544 0.015011
v -0.026470 -0.002994 0.007399
v -0.026470 -0.001952 0.010571
v -0.026470 -0.001473 0.008117
v -0.026470 -0.002255 0.011589
v -0.026470 -0.002281 0.007858
v -0.026470 -0.001493 0.009858
v -0.026470 -0.000864 0.009288
v -0.026470 -0.000625 0.008159
v -0.026470 -0.000110 0.008900
v -0.026470 0.000204 0.007979
v -0.026470 0.000719 0.008720
v -0.026470 0.000958 0.007591
v -0.026470 0.001587 0.007021
v -0.026470 -0.002126 0.014497
v -0.026470 0.001567 0.008762
v -0.026470 0.002046 0.006308
v -0.026470 0.002375 0.009021
v -0.026470 0.003088 0.009480
v -0.026470 0.013281 0.007992
v -0.026470 0.003658 0.010108
v -0.026470 0.004124 0.011063
v -0.026470 0.002305 0.005500
v -0.026470 0.014220 0.006168
v -0.026470 0.005614 0.014443
v -0.026470 0.007418 0.013610
v -0.026470 0.004404 0.013719
v -0.026470 0.009151 0.012510
v -0.026470 0.010724 0.011192
v -0.026470 0.012108 0.009677
v -0.026470 0.004671 0.014203
v -0.026470 0.005172 0.014453
v -0.026470 0.002211 -0.011379
v -0.026470 0.010983 -0.010937
v -0.026470 0.001493 -0.009858
v -0.026470 0.002252 -0.012227
v -0.026470 0.001952 -0.010571
v -0.026470 0.009442 -0.012292
v -0.026470 0.006453 -0.014306
v -0.026470 0.002073 -0.013056
v -0.026470 0.001685 -0.013810
v -0.026470 0.005250 -0.015456
v -0.026470 0.001115 -0.014439
v -0.026470 0.000864 -0.009288
v -0.026470 0.000110 -0.008900
v -0.026470 -0.000719 -0.008720
v -0.026470 -0.003466 -0.014061
v -0.026470 -0.002838 -0.014631
v -0.026470 -0.001567 -0.008762
v -0.026470 -0.002375 -0.009021
v -0.026470 -0.003088 -0.009480
v -0.026470 -0.003658 -0.010108
v -0.026470 -0.004046 -0.010863
v -0.026470 -0.004226 -0.011692
v -0.026470 -0.002083 -0.015019
v -0.026470 -0.001254 -0.015198
v -0.026470 0.002912 -0.020098
v -0.026470 0.004282 -0.016741
v -0.026470 0.003532 -0.018164
v -0.026470 0.000401 -0.014898
v -0.026470 -0.000407 -0.015157
v -0.026470 -0.004184 -0.012540
v -0.026470 -0.003925 -0.013347
v -0.026470 -0.013750 0.007155
v -0.026470 -0.013696 0.004396
v -0.026470 -0.014202 0.004669
v -0.026470 -0.014453 0.005172
v -0.026470 -0.014440 0.005635
v -0.026470 -0.008762 0.001567
v -0.026470 -0.009021 0.002375
v -0.026470 -0.009480 0.003088
v -0.026470 -0.010108 0.003658
v -0.026470 -0.011068 0.004126
v -0.026470 -0.011595 -0.002256
v -0.026470 -0.010571 -0.001952
v -0.026470 -0.009858 -0.001493
v -0.026470 -0.009288 -0.000864
v -0.026470 -0.008900 -0.000110
v -0.026470 -0.015054 -0.002057
v -0.026470 -0.015780 -0.002804
v -0.026470 -0.015547 -0.002366
v -0.026470 -0.018607 -0.037022
v -0.026470 -0.018687 -0.043727
v -0.026470 -0.018998 -0.042382
v -0.026470 -0.017506 -0.045550
v -0.026470 -0.018196 -0.044704
v -0.026470 -0.012940 -0.041303
v -0.026470 -0.013288 -0.040958
v -0.026470 -0.013066 -0.042832
v -0.026470 -0.012768 -0.042252
v -0.026470 -0.011442 -0.046282
v -0.026470 -0.012770 -0.041762
v -0.026470 -0.013733 -0.040754
v -0.026470 -0.015258 -0.042047
v -0.026470 -0.015059 -0.042668
v -0.026470 -0.016647 -0.046227
v -0.026470 -0.014711 -0.043013
v -0.026470 -0.015663 -0.046701
v -0.026470 -0.014266 -0.043218
v -0.026470 -0.014598 -0.046950
v -0.026470 -0.013506 -0.046961
v -0.026470 -0.013615 -0.043186
v -0.026470 -0.012436 -0.046735
v -0.026470 -0.014385 -0.040786
v -0.026470 -0.014933 -0.041139
v -0.026470 -0.015176 -0.041564
v -0.026470 -0.009801 -0.044715
v -0.026470 -0.010570 -0.045624
v -0.026470 -0.007674 -0.041032
v -0.026470 -0.001216 -0.037430
v -0.026470 -0.003722 -0.038203
v -0.026470 -0.005189 -0.038925
v -0.026470 -0.006518 -0.039877
v -0.026470 -0.002152 -0.032159
v -0.026470 -0.002634 -0.031721
v -0.026470 -0.002278 -0.033688
v -0.026470 -0.003272 -0.031583
v -0.026470 -0.004058 -0.033775
v -0.026470 -0.003633 -0.034018
v -0.026470 -0.003150 -0.034101
v -0.026470 -0.002677 -0.033972
v -0.026470 -0.001979 -0.033108
v -0.026470 -0.001981 -0.032619
v -0.026470 -0.004470 -0.032903
v -0.026470 -0.004341 -0.033376
v -0.026470 -0.003745 -0.031711
v -0.026470 -0.004145 -0.031995
v -0.026470 -0.004388 -0.032420
v -0.026470 0.001660 -0.034029
v -0.026470 0.001158 -0.035273
v -0.026470 0.000546 -0.036140
v -0.026470 -0.000235 -0.036859
v -0.026470 -0.006440 0.014099
v -0.026470 -0.008246 0.013124
v -0.026470 -0.009908 0.011920
v -0.026470 -0.011396 0.010507
v -0.026470 -0.012684 0.008909
v -0.026470 -0.011947 -0.031796
v -0.026470 -0.012118 -0.031337
v -0.026470 -0.012465 -0.030992
v -0.026470 -0.013116 -0.033278
v -0.026470 -0.012643 -0.033150
v -0.026470 -0.014237 -0.032702
v -0.026470 -0.012244 -0.032866
v -0.026470 -0.012911 -0.030788
v -0.026470 -0.013563 -0.030819
v -0.026470 -0.013754 -0.033140
v -0.026470 -0.013986 -0.031066
v -0.026470 -0.014298 -0.031443
v -0.026470 -0.014436 -0.032081
v -0.020470 -0.002159 -0.008221
v -0.020470 -0.004186 -0.009087
v -0.020470 -0.004841 -0.006987
v -0.020470 -0.005981 -0.006040
v -0.020470 0.013280 0.007992
v -0.020470 0.012108 0.009677
v -0.020470 0.007418 0.013610
v -0.020470 0.005555 0.014470
v -0.020470 0.009151 0.012510
v -0.020470 -0.016647 -0.046227
v -0.020470 -0.003722 -0.038203
v -0.020470 -0.001226 -0.037438
v -0.020470 -0.009702 -0.037323
v -0.020470 -0.012509 0.002613
v -0.020470 -0.013750 0.007155
v -0.020470 -0.012322 -0.000689
v -0.020470 -0.012928 -0.000411
v -0.020470 -0.018998 -0.042382
v -0.020470 -0.011175 0.002511
v -0.020470 -0.010518 0.001915
v -0.020470 -0.009908 0.011920
v -0.020470 -0.010287 0.001290
v -0.020470 -0.010288 0.000598
v -0.020470 -0.010515 -0.008564
v -0.020470 -0.010690 -0.000165
v -0.020470 -0.011820 0.002681
v -0.020470 -0.011436 -0.000646
v -0.020470 -0.015144 0.003304
v -0.020470 -0.015448 0.001274
v -0.020470 -0.013631 0.001376
v -0.020470 -0.013229 0.002139
v -0.020470 -0.014574 0.005276
v -0.020470 -0.013400 0.000058
v -0.020470 -0.013632 0.000683
v -0.020470 -0.004145 -0.031995
v -0.020470 -0.011977 -0.031635
v -0.020470 -0.003745 -0.031711
v -0.020470 -0.003272 -0.031583
v -0.020470 -0.002634 -0.031721
v -0.020470 0.002912 -0.020098
v -0.020470 -0.003633 -0.034018
v -0.020470 -0.004058 -0.033775
v -0.020470 -0.004411 -0.033227
v -0.020470 -0.003150 -0.034101
v -0.020470 -0.002677 -0.033972
v -0.020470 -0.002278 -0.033688
v -0.020470 -0.002152 -0.032159
v -0.020470 0.001660 -0.034029
v -0.020470 -0.000235 -0.036859
v -0.020470 0.000546 -0.036140
v -0.020470 0.001158 -0.035273
v -0.020470 -0.001979 -0.033108
v -0.020470 -0.001981 -0.032619
v -0.020470 -0.007674 -0.041032
v -0.020470 -0.006518 -0.039877
v -0.020470 -0.005189 -0.038925
v -0.020470 -0.012799 -0.041601
v -0.020470 -0.008627 -0.042360
v -0.020470 -0.013506 -0.046961
v -0.020470 -0.012768 -0.042252
v -0.020470 -0.009825 -0.044746
v -0.020470 -0.013086 -0.042861
v -0.020470 -0.010570 -0.045624
v -0.020470 -0.011442 -0.046282
v -0.020470 -0.012436 -0.046735
v -0.020470 -0.013733 -0.040754
v -0.020470 -0.013158 -0.041057
v -0.020470 -0.015059 -0.042668
v -0.020470 -0.013615 -0.043186
v -0.020470 -0.014598 -0.046950
v -0.020470 -0.014266 -0.043218
v -0.020470 -0.015663 -0.046701
v -0.020470 -0.014711 -0.043013
v -0.020470 -0.014385 -0.040786
v -0.020470 -0.015258 -0.042047
v -0.020470 -0.015176 -0.041564
v -0.020470 -0.014933 -0.041139
v -0.020470 -0.018687 -0.043727
v -0.020470 -0.018196 -0.044704
v -0.020470 -0.017506 -0.045550
v -0.020470 -0.012684 0.008909
v -0.020470 -0.011396 0.010507
v -0.020470 -0.004521 0.014826
v -0.020470 -0.006440 0.014099
v -0.020470 -0.003630 0.007686
v -0.020470 -0.008246 0.013124
v -0.020470 -0.000480 0.015493
v -0.020470 -0.000946 0.009510
v -0.020470 -0.002522 0.015293
v -0.020470 -0.000538 0.012743
v -0.020470 0.000058 0.013400
v -0.020470 0.003595 0.015077
v -0.020470 0.001571 0.015420
v -0.020470 0.001376 0.013631
v -0.020470 0.000683 0.013632
v -0.020470 0.002511 0.011175
v -0.020470 0.001915 0.010518
v -0.020470 0.000598 0.010288
v -0.020470 -0.000165 0.010690
v -0.020470 -0.000646 0.011436
v -0.020470 0.001290 0.010287
v -0.020470 -0.000708 0.012099
v -0.020470 0.002139 0.013229
v -0.020470 0.002619 0.012483
v -0.020470 0.002681 0.011820
v -0.020470 0.010724 0.011192
v -0.020470 0.014910 0.004235
v -0.020470 0.009787 0.004310
v -0.020470 0.014220 0.006168
v -0.020470 0.010518 -0.001915
v -0.020470 0.010287 -0.001290
v -0.020470 0.009442 -0.012292
v -0.020470 0.010288 -0.000598
v -0.020470 0.015387 -0.001867
v -0.020470 0.015499 0.000182
v -0.020470 0.013632 -0.000683
v -0.020470 0.011820 -0.002681
v -0.020470 0.011175 -0.002511
v -0.020470 0.010690 0.000165
v -0.020470 0.011436 0.000646
v -0.020470 0.013631 -0.001376
v -0.020470 0.015006 -0.003884
v -0.020470 0.012099 0.000708
v -0.020470 0.012743 0.000538
v -0.020470 0.015339 0.002228
v -0.020470 0.013400 -0.000058
v -0.020470 0.013229 -0.002139
v -0.020470 0.014361 -0.005832
v -0.020470 0.012483 -0.002619
v -0.020470 0.013465 -0.007678
v -0.020470 0.012332 -0.009390
v -0.020470 0.010983 -0.010937
v -0.020470 0.003532 -0.018164
v -0.020470 0.004282 -0.016741
v -0.020470 0.004310 -0.009787
v -0.020470 0.005250 -0.015456
v -0.020470 0.006482 -0.014278
v -0.020470 -0.000683 -0.013632
v -0.020470 -0.001376 -0.013631
v -0.020470 -0.002139 -0.013229
v -0.020470 -0.002681 -0.011820
v -0.020470 -0.002511 -0.011175
v -0.020470 -0.002619 -0.012483
v -0.020470 -0.001915 -0.010518
v -0.020470 -0.000598 -0.010288
v -0.020470 -0.001290 -0.010287
v -0.020470 0.000165 -0.010690
v -0.020470 0.000646 -0.011436
v -0.020470 0.000708 -0.012099
v -0.020470 0.000538 -0.012743
v -0.020470 -0.000058 -0.013400
v -0.020470 -0.004450 -0.032623
v -0.020470 -0.011945 -0.032286
v -0.020470 -0.012244 -0.032866
v -0.020470 -0.012643 -0.033150
v -0.020470 -0.012911 -0.030788
v -0.020470 -0.012335 -0.031091
v -0.020470 -0.013080 -0.021720
v -0.020470 -0.014237 -0.032702
v -0.020470 -0.013754 -0.033140
v -0.020470 -0.013116 -0.033278
v -0.020470 -0.013563 -0.030819
v -0.020470 -0.014436 -0.032081
v -0.020470 -0.014298 -0.031443
v -0.020470 -0.013986 -0.031066
v -0.020470 -0.006939 -0.004910
v -0.020470 -0.008471 0.000699
v -0.020470 -0.008221 0.002159
v -0.020470 -0.007686 -0.003630
v -0.020470 -0.008199 -0.002241
v -0.020470 -0.008464 -0.000783
v -0.020470 -0.007721 0.003554
v -0.020470 -0.006987 0.004841
v -0.020470 -0.006040 0.005981
v -0.020470 -0.003554 -0.007721
v -0.020470 0.003630 -0.007686
v -0.020470 0.002241 -0.008199
v -0.020470 0.000783 -0.008464
v -0.020470 -0.000699 -0.008471
v -0.020470 0.006939 0.004910
v -0.020470 0.007686 0.003630
v -0.020470 0.008199 0.002241
v -0.020470 0.007721 -0.003554
v -0.020470 0.006987 -0.004841
v -0.020470 0.008464 0.000783
v -0.020470 0.008471 -0.000699
v -0.020470 0.008221 -0.002159
v -0.020470 0.006040 -0.005981
v -0.020470 0.004910 -0.006939
v -0.020470 0.003554 0.007721
v -0.020470 0.004841 0.006987
v -0.020470 0.005981 0.006040
v -0.020470 -0.000783 0.008464
v -0.020470 0.000699 0.008471
v -0.020470 0.002159 0.008221
v -0.020470 -0.004910 0.006939
v -0.020470 -0.002241 0.008199
v -0.022970 0.010167 -0.001238
v -0.020470 0.010297 -0.001590
v -0.022970 0.011319 -0.002601
v -0.020475 0.012120 -0.002761
v -0.022970 0.012860 -0.002509
v -0.020470 0.013701 -0.001295
v -0.022970 0.013752 -0.000736
v -0.020470 0.012930 0.000542
v -0.022970 0.012600 0.000627
v -0.022970 0.011059 0.000536
v -0.020470 0.010734 0.000346
v -0.022970 -0.000627 0.012600
v -0.022970 -0.000536 0.011059
v -0.020470 -0.000346 0.010734
v -0.022970 0.001238 0.010167
v -0.020470 0.001590 0.010297
v -0.022970 0.002601 0.011319
v -0.020475 0.002761 0.012120
v -0.022970 0.002509 0.012860
v -0.020470 0.001295 0.013701
v -0.022970 0.000736 0.013752
v -0.020470 -0.000542 0.012930
v -0.022970 -0.012827 -0.000547
v -0.022970 -0.011059 -0.000536
v -0.020470 -0.010734 -0.000346
v -0.022970 -0.010167 0.001238
v -0.020470 -0.010297 0.001590
v -0.022970 -0.011319 0.002601
v -0.020472 -0.012157 0.002779
v -0.022970 -0.012864 0.002503
v -0.020470 -0.013701 0.001295
v -0.022970 -0.013728 0.000968
v -0.020470 -0.012928 -0.000524
v -0.022970 -0.002601 -0.011319
v -0.020475 -0.002761 -0.012120
v -0.022970 -0.002509 -0.012860
v -0.020470 -0.001295 -0.013701
v -0.022970 -0.000736 -0.013752
v -0.020470 0.000542 -0.012930
v -0.022970 0.000627 -0.012600
v -0.022970 0.000536 -0.011059
v -0.020470 0.000346 -0.010734
v -0.022970 -0.001238 -0.010167
v -0.020470 -0.001590 -0.010297
v -0.022968 0.015258 0.002556
v -0.020470 0.014407 0.006152
v -0.026470 0.015105 0.002416
v -0.020471 0.015607 -0.001306
v -0.022969 0.014617 -0.005261
v -0.020472 -0.014762 0.005004
v -0.022967 -0.002532 0.015132
v -0.020470 -0.006357 0.014312
v -0.026466 -0.002429 0.015100
v -0.020470 -0.001202 0.015493
v -0.022970 0.000752 0.015503
v -0.020470 0.003973 0.015080
v -0.020469 0.009815 0.012300
v -0.026470 -0.012687 0.009031
v -0.020470 -0.011555 0.010417
v -0.026470 -0.008077 0.013304
v -0.026470 0.009409 0.012412
v -0.026470 0.013499 0.007778
v -0.020470 0.012782 -0.009172
v -0.026468 0.011545 -0.010574
v -0.020470 0.005527 -0.014987
v -0.026470 0.006010 -0.014630
v -0.026472 0.003315 -0.018376
v -0.020470 0.002993 -0.019349
v -0.026468 -0.012696 -0.041543
v -0.020470 -0.013975 -0.040654
v -0.026470 -0.014519 -0.040760
v -0.020471 -0.015325 -0.042235
v -0.026468 -0.015201 -0.042603
v -0.020470 -0.013542 -0.043262
v -0.026470 -0.013487 -0.043209
v -0.020470 -0.012704 -0.041873
v -0.026468 -0.011874 -0.031576
v -0.020470 -0.013153 -0.030688
v -0.026470 -0.013697 -0.030794
v -0.020471 -0.014502 -0.032269
v -0.026468 -0.014379 -0.032637
v -0.020470 -0.012720 -0.033296
v -0.026470 -0.012665 -0.033242
v -0.020470 -0.011882 -0.031907
v -0.026470 -0.004403 -0.032172
v -0.020473 -0.004517 -0.032240
v -0.026470 -0.004013 -0.033904
v -0.020470 -0.003445 -0.034189
v -0.026470 -0.002705 -0.034014
v -0.020470 -0.002033 -0.033392
v -0.026470 -0.001844 -0.032832
v -0.020470 -0.002335 -0.031792
v -0.026470 -0.002888 -0.031582
v -0.022970 -0.015547 -0.002366
v -0.022970 -0.015448 0.001274
v -0.022970 -0.015767 -0.002771
v -0.022970 -0.015144 0.003304
v -0.022970 -0.013631 0.001376
v -0.022970 -0.014425 0.005030
v -0.022970 -0.013229 0.002139
v -0.022970 -0.013632 0.000683
v -0.022970 -0.014450 0.005573
v -0.022970 -0.014574 0.005276
v -0.022970 -0.013937 0.004467
v -0.022970 -0.012483 0.002619
v -0.022970 -0.013400 0.000058
v -0.022970 -0.015036 -0.002054
v -0.022970 -0.012743 -0.000538
v -0.022970 -0.011578 -0.002253
v -0.022970 -0.012099 -0.000708
v -0.022970 -0.011436 -0.000646
v -0.022970 -0.010571 -0.001952
v -0.022970 -0.009858 -0.001493
v -0.022970 -0.010690 -0.000165
v -0.022970 -0.009288 -0.000864
v -0.022970 -0.008900 -0.000110
v -0.022970 -0.010288 0.000598
v -0.022970 -0.008720 0.000719
v -0.022970 -0.008762 0.001567
v -0.022970 -0.010287 0.001290
v -0.022970 -0.009021 0.002375
v -0.022970 -0.010518 0.001915
v -0.022970 -0.009480 0.003088
v -0.022970 -0.010108 0.003658
v -0.022970 -0.011175 0.002511
v -0.022970 -0.011063 0.004124
v -0.022970 -0.011820 0.002681
v -0.022970 0.002230 0.000443
v -0.026470 0.003797 0.001570
v -0.022970 0.004415 0.001682
v -0.026470 0.006588 0.001028
v -0.022970 0.006914 0.000746
v -0.026478 0.008154 -0.001499
v -0.022970 0.008076 -0.001394
v -0.022970 0.006645 -0.004458
v -0.026469 0.005803 -0.004939
v -0.022970 0.003692 -0.004847
v -0.026470 0.002341 -0.004103
v -0.022988 0.001368 -0.002437
v -0.026471 0.001431 -0.000823
v -0.026476 -0.015575 -0.002210
v -0.022970 -0.015529 -0.002183
v -0.022970 0.001323 0.002459
v -0.026470 0.001772 0.002965
v -0.026470 -0.000857 0.001538
v -0.022970 -0.001055 0.001604
v -0.022970 -0.003100 0.002487
v -0.026470 -0.003470 0.002852
v -0.022970 -0.004261 0.004625
v -0.026462 -0.004169 0.005814
v -0.022970 -0.003108 0.007380
v -0.026470 -0.001802 0.008177
v -0.022970 -0.000303 0.008249
v -0.026470 0.000673 0.007796
v -0.022970 0.001806 0.006761
v -0.026470 0.002348 0.005846
v -0.022970 0.002414 0.004746
v -0.022970 -0.001032 0.003225
v -0.022970 -0.001160 0.001681
v -0.022970 -0.001677 0.003395
v -0.022970 -0.001989 0.001860
v -0.022970 -0.002744 0.002248
v -0.022970 -0.002189 0.003821
v -0.022970 -0.003372 0.002818
v -0.022970 -0.002525 0.004396
v -0.022970 -0.003831 0.003532
v -0.022970 -0.004090 0.004339
v -0.022970 -0.002587 0.005059
v -0.022970 -0.004132 0.005187
v -0.022970 -0.002417 0.005704
v -0.022970 -0.003952 0.006016
v -0.022970 -0.003564 0.006771
v -0.022970 -0.001992 0.006217
v -0.022970 -0.002994 0.007399
v -0.022970 -0.001416 0.006552
v -0.022970 -0.002281 0.007858
v -0.022970 -0.001473 0.008117
v -0.022970 -0.000753 0.006614
v -0.022970 -0.000625 0.008159
v -0.022970 -0.000109 0.006444
v -0.022970 0.000204 0.007979
v -0.022970 0.000958 0.007591
v -0.022970 0.000549 0.005848
v -0.022970 0.001587 0.007021
v -0.022970 0.002046 0.006308
v -0.022970 0.000820 0.005003
v -0.022970 0.002305 0.005500
v -0.022970 0.002346 0.004652
v -0.022970 0.000708 0.004346
v -0.022970 0.002167 0.003823
v -0.022970 0.000377 0.003768
v -0.022970 0.001779 0.003069
v -0.022970 0.001209 0.002440
v -0.022970 -0.000369 0.003287
v -0.022970 0.000495 0.001981
v -0.022970 -0.000312 0.001722
v -0.022970 -0.003520 -0.006601
v -0.022970 -0.006588 -0.005157
v -0.026470 -0.006806 -0.004752
v -0.022970 -0.006975 -0.002218
v -0.026471 -0.006763 -0.001585
v -0.022971 -0.004566 0.000120
v -0.026469 -0.003284 0.000171
v -0.022969 -0.000822 -0.001586
v -0.026470 -0.000557 -0.002323
v -0.022970 -0.001024 -0.005031
v -0.026470 -0.001151 -0.005214
v -0.026483 -0.004115 -0.006660
v -0.022970 -0.005084 -0.002081
v -0.022970 -0.005916 -0.000754
v -0.022970 -0.004338 -0.001601
v -0.022970 -0.005202 -0.000294
v -0.022970 -0.004394 -0.000035
v -0.022970 -0.003674 -0.001539
v -0.022970 -0.003547 0.000006
v -0.022970 -0.003030 -0.001708
v -0.022970 -0.002718 -0.000173
v -0.022970 -0.001963 -0.000561
v -0.022970 -0.002517 -0.002134
v -0.022970 -0.001335 -0.001132
v -0.022970 -0.002182 -0.002709
v -0.022970 -0.000876 -0.001845
v -0.022970 -0.000616 -0.002653
v -0.022970 -0.002120 -0.003373
v -0.022970 -0.000575 -0.003500
v -0.022970 -0.002290 -0.004017
v -0.022970 -0.000755 -0.004329
v -0.022970 -0.001143 -0.005084
v -0.022970 -0.002886 -0.004674
v -0.022970 -0.001713 -0.005712
v -0.022970 -0.002426 -0.006172
v -0.022970 -0.003731 -0.004945
v -0.022970 -0.003234 -0.006431
v -0.022970 -0.004081 -0.006472
v -0.022970 -0.004598 -0.004757
v -0.022970 -0.004911 -0.006292
v -0.022970 -0.005665 -0.005904
v -0.022970 -0.005111 -0.004332
v -0.022970 -0.006294 -0.005334
v -0.022970 -0.005447 -0.003756
v -0.022970 -0.006753 -0.004621
v -0.022970 -0.007012 -0.003813
v -0.022970 -0.005490 -0.002870
v -0.022970 -0.007053 -0.002966
v -0.022970 -0.006874 -0.002136
v -0.022970 -0.006486 -0.001382
v -0.022970 -0.010762 0.004063
v -0.026470 -0.010205 0.003863
v -0.022970 -0.008782 0.002143
v -0.026470 -0.008798 0.001867
v -0.026470 -0.008874 -0.000237
v -0.022970 -0.009013 -0.000442
v -0.022970 -0.010770 -0.002181
v -0.026470 -0.010817 -0.002160
v -0.026475 -0.014370 0.004740
v -0.022968 -0.014525 0.004979
v -0.022970 0.005230 -0.003319
v -0.022970 0.006095 -0.004625
v -0.022970 0.005287 -0.004885
v -0.022970 0.004567 -0.003381
v -0.022970 0.004440 -0.004926
v -0.022970 0.003923 -0.003211
v -0.022970 0.003610 -0.004746
v -0.022970 0.002856 -0.004358
v -0.022970 0.003410 -0.002786
v -0.022970 0.002228 -0.003788
v -0.022970 0.003075 -0.002210
v -0.022970 0.001768 -0.003075
v -0.022970 0.001509 -0.002267
v -0.022970 0.003013 -0.001547
v -0.022970 0.001468 -0.001420
v -0.022970 0.003183 -0.000903
v -0.022970 0.001647 -0.000590
v -0.022970 0.002035 0.000164
v -0.022970 0.003779 -0.000246
v -0.022970 0.002606 0.000792
v -0.022970 0.003319 0.001252
v -0.022970 0.004624 0.000025
v -0.022970 0.004127 0.001511
v -0.022970 0.004974 0.001552
v -0.022970 0.005280 -0.000086
v -0.022970 0.005803 0.001373
v -0.022970 0.005859 -0.000417
v -0.022970 0.006558 0.000985
v -0.022970 0.007186 0.000415
v -0.022970 0.006339 -0.001163
v -0.022970 0.007646 -0.000299
v -0.022970 0.007905 -0.001107
v -0.022970 0.006401 -0.001827
v -0.022970 0.007946 -0.001954
v -0.022970 0.006231 -0.002471
v -0.022970 0.007766 -0.002783
v -0.022970 0.007378 -0.003538
v -0.022970 0.005806 -0.002984
v -0.022970 0.006808 -0.004166
v -0.022970 0.004404 0.013719
v -0.022970 0.002619 0.012483
v -0.022970 0.002139 0.013229
v -0.022970 0.001376 0.013631
v -0.022970 0.001571 0.015420
v -0.022970 -0.000480 0.015493
v -0.022970 0.005332 0.014486
v -0.022970 0.003595 0.015077
v -0.022970 0.004671 0.014203
v -0.022970 -0.000538 0.012743
v -0.022970 -0.002522 0.015293
v -0.022970 0.000683 0.013632
v -0.022970 0.000058 0.013400
v -0.022970 -0.002597 0.015054
v -0.022970 -0.003124 0.015168
v -0.022970 -0.002123 0.014480
v -0.022970 0.002681 0.011820
v -0.022970 0.004124 0.011063
v -0.022970 0.002511 0.011175
v -0.022970 0.003658 0.010108
v -0.022970 0.001915 0.010518
v -0.022970 0.003088 0.009480
v -0.022970 0.002375 0.009021
v -0.022970 0.001290 0.010287
v -0.022970 0.001567 0.008762
v -0.022970 0.000598 0.010288
v -0.022970 0.000719 0.008720
v -0.022970 -0.000110 0.008900
v -0.022970 -0.000165 0.010690
v -0.022970 -0.000864 0.009288
v -0.022970 -0.001493 0.009858
v -0.022970 -0.000646 0.011436
v -0.022970 -0.001952 0.010571
v -0.022970 -0.002255 0.011589
v -0.022970 -0.000708 0.012099
v -0.026470 0.004972 0.014493
v -0.026470 0.004041 0.010668
v -0.022962 0.004843 0.014530
v -0.022970 0.003903 0.010316
v -0.026470 0.001505 0.008546
v -0.022970 0.001675 0.008721
v -0.022970 -0.000442 0.009013
v -0.026477 -0.001978 0.010289
v -0.022970 -0.002181 0.010770
v -0.022970 -0.001376 -0.013631
v -0.022970 -0.002083 -0.015019
v -0.022970 -0.002139 -0.013229
v -0.022970 -0.002838 -0.014631
v -0.022970 -0.003466 -0.014061
v -0.022970 -0.002619 -0.012483
v -0.022970 -0.003925 -0.013347
v -0.022970 -0.004184 -0.012540
v -0.022970 -0.002681 -0.011820
v -0.022970 -0.004226 -0.011692
v -0.022970 -0.002511 -0.011175
v -0.022970 -0.004046 -0.010863
v -0.022970 -0.003658 -0.010108
v -0.022970 -0.001915 -0.010518
v -0.022970 -0.003088 -0.009480
v -0.022970 -0.002375 -0.009021
v -0.022970 -0.001290 -0.010287
v -0.022970 -0.001567 -0.008762
v -0.022970 -0.000598 -0.010288
v -0.022970 -0.000719 -0.008720
v -0.022970 0.000110 -0.008900
v -0.022970 0.000165 -0.010690
v -0.022970 0.000864 -0.009288
v -0.022970 0.001493 -0.009858
v -0.022970 0.000646 -0.011436
v -0.022970 0.001952 -0.010571
v -0.022970 0.002211 -0.011379
v -0.022970 0.000708 -0.012099
v -0.022970 0.002252 -0.012227
v -0.022970 0.000538 -0.012743
v -0.022970 0.002073 -0.013056
v -0.022970 0.001685 -0.013810
v -0.022970 -0.000058 -0.013400
v -0.022970 0.001115 -0.014439
v -0.022970 0.000401 -0.014898
v -0.022970 -0.000683 -0.013632
v -0.022970 -0.000406 -0.015157
v -0.022970 -0.001254 -0.015198
v -0.022981 -0.001241 -0.015373
v -0.026470 0.000343 -0.014984
v -0.026470 -0.002646 -0.014906
v -0.022970 -0.004165 -0.013114
v -0.026470 -0.004368 -0.011995
v -0.022970 -0.003576 -0.009784
v -0.026470 -0.002708 -0.009049
v -0.022970 -0.000399 -0.008630
v -0.026463 0.000606 -0.008966
v -0.022970 0.001965 -0.010442
v -0.026470 0.002403 -0.012389
v -0.022970 0.002077 -0.013391
v -0.022964 0.009790 -0.003586
v -0.026470 0.010266 -0.003917
v -0.026470 0.008709 -0.001576
v -0.022972 0.008680 -0.000266
v -0.026470 0.009007 0.000472
v -0.022970 0.010770 0.002181
v -0.026470 0.010817 0.002160
v -0.026469 0.014493 -0.004975
v -0.022970 0.013909 -0.004448
v -0.022970 0.013635 -0.001350
v -0.022970 0.015387 -0.001867
v -0.022970 0.015499 0.000182
v -0.022970 0.015168 0.003119
v -0.022970 0.015339 0.002228
v -0.022970 0.013632 -0.000683
v -0.022970 0.013400 -0.000058
v -0.022970 0.015054 0.002597
v -0.022970 0.015006 -0.003884
v -0.022970 0.014485 -0.005331
v -0.022970 0.014480 0.002123
v -0.022970 0.012743 0.000538
v -0.022970 0.011589 0.002255
v -0.022970 0.012099 0.000708
v -0.022970 0.011436 0.000646
v -0.022970 0.010571 0.001952
v -0.022970 0.009858 0.001493
v -0.022970 0.010690 0.000165
v -0.022970 0.009288 0.000864
v -0.022970 0.008900 0.000110
v -0.022970 0.010288 -0.000598
v -0.022970 0.008720 -0.000719
v -0.022970 0.008762 -0.001567
v -0.022970 0.010287 -0.001290
v -0.022970 0.009021 -0.002375
v -0.022970 0.010518 -0.001915
v -0.022970 0.009480 -0.003088
v -0.022970 0.010108 -0.003658
v -0.022970 0.011175 -0.002511
v -0.022970 0.011063 -0.004124
v -0.022970 0.011820 -0.002681
v -0.022970 0.013719 -0.004404
v -0.022970 0.012483 -0.002619
v -0.022970 0.014203 -0.004671
v -0.022970 0.013229 -0.002139
v -0.021469 -0.006689 -0.005460
v -0.020470 -0.003443 -0.007842
v -0.021455 -0.001733 -0.008454
v -0.020470 0.000175 -0.008527
v -0.021475 0.004389 -0.007457
v -0.020470 0.003795 -0.007678
v -0.020470 0.006645 -0.005347
v -0.021468 0.008102 -0.003019
v -0.020470 0.008073 -0.002752
v -0.020470 0.008527 0.000175
v -0.021486 0.008293 0.002534
v -0.020470 0.007678 0.003795
v -0.021470 0.005019 0.006949
v -0.020456 0.003787 0.007778
v -0.021470 0.001570 0.008383
v -0.020470 -0.000261 0.008533
v -0.021487 -0.002520 0.008293
v -0.020470 -0.003795 0.007678
v -0.021470 -0.006949 0.005019
v -0.020456 -0.007767 0.003802
v -0.021470 -0.008383 0.001570
v -0.020472 -0.008486 -0.001669
v -0.021470 -0.008415 -0.001392
v -0.020470 -0.006369 -0.005685
v -0.021470 -0.008464 -0.000783
v -0.021470 0.003013 -0.001547
v -0.021470 -0.008471 0.000699
v -0.021470 0.003183 -0.000903
v -0.021470 -0.008221 0.002159
v -0.021470 -0.007721 0.003554
v -0.021470 -0.002241 0.008199
v -0.021470 -0.001416 0.006552
v -0.021470 -0.000783 0.008464
v -0.021470 -0.000753 0.006614
v -0.021470 0.000699 0.008471
v -0.021470 -0.000109 0.006444
v -0.021470 0.002159 0.008221
v -0.021470 -0.000369 0.003287
v -0.021470 -0.001032 0.003225
v -0.021470 -0.001677 0.003395
v -0.021470 -0.002189 0.003821
v -0.021470 -0.002525 0.004396
v -0.021470 -0.006987 0.004841
v -0.021470 -0.002587 0.005059
v -0.021470 -0.006040 0.005981
v -0.021470 -0.002417 0.005704
v -0.021470 -0.004910 0.006939
v -0.021470 -0.003630 0.007686
v -0.021470 -0.001992 0.006217
v -0.021470 -0.008199 -0.002241
v -0.021470 -0.007686 -0.003630
v -0.021470 -0.005447 -0.003756
v -0.021470 0.000549 0.005848
v -0.021470 0.003554 0.007721
v -0.021470 0.008464 0.000783
v -0.021470 0.006339 -0.001163
v -0.021470 0.008471 -0.000699
v -0.021470 0.008221 -0.002159
v -0.021470 -0.006939 -0.004910
v -0.021470 -0.005111 -0.004332
v -0.021470 -0.005981 -0.006040
v -0.021470 -0.004598 -0.004757
v -0.021470 0.006401 -0.001827
v -0.021470 0.006231 -0.002471
v -0.021470 0.007721 -0.003554
v -0.021470 0.006987 -0.004841
v -0.021470 0.005806 -0.002984
v -0.021470 0.006040 -0.005981
v -0.021470 -0.005084 -0.002081
v -0.021470 -0.004338 -0.001601
v -0.021470 -0.004841 -0.006987
v -0.021470 -0.003731 -0.004945
v -0.021470 -0.003554 -0.007721
v -0.021470 -0.002159 -0.008221
v -0.021470 -0.002886 -0.004674
v -0.021470 -0.000699 -0.008471
v -0.021470 0.000820 0.005003
v -0.021470 0.006939 0.004910
v -0.021470 0.005981 0.006040
v -0.021470 0.004841 0.006987
v -0.021470 0.000708 0.004346
v -0.021470 0.008199 0.002241
v -0.021470 0.007686 0.003630
v -0.021470 0.000377 0.003768
v -0.021470 0.003779 -0.000246
v -0.021470 0.004624 0.000025
v -0.021470 0.005280 -0.000086
v -0.021470 0.005859 -0.000417
v -0.021470 -0.005490 -0.002870
v -0.021470 0.005230 -0.003319
v -0.021470 0.004910 -0.006939
v -0.021470 0.004567 -0.003381
v -0.021470 0.003410 -0.002786
v -0.021470 0.003923 -0.003211
v -0.021470 0.000783 -0.008464
v -0.021470 0.002241 -0.008199
v -0.021470 0.003630 -0.007686
v -0.021470 -0.003674 -0.001539
v -0.021470 -0.003030 -0.001708
v -0.021470 -0.002517 -0.002134
v -0.021470 -0.002182 -0.002709
v -0.021470 0.003075 -0.002210
v -0.021470 -0.002120 -0.003373
v -0.021470 -0.002290 -0.004017
vn -0.0038 0.5436 -0.8393
vn 0.0131 0.5449 -0.8384
vn 0.0173 0.6213 -0.7834
vn 0.0002 0.4502 -0.8929
vn 0.0087 0.7729 -0.6345
vn 0.0125 0.6504 -0.7595
vn 0.0211 0.5926 -0.8052
vn -0.0315 -0.1169 -0.9926
vn 0.0274 -0.0941 -0.9952
vn 0.0164 -0.7264 -0.6871
vn -0.0637 -0.9016 -0.4278
vn -0.0221 -0.9949 -0.0981
vn 0.0047 0.9023 -0.4311
vn 0.0061 0.9083 -0.4183
vn -0.0606 0.7363 0.6739
vn 0.0482 0.9988 0.0021
vn -0.0363 0.9140 -0.4041
vn 0.0559 0.4501 0.8912
vn -0.0478 -0.2800 0.9588
vn 0.0828 -0.6223 0.7784
vn -0.0198 -0.9585 0.2843
vn 0.1040 -0.9002 -0.4230
vn 0.0442 -0.6757 -0.7358
vn 0.0956 0.3242 -0.9411
vn -0.0089 0.1279 -0.9917
vn 0.0629 0.8101 -0.5829
vn -0.0153 0.9453 0.3257
vn 0.0831 0.7778 0.6230
vn -0.0069 0.0728 0.9973
vn 0.1084 -0.5145 0.8506
vn 0.0234 -0.9169 0.3984
vn 0.1010 -0.9455 -0.3096
vn -0.0495 -0.8233 -0.5655
vn 0.0478 -0.2274 -0.9726
vn -0.0215 0.0916 -0.9956
vn -0.0436 0.8540 -0.5185
vn -0.0616 0.7183 0.6930
vn 0.0757 0.9135 0.3998
vn -0.0038 0.8440 -0.5364
vn 0.0559 -0.0686 0.9961
vn -0.0830 -0.4461 0.8911
vn 0.0213 -0.9297 0.3676
vn -0.0539 -0.9794 -0.1947
vn 0.0895 -0.6788 -0.7289
vn -0.0527 -0.2620 -0.9636
vn 0.0790 0.4781 -0.8747
vn 0.0054 -0.9458 0.3248
vn 0.0543 -0.9871 0.1509
vn -0.3100 -0.8716 0.3797
vn 0.0007 -0.6823 0.7310
vn -1.0000 -0.0000 -0.0000
vn -1.0000 -0.0001 0.0002
vn -1.0000 -0.0001 -0.0000
vn -1.0000 0.0001 -0.0000
vn -1.0000 -0.0001 0.0001
vn -1.0000 -0.0000 0.0001
vn 1.0000 -0.0000 -0.0000
vn 0.0356 0.9920 0.1215
vn -0.0782 0.9253 0.3710
vn 0.0224 0.4057 0.9137
vn -0.1010 -0.0849 0.9913
vn 0.0327 -0.5533 0.8323
vn -0.0806 -0.9747 0.2087
vn 0.0431 -0.9914 -0.1237
vn -0.0528 -0.5078 -0.8599
vn 0.0153 -0.3581 -0.9336
vn 0.0107 0.5156 -0.8568
vn -0.0437 0.6580 -0.7518
vn 0.0153 0.9336 -0.3581
vn -0.0528 0.8599 -0.5078
vn 0.0107 0.8568 0.5156
vn -0.0437 0.7518 0.6580
vn 0.0356 -0.1215 0.9920
vn -0.0782 -0.3710 0.9253
vn 0.0224 -0.9137 0.4057
vn -0.1010 -0.9913 -0.0849
vn 0.0327 -0.8323 -0.5533
vn -0.0806 -0.2087 -0.9747
vn 0.0431 0.1237 -0.9914
vn 0.0114 0.4804 0.8770
vn -0.0410 0.5192 0.8537
vn 0.0217 -0.5002 0.8656
vn -0.0444 -0.6552 0.7541
vn 0.0356 -0.9920 -0.1215
vn -0.0788 -0.9249 -0.3719
vn 0.0250 -0.4063 -0.9134
vn -0.0945 0.0986 -0.9906
vn 0.0298 0.5444 -0.8383
vn -0.0654 0.9801 -0.1873
vn 0.0239 0.9994 0.0232
vn 0.0224 0.9137 -0.4057
vn -0.1010 0.9913 0.0849
vn 0.0327 0.8323 0.5533
vn -0.0806 0.2087 0.9747
vn 0.0431 -0.1237 0.9914
vn -0.0528 -0.8599 0.5078
vn 0.0153 -0.9336 0.3581
vn 0.0107 -0.8568 -0.5156
vn -0.0437 -0.7518 -0.6580
vn 0.0356 0.1215 -0.9920
vn -0.0782 0.3710 -0.9253
vn 0.0173 0.9315 -0.3633
vn 0.0001 0.9565 -0.2916
vn -0.0287 0.8040 -0.5939
vn 0.0121 0.9190 0.3940
vn -0.0004 0.9901 -0.1406
vn -0.1178 0.9895 -0.0832
vn 0.0133 0.9908 -0.1345
vn -0.0683 -0.9972 0.0319
vn -0.0122 0.5806 0.8141
vn -0.0122 -0.4032 0.9150
vn -0.0232 0.1295 0.9913
vn -0.0193 -0.0951 0.9953
vn -0.0192 0.0561 0.9982
vn -0.0597 0.2770 0.9590
vn -0.0570 0.0438 0.9974
vn -0.0084 0.6213 0.7835
vn -0.0328 -0.4229 0.9056
vn -0.0168 -0.8649 -0.5017
vn -0.0257 -0.8231 0.5673
vn 0.0173 -0.7408 0.6715
vn -0.0304 -0.5143 0.8571
vn -0.0252 0.5927 0.8050
vn -0.0236 0.8673 0.4972
vn 0.0186 0.8098 -0.5864
vn -0.1173 0.9108 0.3959
vn -0.0099 0.7395 -0.6731
vn 0.0074 0.7441 -0.6680
vn 0.0143 0.7032 -0.7109
vn 0.0265 -0.9411 -0.3370
vn -0.0551 0.0436 -0.9975
vn 0.0497 0.3979 -0.9161
vn -0.0609 0.9830 0.1735
vn 0.0277 0.9009 0.4331
vn -0.0081 -0.2710 0.9625
vn 0.0047 -0.3886 0.9214
vn -0.0073 -0.9939 -0.1099
vn -0.0551 0.0435 -0.9975
vn -0.0081 -0.2710 0.9626
vn 0.0112 0.8791 -0.4765
vn -0.0720 0.9047 -0.4200
vn 0.0246 0.6611 0.7499
vn -0.0577 0.2647 0.9626
vn 0.0323 -0.4185 0.9076
vn -0.0440 -0.9041 0.4250
vn 0.0386 -0.9989 -0.0271
vn -0.0582 -0.5577 -0.8280
vn 0.0185 -0.2327 -0.9724
vn -1.0000 -0.0005 -0.0002
vn 0.0530 0.2902 -0.9555
vn -0.0393 0.7694 -0.6375
vn 0.0630 0.9621 -0.2653
vn -0.0270 0.0700 -0.9972
vn 0.0305 -0.5722 -0.8195
vn -0.0135 -0.6666 -0.7453
vn 0.0387 -0.9992 0.0035
vn -0.0210 -0.9990 -0.0388
vn -0.0161 -0.6157 0.7878
vn 0.0732 -0.3516 0.9333
vn -0.0529 0.3187 0.9464
vn 0.0611 0.6900 0.7212
vn -0.0523 0.9711 0.2330
vn 0.0078 -0.3855 0.9227
vn 0.0109 -0.3828 0.9238
vn 0.0310 -0.0116 0.9995
vn -0.0203 -0.6642 0.7473
vn 0.0488 -0.8030 0.5940
vn -0.0164 0.0444 0.9989
vn -0.0076 0.6621 0.7494
vn 0.0510 0.7745 0.6306
vn -0.0336 0.9968 0.0726
vn 0.0550 0.9594 -0.2766
vn -0.0513 0.6728 -0.7380
vn 0.0472 0.3053 -0.9511
vn -0.0476 -0.1707 -0.9842
vn 0.0443 -0.4948 -0.8679
vn -0.0399 -0.8067 -0.5897
vn 0.0442 -0.9642 -0.2613
vn -0.0295 -0.9960 0.0841
vn -0.0350 -0.0845 0.9958
vn 0.0228 0.0886 0.9958
vn -0.0349 0.8103 0.5849
vn 0.0369 0.8927 0.4492
vn -0.0420 0.9492 -0.3118
vn 0.0524 0.8568 -0.5130
vn -0.0509 0.2029 -0.9779
vn 0.0423 -0.1622 -0.9859
vn -0.0625 -0.8604 -0.5058
vn 0.0323 -0.9596 -0.2797
vn -0.0350 -0.8528 0.5211
vn 0.0258 -0.7938 0.6076
vn -0.0111 -0.4501 -0.8929
vn 0.0109 -0.5460 -0.8377
vn -0.0250 -0.9400 -0.3402
vn 0.0257 -0.9624 -0.2702
vn -0.0001 -0.9179 0.3969
vn -0.0099 -0.8982 0.4394
vn 0.0108 -0.8630 0.5050
vn 0.0020 -0.8316 0.5554
vn -0.0044 0.9201 0.3916
vn 0.0587 0.8361 0.5455
vn 0.0527 -0.1389 0.9889
vn -0.0360 -0.2533 0.9667
vn 0.0042 0.4475 0.8943
vn 0.0437 0.5136 0.8569
vn -0.0823 0.0576 0.9949
vn 0.0376 -0.4316 0.9013
vn -0.0655 0.9314 0.3581
vn 0.0555 0.9985 0.0042
vn -0.0555 0.7685 -0.6374
vn 0.0520 0.5071 -0.8603
vn -0.0528 -0.1500 -0.9873
vn 0.0762 -0.4972 -0.8643
vn -0.0231 -0.8872 -0.4607
vn 0.0769 -0.9918 0.1020
vn -0.0639 -0.8788 0.4728
vn 0.0122 0.9746 0.2237
vn -0.0562 0.6570 0.7518
vn -0.0191 0.5354 0.8444
vn -0.0671 0.9769 -0.2028
vn 0.0143 0.8773 -0.4797
vn -0.0083 0.4320 -0.9018
vn 0.0110 0.3920 -0.9199
vn -0.0397 0.4783 0.8773
vn -1.0000 -0.0005 -0.0004
vn -1.0000 0.0004 -0.0001
vn -1.0000 0.0002 -0.0001
vn 0.2202 0.4597 0.8604
vn -0.0580 0.7883 0.6126
vn -0.0765 0.7210 0.6887
vn -0.0733 0.1890 0.9792
vn 0.2447 -0.1061 0.9638
vn -0.0301 -0.5238 0.8513
vn -0.0128 -0.3680 0.9297
vn 0.2441 -0.7457 0.6200
vn -0.0209 -0.9341 0.3563
vn -0.1068 -0.9493 0.2956
vn 0.1879 -0.9821 0.0114
vn -0.1073 -0.9557 -0.2740
vn 0.0953 -0.8403 -0.5337
vn -0.1385 -0.6596 -0.7388
vn 0.1069 -0.4277 -0.8976
vn -0.0627 -0.1775 -0.9821
vn 0.0617 0.0173 -0.9979
vn -0.1132 0.2834 -0.9523
vn 0.1028 0.5340 -0.8392
vn -0.1359 0.7391 -0.6597
vn 0.0866 0.9020 -0.4229
vn -0.1935 0.9695 -0.1506
vn 0.0658 0.9734 0.2196
vn 0.1144 0.9804 0.1601
s 1
usemtl finger_outter_03_mat
f 14//1 13//2 1//3
f 13//2 2//4 1//3
f 3//5 1//3 2//4
f 1//3 3//5 5//6
f 5//6 3//5 4//7
f 5//6 4//7 6//8
f 7//9 6//8 4//7
f 8//10 6//8 7//9
f 6//8 8//10 9//11
f 10//12 9//11 8//10
f 13//2 11//13 12//14
f 11//13 13//2 14//1
f 16//15 15//16 25//17
f 15//16 16//15 17//18
f 18//19 17//18 16//15
f 17//18 18//19 19//20
f 20//21 19//20 18//19
f 19//20 20//21 21//22
f 22//23 21//22 20//21
f 21//22 22//23 23//24
f 24//25 23//24 22//23
f 25//17 23//24 24//25
f 23//24 25//17 15//16
f 35//26 26//27 27//28
f 28//29 27//28 26//27
f 27//28 28//29 29//30
f 30//31 29//30 28//29
f 29//30 30//31 31//32
f 32//33 31//32 30//31
f 31//32 32//33 33//34
f 34//35 33//34 32//33
f 33//34 34//35 35//26
f 36//36 35//26 34//35
f 26//27 35//26 36//36
f 38//37 37//38 46//39
f 37//38 38//37 39//40
f 40//41 39//40 38//37
f 39//40 40//41 41//42
f 42//43 41//42 40//41
f 41//42 42//43 43//44
f 44//45 43//44 42//43
f 43//44 44//45 45//46
f 46//39 45//46 44//45
f 45//46 46//39 37//38
f 536//47 47//48 10//12
f 628//49 10//12 47//48
f 9//11 10//12 627//50
f 628//49 627//50 10//12
f 50//51 246//51 49//51
f 51//51 52//51 53//51
f 56//51 57//51 58//51
f 58//51 57//51 59//51
f 61//51 60//51 55//51
f 62//51 55//51 60//51
f 55//51 62//51 54//51
f 63//51 64//51 51//51
f 65//51 51//51 64//51
f 65//51 66//51 51//51
f 67//51 51//51 66//51
f 51//51 67//51 68//51
f 69//51 52//51 70//51
f 51//51 70//51 52//51
f 70//51 51//51 71//51
f 68//51 71//51 51//51
f 58//51 72//51 56//51
f 73//51 56//51 72//51
f 56//51 73//51 74//51
f 52//51 74//51 73//51
f 74//51 52//51 75//51
f 69//51 75//51 52//51
f 63//51 51//51 76//51
f 77//51 76//51 51//51
f 76//51 77//51 78//51
f 79//51 60//51 61//51
f 80//51 81//51 77//51
f 77//51 81//51 78//51
f 82//51 83//51 84//51
f 84//51 83//51 85//51
f 86//51 87//51 83//51
f 88//51 83//51 87//51
f 83//51 88//51 59//51
f 57//51 89//51 59//51
f 82//51 84//51 90//51
f 91//51 90//51 84//51
f 90//51 91//51 92//51
f 93//51 94//51 95//51
f 96//51 95//51 94//51
f 95//51 96//51 83//51
f 83//51 96//51 86//51
f 89//51 97//51 59//51
f 98//51 59//51 97//51
f 59//51 98//51 83//51
f 99//51 83//51 98//51
f 83//51 99//51 85//51
f 94//51 93//51 100//52
f 77//51 101//51 102//51
f 103//51 104//51 51//51
f 104//51 105//51 51//51
f 106//51 51//51 105//51
f 51//51 106//51 107//51
f 107//51 108//51 51//51
f 109//51 51//51 108//51
f 51//51 109//51 77//51
f 110//51 77//51 109//51
f 77//51 110//51 101//51
f 102//51 111//51 77//51
f 112//51 77//51 111//51
f 77//51 112//51 113//51
f 115//51 114//51 103//51
f 114//51 115//51 116//51
f 119//51 118//51 117//51
f 120//51 115//51 121//51
f 118//51 121//51 115//51
f 121//51 118//51 122//51
f 119//51 122//51 118//51
f 120//51 123//51 115//51
f 124//51 115//51 123//51
f 115//51 124//51 116//51
f 113//51 125//51 118//51
f 126//51 118//51 125//51
f 127//51 128//51 113//51
f 129//51 113//51 128//51
f 91//51 80//51 92//51
f 77//51 92//51 80//51
f 130//51 92//51 77//51
f 129//51 131//51 113//51
f 132//51 113//51 131//51
f 113//51 132//51 77//51
f 133//51 77//51 132//51
f 77//51 133//51 130//51
f 127//51 113//51 118//51
f 134//51 135//51 118//51
f 136//51 118//51 135//51
f 118//51 136//51 127//51
f 138//51 137//51 134//51
f 139//51 137//51 138//51
f 140//51 137//51 139//51
f 137//51 140//51 141//51
f 142//53 143//51 144//54
f 145//51 144//54 143//51
f 142//53 146//51 143//51
f 147//51 143//51 146//51
f 143//51 147//51 148//51
f 149//51 148//51 147//51
f 148//51 149//51 150//51
f 151//51 150//51 149//51
f 150//51 151//51 152//51
f 153//51 152//51 151//51
f 145//51 140//51 144//54
f 140//51 145//51 141//51
f 140//51 154//51 144//54
f 151//51 155//51 153//51
f 156//51 153//51 155//51
f 157//51 158//51 159//51
f 160//51 159//51 158//51
f 159//51 160//51 161//51
f 155//51 157//51 156//51
f 159//51 156//51 157//51
f 156//51 159//51 162//51
f 163//51 162//51 159//51
f 162//51 163//51 83//51
f 95//51 83//51 163//51
f 164//51 165//51 166//51
f 167//51 166//51 165//51
f 166//51 167//51 161//51
f 168//51 161//51 167//51
f 169//51 161//51 168//51
f 161//51 169//51 159//51
f 166//51 170//55 171//51
f 164//51 166//51 171//51
f 172//51 54//51 173//51
f 174//51 51//51 54//51
f 53//51 54//51 51//51
f 54//51 53//51 55//51
f 172//51 173//51 175//51
f 176//51 54//51 172//51
f 54//51 176//51 174//51
f 173//51 177//51 175//51
f 178//51 175//51 177//51
f 175//51 178//51 179//51
f 179//51 178//51 180//51
f 181//51 180//51 178//51
f 180//51 181//51 182//51
f 174//51 183//51 51//51
f 184//51 51//51 183//51
f 184//51 185//51 51//51
f 103//51 51//51 185//51
f 115//51 186//51 187//51
f 185//51 188//51 103//51
f 189//51 103//51 188//51
f 103//51 189//51 190//51
f 190//51 191//51 103//51
f 192//51 103//51 191//51
f 103//51 192//51 193//51
f 194//51 195//51 196//51
f 181//51 197//51 182//51
f 198//51 182//51 197//51
f 182//51 198//51 199//51
f 196//51 199//51 198//51
f 199//51 196//51 200//51
f 195//51 200//51 196//51
f 193//51 201//51 115//51
f 202//51 115//51 201//51
f 115//51 202//51 186//51
f 205//51 203//51 204//51
f 206//51 203//51 205//51
f 206//51 207//51 203//51
f 118//51 208//51 134//51
f 209//51 134//51 208//51
f 134//51 209//51 210//51
f 210//51 211//51 134//51
f 212//51 134//51 211//51
f 134//51 212//51 203//51
f 203//51 212//51 204//51
f 115//51 219//51 213//51
f 214//51 115//51 213//51
f 115//51 214//51 215//51
f 215//51 216//51 115//51
f 217//51 115//51 216//51
f 115//51 217//51 118//51
f 219//51 218//51 213//51
f 218//51 219//51 220//55
f 221//51 222//51 223//51
f 225//51 221//51 224//51
f 221//51 225//51 222//51
f 227//51 49//51 226//51
f 228//51 229//51 230//51
f 230//51 229//51 49//51
f 231//51 49//51 229//51
f 49//51 231//51 226//51
f 227//51 232//51 49//51
f 49//51 232//51 221//51
f 233//51 234//51 224//51
f 224//51 234//51 235//51
f 236//51 235//51 234//51
f 235//51 236//51 237//51
f 238//51 237//51 236//51
f 237//51 238//51 239//51
f 239//51 238//51 240//51
f 241//51 240//51 238//51
f 240//51 241//51 242//51
f 242//51 241//51 230//51
f 228//51 230//51 241//51
f 232//51 243//51 221//51
f 221//51 243//51 244//51
f 245//51 221//51 244//51
f 221//51 245//51 224//51
f 233//51 224//51 245//51
f 246//51 247//51 49//51
f 230//51 49//51 247//51
f 49//51 248//51 50//51
f 49//51 249//51 250//51
f 250//51 251//51 49//51
f 252//51 49//51 251//51
f 49//51 252//51 248//51
f 254//51 196//51 253//51
f 254//51 256//51 196//51
f 115//51 196//51 256//51
f 196//51 115//51 194//51
f 187//51 194//51 115//51
f 258//51 49//51 257//51
f 49//51 258//51 249//51
f 259//51 249//51 258//51
f 260//51 249//51 259//51
f 249//51 260//51 255//51
f 255//51 261//51 249//51
f 249//51 261//51 196//51
f 262//51 196//51 261//51
f 196//51 262//51 253//51
f 264//51 49//51 263//51
f 49//51 264//51 257//51
f 265//51 115//51 256//51
f 115//51 265//51 266//51
f 267//51 115//51 266//51
f 115//51 267//51 263//51
f 268//51 249//51 196//51
f 268//51 269//51 270//51
f 271//51 268//51 270//51
f 268//51 271//51 249//51
f 138//51 134//51 272//51
f 273//51 134//51 274//51
f 275//51 274//51 134//51
f 203//51 276//51 134//51
f 134//51 276//51 275//51
f 277//53 278//51 115//51
f 115//51 278//51 279//51
f 280//51 281//51 49//51
f 263//51 49//51 115//51
f 48//51 115//51 49//51
f 115//51 48//51 277//53
f 281//51 283//51 49//51
f 49//51 283//51 48//51
f 279//51 284//51 115//51
f 285//51 115//51 284//51
f 282//51 286//51 221//51
f 221//51 286//51 49//51
f 280//51 49//51 286//51
f 287//51 115//51 285//51
f 115//51 287//51 288//56
f 289//51 115//51 288//56
f 115//51 289//51 221//51
f 221//51 289//51 282//51
f 219//51 115//51 221//51
f 193//51 115//51 103//51
f 126//51 117//51 118//51
f 273//51 272//51 134//51
f 292//57 293//57 291//57
f 296//57 297//57 298//57
f 300//57 301//57 302//57
f 305//57 306//57 307//57
f 308//57 309//57 310//57
f 310//57 309//57 311//57
f 314//57 313//57 312//57
f 315//57 304//57 303//57
f 304//57 315//57 310//57
f 308//57 310//57 315//57
f 314//57 316//57 313//57
f 313//57 316//57 307//57
f 305//57 307//57 316//57
f 317//57 318//57 319//57
f 320//57 317//57 319//57
f 317//57 320//57 321//57
f 321//57 320//57 304//57
f 306//57 322//57 307//57
f 307//57 322//57 318//57
f 323//57 318//57 322//57
f 318//57 323//57 319//57
f 441//57 324//57 325//57
f 326//57 325//57 324//57
f 325//57 326//57 327//57
f 330//57 331//57 302//57
f 302//57 331//57 332//57
f 328//57 329//57 327//57
f 330//57 302//57 333//57
f 301//57 333//57 302//57
f 333//57 301//57 334//57
f 334//57 301//57 335//57
f 328//57 336//57 329//57
f 329//57 336//57 337//57
f 301//57 338//57 335//57
f 339//57 335//57 338//57
f 340//57 335//57 339//57
f 335//57 340//57 341//57
f 337//57 341//57 340//57
f 341//57 337//57 342//57
f 336//57 342//57 337//57
f 343//57 344//57 302//57
f 345//57 302//57 344//57
f 302//57 345//57 300//57
f 346//57 347//57 302//57
f 302//57 347//57 343//57
f 349//57 347//57 346//57
f 347//57 349//57 350//57
f 351//57 350//57 349//57
f 350//57 351//57 352//57
f 352//57 351//57 353//57
f 353//57 351//57 354//57
f 348//57 354//57 351//57
f 355//57 356//57 302//57
f 302//57 356//57 346//57
f 351//57 358//57 348//57
f 348//57 358//57 359//57
f 360//57 359//57 358//57
f 359//57 360//57 361//57
f 361//57 360//57 299//57
f 362//57 299//57 360//57
f 299//57 362//57 357//57
f 307//57 363//57 302//57
f 355//57 302//57 363//57
f 357//57 364//57 299//57
f 299//57 364//57 307//57
f 365//57 307//57 364//57
f 307//57 365//57 366//57
f 363//57 307//57 366//57
f 367//57 368//57 307//57
f 369//57 307//57 368//57
f 307//57 369//57 299//57
f 320//57 303//57 304//57
f 372//57 373//57 374//57
f 375//57 374//57 373//57
f 374//57 375//57 310//57
f 378//57 377//57 376//57
f 377//57 378//57 374//57
f 372//57 374//57 378//57
f 379//57 380//57 376//57
f 381//57 382//57 383//57
f 384//57 376//57 380//57
f 376//57 384//57 382//57
f 383//57 382//57 384//57
f 386//57 298//57 385//57
f 387//57 388//57 377//57
f 377//57 388//57 389//57
f 390//57 298//57 386//57
f 298//57 390//57 377//57
f 387//57 377//57 390//57
f 391//57 377//57 389//57
f 377//57 391//57 376//57
f 379//57 376//57 391//57
f 383//57 392//57 381//57
f 381//57 392//57 297//57
f 393//57 297//57 392//57
f 297//57 393//57 298//57
f 394//57 298//57 393//57
f 298//57 394//57 385//57
f 295//57 395//57 298//57
f 398//57 397//57 396//57
f 397//57 398//57 294//57
f 399//57 400//57 401//57
f 402//57 401//57 400//57
f 401//57 402//57 397//57
f 403//57 404//57 405//57
f 406//57 407//57 401//57
f 402//57 408//57 397//57
f 397//57 408//57 409//57
f 405//57 410//57 403//57
f 403//57 410//57 411//57
f 399//57 401//57 407//57
f 412//57 397//57 409//57
f 397//57 412//57 396//57
f 412//57 413//57 396//57
f 396//57 413//57 414//57
f 415//57 414//57 413//57
f 414//57 415//57 404//57
f 404//57 415//57 405//57
f 410//57 416//57 411//57
f 411//57 416//57 417//57
f 418//57 417//57 416//57
f 417//57 418//57 419//57
f 419//57 418//57 420//57
f 406//57 420//57 418//57
f 420//57 406//57 421//57
f 401//57 421//57 406//57
f 422//57 423//57 424//57
f 425//57 424//57 423//57
f 425//57 426//57 424//57
f 424//57 426//57 401//57
f 427//57 428//57 325//57
f 325//57 428//57 429//57
f 291//57 430//57 431//57
f 432//57 325//57 429//57
f 433//57 291//57 431//57
f 291//57 434//57 424//57
f 434//57 291//57 435//57
f 433//57 435//57 291//57
f 434//57 436//57 424//57
f 424//57 436//57 437//57
f 438//57 424//57 437//57
f 424//57 438//57 422//57
f 439//57 422//57 438//57
f 440//57 422//57 439//57
f 329//57 325//57 327//57
f 325//57 329//57 427//57
f 427//57 329//57 440//57
f 440//57 329//57 422//57
f 441//57 302//57 332//57
f 441//57 325//57 302//57
f 302//57 325//57 442//57
f 442//57 443//57 302//57
f 444//57 302//57 443//57
f 445//57 446//57 447//57
f 447//57 446//57 325//57
f 449//57 448//57 307//57
f 444//57 450//57 302//57
f 302//57 450//57 307//57
f 449//57 307//57 450//57
f 445//57 447//57 451//57
f 448//57 452//57 307//57
f 307//57 452//57 447//57
f 453//57 447//57 452//57
f 453//57 454//57 447//57
f 451//57 447//57 454//57
f 291//57 293//57 313//57
f 313//57 293//57 455//57
f 310//57 456//57 457//57
f 455//57 458//57 313//57
f 459//57 313//57 458//57
f 313//57 459//57 460//57
f 311//57 312//57 310//57
f 313//57 310//57 312//57
f 310//57 313//57 456//57
f 460//57 456//57 313//57
f 457//57 461//57 310//57
f 462//57 310//57 461//57
f 310//57 462//57 463//57
f 464//57 291//57 290//57
f 291//57 464//57 292//57
f 465//57 466//57 424//57
f 467//57 424//57 466//57
f 424//57 467//57 291//57
f 468//57 291//57 467//57
f 291//57 468//57 290//57
f 469//57 470//57 397//57
f 471//57 397//57 470//57
f 472//57 473//57 401//57
f 471//57 474//57 397//57
f 475//57 397//57 474//57
f 397//57 475//57 401//57
f 476//57 401//57 475//57
f 401//57 476//57 472//57
f 473//57 477//57 401//57
f 478//57 401//57 477//57
f 401//57 478//57 424//57
f 424//57 478//57 465//57
f 294//57 295//57 397//57
f 469//57 397//57 295//57
f 479//57 480//57 298//57
f 481//57 298//57 480//57
f 298//57 481//57 295//57
f 295//57 481//57 469//57
f 377//57 482//57 483//57
f 377//57 483//57 298//57
f 484//57 298//57 483//57
f 298//57 484//57 479//57
f 374//57 486//57 377//57
f 482//57 377//57 486//57
f 310//57 485//57 374//57
f 485//57 310//57 463//57
f 370//57 304//57 371//57
f 310//57 371//57 304//57
f 307//57 447//57 313//57
f 313//57 447//57 291//57
f 325//57 291//57 447//57
f 291//57 325//57 430//57
f 432//57 430//57 325//57
f 487//58 488//59 489//60
f 490//61 489//60 488//59
f 489//60 490//61 491//62
f 492//63 491//62 490//61
f 491//62 492//63 493//64
f 494//65 493//64 492//63
f 493//64 494//65 495//66
f 495//66 494//65 496//67
f 497//68 496//67 494//65
f 496//67 497//68 487//58
f 488//59 487//58 497//68
f 498//69 508//70 499//71
f 500//72 499//71 508//70
f 499//71 500//72 501//73
f 502//74 501//73 500//72
f 501//73 502//74 503//75
f 504//76 503//75 502//74
f 503//75 504//76 505//77
f 506//78 505//77 504//76
f 505//77 506//78 507//79
f 508//70 507//79 506//78
f 507//79 508//70 498//69
f 509//80 519//81 510//82
f 511//83 510//82 519//81
f 510//82 511//83 512//84
f 513//85 512//84 511//83
f 512//84 513//85 514//86
f 515//87 514//86 513//85
f 514//86 515//87 516//88
f 517//89 516//88 515//87
f 516//88 517//89 518//90
f 519//81 518//90 517//89
f 518//90 519//81 509//80
f 520//91 521//92 522//93
f 523//94 522//93 521//92
f 522//93 523//94 524//95
f 525//96 524//95 523//94
f 524//95 525//96 526//97
f 526//97 525//96 527//98
f 528//99 527//98 525//96
f 527//98 528//99 529//100
f 530//101 529//100 528//99
f 529//100 530//101 520//91
f 521//92 520//91 530//101
f 553//102 554//103 11//13
f 12//14 11//13 554//103
f 533//104 532//105 531//106
f 532//105 534//107 531//106
f 531//106 534//107 535//108
f 47//48 536//47 742//109
f 539//110 538//111 537//112
f 538//111 540//113 537//112
f 537//112 540//113 541//114
f 540//113 542//115 541//114
f 541//114 542//115 819//116
f 543//117 819//116 542//115
f 819//116 543//117 817//118
f 741//119 742//109 544//120
f 536//47 544//120 742//109
f 545//121 544//120 536//47
f 546//122 538//111 539//110
f 538//111 546//122 545//121
f 544//120 545//121 546//122
f 817//118 543//117 547//123
f 547//123 543//117 548//124
f 532//105 548//124 543//117
f 548//124 532//105 533//104
f 549//125 535//108 534//107
f 535//108 549//125 883//126
f 883//126 549//125 550//127
f 550//127 551//128 552//129
f 551//128 550//127 549//125
f 552//129 551//128 553//102
f 554//103 553//102 551//128
f 555//130 556//131 557//132
f 558//133 557//132 556//131
f 557//132 558//133 559//134
f 560//135 559//134 558//133
f 559//134 560//135 561//136
f 561//136 560//135 555//130
f 562//137 555//130 560//135
f 556//131 555//130 562//137
f 563//130 564//138 565//132
f 566//133 565//132 564//138
f 565//132 566//133 567//134
f 568//139 567//134 566//133
f 567//134 568//139 569//136
f 569//136 568//139 563//130
f 570//137 563//130 568//139
f 564//138 563//130 570//137
f 571//140 572//141 573//142
f 574//143 573//142 572//141
f 573//142 574//143 575//144
f 576//145 575//144 574//143
f 575//144 576//145 577//146
f 578//147 577//146 576//145
f 577//146 578//147 579//148
f 572//141 579//148 578//147
f 579//148 572//141 571//140
f 582//51 581//51 580//51
f 581//51 583//51 584//51
f 585//149 590//54 586//51
f 587//51 581//51 584//51
f 581//51 587//51 580//51
f 585//149 589//53 588//53
f 586//51 590//54 591//51
f 587//51 592//51 580//51
f 580//51 592//51 593//51
f 594//51 593//51 592//51
f 593//51 594//51 595//51
f 586//51 589//53 585//149
f 589//53 586//51 583//51
f 583//51 586//51 584//51
f 596//51 595//51 594//51
f 597//51 595//51 596//51
f 595//51 597//51 598//51
f 598//51 597//51 599//51
f 600//51 599//51 597//51
f 599//51 600//51 601//51
f 601//51 600//51 602//51
f 603//51 602//51 600//51
f 602//51 603//51 604//51
f 604//51 603//51 605//51
f 606//51 605//51 603//51
f 605//51 606//51 607//51
f 608//51 607//51 606//51
f 607//51 608//51 609//51
f 609//51 608//51 610//51
f 611//51 610//51 608//51
f 610//51 611//51 612//51
f 613//51 612//51 611//51
f 612//51 613//51 590//54
f 591//51 590//54 613//51
f 615//150 614//151 626//152
f 614//151 615//150 616//153
f 617//154 616//153 615//150
f 616//153 617//154 618//155
f 619//156 618//155 617//154
f 618//155 619//156 620//157
f 620//157 619//156 621//158
f 622//159 621//158 619//156
f 621//158 622//159 623//160
f 624//161 623//160 622//159
f 623//160 624//161 625//162
f 626//152 625//162 624//161
f 625//162 626//152 614//151
f 739//163 627//50 628//49
f 627//50 739//163 740//164
f 631//165 629//166 630//167
f 629//166 631//165 632//168
f 632//168 631//165 633//169
f 634//170 633//169 631//165
f 633//169 634//170 635//171
f 636//172 635//171 634//170
f 635//171 636//172 637//173
f 638//174 637//173 636//172
f 637//173 638//174 639//175
f 640//176 639//175 638//174
f 639//175 640//176 641//177
f 640//176 642//178 641//177
f 641//177 642//178 643//179
f 630//167 643//179 642//178
f 643//179 630//167 629//166
f 644//51 645//51 646//51
f 647//51 646//51 645//51
f 648//51 646//51 647//51
f 646//51 648//51 649//51
f 650//51 649//51 648//51
f 649//51 650//51 651//51
f 652//51 651//51 650//51
f 653//51 651//51 652//51
f 651//51 653//51 654//51
f 655//51 654//51 653//51
f 654//51 655//51 656//51
f 657//51 656//51 655//51
f 658//51 656//51 657//51
f 656//51 658//51 659//51
f 660//51 659//51 658//51
f 659//51 660//51 661//51
f 662//51 661//51 660//51
f 663//51 661//51 662//51
f 661//51 663//51 664//51
f 665//51 664//51 663//51
f 664//51 665//51 666//51
f 667//51 666//51 665//51
f 668//51 666//51 667//51
f 666//51 668//51 669//51
f 670//51 669//51 668//51
f 671//51 669//51 670//51
f 669//51 671//51 672//51
f 673//51 672//51 671//51
f 674//51 672//51 673//51
f 672//51 674//51 675//51
f 676//51 675//51 674//51
f 675//51 676//51 677//51
f 678//51 677//51 676//51
f 679//51 677//51 678//51
f 677//51 679//51 680//51
f 681//51 680//51 679//51
f 682//51 680//51 681//51
f 680//51 682//51 644//51
f 645//51 644//51 682//51
f 683//180 694//181 684//182
f 685//183 684//182 694//181
f 684//182 685//183 686//184
f 687//185 686//184 685//183
f 686//184 687//185 688//186
f 689//187 688//186 687//185
f 688//186 689//187 690//188
f 691//189 690//188 689//187
f 690//188 691//189 692//190
f 693//191 692//190 691//189
f 692//190 693//191 683//180
f 694//181 683//180 693//191
f 695//51 696//51 697//51
f 698//51 697//51 696//51
f 699//51 697//51 698//51
f 697//51 699//51 700//51
f 701//51 700//51 699//51
f 700//51 701//51 702//51
f 703//51 702//51 701//51
f 704//51 702//51 703//51
f 702//51 704//51 705//51
f 706//51 705//51 704//51
f 705//51 706//51 707//51
f 708//51 707//51 706//51
f 709//51 707//51 708//51
f 707//51 709//51 710//51
f 711//51 710//51 709//51
f 710//51 711//51 712//51
f 713//51 712//51 711//51
f 714//51 712//51 713//51
f 712//51 714//51 715//51
f 716//51 715//51 714//51
f 717//51 715//51 716//51
f 715//51 717//51 718//51
f 719//51 718//51 717//51
f 720//51 718//51 719//51
f 718//51 720//51 721//51
f 722//51 721//51 720//51
f 723//51 721//51 722//51
f 721//51 723//51 724//51
f 725//51 724//51 723//51
f 724//51 725//51 726//51
f 727//51 726//51 725//51
f 728//51 726//51 727//51
f 726//51 728//51 729//51
f 730//51 729//51 728//51
f 731//51 729//51 730//51
f 729//51 731//51 695//51
f 732//51 695//51 731//51
f 696//51 695//51 732//51
f 733//192 734//193 735//194
f 736//195 735//194 734//193
f 737//196 735//194 736//195
f 735//194 737//196 738//197
f 738//197 737//196 739//163
f 740//164 739//163 737//196
f 734//193 733//192 741//119
f 742//109 741//119 733//192
f 745//51 743//51 744//51
f 743//51 745//51 746//51
f 747//51 746//51 745//51
f 746//51 747//51 748//51
f 749//51 748//51 747//51
f 750//51 748//51 749//51
f 748//51 750//51 751//51
f 752//51 751//51 750//51
f 751//51 752//51 753//51
f 754//51 753//51 752//51
f 755//51 753//51 754//51
f 753//51 755//51 756//51
f 757//51 756//51 755//51
f 756//51 757//51 758//51
f 759//51 758//51 757//51
f 760//51 758//51 759//51
f 758//51 760//51 761//51
f 762//51 761//51 760//51
f 763//51 761//51 762//51
f 761//51 763//51 764//51
f 765//51 764//51 763//51
f 766//51 764//51 765//51
f 764//51 766//51 767//51
f 768//51 767//51 766//51
f 767//51 768//51 769//51
f 770//51 769//51 768//51
f 771//51 769//51 770//51
f 769//51 771//51 772//51
f 773//51 772//51 771//51
f 774//51 772//51 773//51
f 772//51 774//51 775//51
f 776//51 775//51 774//51
f 775//51 776//51 777//51
f 778//51 777//51 776//51
f 779//51 777//51 778//51
f 777//51 779//51 780//51
f 781//51 780//51 779//51
f 780//51 781//51 743//51
f 744//51 743//51 781//51
f 784//51 785//51 786//51
f 786//51 785//51 787//51
f 784//51 782//51 783//51
f 782//51 784//51 790//51
f 789//51 788//51 790//51
f 786//51 789//51 784//51
f 790//51 784//51 789//51
f 785//51 793//51 787//51
f 794//51 787//51 793//51
f 787//51 794//51 792//51
f 792//51 794//51 791//51
f 796//56 792//51 795//51
f 791//51 797//51 792//51
f 795//51 792//51 797//51
f 783//51 782//51 798//51
f 799//51 798//51 782//51
f 798//51 799//51 800//51
f 801//51 800//51 799//51
f 800//51 801//51 802//51
f 803//51 802//51 801//51
f 804//51 802//51 803//51
f 802//51 804//51 805//51
f 806//51 805//51 804//51
f 805//51 806//51 807//51
f 808//51 807//51 806//51
f 809//51 807//51 808//51
f 807//51 809//51 810//51
f 811//51 810//51 809//51
f 812//51 810//51 811//51
f 810//51 812//51 813//51
f 814//51 813//51 812//51
f 815//51 813//51 814//51
f 813//51 815//51 816//51
f 816//51 815//51 791//51
f 797//51 791//51 815//51
f 817//118 818//198 819//116
f 820//199 819//116 818//198
f 537//112 825//200 539//110
f 824//201 539//110 825//200
f 821//202 820//199 818//198
f 820//199 821//202 822//203
f 822//203 821//202 823//204
f 824//201 823//204 821//202
f 823//204 824//201 825//200
f 826//51 827//51 828//51
f 829//51 828//51 827//51
f 830//51 828//51 829//51
f 828//51 830//51 831//51
f 832//51 831//51 830//51
f 833//51 831//51 832//51
f 831//51 833//51 834//51
f 835//51 834//51 833//51
f 834//51 835//51 836//51
f 837//51 836//51 835//51
f 838//51 836//51 837//51
f 836//51 838//51 839//51
f 840//51 839//51 838//51
f 841//51 839//51 840//51
f 839//51 841//51 842//51
f 843//51 842//51 841//51
f 842//51 843//51 844//51
f 845//51 844//51 843//51
f 846//51 844//51 845//51
f 844//51 846//51 847//51
f 848//51 847//51 846//51
f 849//51 847//51 848//51
f 847//51 849//51 850//51
f 851//51 850//51 849//51
f 852//51 850//51 851//51
f 850//51 852//51 853//51
f 854//51 853//51 852//51
f 853//51 854//51 855//51
f 856//51 855//51 854//51
f 857//51 855//51 856//51
f 855//51 857//51 858//51
f 859//51 858//51 857//51
f 860//51 858//51 859//51
f 858//51 860//51 861//51
f 862//51 861//51 860//51
f 861//51 862//51 826//51
f 863//51 826//51 862//51
f 827//51 826//51 863//51
f 866//205 864//206 865//207
f 864//206 866//205 867//208
f 868//209 867//208 866//205
f 867//208 868//209 869//210
f 870//211 869//210 868//209
f 869//210 870//211 871//212
f 872//213 871//212 870//211
f 871//212 872//213 873//214
f 874//215 873//214 872//213
f 873//214 874//215 875//216
f 865//207 875//216 874//215
f 875//216 865//207 864//206
f 878//217 876//218 877//219
f 876//218 878//217 879//220
f 880//221 879//220 878//217
f 879//220 880//221 881//222
f 882//223 881//222 880//221
f 531//106 881//222 533//104
f 882//223 533//104 881//222
f 883//126 877//219 884//224
f 876//218 884//224 877//219
f 886//51 885//51 887//51
f 885//51 890//51 887//51
f 891//51 887//51 890//51
f 887//51 891//51 889//51
f 889//51 892//51 888//51
f 891//51 895//51 889//51
f 889//51 895//51 892//51
f 891//51 896//51 895//51
f 895//51 896//51 897//51
f 898//51 897//51 896//51
f 899//51 897//51 898//51
f 897//51 899//51 900//51
f 900//51 899//51 901//51
f 902//51 901//51 899//51
f 901//51 902//51 903//51
f 903//51 902//51 904//51
f 905//51 904//51 902//51
f 904//51 905//51 906//51
f 906//51 905//51 907//51
f 908//51 907//51 905//51
f 907//51 908//51 909//51
f 910//51 909//51 908//51
f 909//51 910//51 911//51
f 911//51 910//51 912//51
f 913//51 912//51 910//51
f 912//51 913//51 914//51
f 915//51 914//51 913//51
f 914//51 915//51 916//225
f 917//51 916//225 915//51
f 893//54 894//226 918//227
f 885//51 886//51 919//51
f 893//54 919//51 886//51
f 918//227 919//51 893//54
f 919//51 918//227 917//51
f 917//51 918//227 916//225
f 535//108 883//126 884//224
f 921//228 920//229 943//230
f 920//229 921//228 922//231
f 923//232 922//231 921//228
f 922//231 923//232 924//233
f 925//234 924//233 923//232
f 926//235 924//233 925//234
f 924//233 926//235 927//236
f 928//237 927//236 926//235
f 929//238 927//236 928//237
f 927//236 929//238 930//239
f 931//240 930//239 929//238
f 930//239 931//240 932//241
f 931//240 933//242 932//241
f 932//241 933//242 934//243
f 935//244 934//243 933//242
f 934//243 935//244 936//245
f 937//246 936//245 935//244
f 936//245 937//246 938//247
f 937//246 939//248 938//247
f 938//247 939//248 940//249
f 941//250 940//249 939//248
f 940//249 941//250 942//251
f 942//251 941//250 920//229
f 943//230 920//229 941//250
f 944//57 945//57 946//57
f 947//57 946//57 945//57
f 946//57 947//57 948//57
f 949//57 948//57 947//57
f 950//57 951//57 952//57
f 953//57 952//57 951//57
f 952//57 953//57 954//57
f 955//57 954//57 953//57
f 954//57 955//57 956//57
f 957//57 958//57 947//57
f 959//57 947//57 958//57
f 947//57 959//57 949//57
f 949//57 959//57 960//57
f 960//57 961//57 949//57
f 949//57 961//57 962//57
f 963//57 962//57 961//57
f 962//57 963//57 964//57
f 965//57 964//57 963//57
f 964//57 965//57 966//57
f 966//57 965//57 967//57
f 968//57 967//57 965//57
f 967//57 968//57 950//57
f 951//57 950//57 968//57
f 969//57 970//57 971//57
f 972//57 956//57 955//57
f 956//57 972//57 973//57
f 974//57 975//57 976//57
f 976//57 975//57 977//57
f 978//57 971//57 970//57
f 971//57 978//57 979//57
f 980//57 979//57 978//57
f 979//57 980//57 981//57
f 975//57 982//57 977//57
f 983//57 977//57 982//57
f 977//57 983//57 984//57
f 984//57 983//57 985//57
f 986//57 985//57 983//57
f 985//57 986//57 987//57
f 988//57 989//57 944//57
f 990//57 981//57 980//57
f 981//57 990//57 991//57
f 992//57 991//57 990//57
f 993//57 991//57 992//57
f 991//57 993//57 994//57
f 995//57 994//57 993//57
f 998//57 996//57 997//57
f 996//57 998//57 972//57
f 999//57 972//57 998//57
f 972//57 999//57 973//57
f 1000//57 1001//57 996//57
f 1002//57 996//57 1001//57
f 996//57 1002//57 997//57
f 957//57 947//57 1003//57
f 1004//57 1003//57 947//57
f 1003//57 1004//57 1005//57
f 1006//57 1003//57 1005//57
f 1003//57 1006//57 1007//57
f 971//57 1008//57 969//57
f 969//57 1008//57 944//57
f 988//57 944//57 1008//57
f 1000//57 1003//57 1001//57
f 1007//57 1001//57 1003//57
f 1001//57 1007//57 974//57
f 974//57 1007//57 975//57
f 986//57 1009//57 987//57
f 987//57 1009//57 1010//57
f 1011//57 1010//57 1009//57
f 1012//57 995//57 1013//57
f 1014//57 1013//57 995//57
f 1015//57 1013//57 1014//57
f 1013//57 1015//57 1011//57
f 1016//57 1011//57 1015//57
f 1011//57 1016//57 1010//57
f 1017//57 944//57 989//57
f 944//57 1017//57 945//57
f 1018//57 945//57 1017//57
f 1018//57 1019//57 945//57
f 1020//57 945//57 1019//57
f 945//57 1020//57 1021//57
f 1022//57 1021//57 1020//57
f 1021//57 1022//57 1012//57
f 1023//57 1012//57 1022//57
f 1012//57 1023//57 995//57
f 995//57 1023//57 994//57
