# Blender 4.3.2
# www.blender.org
mtllib finger_outter_01.mtl
o finger_outter_01
v 0.025480 0.000852 -0.070765
v 0.026212 0.000869 -0.071497
v 0.025697 0.000854 -0.070910
v 0.025894 0.000858 -0.071082
v 0.025246 0.000850 -0.070649
v 0.024998 0.000850 -0.070565
v 0.024742 0.000849 -0.070514
v 0.026463 0.000911 -0.072235
v 0.026412 0.000895 -0.071979
v 0.026328 0.000882 -0.071731
v 0.026066 0.000864 -0.071278
v -0.006252 0.000872 -0.071497
v -0.004532 0.000839 -0.070497
v -0.006107 0.000864 -0.071280
v -0.005934 0.000858 -0.071082
v -0.006367 0.000882 -0.071730
v -0.006452 0.000895 -0.071979
v -0.006503 0.000911 -0.072235
v -0.004781 0.000849 -0.070514
v -0.005038 0.000850 -0.070565
v -0.005285 0.000850 -0.070649
v -0.005520 0.000852 -0.070765
v -0.005738 0.000854 -0.070911
v 0.024480 0.000849 -0.070497
v -0.006520 0.000928 -0.072518
v 0.026480 0.000928 -0.072497
v -0.006520 0.001180 -0.074690
v 0.026480 0.001180 -0.074690
v -0.006520 0.001576 -0.076756
v 0.026480 0.001576 -0.076756
v -0.006520 0.002124 -0.078788
v 0.026480 0.002124 -0.078788
v -0.006520 0.002820 -0.080774
v 0.026480 0.002820 -0.080774
v -0.006520 0.003660 -0.082704
v 0.026480 0.003660 -0.082704
v -0.006520 0.004640 -0.084566
v 0.026480 0.004640 -0.084566
v -0.006520 0.005755 -0.086351
v 0.026480 0.005755 -0.086351
v -0.006520 0.006999 -0.088048
v 0.026480 0.006999 -0.088048
v -0.006520 0.001934 -0.072519
v -0.006522 0.000936 -0.072588
v -0.006488 0.001905 -0.072113
v -0.006481 0.000901 -0.072086
v -0.006325 0.001878 -0.071622
v -0.006309 0.000875 -0.071595
v -0.006040 0.001861 -0.071186
v -0.006017 0.000860 -0.071164
v -0.005653 0.001853 -0.070839
v -0.005618 0.000853 -0.070820
v -0.004967 0.001849 -0.070518
v -0.004953 0.000849 -0.070528
v -0.005520 0.001852 -0.070760
v -0.006252 0.001870 -0.071492
v -0.005737 0.001854 -0.070905
v -0.005934 0.001858 -0.071077
v -0.005286 0.001850 -0.070644
v -0.005038 0.001850 -0.070560
v -0.004782 0.001849 -0.070509
v -0.006452 0.001896 -0.071974
v -0.006368 0.001883 -0.071726
v -0.006106 0.001864 -0.071273
v 0.026480 0.001932 -0.072507
v -0.006520 0.001932 -0.072492
v -0.006503 0.001913 -0.072231
v 0.026212 0.001872 -0.071492
v 0.024486 0.001838 -0.070492
v 0.026067 0.001864 -0.071275
v 0.025894 0.001858 -0.071077
v 0.026327 0.001883 -0.071725
v 0.026412 0.001896 -0.071974
v 0.026463 0.001913 -0.072230
v 0.024741 0.001849 -0.070509
v 0.024998 0.001850 -0.070560
v 0.025245 0.001850 -0.070644
v 0.025480 0.001852 -0.070760
v 0.025698 0.001854 -0.070906
v -0.004520 0.001849 -0.070492
v 0.026480 0.008120 -0.087817
v -0.006520 0.008035 -0.087732
v 0.026480 0.006583 -0.085790
v -0.006520 0.006583 -0.085790
v 0.026480 0.005508 -0.084068
v -0.006520 0.005508 -0.084068
v 0.026480 0.004562 -0.082271
v -0.006520 0.004562 -0.082271
v 0.026480 0.003751 -0.080409
v -0.006520 0.003751 -0.080409
v 0.026480 0.003079 -0.078493
v -0.006520 0.003079 -0.078493
v 0.026480 0.002551 -0.076532
v -0.006520 0.002551 -0.076532
v 0.026480 0.002168 -0.074538
v -0.006520 0.002168 -0.074538
v 0.026480 0.008931 -0.088416
v -0.006434 0.009519 -0.088695
v -0.006504 0.009195 -0.088556
v 0.024742 0.010923 -0.088947
v 0.025696 0.010528 -0.088930
v 0.024998 0.010873 -0.088947
v 0.025246 0.010788 -0.088945
v 0.026018 0.010219 -0.088885
v 0.025894 0.010355 -0.088907
v 0.025480 0.010673 -0.088939
v 0.026464 0.009195 -0.088555
v 0.026412 0.009457 -0.088670
v -0.006355 0.009734 -0.088767
v 0.026316 0.009734 -0.088767
v -0.006252 0.009940 -0.088825
v 0.026212 0.009940 -0.088825
v -0.006058 0.010219 -0.088885
v -0.005737 0.010527 -0.088930
v -0.005038 0.010873 -0.088947
v -0.005286 0.010788 -0.088945
v -0.005520 0.010673 -0.088939
v -0.005934 0.010355 -0.088907
v 0.024480 0.010941 -0.088947
v -0.004520 0.010941 -0.088947
v -0.004782 0.010923 -0.088947
v -0.006520 0.008933 -0.088421
v -0.005032 0.010887 -0.088947
v -0.004711 0.010939 -0.089947
v -0.005198 0.010831 -0.089946
v -0.005653 0.010595 -0.088934
v -0.005660 0.010593 -0.089937
v -0.006016 0.010274 -0.088895
v -0.006021 0.010270 -0.089905
v -0.006252 0.009945 -0.089851
v -0.006252 0.009940 -0.088825
v -0.006452 0.009462 -0.089729
v -0.006355 0.009734 -0.088767
v -0.006368 0.009709 -0.089798
v -0.006520 0.008944 -0.089539
v -0.006522 0.008884 -0.088391
v -0.006504 0.009195 -0.088556
v -0.006507 0.009170 -0.089630
v -0.006434 0.009520 -0.088694
v 0.024938 0.010909 -0.089947
v 0.024671 0.010934 -0.088947
v 0.025161 0.010825 -0.088946
v 0.025608 0.010603 -0.089937
v 0.025621 0.010588 -0.088934
v 0.025966 0.010288 -0.089907
v 0.025980 0.010270 -0.088895
v 0.026151 0.010039 -0.089869
v 0.026212 0.009940 -0.088825
v 0.026328 0.009710 -0.089798
v 0.026316 0.009734 -0.088767
v 0.026412 0.009462 -0.089729
v 0.026412 0.009457 -0.088669
v 0.026467 0.009170 -0.089630
v 0.026464 0.009195 -0.088555
v 0.026480 0.008944 -0.089539
v 0.026481 0.008884 -0.088391
v 0.024913 0.001849 -0.070523
v 0.024925 0.000849 -0.070522
v 0.025578 0.001853 -0.070815
v 0.025613 0.000853 -0.070844
v 0.025977 0.001860 -0.071159
v 0.026001 0.000861 -0.071192
v 0.026270 0.001876 -0.071591
v 0.026285 0.000877 -0.071627
v 0.026441 0.001903 -0.072079
v 0.026448 0.000903 -0.072117
v 0.026481 0.001934 -0.072518
v 0.026481 0.000936 -0.072589
v -0.005286 0.010793 -0.089945
v -0.005038 0.010878 -0.089947
v -0.005738 0.010532 -0.089934
v -0.004782 0.010928 -0.089947
v -0.004520 0.010946 -0.089947
v -0.005934 0.010360 -0.089915
v -0.006071 0.010208 -0.089896
v -0.006252 0.009945 -0.089852
v -0.005520 0.010678 -0.089941
v 0.025699 0.010531 -0.089934
v 0.025894 0.010360 -0.089915
v 0.026031 0.010208 -0.089896
v 0.026152 0.010042 -0.089871
v 0.024480 0.010946 -0.089947
v 0.024741 0.010929 -0.089947
v 0.024998 0.010878 -0.089947
v 0.025246 0.010793 -0.089945
v 0.025480 0.010678 -0.089941
v -0.006368 0.009709 -0.089798
v 0.026328 0.009710 -0.089798
v -0.006507 0.009170 -0.089630
v -0.006452 0.009462 -0.089729
v 0.026412 0.009462 -0.089729
v 0.026467 0.009170 -0.089630
v -0.006520 0.008944 -0.089539
v 0.026480 0.008944 -0.089539
v -0.006520 0.008354 -0.089238
v 0.026480 0.008354 -0.089238
v 0.026480 0.007622 -0.088705
v -0.006520 0.007622 -0.088705
v 0.026480 0.002168 -0.074538
v 0.026480 0.001180 -0.074690
v 0.026480 0.002551 -0.076532
v 0.026480 0.001576 -0.076756
v 0.026480 0.003079 -0.078493
v 0.026480 0.002124 -0.078788
v 0.026480 0.003751 -0.080409
v 0.026480 0.002820 -0.080774
v 0.026480 0.004562 -0.082271
v 0.026480 0.003660 -0.082704
v 0.026480 0.005508 -0.084068
v 0.026480 0.004640 -0.084566
v 0.026480 0.006583 -0.085790
v 0.026480 0.005755 -0.086351
v 0.026480 0.007783 -0.087428
v 0.026480 0.006999 -0.088048
v 0.026480 0.008282 -0.087953
v 0.026480 0.007622 -0.088705
v 0.026480 0.008354 -0.089238
v -0.006520 0.008354 -0.089238
v -0.006520 0.008282 -0.087953
v -0.006520 0.007622 -0.088705
v -0.006520 0.007783 -0.087428
v -0.006520 0.006999 -0.088048
v -0.006520 0.006583 -0.085790
v -0.006520 0.005755 -0.086351
v -0.006520 0.005508 -0.084068
v -0.006520 0.004640 -0.084566
v -0.006520 0.004562 -0.082271
v -0.006520 0.003660 -0.082704
v -0.006520 0.003751 -0.080409
v -0.006520 0.002820 -0.080774
v -0.006520 0.003079 -0.078493
v -0.006520 0.002124 -0.078788
v -0.006520 0.002551 -0.076532
v -0.006520 0.001576 -0.076756
v -0.006520 0.002168 -0.074538
v -0.006520 0.001180 -0.074690
v -0.003326 0.001762 -0.052856
v -0.003322 0.000762 -0.052864
v -0.002691 0.001767 -0.053856
v -0.002691 0.000767 -0.053861
v -0.002177 0.001769 -0.054408
v -0.002177 0.000769 -0.054413
v -0.001395 0.001772 -0.054965
v -0.001407 0.000772 -0.054955
v -0.004526 0.001758 -0.052144
v -0.023818 0.001758 -0.052141
v -0.004585 0.000758 -0.052139
v -0.023887 0.000758 -0.052160
v 0.022265 0.001815 -0.063649
v 0.022132 0.000815 -0.063589
v 0.023390 0.000819 -0.064356
v 0.023390 0.001819 -0.064351
v 0.024227 0.000822 -0.065077
v 0.024227 0.001822 -0.065072
v 0.024952 0.000826 -0.065911
v 0.024952 0.001826 -0.065906
v 0.025669 0.000832 -0.067072
v 0.025699 0.001833 -0.067152
v -0.025474 0.001768 -0.054163
v -0.025475 0.000768 -0.054197
v -0.025402 0.000765 -0.053605
v -0.025402 0.001765 -0.053601
v -0.025202 0.000763 -0.053123
v -0.025202 0.001763 -0.053118
v -0.024884 0.000761 -0.052709
v -0.024884 0.001761 -0.052704
v -0.024470 0.000759 -0.052391
v -0.024470 0.001759 -0.052386
v -0.003858 0.000759 -0.052390
v -0.003790 0.001760 -0.052427
v -0.006295 0.001846 -0.069768
v -0.006239 0.000846 -0.069782
v -0.006936 0.000844 -0.069553
v -0.007002 0.001844 -0.069510
v -0.007480 0.000842 -0.069100
v -0.007473 0.001842 -0.069100
v 0.025792 0.000836 -0.067834
v 0.025792 0.001836 -0.067829
v 0.025716 0.000838 -0.068344
v 0.025716 0.001838 -0.068339
v 0.025512 0.000841 -0.068818
v 0.025512 0.001841 -0.068813
v 0.025193 0.000843 -0.069224
v 0.025193 0.001843 -0.069219
v 0.024782 0.000844 -0.069535
v 0.024782 0.001844 -0.069530
v 0.024205 0.000846 -0.069761
v 0.024137 0.001846 -0.069769
v -0.002177 0.000769 -0.054413
v -0.012067 0.000822 -0.064924
v -0.011003 0.000824 -0.065451
v -0.006377 0.000845 -0.069752
v -0.005959 0.000846 -0.069797
v -0.007697 0.000841 -0.068786
v -0.001569 0.000772 -0.054858
v -0.010018 0.000827 -0.066113
v -0.009129 0.000831 -0.066899
v -0.000888 0.000773 -0.055182
v -0.008351 0.000836 -0.067795
v 0.021449 0.000814 -0.063312
v -0.013191 0.000820 -0.064542
v -0.002691 0.000767 -0.053861
v -0.018799 0.000812 -0.063040
v -0.003324 0.000762 -0.052863
v -0.019914 0.000810 -0.062661
v -0.025470 0.000768 -0.054123
v -0.025470 0.000769 -0.054346
v 0.024952 0.000826 -0.065911
v 0.024227 0.000822 -0.065077
v 0.023793 0.000846 -0.069797
v -0.007452 0.000842 -0.069127
v -0.007141 0.000844 -0.069410
v -0.006777 0.000845 -0.069622
v 0.023390 0.000819 -0.064356
v 0.022457 0.000816 -0.063764
v -0.003648 0.000760 -0.052546
v -0.004023 0.000759 -0.052315
v -0.004440 0.000758 -0.052172
v -0.004878 0.000758 -0.052123
v -0.025393 0.000775 -0.055521
v -0.025163 0.000781 -0.056676
v -0.024785 0.000786 -0.057790
v 0.025549 0.000831 -0.066840
v 0.024304 0.000845 -0.069730
v 0.025735 0.000833 -0.067321
v -0.022834 0.000801 -0.060710
v -0.021949 0.000805 -0.061486
v -0.020970 0.000808 -0.062140
v -0.024264 0.000791 -0.058846
v -0.023610 0.000796 -0.059825
v -0.025202 0.000763 -0.053123
v -0.023988 0.000758 -0.052191
v -0.024884 0.000761 -0.052709
v -0.024470 0.000759 -0.052391
v -0.023470 0.000758 -0.052123
v -0.025402 0.000765 -0.053605
v 0.025512 0.000841 -0.068818
v 0.025193 0.000843 -0.069224
v 0.024782 0.000844 -0.069535
v 0.025716 0.000838 -0.068344
v 0.025792 0.000836 -0.067834
v -0.002691 0.001767 -0.053856
v -0.002177 0.001769 -0.054408
v -0.012067 0.001822 -0.064919
v 0.021449 0.001814 -0.063307
v -0.007697 0.001841 -0.068781
v -0.000888 0.001773 -0.055177
v -0.008351 0.001836 -0.067790
v -0.001569 0.001772 -0.054854
v -0.009129 0.001831 -0.066894
v -0.010018 0.001827 -0.066108
v -0.011003 0.001824 -0.065446
v -0.023470 0.001758 -0.052118
v -0.004878 0.001758 -0.052118
v -0.003324 0.001762 -0.052858
v 0.023793 0.001846 -0.069792
v 0.023390 0.001819 -0.064351
v 0.024227 0.001822 -0.065072
v -0.006377 0.001845 -0.069748
v -0.006777 0.001845 -0.069617
v -0.007141 0.001844 -0.069405
v -0.013191 0.001820 -0.064537
v -0.018799 0.001812 -0.063035
v -0.019914 0.001810 -0.062656
v -0.020970 0.001808 -0.062136
v -0.025163 0.001781 -0.056671
v -0.025393 0.001775 -0.055516
v -0.004440 0.001758 -0.052167
v -0.004023 0.001759 -0.052310
v -0.003648 0.001760 -0.052541
v 0.024952 0.001826 -0.065906
v 0.025549 0.001831 -0.066835
v 0.024304 0.001845 -0.069725
v -0.007452 0.001842 -0.069122
v -0.005959 0.001846 -0.069792
v 0.022457 0.001816 -0.063759
v -0.021949 0.001805 -0.061481
v -0.022834 0.001801 -0.060705
v -0.023610 0.001796 -0.059820
v -0.024264 0.001791 -0.058841
v -0.024785 0.001786 -0.057785
v -0.025470 0.001769 -0.054341
v -0.025470 0.001768 -0.054118
v -0.025402 0.001765 -0.053601
v -0.025202 0.001763 -0.053118
v -0.024884 0.001761 -0.052704
v -0.024470 0.001759 -0.052386
v -0.023988 0.001758 -0.052186
v 0.025735 0.001833 -0.067316
v 0.025792 0.001836 -0.067829
v 0.025716 0.001838 -0.068339
v 0.025512 0.001841 -0.068813
v 0.025193 0.001843 -0.069219
v 0.024782 0.001844 -0.069530
v -0.008351 0.001836 -0.067790
v -0.008351 0.000836 -0.067795
v -0.009129 0.001831 -0.066894
v -0.009129 0.000831 -0.066899
v -0.010018 0.001827 -0.066108
v -0.010018 0.000827 -0.066113
v -0.011003 0.001824 -0.065446
v -0.011003 0.000824 -0.065451
v -0.012364 0.001821 -0.064788
v -0.012342 0.000821 -0.064810
v -0.019698 0.001811 -0.062751
v -0.019550 0.000811 -0.062812
v -0.020970 0.000808 -0.062140
v -0.020970 0.001808 -0.062136
v -0.021949 0.000805 -0.061486
v -0.021949 0.001805 -0.061481
v -0.022834 0.000801 -0.060710
v -0.022834 0.001801 -0.060705
v -0.023610 0.000796 -0.059825
v -0.023610 0.001796 -0.059820
v -0.024264 0.000791 -0.058846
v -0.024264 0.001791 -0.058841
v -0.024785 0.000786 -0.057790
v -0.024785 0.001786 -0.057785
v -0.025163 0.000781 -0.056676
v -0.025163 0.001781 -0.056671
v -0.025393 0.000775 -0.055521
v -0.025393 0.001775 -0.055516
v -0.025361 0.007145 -0.032177
v -0.025420 0.007047 -0.032359
v -0.003570 0.007047 -0.032359
v -0.025457 0.006944 -0.032556
v -0.003520 0.006821 -0.032775
v -0.003533 0.006944 -0.032557
v -0.004457 0.007680 -0.031280
v -0.004652 0.007739 -0.031189
v -0.003957 0.007441 -0.031658
v -0.004860 0.007786 -0.031118
v -0.005075 0.007820 -0.031066
v -0.005295 0.007841 -0.031035
v -0.003827 0.007350 -0.031817
v -0.004105 0.007530 -0.031517
v -0.004273 0.007610 -0.031390
v -0.025033 0.007442 -0.031658
v -0.003629 0.007145 -0.032177
v -0.003718 0.007251 -0.031987
v -0.025164 0.007349 -0.031817
v -0.024884 0.007531 -0.031516
v -0.025272 0.007251 -0.031987
v -0.024131 0.007786 -0.031118
v -0.024338 0.007739 -0.031189
v -0.023915 0.007820 -0.031066
v -0.005520 0.007848 -0.031024
v -0.023470 0.007848 -0.031024
v -0.023694 0.007841 -0.031035
v -0.024534 0.007680 -0.031280
v -0.024717 0.007610 -0.031390
v -0.003629 0.006463 -0.045218
v -0.003570 0.006385 -0.045026
v -0.025420 0.006385 -0.045026
v -0.003533 0.006303 -0.044820
v -0.025470 0.006204 -0.044589
v -0.025457 0.006303 -0.044819
v -0.024533 0.006902 -0.046166
v -0.024338 0.006951 -0.046262
v -0.025033 0.006704 -0.045765
v -0.024131 0.006990 -0.046338
v -0.023915 0.007019 -0.046393
v -0.023695 0.007037 -0.046427
v -0.025163 0.006629 -0.045597
v -0.024885 0.006778 -0.045915
v -0.024717 0.006843 -0.046049
v -0.003957 0.006704 -0.045765
v -0.025361 0.006463 -0.045218
v -0.025272 0.006549 -0.045418
v -0.003826 0.006629 -0.045597
v -0.004106 0.006778 -0.045915
v -0.003718 0.006549 -0.045418
v -0.004859 0.006990 -0.046338
v -0.004652 0.006951 -0.046262
v -0.005075 0.007019 -0.046393
v -0.023470 0.007042 -0.046438
v -0.005520 0.007042 -0.046438
v -0.005296 0.007037 -0.046427
v -0.004456 0.006902 -0.046165
v -0.004273 0.006843 -0.046049
v -0.025470 0.006829 -0.032765
v -0.025470 0.005884 -0.035176
v -0.003520 0.005818 -0.035406
v -0.025470 0.005360 -0.037825
v -0.003520 0.005336 -0.038063
v -0.025470 0.005301 -0.039970
v -0.003520 0.005301 -0.039970
v -0.025470 0.005480 -0.041868
v -0.003520 0.005522 -0.042104
v -0.003520 0.006210 -0.044600
v -0.005148 0.008250 -0.031323
v -0.005139 0.007836 -0.031042
v -0.004562 0.008130 -0.031505
v -0.004319 0.007638 -0.031343
v -0.004189 0.007989 -0.031725
v -0.003888 0.007814 -0.032013
v -0.003809 0.007342 -0.031828
v -0.003677 0.007625 -0.032341
v -0.003591 0.007092 -0.032274
v -0.003524 0.007355 -0.032846
v -0.003520 0.006875 -0.032691
v -0.025033 0.007857 -0.031937
v -0.024338 0.008154 -0.031469
v -0.024131 0.008201 -0.031397
v -0.023915 0.008235 -0.031345
v -0.023695 0.008256 -0.031314
v -0.023470 0.008263 -0.031303
v -0.025345 0.007583 -0.032418
v -0.025272 0.007667 -0.032267
v -0.025163 0.007765 -0.032097
v -0.024885 0.007945 -0.031796
v -0.024717 0.008025 -0.031669
v -0.024533 0.008095 -0.031559
v -0.003718 0.007667 -0.032267
v -0.003645 0.007583 -0.032418
v -0.003957 0.007857 -0.031937
v -0.004652 0.008154 -0.031469
v -0.004456 0.008094 -0.031560
v -0.004273 0.008025 -0.031669
v -0.004106 0.007946 -0.031796
v -0.003826 0.007765 -0.032097
v -0.005520 0.008263 -0.031303
v -0.005296 0.008256 -0.031314
v -0.005075 0.008235 -0.031345
v -0.004859 0.008201 -0.031397
v -0.025457 0.007361 -0.032838
v -0.003520 0.007243 -0.033051
v -0.025470 0.007250 -0.033045
v -0.025420 0.007464 -0.032640
v -0.003570 0.007464 -0.032640
v -0.003533 0.007362 -0.032837
v -0.025470 0.006652 -0.044359
v -0.003520 0.006658 -0.044365
v -0.003533 0.006747 -0.044583
v -0.003645 0.006924 -0.045024
v -0.025345 0.006924 -0.045024
v -0.003570 0.006829 -0.044791
v -0.025420 0.006829 -0.044791
v -0.025457 0.006748 -0.044584
v -0.004652 0.007392 -0.046028
v -0.004860 0.007432 -0.046104
v -0.003957 0.007146 -0.045531
v -0.005075 0.007461 -0.046159
v -0.005295 0.007478 -0.046192
v -0.003827 0.007072 -0.045362
v -0.004105 0.007220 -0.045680
v -0.004273 0.007285 -0.045815
v -0.004457 0.007343 -0.045931
v -0.025272 0.006992 -0.045182
v -0.024884 0.007218 -0.045681
v -0.003718 0.006992 -0.045182
v -0.024534 0.007343 -0.045931
v -0.024717 0.007285 -0.045815
v -0.025034 0.007148 -0.045529
v -0.025164 0.007072 -0.045362
v -0.023915 0.007461 -0.046159
v -0.024131 0.007432 -0.046104
v -0.024338 0.007392 -0.046028
v -0.005520 0.007484 -0.046203
v -0.023470 0.007484 -0.046203
v -0.023694 0.007478 -0.046192
v -0.025470 0.006538 -0.034808
v -0.003520 0.006538 -0.034808
v -0.025470 0.006053 -0.036586
v -0.003520 0.006010 -0.036813
v -0.025470 0.005810 -0.038645
v -0.003520 0.005810 -0.038645
v -0.025470 0.005818 -0.040489
v -0.003520 0.005837 -0.040720
v -0.025470 0.006133 -0.042538
v -0.003520 0.006133 -0.042538
v -0.023851 0.007033 -0.046419
v -0.023842 0.007473 -0.046182
v -0.003520 0.007007 -0.033589
v -0.003520 0.006549 -0.033389
v -0.003520 0.006538 -0.034808
v -0.003520 0.006063 -0.034649
v -0.003520 0.006180 -0.036063
v -0.003520 0.005694 -0.035948
v -0.003520 0.005937 -0.037346
v -0.003520 0.005442 -0.037275
v -0.003520 0.005810 -0.038645
v -0.003520 0.005311 -0.038619
v -0.003520 0.005801 -0.039951
v -0.003520 0.005301 -0.039970
v -0.003520 0.005909 -0.041252
v -0.003520 0.005413 -0.041316
v -0.003520 0.006133 -0.042538
v -0.003520 0.005645 -0.042646
v -0.003520 0.006473 -0.043799
v -0.003520 0.005996 -0.043950
v -0.003524 0.006737 -0.044560
v -0.003518 0.006251 -0.044687
v -0.025466 0.006741 -0.044572
v -0.025470 0.006249 -0.044681
v -0.025470 0.006473 -0.043799
v -0.025470 0.005996 -0.043950
v -0.025470 0.006133 -0.042538
v -0.025470 0.005645 -0.042646
v -0.025470 0.005909 -0.041252
v -0.025470 0.005413 -0.041316
v -0.025470 0.005801 -0.039951
v -0.025470 0.005301 -0.039970
v -0.025470 0.005810 -0.038645
v -0.025470 0.005311 -0.038619
v -0.025470 0.005937 -0.037346
v -0.025470 0.005442 -0.037275
v -0.025470 0.006180 -0.036063
v -0.025470 0.005694 -0.035948
v -0.025470 0.006538 -0.034808
v -0.025470 0.006063 -0.034649
v -0.025470 0.007007 -0.033589
v -0.025470 0.006549 -0.033389
v -0.025466 0.007349 -0.032858
v -0.025472 0.006878 -0.032684
v -0.025393 0.007101 -0.032258
v -0.025318 0.007620 -0.032351
v -0.025169 0.007352 -0.031811
v -0.025111 0.007808 -0.032023
v -0.024672 0.008053 -0.031623
v -0.024799 0.007575 -0.031445
v -0.024426 0.007716 -0.031224
v -0.023851 0.008251 -0.031321
v -0.023842 0.007835 -0.031044
v -0.024427 0.007373 -0.045990
v -0.024672 0.006867 -0.046098
v -0.024799 0.007257 -0.045757
v -0.025100 0.007113 -0.045453
v -0.025182 0.006622 -0.045583
v -0.025315 0.006957 -0.045102
v -0.025398 0.006421 -0.045117
v -0.003597 0.006428 -0.045134
v -0.003670 0.006952 -0.045090
v -0.003820 0.006631 -0.045603
v -0.003877 0.007105 -0.045437
v -0.004170 0.007248 -0.045740
v -0.004190 0.006814 -0.045990
v -0.004534 0.007366 -0.045975
v -0.004564 0.006931 -0.046225
v -0.005139 0.007474 -0.046185
v -0.005148 0.007031 -0.046417
v 0.026372 0.017950 -0.092246
v 0.026286 0.017956 -0.092039
v -0.024728 0.017927 -0.092435
v 0.026423 0.017934 -0.092420
v 0.026456 0.017910 -0.092579
v 0.026480 0.017870 -0.092807
v 0.026480 0.017489 -0.093664
v -0.024806 0.016794 -0.094552
v -0.024693 0.016738 -0.098807
v 0.026442 0.016932 -0.099303
v 0.026279 0.016994 -0.099790
v 0.026377 0.016979 -0.099550
v 0.026471 0.016871 -0.099108
v 0.026480 0.016787 -0.098909
v 0.026480 0.016060 -0.097917
v 0.026286 0.016956 -0.092044
v -0.024747 0.016945 -0.092131
v 0.026369 0.016948 -0.092244
v 0.026423 0.016922 -0.092424
v -0.024721 0.016874 -0.092610
v 0.026455 0.016885 -0.092580
v 0.026479 0.016820 -0.092800
v -0.024598 0.016660 -0.093104
v 0.026480 0.016085 -0.093873
v -0.014193 0.010000 -0.100933
v -0.014184 0.011000 -0.100922
v -0.013483 0.010999 -0.100671
v -0.013415 0.009999 -0.100632
v -0.012839 0.010996 -0.100051
v -0.012796 0.009995 -0.099987
v -0.012547 0.010992 -0.099305
v -0.012537 0.009992 -0.099251
v -0.012547 0.009959 -0.092593
v -0.012537 0.010959 -0.092648
v -0.012796 0.010955 -0.091911
v -0.012839 0.009955 -0.091847
v -0.013416 0.010952 -0.091266
v -0.013484 0.009952 -0.091228
v -0.014194 0.010951 -0.090965
v -0.014184 0.009951 -0.090977
v 0.026480 0.017857 -0.092822
v 0.026480 0.016811 -0.092805
v 0.026480 0.017759 -0.093124
v 0.026480 0.016723 -0.092991
v 0.026480 0.016489 -0.095630
v 0.026480 0.016608 -0.095062
v 0.026480 0.015722 -0.094569
v 0.026480 0.016027 -0.093948
v 0.026480 0.016843 -0.094533
v 0.026480 0.016441 -0.093394
v 0.026480 0.017519 -0.093610
v 0.026480 0.015536 -0.095235
v 0.026480 0.015475 -0.095925
v 0.026480 0.016492 -0.096209
v 0.026480 0.015542 -0.096613
v 0.026480 0.016616 -0.096775
v 0.026480 0.015735 -0.097278
v 0.026480 0.016856 -0.097303
v 0.026480 0.016046 -0.097895
v 0.026480 0.017542 -0.098218
v 0.026480 0.016466 -0.098446
v 0.026481 0.016764 -0.098864
v 0.026480 0.017787 -0.098703
v 0.026480 0.017860 -0.098913
v -0.024769 0.010967 -0.090947
v -0.012520 0.010960 -0.092947
v -0.024780 0.011014 -0.100947
v -0.012520 0.010990 -0.098947
v -0.014520 0.011000 -0.100947
v -0.014075 0.011000 -0.100897
v -0.014520 0.010951 -0.090947
v -0.014075 0.010951 -0.090997
v -0.012570 0.010958 -0.092502
v -0.012718 0.010956 -0.092079
v -0.012956 0.010954 -0.091700
v -0.013652 0.010952 -0.091145
v -0.013273 0.010953 -0.091383
v -0.012718 0.010994 -0.099815
v -0.012956 0.010996 -0.100194
v -0.012570 0.010992 -0.099392
v -0.013273 0.010998 -0.100511
v -0.013652 0.010999 -0.100749
v 0.026456 0.017910 -0.092579
v 0.026455 0.016886 -0.092580
v 0.026398 0.017945 -0.092322
v 0.026370 0.016947 -0.092246
v 0.026423 0.016922 -0.092424
v 0.024794 0.016951 -0.090937
v 0.024785 0.017951 -0.090926
v -0.024470 0.016950 -0.090917
v -0.024470 0.017950 -0.090912
v -0.024915 0.016900 -0.090917
v -0.025055 0.017893 -0.090912
v -0.025338 0.016752 -0.090918
v -0.025618 0.017722 -0.090913
v -0.025717 0.016514 -0.090919
v -0.024470 0.009951 -0.090952
v -0.024470 0.010951 -0.090947
v -0.025055 0.010008 -0.090952
v -0.024915 0.011001 -0.090947
v -0.025618 0.010179 -0.090951
v -0.025338 0.011149 -0.090946
v -0.026137 0.010456 -0.090949
v -0.025717 0.011387 -0.090945
v -0.026591 0.010829 -0.090947
v -0.026034 0.011704 -0.090943
v -0.026137 0.017445 -0.090915
v -0.026591 0.017072 -0.090917
v -0.026034 0.016197 -0.090921
v -0.026964 0.016617 -0.090919
v -0.026272 0.015818 -0.090923
v -0.027242 0.016099 -0.090921
v -0.026420 0.015396 -0.090925
v -0.027412 0.015536 -0.090924
v -0.026470 0.014951 -0.090927
v -0.027470 0.014951 -0.090927
v -0.026470 0.012951 -0.090937
v -0.027470 0.012951 -0.090937
v -0.026420 0.012506 -0.090939
v -0.027412 0.012365 -0.090940
v -0.026272 0.012083 -0.090941
v -0.027242 0.011802 -0.090943
v -0.026964 0.011284 -0.090945
v 0.026471 0.016871 -0.099108
v 0.026442 0.016932 -0.099303
v 0.026454 0.017941 -0.099234
v 0.026377 0.016979 -0.099550
v 0.026387 0.017981 -0.099514
v 0.026279 0.016994 -0.099790
v 0.026280 0.017994 -0.099785
v 0.025929 0.016997 -0.100312
v 0.025872 0.017997 -0.100364
v 0.025348 0.016999 -0.100719
v 0.025348 0.017999 -0.100714
v 0.024807 0.017000 -0.100899
v 0.024816 0.018000 -0.100887
v -0.024470 0.011000 -0.100947
v -0.024470 0.010000 -0.100952
v -0.024915 0.011050 -0.100947
v -0.025055 0.010058 -0.100951
v -0.025338 0.011198 -0.100946
v -0.025618 0.010228 -0.100951
v -0.025717 0.011436 -0.100945
v -0.024470 0.018000 -0.100912
v -0.024470 0.017000 -0.100917
v -0.025055 0.017942 -0.100912
v -0.024915 0.016950 -0.100917
v -0.025618 0.017772 -0.100913
v -0.025338 0.016802 -0.100918
v -0.026137 0.017494 -0.100915
v -0.025717 0.016564 -0.100919
v -0.026591 0.017121 -0.100916
v -0.026034 0.016247 -0.100921
v -0.026137 0.010506 -0.100949
v -0.026591 0.010879 -0.100947
v -0.026034 0.011753 -0.100943
v -0.026964 0.011333 -0.100945
v -0.026272 0.012132 -0.100941
v -0.027242 0.011852 -0.100942
v -0.026420 0.012555 -0.100939
v -0.027412 0.012415 -0.100940
v -0.026470 0.013000 -0.100937
v -0.027470 0.013000 -0.100937
v -0.026470 0.015000 -0.100927
v -0.027470 0.015000 -0.100927
v -0.026420 0.015445 -0.100925
v -0.027412 0.015585 -0.100924
v -0.026272 0.015868 -0.100923
v -0.027242 0.016148 -0.100921
v -0.026964 0.016667 -0.100919
v 0.026275 0.016956 -0.092008
v 0.026273 0.017956 -0.092004
v 0.025841 0.017953 -0.091424
v 0.025788 0.016953 -0.091382
v 0.025288 0.017951 -0.091077
v 0.025288 0.016951 -0.091081
v -0.024949 0.017966 -0.100912
v 0.024480 0.018000 -0.100912
v 0.026279 0.017995 -0.099785
v 0.026044 0.017996 -0.100159
v 0.025727 0.017998 -0.100476
v 0.025348 0.017999 -0.100714
v 0.024925 0.018000 -0.100862
v -0.024786 0.017412 -0.098037
v -0.024809 0.017752 -0.098632
v -0.025451 0.017336 -0.098181
v -0.024745 0.017940 -0.099275
v -0.027289 0.015975 -0.099414
v -0.027441 0.015472 -0.099890
v -0.027000 0.016604 -0.099631
v -0.026917 0.016556 -0.098979
v -0.026651 0.017019 -0.099326
v -0.026062 0.017522 -0.099383
v -0.025420 0.017820 -0.099364
v -0.024840 0.017978 -0.099726
v -0.026304 0.017032 -0.098540
v -0.025608 0.017565 -0.098694
v 0.026454 0.017941 -0.099234
v 0.026387 0.017981 -0.099514
v 0.026480 0.017538 -0.098208
v 0.026480 0.016931 -0.097413
v 0.026480 0.017864 -0.098903
v 0.026480 0.016843 -0.094533
v 0.026480 0.016519 -0.095340
v -0.024804 0.016544 -0.095216
v -0.024795 0.016461 -0.095766
v 0.026480 0.016524 -0.096499
v -0.024807 0.016510 -0.096483
v -0.024799 0.016833 -0.097318
v 0.024884 0.017951 -0.090950
v 0.025288 0.017951 -0.091077
v 0.025654 0.017952 -0.091285
v -0.024904 0.017926 -0.090912
v 0.024500 0.017950 -0.090912
v 0.026201 0.017955 -0.091881
v 0.025949 0.017954 -0.091544
v -0.024799 0.017524 -0.093605
v -0.025518 0.017296 -0.093633
v -0.026330 0.016994 -0.093275
v -0.026907 0.016440 -0.093006
v -0.027455 0.015393 -0.090925
v -0.026056 0.017501 -0.092062
v -0.025102 0.017890 -0.092183
v -0.025429 0.017780 -0.092492
v -0.026195 0.017380 -0.092495
v -0.026915 0.016681 -0.092376
v -0.026596 0.017073 -0.092098
v -0.027242 0.016069 -0.092408
v -0.027394 0.015590 -0.092341
v -0.026604 0.016946 -0.092770
v -0.025287 0.017622 -0.093172
v -0.024757 0.017802 -0.092978
v -0.025773 0.017495 -0.093015
v -0.025490 0.016677 -0.097349
v -0.025926 0.016704 -0.097739
v -0.027440 0.014444 -0.093469
v -0.027470 0.013458 -0.094800
v -0.027396 0.014193 -0.095156
v -0.027456 0.013976 -0.097381
v -0.027275 0.015234 -0.098347
v -0.027346 0.014480 -0.097250
v -0.027283 0.015098 -0.093643
v -0.027198 0.014864 -0.094765
v -0.027198 0.014722 -0.095704
v -0.027196 0.014819 -0.096893
v -0.026989 0.015797 -0.098204
v -0.026992 0.015383 -0.097425
v -0.026990 0.015115 -0.096375
v -0.026992 0.015141 -0.095284
v -0.026992 0.015362 -0.094442
v -0.026997 0.015759 -0.093643
v -0.026637 0.016087 -0.097827
v -0.026585 0.016304 -0.093782
v -0.026598 0.016005 -0.094233
v -0.026735 0.015561 -0.094942
v -0.026735 0.015441 -0.095732
v -0.026732 0.015522 -0.096729
v -0.026281 0.016241 -0.097440
v -0.026249 0.016019 -0.096810
v -0.026268 0.015886 -0.096072
v -0.026273 0.015900 -0.095563
v -0.026282 0.015982 -0.095053
v -0.025917 0.016445 -0.094497
v -0.025899 0.016701 -0.094103
v -0.025483 0.016365 -0.095278
v -0.025714 0.016204 -0.095763
v -0.025530 0.016357 -0.096570
v -0.025314 0.016355 -0.096073
v -0.025325 0.016732 -0.094452
v -0.027242 0.016148 -0.100921
v -0.025618 0.017772 -0.100913
v -0.026367 0.017339 -0.100915
v -0.026964 0.016667 -0.100919
v -0.027446 0.015434 -0.100925
v -0.025618 0.017722 -0.090913
v -0.026137 0.017445 -0.090915
v -0.026591 0.017072 -0.090917
v -0.027128 0.016361 -0.090920
v -0.027464 0.012673 -0.100939
v -0.027463 0.012585 -0.090939
v -0.024899 0.010021 -0.100952
v -0.024838 0.009965 -0.090952
v -0.025844 0.010269 -0.090950
v -0.025937 0.010368 -0.100950
v -0.026765 0.010999 -0.090947
v -0.026832 0.011130 -0.100946
v -0.027242 0.011802 -0.090943
v -0.027242 0.011852 -0.100942
v -0.012520 0.009990 -0.098952
v -0.012520 0.009960 -0.092952
v -0.014520 0.009951 -0.090952
v -0.012570 0.009958 -0.092507
v -0.012718 0.009956 -0.092084
v -0.014520 0.010000 -0.100952
v -0.014075 0.010000 -0.100902
v -0.012956 0.009954 -0.091705
v -0.013273 0.009953 -0.091388
v -0.013652 0.009999 -0.100754
v -0.013273 0.009998 -0.100516
v -0.012570 0.009992 -0.099397
v -0.012956 0.009996 -0.100199
v -0.012718 0.009994 -0.099820
v -0.013652 0.009952 -0.091150
v -0.014075 0.009951 -0.091002
v -0.024813 0.016978 -0.100917
v 0.024480 0.017000 -0.100917
v 0.026044 0.016996 -0.100164
v 0.025727 0.016998 -0.100481
v 0.024925 0.017000 -0.100867
v 0.025348 0.016999 -0.100719
v -0.026125 0.016138 -0.100921
v -0.026324 0.015746 -0.099649
v -0.026433 0.015385 -0.099750
v -0.026456 0.015357 -0.100925
v -0.025950 0.016332 -0.099555
v -0.025717 0.016564 -0.100919
v -0.025689 0.016557 -0.099415
v -0.025338 0.016802 -0.100918
v -0.025269 0.016826 -0.099618
v -0.024819 0.016955 -0.099489
v -0.026465 0.012753 -0.100938
v -0.026470 0.013460 -0.096639
v -0.026454 0.015275 -0.092039
v -0.026453 0.015249 -0.090926
v -0.026464 0.012669 -0.090938
v -0.026456 0.014096 -0.093864
v -0.026194 0.011965 -0.100942
v -0.026151 0.011846 -0.090942
v -0.025574 0.011319 -0.100945
v -0.025506 0.011227 -0.090946
v -0.025285 0.016778 -0.092236
v -0.025338 0.016752 -0.090918
v -0.026272 0.015818 -0.090923
v -0.025923 0.016330 -0.090920
v -0.025949 0.016288 -0.092337
v -0.024835 0.016921 -0.090917
v 0.024500 0.016950 -0.090917
v 0.025654 0.016952 -0.091290
v 0.025288 0.016951 -0.091081
v 0.024884 0.016951 -0.090955
v 0.026201 0.016955 -0.091886
v 0.025949 0.016954 -0.091549
v -0.024720 0.016198 -0.098138
v -0.024743 0.015878 -0.097644
v -0.024757 0.015598 -0.096952
v 0.026480 0.015735 -0.097278
v 0.026480 0.015476 -0.096243
v -0.024686 0.015506 -0.096471
v -0.024738 0.015574 -0.094960
v 0.026480 0.015536 -0.095235
v -0.024732 0.015460 -0.095728
v -0.024687 0.016095 -0.093819
v -0.024758 0.015840 -0.094235
v 0.026480 0.015722 -0.094569
v -0.026193 0.015894 -0.099321
v -0.025186 0.016747 -0.099150
v -0.025278 0.016539 -0.098780
v -0.025891 0.016142 -0.098964
v -0.026321 0.015728 -0.092153
v -0.026194 0.015148 -0.098354
v -0.026205 0.015097 -0.093505
v -0.025898 0.015733 -0.098483
v -0.025878 0.016124 -0.092882
v -0.025891 0.015745 -0.093324
v -0.025342 0.015967 -0.098136
v -0.025306 0.015928 -0.093775
v -0.025152 0.015604 -0.094527
v -0.025346 0.015399 -0.094929
v -0.025153 0.015354 -0.095723
v -0.025345 0.015285 -0.096170
v -0.025310 0.015437 -0.096948
v -0.025290 0.015731 -0.097690
v -0.025437 0.016457 -0.092971
v -0.025646 0.015528 -0.094068
v -0.025646 0.015139 -0.095311
v -0.025756 0.015211 -0.094612
v -0.025754 0.015011 -0.096156
v -0.025894 0.014989 -0.096893
v -0.025881 0.015397 -0.097913
v -0.026000 0.015237 -0.093890
v -0.026000 0.014903 -0.094770
v -0.026000 0.014761 -0.095701
v -0.026199 0.014559 -0.094951
v -0.026201 0.014479 -0.096195
v -0.026201 0.014645 -0.097182
v -0.026347 0.014453 -0.094123
v -0.026348 0.014145 -0.095963
v -0.026397 0.014377 -0.097847
v -0.026439 0.013789 -0.095427
v -0.026180 0.015948 -0.092431
v -0.025178 0.016720 -0.092682
v -0.025677 0.016531 -0.092426
v -0.025024 0.016578 -0.093105
vn 0.1284 -0.9524 0.2764
vn 0.2695 -0.8171 0.5097
vn 0.0722 -0.8553 0.5132
vn -0.0110 -0.9993 -0.0347
vn -0.0019 -0.9989 -0.0476
vn -0.0142 -0.9992 -0.0380
vn -0.0322 -0.9955 0.0891
vn -0.0017 -0.9995 -0.0310
vn -0.0568 -0.9587 0.2786
vn 0.0206 -0.9977 -0.0642
vn 0.0197 -0.9978 -0.0634
vn 0.3526 -0.8844 0.3058
vn 0.4959 -0.7457 0.4449
vn 0.8549 -0.4871 0.1788
vn 0.6962 -0.5996 0.3947
vn 0.7493 -0.6508 0.1222
vn 0.5904 -0.7863 0.1822
vn 0.4007 -0.9115 0.0927
vn 0.1411 -0.9877 0.0668
vn 0.9170 -0.3922 0.0726
vn 0.9617 -0.2546 -0.1014
vn 0.9812 -0.1929 0.0046
vn 0.9861 -0.1569 -0.0543
vn 0.9993 -0.0369 -0.0033
vn 0.9456 -0.3203 0.0567
vn 0.9934 -0.1060 0.0444
vn 0.9327 -0.3599 -0.0248
vn 0.9511 -0.2886 0.1101
vn 0.9863 -0.1602 0.0395
vn 0.8505 -0.4479 -0.2757
vn 0.9159 -0.3903 -0.0943
vn 0.8599 -0.4545 -0.2325
vn 0.8570 -0.4983 -0.1313
vn 0.8667 -0.4975 -0.0375
vn 0.8521 -0.5139 0.0993
vn 0.8423 -0.4664 0.2701
vn 0.6930 -0.6012 -0.3980
vn 0.6953 -0.5761 -0.4297
vn 0.6946 -0.6446 -0.3195
vn 0.7080 -0.6886 -0.1568
vn 0.7562 -0.6538 0.0269
vn 0.7597 -0.6244 0.1817
vn 0.7605 -0.5873 0.2772
vn 0.5936 -0.7968 0.1132
vn 0.6088 -0.7916 -0.0523
vn 0.6454 -0.7223 0.2483
vn 0.5922 -0.7228 0.3562
vn 0.6982 -0.5762 0.4247
vn 0.4226 -0.8143 -0.3980
vn 0.4461 -0.7391 -0.5048
vn 0.4312 -0.8698 -0.2398
vn 0.4299 -0.9008 -0.0610
vn 0.4188 -0.8807 0.2214
vn 0.4173 -0.7637 0.4925
vn 0.4072 -0.7634 -0.5014
vn 0.3294 -0.9433 0.0406
vn 0.1153 -0.8688 -0.4816
vn 0.1418 -0.8049 -0.5762
vn 0.1364 -0.8810 -0.4531
vn 0.1367 -0.9489 -0.2844
vn 0.1167 -0.9839 -0.1353
vn 0.1307 -0.9905 0.0423
vn 0.1436 -0.9587 0.2456
vn 0.3311 -0.8792 0.3426
vn 0.1338 -0.8940 0.4275
vn 0.1197 -0.8155 0.5662
vn 0.3543 -0.8799 -0.3166
vn 0.5972 -0.7779 -0.1956
vn 0.7495 -0.6532 -0.1074
vn 0.4023 -0.9111 -0.0897
vn 0.1473 -0.9761 -0.1599
vn -0.0002 -0.8571 0.5152
vn -0.0001 -0.9298 0.3680
vn 0.0007 -0.9957 -0.0931
vn 0.0002 -0.9862 0.1653
vn -0.0000 -0.9367 -0.3501
vn -0.0004 -0.8519 -0.5236
vn -0.0000 -1.0000 -0.0049
vn -0.0000 -1.0000 -0.0050
vn 0.0002 -1.0000 -0.0048
vn 0.0001 -0.9997 0.0256
vn 0.0001 -1.0000 -0.0049
vn 0.1654 -0.9861 -0.0119
vn 0.4547 -0.8906 -0.0079
vn 0.7206 -0.6933 -0.0019
vn 0.8963 -0.4434 -0.0003
vn 0.9881 -0.1538 -0.0042
vn 0.1688 0.9856 0.0045
vn 0.1824 0.9832 0.0054
vn 0.5239 0.8518 0.0031
vn 0.5531 0.8331 0.0057
vn 0.8342 0.5515 0.0012
vn 0.8537 0.5207 0.0039
vn 0.9866 0.1630 0.0021
vn 0.9840 0.1780 -0.0000
vn 0.4277 -0.9038 -0.0116
vn 0.1608 -0.9869 -0.0154
vn 0.6328 -0.7742 -0.0147
vn 0.8288 -0.5596 -0.0005
vn 0.0003 -0.9990 -0.0450
vn 0.0004 -1.0000 -0.0056
vn -0.1464 -0.9892 -0.0046
vn -0.0012 -1.0000 -0.0053
vn -0.0014 -1.0000 -0.0064
vn -0.0015 -1.0000 -0.0046
vn -0.9248 -0.3804 -0.0024
vn -0.9906 -0.1369 0.0003
vn -0.9918 -0.1276 -0.0011
vn -0.9190 -0.3942 -0.0012
vn -0.7711 -0.6367 -0.0041
vn -0.7531 -0.6579 -0.0016
vn -0.4914 -0.8709 -0.0060
vn -0.1611 -0.9869 -0.0059
vn -0.4630 -0.8864 -0.0030
vn -0.9994 0.0338 -0.0069
vn -0.9951 0.0964 0.0196
vn -0.9879 0.1519 0.0300
vn -0.0020 -1.0000 -0.0029
vn -0.9869 0.1612 -0.0019
vn -0.9904 0.1382 -0.0004
vn -0.8848 0.4658 0.0075
vn -0.9178 0.3786 -0.1192
vn -0.9755 0.2069 -0.0743
vn -0.8165 0.5677 -0.1053
vn -0.7185 0.6955 0.0083
vn -0.7025 0.7105 -0.0406
vn -0.5202 0.8535 -0.0306
vn -0.5573 0.8303 0.0048
vn -0.3767 0.9263 0.0064
vn -0.3276 0.9336 -0.1454
vn -0.0775 0.9893 -0.1234
vn -0.2103 0.9766 -0.0444
vn -0.1341 0.9909 0.0062
vn -0.9266 0.3761 0.0013
vn -0.9363 0.3272 0.1278
vn -0.8448 0.5316 0.0612
vn -0.8203 0.5720 0.0005
vn -0.7133 0.6842 0.1518
vn -0.5348 0.8333 0.1402
vn -0.6331 0.7741 0.0042
vn -0.3133 0.9388 0.1429
vn -0.3899 0.9209 0.0047
vn -0.1205 0.9917 0.0438
vn -0.1462 0.9892 -0.0012
vn -0.1104 0.9591 -0.2605
vn -0.2883 0.8317 -0.4745
vn -0.0977 0.8719 -0.4798
vn -0.3474 0.9137 -0.2107
vn -0.1082 0.9933 -0.0407
vn -0.2525 0.9665 0.0466
vn -0.1204 0.9689 0.2163
vn -0.1099 0.8588 0.5003
vn -0.3626 0.9064 0.2165
vn -0.3492 0.8123 0.4671
vn -0.1029 0.8213 0.5612
vn -0.3560 0.7809 -0.5133
vn -0.1088 0.8528 -0.5108
vn -0.4881 0.7099 -0.5077
vn -0.6097 0.6825 -0.4030
vn -0.4934 0.7842 -0.3762
vn -0.4491 0.8927 -0.0365
vn -0.3307 0.7858 0.5226
vn -0.5057 0.6895 0.5186
vn -0.6035 0.6865 0.4055
vn -0.5879 0.7351 0.3376
vn -0.5975 0.8005 0.0466
vn -0.5861 0.7781 0.2258
vn -0.6034 0.7924 -0.0893
vn -0.6000 0.7707 -0.2144
vn -0.7005 0.5780 -0.4186
vn -0.7086 0.6323 -0.3130
vn -0.7213 0.5963 0.3523
vn -0.8134 0.4967 -0.3029
vn -0.7532 0.6352 -0.1710
vn -0.7445 0.6671 -0.0272
vn -0.7463 0.6479 0.1523
vn -0.8412 0.5042 0.1953
vn -0.8455 0.4430 0.2982
vn -0.8414 0.5376 0.0551
vn -0.8423 0.5332 -0.0788
vn -0.8422 0.5058 -0.1864
vn -0.8438 0.4479 -0.2956
vn -0.9391 0.3021 -0.1639
vn -0.8126 0.5147 0.2733
vn -0.9075 0.4029 -0.1186
vn -0.9105 0.4135 -0.0042
vn -0.9110 0.4035 0.0858
vn -0.9329 0.3121 0.1797
vn -0.9658 0.2512 0.0644
vn -0.9784 0.2050 -0.0248
vn -0.9899 0.1288 -0.0601
vn -0.4443 0.8373 -0.3187
vn -0.2653 0.8917 -0.3666
vn -0.5725 0.8062 -0.1496
vn -0.0949 0.9470 -0.3070
vn -0.7073 0.6670 -0.2340
vn -0.0000 1.0000 0.0050
vn -0.0000 1.0000 0.0049
vn -0.0003 0.9998 -0.0181
vn -0.0005 1.0000 0.0042
vn -0.0001 1.0000 0.0047
vn -0.0005 0.8601 0.5102
vn -0.0011 0.9776 0.2103
vn -0.0010 0.9823 -0.1874
vn -0.0007 0.8723 -0.4889
vn 0.0002 0.8549 0.5187
vn -0.1150 0.9156 0.3853
vn -0.0000 0.9441 0.3297
vn -0.0892 0.9779 0.1891
vn -0.0002 0.9821 0.1886
vn -0.0003 0.9944 0.1059
vn -0.0002 0.8633 -0.5048
vn -0.0004 0.9994 0.0355
vn -0.3812 0.8497 0.3642
vn -0.0003 1.0000 0.0051
vn 0.0003 1.0000 0.0043
vn 0.9826 -0.0082 0.1857
vn 0.9867 0.0001 -0.1625
vn 0.9867 -0.0001 0.1625
vn 0.9826 0.0082 -0.1857
vn 0.4023 -0.0055 0.9155
vn 0.1432 -0.0079 0.9897
vn 0.1430 -0.0089 0.9897
vn 0.4099 -0.0007 0.9122
vn 0.6603 -0.0079 0.7510
vn 0.8707 -0.0041 0.4918
vn 0.6814 -0.0004 0.7320
vn 0.8733 -0.0003 0.4872
vn 0.9544 0.0007 0.2984
vn 0.9445 -0.0015 0.3285
vn -0.0000 0.0050 -1.0000
vn -0.0000 0.0049 -1.0000
vn -0.0000 0.0048 -1.0000
vn -0.0001 0.0049 -1.0000
vn -0.0001 0.0050 -1.0000
vn -0.0000 0.0051 -1.0000
vn 0.0001 0.0049 -1.0000
vn 0.0004 0.0049 -1.0000
vn 0.0004 0.0050 -1.0000
vn 0.1577 0.0089 -0.9874
vn 0.1577 0.0101 -0.9874
vn 0.0018 0.0049 -1.0000
vn 0.0018 0.0053 -1.0000
vn 0.1785 0.0041 -0.9839
vn 0.1735 0.0100 -0.9848
vn 0.6949 0.0074 -0.7191
vn 0.4455 -0.0001 -0.8953
vn 0.4372 0.0057 -0.8993
vn 0.7175 -0.0004 -0.6965
vn 0.8806 0.0069 -0.4738
vn 0.8840 0.0033 -0.4674
vn 0.9522 0.0005 -0.3055
vn 0.9504 0.0043 -0.3110
vn 0.9862 -0.0032 -0.1657
vn 0.9827 0.0102 -0.1851
vn 0.9994 -0.0005 -0.0360
vn 0.9962 0.0079 -0.0864
vn 0.9987 -0.0014 -0.0502
vn -0.0000 -0.0049 1.0000
vn -0.0000 -0.0050 1.0000
vn 0.0018 -0.0050 1.0000
vn 0.0018 -0.0054 1.0000
vn 0.1784 -0.0042 0.9839
vn 0.0003 -0.0049 1.0000
vn 0.0003 -0.0050 1.0000
vn 0.9891 0.0002 0.1471
vn 0.9861 0.0006 0.1659
vn 0.9709 -0.0024 0.2395
vn 0.9991 0.0006 0.0428
vn 0.9983 -0.0004 0.0583
vn -0.0001 1.0000 0.0050
vn 0.0016 1.0000 0.0066
vn 0.0013 1.0000 0.0053
vn 0.1734 -0.0100 0.9848
vn 1.0000 0.0011 0.0004
vn 1.0000 0.0011 0.0005
vn 1.0000 -0.0005 0.0025
vn 1.0000 -0.0000 -0.0000
vn 1.0000 0.0003 0.0022
vn 1.0000 -0.0003 0.0005
vn 0.5223 -0.0095 0.8527
vn 0.0012 1.0000 0.0046
vn 0.0014 1.0000 0.0036
vn 0.8306 -0.0108 0.5568
vn 0.5551 0.0040 0.8318
vn 0.8532 0.0051 0.5216
vn 0.8533 -0.0051 -0.5213
vn 0.8307 0.0107 -0.5566
vn 0.5226 0.0095 -0.8525
vn 0.5554 -0.0041 -0.8316
vn 0.0002 -0.9010 0.4337
vn 0.0001 -0.9657 0.2596
vn 0.0002 -0.9811 0.1933
vn 0.0003 -0.9945 0.1043
vn -0.0002 -0.8690 -0.4948
vn 0.0004 -0.9382 -0.3462
vn 0.0005 -0.9682 -0.2500
vn 0.0003 -0.9902 -0.1394
vn -0.0000 0.9554 -0.2954
vn -0.0001 0.9868 -0.1620
vn -0.0001 0.9922 -0.1248
vn -0.0002 0.9977 -0.0681
vn 0.1746 0.4547 -0.8733
vn 0.1822 0.4581 -0.8700
vn 0.4636 0.4130 -0.7839
vn 0.4810 0.4151 -0.7722
vn 0.6690 0.3454 -0.6582
vn 0.6793 0.3418 -0.6494
vn 0.8407 0.2467 -0.4821
vn 0.8136 0.2760 -0.5117
vn 0.9937 0.0584 -0.0958
vn 0.9583 0.1270 -0.2561
vn 0.9298 0.1834 -0.3191
vn 0.9972 0.0294 -0.0692
vn -0.9975 0.0211 -0.0679
vn -0.9932 0.0590 -0.1003
vn -0.9604 0.1223 -0.2502
vn -0.9269 0.1878 -0.3249
vn -0.8417 0.2385 -0.4845
vn -0.8038 0.2746 -0.5278
vn -0.5915 0.3599 -0.7215
vn -0.6821 0.3435 -0.6455
vn -0.4517 0.4106 -0.7921
vn -0.1911 0.4531 -0.8707
vn -0.1753 0.4688 -0.8658
vn -0.1745 0.5433 0.8212
vn -0.1915 0.5551 0.8094
vn -0.4506 0.5062 0.7353
vn -0.5948 0.4583 0.6604
vn -0.6882 0.4071 0.6005
vn -0.8357 0.3049 0.4567
vn -0.8023 0.3334 0.4951
vn -0.9291 0.2166 0.2999
vn -0.9584 0.1528 0.2411
vn -0.9936 0.0687 0.0897
vn -0.9972 0.0365 0.0652
vn -1.0000 -0.0000 -0.0000
vn -1.0000 0.0029 -0.0008
vn 1.0000 0.0045 -0.0011
vn 1.0000 0.0015 -0.0048
vn -1.0000 0.0049 0.0007
vn -1.0000 0.0021 0.0049
vn 1.0000 -0.0000 -0.0001
vn 1.0000 0.0032 0.0004
vn 0.9975 0.0278 0.0647
vn 0.9931 0.0698 0.0941
vn 0.1910 0.5415 0.8187
vn 0.1752 0.5564 0.8122
vn -0.0001 0.9448 0.3275
vn -0.0000 0.9433 0.3320
vn -0.0001 0.9758 0.2188
vn 0.0003 0.9769 0.2138
vn -0.0003 0.9962 0.0874
vn 0.0003 0.9969 0.0782
vn -0.0003 0.9988 -0.0481
vn 0.0003 0.9984 -0.0564
vn -0.0003 0.9834 -0.1817
vn 0.0003 0.9816 -0.1908
vn -0.0003 0.9493 -0.3145
vn 0.0001 0.9477 -0.3193
vn -0.0000 0.9035 -0.4286
vn 0.0001 0.9055 -0.4243
vn -0.0028 0.9089 0.4170
vn -0.0015 0.8926 0.4509
vn -0.0043 0.8952 0.4457
vn -0.0003 0.8913 0.4533
vn -0.0114 0.9003 0.4350
vn -0.0111 0.9002 0.4354
vn -0.0077 0.8979 0.4402
vn -0.0534 0.9245 0.3774
vn -0.0731 0.9286 0.3639
vn -0.0053 0.9106 0.4133
vn 0.0099 0.8884 0.4589
vn 0.0016 0.9111 0.4122
vn 0.0548 0.9268 0.3716
vn -0.0108 0.9120 0.4100
vn 0.0022 0.9222 0.3867
vn -0.0041 0.9216 0.3882
vn 0.0055 0.8980 0.4400
vn 0.0019 0.8951 0.4458
vn 0.0099 0.9009 0.4339
vn 0.0148 0.9038 0.4276
vn -0.0001 0.9279 0.3729
vn -0.0000 0.9256 0.3785
vn -0.0000 0.9287 0.3708
vn -0.0000 0.9287 0.3709
vn 0.0001 0.8839 -0.4676
vn -0.0000 0.8811 -0.4729
vn 0.0002 0.8936 0.4489
vn -0.0022 0.8769 -0.4807
vn 0.0023 0.8768 -0.4808
vn -0.0000 0.8849 -0.4658
vn 0.0019 0.8631 -0.5050
vn -0.0013 0.8630 -0.5052
vn 0.0002 0.8421 -0.5394
vn -0.0002 0.8419 -0.5397
vn 0.0098 0.8509 -0.5252
vn 0.0152 0.8548 -0.5187
vn 0.0056 0.8475 -0.5308
vn 0.0019 0.8440 -0.5364
vn -0.0022 0.8666 -0.4990
vn 0.0618 0.8843 -0.4628
vn 0.0176 0.9053 0.4244
vn 0.0165 0.9048 0.4255
vn -0.0246 0.8863 0.4624
vn 0.0175 0.8565 -0.5159
vn 0.0200 0.8578 -0.5136
vn -0.0191 0.8570 -0.5149
vn -0.0145 0.8541 -0.5199
vn -0.0154 0.8549 -0.5185
vn 0.0278 0.8317 -0.5546
vn -0.0581 0.8838 -0.4643
vn 0.0178 0.8619 -0.5068
vn -0.0019 0.8438 -0.5367
vn -0.0056 0.8472 -0.5312
vn -0.0098 0.8507 -0.5255
vn -0.0000 0.8850 -0.4656
vn 0.9605 0.1476 0.2360
vn 0.9267 0.2206 0.3044
vn 0.8411 0.2882 0.4577
vn 0.8045 0.3276 0.4955
vn 0.5912 0.4335 0.6801
vn 0.6835 0.4074 0.6057
vn -0.0172 0.8380 -0.5454
vn 0.4520 0.4911 0.7447
vn 0.0002 -0.9252 -0.3795
vn 0.0001 -0.9449 -0.3272
vn -0.0006 -0.9455 -0.3257
vn 0.0004 -0.9991 -0.0420
vn -0.0004 -0.9844 -0.1758
vn 0.0004 -0.9827 -0.1851
vn -0.0004 -0.9994 -0.0337
vn 0.0004 -0.9951 0.0985
vn -0.0008 -0.9938 0.1111
vn 0.0009 -0.9633 0.2685
vn -0.0005 -0.9598 0.2808
vn 0.0006 -0.9063 0.4226
vn -0.0001 -0.9057 0.4239
vn -0.0022 -0.9106 -0.4132
vn -0.0172 -0.9051 -0.4249
vn 0.0163 -0.8903 -0.4550
vn -0.0179 -0.9054 -0.4243
vn -0.0151 -0.9039 -0.4275
vn -0.0015 -0.8946 -0.4468
vn -0.0055 -0.8978 -0.4405
vn -0.0001 -0.8934 -0.4493
vn 0.0018 -0.9106 -0.4133
vn 0.0002 -0.8933 -0.4494
vn 0.0018 -0.8948 -0.4465
vn -0.0104 -0.9011 -0.4335
vn -0.0006 -0.9136 -0.4066
vn -0.0634 -0.9270 -0.3696
vn -0.0024 -0.9215 -0.3883
vn 0.0023 -0.9215 -0.3883
vn 0.0604 -0.9268 -0.3708
vn -0.0098 -0.9111 -0.4121
vn 0.0146 -0.9037 -0.4279
vn 0.0179 -0.9051 -0.4248
vn -0.0191 -0.8887 -0.4581
vn 0.0049 -0.8972 -0.4415
vn 0.0103 -0.9009 -0.4340
vn 0.0147 -0.9035 -0.4283
vn 0.0002 -0.9275 -0.3739
vn -0.0002 -0.9239 -0.3826
vn -0.0000 -0.9275 -0.3739
vn -0.0002 -0.8807 0.4737
vn 0.0181 -0.8563 0.5161
vn 0.0023 -0.8626 0.5059
vn 0.0187 -0.8567 0.5155
vn 0.0151 -0.8543 0.5195
vn 0.0015 -0.8432 0.5376
vn 0.0055 -0.8470 0.5316
vn 0.0001 -0.8417 0.5400
vn -0.0018 -0.8625 0.5061
vn -0.0002 -0.8416 0.5401
vn -0.0018 -0.8434 0.5373
vn 0.0101 -0.8508 0.5255
vn 0.0028 -0.8670 0.4984
vn 0.0614 -0.8830 0.4653
vn 0.0023 -0.8759 0.4825
vn -0.0022 -0.8760 0.4824
vn -0.0000 -0.8836 0.4683
vn -0.0588 -0.8827 0.4663
vn -0.0149 -0.8544 0.5194
vn -0.0192 -0.8568 0.5153
vn 0.0210 -0.8353 0.5494
vn -0.0050 -0.8464 0.5326
vn -0.0101 -0.8506 0.5257
vn -0.0145 -0.8538 0.5205
vn -0.0002 -0.8835 0.4684
vn 0.0002 -0.8791 0.4766
vn -0.0150 -0.8389 0.5441
vn -0.9917 0.0012 -0.1283
vn -0.9996 -0.0006 0.0293
vn -0.9994 0.0007 0.0348
vn -0.9917 0.0006 -0.1287
vn -0.9659 0.0013 -0.2588
vn -0.9239 0.0019 -0.3827
vn -0.8660 0.0025 -0.5000
vn -0.7934 0.0030 -0.6087
vn -0.7071 0.0035 -0.7071
vn -0.6088 0.0039 -0.7933
vn 0.0109 -0.8629 0.5053
vn -0.4303 -0.0038 -0.9027
vn -0.4953 0.0018 -0.8687
vn -0.4968 0.0043 -0.8678
vn -0.4274 -0.0084 -0.9040
vn -0.2988 0.0152 -0.9542
vn -0.2986 0.0158 -0.9543
vn -0.2988 0.0163 -0.9542
vn -0.2989 0.0153 -0.9542
vn -0.2992 0.0187 -0.9540
vn -0.2989 0.0157 -0.9542
vn -0.4318 0.0102 -0.9019
vn -0.4331 0.0080 -0.9013
vn -0.4971 0.0054 -0.8677
vn -0.4977 0.0043 -0.8673
vn -0.6113 0.0039 -0.7914
vn -0.7101 0.0035 -0.7041
vn -0.7949 0.0030 -0.6067
vn -0.7948 0.0035 -0.6069
vn -0.7463 0.0001 -0.6656
vn -0.7495 0.0047 -0.6620
vn -0.1738 0.0115 -0.9847
vn 0.1693 0.0035 -0.9856
vn -0.1524 0.0049 -0.9883
vn 0.1905 0.0007 -0.9817
vn 0.7004 0.0035 -0.7137
vn 0.4883 0.0043 -0.8727
vn 0.4831 0.0080 -0.8755
vn 0.8597 0.0025 -0.5107
vn 0.9618 0.0014 -0.2738
vn 1.0000 -0.0000 -0.0060
vn 1.0000 -0.0051 0.0014
vn 0.9454 0.0032 0.3259
vn 0.9347 -0.0038 0.3555
vn -0.4831 -0.0018 -0.8756
vn -0.5120 0.0082 -0.8590
vn 0.5326 -0.0000 0.8464
vn 0.7639 -0.0073 0.6453
vn 0.7677 -0.0026 0.6407
vn 0.5023 -0.0107 0.8646
vn 0.1821 0.0022 0.9833
vn -0.4884 -0.0005 0.8726
vn -0.1930 -0.0091 0.9812
vn -0.1713 -0.0061 0.9852
vn -0.4936 -0.0043 0.8697
vn -0.7071 -0.0035 0.7071
vn -0.8660 -0.0025 0.5000
vn -0.9664 -0.0013 0.2571
vn -0.9668 -0.0022 0.2556
vn 0.8070 0.0006 0.5905
vn 0.5926 -0.0040 0.8055
vn 0.7054 -0.0035 0.7088
vn 0.5909 -0.0068 0.8067
vn 0.4448 -0.0019 0.8956
vn 0.4265 -0.0021 0.9045
vn 0.4651 0.0031 0.8852
vn 0.4639 0.0018 0.8859
vn 0.1594 -0.0050 0.9872
vn 0.6581 -0.0024 0.7529
vn 0.7917 -0.0030 0.6109
vn 0.7916 -0.0028 0.6111
vn -0.2292 0.9730 0.0277
vn 0.0920 0.9958 -0.0002
vn -0.0882 0.9958 0.0232
vn 0.2148 0.9766 -0.0129
vn -0.2035 -0.0134 0.9790
vn 0.2136 -0.0014 0.9769
vn -0.2143 -0.0079 0.9767
vn 0.2041 0.0041 0.9789
vn -1.0000 0.0018 -0.0008
vn -1.0000 -0.0000 -0.0001
vn 0.8055 -0.0029 0.5926
vn -1.0000 -0.0029 -0.0002
vn -1.0000 -0.0008 -0.0015
vn -0.9993 0.0369 0.0004
vn -0.9993 0.0376 0.0008
vn 0.6592 -0.0037 0.7520
vn 1.0000 -0.0008 -0.0011
vn 1.0000 -0.0014 0.0013
vn 1.0000 0.0001 -0.0005
vn 1.0000 0.0005 -0.0002
vn -0.0000 -0.6597 -0.7516
vn -0.0000 -0.7675 -0.6411
vn -0.0000 -0.5238 -0.8519
vn -0.0000 -0.4154 -0.9097
vn -0.0000 -0.3491 -0.9371
vn 0.9993 0.0375 0.0009
vn 0.9993 0.0365 0.0007
vn 1.0000 -0.0006 -0.0013
vn -0.0049 -0.1921 -0.9814
vn 0.0012 -0.2991 -0.9542
vn 0.0004 -0.2510 -0.9680
vn 0.0007 -0.3487 -0.9372
vn -0.0009 -0.2481 -0.9687
vn 0.0056 -0.2006 -0.9797
vn -0.0044 -0.1144 -0.9934
vn 0.0064 -0.1248 -0.9922
vn -0.0002 -0.0314 -0.9995
vn 0.0002 -0.0315 -0.9995
vn -0.0171 -0.0731 -0.9972
vn -0.0215 -0.0797 -0.9966
vn -0.0109 -0.0582 -0.9982
vn -0.0966 -0.2144 -0.9720
vn -0.0782 -0.1973 -0.9772
vn 0.0179 -0.0745 -0.9971
vn 0.0217 -0.0800 -0.9966
vn 0.1372 -0.2541 -0.9574
vn 0.0802 -0.1979 -0.9769
vn 0.0034 -0.0405 -0.9992
vn 0.0109 -0.0582 -0.9982
vn 0.9976 -0.0045 0.0698
vn 0.9964 0.0012 0.0843
vn 0.9802 -0.0040 0.1979
vn 0.9782 0.0018 0.2076
vn -0.0002 -0.2984 -0.9544
vn 0.8995 -0.0049 0.4369
vn 0.8944 0.0008 0.4473
vn 0.7580 -0.0062 0.6522
vn 0.7477 -0.0000 0.6641
vn 0.5521 -0.0082 0.8338
vn 0.5348 0.0002 0.8450
vn -0.0034 -0.0404 -0.9992
vn 0.9941 0.1082 0.0008
vn 0.9907 0.1364 0.0012
vn 0.9694 0.2453 0.0002
vn 0.9633 0.2684 0.0024
vn 0.9252 0.3795 0.0012
vn 0.9138 0.4062 -0.0016
vn 0.8636 0.5042 0.0022
vn 0.8391 0.5439 -0.0019
vn 0.7504 0.6610 0.0054
vn 0.7303 0.6831 0.0018
vn 0.5693 0.8221 0.0057
vn 0.5453 0.8383 -0.0037
vn 0.3498 0.9367 0.0128
vn -0.9636 0.2673 0.0044
vn -0.9649 0.2625 -0.0015
vn -0.9221 0.3870 -0.0012
vn -0.9934 0.1146 0.0005
vn -0.9903 0.1391 0.0038
vn -0.9205 0.3907 0.0029
vn -0.8628 0.5056 0.0016
vn -0.8543 0.5198 0.0023
vn -0.7500 0.6615 0.0029
vn -0.7408 0.6718 0.0014
vn -0.5637 0.8260 0.0020
vn -0.5567 0.8307 0.0094
vn -0.3458 0.9383 -0.0032
vn -0.0004 0.4281 0.9037
vn 0.0002 0.5356 0.8445
vn 0.0004 0.5331 0.8460
vn -0.0003 0.7026 0.7115
vn 0.0002 0.7119 0.7023
vn -0.0035 0.1298 0.9915
vn -0.0045 0.0543 0.9985
vn -0.0146 0.0780 0.9968
vn 0.0044 0.0528 0.9986
vn 0.0003 0.0413 0.9991
vn 0.0032 0.1301 0.9915
vn -0.1139 0.2574 0.9596
vn -0.0026 0.1945 0.9809
vn -0.0320 0.1124 0.9931
vn -0.0290 0.1074 0.9938
vn 0.0024 0.1947 0.9809
vn -0.0000 0.2515 0.9678
vn -0.0000 0.2516 0.9678
vn -0.0000 0.3090 0.9511
vn -0.0001 0.2995 0.9541
vn -0.0000 0.3712 0.9286
vn -0.0005 0.3636 0.9316
vn 0.0005 0.4364 0.8997
vn 0.0269 0.1017 0.9945
vn 0.0276 0.1036 0.9942
vn 0.1050 0.2494 0.9627
vn 0.0142 0.0760 0.9970
vn -0.0033 0.9960 0.0898
vn 0.0060 0.9961 0.0878
vn -0.0000 0.9884 0.1517
vn -0.0000 0.9884 0.1520
vn -0.0003 0.0423 0.9991
vn -0.0000 0.9553 0.2956
vn -0.0000 0.9745 0.2244
vn -0.0000 0.9309 0.3653
vn -0.0000 0.9014 0.4329
vn -0.0000 0.8671 0.4982
vn -0.0000 0.8252 0.5648
vn -0.0002 0.8234 0.5674
vn 0.0254 0.9971 0.0716
vn -0.0018 0.9995 0.0328
vn -0.0015 0.9997 0.0231
vn 0.0001 0.9998 0.0203
vn -0.0023 0.9987 0.0500
vn -0.0091 0.9999 0.0116
vn -0.0033 0.9997 0.0259
vn -0.0152 0.9999 -0.0065
vn -0.0225 0.9992 -0.0344
vn -0.0344 0.9948 -0.0957
vn -0.0596 0.9543 -0.2927
vn 0.0211 0.9976 0.0665
vn 0.0145 0.9982 0.0577
vn 0.0086 0.9988 0.0487
vn 0.0028 0.9993 0.0384
vn -0.0508 0.9959 0.0752
vn -0.0381 0.9968 0.0709
vn 0.0142 0.9987 0.0493
vn -0.0044 0.9996 0.0273
vn -0.0083 0.9994 0.0324
vn -0.0116 0.9993 0.0362
vn -0.0122 0.9992 0.0371
vn -0.0144 0.9991 0.0389
vn -0.5338 -0.0086 0.8456
vn -0.5530 -0.0001 0.8332
vn -0.7454 -0.0065 0.6666
vn -0.7599 -0.0002 0.6501
vn -0.8916 -0.0053 0.4527
vn -0.9021 0.0006 0.4315
vn -0.9774 -0.0040 0.2112
vn -0.9815 -0.0010 0.1917
vn 0.0204 0.9997 0.0121
vn -0.0000 -0.8280 -0.5608
vn -0.0000 -0.8280 -0.5607
vn -0.0000 -0.8671 -0.4982
vn -0.0000 -0.9014 -0.4329
vn -0.0000 -0.9309 -0.3653
vn -0.0000 -0.9309 -0.3652
vn -0.0000 -0.9553 -0.2956
vn -0.0000 -0.9745 -0.2244
vn -0.0000 -0.9885 -0.1514
vn 0.0044 -0.9964 -0.0847
vn -0.0021 -0.9962 -0.0876
vn -0.0330 -0.9972 -0.0674
vn 0.0001 -0.9998 -0.0198
vn -0.0015 -0.9997 -0.0225
vn -0.0082 -0.9999 -0.0121
vn -0.0028 -0.9997 -0.0255
vn -0.0141 -0.9999 0.0055
vn -0.0209 -0.9993 0.0310
vn -0.9968 -0.0042 0.0800
vn -0.9969 -0.0038 0.0791
vn 0.0145 -0.9983 -0.0561
vn 0.0088 -0.9988 -0.0475
vn 0.0030 -0.9993 -0.0372
vn 0.0185 -0.9997 -0.0127
vn -0.0116 -0.9993 -0.0358
vn 0.0119 -0.9988 -0.0485
vn -0.0375 -0.9969 -0.0689
vn -0.0042 -0.9996 -0.0265
vn -0.0079 -0.9995 -0.0313
vn -0.0000 -0.9884 -0.1518
s 1
usemtl finger_outter_01_mat
f 661//1 1034//2 664//3
f 1//4 2//5 3//6
f 20//7 13//8 19//9
f 13//8 17//10 18//11
f 1034//2 1032//12 1014//13
f 1031//14 1004//15 976//16
f 976//16 1004//15 1033//17
f 661//1 1032//12 1034//2
f 1032//12 661//1 972//18
f 658//19 972//18 661//1
f 1033//17 1014//13 1032//12
f 1032//12 972//18 1033//17
f 976//16 1000//20 1031//14
f 1029//21 955//22 954//23
f 955//22 1029//21 963//24
f 1030//25 963//24 1029//21
f 963//24 1030//25 967//26
f 1028//27 1030//25 1029//21
f 1030//25 1027//28 967//26
f 967//26 1027//28 964//29
f 1000//20 964//29 1027//28
f 1001//30 953//31 996//32
f 953//31 1001//30 1029//21
f 954//23 953//31 1029//21
f 1026//33 1029//21 1001//30
f 1029//21 1026//33 1028//27
f 1025//34 1028//27 1026//33
f 1024//35 1028//27 1025//34
f 1028//27 1024//35 1027//28
f 1027//28 1030//25 1028//27
f 1027//28 1002//36 1000//20
f 1000//20 1002//36 1031//14
f 996//32 999//37 1001//30
f 1003//38 1001//30 999//37
f 1020//39 1001//30 1003//38
f 1001//30 1020//39 1026//33
f 1019//40 1026//33 1020//39
f 1023//41 1025//34 1019//40
f 1025//34 1023//41 1024//35
f 1022//42 1024//35 1023//41
f 1024//35 1022//42 1002//36
f 1021//43 1002//36 1022//42
f 1002//36 1027//28 1024//35
f 1026//33 1019//40 1025//34
f 1016//44 1023//41 1018//45
f 1023//41 1016//44 1022//42
f 1017//46 1022//42 1016//44
f 1022//42 1017//46 1021//43
f 1015//47 1021//43 1017//46
f 1021//43 1015//47 1005//48
f 1005//48 1002//36 1021//43
f 1002//36 1005//48 1004//15
f 1013//49 1020//39 1006//50
f 1020//39 1013//49 1019//40
f 1012//51 1019//40 1013//49
f 1019//40 1012//51 1018//45
f 1011//52 1018//45 1012//51
f 1018//45 1011//52 1016//44
f 1019//40 1018//45 1023//41
f 1017//46 1009//53 1015//47
f 1015//47 1007//54 1005//48
f 1005//48 1007//54 1004//15
f 1014//13 1004//15 1007//54
f 999//37 998//55 1003//38
f 1006//50 1003//38 998//55
f 1003//38 1006//50 1020//39
f 1011//52 1010//56 1016//44
f 1016//44 1010//56 1009//53
f 1016//44 1009//53 1017//46
f 1034//2 1014//13 1007//54
f 998//55 650//57 1006//50
f 984//58 1006//50 650//57
f 1006//50 984//58 1013//49
f 985//59 1013//49 984//58
f 1013//49 985//59 1012//51
f 986//60 1012//51 985//59
f 989//61 1011//52 986//60
f 1011//52 989//61 1010//56
f 992//62 1010//56 989//61
f 1010//56 992//62 1009//53
f 990//63 1009//53 992//62
f 1009//53 990//63 1008//64
f 994//65 1008//64 990//63
f 1008//64 994//65 1007//54
f 1009//53 1008//64 1015//47
f 1015//47 1008//64 1007//54
f 664//3 1034//2 993//66
f 1012//51 986//60 1011//52
f 993//66 1007//54 994//65
f 1007//54 993//66 1034//2
f 1004//15 1031//14 1002//36
f 997//67 998//55 958//68
f 650//57 998//55 997//67
f 956//69 996//32 953//31
f 999//37 956//69 958//68
f 956//69 999//37 996//32
f 999//37 958//68 998//55
f 960//70 997//67 958//68
f 997//67 960//70 961//71
f 961//71 650//57 997//67
f 993//66 665//72 664//3
f 665//72 993//66 995//73
f 993//66 994//65 995//73
f 988//74 992//62 989//61
f 991//75 992//62 988//74
f 992//62 991//75 990//63
f 987//76 989//61 986//60
f 988//74 989//61 987//76
f 984//58 656//77 985//59
f 650//57 656//77 984//58
s 0
f 981//78 983//78 979//78
f 983//79 981//79 982//79
f 978//78 982//78 981//78
s 1
f 982//78 978//80 657//81
f 658//19 657//81 978//80
s 0
f 979//82 980//82 981//82
s 1
f 978//80 977//83 658//19
f 972//18 658//19 977//83
f 990//63 991//75 994//65
f 995//73 994//65 991//75
f 972//18 973//84 1033//17
f 975//85 1033//17 973//84
f 1033//17 975//85 976//16
f 976//16 975//85 1000//20
f 974//86 1000//20 975//85
f 987//76 986//60 656//77
f 985//59 656//77 986//60
f 965//87 964//29 974//86
f 964//29 1000//20 974//86
f 706//88 708//89 971//90
f 970//91 971//90 708//89
f 971//90 970//91 969//92
f 968//93 969//92 970//91
f 973//84 972//18 977//83
f 962//94 966//95 968//93
f 966//95 963//24 967//26
f 962//94 963//24 966//95
f 964//29 966//95 967//26
f 966//95 964//29 965//87
f 960//70 959//96 961//71
f 946//97 961//71 959//96
f 957//98 960//70 958//68
f 969//92 968//93 966//95
f 956//69 952//99 958//68
f 957//98 958//68 952//99
f 953//31 952//99 956//69
f 954//23 955//22 953//31
f 963//24 962//94 955//22
s 0
f 948//79 947//79 949//79
s 1
f 652//100 947//101 948//78
f 947//101 652//100 946//97
f 961//71 946//97 652//100
s 0
f 934//79 945//79 932//79
f 945//79 934//79 944//79
f 938//79 944//79 934//79
f 941//78 942//78 943//78
f 942//79 941//79 940//79
f 930//79 940//79 941//79
f 940//79 930//79 939//79
f 936//79 939//79 930//79
f 934//78 937//78 938//78
s 1
f 959//96 960//70 957//98
s 0
f 932//79 933//79 934//79
f 933//78 932//78 931//78
s 1
f 923//102 931//103 932//104
f 930//105 931//103 923//102
f 929//106 921//107 920//108
f 921//107 929//106 928//109
f 927//110 928//109 929//106
f 928//109 927//110 926//111
f 925//112 926//111 927//110
f 952//99 953//31 955//22
s 0
f 949//79 950//79 951//79
f 950//78 949//78 947//78
s 1
f 922//113 924//114 925//112
f 924//114 922//113 923//102
f 920//108 878//115 880//116
f 921//107 878//115 920//108
f 920//108 880//116 830//117
s 0
f 930//78 935//78 936//78
s 1
f 935//118 930//105 922//113
f 923//102 922//113 930//105
f 921//107 862//119 878//115
f 920//108 830//117 915//120
f 919//121 869//122 862//119
f 870//123 862//119 869//122
f 926//111 925//112 924//114
f 867//124 918//125 868//126
f 918//125 867//124 919//121
f 863//127 868//126 917//128
f 917//128 868//126 918//125
f 916//129 863//127 917//128
f 916//129 865//130 863//127
f 644//131 864//132 854//133
f 915//120 830//117 911//134
f 829//135 911//134 830//117
f 911//134 831//136 914//137
f 831//136 911//134 829//135
f 869//122 919//121 867//124
f 833//138 834//139 913//140
f 835//141 912//142 834//139
f 913//140 834//139 912//142
f 836//143 818//144 835//141
f 865//130 916//129 864//132
f 854//133 864//132 916//129
f 833//138 914//137 831//136
f 914//137 833//138 913//140
f 912//142 835//141 818//144
f 846//145 910//146 649//147
f 910//146 846//145 906//148
f 847//149 906//148 846//145
f 906//148 847//149 909//150
f 849//151 909//150 847//149
f 850//152 908//153 849//151
f 908//153 850//152 875//154
f 825//155 875//154 850//152
f 910//146 859//156 858//157
f 905//158 859//156 910//146
f 860//159 859//156 905//158
f 858//157 649//147 910//146
f 906//148 904//160 910//146
f 909//150 907//161 906//148
f 907//161 909//150 908//153
f 909//150 849//151 908//153
f 827//162 876//163 875//154
f 876//163 827//162 837//164
f 876//163 899//165 875//154
f 905//158 910//146 904//160
f 901//166 908//153 900//167
f 908//153 901//166 907//161
f 902//168 907//161 901//166
f 903//169 907//161 902//168
f 907//161 903//169 906//148
f 904//160 906//148 903//169
f 860//159 905//158 894//170
f 904//160 894//170 905//158
f 894//170 904//160 895//171
f 903//169 895//171 904//160
f 900//167 875//154 899//165
f 875//154 900//167 908//153
f 899//165 876//163 893//172
f 837//164 893//172 876//163
f 860//159 894//170 861//173
f 895//171 903//169 896//174
f 902//168 896//174 903//169
f 896//174 902//168 897//175
f 897//175 901//166 898//176
f 900//167 898//176 901//166
f 899//165 898//176 900//167
f 898//176 899//165 893//172
f 888//177 893//172 887//178
f 893//172 888//177 898//176
f 889//179 898//176 888//177
f 898//176 889//179 897//175
f 890//180 897//175 889//179
f 901//166 897//175 902//168
f 891//181 896//174 890//180
f 896//174 891//181 895//171
f 892//182 895//171 891//181
f 895//171 892//182 894//170
f 861//173 894//170 892//182
f 883//183 861//173 892//182
f 861//173 883//183 869//122
f 832//184 887//178 893//172
f 891//181 883//183 892//182
f 883//183 891//181 884//185
f 890//180 884//185 891//181
f 884//185 890//180 885//186
f 889//179 885//186 890//180
f 897//175 890//180 896//174
f 888//177 886//187 889//179
f 886//187 888//177 881//188
f 887//178 881//188 888//177
f 832//184 881//188 887//178
f 837//164 832//184 893//172
f 881//188 882//189 886//187
f 879//190 886//187 882//189
f 886//187 879//190 885//186
f 885//186 879//190 884//185
f 885//186 889//179 886//187
f 869//122 883//183 870//123
f 832//184 829//135 881//188
f 883//183 877//191 870//123
f 879//190 877//191 883//183
f 879//190 882//189 880//116
f 883//183 884//185 879//190
f 881//188 880//116 882//189
f 880//116 881//188 830//117
f 829//135 830//117 881//188
f 880//116 878//115 879//190
f 879//190 878//115 877//191
f 870//123 877//191 862//119
f 825//155 827//162 875//154
f 874//192 872//193 859//156
f 874//192 866//194 865//130
f 863//127 865//130 866//194
f 862//119 877//191 878//115
f 873//195 858//157 872//193
f 859//156 872//193 858//157
f 859//156 860//159 874//192
f 644//131 873//195 865//130
f 872//193 865//130 873//195
f 868//126 866//194 871//196
f 860//159 871//196 866//194
f 874//192 860//159 866//194
f 871//196 867//124 868//126
f 865//130 872//193 874//192
f 861//173 869//122 867//124
f 865//130 864//132 644//131
f 866//194 868//126 863//127
f 867//124 871//196 861//173
f 860//159 861//173 871//196
s 0
f 853//197 857//197 851//197
f 856//197 851//197 857//197
f 851//198 856//198 855//198
s 1
f 643//199 855//200 856//198
f 855//200 643//199 854//133
f 644//131 854//133 643//199
s 0
f 851//201 852//201 853//201
s 1
f 842//202 850//152 848//203
f 849//151 848//203 850//152
f 847//149 848//203 849//151
f 848//203 847//149 845//204
f 846//145 845//204 847//149
f 649//147 845//204 846//145
f 845//204 649//147 844//205
f 841//206 826//207 825//155
f 843//208 826//207 841//206
f 826//207 843//208 828//209
f 839//210 828//209 843//208
f 842//202 825//155 850//152
f 841//206 825//155 842//202
f 839//210 840//211 828//209
f 844//205 649//147 648//212
f 828//209 820//213 836//143
f 828//209 840//211 820//213
f 826//207 838//214 827//162
f 827//162 825//155 826//207
f 837//164 827//162 838//214
f 826//207 835//141 838//214
f 835//141 826//207 828//209
f 837//164 838//214 834//139
f 835//141 834//139 838//214
f 835//141 828//209 836//143
f 834//139 833//138 837//164
f 832//184 837//164 833//138
f 829//135 832//184 831//136
f 833//138 831//136 832//184
s 0
f 819//198 823//198 824//198
f 823//197 819//197 822//197
f 821//197 822//197 819//197
s 1
f 819//215 820//213 821//216
f 820//213 819//215 836//143
f 818//144 836//143 819//215
f 674//217 673//218 675//219
f 672//220 675//219 673//218
f 817//221 730//222 729//223
f 730//222 817//221 816//224
f 815//225 816//224 817//221
f 812//226 814//227 815//225
f 814//227 812//226 813//228
f 813//228 812//226 726//229
f 727//230 726//229 812//226
s 0
f 794//231 811//231 793//231
f 811//231 794//231 810//231
f 809//231 810//231 794//231
f 810//231 809//231 808//231
f 807//231 808//231 809//231
f 803//232 804//232 805//232
f 804//232 803//232 802//232
f 801//231 802//231 803//231
f 802//233 801//233 800//233
f 799//234 800//234 801//234
f 800//235 799//235 798//235
f 797//236 798//236 799//236
f 798//231 797//231 796//231
f 784//231 796//231 797//231
f 796//237 784//237 795//237
f 783//231 795//231 784//231
f 794//231 793//231 792//231
f 791//234 792//234 793//234
s 1
f 816//224 815//225 814//227
s 0
f 787//234 788//234 789//234
f 788//237 787//237 786//237
f 785//232 786//232 787//232
s 1
f 786//238 785//239 776//240
f 777//241 776//240 785//239
s 0
f 782//232 783//232 784//232
f 783//237 782//237 781//237
f 780//237 781//237 782//237
f 781//232 780//232 779//232
f 778//234 779//234 780//234
s 1
f 779//242 778//243 666//244
f 667//245 666//244 778//243
s 0
f 808//231 807//231 806//231
f 805//232 806//232 807//232
f 806//231 805//231 804//231
s 1
f 773//246 774//247 775//248
f 774//247 773//246 772//249
f 771//250 772//249 773//246
f 772//249 771//250 770//251
f 769//252 770//251 771//250
f 770//251 769//252 768//253
f 767//254 768//253 769//252
f 768//253 767//254 766//255
s 0
f 792//231 791//231 790//231
f 789//232 790//232 791//232
f 790//234 789//234 788//234
s 1
f 703//256 765//257 705//258
s 0
f 747//259 764//259 746//259
f 764//260 747//260 763//260
f 762//260 763//260 747//260
f 763//260 762//260 761//260
f 760//259 761//259 762//259
f 761//260 760//260 759//260
f 758//259 759//259 760//259
f 759//260 758//260 757//260
f 756//259 757//259 758//259
f 757//259 756//259 755//259
f 754//260 755//260 756//260
f 755//260 754//260 753//260
s 1
f 775//248 776//240 777//241
f 776//240 775//248 774//247
s 0
f 751//260 750//260 749//260
f 737//260 749//260 750//260
f 749//259 737//259 748//259
f 736//259 748//259 737//259
f 747//260 746//260 745//260
f 744//259 745//259 746//259
f 745//260 744//260 743//260
f 742//259 743//259 744//259
f 743//260 742//260 741//260
f 740//260 741//260 742//260
f 741//260 740//260 739//260
f 738//259 739//259 740//259
s 1
f 739//261 738//262 680//263
f 705//258 766//255 767//254
f 766//255 705//258 765//257
s 0
f 733//260 734//260 735//260
f 734//260 733//260 732//260
f 731//260 732//260 733//260
s 1
f 732//264 731//265 730//222
f 729//223 730//222 731//265
f 725//266 724//267 728//268
f 726//229 728//268 724//267
f 728//268 726//229 727//230
f 683//269 682//270 725//266
s 0
f 752//259 753//259 754//259
f 753//260 752//260 751//260
f 750//259 751//259 752//259
f 709//198 723//198 711//198
f 723//198 709//198 722//198
f 721//198 722//198 709//198
f 722//198 721//198 720//198
f 719//271 720//271 721//271
f 716//197 717//197 718//197
f 717//198 716//198 713//198
f 715//198 713//198 716//198
f 715//197 714//197 713//197
f 707//198 713//198 714//198
f 713//197 707//197 712//197
s 1
f 706//88 712//272 707//273
f 681//274 680//263 738//262
s 0
f 735//259 736//259 737//259
f 736//260 735//260 734//260
s 1
f 706//88 707//273 708//89
f 704//275 703//256 705//258
s 0
f 701//276 703//276 704//276
f 703//277 701//277 702//277
f 702//278 701//278 700//278
f 699//278 700//278 701//278
f 700//278 699//278 698//278
f 697//278 698//278 699//278
f 698//278 697//278 696//278
f 695//278 696//278 697//278
f 696//278 695//278 694//278
s 1
f 724//267 725//266 682//270
s 0
f 685//278 692//278 684//278
f 691//278 692//278 685//278
f 692//278 691//278 690//278
f 689//278 690//278 691//278
f 690//278 689//278 687//278
f 688//278 687//278 689//278
f 686//278 687//278 688//278
s 1
f 685//279 684//280 683//269
f 682//270 683//269 684//280
f 679//281 680//263 681//274
s 0
f 711//197 710//197 709//197
s 1
f 708//89 709//282 710//283
f 709//282 708//89 707//273
f 677//284 678//285 679//281
f 678//285 677//284 676//286
f 674//217 676//286 677//284
f 676//286 674//217 675//219
f 671//287 672//220 673//218
f 672//220 671//287 670//288
s 0
f 686//278 694//278 695//278
f 694//278 686//278 693//278
f 688//278 693//278 686//278
s 1
f 666//244 668//289 669//290
f 668//289 666//244 667//245
f 663//291 664//3 665//72
f 664//3 662//292 661//1
f 680//263 679//281 678//285
f 660//293 661//1 662//292
f 661//1 660//293 658//19
f 659//294 658//19 660//293
f 657//81 658//19 659//294
f 656//77 650//57 655//295
f 655//295 650//57 654//296
f 669//290 670//288 671//287
f 670//288 669//290 668//289
f 651//297 961//71 653//298
f 652//100 653//298 961//71
f 650//57 961//71 651//297
f 858//157 648//212 649//147
f 648//212 858//157 647//299
f 873//195 647//299 858//157
f 663//291 662//292 664//3
f 647//299 644//131 646//300
f 646//300 644//131 645//301
f 642//302 645//301 644//131
f 642//302 644//131 643//199
f 651//297 654//296 650//57
f 641//303 640//304 639//305
f 638//306 639//305 640//304
f 639//305 638//306 637//307
f 636//308 637//307 638//306
f 637//307 636//308 634//309
f 635//310 634//309 636//308
f 644//131 647//299 873//195
f 592//311 632//312 633//313
f 632//312 592//311 593//314
f 595//315 594//316 631//317
f 630//318 631//317 594//316
f 631//317 630//318 629//319
f 629//319 628//320 626//321
f 627//322 626//321 628//320
f 625//323 626//321 627//322
f 626//321 625//323 572//324
f 573//325 572//324 625//323
f 633//313 634//309 635//310
f 634//309 633//313 632//312
f 624//326 623//327 622//328
f 620//329 622//328 623//327
f 622//328 620//329 621//330
f 628//320 629//319 630//318
f 621//330 620//329 618//331
f 619//332 618//331 620//329
f 617//333 618//331 619//332
f 618//331 617//333 616//334
f 614//335 616//334 617//333
f 616//334 614//335 615//336
s 0
f 613//337 612//337 611//337
f 610//337 611//337 612//337
f 611//337 610//337 609//337
f 608//337 609//337 610//337
f 609//337 608//337 607//337
f 606//337 607//337 608//337
f 607//337 606//337 605//337
f 604//337 605//337 606//337
f 605//337 604//337 603//337
f 602//337 603//337 604//337
f 603//337 602//337 601//337
f 600//337 601//337 602//337
f 601//337 600//337 599//337
s 1
f 597//337 596//338 595//315
f 594//316 595//315 596//338
f 593//314 592//311 591//339
f 590//340 591//339 592//311
s 0
f 591//278 590//278 589//278
f 588//278 589//278 590//278
f 589//278 588//278 587//278
f 586//278 587//278 588//278
f 587//278 586//278 585//278
f 584//278 585//278 586//278
f 585//278 584//278 583//278
f 582//278 583//278 584//278
f 583//278 582//278 581//278
s 1
f 615//336 614//335 613//341
f 612//342 613//341 614//335
s 0
f 579//278 578//278 577//278
f 576//278 577//278 578//278
f 577//278 576//278 575//278
f 574//278 575//278 576//278
s 1
f 575//343 574//344 501//345
f 500//346 501//345 574//344
f 624//326 492//347 623//327
f 491//348 623//327 492//347
f 573//325 640//304 572//324
f 641//303 572//324 640//304
f 533//349 532//350 571//351
f 570//352 571//351 532//350
s 0
f 598//337 599//337 600//337
f 599//337 598//337 597//337
f 596//337 597//337 598//337
s 1
f 569//353 568//354 567//355
f 566//356 567//355 568//354
f 567//355 566//356 565//357
f 564//358 565//357 566//356
f 565//357 564//358 563//359
f 562//360 563//359 564//358
f 563//359 562//360 527//361
f 528//362 527//361 562//360
f 550//363 561//364 556//365
f 561//364 550//363 560//366
s 0
f 580//278 581//278 582//278
f 581//278 580//278 579//278
f 578//278 579//278 580//278
s 1
f 550//363 558//367 552//368
f 558//367 550//363 557//369
f 556//365 557//369 550//363
f 550//363 555//370 549//371
f 555//370 550//363 554//372
f 552//368 553//373 550//363
f 542//374 551//375 545//376
f 551//375 542//374 535//377
f 550//363 535//377 542//374
f 535//377 550//363 536//378
f 549//371 536//378 550//363
f 571//351 570//352 569//353
f 568//354 569//353 570//352
f 542//374 543//379 544//380
f 543//379 542//374 541//381
f 540//382 541//381 542//374
f 534//383 539//384 532//350
f 539//384 534//383 538//385
f 537//386 538//385 534//383
f 538//385 537//386 536//378
f 535//377 536//378 537//386
f 534//383 532//350 533//349
f 526//387 531//388 527//361
f 542//374 560//366 550//363
f 560//366 542//374 559//389
f 544//380 559//389 542//374
f 508//390 515//391 529//392
f 515//391 508//390 516//393
f 502//394 516//393 508//390
f 516//393 502//394 522//395
f 507//396 522//395 502//394
f 526//387 527//361 528//362
f 516//393 525//397 517//398
f 525//397 516//393 524//399
f 523//400 524//399 516//393
f 516//393 522//395 523//400
f 516//393 521//401 514//402
f 542//374 548//403 540//382
f 548//403 542//374 547//404
f 546//405 547//404 542//374
f 519//406 516//393 518//407
f 517//398 518//407 516//393
f 514//402 515//391 516//393
f 502//394 513//408 503//409
f 513//408 502//394 512//410
f 511//411 512//410 502//394
f 509//412 510//413 502//394
f 502//394 508//390 509//412
f 502//394 506//414 507//396
f 506//414 502//394 505//415
f 504//416 505//415 502//394
f 531//388 526//387 530//417
f 529//392 530//417 526//387
f 530//417 529//392 515//391
f 501//345 500//346 499//418
f 498//419 499//418 500//346
f 499//418 498//419 497//420
f 496//421 497//420 498//419
f 497//420 496//421 494//422
f 495//423 494//422 496//421
f 516//393 519//406 520//424
f 494//422 493//425 492//347
f 491//348 492//347 493//425
f 455//426 490//427 456//428
f 502//394 503//409 504//416
f 487//429 488//430 489//431
f 488//430 487//429 486//432
f 485//433 486//432 487//429
f 486//432 485//433 484//434
f 483//435 484//434 485//433
f 484//434 483//435 482//436
f 427//437 482//436 483//435
f 482//436 427//437 481//438
f 493//425 494//422 495//423
f 467//439 480//440 471//441
f 480//440 467//439 479//442
f 474//443 479//442 467//439
f 467//439 478//444 475//445
f 478//444 467//439 477//446
f 460//447 477//446 467//439
f 477//446 460//447 476//448
f 463//449 476//448 460//447
f 473//450 467//439 475//445
f 473//450 474//443 467//439
f 470//451 472//452 467//439
f 452//453 467//439 472//452
f 467//439 452//453 468//454
f 489//431 456//428 490//427
f 456//428 489//431 488//430
f 460//447 469//455 464//456
f 469//455 460//447 468//454
f 467//439 468//454 460//447
f 460//447 466//457 458//458
f 466//457 460//447 465//459
f 460//447 462//460 463//449
f 462//460 460//447 461//461
f 459//462 461//461 460//447
f 458//458 459//462 460//447
f 453//463 457//464 454//465
f 457//464 453//463 456//428
f 426//466 481//438 427//437
f 451//467 438//468 450//469
f 445//470 450//469 438//468
f 438//468 449//471 446//472
f 449//471 438//468 448//473
f 431//474 448//473 438//468
f 448//473 431//474 447//475
f 434//476 447//475 431//474
f 444//477 438//468 446//472
f 444//477 445//470 438//468
f 441//478 443//479 438//468
f 423//480 438//468 443//479
f 438//468 423//480 439//481
f 425//482 439//481 423//480
f 454//465 468//454 452//453
f 440//483 431//474 439//481
f 438//468 439//481 431//474
f 431//474 437//484 429//485
f 437//484 431//474 436//486
f 431//474 433//487 434//476
f 433//487 431//474 432//488
f 430//489 432//488 431//474
f 429//485 430//489 431//474
f 424//490 428//491 425//482
f 428//491 424//490 427//437
f 426//466 427//437 424//490
f 455//426 456//428 453//463
f 452//453 453//463 454//465
f 438//468 451//467 442//492
f 422//493 260//494 259//495
f 260//494 422//493 421//496
f 420//497 421//496 422//493
f 421//496 420//497 419//497
f 418//498 419//497 420//497
f 419//497 418//498 417//498
f 416//499 417//498 418//498
f 417//498 416//499 415//499
f 414//500 415//499 416//499
f 415//499 414//500 413//500
f 412//501 413//500 414//500
f 413//500 412//501 411//501
f 410//502 411//501 412//501
f 431//474 440//483 435//503
f 405//504 407//505 408//506
f 407//505 405//504 406//507
s 0
f 404//508 406//509 403//510
f 405//511 403//512 406//513
s 1
f 404//514 403//515 402//516
f 401//517 402//516 403//515
f 402//516 401//517 400//518
f 399//518 400//518 401//517
f 400//518 399//518 398//519
f 423//480 424//490 425//482
f 396//520 395//521 275//522
f 276//523 275//522 395//521
f 271//524 288//525 272//526
f 287//527 272//526 288//525
s 0
f 373//197 393//197 394//197
f 393//197 373//197 392//197
f 391//197 392//197 373//197
f 373//197 390//197 391//197
f 390//197 373//197 389//197
f 372//197 389//197 373//197
f 385//197 388//197 353//197
f 388//197 385//197 387//197
f 386//198 387//198 385//198
s 1
f 411//501 410//502 409//502
f 408//506 409//502 410//502
f 409//502 408//506 407//505
s 0
f 383//197 355//197 382//197
f 367//197 382//197 355//197
f 355//197 381//197 366//197
f 381//197 355//197 380//197
f 379//197 380//197 355//197
f 355//197 378//197 379//197
f 378//197 355//197 377//197
f 365//197 377//197 355//197
f 356//197 376//197 357//197
f 376//197 356//197 345//197
f 375//197 345//197 356//197
f 345//197 375//197 346//197
f 359//197 346//197 375//197
s 1
f 397//519 398//519 399//518
f 398//519 397//519 396//520
f 395//521 396//520 397//519
s 0
f 372//197 356//197 371//197
f 358//197 371//197 356//197
f 370//197 355//197 369//197
f 369//198 355//198 368//198
f 354//197 368//197 355//197
f 366//197 367//197 355//197
f 355//197 364//197 365//197
f 364//197 355//197 363//197
f 342//197 363//197 355//197
f 363//197 342//197 362//197
f 344//197 362//197 342//197
f 359//198 360//198 361//198
f 353//197 384//197 385//197
f 384//197 353//197 383//197
f 355//197 383//197 353//197
f 352//197 343//197 351//197
f 349//197 351//197 343//197
f 351//197 349//197 350//197
f 348//197 350//197 349//197
f 347//197 348//197 349//197
f 348//197 347//197 346//197
f 345//197 346//197 347//197
f 342//197 343//197 344//197
f 324//79 341//79 325//79
f 341//79 324//79 340//79
f 337//79 340//79 324//79
f 339//79 338//79 324//79
f 337//79 324//79 338//79
f 346//197 359//197 374//197
f 361//197 374//197 359//197
f 356//197 372//197 373//197
f 319//79 335//79 306//79
f 334//79 333//79 332//79
f 331//79 332//79 333//79
f 304//79 330//79 326//79
f 330//79 304//79 329//79
f 322//79 329//79 304//79
f 304//79 328//79 305//79
f 328//79 304//79 327//79
f 326//79 327//79 304//79
f 323//79 324//79 325//79
f 324//79 323//79 310//79
f 308//79 310//79 323//79
f 304//79 321//79 322//79
f 356//197 357//197 358//197
f 353//197 354//197 355//197
f 343//197 352//197 344//197
f 319//79 304//79 318//79
f 317//79 318//79 304//79
f 316//79 317//79 304//79
f 299//79 294//79 300//79
f 293//79 300//79 294//79
f 300//79 293//79 315//79
f 310//79 315//79 293//79
f 315//79 310//79 314//79
f 309//79 314//79 310//79
f 292//79 312//79 313//79
f 312//79 292//79 311//79
f 294//79 311//79 292//79
f 331//79 336//79 332//79
f 306//79 332//79 336//79
f 332//79 306//79 335//79
f 304//79 303//79 302//79
f 301//79 302//79 303//79
f 302//79 301//79 289//79
f 290//79 289//79 301//79
f 298//79 299//79 300//79
f 299//79 298//79 297//79
f 295//79 297//79 298//79
f 297//79 295//79 296//79
f 291//79 296//79 295//79
f 289//79 291//79 295//79
f 292//79 293//79 294//79
f 289//79 290//79 291//79
f 321//79 304//79 320//79
f 307//79 320//79 304//79
f 304//79 319//79 306//79
s 1
f 284//528 285//529 286//530
f 285//529 284//528 283//528
f 282//531 283//528 284//528
f 283//528 282//531 281//531
f 280//532 281//531 282//531
f 281//531 280//532 279//532
f 278//533 279//532 280//532
f 279//532 278//533 277//534
f 258//535 277//534 278//533
f 277//534 258//535 257//536
s 0
f 308//79 309//79 310//79
f 306//79 307//79 304//79
f 303//79 304//79 305//79
s 1
f 271//524 273//537 274//538
f 273//537 271//524 272//526
f 270//539 238//540 237//541
f 238//540 270//539 269//542
f 245//543 269//542 270//539
f 286//530 287//527 288//525
f 287//527 286//530 285//529
f 268//544 248//545 246//546
f 248//545 268//544 267//547
f 266//548 267//547 268//544
f 267//547 266//548 265//548
f 264//549 265//548 266//548
f 265//548 264//549 263//549
f 262//550 263//549 264//549
f 263//549 262//550 261//551
f 259//495 261//551 262//550
f 259//495 260//494 261//551
f 256//552 257//536 258//535
f 274//538 275//522 276//523
f 275//522 274//538 273//537
f 252//553 253//554 254//554
f 253//554 252//553 251//555
f 249//556 251//555 252//553
f 251//555 249//556 250//557
f 244//558 250//557 243//559
f 249//556 243//559 250//557
f 248//545 247//560 246//546
f 245//543 246//546 247//560
f 244//558 243//559 242//561
f 269//542 245//543 247//560
f 240//562 239//563 238//540
f 237//541 238//540 239//563
f 123//564 141//565 124//566
f 140//567 124//566 141//565
f 54//568 158//569 53//570
f 157//571 53//570 158//569
s 0
f 44//572 43//572 236//572
f 235//573 236//573 43//573
f 236//337 235//337 234//337
f 233//337 234//337 235//337
f 234//337 233//337 232//337
s 1
f 257//536 256//552 255//574
f 254//554 255//574 256//552
f 255//574 254//554 253//554
s 0
f 230//337 229//337 228//337
f 227//337 228//337 229//337
f 228//337 227//337 226//337
f 225//337 226//337 227//337
f 226//337 225//337 224//337
f 223//337 224//337 225//337
f 224//337 223//337 222//337
f 221//337 222//337 223//337
f 222//337 221//337 220//337
f 219//337 220//337 221//337
f 220//337 219//337 218//337
f 136//575 218//575 219//575
s 1
f 218//576 136//577 135//578
f 241//579 242//561 243//559
f 242//561 241//579 240//562
f 239//563 240//562 241//579
s 0
f 217//580 156//580 216//580
f 215//581 216//581 156//581
f 216//278 215//278 214//278
f 213//278 214//278 215//278
f 214//278 213//278 212//278
f 211//278 212//278 213//278
f 212//278 211//278 210//278
f 209//278 210//278 211//278
f 210//278 209//278 208//278
f 207//278 208//278 209//278
f 208//278 207//278 206//278
f 205//278 206//278 207//278
f 206//278 205//278 204//278
f 231//337 232//337 233//337
f 232//337 231//337 230//337
f 229//337 230//337 231//337
f 202//278 201//278 200//278
f 199//278 200//278 201//278
f 200//582 199//582 168//582
f 167//583 168//583 199//583
s 1
f 198//584 42//585 41//585
f 42//585 198//584 197//584
f 195//586 197//584 198//584
f 197//584 195//586 196//586
f 194//587 196//586 195//586
f 193//587 194//587 195//586
f 194//587 193//587 192//588
f 155//589 156//590 217//591
f 181//592 190//593 187//594
f 190//593 181//592 189//595
f 188//596 189//595 181//592
f 176//597 181//592 187//594
f 181//592 176//597 178//598
f 171//599 178//598 176//597
f 178//598 171//599 182//600
f 173//601 182//600 171//599
f 186//602 178//598 185//603
f 184//604 185//603 178//598
s 0
f 203//278 204//278 205//278
f 204//278 203//278 202//278
f 201//278 202//278 203//278
s 1
f 180//605 178//598 179//606
f 171//599 177//607 169//608
f 176//597 175//609 171//599
f 174//610 171//599 175//609
f 171//599 172//611 173//601
f 172//611 171//599 170//612
f 169//608 170//612 171//599
f 168//613 167//614 166//615
f 165//616 166//615 167//614
f 189//595 192//588 193//587
f 192//588 189//595 191//617
f 188//596 191//617 189//595
f 164//618 163//619 162//620
f 161//621 162//620 163//619
f 162//620 161//621 160//622
f 159//623 160//622 161//621
f 160//622 159//623 158//569
f 157//571 158//569 159//623
f 184//604 178//598 183//624
f 182//600 183//624 178//598
f 178//598 180//605 181//592
f 156//590 155//589 154//625
f 153//626 154//625 155//589
f 154//625 153//626 152//627
f 151//628 152//627 153//626
f 150//629 152//627 151//628
f 149//630 150//629 151//628
f 150//629 149//630 148//631
f 147//632 148//631 149//630
f 148//631 147//632 146//633
f 166//615 165//616 164//618
f 163//619 164//618 165//616
f 146//633 145//634 144//635
f 143//636 144//635 145//634
f 144//635 143//636 142//637
f 140//567 142//637 143//636
f 142//637 140//567 141//565
f 132//638 139//639 133//640
f 135//578 137//641 138//642
f 135//578 136//577 137//641
f 134//643 131//644 130//645
f 131//644 134//643 133//640
f 132//638 133//640 134//643
f 128//646 130//645 131//644
f 130//645 128//646 129//647
f 127//648 129//647 128//646
f 126//649 127//648 128//646
f 145//634 146//633 147//632
f 125//650 123//564 124//566
f 99//651 122//652 97//653
f 97//653 122//652 81//654
f 82//655 81//654 122//652
f 114//656 121//657 115//658
f 138//642 139//639 132//638
f 139//639 138//642 137//641
f 100//659 119//660 101//661
f 114//656 118//662 113//663
f 117//664 114//656 116//665
f 115//658 116//665 114//656
f 101//661 114//656 104//666
f 113//663 104//666 114//656
f 104//666 113//663 112//667
f 111//668 112//667 113//663
f 112//667 111//668 110//669
f 109//670 110//669 111//668
f 110//669 109//670 108//671
f 127//648 126//649 125//650
f 123//564 125//650 126//649
f 108//671 98//672 107//673
f 97//653 107//673 98//672
f 101//661 106//674 103//675
f 101//661 104//666 105//676
f 103//675 102//677 101//661
f 100//659 101//661 102//677
f 99//651 97//653 98//672
f 66//678 65//679 96//680
f 95//681 96//680 65//679
f 121//657 114//656 120//682
f 101//661 120//682 114//656
f 120//682 101//661 119//660
f 91//683 92//683 93//684
f 92//683 91//683 90//685
f 89//685 90//685 91//683
f 90//685 89//685 88//686
f 87//686 88//686 89//685
f 88//686 87//686 86//687
f 85//687 86//687 87//686
f 86//687 85//687 84//688
f 83//689 84//688 85//687
f 84//688 83//689 82//655
f 81//654 82//655 83//689
f 74//690 65//679 69//691
f 98//672 108//671 109//670
f 61//692 80//693 56//694
f 69//691 79//695 71//696
f 79//695 69//691 78//697
f 77//698 78//697 69//691
f 69//691 76//699 77//698
f 76//699 69//691 75//700
f 69//691 73//701 74//690
f 73//701 69//691 72//702
f 68//703 72//702 69//691
f 71//696 70//704 69//691
f 68//703 69//691 70//704
f 56//694 67//705 62//706
f 96//680 95//681 94//684
f 93//684 94//684 95//681
f 94//684 93//684 92//683
f 56//694 62//706 63//707
f 56//694 60//708 61//692
f 60//708 56//694 59//709
f 55//710 59//709 56//694
f 58//711 57//712 56//694
f 55//710 56//694 57//712
f 56//694 69//691 65//679
f 69//691 56//694 80//693
f 52//713 51//714 50//715
f 49//716 50//715 51//714
f 50//715 49//716 48//717
f 47//718 48//717 49//716
f 48//717 47//718 46//719
f 45//720 46//719 47//718
f 67//705 56//694 66//678
f 65//679 66//678 56//694
f 56//694 64//721 58//711
f 40//722 41//585 42//585
f 41//585 40//722 39//723
f 38//724 39//723 40//722
f 39//723 38//724 37//724
f 36//725 37//724 38//724
f 37//724 36//725 35//725
f 34//726 35//725 36//725
f 35//725 34//726 33//727
f 32//728 33//727 34//726
f 33//727 32//728 31//728
f 30//729 31//728 32//728
f 31//728 30//729 29//729
f 28//730 29//729 30//729
f 54//568 53//570 52//713
f 51//714 52//713 53//570
f 25//731 26//732 2//5
f 8//733 2//5 26//732
f 18//11 25//731 13//8
f 2//5 13//8 25//731
f 13//8 2//5 24//734
f 7//735 24//734 2//5
f 13//8 23//736 15//737
f 23//736 13//8 22//738
f 21//739 22//738 13//8
f 13//8 20//7 21//739
f 46//719 45//720 44//740
f 43//741 44//740 45//720
f 17//10 13//8 16//742
f 12//743 16//742 13//8
f 15//737 14//744 13//8
f 12//743 13//8 14//744
f 2//5 11//745 4//746
f 10//747 2//5 9//748
f 8//733 9//748 2//5
f 2//5 6//749 7//735
f 6//749 2//5 5//750
f 1//4 5//750 2//5
f 4//746 3//6 2//5
f 29//729 28//730 27//751
f 26//732 27//751 28//730
f 27//751 26//732 25//731
f 1014//13 1033//17 1004//15
