# Blender 4.3.2
# www.blender.org
o ee_base_link
v -0.052272 -0.041223 -0.076791
v -0.051640 -0.043277 -0.071974
v -0.052295 -0.041242 -0.059141
v -0.050796 -0.042934 -0.062177
v -0.051985 -0.036184 -0.085593
v -0.051554 -0.030154 -0.090555
v -0.050992 -0.039917 -0.081127
v -0.045347 -0.032855 -0.088054
v -0.051756 -0.038220 -0.052398
v -0.051985 -0.031106 -0.046210
v -0.045008 -0.033506 -0.047769
v -0.052311 -0.022066 -0.092636
v -0.051706 -0.026919 -0.044176
v -0.051228 -0.020275 -0.093322
v -0.051927 -0.021022 -0.042812
v -0.052267 0.000094 -0.087493
v -0.051748 0.020187 -0.093283
v -0.051672 0.020225 -0.042687
v -0.045417 -0.038931 -0.081677
v -0.045284 -0.042066 -0.074277
v -0.045423 -0.042843 -0.065545
v -0.045319 -0.039872 -0.056177
v -0.040761 -0.040339 -0.055477
v -0.045649 -0.021467 -0.092706
v -0.040684 -0.028024 -0.091454
v -0.038986 0.004668 -0.093653
v -0.028850 -0.034689 -0.087966
v -0.024261 -0.021257 -0.093775
v -0.026900 -0.041386 -0.078562
v -0.027519 -0.044017 -0.067398
v -0.027812 -0.041908 -0.058801
v -0.021548 -0.041777 -0.054702
v -0.024415 -0.037433 -0.051162
v -0.021062 -0.035623 -0.090229
v -0.015686 -0.052505 -0.066549
v -0.016116 -0.051527 -0.059623
v -0.021293 -0.045628 -0.059454
v -0.015467 -0.049652 -0.056040
v -0.015265 -0.042513 -0.093168
v -0.016299 -0.047333 -0.080407
v -0.021786 -0.043491 -0.078734
v -0.019244 -0.041164 -0.084218
v -0.021032 -0.046961 -0.067461
v -0.016279 -0.038519 -0.050290
v -0.022176 -0.037303 -0.088083
v -0.016392 -0.029877 -0.092723
v -0.019630 -0.018925 -0.096304
v -0.014727 -0.014030 -0.099590
v -0.007761 -0.013942 -0.042222
v -0.014970 -0.008263 -0.096140
v -0.021704 -0.007412 -0.093761
v -0.015145 0.003991 -0.093568
v -0.015115 -0.045115 -0.052054
v -0.014115 -0.044753 -0.086458
v -0.015888 -0.040834 -0.094073
v -0.010783 -0.035856 -0.096160
v -0.011726 -0.021995 -0.106525
v -0.008832 -0.024161 -0.108705
v -0.008276 -0.030563 -0.100858
v -0.015070 -0.020724 -0.099966
v -0.012338 -0.017668 -0.105300
v -0.008569 -0.009778 -0.103167
v -0.006783 0.003594 -0.094546
v -0.008865 0.004606 -0.042193
v -0.002685 -0.041238 -0.096379
v -0.000623 -0.033470 -0.100927
v 0.008037 -0.039377 -0.099236
v -0.003872 -0.025897 -0.109918
v -0.000700 -0.023904 -0.110451
v -0.002954 -0.017031 -0.104497
v -0.005824 -0.004955 -0.098725
v 0.001003 -0.005408 -0.099985
v -0.002023 -0.008782 -0.039079
v 0.000036 0.002362 0.017259
v -0.052166 0.000098 -0.049573
v -0.052366 0.000313 -0.044009
v -0.052064 0.029296 -0.045332
v -0.052247 0.030958 -0.089527
v -0.050815 0.029786 -0.090782
v -0.045018 0.031454 -0.089744
v -0.052161 0.040949 -0.078360
v -0.050885 0.037421 -0.084634
v -0.043923 0.038497 -0.053350
v -0.051033 0.037182 -0.051074
v -0.052136 0.038178 -0.053086
v -0.045251 0.043126 -0.075427
v -0.052127 0.043225 -0.069415
v -0.051036 0.042496 -0.060558
v -0.043724 0.019223 -0.093440
v -0.040487 0.005025 -0.042357
v -0.043325 0.023311 -0.042580
v -0.043104 0.033609 -0.047405
v -0.043206 0.037532 -0.084380
v -0.040798 0.045647 -0.074849
v -0.041568 0.042723 -0.062055
v -0.046870 0.043776 -0.065806
v -0.036832 0.013825 -0.096277
v -0.036664 0.013084 -0.039865
v -0.037103 0.019660 -0.039655
v -0.036989 0.022167 -0.096159
v -0.037096 0.026938 -0.040820
v -0.037207 0.028894 -0.094314
v -0.037032 0.034875 -0.090926
v -0.037202 0.036235 -0.046060
v -0.035761 0.045993 -0.063282
v -0.034824 0.044768 -0.058256
v -0.036868 0.040573 -0.050737
v -0.037009 0.040096 -0.086136
v -0.027912 0.041705 -0.083827
v -0.040323 0.046499 -0.067028
v -0.027360 0.042466 -0.053270
v -0.036789 0.044502 -0.078454
v -0.010000 0.012547 -0.039786
v 0.024351 0.045271 -0.076297
v -0.000793 0.004148 -0.036586
v 0.000020 0.009604 -0.033803
v -0.003622 0.011209 -0.037110
v -0.002263 0.015192 -0.038701
v 0.000004 0.009623 -0.013684
v 0.000071 0.017202 -0.002693
v 0.000042 0.014648 0.009400
v 0.000035 0.016943 0.003340
v 0.019932 -0.045701 -0.084843
v 0.021402 -0.044944 -0.052052
v 0.002552 -0.023758 -0.110396
v 0.004878 -0.030650 -0.102854
v 0.009396 -0.027264 -0.102217
v 0.012787 -0.022276 -0.042830
v 0.004828 -0.017071 -0.109217
v 0.006045 -0.019047 -0.109061
v 0.000033 -0.017245 -0.001831
v 0.009023 -0.017164 0.004405
v 0.002417 -0.009228 -0.105497
v 0.006214 -0.013933 -0.107392
v 0.006081 -0.008910 -0.100190
v 0.010564 -0.013398 -0.039205
v 0.008585 -0.008864 -0.034380
v 0.001735 -0.005419 -0.033400
v 0.000078 -0.006912 -0.017835
v 0.000149 -0.014705 -0.009344
v 0.000031 -0.010562 -0.013278
v 0.009316 -0.016200 -0.006822
v 0.004515 -0.010568 -0.014160
v 0.004014 0.002684 -0.094604
v 0.002298 -0.005571 -0.021766
v 0.002980 -0.004523 -0.026507
v 0.008630 -0.007311 -0.025294
v 0.006881 -0.008153 -0.018340
v 0.017025 -0.049067 -0.055217
v 0.016203 -0.039400 -0.100640
v 0.014831 -0.029560 -0.099601
v 0.011054 -0.017747 -0.100674
v 0.010609 -0.010813 -0.097600
v 0.019421 -0.017559 -0.092723
v 0.016874 -0.016861 -0.039337
v 0.014318 -0.006208 -0.094124
v 0.011137 -0.011239 -0.010594
v 0.014935 -0.006956 0.015725
v 0.014889 -0.007204 -0.016932
v 0.015136 0.000018 -0.017552
v 0.014794 -0.001525 -0.003721
v 0.015040 0.006265 -0.006128
v 0.021620 -0.052143 -0.067713
v 0.021149 -0.052481 -0.064981
v 0.024209 -0.050002 -0.065340
v 0.017578 -0.052193 -0.061198
v 0.024095 -0.046810 -0.061144
v 0.021654 -0.039851 -0.090807
v 0.021961 -0.046144 -0.081853
v 0.024373 -0.044363 -0.078818
v 0.024294 -0.044783 -0.055431
v 0.019225 -0.036840 -0.100220
v 0.021996 -0.036988 -0.049869
v 0.022885 -0.029182 -0.045083
v 0.024358 -0.037405 -0.053043
v 0.024443 -0.030655 -0.047475
v 0.019048 -0.025338 -0.096031
v 0.021190 -0.012134 -0.084436
v 0.022758 -0.019000 -0.041333
v 0.024256 -0.019125 -0.042930
v 0.018741 -0.008542 -0.092340
v 0.024402 -0.011930 -0.069197
v 0.016497 -0.009235 -0.030896
v 0.023575 -0.007272 -0.030094
v 0.020913 -0.001995 -0.091184
v 0.024538 -0.004573 -0.084521
v 0.018795 -0.005220 -0.024779
v 0.015909 -0.007350 -0.025155
v 0.019611 -0.000522 -0.025826
v 0.024549 -0.003261 -0.028937
v 0.024564 -0.000013 -0.089336
v 0.000883 -0.016491 0.006040
v 0.000037 -0.013641 0.010609
v 0.000027 -0.009554 0.014422
v 0.009891 -0.011586 0.012977
v 0.000673 -0.003549 0.017092
v 0.012236 -0.009953 0.011727
v 0.014900 0.000582 0.006763
v 0.014432 -0.002284 0.017387
v 0.014982 0.006952 0.015415
v 0.002271 0.006929 -0.029411
v 0.001802 0.006416 -0.021375
v 0.008904 0.008409 -0.029767
v 0.000863 0.009696 -0.014997
v 0.009240 0.013314 -0.036786
v 0.005709 0.009835 -0.014883
v 0.000807 0.014704 -0.009682
v 0.008874 0.015854 -0.007311
v 0.023937 0.026933 -0.094980
v 0.024003 0.042077 -0.083128
v 0.012359 0.046067 -0.072344
v 0.017522 0.003244 -0.093235
v 0.015227 0.007375 -0.026851
v 0.008051 0.007315 -0.021232
v 0.014822 0.007115 -0.019443
v 0.012187 0.015935 -0.096334
v 0.015780 0.009763 -0.032814
v 0.011210 0.010958 -0.010980
v 0.009243 0.017387 -0.001372
v 0.011850 0.010803 0.008781
v 0.013658 0.020148 -0.039701
v 0.024489 0.007678 -0.094199
v 0.024091 0.005944 -0.036835
v 0.023526 0.010901 -0.039060
v 0.024188 0.019482 -0.096516
v 0.018671 0.014565 -0.037828
v 0.024004 0.032513 -0.043506
v 0.023947 0.046131 -0.063583
v 0.023901 0.044882 -0.058490
v 0.024425 0.042695 -0.054034
v 0.024528 0.008830 -0.041106
v 0.024395 0.026566 -0.040797
v 0.024435 0.032711 -0.092338
v 0.024418 0.038715 -0.087330
v 0.024252 0.038667 -0.048388
v 0.000850 0.009621 0.014676
v 0.009081 0.013665 0.010920
v 0.009065 0.016515 0.005700
v 0.014208 0.005901 0.016471
v 0.011359 0.009852 0.014040
vn 0.1323 -0.9335 -0.3333
vn -0.6668 -0.7405 0.0834
vn 0.0368 -0.9988 0.0318
vn 0.0334 -0.6365 -0.7705
vn -1.0000 -0.0002 -0.0013
vn -0.1723 -0.7823 0.5987
vn -0.0282 0.0006 -0.9996
vn 0.0967 -0.0607 -0.9935
vn -0.0494 -0.9637 0.2625
vn -0.2785 -0.6805 -0.6778
vn -0.6817 -0.6948 -0.2292
vn -0.6703 -0.6007 0.4357
vn -0.6640 -0.4636 0.5866
vn -0.4991 0.0296 -0.8661
vn -0.3123 0.1510 -0.9379
vn -0.0148 -0.6554 0.7552
vn -0.9036 0.0700 -0.4226
vn 0.0675 0.2302 -0.9708
vn -0.0072 -0.6596 0.7516
vn 0.1032 0.2414 -0.9649
vn -1.0000 0.0018 0.0034
vn -0.0334 -0.0028 0.9994
vn -0.2307 0.8019 0.5511
vn -0.3766 0.0060 -0.9264
vn -0.4222 0.6794 0.6001
vn -0.0044 -0.2745 -0.9616
vn -0.0088 -0.2916 0.9565
vn 0.0358 0.7314 0.6810
vn -0.0067 0.1582 0.9874
vn 0.0325 0.4418 -0.8965
vn 0.5099 0.7627 -0.3978
vn -0.1511 -0.4667 -0.8714
vn 0.0065 -0.9283 -0.3718
vn -0.1687 0.0803 -0.9824
vn -0.2942 -0.7538 0.5876
vn -0.4634 -0.8731 0.1516
vn -0.1198 -0.9785 0.1679
vn 0.1322 -0.9875 -0.0863
vn 0.9998 0.0203 -0.0016
vn 0.8034 -0.4739 -0.3606
vn -0.0272 -0.3457 0.9379
vn 0.3585 -0.0337 -0.9329
vn 0.5017 -0.0138 -0.8649
vn 0.4094 -0.6648 0.6249
vn 0.5843 -0.8069 0.0868
vn 0.9994 0.0030 -0.0358
vn 1.0000 -0.0065 -0.0075
vn 0.8980 -0.3998 -0.1840
vn 0.0375 -0.8447 0.5339
vn 0.0028 0.7810 -0.6245
vn 0.9998 -0.0173 0.0032
vn 0.1069 -0.1932 -0.9753
vn 0.7930 0.6089 -0.0209
vn 0.5826 -0.4303 -0.6895
vn 0.0130 -0.2320 -0.9726
vn 0.0444 0.9968 -0.0660
vn 0.8959 0.1185 -0.4282
vn 0.9359 0.1951 0.2934
vn 1.0000 -0.0044 0.0087
vn 0.0321 0.6443 0.7641
vn -0.2639 -0.8993 -0.3488
vn 0.0338 -0.9200 -0.3904
vn -0.9547 -0.2975 -0.0016
vn -0.1704 -0.8941 0.4142
vn 0.0253 -0.8996 0.4361
vn -0.9476 -0.1600 -0.2767
vn -0.6622 -0.6408 -0.3885
vn 0.0700 -0.7576 -0.6489
vn -0.1711 -0.2605 -0.9502
vn -0.9751 -0.1627 0.1510
vn -0.9188 -0.1213 0.3756
vn -0.9996 -0.0032 0.0265
vn -0.9997 -0.0029 0.0262
vn -1.0000 0.0025 0.0027
vn 0.2002 -0.9345 0.2942
vn -0.1430 -0.9430 0.3007
vn 0.1456 -0.7914 0.5938
vn -0.2650 -0.3707 -0.8902
vn 0.0483 -0.2709 -0.9614
vn -0.0765 -0.7215 -0.6882
vn -0.0553 -0.5383 -0.8409
vn -0.3768 -0.8967 -0.2322
vn -0.3228 -0.8013 -0.5037
vn -0.0500 0.0103 -0.9987
vn -0.0268 -0.0294 -0.9992
vn -0.7501 -0.6596 0.0466
vn -0.6291 -0.5667 -0.5320
vn -0.6776 -0.7093 -0.1943
vn -0.4026 -0.8821 -0.2446
vn -0.4082 -0.9026 0.1369
vn -0.7248 -0.5152 -0.4574
vn -0.1674 -0.6869 0.7072
vn -0.2276 -0.3200 -0.9197
vn -0.5139 0.0958 -0.8525
vn -0.0052 -0.0018 1.0000
vn -0.0290 0.4845 0.8743
vn -0.7236 -0.5591 -0.4048
vn -0.6644 -0.4024 -0.6298
vn -0.6936 -0.2658 -0.6695
vn -0.8907 0.0026 -0.4546
vn -0.7297 0.3282 -0.5998
vn -0.0131 -0.9902 0.1391
vn -0.0025 -0.9973 0.0736
vn -0.0069 -0.9190 -0.3943
vn -0.0115 -0.9490 -0.3150
vn -0.2041 -0.2688 -0.9413
vn -0.1744 -0.2233 -0.9590
vn -0.3922 -0.7262 -0.5647
vn -0.0023 -0.4369 0.8995
vn 0.0423 0.4818 -0.8753
vn -0.2083 0.0180 -0.9779
vn -0.4171 0.7327 -0.5378
vn -0.4602 -0.0287 0.8873
vn -1.0000 -0.0010 0.0001
vn -1.0000 0.0005 0.0012
vn -0.9993 0.0088 -0.0362
vn -0.9768 0.0199 0.2133
vn -0.9936 -0.0068 -0.1127
vn -1.0000 0.0011 0.0067
vn -0.7629 0.4847 -0.4278
vn -1.0000 0.0031 0.0004
vn -1.0000 -0.0024 0.0065
vn -0.6195 0.5134 0.5938
vn -0.8685 0.4737 0.1459
vn -0.0050 0.8724 0.4888
vn -0.0164 0.0096 0.9998
vn 0.0162 0.2908 -0.9566
vn 0.0053 0.4242 0.9056
vn -0.0409 0.6264 -0.7784
vn 0.1609 0.9218 0.3526
vn -0.4685 -0.1398 -0.8723
vn -0.4521 0.3864 0.8039
vn -0.5703 0.4175 -0.7074
vn -0.4391 0.6084 -0.6611
vn -0.4344 0.6654 0.6070
vn -0.4478 0.7088 -0.5451
vn -0.3024 0.8306 -0.4677
vn -0.3748 0.8698 0.3209
vn 0.0040 0.0146 -0.9999
vn -0.0273 0.8675 -0.4967
vn 0.0054 -0.1514 -0.9885
vn -0.0087 -0.2912 0.9566
vn -0.0564 -0.2330 0.9708
vn -0.0128 0.4137 0.9103
vn 0.0049 0.8903 -0.4554
vn -0.0001 0.9079 0.4192
vn -0.5714 -0.1026 0.8142
vn -0.2692 0.4352 0.8591
vn -0.5688 -0.1683 0.8051
vn -0.7080 -0.2344 0.6662
vn -0.4761 0.4616 0.7485
vn -0.9998 0.0167 -0.0054
vn -0.0008 0.9059 -0.4236
vn 0.0016 -0.9316 -0.3635
vn 0.0028 -0.6108 0.7918
vn -0.2149 -0.5468 -0.8092
vn 0.0006 -0.5228 0.8525
vn 0.0090 0.1707 -0.9853
vn 0.2569 0.0824 -0.9629
vn 0.5125 0.2511 -0.8212
vn -0.0659 -0.9449 -0.3206
vn 0.1261 0.4564 -0.8808
vn -0.2707 -0.7545 0.5979
vn -0.2801 -0.7332 0.6196
vn -0.1233 -0.7740 -0.6211
vn 0.0456 -0.7779 -0.6268
vn -0.1883 -0.8005 -0.5691
vn 0.4275 0.4531 -0.7822
vn -0.1930 -0.8903 -0.4125
vn -0.3965 -0.8942 -0.2080
vn -0.9999 -0.0016 -0.0115
vn 0.0042 -0.8861 0.4635
vn 0.3273 -0.2603 -0.9084
vn 0.8398 0.1432 -0.5237
vn 0.8753 0.2419 -0.4187
vn -0.1370 -0.4037 0.9046
vn -0.2087 -0.4140 0.8860
vn 0.5730 0.3626 -0.7350
vn 0.5944 0.2165 -0.7745
vn -0.3700 -0.6975 0.6136
vn 0.1599 -0.8728 -0.4611
vn 0.1787 -0.8924 -0.4144
vn -0.0057 -0.9998 0.0171
vn 0.6305 -0.7761 0.0126
vn 0.5760 -0.7014 0.4199
vn 0.5295 -0.6465 0.5491
vn 0.5788 -0.6414 0.5036
vn 0.6216 -0.6660 -0.4124
vn 0.5008 -0.7398 -0.4494
vn 0.7729 -0.2014 0.6017
vn 0.0441 0.1110 -0.9928
vn 0.5751 -0.4743 0.6666
vn 0.6710 0.2627 -0.6933
vn 0.9711 0.0779 -0.2257
vn 0.9781 0.0620 -0.1986
vn 0.6987 -0.2395 0.6741
vn 0.3790 0.3468 -0.8580
vn -0.0429 -0.7423 0.6687
vn 0.1110 -0.6917 0.7136
vn 0.8261 -0.3706 -0.4244
vn 0.2185 -0.9203 0.3245
vn 0.5645 0.0849 0.8211
vn 0.8944 0.0079 0.4472
vn 0.8774 -0.0460 0.4776
vn 0.7417 -0.2355 0.6281
vn 0.9999 0.0127 0.0091
vn 0.5646 -0.5912 0.5759
vn -0.0616 -0.9929 0.1018
vn -0.0334 -0.6819 0.7307
vn 0.0448 -0.8394 0.5416
vn -0.0093 -0.4054 0.9141
vn 0.9374 -0.3482 -0.0054
vn 0.9999 -0.0059 -0.0089
vn -0.0187 -0.0303 0.9994
vn 0.0105 -0.3340 0.9425
vn 0.9594 0.0030 0.2819
vn -0.9056 -0.0777 0.4168
vn -0.9011 -0.0974 0.4225
vn -0.6807 0.6059 -0.4117
vn -0.9509 0.0415 -0.3067
vn -0.1434 0.9881 0.0547
vn -0.0190 0.6547 0.7557
vn -0.0148 0.8884 -0.4589
vn -0.9272 0.3110 -0.2088
vn -0.0049 0.7277 -0.6858
vn -0.0018 0.0141 -0.9999
vn 0.0034 0.1872 0.9823
vn -0.0342 0.9400 -0.3396
vn 0.0034 0.4155 -0.9096
vn 0.0006 0.1673 0.9859
vn 0.0051 0.6214 0.7834
vn 0.0067 0.8079 -0.5892
vn 0.0014 0.9811 -0.1933
vn -0.0028 0.9941 -0.1080
vn -0.0011 0.9715 0.2370
vn -0.0016 0.9907 0.1358
vn 0.0025 0.8978 0.4403
vn 0.0984 0.9858 0.1361
vn 0.9808 0.1950 -0.0036
vn -0.0208 0.7280 0.6852
vn 0.0937 0.8139 0.5734
vn -0.0189 0.9287 0.3703
vn 0.3389 0.6624 -0.6681
vn 0.1240 0.9223 -0.3659
vn 0.9434 0.3305 -0.0280
vn -0.0737 0.1991 -0.9772
vn 0.0549 0.3615 0.9307
vn 0.8237 0.5346 -0.1891
vn 0.0739 -0.3216 -0.9440
vn 0.8689 0.4908 0.0647
vn 0.5451 0.4259 0.7222
vn 0.3070 0.0881 0.9476
vn 1.0000 -0.0047 0.0066
vn 0.9999 0.0077 -0.0101
vn 0.9086 0.2970 0.2936
vn 0.8977 -0.0009 0.4407
vn 0.9999 0.0030 -0.0106
vn 1.0000 0.0041 0.0020
vn 1.0000 0.0034 0.0044
vn 0.9999 0.0096 -0.0035
vn 0.8826 0.4546 0.1194
vn -0.0322 0.3382 0.9405
vn 0.0361 0.9984 0.0431
vn 0.2031 0.6152 0.7618
vn 0.0273 0.1119 0.9933
vn 0.8783 0.4714 0.0802
vn 0.0149 0.8776 0.4791
vn 0.7873 0.5422 0.2936
vn 0.7713 0.6099 0.1823
vn 0.5657 0.8006 0.1976
vn -0.9992 -0.0098 -0.0382
vn -0.0575 -0.6563 0.7523
vn -0.9994 -0.0060 0.0344
vn -0.9989 0.0126 -0.0458
vn -0.9991 -0.0225 -0.0350
vn 0.1566 -0.9840 -0.0851
vn 0.1072 -0.7204 -0.6852
vn 0.2067 -0.3653 -0.9077
vn -0.0566 -0.9197 -0.3886
vn -0.0177 -0.9730 -0.2303
vn -0.0744 -0.9932 -0.0896
vn -0.0392 -0.9708 0.2368
vn -0.0372 -0.7578 0.6514
vn -0.0465 -0.2213 -0.9741
vn 0.0228 -0.8670 0.4978
vn -0.3686 -0.7212 0.5864
vn -0.0108 -0.8155 -0.5786
vn 0.0391 -0.4079 -0.9122
vn -0.0041 -0.2254 0.9743
vn -0.7244 -0.6835 0.0901
vn -0.3443 -0.7962 -0.4974
vn -0.5958 -0.6385 -0.4872
vn -0.6109 -0.7765 -0.1546
vn -0.6021 -0.7735 -0.1978
vn -0.4713 -0.8602 0.1950
vn -0.3611 -0.7339 0.5753
vn -0.5521 -0.6620 0.5069
vn -0.4935 -0.3049 0.8146
vn -0.7402 -0.2860 -0.6086
vn -0.4921 0.1447 -0.8585
vn -0.3553 -0.7823 -0.5117
vn 0.0852 -0.3569 0.9302
vn -0.2937 -0.1697 -0.9407
vn -0.2923 -0.3742 -0.8801
vn -0.6061 0.0755 -0.7918
vn -0.0012 -0.0757 0.9971
vn -0.0114 -0.0125 0.9999
vn -0.1629 -0.5143 -0.8420
vn -0.6649 -0.4021 -0.6295
vn -0.7964 -0.5223 -0.3049
vn -0.5109 0.1663 -0.8434
vn -0.6635 0.4735 -0.5793
vn -0.6448 0.3723 -0.6675
vn -0.2804 0.3154 -0.9066
vn -0.1121 0.0812 -0.9904
vn -0.3748 0.3728 -0.8488
vn 0.0058 -0.9925 -0.1219
vn -0.0006 -0.9369 -0.3496
vn -0.2359 -0.5802 -0.7796
vn -0.3013 -0.7802 -0.5483
vn -0.2116 0.0761 -0.9744
vn -0.1850 0.6082 -0.7720
vn -0.0843 0.7006 -0.7086
vn -0.1647 0.7904 -0.5900
vn -0.1108 0.5786 -0.8081
vn -0.5281 -0.0060 -0.8491
vn -0.9109 0.0044 0.4125
vn -0.5044 0.2634 -0.8223
vn -1.0000 0.0031 0.0027
vn -0.1134 0.2735 0.9551
vn -0.1677 0.6173 -0.7686
vn -0.1014 0.5942 0.7979
vn -0.0607 0.8647 -0.4986
vn -0.1726 0.9797 0.1019
vn -0.1029 0.8677 0.4862
vn -0.0185 0.0086 -0.9998
vn -0.4531 -0.0595 0.8895
vn -0.4390 0.2171 -0.8719
vn -0.1906 0.6809 -0.7071
vn 0.0154 0.6590 -0.7519
vn 0.0580 0.7750 0.6293
vn 0.0053 0.8486 -0.5290
vn -0.1970 0.9503 -0.2410
vn -0.0522 0.9957 -0.0760
vn -0.4012 0.9069 -0.1288
vn -0.4853 0.8719 -0.0654
vn -0.1101 0.9055 0.4098
vn -0.4549 -0.0589 0.8886
vn -0.3480 0.1486 0.9256
vn -0.4472 0.2231 -0.8662
vn -0.3840 0.4500 0.8062
vn -0.3332 0.7262 -0.6014
vn -0.3354 0.7889 0.5150
vn -0.4229 0.8591 0.2883
vn -0.4436 0.8285 0.3416
vn -0.0478 0.8778 0.4767
vn -0.1239 -0.5080 -0.8524
vn -0.0036 -0.0322 0.9995
vn -0.0026 0.4930 -0.8700
vn 0.0069 0.6759 -0.7369
vn 0.0026 0.4910 0.8711
vn -0.0055 0.7602 0.6496
vn -0.8252 -0.0302 0.5641
vn -0.4228 -0.3177 0.8487
vn -0.0013 0.9526 -0.3041
vn -1.0000 0.0013 0.0013
vn -1.0000 0.0008 0.0015
vn -0.1052 -0.4131 -0.9046
vn 0.0011 -0.2582 0.9661
vn -0.0000 -0.2646 0.9644
vn 0.1413 -0.7314 -0.6671
vn 0.1807 -0.6977 -0.6933
vn 0.5073 -0.5525 -0.6614
vn 0.0296 -0.3020 -0.9528
vn -0.4482 0.4968 -0.7431
vn 0.6648 -0.2990 -0.6845
vn 0.0670 -0.9942 -0.0836
vn -0.5026 0.2394 -0.8307
vn 0.5966 0.6634 -0.4517
vn 0.8186 0.4781 -0.3184
vn -0.1374 -0.3994 0.9064
vn -0.1418 -0.6837 -0.7158
vn -0.9973 -0.0631 -0.0367
vn -1.0000 -0.0014 -0.0007
vn 0.2809 0.4568 -0.8441
vn 0.5444 0.1800 -0.8193
vn -0.4192 -0.8876 0.1910
vn 0.2700 -0.9476 -0.1707
vn -0.3275 -0.9115 -0.2487
vn -0.0019 -0.9361 -0.3518
vn 0.0041 -0.8863 0.4630
vn 0.3233 -0.2602 -0.9098
vn 0.4549 0.0648 -0.8882
vn 0.8612 -0.0684 -0.5037
vn 0.5665 0.1548 -0.8094
vn 0.3106 -0.6450 -0.6982
vn -0.0111 -0.9504 0.3109
vn 0.9993 -0.0323 0.0211
vn 0.3413 -0.8682 -0.3602
vn 0.7419 -0.6235 -0.2466
vn 0.8060 -0.4709 -0.3586
vn 0.7560 -0.6071 -0.2447
vn 0.4941 -0.8246 0.2754
vn 0.4794 -0.7947 0.3724
vn 0.7451 -0.2276 0.6269
vn 0.4065 0.3181 -0.8565
vn 0.9786 0.0818 -0.1886
vn 0.9617 0.0766 -0.2632
vn 0.0023 -0.3071 0.9517
vn 0.9765 0.0604 -0.2067
vn 0.0670 -0.5761 0.8146
vn 0.4044 0.0692 -0.9120
vn 0.8319 -0.1836 -0.5236
vn 0.6429 0.5169 0.5652
vn 0.9998 0.0125 0.0175
vn 0.9993 -0.0370 0.0106
vn 0.6752 -0.4745 0.5648
vn 1.0000 -0.0012 0.0009
vn 0.9998 -0.0189 0.0004
vn 0.8886 -0.3126 0.3357
vn 0.6240 -0.3526 0.6974
vn -0.8657 -0.4807 0.1396
vn -1.0000 -0.0038 0.0014
vn -0.8829 -0.1081 0.4569
vn 0.9217 -0.3873 -0.0231
vn 0.7346 -0.6785 0.0029
vn 0.7403 -0.6723 0.0041
vn 0.6553 -0.6618 0.3642
vn 0.6197 -0.7688 0.1578
vn 0.0168 -0.5238 0.8516
vn -0.9836 -0.0153 0.1796
vn -0.9950 -0.0776 -0.0631
vn -0.9664 0.0585 -0.2503
vn -0.0154 -0.1200 -0.9927
vn -0.1498 0.8084 0.5692
vn -0.1458 0.8141 0.5621
vn -0.1212 0.9065 -0.4045
vn -0.7456 0.4811 -0.4611
vn 0.0793 0.7640 -0.6404
vn 0.0106 0.1111 -0.9938
vn -0.0787 0.4338 0.8976
vn 0.0166 0.9679 -0.2509
vn -0.0020 0.2644 -0.9644
vn 0.0066 0.9999 -0.0160
vn -0.0009 0.9712 0.2382
vn 0.0050 0.8140 0.5809
vn 0.0982 0.0602 -0.9933
vn -0.2113 0.9719 0.1034
vn 0.0201 0.9991 0.0362
vn 0.9995 -0.0247 0.0219
vn 0.9991 0.0405 -0.0138
vn 0.9995 -0.0326 -0.0035
vn 0.0574 0.9350 -0.3499
vn 0.7285 0.6850 -0.0002
vn -0.0005 0.6405 -0.7680
vn 0.5960 -0.5846 -0.5504
vn 0.5547 0.5990 0.5775
vn 0.8252 0.4938 0.2743
vn 0.8724 0.1615 0.4614
vn 0.0417 -0.1914 -0.9806
vn 0.4982 0.4017 0.7684
vn -0.0616 0.2673 0.9616
vn 1.0000 -0.0016 -0.0033
vn 0.9454 0.2171 0.2433
vn 0.9963 0.0086 -0.0859
vn 1.0000 0.0012 0.0065
vn 0.9984 -0.0565 -0.0098
vn 0.8870 0.3993 -0.2319
vn 0.9820 0.1879 0.0185
vn -0.9060 0.2284 0.3565
vn -0.0381 0.7205 0.6924
vn -0.0482 0.9341 0.3538
vn -0.0375 0.9919 0.1214
vn 1.0000 -0.0035 -0.0069
vn 0.7564 0.0931 0.6474
vn 0.0388 0.5438 0.8383
s 0
f 19//1 2//1 7//1
f 4//2 3//2 2//2
f 21//3 4//3 2//3
f 6//4 8//4 5//4
f 3//5 16//5 1//5
f 11//6 22//6 23//6
f 17//7 26//7 14//7
f 14//8 26//8 24//8
f 31//9 23//9 21//9
f 27//10 34//10 45//10
f 43//11 40//11 35//11
f 37//12 36//12 38//12
f 53//13 37//13 38//13
f 34//14 46//14 56//14
f 51//15 50//15 47//15
f 10//16 33//16 173//16
f 48//17 61//17 60//17
f 62//18 70//18 61//18
f 149//19 53//19 38//19
f 79//20 80//20 17//20
f 87//21 81//21 16//21
f 90//22 18//22 15//22
f 96//23 95//23 110//23
f 89//24 100//24 97//24
f 104//25 107//25 83//25
f 26//26 97//26 52//26
f 98//27 90//27 64//27
f 111//28 107//28 104//28
f 99//29 118//29 101//29
f 71//30 63//30 144//30
f 133//31 72//31 135//31
f 65//32 67//32 150//32
f 123//33 65//33 150//33
f 67//34 151//34 150//34
f 183//35 137//35 136//35
f 147//36 146//36 137//36
f 183//37 147//37 137//37
f 159//38 148//38 147//38
f 159//39 161//39 158//39
f 168//40 170//40 169//40
f 179//41 128//41 174//41
f 156//42 212//42 181//42
f 212//43 185//43 181//43
f 184//44 187//44 188//44
f 187//45 159//45 188//45
f 167//46 175//46 171//46
f 175//47 182//47 176//47
f 186//48 182//48 178//48
f 132//49 193//49 192//49
f 109//50 210//50 234//50
f 162//51 200//51 198//51
f 144//52 216//52 212//52
f 218//53 220//53 200//53
f 185//54 222//54 191//54
f 216//55 222//55 212//55
f 211//56 228//56 114//56
f 209//57 233//57 225//57
f 235//58 227//58 232//58
f 234//59 114//59 233//59
f 237//60 236//60 240//60
f 1//61 7//61 2//61
f 20//62 2//62 19//62
f 1//63 2//63 3//63
f 3//64 4//64 9//64
f 9//65 4//65 22//65
f 12//66 6//66 5//66
f 7//67 1//67 5//67
f 19//68 7//68 5//68
f 14//69 6//69 12//69
f 3//70 9//70 10//70
f 15//71 10//71 13//71
f 3//72 10//72 15//72
f 3//73 15//73 75//73
f 16//74 3//74 75//74
f 22//75 4//75 21//75
f 22//76 21//76 23//76
f 9//77 22//77 11//77
f 24//78 25//78 8//78
f 14//79 24//79 6//79
f 27//80 19//80 8//80
f 25//81 27//81 8//81
f 30//82 29//82 41//82
f 29//83 27//83 45//83
f 51//84 28//84 24//84
f 26//85 51//85 24//85
f 37//86 35//86 36//86
f 42//87 54//87 41//87
f 42//88 45//88 39//88
f 43//89 30//89 41//89
f 37//90 30//90 43//90
f 45//91 55//91 39//91
f 33//92 32//92 44//92
f 46//93 27//93 28//93
f 51//94 47//94 28//94
f 90//95 49//95 64//95
f 33//96 44//96 173//96
f 58//97 59//97 57//97
f 60//98 46//98 47//98
f 59//99 56//99 46//99
f 61//100 57//100 60//100
f 48//101 47//101 50//101
f 36//102 35//102 166//102
f 166//103 35//103 164//103
f 40//104 54//104 123//104
f 54//105 39//105 123//105
f 67//106 65//106 56//106
f 56//107 65//107 55//107
f 68//108 59//108 58//108
f 13//109 10//109 174//109
f 70//110 58//110 61//110
f 133//111 70//111 62//111
f 50//112 71//112 62//112
f 64//113 49//113 73//113
f 119//114 131//114 194//114
f 119//115 194//115 74//115
f 77//116 75//116 76//116
f 77//117 76//117 18//117
f 78//118 17//118 16//118
f 78//119 16//119 81//119
f 82//120 78//120 81//120
f 87//121 16//121 85//121
f 16//122 77//122 85//122
f 85//123 77//123 84//123
f 85//124 88//124 87//124
f 83//125 88//125 84//125
f 18//126 90//126 91//126
f 80//127 89//127 17//127
f 92//128 77//128 91//128
f 80//129 79//129 82//129
f 83//130 96//130 88//130
f 97//131 26//131 89//131
f 91//132 101//132 92//132
f 103//133 102//133 93//133
f 108//134 103//134 93//134
f 92//135 104//135 83//135
f 86//136 108//136 93//136
f 86//137 112//137 108//137
f 83//138 107//138 95//138
f 52//139 51//139 26//139
f 109//140 108//140 112//140
f 97//141 216//141 63//141
f 98//142 64//142 113//142
f 99//143 113//143 118//143
f 104//144 232//144 227//144
f 114//145 109//145 112//145
f 106//146 111//146 229//146
f 115//147 64//147 73//147
f 113//148 117//148 118//148
f 117//149 64//149 115//149
f 117//150 115//150 116//150
f 116//151 118//151 117//151
f 120//152 119//152 122//152
f 114//153 210//153 109//153
f 39//154 65//154 123//154
f 53//155 149//155 124//155
f 66//156 67//156 59//156
f 174//157 10//157 173//157
f 129//158 125//158 69//158
f 130//159 125//159 129//159
f 134//160 130//160 129//160
f 131//161 140//161 142//161
f 134//162 129//162 133//162
f 73//163 136//163 137//163
f 138//164 73//164 137//164
f 139//165 143//165 141//165
f 142//166 140//166 143//166
f 139//167 148//167 143//167
f 156//168 135//168 144//168
f 148//169 139//169 145//169
f 148//170 146//170 147//170
f 119//171 139//171 141//171
f 38//172 166//172 149//172
f 151//173 67//173 127//173
f 152//174 130//174 134//174
f 151//175 152//175 153//175
f 49//176 128//176 136//176
f 136//177 128//177 155//177
f 135//178 153//178 152//178
f 154//179 151//179 153//179
f 136//180 155//180 183//180
f 157//181 143//181 159//181
f 143//182 148//182 159//182
f 147//183 188//183 159//183
f 165//184 164//184 163//184
f 149//185 166//185 167//185
f 166//186 164//186 167//186
f 167//187 164//187 165//187
f 150//188 172//188 123//188
f 123//189 172//189 169//189
f 175//190 173//190 171//190
f 172//191 150//191 151//191
f 176//192 174//192 173//192
f 177//193 154//193 172//193
f 168//194 172//194 154//194
f 170//195 168//195 178//195
f 179//196 174//196 180//196
f 154//197 177//197 151//197
f 155//198 179//198 183//198
f 183//199 179//199 184//199
f 178//200 181//200 186//200
f 188//201 183//201 184//201
f 189//202 187//202 190//202
f 160//203 159//203 187//203
f 189//204 160//204 187//204
f 180//205 174//205 176//205
f 180//206 176//206 182//206
f 184//207 179//207 180//207
f 192//208 131//208 132//208
f 194//209 193//209 195//209
f 193//210 132//210 195//210
f 196//211 194//211 158//211
f 142//212 157//212 132//212
f 198//213 158//213 161//213
f 74//214 196//214 199//214
f 196//215 158//215 199//215
f 199//216 158//216 200//216
f 116//217 115//217 201//217
f 115//218 138//218 201//218
f 202//219 119//219 204//219
f 146//220 139//220 202//220
f 214//221 201//221 202//221
f 118//222 116//222 205//222
f 206//223 202//223 204//223
f 207//224 119//224 120//224
f 207//225 206//225 204//225
f 100//226 216//226 97//226
f 118//227 221//227 101//227
f 208//228 207//228 120//228
f 233//229 209//229 102//229
f 232//230 101//230 221//230
f 104//231 227//231 235//231
f 109//232 234//232 108//232
f 211//233 114//233 94//233
f 211//234 94//234 110//234
f 106//235 228//235 105//235
f 105//236 228//236 110//236
f 230//237 229//237 111//237
f 213//238 203//238 214//238
f 200//239 162//239 215//239
f 205//240 217//240 226//240
f 203//241 217//241 205//241
f 213//242 217//242 203//242
f 218//243 206//243 208//243
f 215//244 214//244 218//244
f 219//245 220//245 218//245
f 225//246 216//246 209//246
f 205//247 226//247 221//247
f 208//248 219//248 218//248
f 212//249 222//249 185//249
f 213//250 215//250 189//250
f 226//251 217//251 223//251
f 226//252 224//252 232//252
f 232//253 182//253 186//253
f 231//254 182//254 232//254
f 223//255 190//255 231//255
f 224//256 231//256 232//256
f 191//257 222//257 233//257
f 114//258 191//258 233//258
f 235//259 191//259 114//259
f 232//260 186//260 235//260
f 229//261 230//261 228//261
f 236//262 74//262 239//262
f 238//263 120//263 122//263
f 240//264 239//264 200//264
f 74//265 199//265 239//265
f 238//266 220//266 219//266
f 237//267 238//267 121//267
f 237//268 220//268 238//268
f 240//269 220//269 237//269
f 240//270 200//270 220//270
f 16//271 5//271 1//271
f 10//272 9//272 11//272
f 16//273 12//273 5//273
f 16//274 17//274 12//274
f 76//275 75//275 15//275
f 21//276 2//276 20//276
f 19//277 5//277 8//277
f 6//278 24//278 8//278
f 29//279 20//279 19//279
f 30//280 20//280 29//280
f 30//281 21//281 20//281
f 31//282 21//282 30//282
f 33//283 11//283 23//283
f 24//284 28//284 25//284
f 33//285 23//285 31//285
f 33//286 31//286 32//286
f 29//287 19//287 27//287
f 28//288 27//288 25//288
f 128//289 15//289 13//289
f 37//290 43//290 35//290
f 42//291 41//291 29//291
f 40//292 41//292 54//292
f 42//293 39//293 54//293
f 43//294 41//294 40//294
f 31//295 30//295 37//295
f 32//296 31//296 37//296
f 32//297 37//297 53//297
f 44//298 32//298 53//298
f 34//299 55//299 45//299
f 56//300 55//300 34//300
f 42//301 29//301 45//301
f 10//302 11//302 33//302
f 46//303 34//303 27//303
f 28//304 47//304 46//304
f 48//305 60//305 47//305
f 49//306 15//306 128//306
f 90//307 15//307 49//307
f 39//308 55//308 65//308
f 59//309 46//309 60//309
f 60//310 57//310 59//310
f 61//311 58//311 57//311
f 48//312 62//312 61//312
f 50//313 62//313 48//313
f 63//314 50//314 51//314
f 52//315 63//315 51//315
f 63//316 71//316 50//316
f 164//317 35//317 163//317
f 123//318 35//318 40//318
f 67//319 56//319 59//319
f 66//320 59//320 68//320
f 58//321 69//321 68//321
f 58//322 70//322 69//322
f 71//323 72//323 62//323
f 72//324 133//324 62//324
f 71//325 144//325 72//325
f 12//326 17//326 14//326
f 15//327 18//327 76//327
f 79//328 17//328 78//328
f 16//329 75//329 77//329
f 91//330 77//330 18//330
f 78//331 82//331 79//331
f 77//332 92//332 84//332
f 86//333 82//333 81//333
f 96//334 87//334 88//334
f 85//335 84//335 88//335
f 89//336 26//336 17//336
f 99//337 91//337 90//337
f 80//338 102//338 89//338
f 80//339 93//339 102//339
f 82//340 93//340 80//340
f 84//341 92//341 83//341
f 86//342 93//342 82//342
f 87//343 86//343 81//343
f 96//344 86//344 87//344
f 110//345 86//345 96//345
f 110//346 94//346 86//346
f 83//347 95//347 96//347
f 98//348 99//348 90//348
f 101//349 91//349 99//349
f 89//350 102//350 100//350
f 104//351 92//351 101//351
f 112//352 86//352 94//352
f 95//353 105//353 110//353
f 106//354 105//354 95//354
f 95//355 107//355 106//355
f 107//356 111//356 106//356
f 97//357 63//357 52//357
f 99//358 98//358 113//358
f 103//359 233//359 102//359
f 108//360 233//360 103//360
f 104//361 101//361 232//361
f 235//362 111//362 104//362
f 115//363 73//363 138//363
f 117//364 113//364 64//364
f 94//365 114//365 112//365
f 121//366 119//366 74//366
f 122//367 119//367 121//367
f 126//368 67//368 66//368
f 44//369 53//369 124//369
f 173//370 44//370 124//370
f 66//371 68//371 126//371
f 68//372 125//372 126//372
f 127//373 126//373 125//373
f 69//374 125//374 68//374
f 70//375 129//375 69//375
f 127//376 125//376 130//376
f 132//377 131//377 142//377
f 133//378 129//378 70//378
f 133//379 135//379 134//379
f 134//380 135//380 152//380
f 73//381 49//381 136//381
f 141//382 143//382 140//382
f 131//383 141//383 140//383
f 131//384 119//384 141//384
f 72//385 144//385 135//385
f 156//386 153//386 135//386
f 146//387 138//387 137//387
f 139//388 146//388 145//388
f 148//389 145//389 146//389
f 163//390 35//390 123//390
f 38//391 36//391 166//391
f 126//392 127//392 67//392
f 152//393 151//393 127//393
f 130//394 152//394 127//394
f 153//395 156//395 154//395
f 143//396 157//396 142//396
f 188//397 147//397 183//397
f 161//398 159//398 160//398
f 163//399 123//399 169//399
f 165//400 163//400 169//400
f 168//401 169//401 172//401
f 170//402 165//402 169//402
f 171//403 149//403 167//403
f 124//404 149//404 171//404
f 171//405 173//405 124//405
f 151//406 177//406 172//406
f 154//407 181//407 168//407
f 181//408 178//408 168//408
f 174//409 128//409 13//409
f 178//410 182//410 170//410
f 179//411 155//411 128//411
f 156//412 181//412 154//412
f 185//413 186//413 181//413
f 189//414 190//414 223//414
f 170//415 167//415 165//415
f 175//416 167//416 170//416
f 176//417 173//417 175//417
f 170//418 182//418 175//418
f 190//419 180//419 182//419
f 190//420 184//420 180//420
f 190//421 187//421 184//421
f 193//422 131//422 192//422
f 193//423 194//423 131//423
f 196//424 74//424 194//424
f 157//425 197//425 132//425
f 159//426 197//426 157//426
f 158//427 197//427 159//427
f 197//428 195//428 132//428
f 158//429 195//429 197//429
f 158//430 194//430 195//430
f 146//431 201//431 138//431
f 201//432 146//432 202//432
f 119//433 202//433 139//433
f 144//434 63//434 216//434
f 116//435 201//435 203//435
f 203//436 205//436 116//436
f 206//437 214//437 202//437
f 207//438 204//438 119//438
f 207//439 208//439 206//439
f 100//440 209//440 216//440
f 221//441 118//441 205//441
f 219//442 208//442 120//442
f 102//443 209//443 100//443
f 228//444 211//444 110//444
f 106//445 229//445 228//445
f 235//446 230//446 111//446
f 212//447 156//447 144//447
f 201//448 214//448 203//448
f 215//449 213//449 214//449
f 160//450 162//450 161//450
f 215//451 162//451 160//451
f 162//452 198//452 161//452
f 206//453 218//453 214//453
f 218//454 200//454 215//454
f 108//455 234//455 233//455
f 191//456 186//456 185//456
f 217//457 189//457 223//457
f 213//458 189//458 217//458
f 215//459 160//459 189//459
f 216//460 225//460 222//460
f 226//461 223//461 224//461
f 232//462 221//462 226//462
f 231//463 190//463 182//463
f 224//464 223//464 231//464
f 233//465 222//465 225//465
f 235//466 186//466 191//466
f 230//467 235//467 114//467
f 210//468 114//468 234//468
f 114//469 228//469 230//469
f 121//470 74//470 236//470
f 236//471 237//471 121//471
f 121//472 238//472 122//472
f 238//473 219//473 120//473
f 198//474 200//474 158//474
f 200//475 239//475 199//475
f 240//476 236//476 239//476
