# Blender 4.3.2
# www.blender.org
o finger_inner
v -0.026750 -0.016843 -0.101696
v -0.025969 -0.017414 -0.095410
v -0.024800 -0.017975 -0.100188
v -0.026785 -0.016855 -0.090288
v -0.025535 -0.017805 -0.091139
v -0.027411 -0.012471 -0.100785
v -0.025688 -0.010358 -0.101080
v -0.027228 -0.011710 -0.091004
v -0.025345 -0.010295 -0.090288
v -0.026159 -0.006515 -0.013283
v -0.026334 -0.012726 -0.008354
v -0.026330 -0.004346 -0.004743
v -0.026280 -0.015174 -0.002889
v -0.024790 -0.000515 -0.060038
v -0.026337 -0.000087 -0.055633
v -0.025340 -0.002671 -0.052920
v -0.026236 -0.007168 -0.046826
v -0.025692 -0.006113 -0.042586
v -0.026160 -0.008028 -0.030793
v -0.025975 -0.006031 -0.036132
v -0.026356 -0.002138 -0.021806
v -0.024717 -0.005349 -0.022694
v -0.022605 -0.006895 -0.023898
v -0.009613 -0.015827 -0.089868
v -0.019873 -0.018969 -0.002786
v -0.012844 -0.011012 -0.101745
v -0.013592 -0.009519 -0.099530
v -0.018717 -0.009900 -0.090198
v -0.020102 -0.010122 -0.016571
v -0.014255 -0.009241 -0.017512
v -0.019942 -0.014883 -0.011539
v -0.021123 -0.001360 -0.062947
v -0.001556 -0.004420 -0.050077
v -0.013726 -0.007322 -0.026954
v -0.007559 -0.015459 -0.003628
v -0.005733 -0.008338 -0.101293
v -0.013245 -0.008024 -0.088593
v -0.007233 -0.007838 -0.086305
v -0.002640 -0.008092 -0.030656
v -0.015041 -0.016679 -0.009100
v -0.007528 -0.011423 -0.010907
v -0.009622 -0.006110 -0.096138
v -0.011346 -0.005421 -0.088851
v -0.005662 0.001489 -0.091898
v -0.008694 -0.004850 -0.084308
v -0.008149 -0.000234 -0.086593
v -0.009482 -0.000109 -0.070806
v -0.014510 -0.000262 -0.065877
v -0.003255 -0.007313 -0.046711
v -0.007903 -0.006478 -0.018354
v -0.006810 -0.005667 -0.023878
v -0.007021 -0.002640 -0.078293
v -0.006495 -0.001651 -0.068156
v -0.002942 -0.006181 -0.042921
v -0.003313 -0.006151 -0.035847
v -0.003036 0.003391 -0.029966
v -0.004220 -0.006606 -0.028024
v -0.026260 -0.014273 0.005297
v -0.025898 -0.011072 0.008968
v -0.026329 -0.008099 0.013044
v -0.026367 -0.000667 0.003455
v -0.026401 0.004923 0.014702
v -0.019527 -0.017721 0.006716
v -0.026008 -0.003284 0.015208
v -0.019831 -0.015008 0.011117
v -0.019804 -0.011747 0.014652
v -0.011187 -0.012962 0.014922
v -0.019948 -0.004353 0.018435
v -0.013679 -0.003203 0.018547
v -0.013094 -0.019237 0.002959
v -0.008325 -0.018972 0.004147
v -0.007912 -0.016861 0.009796
v -0.008223 -0.007961 0.018233
v -0.007792 -0.004311 0.016641
v -0.007564 0.006877 0.014671
v -0.026345 0.014672 -0.055759
v -0.026263 0.006713 -0.005526
v -0.026196 0.017481 -0.049342
v -0.026243 0.016568 -0.014778
v -0.026245 0.015360 0.002351
v -0.026159 0.021162 -0.044152
v -0.026251 0.021324 -0.022386
v -0.020234 0.017761 -0.006496
v -0.024278 0.013872 -0.060623
v -0.015687 0.010563 -0.065298
v -0.021187 0.012510 -0.063013
v 0.003015 0.014992 -0.054930
v -0.015138 0.017207 -0.014232
v -0.014554 0.017274 -0.007845
v -0.019886 0.018778 0.002811
v -0.010258 0.008767 -0.069746
v -0.013321 0.020854 -0.021409
v -0.014774 0.018866 0.003485
v -0.005974 0.004058 -0.088244
v -0.007127 0.008022 -0.078357
v -0.005195 0.009699 -0.077750
v -0.000301 0.015819 -0.051396
v -0.002977 0.012837 -0.027218
v -0.007098 0.010252 -0.021517
v -0.007853 0.012680 -0.066246
v -0.002649 0.013058 -0.044209
v -0.006308 0.017327 -0.018305
v -0.007735 0.014435 -0.010585
v -0.007820 0.016055 -0.000619
v -0.002112 0.018199 -0.047907
v -0.002761 0.021104 -0.044430
v -0.002568 0.021129 -0.021799
v -0.019988 0.008791 0.016671
v -0.025893 0.009129 0.010954
v -0.026201 0.012907 0.008207
v -0.020055 0.015984 0.010407
v -0.019781 0.003792 0.018562
v -0.014684 0.007414 0.017269
v -0.007664 0.014021 0.007923
v -0.015106 0.013153 0.013634
v 0.025734 -0.017046 -0.101571
v 0.025656 -0.009196 -0.101637
v 0.025545 -0.010560 -0.088295
v 0.004506 -0.001832 -0.055946
v 0.008994 0.000127 -0.057760
v 0.000267 -0.002531 -0.051980
v 0.026863 -0.017942 -0.100021
v 0.025332 -0.017781 -0.090751
v 0.025412 -0.002894 -0.096608
v 0.025828 -0.005167 -0.083170
v 0.024447 -0.001661 -0.064904
v 0.012287 -0.001431 -0.059709
v 0.024936 0.000054 -0.063930
v 0.026318 -0.017491 -0.096093
v 0.027293 -0.016767 -0.092011
v 0.027302 -0.008853 -0.099544
v 0.027355 -0.007324 -0.088423
v 0.027336 0.002347 -0.088012
v 0.027326 -0.002239 -0.080195
v 0.025973 -0.002716 -0.077569
v 0.027296 -0.000481 -0.068926
v 0.009264 0.014166 -0.058451
v 0.014311 0.012705 -0.060150
v 0.019058 0.013051 -0.063947
v 0.024504 0.012457 -0.067057
v 0.025526 0.004549 -0.087751
v 0.025313 0.009777 -0.077607
v 0.027244 0.008267 -0.077104
v 0.024374 0.010849 -0.063749
v 0.027177 0.010475 -0.069024
vn -0.9997 0.0103 -0.0226
vn -0.4544 -0.8146 -0.3604
vn -0.9995 0.0124 -0.0299
vn -0.1213 -0.8998 -0.4191
vn -0.0462 0.1020 -0.9937
vn -0.0248 0.0055 0.9997
vn -0.0594 0.9982 -0.0040
vn -0.0021 -0.8044 -0.5940
vn -0.0038 -0.9813 0.1926
vn -0.2487 0.7621 -0.5979
vn -0.8352 0.3200 0.4472
vn -0.2391 -0.9319 -0.2729
vn -0.0190 -0.9998 0.0024
vn -0.4875 0.6052 -0.6293
vn 0.6982 -0.7148 -0.0407
vn 0.9992 0.0356 -0.0191
vn 0.0585 -0.9280 0.3680
vn -1.0000 -0.0074 0.0033
vn -0.5084 -0.8558 0.0955
vn -0.9960 -0.0726 -0.0523
vn -0.9753 -0.0332 0.2185
vn -0.1524 -0.9792 0.1341
vn -0.5735 -0.6001 0.5577
vn -0.1238 -0.7290 0.6733
vn -0.0919 -0.4550 0.8858
vn 0.9915 -0.0694 0.1098
vn -0.9192 0.0168 -0.3934
vn -1.0000 0.0072 0.0055
vn -0.4057 0.0047 -0.9140
vn -0.2193 0.4162 -0.8824
vn -0.0061 0.9863 -0.1648
vn -0.0027 0.9941 -0.1085
vn -0.7003 0.0241 -0.7135
vn 0.0522 0.9891 -0.1380
vn -0.9511 -0.0113 -0.3088
vn 0.9935 -0.0655 -0.0934
vn 0.0019 0.9794 -0.2020
vn -0.0151 -0.0153 0.9998
vn -0.5149 0.7893 0.3344
vn 0.1543 0.1325 0.9791
vn 0.0036 -0.0169 -0.9999
vn 0.0059 -0.3221 0.9467
vn -0.0044 -0.9952 0.0973
vn -0.0153 -0.9981 0.0601
vn 0.4794 -0.8766 0.0409
vn 1.0000 -0.0021 -0.0010
vn 0.3599 0.0389 0.9322
vn -0.0014 0.9745 -0.2245
vn 0.3993 0.7220 0.5651
vn 0.3254 0.8537 0.4067
vn 1.0000 0.0018 0.0023
vn 1.0000 0.0063 0.0050
vn 0.9999 0.0108 0.0053
vn -0.4915 -0.8707 -0.0181
vn -0.6097 -0.7926 -0.0106
vn -0.9796 -0.1704 0.1062
vn -0.7768 0.6288 -0.0343
vn -0.9963 -0.0823 0.0251
vn -0.4130 0.0907 0.9062
vn -0.6042 0.7967 0.0145
vn -1.0000 -0.0032 0.0085
vn -0.3095 -0.7428 -0.5937
vn 0.8070 -0.5890 0.0430
vn -0.8949 -0.4050 -0.1873
vn -0.0154 0.0320 0.9994
vn 0.0684 -0.9042 -0.4216
vn -0.5148 -0.5240 -0.6785
vn -0.6274 -0.5755 -0.5245
vn -0.0073 -0.9702 0.2423
vn 0.0014 -0.9582 0.2860
vn 0.0071 -0.9873 0.1586
vn -0.5681 -0.8070 -0.1613
vn 0.1489 -0.9066 -0.3949
vn 0.2739 -0.7948 -0.5415
vn -0.3737 0.3575 0.8559
vn -0.5040 0.8288 -0.2430
vn -0.4830 0.8536 -0.1949
vn -0.7867 0.4713 -0.3988
vn -0.7370 0.5733 0.3580
vn -0.0054 -1.0000 0.0039
vn -0.0006 -0.9368 -0.3500
vn -0.1170 -0.9719 -0.2040
vn 0.0002 -0.9932 0.1166
vn 0.0009 -0.9985 -0.0541
vn 0.4445 -0.7842 -0.4330
vn -0.6791 -0.6075 0.4121
vn 0.8901 -0.4517 0.0612
vn -0.8998 -0.4339 -0.0454
vn 0.8402 -0.0607 0.5388
vn 0.8570 -0.0013 0.5154
vn 0.9440 -0.2973 0.1430
vn -0.5895 -0.5792 0.5631
vn -0.0239 -0.9359 0.3514
vn -0.0287 -0.8517 0.5232
vn 0.3160 -0.6469 0.6940
vn -0.1359 -0.4898 0.8612
vn 0.3470 0.3402 0.8740
vn 0.9995 -0.0196 0.0243
vn 0.9997 -0.0177 0.0149
vn -1.0000 0.0046 0.0032
vn -1.0000 0.0055 -0.0070
vn -0.9997 -0.0003 0.0233
vn -0.9999 0.0030 0.0139
vn -1.0000 0.0021 0.0001
vn -1.0000 0.0044 -0.0043
vn -0.2830 0.9567 0.0675
vn -0.6228 -0.0096 -0.7823
vn -0.1649 0.7499 -0.6407
vn -0.0049 0.8157 -0.5784
vn -0.0093 0.8479 0.5300
vn -0.0048 0.8749 0.4844
vn 0.0813 0.9965 -0.0178
vn -0.0041 0.9728 -0.2315
vn 0.4080 0.9017 -0.1430
vn -0.0034 0.9161 -0.4009
vn 0.2121 0.8485 0.4848
vn 0.2084 0.9776 -0.0293
vn -0.9929 0.1192 0.0038
vn -0.8992 0.3597 -0.2490
vn 0.9997 -0.0140 0.0177
vn -0.6680 0.6803 -0.3017
vn 0.9169 0.1655 0.3631
vn 0.9482 0.0193 0.3171
vn 0.9997 -0.0118 0.0192
vn 0.9792 -0.1637 0.1197
vn 0.0152 0.7687 -0.6394
vn 0.9979 -0.0613 0.0185
vn 0.8047 -0.3521 0.4781
vn -0.4706 -0.0041 0.8824
vn -0.1159 0.6517 0.7496
vn -0.4689 0.8323 0.2958
vn 0.3308 0.1571 0.9305
vn 0.3017 0.6569 0.6910
vn 0.1719 0.8560 0.4875
vn 1.0000 0.0080 -0.0036
vn 0.9978 0.0669 -0.0023
vn 0.0012 -0.3947 0.9188
vn -0.0109 -0.9159 0.4012
vn 0.0309 -0.9986 -0.0426
vn 0.4356 -0.1816 0.8816
vn 0.0022 -0.8652 -0.5015
vn -0.0000 -0.9934 0.1143
vn -0.0121 0.6911 -0.7227
vn -0.0132 -0.6885 0.7251
vn 0.0023 -0.0083 -1.0000
vn 0.3233 -0.5353 0.7803
vn 0.7857 0.0027 -0.6186
vn 0.9997 0.0030 -0.0253
vn 0.8026 -0.4325 0.4108
vn 0.6818 0.0163 0.7314
vn 0.0108 0.9776 -0.2102
vn 0.4898 -0.0092 0.8718
vn -0.0000 0.8808 -0.4735
vn 0.3293 0.0400 0.9434
vn -0.0037 0.8178 -0.5755
vn -0.0316 0.9682 -0.2483
vn 0.3213 0.8184 0.4764
vn 0.7089 0.6224 -0.3318
vn 1.0000 0.0073 0.0016
vn 0.9047 0.0136 0.4258
vn 0.8835 0.0382 0.4669
vn 0.4986 0.8485 -0.1773
vn -0.3349 0.1434 -0.9313
vn -0.9183 -0.3817 -0.1046
vn -0.8032 -0.5501 -0.2287
vn -0.9542 -0.2940 0.0546
vn -0.8097 -0.4987 0.3093
vn -0.4143 -0.8395 0.3516
vn -0.9984 -0.0561 -0.0057
vn -0.4689 -0.8017 -0.3706
vn -0.0695 0.9976 0.0025
vn -0.0012 -0.7264 -0.6872
vn -0.4288 -0.8549 -0.2921
vn -0.3142 -0.4022 -0.8600
vn -0.0028 -0.9999 0.0127
vn -0.0005 -0.9366 -0.3505
vn -0.6484 -0.7371 -0.1907
vn 0.1561 -0.9608 -0.2290
vn 0.3289 -0.9116 -0.2465
vn 0.0136 0.8312 -0.5559
vn -0.1944 -0.2457 0.9497
vn -0.3311 -0.3003 0.8946
vn 0.0526 -0.7505 -0.6587
vn 0.3568 -0.7161 -0.5999
vn -0.2414 0.8112 -0.5326
vn -0.7990 0.5509 -0.2410
vn -0.2617 -0.6215 0.7384
vn -0.8673 0.4840 0.1159
vn 0.0154 -0.9923 -0.1232
vn 0.0210 -0.7634 -0.6455
vn -0.0168 -0.9083 -0.4180
vn 0.3750 -0.9123 -0.1644
vn 0.2687 -0.9592 -0.0877
vn -0.0026 -0.9959 -0.0909
vn -0.5311 -0.8402 0.1095
vn 0.8483 0.0024 0.5295
vn -1.0000 -0.0050 -0.0023
vn -0.9956 0.0049 0.0940
vn -0.5163 -0.7170 0.4683
vn -1.0000 -0.0055 -0.0003
vn -0.4737 -0.8708 0.1316
vn -0.4843 -0.4059 0.7750
vn -0.4814 -0.7605 0.4357
vn -0.4050 -0.3523 0.8437
vn -0.0297 -0.9436 0.3299
vn -0.0895 -0.8194 0.5662
vn -0.0048 -0.0712 0.9974
vn 0.9790 -0.2036 0.0045
vn -0.9436 -0.0033 -0.3311
vn -1.0000 0.0062 0.0023
vn -1.0000 0.0011 -0.0050
vn -1.0000 0.0092 0.0007
vn -0.6135 -0.0066 -0.7896
vn -0.3855 -0.0062 -0.9227
vn -0.0731 0.8965 0.4370
vn -0.0520 0.9931 -0.1054
vn -0.4677 0.8804 -0.0787
vn -0.9402 -0.0417 -0.3382
vn -0.6390 -0.0284 -0.7687
vn -0.2730 0.7291 -0.6277
vn 0.0024 1.0000 -0.0074
vn 0.1591 0.9145 0.3719
vn 0.3066 0.9434 -0.1266
vn -0.5417 0.7565 -0.3664
vn -0.9626 -0.0079 0.2707
vn 0.9112 0.0338 0.4106
vn -0.5590 0.7621 -0.3266
vn 0.9415 0.0082 0.3368
vn 0.8330 -0.1594 0.5298
vn 0.9984 0.0073 0.0554
vn 0.0541 0.8378 -0.5433
vn 0.9855 0.0183 0.1685
vn 0.9999 0.0137 -0.0085
vn 0.0082 1.0000 -0.0012
vn 0.0097 0.6714 0.7410
vn 0.8322 -0.3036 0.4639
vn -0.9957 0.0814 -0.0435
vn -1.0000 0.0072 -0.0056
vn -0.9999 0.0084 0.0110
vn -0.9961 -0.0182 0.0867
vn -0.3170 0.0433 0.9474
vn -0.6588 0.2422 0.7122
vn -0.0137 0.3532 0.9354
vn -0.5413 0.5948 0.5943
vn -0.4992 0.4826 0.7197
vn -0.5712 0.5361 0.6216
vn 0.0445 0.5369 0.8424
vn -0.0613 0.9372 0.3434
vn 0.3487 0.1445 0.9260
vn 0.2701 0.8352 0.4790
vn 0.4935 0.4910 0.7179
vn 0.4651 0.8631 0.1969
vn 1.0000 0.0016 0.0051
vn 0.9999 0.0066 -0.0078
vn -0.0017 -0.8009 -0.5988
vn -0.0053 -0.6714 0.7411
vn -0.0058 0.1815 -0.9834
vn 0.0210 -0.4124 0.9108
vn 0.0162 -0.8390 0.5439
vn 0.6725 0.0906 0.7345
vn 0.0085 0.6239 -0.7815
vn 0.0174 -0.9962 0.0850
vn 0.1610 -0.9777 0.1348
vn 0.8063 -0.0080 -0.5914
vn 0.9979 -0.0458 -0.0469
vn 0.6154 -0.2700 0.7405
vn 0.5781 -0.2931 0.7615
vn 0.6427 0.4929 -0.5866
vn 0.7605 0.4647 -0.4535
vn 0.5232 -0.7242 0.4493
vn 0.7273 -0.6355 0.2593
vn 0.5453 -0.8280 0.1306
vn 0.5347 -0.8344 0.1339
vn 0.7823 -0.4611 0.4188
vn 0.0273 0.9692 -0.2448
vn 0.7294 0.0008 0.6841
vn 0.0104 0.7655 -0.6434
vn 0.3327 -0.3775 0.8642
vn 0.3609 0.0032 0.9326
vn -0.0067 0.8888 -0.4583
vn 0.3334 0.8427 0.4227
vn 0.3421 0.0338 0.9391
vn 0.6391 0.5848 -0.4996
vn 0.6323 0.6940 -0.3444
vn 0.6352 0.7463 -0.1987
vn 0.7070 0.6247 0.3315
s 0
f 10//1 11//1 12//1
f 11//2 31//2 13//2
f 19//3 21//3 20//3
f 31//4 40//4 25//4
f 7//5 26//5 1//5
f 24//6 9//6 4//6
f 9//7 28//7 7//7
f 49//8 17//8 16//8
f 34//9 19//9 39//9
f 27//10 36//10 26//10
f 43//11 45//11 46//11
f 53//12 48//12 47//12
f 119//13 32//13 53//13
f 42//14 44//14 36//14
f 121//15 54//15 33//15
f 54//16 56//16 39//16
f 51//17 34//17 39//17
f 61//18 13//18 58//18
f 25//19 58//19 13//19
f 61//20 59//20 60//20
f 64//21 62//21 60//21
f 70//22 63//22 25//22
f 66//23 58//23 65//23
f 67//24 66//24 65//24
f 67//25 68//25 66//25
f 72//26 74//26 73//26
f 76//27 84//27 14//27
f 79//28 82//28 77//28
f 85//29 48//29 32//29
f 86//30 100//30 85//30
f 84//31 76//31 87//31
f 90//32 93//32 83//32
f 48//33 91//33 47//33
f 83//34 93//34 89//34
f 47//35 95//35 52//35
f 99//36 41//36 50//36
f 84//37 87//37 100//37
f 112//38 68//38 69//38
f 110//39 111//39 80//39
f 113//40 112//40 69//40
f 26//41 117//41 1//41
f 118//42 24//42 123//42
f 53//43 52//43 135//43
f 127//44 53//44 135//44
f 130//45 123//45 129//45
f 131//46 133//46 130//46
f 137//47 119//47 120//47
f 96//48 137//48 142//48
f 137//49 138//49 139//49
f 137//50 139//50 140//50
f 132//51 133//51 134//51
f 133//52 143//52 134//52
f 143//53 145//53 136//53
f 2//54 1//54 3//54
f 4//55 2//55 5//55
f 1//56 2//56 6//56
f 7//57 6//57 8//57
f 6//58 4//58 8//58
f 8//59 4//59 9//59
f 8//60 9//60 7//60
f 11//61 13//61 12//61
f 15//62 16//62 17//62
f 17//63 18//63 20//63
f 22//64 10//64 21//64
f 9//65 24//65 28//65
f 29//66 23//66 30//66
f 31//67 11//67 10//67
f 31//68 10//68 29//68
f 18//69 17//69 49//69
f 54//70 18//70 49//70
f 23//71 19//71 34//71
f 10//72 23//72 29//72
f 70//73 35//73 71//73
f 30//74 50//74 41//74
f 28//75 37//75 43//75
f 28//76 42//76 27//76
f 42//77 28//77 43//77
f 44//78 43//78 94//78
f 45//79 43//79 37//79
f 20//80 54//80 55//80
f 39//81 20//81 55//81
f 30//82 23//82 34//82
f 2//83 3//83 122//83
f 5//84 129//84 123//84
f 40//85 41//85 35//85
f 45//86 38//86 52//86
f 33//87 54//87 49//87
f 39//88 55//88 54//88
f 51//89 39//89 57//89
f 56//90 57//90 39//90
f 56//91 50//91 51//91
f 59//92 58//92 66//92
f 63//93 71//93 72//93
f 67//94 65//94 63//94
f 73//95 67//95 72//95
f 68//96 67//96 73//96
f 74//97 69//97 73//97
f 75//98 72//98 35//98
f 75//99 74//99 72//99
f 82//100 21//100 77//100
f 77//101 12//101 61//101
f 76//102 15//102 78//102
f 15//103 17//103 78//103
f 80//104 79//104 77//104
f 81//105 21//105 82//105
f 83//106 79//106 80//106
f 84//107 32//107 14//107
f 84//108 100//108 86//108
f 106//109 78//109 81//109
f 79//110 92//110 82//110
f 92//111 107//111 82//111
f 83//112 89//112 88//112
f 97//113 87//113 76//113
f 104//114 103//114 88//114
f 105//115 76//115 78//115
f 102//116 92//116 88//116
f 104//117 88//117 89//117
f 95//118 46//118 45//118
f 94//119 46//119 95//119
f 56//120 54//120 101//120
f 100//121 95//121 91//121
f 105//122 101//122 97//122
f 101//123 121//123 97//123
f 98//124 56//124 101//124
f 102//125 103//125 99//125
f 105//126 78//126 106//126
f 101//127 107//127 98//127
f 102//128 98//128 107//128
f 64//129 68//129 112//129
f 115//130 111//130 108//130
f 111//131 90//131 80//131
f 75//132 69//132 74//132
f 75//133 114//133 113//133
f 93//134 111//134 115//134
f 114//135 41//135 103//135
f 104//136 114//136 103//136
f 24//137 4//137 123//137
f 135//138 52//138 125//138
f 119//139 53//139 127//139
f 120//140 119//140 127//140
f 3//141 116//141 122//141
f 2//142 122//142 129//142
f 44//143 124//143 36//143
f 38//144 118//144 125//144
f 117//145 116//145 1//145
f 127//146 126//146 128//146
f 131//147 116//147 117//147
f 133//148 132//148 130//148
f 132//149 125//149 118//149
f 121//150 119//150 87//150
f 137//151 100//151 87//151
f 137//152 87//152 119//152
f 142//153 94//153 96//153
f 138//154 137//154 120//154
f 141//155 44//155 94//155
f 140//156 142//156 137//156
f 138//157 144//157 139//157
f 141//158 143//158 133//158
f 143//159 136//159 134//159
f 128//160 136//160 145//160
f 144//161 128//161 145//161
f 145//162 142//162 140//162
f 6//163 7//163 1//163
f 4//164 6//164 2//164
f 15//165 14//165 16//165
f 21//166 17//166 20//166
f 21//167 19//167 22//167
f 22//168 19//168 23//168
f 12//169 21//169 10//169
f 25//170 13//170 31//170
f 28//171 27//171 7//171
f 31//172 29//172 30//172
f 16//173 14//173 32//173
f 53//174 32//174 48//174
f 20//175 18//175 54//175
f 39//176 19//176 20//176
f 10//177 22//177 23//177
f 40//178 70//178 25//178
f 70//179 40//179 35//179
f 27//180 26//180 7//180
f 37//181 28//181 24//181
f 38//182 37//182 24//182
f 40//183 31//183 30//183
f 41//184 40//184 30//184
f 27//185 42//185 36//185
f 44//186 42//186 43//186
f 45//187 37//187 38//187
f 94//188 43//188 46//188
f 16//189 32//189 119//189
f 49//190 16//190 33//190
f 33//191 16//191 119//191
f 50//192 30//192 34//192
f 50//193 34//193 51//193
f 5//194 2//194 129//194
f 53//195 47//195 52//195
f 56//196 51//196 57//196
f 61//197 12//197 13//197
f 61//198 58//198 59//198
f 66//199 60//199 59//199
f 62//200 61//200 60//200
f 58//201 25//201 63//201
f 68//202 64//202 66//202
f 65//203 58//203 63//203
f 64//204 60//204 66//204
f 63//205 70//205 71//205
f 67//206 63//206 72//206
f 69//207 68//207 73//207
f 35//208 72//208 71//208
f 76//209 14//209 15//209
f 12//210 77//210 21//210
f 78//211 17//211 21//211
f 81//212 78//212 21//212
f 86//213 32//213 84//213
f 86//214 85//214 32//214
f 79//215 88//215 92//215
f 83//216 88//216 79//216
f 90//217 83//217 80//217
f 91//218 95//218 47//218
f 85//219 91//219 48//219
f 100//220 91//220 85//220
f 82//221 106//221 81//221
f 103//222 102//222 88//222
f 93//223 104//223 89//223
f 95//224 96//224 94//224
f 95//225 45//225 52//225
f 99//226 50//226 56//226
f 100//227 96//227 95//227
f 101//228 54//228 121//228
f 98//229 99//229 56//229
f 103//230 41//230 99//230
f 105//231 97//231 76//231
f 105//232 106//232 101//232
f 107//233 101//233 106//233
f 82//234 107//234 106//234
f 92//235 102//235 107//235
f 102//236 99//236 98//236
f 109//237 61//237 62//237
f 80//238 77//238 61//238
f 110//239 80//239 61//239
f 110//240 61//240 109//240
f 108//241 62//241 64//241
f 108//242 64//242 112//242
f 108//243 112//243 113//243
f 109//244 62//244 108//244
f 111//245 110//245 109//245
f 108//246 111//246 109//246
f 108//247 113//247 115//247
f 111//248 93//248 90//248
f 75//249 113//249 69//249
f 115//250 114//250 93//250
f 114//251 115//251 113//251
f 114//252 104//252 93//252
f 114//253 35//253 41//253
f 114//254 75//254 35//254
f 3//255 1//255 116//255
f 4//256 5//256 123//256
f 36//257 117//257 26//257
f 38//258 24//258 118//258
f 52//259 38//259 125//259
f 121//260 33//260 119//260
f 36//261 124//261 117//261
f 126//262 127//262 135//262
f 122//263 130//263 129//263
f 131//264 122//264 116//264
f 131//265 130//265 122//265
f 130//266 118//266 123//266
f 132//267 118//267 130//267
f 124//268 131//268 117//268
f 124//269 133//269 131//269
f 134//270 125//270 132//270
f 135//271 125//271 134//271
f 134//272 136//272 135//272
f 136//273 126//273 135//273
f 136//274 128//274 126//274
f 100//275 137//275 96//275
f 97//276 121//276 87//276
f 44//277 141//277 124//277
f 128//278 120//278 127//278
f 128//279 144//279 120//279
f 142//280 141//280 94//280
f 139//281 144//281 140//281
f 144//282 138//282 120//282
f 141//283 133//283 124//283
f 142//284 143//284 141//284
f 145//285 143//285 142//285
f 145//286 140//286 144//286
