# Blender 4.3.2
# www.blender.org
o finger_outter
v -0.026217 -0.017370 -0.049495
v -0.026147 -0.021170 -0.044151
v -0.025633 -0.018706 -0.018876
v -0.026131 -0.016347 -0.012626
v -0.024886 -0.014235 -0.059157
v -0.024315 0.000637 -0.060529
v -0.026356 -0.014796 -0.055577
v -0.026350 -0.015912 -0.004913
v -0.026365 -0.003050 0.004984
v -0.026424 -0.000317 -0.055201
v -0.026330 -0.000498 -0.009431
v -0.026210 -0.021245 -0.021733
v -0.019774 -0.018897 -0.001681
v -0.014826 -0.018608 0.003029
v -0.014652 -0.011225 -0.065365
v -0.022353 -0.012565 -0.062527
v -0.016196 0.000593 -0.064861
v -0.021253 0.001560 -0.062748
v -0.002733 -0.021110 -0.044443
v -0.009810 -0.017949 -0.018060
v -0.014877 -0.017558 -0.006805
v -0.013227 -0.016577 -0.013185
v -0.008033 -0.012723 -0.066063
v -0.011145 -0.009203 -0.068433
v -0.009856 -0.013555 -0.016794
v -0.010933 -0.006335 -0.018114
v -0.010839 -0.008419 -0.010241
v -0.011800 -0.011260 0.000493
v -0.011169 0.000018 -0.068530
v -0.007979 -0.007189 0.002366
v -0.007980 0.003476 -0.006707
v -0.002064 -0.017847 -0.047781
v -0.000276 -0.016026 -0.051359
v -0.002651 -0.021085 -0.021712
v -0.006512 -0.018371 -0.020007
v -0.007589 -0.007939 -0.075928
v -0.005506 -0.009391 -0.078486
v -0.002675 -0.013082 -0.045054
v -0.002951 -0.013430 -0.027035
v -0.007620 -0.011328 -0.023584
v -0.008998 0.002193 -0.087495
v -0.007219 -0.003619 -0.086505
v -0.005224 -0.002723 -0.090758
v -0.003072 0.005902 -0.042018
v -0.003100 -0.003458 -0.029911
v -0.007434 -0.003445 -0.025905
v -0.007977 -0.005372 -0.005007
v -0.025816 -0.014443 0.001339
v -0.026195 -0.011518 0.010272
v -0.026316 -0.005055 0.014602
v -0.025768 0.000532 0.014336
v -0.026347 -0.014025 0.005771
v -0.019891 -0.017590 0.007313
v -0.019664 -0.009662 0.016401
v -0.014812 -0.008352 0.016664
v -0.019748 -0.002016 0.018762
v -0.014883 -0.014550 0.012063
v -0.013137 -0.009991 0.009038
v -0.007995 -0.001900 0.007017
v -0.014957 -0.002794 0.018672
v -0.024752 0.002310 -0.054858
v -0.025217 0.004663 -0.050015
v -0.025005 0.006156 -0.042354
v -0.026093 0.007308 -0.046738
v -0.026038 0.005879 -0.036531
v -0.026090 0.007999 -0.030861
v -0.026262 0.003238 -0.026222
v -0.023831 0.006879 -0.024226
v -0.025840 0.006047 -0.016542
v -0.026757 0.010863 -0.101349
v -0.026900 0.016647 -0.101725
v -0.026519 0.010563 -0.090643
v -0.026981 0.016685 -0.090226
v -0.026315 0.013695 -0.007390
v -0.025806 0.014276 -0.000739
v -0.019564 0.018824 -0.002921
v -0.025591 0.017955 -0.100231
v -0.025517 0.017469 -0.095699
v -0.025470 0.017822 -0.091083
v -0.004238 0.008129 -0.031107
v -0.020155 0.009493 -0.017444
v -0.018602 0.010037 -0.090073
v -0.019874 0.015718 -0.010438
v -0.014956 0.015468 -0.010698
v -0.008358 0.004960 -0.095734
v -0.013918 0.007959 -0.088926
v -0.008839 0.004859 -0.084609
v -0.007040 0.006585 -0.084913
v -0.001305 0.003872 -0.050875
v -0.012658 0.007419 -0.021587
v -0.009280 0.004077 -0.024144
v -0.011046 0.001708 -0.014934
v -0.009529 0.001326 -0.010674
v -0.011001 0.008976 -0.005044
v -0.007998 0.007399 0.000860
v -0.014675 0.009679 -0.099780
v -0.010880 0.010572 -0.101514
v -0.007575 0.013638 -0.089259
v -0.014719 0.010046 -0.016682
v -0.014829 0.018117 -0.004875
v -0.012029 0.011943 0.001450
v -0.014799 0.018356 0.004008
v -0.006895 0.009436 -0.101764
v -0.007570 0.000925 -0.075219
v -0.006804 0.001646 -0.068564
v -0.006179 0.003306 -0.079591
v -0.003193 0.007226 -0.046841
v -0.003129 0.006253 -0.035521
v -0.008277 0.006706 -0.026869
v -0.002648 0.006922 -0.029693
v -0.026417 0.006983 0.000770
v -0.026331 0.006137 0.014097
v -0.019573 0.004314 0.018465
v -0.026301 0.014835 0.003318
v -0.026051 0.012421 0.009593
v -0.019738 0.010032 0.015971
v -0.019879 0.015740 0.010441
v -0.019820 0.018455 0.004287
v -0.007997 0.004843 0.005657
v -0.011227 0.003128 0.010446
v -0.014837 0.007182 0.017318
v -0.014959 0.014619 0.011992
v 0.003318 -0.014760 -0.055221
v 0.025235 -0.002752 -0.090579
v 0.004110 0.001794 -0.055921
v 0.025751 -0.012072 -0.068918
v 0.010793 -0.013916 -0.059073
v 0.021746 -0.010398 -0.062444
v 0.014614 0.000704 -0.059974
v 0.019937 -0.012735 -0.063066
v 0.025354 -0.011152 -0.065063
v 0.022960 0.001128 -0.063065
v 0.027315 -0.010498 -0.069647
v 0.025657 -0.008451 -0.080453
v 0.027411 -0.003781 -0.085494
v 0.026452 0.000959 -0.066186
v 0.025735 0.009074 -0.101618
v 0.026340 0.004752 -0.082562
v 0.000307 0.002534 -0.052136
v 0.026859 0.017935 -0.100061
v 0.025792 0.017756 -0.090872
v 0.008892 0.001445 -0.058399
v 0.025325 0.009826 -0.087827
v 0.027303 0.008125 -0.099228
v 0.027334 0.007186 -0.087902
v 0.026983 0.002218 -0.076472
v 0.025636 0.017116 -0.101541
v 0.026945 0.017347 -0.092017
vn -0.7929 -0.0257 -0.6088
vn -0.9999 -0.0102 0.0058
vn -0.9998 -0.0052 0.0208
vn -0.9997 -0.0160 0.0172
vn -0.9996 -0.0069 -0.0280
vn -0.3830 0.0154 -0.9236
vn 0.1113 -0.9336 0.3407
vn -0.0245 -0.9871 -0.1580
vn 0.9226 -0.3375 0.1867
vn 0.8270 -0.5459 -0.1344
vn -0.0008 -0.8055 -0.5925
vn 0.6922 0.4418 0.5707
vn 0.0068 -1.0000 0.0011
vn 0.6110 0.4679 0.6386
vn 0.0087 -0.9811 -0.1934
vn -0.9994 0.0048 -0.0330
vn 0.6630 0.2166 0.7166
vn 0.6521 -0.0443 0.7568
vn 1.0000 0.0014 0.0006
vn 1.0000 0.0006 0.0014
vn -0.9998 -0.0194 0.0010
vn -0.3791 -0.6926 0.6137
vn 0.1619 -0.8998 0.4052
vn 0.0405 -0.3386 0.9401
vn 1.0000 0.0009 0.0025
vn -0.7743 0.5367 -0.3352
vn -0.9994 0.0324 0.0099
vn -0.9956 0.0925 0.0166
vn -0.0095 0.9366 -0.3503
vn -0.0942 -0.9952 -0.0257
vn -0.0116 -0.0652 -0.9978
vn -0.0765 -0.0735 0.9944
vn -0.4797 0.6654 -0.5720
vn 0.0029 0.7475 -0.6643
vn -0.0574 -0.0494 0.9971
vn 0.0267 0.9235 -0.3826
vn -0.6960 -0.6626 -0.2766
vn -0.0079 1.0000 -0.0048
vn 0.8932 0.4246 0.1479
vn -0.2220 -0.6117 -0.7593
vn -0.3835 0.4748 0.7922
vn -0.3217 0.4789 0.8168
vn 0.1366 0.9903 -0.0272
vn 0.6098 0.7903 -0.0594
vn 0.9986 -0.0428 -0.0308
vn 1.0000 0.0024 0.0012
vn -0.5765 0.0543 0.8153
vn 0.0263 0.0462 0.9986
vn -0.4817 0.8113 0.3313
vn -0.5028 0.5183 0.6918
vn 0.1153 0.5796 0.8067
vn 0.0413 0.9046 0.4242
vn 0.0102 -0.9808 -0.1949
vn 0.7061 0.0075 0.7081
vn -0.0190 -0.9771 -0.2119
vn 0.1394 -0.9899 0.0264
vn 0.3558 -0.9000 0.2516
vn 0.6323 -0.7377 -0.2368
vn 0.9966 0.0574 0.0585
vn 0.6653 -0.0299 0.7460
vn -0.0041 -0.6714 -0.7411
vn 0.0023 0.9967 0.0817
vn 0.5569 -0.5793 -0.5953
vn 0.9993 0.0385 0.0005
vn 0.8494 -0.4678 0.2443
vn -0.9301 0.0052 -0.3673
vn -0.9998 0.0149 0.0157
vn -0.9913 -0.0809 0.1037
vn -0.9997 -0.0065 -0.0235
vn -0.4288 -0.9026 0.0388
vn 0.0180 -0.9714 -0.2368
vn -0.5931 0.0336 -0.8044
vn 0.0197 -0.9206 -0.3900
vn -0.1862 -0.7154 0.6734
vn -0.0014 -0.9356 0.3530
vn 0.1580 -0.9818 -0.1057
vn -0.2078 -0.5373 -0.8174
vn -0.2266 -0.6738 -0.7033
vn -0.5474 -0.7431 -0.3850
vn 0.8573 0.3338 0.3918
vn 0.9879 0.1526 0.0285
vn 0.9104 -0.4128 -0.0278
vn -0.6406 -0.0510 -0.7662
vn -0.8802 -0.0073 -0.4745
vn 0.8911 0.1087 0.4406
vn 0.9998 0.0169 -0.0075
vn 0.9287 -0.1401 -0.3433
vn 0.0028 -0.5291 0.8486
vn -0.7683 -0.5618 -0.3070
vn 0.0230 -0.9561 -0.2920
vn 0.9104 -0.1112 0.3984
vn 0.9323 -0.0141 0.3614
vn 0.9997 0.0184 0.0156
vn 0.6395 0.2032 0.7414
vn -0.9994 0.0008 0.0334
vn -0.9948 0.0987 0.0256
vn -0.5524 -0.8259 0.1129
vn -0.0779 -0.9867 0.1424
vn 0.1169 -0.5928 0.7968
vn 0.9479 -0.1968 0.2505
vn 0.7996 -0.3952 0.4522
vn 0.9726 -0.0561 0.2256
vn -0.8089 0.5441 -0.2228
vn -0.2234 0.7285 -0.6476
vn -0.9997 0.0200 -0.0167
vn -0.9995 -0.0233 0.0216
vn -0.9972 -0.0748 -0.0068
vn -0.9930 0.0972 0.0675
vn -0.6196 0.7831 -0.0535
vn -0.4594 0.8417 -0.2837
vn -0.3728 0.0720 -0.9251
vn -0.5230 0.8512 -0.0445
vn -0.0670 -0.9977 0.0097
vn -0.5943 0.8038 -0.0248
vn 0.0141 0.8999 -0.4359
vn 0.0025 0.7694 -0.6387
vn 0.0073 0.9675 0.2526
vn 0.0108 0.9987 0.0494
vn 0.0022 0.9205 -0.3908
vn 0.0372 0.9874 0.1540
vn 0.7753 0.5598 0.2926
vn 0.7510 0.3150 0.5803
vn 0.8070 0.5250 -0.2703
vn -0.1414 0.2146 0.9664
vn 0.0452 0.9237 -0.3804
vn 0.9876 0.1340 -0.0824
vn 0.8837 0.3752 -0.2797
vn -0.0347 0.9100 -0.4132
vn -0.6914 -0.5697 -0.4443
vn -0.2444 0.8822 0.4026
vn -0.8326 0.5527 0.0360
vn -0.3492 0.9351 -0.0611
vn -0.2515 -0.7469 -0.6155
vn -0.0028 0.9973 0.0730
vn -1.0000 -0.0068 -0.0036
vn -1.0000 -0.0026 0.0063
vn -0.9919 0.1000 0.0780
vn -0.4408 0.3480 0.8274
vn -0.4256 0.6243 0.6551
vn -0.0684 0.6934 0.7173
vn -0.0198 0.3991 0.9167
vn -0.4964 0.7960 0.3465
vn 0.8032 0.1181 0.5839
vn 0.1577 0.1309 0.9788
vn 0.7306 0.6076 0.3116
vn 0.0326 -0.9670 -0.2528
vn 0.7331 -0.0063 0.6801
vn 0.4612 0.0182 0.8871
vn 0.3986 -0.5110 0.7616
vn 0.2592 -0.0482 0.9646
vn 0.4253 -0.5251 0.7371
vn 0.0020 -0.8787 -0.4774
vn 0.7415 -0.6314 0.2272
vn 0.6244 -0.6693 -0.4027
vn 0.8051 -0.5478 -0.2273
vn 0.9208 -0.0476 0.3872
vn 0.9990 0.0380 0.0222
vn 0.5902 0.0213 0.8070
vn 0.0183 0.9885 0.1498
vn 0.0239 0.5258 0.8503
vn 0.0019 0.8744 -0.4852
vn 0.0077 0.9971 -0.0762
vn 0.0037 -0.6825 -0.7309
vn -0.0094 0.7191 0.6948
vn 0.0048 0.3304 0.9438
vn -0.0025 0.6041 0.7969
vn 0.0192 0.9998 -0.0099
vn 0.0034 0.0096 -0.9999
vn 0.8389 0.0155 -0.5441
vn 0.4827 0.3446 0.8051
vn 0.7256 0.2091 0.6556
vn 0.9990 0.0447 -0.0074
vn -0.9251 0.0005 -0.3798
vn -0.9999 -0.0148 -0.0029
vn -1.0000 -0.0030 -0.0047
vn -1.0000 0.0006 -0.0023
vn -0.0052 -0.8150 -0.5794
vn -0.4962 -0.8348 0.2386
vn -0.1379 -0.8423 -0.5210
vn -0.3451 -0.0050 -0.9386
vn 0.0025 -1.0000 -0.0033
vn 0.9085 0.2025 0.3656
vn 0.4705 -0.2399 0.8492
vn 0.7856 -0.1638 0.5967
vn 0.8127 -0.3931 0.4300
vn 0.9178 -0.3943 -0.0468
vn -0.9053 0.0358 -0.4234
vn -0.5903 -0.0101 -0.8072
vn 0.9832 -0.0552 0.1742
vn 0.8896 0.1148 0.4422
vn 0.7490 -0.6541 -0.1061
vn 0.9007 -0.1394 -0.4114
vn 0.9408 -0.0636 -0.3328
vn 1.0000 -0.0075 -0.0036
vn 0.9986 0.0504 0.0162
vn 0.1019 -0.9224 0.3726
vn -0.0201 -0.9864 -0.1630
vn 0.9788 0.0085 0.2046
vn 0.6541 0.4218 0.6279
vn -0.5453 -0.7312 -0.4098
vn -0.7520 -0.6006 -0.2716
vn 0.9447 -0.0324 0.3263
vn 0.9996 0.0201 0.0178
vn 0.6788 -0.0053 0.7343
vn -0.9930 -0.0100 -0.1181
vn -0.5635 0.0944 0.8207
vn -0.4876 -0.8727 0.0239
vn -0.5129 -0.7425 0.4309
vn -0.5233 -0.4811 0.7033
vn -0.1671 -0.7409 0.6505
vn -0.4220 -0.2717 0.8649
vn -0.0300 -0.2952 0.9550
vn 0.9290 -0.3163 0.1924
vn 0.6627 -0.7187 0.2105
vn 0.9517 -0.2777 0.1307
vn 0.5805 -0.1700 0.7963
vn 0.9377 -0.1691 0.3035
vn 0.4484 0.8855 0.1216
vn -0.8556 0.3768 0.3549
vn -0.7862 0.6019 -0.1403
vn -0.9982 0.0096 -0.0599
vn -0.4891 0.6567 -0.5741
vn -0.9999 0.0025 -0.0104
vn -0.7500 0.6562 0.0827
vn -0.4904 0.8714 -0.0063
vn -0.0001 0.7782 -0.6280
vn -0.3781 -0.9181 -0.1191
vn 0.0186 0.7413 -0.6710
vn -0.4219 0.8439 -0.3313
vn -0.5575 -0.8251 -0.0919
vn -0.7185 -0.4906 0.4931
vn -0.2991 0.7909 -0.5338
vn 0.0146 0.9960 -0.0882
vn 0.0026 0.9257 -0.3783
vn 0.0046 0.9643 0.2647
vn -0.0139 0.9984 -0.0540
vn -0.0021 0.9485 0.3166
vn -0.0136 0.9894 -0.1449
vn 0.8829 0.3764 -0.2806
vn 0.6574 0.5246 -0.5410
vn -0.0211 -0.8694 -0.4937
vn -0.1284 -0.7389 -0.6614
vn -0.0221 0.8774 -0.4792
vn 0.9072 0.3512 -0.2316
vn 0.9218 0.3866 -0.0307
vn 0.7221 0.6653 -0.1897
vn -0.0044 0.7545 -0.6563
vn -0.5515 -0.6002 -0.5793
vn -0.9319 -0.3157 -0.1785
vn -0.9568 -0.2789 0.0825
vn -0.9923 -0.0590 0.1093
vn -0.5542 0.6656 0.4998
vn 0.7090 0.2233 0.6689
vn 0.9097 0.4057 0.0886
vn -0.5537 0.8312 -0.0498
vn 0.3351 0.6135 0.7151
vn 0.2113 0.8479 0.4862
vn 0.6743 0.7253 -0.1390
vn -0.0000 0.9943 0.1065
vn -0.9999 0.0124 0.0073
vn -0.9905 -0.0951 0.0996
vn -0.5463 -0.0192 0.8373
vn -0.9901 0.0564 -0.1285
vn -0.6197 0.7637 -0.1809
vn -0.4905 0.8710 0.0271
vn 0.0225 0.9984 0.0519
vn 0.0805 0.9116 0.4030
vn 0.2228 0.8604 0.4584
vn 0.8958 0.0491 0.4416
vn 0.9209 0.2972 0.2521
vn 0.9159 0.4011 -0.0139
vn 0.9981 0.0462 0.0416
vn 0.9099 0.1657 0.3803
vn 0.4566 0.0158 0.8895
vn 0.2958 -0.0053 0.9552
vn 0.0099 -0.9540 -0.2996
vn -0.0047 -0.8715 -0.4903
vn 0.3467 0.0140 0.9379
vn 0.7649 -0.4837 -0.4253
vn 0.0099 0.8520 0.5234
vn 0.0026 0.9425 -0.3342
vn -0.0059 0.9230 0.3847
vn 0.0461 0.9976 -0.0514
vn 0.1621 0.9784 0.1282
vn 0.2906 0.4471 0.8460
vn 0.0047 0.0184 -0.9998
vn 0.0009 0.3584 0.9336
vn 1.0000 0.0066 -0.0022
vn 0.7385 0.5510 0.3886
vn 0.9992 0.0152 0.0373
vn -0.1241 0.9114 0.3923
vn 0.7759 -0.0184 -0.6306
s 0
f 6//1 16//1 5//1
f 10//2 1//2 2//2
f 10//3 7//3 1//3
f 11//4 12//4 4//4
f 8//5 11//5 4//5
f 18//6 17//6 16//6
f 20//7 22//7 12//7
f 21//8 4//8 22//8
f 27//9 21//9 22//9
f 47//10 30//10 27//10
f 19//11 1//11 33//11
f 32//12 19//12 33//12
f 34//13 12//13 19//13
f 39//14 35//14 34//14
f 123//15 5//15 23//15
f 104//16 42//16 36//16
f 45//17 46//17 39//17
f 110//18 91//18 45//18
f 47//19 119//19 30//19
f 31//20 119//20 47//20
f 9//21 49//21 50//21
f 54//22 49//22 53//22
f 57//23 53//23 14//23
f 60//24 54//24 55//24
f 119//25 59//25 30//25
f 62//26 61//26 10//26
f 65//27 64//27 10//27
f 69//28 67//28 11//28
f 66//29 80//29 65//29
f 96//30 72//30 70//30
f 70//31 71//31 97//31
f 82//32 73//32 72//32
f 74//33 83//33 81//33
f 83//34 84//34 81//34
f 98//35 73//35 82//35
f 76//36 84//36 83//36
f 86//37 85//37 41//37
f 18//38 125//38 105//38
f 99//39 92//39 90//39
f 97//40 71//40 103//40
f 98//41 86//41 87//41
f 98//42 87//42 88//42
f 76//43 102//43 100//43
f 89//44 44//44 139//44
f 44//45 110//45 45//45
f 31//46 95//46 119//46
f 113//47 51//47 56//47
f 60//48 113//48 56//48
f 115//49 117//49 114//49
f 116//50 115//50 112//50
f 122//51 116//51 121//51
f 118//52 122//52 102//52
f 127//53 123//53 23//53
f 125//54 139//54 33//54
f 127//55 37//55 126//55
f 130//56 127//56 126//56
f 131//57 130//57 126//57
f 133//58 126//58 134//58
f 146//59 136//59 133//59
f 136//60 132//60 128//60
f 103//61 137//61 43//61
f 105//62 132//62 146//62
f 137//63 144//63 124//63
f 144//64 148//64 145//64
f 12//65 3//65 4//65
f 6//66 7//66 10//66
f 10//67 12//67 65//67
f 9//68 8//68 48//68
f 65//69 12//69 67//69
f 13//70 8//70 4//70
f 13//71 4//71 21//71
f 6//72 18//72 16//72
f 1//73 7//73 33//73
f 22//74 3//74 12//74
f 4//75 3//75 22//75
f 14//76 13//76 21//76
f 15//77 23//77 16//77
f 24//78 23//78 15//78
f 24//79 36//79 23//79
f 25//80 35//80 40//80
f 26//81 27//81 25//81
f 28//82 21//82 27//82
f 24//83 15//83 17//83
f 104//84 24//84 29//84
f 26//85 40//85 46//85
f 92//86 27//86 26//86
f 93//87 27//87 92//87
f 35//88 12//88 34//88
f 23//89 36//89 37//89
f 33//90 5//90 123//90
f 38//91 32//91 33//91
f 139//92 38//92 33//92
f 44//93 39//93 38//93
f 39//94 46//94 40//94
f 9//95 52//95 49//95
f 9//96 50//96 51//96
f 48//97 13//97 53//97
f 53//98 13//98 14//98
f 54//99 57//99 55//99
f 58//100 55//100 57//100
f 58//101 30//101 59//101
f 60//102 55//102 58//102
f 6//103 10//103 61//103
f 62//104 10//104 64//104
f 65//105 67//105 66//105
f 71//106 70//106 72//106
f 71//107 72//107 73//107
f 74//108 111//108 75//108
f 78//109 73//109 79//109
f 61//110 18//110 6//110
f 105//111 17//111 18//111
f 69//112 81//112 68//112
f 82//113 72//113 96//113
f 76//114 74//114 75//114
f 62//115 89//115 61//115
f 107//116 89//116 62//116
f 63//117 44//117 64//117
f 65//118 44//118 63//118
f 80//119 108//119 65//119
f 68//120 109//120 66//120
f 90//121 92//121 91//121
f 90//122 91//122 109//122
f 94//123 95//123 31//123
f 98//124 82//124 86//124
f 81//125 90//125 68//125
f 100//126 99//126 84//126
f 94//127 92//127 100//127
f 76//128 100//128 84//128
f 85//129 43//129 42//129
f 106//130 87//130 104//130
f 106//131 104//131 105//131
f 105//132 104//132 29//132
f 97//133 103//133 85//133
f 148//134 140//134 78//134
f 11//135 9//135 111//135
f 112//136 111//136 9//136
f 114//137 112//137 115//137
f 112//138 113//138 116//138
f 117//139 115//139 116//139
f 122//140 117//140 116//140
f 116//141 113//141 121//141
f 118//142 114//142 117//142
f 119//143 120//143 59//143
f 113//144 60//144 121//144
f 95//145 101//145 121//145
f 23//146 37//146 127//146
f 125//147 33//147 123//147
f 125//148 127//148 142//148
f 128//149 127//149 130//149
f 142//150 128//150 129//150
f 128//151 130//151 131//151
f 124//152 37//152 43//152
f 131//153 126//153 133//153
f 134//154 124//154 135//154
f 134//155 135//155 133//155
f 136//156 131//156 133//156
f 133//157 135//157 146//157
f 128//158 131//158 136//158
f 146//159 106//159 105//159
f 88//160 143//160 98//160
f 140//161 147//161 77//161
f 79//162 148//162 78//162
f 43//163 137//163 124//163
f 88//164 138//164 143//164
f 98//165 141//165 73//165
f 79//166 73//166 141//166
f 142//167 132//167 105//167
f 147//168 137//168 71//168
f 147//169 144//169 137//169
f 148//170 143//170 145//170
f 141//171 143//171 148//171
f 140//172 148//172 144//172
f 6//173 5//173 7//173
f 10//174 2//174 12//174
f 67//175 12//175 11//175
f 11//176 8//176 9//176
f 1//177 19//177 2//177
f 13//178 48//178 8//178
f 5//179 16//179 23//179
f 16//180 17//180 15//180
f 12//181 2//181 19//181
f 26//182 25//182 40//182
f 25//183 20//183 35//183
f 20//184 25//184 22//184
f 25//185 27//185 22//185
f 28//186 14//186 21//186
f 104//187 36//187 24//187
f 17//188 29//188 24//188
f 91//189 92//189 26//189
f 46//190 91//190 26//190
f 27//191 30//191 28//191
f 93//192 47//192 27//192
f 31//193 47//193 93//193
f 38//194 34//194 19//194
f 38//195 39//195 34//195
f 20//196 12//196 35//196
f 33//197 7//197 5//197
f 38//198 19//198 32//198
f 39//199 40//199 35//199
f 42//200 43//200 37//200
f 42//201 37//201 36//201
f 139//202 44//202 38//202
f 44//203 45//203 39//203
f 91//204 46//204 45//204
f 9//205 48//205 52//205
f 51//206 50//206 56//206
f 52//207 48//207 53//207
f 53//208 49//208 52//208
f 54//209 50//209 49//209
f 54//210 53//210 57//210
f 56//211 50//211 54//211
f 56//212 54//212 60//212
f 58//213 14//213 28//213
f 30//214 58//214 28//214
f 14//215 58//215 57//215
f 59//216 120//216 58//216
f 120//217 60//217 58//217
f 65//218 63//218 64//218
f 68//219 66//219 67//219
f 68//220 67//220 69//220
f 74//221 69//221 11//221
f 74//222 81//222 69//222
f 111//223 74//223 11//223
f 71//224 78//224 77//224
f 78//225 71//225 73//225
f 64//226 107//226 62//226
f 82//227 96//227 86//227
f 84//228 99//228 81//228
f 83//229 74//229 76//229
f 85//230 86//230 96//230
f 87//231 86//231 41//231
f 17//232 105//232 29//232
f 61//233 125//233 18//233
f 61//234 89//234 125//234
f 107//235 64//235 44//235
f 65//236 108//236 44//236
f 66//237 109//237 80//237
f 90//238 109//238 68//238
f 92//239 94//239 93//239
f 94//240 31//240 93//240
f 97//241 96//241 70//241
f 96//242 97//242 85//242
f 99//243 90//243 81//243
f 99//244 100//244 92//244
f 100//245 101//245 94//245
f 94//246 101//246 95//246
f 77//247 147//247 71//247
f 85//248 103//248 43//248
f 41//249 85//249 42//249
f 41//250 42//250 104//250
f 87//251 41//251 104//251
f 87//252 106//252 88//252
f 89//253 139//253 125//253
f 107//254 44//254 89//254
f 44//255 108//255 110//255
f 109//256 91//256 110//256
f 109//257 110//257 80//257
f 110//258 108//258 80//258
f 78//259 140//259 77//259
f 112//260 114//260 111//260
f 112//261 9//261 51//261
f 112//262 51//262 113//262
f 114//263 75//263 111//263
f 76//264 75//264 114//264
f 114//265 118//265 76//265
f 118//266 102//266 76//266
f 117//267 122//267 118//267
f 120//268 119//268 95//268
f 121//269 60//269 120//269
f 102//270 121//270 101//270
f 100//271 102//271 101//271
f 122//272 121//272 102//272
f 95//273 121//273 120//273
f 125//274 123//274 127//274
f 142//275 127//275 128//275
f 126//276 37//276 134//276
f 124//277 134//277 37//277
f 129//278 128//278 132//278
f 135//279 124//279 144//279
f 106//280 138//280 88//280
f 79//281 141//281 148//281
f 106//282 146//282 138//282
f 125//283 142//283 105//283
f 132//284 136//284 146//284
f 129//285 132//285 142//285
f 71//286 137//286 103//286
f 141//287 98//287 143//287
f 144//288 145//288 135//288
f 143//289 138//289 145//289
f 145//290 146//290 135//290
f 138//291 146//291 145//291
f 147//292 140//292 144//292
