# Blender 4.3.2
# www.blender.org
o base_link
v -0.049070 -0.051923 -0.000374
v -0.048377 -0.037100 -0.007334
v -0.048936 -0.035667 0.001243
v -0.048202 -0.019843 -0.007985
v -0.048881 -0.020269 0.000173
v -0.049045 -0.013129 0.000029
v -0.042245 -0.052034 -0.024799
v -0.039528 -0.046645 -0.028867
v -0.046658 -0.052438 -0.014510
v -0.044849 -0.052565 -0.019583
v -0.047089 -0.046524 -0.013704
v -0.042093 -0.053791 -0.009987
v -0.048089 -0.051944 -0.009260
v -0.047701 -0.052857 -0.003589
v -0.041212 -0.054424 0.004102
v -0.042779 -0.042833 -0.023713
v -0.048597 -0.047488 -0.005450
v -0.046483 -0.038324 -0.015161
v -0.040740 -0.034986 -0.027145
v -0.045046 -0.034137 -0.019201
v -0.043481 -0.019694 -0.022280
v -0.046473 -0.019494 -0.015012
v -0.038018 -0.021687 -0.030916
v -0.045317 -0.011793 -0.016304
v -0.044487 -0.012192 -0.020020
v -0.041682 -0.010498 -0.015672
v -0.046830 -0.013191 -0.014415
v -0.047527 -0.011958 -0.008929
v -0.048608 -0.013398 -0.006744
v -0.040975 -0.010143 0.015532
v -0.035720 -0.056717 -0.010463
v -0.032380 -0.060337 0.003022
v -0.035427 -0.052421 -0.033616
v -0.032145 -0.052203 -0.036822
v -0.032549 -0.044118 -0.036447
v -0.039008 -0.051987 -0.029653
v -0.035980 -0.036443 -0.033208
v -0.030671 -0.019421 -0.038717
v -0.042100 -0.015143 -0.025174
v -0.032807 -0.007333 -0.033074
v -0.034228 -0.011914 -0.035212
v -0.039741 -0.011990 -0.027978
v -0.037967 -0.012410 -0.030989
v -0.035546 -0.009861 -0.030797
v -0.034031 -0.008948 -0.024677
v -0.036399 -0.007098 -0.015337
v -0.029964 -0.005232 -0.028613
v -0.031728 -0.000858 -0.015182
v -0.022159 -0.057374 -0.028594
v -0.027675 -0.060367 -0.017121
v -0.029753 -0.057147 -0.021038
v -0.030868 -0.060314 -0.010671
v -0.029176 -0.060780 -0.005148
v -0.022902 -0.061789 -0.001502
v -0.028646 -0.052602 -0.039231
v -0.027708 -0.050806 -0.040391
v -0.035389 -0.053549 -0.026032
v -0.025243 -0.043825 -0.041953
v -0.025840 -0.036012 -0.041620
v -0.027892 -0.024867 -0.040613
v -0.026990 -0.016319 -0.047363
v -0.026107 -0.019557 -0.045052
v -0.029350 -0.011717 -0.058319
v -0.029982 -0.011369 -0.055523
v -0.027585 -0.011809 -0.060180
v -0.024965 -0.011008 -0.061000
v -0.020334 -0.014254 -0.054629
v -0.030004 -0.011958 -0.046091
v -0.027085 -0.013736 -0.052612
v -0.029172 -0.013998 -0.045726
v -0.031369 -0.009867 -0.039531
v -0.029997 -0.000992 -0.056083
v -0.028812 -0.000008 -0.058828
v -0.025629 -0.000990 -0.060993
v -0.026060 0.000002 -0.060022
v -0.029006 0.000003 -0.038061
v -0.022334 -0.000505 -0.039013
v -0.030753 -0.003592 -0.035607
v -0.030035 -0.000978 -0.037062
v -0.026803 0.000058 -0.033132
v -0.027390 -0.001365 -0.028576
v -0.028706 -0.000884 -0.020382
v -0.026113 -0.000945 -0.026253
v -0.031356 -0.000843 0.015507
v -0.013220 -0.057338 -0.033612
v -0.021918 -0.060365 -0.023950
v -0.015950 -0.060341 -0.028252
v -0.017345 -0.062351 -0.010070
v -0.019046 -0.062476 0.005777
v -0.022971 -0.052577 -0.042868
v -0.020234 -0.051934 -0.044650
v -0.013622 -0.051988 -0.047069
v -0.022531 -0.053878 -0.036544
v -0.017925 -0.043970 -0.045492
v -0.017818 -0.035987 -0.045680
v -0.020713 -0.022870 -0.046223
v -0.019532 -0.027325 -0.045298
v -0.022394 -0.018004 -0.049028
v -0.011790 -0.020199 -0.050339
v -0.010102 -0.014951 -0.055402
v -0.019321 0.000016 -0.045226
v -0.017683 0.000024 -0.033251
v -0.008375 -0.000895 -0.009246
v -0.005956 -0.056888 -0.036397
v -0.012019 -0.060443 -0.029914
v -0.005160 -0.060340 -0.032005
v -0.007879 -0.061467 -0.024700
v -0.020138 -0.061471 -0.016651
v -0.009643 -0.062443 -0.017062
v -0.008071 -0.062280 -0.009069
v -0.011741 -0.062331 -0.002983
v -0.008404 -0.059867 0.000047
v -0.010226 -0.052617 -0.047556
v -0.010511 -0.053876 -0.041714
v -0.011289 -0.046787 -0.047568
v -0.009935 -0.038850 -0.047867
v -0.009149 -0.026653 -0.048466
v 0.006350 -0.012260 -0.060361
v -0.013316 -0.000016 -0.054750
v -0.015362 -0.000748 -0.028930
v 0.007301 -0.056957 -0.036169
v -0.000775 -0.062431 -0.019709
v -0.001731 -0.062223 -0.011996
v -0.004975 -0.059240 -0.004846
v -0.005436 -0.058774 0.003314
v 0.002978 -0.058538 -0.004918
v 0.000317 -0.057797 0.000654
v -0.002200 -0.051361 -0.049043
v 0.006872 -0.053498 -0.043667
v -0.002836 -0.037557 -0.048943
v -0.000804 -0.046188 -0.048931
v -0.001866 -0.025113 -0.049449
v -0.000424 -0.018851 -0.052248
v 0.006080 -0.013853 -0.057399
v -0.048662 -0.047106 0.004071
v -0.048177 -0.035272 0.008596
v -0.048119 -0.019660 0.008457
v -0.048008 -0.012045 0.006170
v -0.048215 -0.052372 0.008355
v -0.046831 -0.052394 0.014214
v -0.047095 -0.046621 0.013100
v -0.040460 -0.053639 0.016191
v -0.044164 -0.052368 0.020945
v -0.043983 -0.046521 0.021188
v -0.042067 -0.051779 0.025150
v -0.039340 -0.052540 0.028489
v -0.037497 -0.047411 0.031346
v -0.046968 -0.037904 0.013740
v -0.039038 -0.043200 0.029564
v -0.043723 -0.035370 0.021981
v -0.039041 -0.035990 0.029586
v -0.045925 -0.020324 0.016698
v -0.042763 -0.019573 0.023719
v -0.039861 -0.022738 0.028321
v -0.045505 -0.011891 0.016317
v -0.047682 -0.013144 0.011374
v -0.045430 -0.013030 0.018277
v -0.042566 -0.012393 0.024126
v -0.039538 -0.012003 0.028606
v -0.035356 -0.056586 0.011795
v -0.034061 -0.053893 0.025859
v -0.037146 -0.051878 0.031990
v -0.032069 -0.044123 0.036880
v -0.032859 -0.035770 0.036328
v -0.034771 -0.021086 0.034357
v -0.036810 -0.007341 0.015513
v -0.036952 -0.010518 0.025056
v -0.036678 -0.011809 0.031983
v -0.035121 -0.009739 0.031761
v -0.031331 -0.006783 0.026617
v -0.032629 -0.011695 0.037456
v -0.031473 -0.005284 0.034997
v -0.034401 -0.004759 0.015131
v -0.031955 -0.001074 0.015024
v -0.022981 -0.061247 0.014531
v -0.030316 -0.060304 0.011992
v -0.023810 -0.060297 0.022507
v -0.029283 -0.057085 0.022173
v -0.023861 -0.054387 0.034029
v -0.029425 -0.051987 0.039173
v -0.032486 -0.052434 0.036564
v -0.025795 -0.052063 0.041623
v -0.025571 -0.046612 0.041663
v -0.026034 -0.037092 0.041340
v -0.027415 -0.024023 0.041112
v -0.023069 -0.023759 0.044680
v -0.031006 -0.019155 0.038449
v -0.029100 -0.013250 0.048864
v -0.028526 -0.016646 0.044226
v -0.024040 -0.018921 0.047204
v -0.030011 -0.011359 0.045966
v -0.029988 -0.010999 0.056250
v -0.029183 -0.011587 0.058578
v -0.026124 -0.014891 0.051033
v -0.029385 -0.001091 0.058414
v -0.024951 -0.011261 0.060971
v -0.027231 -0.011730 0.060393
v -0.028115 -0.001823 0.024128
v -0.026010 -0.000933 0.026190
v -0.032278 -0.006279 0.021586
v -0.027475 -0.001144 0.029896
v -0.028807 0.000018 0.037059
v -0.030015 -0.000944 0.037004
v -0.029998 -0.000984 0.055827
v -0.028836 -0.000001 0.058070
v -0.027016 -0.000026 0.060033
v -0.025114 -0.001000 0.061001
v -0.018916 -0.058054 0.029735
v -0.013112 -0.060294 0.029943
v -0.015110 -0.054086 0.039560
v -0.021920 -0.052435 0.043710
v -0.017485 -0.052046 0.045698
v -0.016606 -0.047131 0.045974
v -0.020096 -0.035843 0.044697
v -0.018866 -0.027298 0.045603
v -0.018453 -0.017080 0.051397
v -0.019166 -0.013623 0.056277
v -0.008994 -0.000896 0.010040
v -0.023352 -0.000047 0.029776
v -0.018813 -0.000006 0.035646
v -0.022327 -0.000506 0.039010
v -0.022068 -0.000003 0.044546
v -0.017342 -0.000013 0.055121
v -0.010945 -0.062376 0.005390
v -0.010347 -0.062439 0.017224
v -0.011467 -0.061398 0.023670
v -0.001750 -0.061933 0.022533
v -0.010530 -0.057666 0.034145
v -0.013012 -0.052436 0.046957
v -0.009201 -0.051167 0.048076
v -0.001237 -0.054097 0.042607
v -0.007950 -0.052516 0.048000
v -0.008455 -0.036280 0.048268
v -0.008491 -0.027152 0.048447
v -0.010117 -0.022156 0.049636
v -0.007374 -0.015754 0.054555
v -0.003051 -0.000708 0.033456
v -0.005299 -0.000004 0.037103
v -0.000017 -0.059488 0.007721
v -0.006371 -0.062420 0.010604
v -0.001333 -0.057220 0.036254
v -0.001359 -0.051415 0.049039
v 0.006288 -0.046810 0.048489
v -0.000434 -0.045209 0.048960
v 0.005368 -0.035751 0.048791
v 0.001910 -0.025505 0.049405
v 0.001402 -0.017997 0.052850
v 0.008784 -0.013575 0.057737
v -0.013208 -0.000021 0.050757
v 0.009875 -0.060329 -0.031209
v 0.008317 -0.062328 -0.018496
v 0.005121 -0.062397 -0.011163
v 0.007705 -0.059451 -0.000503
v 0.007374 -0.052266 -0.048427
v 0.008911 -0.045635 -0.048089
v 0.007813 -0.035764 -0.048348
v 0.007081 -0.024055 -0.049228
v 0.009059 -0.017215 -0.053050
v 0.024882 -0.011040 -0.061000
v 0.026125 0.000003 -0.060019
v 0.005792 -0.000011 -0.036933
v 0.018264 -0.057529 -0.030946
v 0.017016 -0.060349 -0.027738
v 0.015460 -0.061011 -0.023473
v 0.010558 -0.062367 -0.006114
v 0.017432 -0.062414 -0.010078
v 0.012315 -0.062405 0.001142
v 0.013298 -0.052439 -0.047060
v 0.017420 -0.047068 -0.045710
v 0.018614 -0.054177 -0.037802
v 0.017034 -0.035778 -0.045866
v 0.016960 -0.024714 -0.046895
v 0.022938 -0.018487 -0.048321
v 0.015108 -0.000001 -0.057451
v 0.019454 -0.000003 -0.043193
v 0.013650 -0.000786 -0.029174
v 0.009442 -0.000884 -0.009842
v 0.023797 -0.060209 -0.022509
v 0.026216 -0.056876 -0.025740
v 0.022984 -0.061363 -0.013154
v 0.023529 -0.061781 -0.000391
v 0.019089 -0.052044 -0.045118
v 0.021093 -0.052704 -0.043194
v 0.024682 -0.052102 -0.042300
v 0.026976 -0.046731 -0.040753
v 0.023866 -0.037857 -0.042715
v 0.026636 -0.026101 -0.041611
v 0.025781 -0.014813 -0.051426
v 0.018323 -0.016748 -0.051765
v 0.025590 -0.021714 -0.044219
v 0.020679 -0.013656 -0.055836
v 0.017759 -0.000020 -0.051870
v 0.022372 -0.000503 -0.038978
v 0.019908 0.000008 -0.031632
v 0.032159 -0.000800 0.004210
v 0.029187 -0.060271 -0.014748
v 0.031872 -0.057334 -0.017126
v 0.032425 -0.060231 -0.004720
v 0.032018 -0.060211 0.006432
v 0.029118 -0.052478 -0.039281
v 0.033146 -0.052037 -0.036096
v 0.028820 -0.053618 -0.032696
v 0.031628 -0.037300 -0.037355
v 0.026816 -0.016567 -0.047298
v 0.029575 -0.016354 -0.042151
v 0.032390 -0.017885 -0.036996
v 0.027358 -0.011749 -0.060305
v 0.029290 -0.011538 -0.058411
v 0.029995 -0.011063 -0.056043
v 0.028595 -0.013641 -0.049759
v 0.030015 -0.012242 -0.044746
v 0.026087 -0.000963 -0.060984
v 0.029948 -0.001077 -0.057687
v 0.028795 -0.000002 -0.058093
v 0.030003 -0.000965 -0.046080
v 0.029179 -0.000004 -0.040147
v 0.030919 -0.000658 -0.040855
v 0.035541 0.000002 -0.012070
v 0.029116 -0.000872 -0.013366
v 0.036171 -0.057260 -0.003801
v 0.037245 -0.052382 -0.031695
v 0.034866 -0.045679 -0.034288
v 0.040684 -0.052022 -0.027292
v 0.036086 -0.053705 -0.024111
v 0.040920 -0.045528 -0.026710
v 0.040587 -0.053896 -0.013868
v 0.036559 -0.035840 -0.032539
v 0.042378 -0.035762 -0.024606
v 0.036182 -0.020621 -0.032863
v 0.041171 -0.020830 -0.026334
v 0.033318 -0.000798 -0.036276
v 0.035948 -0.000001 -0.031764
v 0.038249 -0.000915 -0.030508
v 0.040406 -0.000002 -0.026349
v 0.037368 0.000005 0.002131
v 0.043596 -0.052430 -0.022088
v 0.044702 -0.046572 -0.019876
v 0.045656 -0.052382 -0.017609
v 0.047506 -0.052207 -0.011799
v 0.047701 -0.047128 -0.010377
v 0.043436 -0.053766 -0.000871
v 0.046157 -0.037618 -0.016340
v 0.048441 -0.036741 -0.007042
v 0.044719 -0.019971 -0.019697
v 0.046992 -0.020335 -0.013448
v 0.048248 -0.019870 -0.007709
v 0.042250 -0.000888 -0.024726
v 0.044607 -0.000822 -0.020142
v 0.045331 -0.000004 -0.015898
v 0.046630 -0.000891 -0.014832
v 0.046989 -0.000015 -0.010173
v 0.048546 -0.000673 -0.006578
v 0.048094 -0.000818 0.000131
v 0.047388 -0.000008 -0.005257
v 0.048263 -0.052277 -0.008195
v 0.048995 -0.051897 -0.000080
v 0.048908 -0.047050 0.000231
v 0.048938 -0.036026 0.000873
v 0.048893 -0.021286 -0.000411
v 0.048806 -0.006133 -0.003567
v 0.005001 -0.059325 0.005145
v 0.003390 -0.062408 0.012049
v 0.009486 -0.062354 0.017664
v -0.001032 -0.060209 0.032774
v 0.006810 -0.061281 0.026039
v 0.009072 -0.060249 0.031401
v 0.006222 -0.057972 0.034720
v 0.013066 -0.020939 0.049971
v 0.027469 -0.011785 0.060295
v 0.010137 -0.062424 0.006865
v 0.017838 -0.062461 0.009100
v 0.018729 -0.061326 0.018939
v 0.014280 -0.057940 0.032354
v 0.014520 -0.053812 0.040635
v 0.008456 -0.052386 0.048222
v 0.013698 -0.052344 0.046949
v 0.015069 -0.046004 0.046477
v 0.012126 -0.025773 0.047899
v 0.010536 -0.016956 0.053131
v 0.024827 -0.011036 0.061001
v 0.009825 -0.000901 0.010883
v 0.023349 -0.000760 0.023656
v 0.015326 -0.000002 0.057506
v 0.015542 -0.000025 0.049816
v 0.023069 -0.061588 0.008957
v 0.023709 -0.060273 0.022485
v 0.016925 -0.060219 0.028028
v 0.019750 -0.052336 0.044838
v 0.021225 -0.051854 0.044029
v 0.024581 -0.052004 0.042378
v 0.025048 -0.037242 0.042073
v 0.016651 -0.035852 0.046036
v 0.019817 -0.026750 0.045252
v 0.023374 -0.022100 0.045280
v 0.019566 -0.017795 0.050394
v 0.019519 -0.014890 0.053965
v 0.020869 0.000007 0.031726
v 0.022521 -0.000493 0.039178
v 0.019380 -0.000006 0.042752
v 0.029345 -0.060259 0.014427
v 0.023858 -0.058545 0.025217
v 0.031819 -0.057752 0.015925
v 0.034102 -0.054019 0.025177
v 0.024936 -0.054025 0.034422
v 0.029897 -0.052573 0.038087
v 0.032902 -0.051798 0.036353
v 0.027152 -0.052164 0.040704
v 0.025401 -0.046443 0.041794
v 0.032211 -0.035463 0.036883
v 0.027596 -0.025739 0.040765
v 0.030203 -0.017837 0.040152
v 0.026093 -0.017746 0.046715
v 0.027338 -0.019400 0.043427
v 0.029084 -0.013318 0.048688
v 0.030002 -0.011791 0.045475
v 0.026466 -0.014694 0.051195
v 0.029965 -0.011561 0.055985
v 0.029326 -0.011573 0.058391
v 0.025632 -0.000972 0.060991
v 0.030036 -0.000002 0.038416
v 0.030003 -0.000969 0.046108
v 0.031164 -0.000994 0.040285
v 0.029996 -0.001031 0.056133
v 0.026961 0.000001 0.059937
v 0.028896 -0.000037 0.058861
v 0.035790 -0.057028 0.007461
v 0.040248 -0.054005 0.014424
v 0.036476 -0.052113 0.032704
v 0.039155 -0.045650 0.029238
v 0.034265 -0.052474 0.034493
v 0.032245 -0.043948 0.036771
v 0.038646 -0.035724 0.030086
v 0.041264 -0.020302 0.026264
v 0.033553 -0.019841 0.035604
v 0.032604 -0.013478 0.037234
v 0.035690 -0.000002 0.011629
v 0.038595 -0.000780 0.030045
v 0.034229 -0.000623 0.035004
v 0.047134 -0.052428 0.012955
v 0.048318 -0.052356 0.008047
v 0.044444 -0.052445 0.020003
v 0.044733 -0.047098 0.019810
v 0.043821 -0.051977 0.021907
v 0.046137 -0.051988 0.016456
v 0.041885 -0.052154 0.025399
v 0.039184 -0.052320 0.029254
v 0.047416 -0.045048 0.012386
v 0.046805 -0.036069 0.014317
v 0.043237 -0.035905 0.022962
v 0.044937 -0.021577 0.019347
v 0.047019 -0.019830 0.013343
v 0.047660 0.000005 0.005068
v 0.047027 -0.000860 0.013390
v 0.046897 -0.000004 0.010396
v 0.038885 0.000000 0.028550
v 0.043688 -0.000764 0.021999
v 0.044382 -0.000004 0.018343
v 0.045651 -0.000800 0.017543
v 0.041667 -0.000876 0.025662
v 0.048396 -0.035010 0.007336
v 0.048302 -0.020011 0.007324
v 0.048494 -0.000707 0.007186
vn -0.9938 -0.0195 -0.1096
vn -0.9181 -0.0026 -0.3963
vn -0.8428 0.0200 -0.5378
vn -0.8456 0.1883 -0.4996
vn -0.4182 -0.9083 -0.0147
vn -0.8276 0.0499 -0.5590
vn -0.8391 0.1674 -0.5176
vn -0.3846 0.9072 -0.1706
vn -0.6455 0.7620 0.0525
vn -0.1144 -0.9922 -0.0486
vn -0.1944 -0.9807 -0.0231
vn -0.4194 -0.7694 -0.4817
vn -0.4576 -0.5958 -0.6601
vn -0.7882 -0.5577 -0.2601
vn -0.5074 -0.1777 -0.8432
vn -0.1885 -0.8787 -0.4385
vn -0.2126 -0.8981 -0.3850
vn -0.4509 -0.0499 -0.8912
vn -0.4877 -0.5563 -0.6728
vn 0.0059 0.9849 0.1728
vn -0.1806 -0.7814 -0.5974
vn 0.0080 -1.0000 -0.0036
vn -0.2932 0.0141 -0.9559
vn -0.2737 -0.0190 -0.9616
vn -0.2205 -0.0852 -0.9717
vn -0.0130 -0.6940 -0.7198
vn 0.0169 -0.9997 0.0170
vn 0.0098 -0.9996 0.0281
vn -0.0336 -0.8817 -0.4705
vn -0.1477 -0.0120 -0.9890
vn -0.9952 -0.0053 0.0972
vn -0.9947 0.0015 0.1025
vn -0.9296 0.0133 0.3684
vn -0.2178 -0.9718 0.0900
vn -0.9332 -0.0128 0.3592
vn -0.9300 -0.0045 0.3676
vn -0.9713 0.0177 0.2373
vn -0.8516 -0.0027 0.5241
vn -0.0750 0.9972 0.0033
vn -0.7899 0.5165 0.3306
vn -0.5332 -0.8281 0.1732
vn -0.3746 -0.9104 0.1755
vn -0.6967 0.0485 0.7157
vn -0.7370 -0.0052 0.6759
vn -0.5582 0.8297 0.0032
vn -0.4707 0.8819 0.0261
vn -0.5793 0.7930 0.1885
vn -0.8187 0.3282 0.4712
vn -0.5914 -0.7943 0.1389
vn -0.4311 -0.6571 0.6183
vn -0.5931 -0.0015 0.8051
vn -0.5922 -0.0027 0.8058
vn -0.5973 -0.0492 0.8005
vn -0.5524 -0.8224 0.1361
vn -0.9459 -0.0132 0.3242
vn -0.6211 0.6287 0.4680
vn -0.9729 0.0088 0.2310
vn -0.6812 -0.0017 0.7321
vn -0.4127 0.0607 0.9088
vn -0.4329 0.0096 0.9014
vn -0.4835 -0.0506 0.8739
vn 0.0514 -0.8652 0.4988
vn 0.0022 1.0000 -0.0005
vn -0.2988 -0.7157 0.6312
vn -0.2552 -0.6673 0.6997
vn -0.2926 0.0177 0.9561
vn -0.2948 -0.0587 0.9538
vn -0.2483 -0.3001 0.9210
vn 0.0356 0.9992 -0.0171
vn 0.0015 -1.0000 -0.0021
vn -0.1254 -0.1716 0.9771
vn -0.0394 0.0420 0.9983
vn -0.0350 -0.0715 0.9968
vn -0.0015 -0.6089 0.7933
vn 0.0036 1.0000 -0.0011
vn 0.0018 1.0000 0.0004
vn -0.0002 1.0000 0.0011
vn 0.0013 1.0000 0.0054
vn 0.2262 0.0707 -0.9715
vn 0.2686 -0.0041 -0.9632
vn 0.2595 -0.0562 -0.9641
vn 0.2233 -0.0888 -0.9707
vn 0.3919 -0.7711 -0.5019
vn 0.2551 -0.8737 -0.4142
vn 0.4193 0.0018 -0.9079
vn 0.0236 -0.9318 -0.3623
vn -0.0893 0.9917 0.0928
vn 0.5111 -0.7725 -0.3767
vn 0.1755 -0.9845 0.0081
vn 0.5625 -0.0021 -0.8268
vn 0.5673 0.0168 -0.8233
vn 0.8003 -0.4366 -0.4110
vn 1.0000 0.0005 -0.0047
vn 0.4241 -0.8826 -0.2028
vn 0.7330 -0.0112 -0.6801
vn 0.9513 0.0487 -0.3044
vn 0.9524 -0.0352 -0.3027
vn 0.9106 0.0151 -0.4130
vn 0.9113 0.0248 -0.4111
vn 0.8824 -0.0098 -0.4704
vn 0.6845 0.5520 -0.4761
vn 0.9344 -0.0028 -0.3562
vn 0.9785 0.0199 -0.2052
vn 0.9930 -0.0345 -0.1127
vn 0.9940 0.0852 0.0688
vn 0.0208 -0.9908 0.1336
vn 0.0206 -0.9834 0.1805
vn 0.0711 -0.8955 0.4393
vn 0.0814 -0.0161 0.9966
vn -0.0066 -1.0000 0.0061
vn 0.1980 -0.7206 0.6645
vn 0.1325 -0.8886 0.4391
vn 0.2357 0.0214 0.9716
vn 0.3294 -0.0009 0.9442
vn 0.2359 -0.0732 0.9690
vn 0.0027 -0.6802 0.7330
vn -0.0015 1.0000 -0.0094
vn -0.0373 0.9937 -0.1059
vn 0.3847 -0.7893 0.4786
vn 0.4168 -0.0669 0.9065
vn 0.5617 -0.7126 0.4204
vn 0.3762 -0.8484 0.3725
vn 0.6017 0.0321 0.7980
vn 0.9306 -0.3524 0.0986
vn 0.5462 -0.8257 0.1410
vn 0.2527 -0.0193 0.9673
vn -0.0059 1.0000 -0.0048
vn 1.0000 -0.0029 0.0008
vn 0.4299 -0.8691 0.2445
vn 0.8654 -0.0225 0.5006
vn 0.7507 0.0197 0.6604
vn 0.4666 -0.8805 0.0835
vn 0.9604 0.0967 0.2613
vn 0.7341 -0.5638 0.3785
vn 0.9742 0.0179 0.2248
vn 0.9244 0.0162 0.3812
vn 0.9242 -0.0133 0.3817
vn 0.0458 0.9860 -0.1602
vn 0.9964 0.0126 0.0837
vn 0.9945 -0.0512 0.0914
vn 0.9966 0.0102 0.0819
vn 0.9997 0.0107 0.0236
vn -0.0005 1.0000 0.0003
vn -0.0010 1.0000 -0.0009
vn -0.9834 -0.0120 -0.1811
vn -0.9979 -0.0009 -0.0648
vn -0.9962 -0.0246 -0.0841
vn -0.8320 0.0008 -0.5548
vn -0.9418 -0.0229 -0.3353
vn -0.5965 -0.7978 -0.0876
vn -0.9650 -0.0349 -0.2598
vn -0.1991 -0.9795 -0.0316
vn -0.8899 0.1027 -0.4445
vn -0.8839 -0.1597 -0.4395
vn -0.9705 0.0291 -0.2394
vn -0.9838 0.0378 -0.1754
vn -0.8781 0.0191 -0.4781
vn -0.8794 -0.0062 -0.4760
vn -0.9711 0.0008 -0.2389
vn -0.9243 0.0189 -0.3811
vn -0.9247 -0.0163 -0.3803
vn -0.8024 0.5474 -0.2377
vn -0.3127 0.9358 -0.1628
vn -0.9708 -0.0150 -0.2396
vn -0.9046 0.3767 -0.1996
vn -0.7984 0.5578 -0.2268
vn -0.4368 -0.8474 -0.3019
vn -0.1986 -0.9695 -0.1433
vn -0.4214 -0.8869 -0.1894
vn -0.7289 -0.0374 -0.6836
vn -0.7399 0.0270 -0.6722
vn -0.6887 0.0175 -0.7249
vn -0.7881 -0.0132 -0.6155
vn -0.7399 0.1195 -0.6621
vn -0.7777 -0.1318 -0.6146
vn -0.7178 0.6894 -0.0978
vn -0.4620 0.8867 -0.0180
vn -0.8005 0.5993 -0.0059
vn -0.4406 -0.7940 -0.4190
vn -0.5899 -0.7487 -0.3025
vn -0.0477 -0.9980 -0.0404
vn -0.5211 -0.2541 -0.8148
vn -0.1461 -0.9786 -0.1449
vn -0.6277 0.0048 -0.7785
vn -0.5704 -0.2142 -0.7930
vn -0.6016 -0.0119 -0.7987
vn -0.2932 -0.0188 -0.9559
vn -0.6085 -0.7926 -0.0389
vn -0.4383 -0.8096 -0.3905
vn -0.9195 -0.3871 -0.0679
vn -0.7927 -0.4823 -0.3730
vn -0.8918 -0.2450 -0.3803
vn -0.8581 0.2311 -0.4585
vn -0.9756 -0.0132 -0.2190
vn -0.3244 0.5858 -0.7427
vn -1.0000 -0.0015 -0.0024
vn -0.9404 0.2145 -0.2640
vn -0.0018 1.0000 -0.0005
vn -0.8696 0.4001 0.2893
vn -0.5079 0.8387 0.1966
vn -0.8133 0.5394 0.2182
vn -0.1686 0.9820 -0.0847
vn -0.7618 0.6136 -0.2077
vn -0.7115 0.6327 -0.3057
vn -0.7209 0.5500 -0.4217
vn -0.3527 -0.7949 -0.4938
vn -0.0681 -0.9926 -0.1001
vn -0.0854 -0.9880 -0.1288
vn -0.2364 -0.7399 -0.6298
vn -0.3436 0.0004 -0.9391
vn -0.4355 -0.0154 -0.9001
vn -0.4915 -0.0118 -0.8708
vn 0.0173 0.9896 0.1426
vn -0.0356 -0.9856 -0.1653
vn -0.2611 -0.7794 -0.5696
vn -0.0999 -0.9355 -0.3390
vn -0.0954 -0.9912 -0.0921
vn 0.0055 -0.9998 0.0193
vn -0.0920 -0.9725 -0.2141
vn -0.1052 -0.9013 -0.4203
vn -0.2909 -0.0154 -0.9566
vn -0.2128 -0.5421 -0.8129
vn -0.3335 -0.2755 -0.9016
vn -0.2504 -0.3630 -0.8975
vn -0.1011 -0.6944 -0.7124
vn -0.0002 0.6992 -0.7149
vn -0.0044 0.9999 0.0090
vn 0.0066 -0.7855 -0.6188
vn 0.4531 -0.8672 0.2065
vn 0.2754 -0.9588 0.0703
vn 0.0882 -0.9810 0.1726
vn -0.1626 -0.1201 -0.9794
vn -0.1692 -0.0186 -0.9854
vn -0.0024 -0.9775 -0.2109
vn -0.1318 0.0571 -0.9896
vn -0.0403 -0.6870 -0.7256
vn 0.0013 -0.8807 -0.4736
vn -0.9998 0.0198 -0.0076
vn -0.9853 0.0018 0.1709
vn -0.9958 0.0045 0.0912
vn -0.9956 0.0267 0.0896
vn -0.5468 -0.8372 0.0105
vn -0.9331 0.0266 0.3586
vn -0.8341 0.1042 0.5417
vn -0.9844 0.0531 0.1680
vn -0.9732 -0.0001 0.2299
vn -0.8432 -0.0838 0.5311
vn -0.8608 -0.0019 0.5090
vn -0.9122 0.0103 0.4097
vn -0.3599 0.9330 0.0007
vn -0.8661 0.4170 0.2757
vn -0.9507 -0.0025 0.3102
vn -0.8961 -0.0349 0.4425
vn -0.3262 0.9275 0.1825
vn -0.8281 -0.0090 0.5606
vn -0.4420 -0.8929 0.0855
vn -0.1985 -0.9744 0.1058
vn -0.4022 -0.8827 0.2430
vn -0.7220 0.0283 0.6913
vn -0.7167 0.0094 0.6973
vn -0.7370 -0.0024 0.6759
vn -0.7254 -0.0231 0.6880
vn -0.6539 0.5473 0.5224
vn -0.7633 0.0085 0.6460
vn -0.1772 -0.9836 0.0324
vn -0.5740 -0.7622 0.2992
vn -0.0809 -0.9965 0.0222
vn -0.4955 -0.8125 0.3072
vn -0.5820 0.0411 0.8122
vn -0.6739 0.0114 0.7387
vn -0.8080 -0.3282 0.4893
vn -0.5697 -0.3909 0.7229
vn -0.6410 -0.4522 0.6202
vn -0.8930 -0.3456 0.2883
vn -0.3635 0.9316 0.0039
vn -0.7708 0.6030 0.2055
vn -0.6133 0.7251 0.3131
vn -0.7165 0.6845 -0.1346
vn -0.8325 0.5534 0.0271
vn -0.2573 0.9452 -0.2011
vn -0.5991 0.7652 -0.2355
vn 0.1087 0.9895 -0.0950
vn -0.5749 0.0357 0.8175
vn -0.2444 -0.0067 0.9696
vn -0.1123 -0.9897 0.0885
vn -0.1369 -0.9535 0.2687
vn -0.1244 -0.9751 0.1838
vn -0.4320 0.0266 0.9015
vn -0.5447 -0.4650 0.6979
vn -0.5480 -0.4707 0.6914
vn -0.2554 -0.8062 0.5337
vn 0.0039 1.0000 0.0065
vn -0.1363 0.9805 -0.1413
vn 0.0119 -0.9999 -0.0065
vn -0.0364 -0.9875 0.1532
vn -0.2222 -0.8892 0.4000
vn -0.2785 -0.0108 0.9604
vn -0.0591 -0.9754 0.2122
vn -0.1996 -0.2389 0.9503
vn -0.2724 0.0013 0.9622
vn -0.0647 -0.8188 0.5704
vn -0.0002 0.7048 0.7094
vn 0.4955 -0.8528 -0.1650
vn 0.0589 -0.9715 -0.2297
vn 0.4090 -0.8361 -0.3656
vn 0.0905 -0.7911 -0.6050
vn -0.0743 -0.8596 0.5056
vn -0.0974 -0.8925 0.4404
vn 0.0037 -0.9584 0.2855
vn -0.1209 0.0307 0.9922
vn 0.0704 0.0023 0.9975
vn -0.0886 -0.0199 0.9959
vn -0.0000 1.0000 0.0080
vn -0.6455 0.7637 -0.0002
vn 0.0021 1.0000 0.0009
vn -0.8417 0.4931 0.2199
vn 0.0309 -0.8190 -0.5730
vn 0.0051 -0.9886 -0.1506
vn 0.0089 -0.9880 -0.1543
vn 0.0442 -0.9673 -0.2497
vn -0.0282 -0.9993 0.0234
vn -0.0830 -0.8602 0.5031
vn -0.0210 -0.7047 -0.7092
vn 0.0069 -0.9683 -0.2498
vn 0.0590 -0.0197 -0.9981
vn 0.0332 -0.0728 -0.9968
vn 0.0721 -0.4208 -0.9043
vn -0.0003 -0.4605 -0.8877
vn 0.0313 -0.5804 -0.8137
vn -0.0202 -0.7977 -0.6027
vn -0.0000 0.7067 -0.7075
vn -0.0003 1.0000 0.0076
vn -0.0005 -1.0000 -0.0096
vn -0.4046 -0.8793 0.2513
vn -0.5680 -0.8122 0.1333
vn -0.0021 -1.0000 0.0083
vn 0.2672 -0.0128 -0.9635
vn 0.2600 0.0035 -0.9656
vn 0.1186 -0.8226 -0.5561
vn 0.0192 0.9998 -0.0057
vn -0.0617 0.9850 0.1609
vn 0.4075 -0.7587 -0.5082
vn -0.0069 -1.0000 -0.0023
vn 0.1648 -0.9855 -0.0392
vn 0.2313 -0.8205 -0.5227
vn 0.4156 -0.0126 -0.9095
vn 0.4691 -0.0787 -0.8797
vn 0.2722 -0.6615 -0.6988
vn 0.2173 -0.7227 -0.6561
vn 0.4170 -0.5636 -0.7130
vn 0.3951 -0.3980 -0.8280
vn 0.1801 0.9836 -0.0080
vn -0.0897 0.9910 -0.0990
vn 0.1081 -0.9877 -0.1125
vn 0.1079 -0.9804 -0.1647
vn 0.2826 -0.9049 -0.3182
vn 0.4611 -0.0344 -0.8867
vn 0.4529 -0.5347 -0.7135
vn 0.4889 -0.7520 -0.4421
vn 0.7576 -0.6456 -0.0961
vn 0.6607 -0.6760 -0.3263
vn 0.7426 -0.4122 -0.5278
vn 0.6495 0.0287 -0.7598
vn 0.9599 -0.0412 -0.2775
vn 0.0002 1.0000 0.0033
vn -0.0025 1.0000 -0.0015
vn 1.0000 0.0044 -0.0013
vn -0.0468 0.9876 0.1496
vn 0.9850 -0.0192 -0.1716
vn 0.0006 1.0000 -0.0007
vn -0.1588 0.9791 0.1272
vn 0.4732 -0.7269 -0.4977
vn 0.1605 -0.9762 -0.1458
vn 0.7804 0.0356 -0.6242
vn 0.3345 -0.9036 -0.2677
vn 0.4044 -0.9060 -0.1254
vn 0.6290 0.0505 -0.7758
vn 0.8061 -0.0338 -0.5909
vn 0.7810 0.0179 -0.6243
vn 0.7015 -0.0945 -0.7063
vn 0.8850 -0.0285 -0.4647
vn 0.8563 -0.2420 -0.4562
vn 0.5267 0.7311 -0.4336
vn -0.0004 1.0000 0.0004
vn -0.1446 0.9893 0.0210
vn 0.5451 -0.7551 -0.3642
vn 0.8756 0.0115 -0.4828
vn 0.1935 -0.9757 -0.1032
vn 0.8731 0.0192 -0.4871
vn 0.9085 -0.0138 -0.4176
vn 0.2222 -0.9707 -0.0917
vn 0.4122 -0.9051 -0.1041
vn 0.4615 -0.8823 -0.0924
vn 0.2870 -0.9579 -0.0056
vn 0.9535 0.0400 -0.2987
vn 0.9386 -0.0324 -0.3434
vn 0.9713 -0.0071 -0.2379
vn 0.9741 0.0020 -0.2261
vn 0.5235 0.8156 -0.2465
vn 0.6543 0.7324 -0.1881
vn 0.5116 -0.8592 -0.0059
vn 0.9917 0.0603 -0.1133
vn 0.9769 -0.0026 -0.2136
vn 0.4638 0.8851 -0.0388
vn 0.5432 0.8378 0.0546
vn -0.1961 -0.8775 -0.4377
vn 0.0023 -0.9958 0.0914
vn 0.0576 -0.7550 0.6532
vn 0.0797 -0.7887 0.6096
vn -0.0006 1.0000 -0.0000
vn 0.0002 0.0009 1.0000
vn -0.4821 -0.8561 -0.1863
vn 0.2458 -0.7875 0.5652
vn 0.0926 -0.9825 0.1616
vn 0.0282 -0.8359 0.5482
vn 0.0466 -0.9716 0.2320
vn 0.2372 0.0052 0.9714
vn 0.3218 -0.0304 0.9463
vn 0.0443 -0.6035 0.7961
vn 0.1008 -0.9925 0.0699
vn 0.4108 -0.6787 0.6088
vn 0.2454 -0.8812 0.4040
vn 0.4516 0.1045 0.8861
vn 0.3874 0.0220 0.9217
vn 0.2466 -0.4219 0.8724
vn 0.3696 -0.2880 0.8834
vn 0.2597 -0.6348 0.7277
vn 0.3486 0.2810 0.8942
vn -0.0042 1.0000 0.0009
vn 0.1815 0.9831 0.0257
vn -0.0001 1.0000 -0.0003
vn 0.1654 -0.9850 0.0495
vn 0.6217 -0.7495 0.2276
vn 0.1450 -0.9854 0.0889
vn 0.5380 -0.7550 0.3749
vn 0.3910 -0.8830 0.2597
vn 0.5136 -0.5826 0.6299
vn 0.1645 -0.9729 0.1626
vn 0.3680 -0.6834 0.6305
vn 0.5459 0.0075 0.8378
vn 0.5901 0.0064 0.8073
vn 0.4424 0.0289 0.8964
vn 0.5921 -0.0017 0.8059
vn 0.5880 -0.0083 0.8088
vn 0.5008 -0.0126 0.8654
vn 0.5927 -0.0398 0.8044
vn 0.4248 -0.5116 0.7469
vn 0.5640 -0.3001 0.7693
vn 0.7744 -0.1167 0.6218
vn 0.5734 -0.6239 0.5310
vn 0.7755 -0.4024 0.4864
vn 0.9013 -0.2690 0.3396
vn 0.9551 0.0384 0.2937
vn 0.2645 -0.7464 0.6107
vn 0.2991 -0.8000 0.5201
vn 0.6848 -0.6276 0.3705
vn 0.5563 -0.8207 0.1304
vn 0.8694 -0.4939 0.0139
vn 0.0975 -0.9951 -0.0158
vn 0.0005 1.0000 0.0007
vn -0.0846 0.9746 -0.2072
vn 0.9806 -0.0115 0.1955
vn 0.6775 0.7355 0.0051
vn 0.5386 0.0373 0.8417
vn 0.4728 0.2644 0.8406
vn 0.9664 -0.0064 0.2568
vn 0.6153 -0.7874 0.0370
vn 0.1698 -0.9667 0.1913
vn 0.7153 0.0227 0.6984
vn 0.7417 0.0512 0.6688
vn 0.7345 -0.0203 0.6783
vn 0.7260 -0.0061 0.6876
vn 0.7715 0.0266 0.6356
vn 0.6513 0.0062 0.7588
vn 0.7691 -0.0485 0.6373
vn 0.7971 -0.0355 0.6028
vn 0.3492 0.8986 0.2657
vn 0.7805 -0.0144 0.6250
vn 0.2935 -0.9548 0.0463
vn 0.7628 -0.5780 0.2898
vn 0.8629 -0.3470 0.3674
vn 0.9442 -0.0739 0.3209
vn 0.9780 0.0063 0.2083
vn 0.1008 0.9857 0.1348
vn 0.6052 0.7727 0.1916
vn 0.6717 0.7195 0.1766
vn 0.9151 0.0035 0.4031
vn 0.9449 -0.0012 0.3274
vn 0.8189 0.0008 0.5739
vn 0.8756 -0.0032 0.4830
vn 0.9980 0.0009 -0.0628
vn 0.9923 -0.0099 0.1235
vn 0.9833 0.1723 -0.0584
vn 0.9779 -0.0082 0.2087
vn 0.5268 0.8465 0.0768
vn -0.0001 1.0000 -0.0029
vn 0.4601 0.6185 -0.6369
vn 0.6848 0.7286 -0.0146
vn 0.0006 1.0000 -0.0001
vn 0.5273 0.7292 -0.4361
vn 0.0009 1.0000 -0.0001
vn 0.0011 1.0000 -0.0004
vn 0.0154 0.9999 -0.0026
vn -0.0002 1.0000 0.0012
vn 0.0002 1.0000 0.0018
vn -0.0001 1.0000 -0.0031
vn -0.0000 1.0000 -0.0043
vn 0.0003 1.0000 -0.0002
vn 0.4416 0.8049 0.3963
vn 0.5549 0.6886 0.4668
vn -0.0004 1.0000 0.0016
vn 0.0017 1.0000 0.0005
vn -0.9966 0.0070 -0.0825
vn -0.9968 -0.0508 -0.0622
vn -0.8489 0.5231 -0.0755
vn -0.8929 0.1233 -0.4331
vn -0.2293 -0.9715 -0.0592
vn -0.2306 -0.9713 -0.0579
vn -0.6727 -0.7363 -0.0725
vn -0.9252 -0.0458 -0.3766
vn -0.9644 0.0919 -0.2478
vn -0.9617 -0.0154 -0.2738
vn -0.8504 -0.0732 -0.5210
vn -0.9222 -0.0072 -0.3867
vn -0.9060 0.0059 -0.4231
vn -0.3048 0.9374 -0.1685
vn -0.9734 -0.0336 -0.2266
vn -0.3352 0.9422 -0.0031
vn -0.5961 -0.8001 -0.0671
vn -0.7402 0.0276 -0.6718
vn -0.6987 -0.0016 -0.7154
vn -0.4567 -0.8329 -0.3126
vn -0.1574 -0.9842 -0.0806
vn -0.4025 -0.8954 -0.1907
vn -0.7921 -0.0599 -0.6074
vn -0.7058 -0.1170 -0.6987
vn -0.7456 -0.0427 -0.6651
vn -0.6871 0.4712 -0.5531
vn -0.6272 0.6304 -0.4574
vn -0.6549 0.7541 0.0496
vn -0.5050 0.8132 -0.2891
vn -0.8348 0.4232 -0.3520
vn -0.5794 -0.7652 -0.2806
vn -0.0612 -0.9928 -0.1025
vn -0.1771 -0.9664 -0.1865
vn -0.3173 -0.9023 -0.2918
vn -0.6024 0.0343 -0.7974
vn -0.6390 0.0385 -0.7683
vn -0.6365 -0.0476 -0.7698
vn -0.7957 -0.2080 -0.5688
vn -0.9240 -0.3815 -0.0260
vn -0.5037 -0.8439 -0.1848
vn -0.2802 -0.9345 -0.2194
vn -0.1441 -0.9612 -0.2351
vn -0.7244 -0.4615 -0.5121
vn -0.9211 0.0254 -0.3885
vn -0.7256 0.0034 -0.6881
vn -0.5541 0.0377 -0.8316
vn -1.0000 -0.0011 -0.0020
vn -0.9058 0.2849 -0.3136
vn -0.9717 0.1862 -0.1454
vn -0.7821 0.5813 0.2246
vn -0.5426 0.8069 0.2335
vn -0.5790 0.7965 0.1742
vn -0.8204 0.5478 -0.1640
vn -0.5240 -0.7281 -0.4419
vn -0.2003 -0.9747 -0.0988
vn -0.1331 -0.9901 -0.0451
vn -0.1823 -0.9818 -0.0539
vn -0.1343 -0.9907 -0.0222
vn -0.2279 -0.7564 -0.6131
vn -0.3233 -0.8717 -0.3682
vn -0.4888 0.0497 -0.8710
vn -0.4356 -0.0474 -0.8989
vn -0.2846 0.0357 -0.9580
vn -0.4516 0.0036 -0.8922
vn -0.5323 -0.3050 -0.7897
vn -0.4555 -0.4758 -0.7524
vn -0.2377 -0.7645 -0.5992
vn 0.0012 1.0000 -0.0026
vn 0.0934 0.9873 0.1282
vn 0.0559 0.9891 -0.1360
vn 0.0035 0.9999 -0.0127
vn -0.1348 0.9907 0.0178
vn -0.0235 0.9995 -0.0209
vn 0.0025 1.0000 -0.0035
vn -0.3241 -0.7453 -0.5826
vn -0.0836 -0.9883 -0.1277
vn -0.0649 -0.9929 -0.0993
vn 0.0118 -0.9999 -0.0066
vn -0.0752 -0.9777 -0.1959
vn -0.1854 0.2210 -0.9575
vn -0.2327 -0.7664 -0.5987
vn -0.1012 -0.6737 -0.7321
vn -0.0143 -0.9218 -0.3873
vn -0.1681 -0.7895 -0.5902
vn 0.4607 -0.8452 0.2707
vn 0.2196 -0.8610 0.4588
vn 0.0837 -0.9056 0.4158
vn 0.1972 -0.9781 0.0670
vn -0.1270 -0.0313 -0.9914
vn -0.1273 -0.0304 -0.9914
vn -0.0644 -0.3024 -0.9510
vn -0.1083 -0.3848 -0.9166
vn 0.0269 0.9865 0.1618
vn -0.9955 0.0941 -0.0105
vn -0.9975 -0.0384 -0.0585
vn -0.9771 -0.0400 0.2092
vn -0.9947 0.0106 0.1020
vn -0.9927 -0.0204 0.1192
vn -0.9580 0.2626 0.1154
vn -0.6721 0.7403 -0.0172
vn -0.1567 -0.9871 0.0334
vn -0.2776 -0.9599 0.0386
vn -0.2141 -0.9738 0.0766
vn -0.8954 0.0091 0.4452
vn -0.6851 -0.5920 0.4246
vn -0.8520 -0.0173 0.5232
vn -0.9662 0.0059 0.2577
vn -0.9297 -0.0068 0.3682
vn -0.8479 -0.0068 0.5302
vn -0.0658 0.9978 0.0026
vn -0.9662 -0.0485 0.2533
vn -0.7634 0.6207 0.1788
vn -0.9119 0.0018 0.4105
vn -0.3383 0.9238 0.1793
vn -0.3351 0.9309 0.1454
vn -0.5613 -0.8235 -0.0820
vn -0.1978 -0.9747 0.1043
vn -0.7634 -0.3481 0.5441
vn -0.8114 0.0205 0.5841
vn -0.5471 -0.6904 0.4734
vn -0.1707 -0.9726 0.1577
vn -0.7758 0.1714 0.6073
vn -0.7663 0.0139 0.6423
vn -0.5412 0.8409 -0.0006
vn -0.5384 0.8019 0.2590
vn -0.5360 0.8034 0.2595
vn -0.8017 -0.0432 0.5962
vn -0.5636 0.8240 0.0582
vn -0.8037 -0.0129 0.5948
vn -0.7191 -0.0643 0.6919
vn -0.6728 0.5576 0.4861
vn -0.7291 0.6839 0.0237
vn -0.8331 0.5531 -0.0023
vn -0.6512 0.6625 0.3701
vn -0.1337 -0.9908 0.0186
vn -0.1608 -0.9819 0.1002
vn -0.3208 -0.8812 0.3473
vn -0.1737 -0.9720 0.1580
vn -0.3604 -0.7656 0.5329
vn -0.5591 0.0169 0.8289
vn -0.6489 0.0036 0.7608
vn -0.6983 -0.1300 0.7039
vn -0.6153 -0.6704 0.4147
vn -0.6391 -0.6771 0.3650
vn -0.9230 0.2711 0.2732
vn -0.8880 -0.1347 0.4396
vn -0.9484 -0.3000 0.1023
vn -0.9105 -0.4133 0.0164
vn -0.7629 -0.6383 0.1028
vn -0.7673 0.5203 0.3748
vn -0.7757 0.5244 0.3513
vn -0.7849 0.6075 -0.1220
vn -0.3252 0.9427 -0.0750
vn -0.2581 0.9650 -0.0472
vn -0.8464 0.4299 -0.3144
vn -0.9481 0.2072 0.2411
vn -1.0000 0.0004 0.0009
vn -1.0000 -0.0009 0.0022
vn -0.6303 0.5036 0.5909
vn -0.4388 0.0357 0.8979
vn -0.2329 -0.9720 0.0318
vn -0.3394 -0.8717 0.3536
vn -0.4531 -0.7173 0.5293
vn -0.0763 -0.9910 0.1101
vn -0.3313 -0.8142 0.4768
vn -0.4731 0.0130 0.8809
vn -0.4885 -0.0221 0.8723
vn -0.4751 -0.0350 0.8792
vn -0.2389 -0.7309 0.6393
vn -0.1049 -0.9259 0.3629
vn -0.1737 -0.9786 0.1100
vn 0.0016 1.0000 0.0001
vn 0.0012 1.0000 -0.0080
vn 0.0270 0.9842 0.1748
vn -0.2140 0.9737 -0.0785
vn 0.6299 -0.7740 -0.0641
vn 0.0114 -0.9998 -0.0183
vn 0.0045 -1.0000 -0.0003
vn -0.1221 -0.9829 0.1376
vn -0.1243 -0.9823 0.1403
vn -0.2134 -0.8506 0.4807
vn -0.0621 -0.9582 0.2793
vn -0.0687 -0.9798 0.1880
vn -0.2714 -0.0056 0.9625
vn -0.2641 -0.0199 0.9643
vn -0.2770 -0.6876 0.6712
vn -0.2348 -0.3205 0.9177
vn -0.1660 -0.5551 0.8150
vn -0.1228 -0.9390 0.3212
vn 0.0599 0.9864 -0.1534
vn 0.2200 -0.8835 -0.4136
vn -0.0156 -0.9854 0.1693
vn -0.0251 -0.9700 0.2417
vn -0.1308 -0.8024 0.5822
vn -0.1105 -0.7587 0.6420
vn -0.0236 -0.9912 0.1303
vn -0.0948 -0.0081 0.9955
vn -0.0501 -0.2467 0.9678
vn -0.0998 -0.4206 0.9018
vn -0.0016 -0.8212 0.5707
vn -0.0006 -0.0029 1.0000
vn -0.6476 0.7619 -0.0065
vn -0.6911 0.7228 -0.0019
vn -0.0003 1.0000 0.0030
vn 0.0012 1.0000 -0.0016
vn -0.6233 0.7820 0.0022
vn 0.0007 1.0000 -0.0076
vn 0.0012 1.0000 0.0004
vn -0.0005 0.9999 0.0131
vn 0.0020 1.0000 0.0001
vn 0.0001 1.0000 -0.0018
vn 0.0118 -0.9999 -0.0042
vn 0.0646 0.0042 -0.9979
vn 0.0025 -0.9080 -0.4190
vn 0.0845 0.0312 -0.9959
vn 0.0853 0.0187 -0.9962
vn 0.0633 -0.0455 -0.9970
vn 0.0109 -0.4901 -0.8716
vn 0.0002 0.0007 -1.0000
vn 0.0021 0.9953 0.0972
vn 0.0807 -0.9861 -0.1452
vn 0.0612 -0.9894 -0.1314
vn 0.2758 -0.7727 -0.5717
vn 0.2631 -0.7288 -0.6322
vn -0.3634 -0.8431 0.3963
vn 0.0288 -0.9685 -0.2475
vn 0.0610 -0.9799 -0.1901
vn 0.1586 -0.8931 -0.4210
vn 0.1874 -0.3867 -0.9030
vn 0.1432 -0.5140 -0.8458
vn 0.0791 -0.7618 -0.6430
vn -0.0000 0.0016 -1.0000
vn 0.1052 -0.9883 -0.1105
vn 0.1083 -0.9876 -0.1139
vn 0.1130 -0.9847 -0.1324
vn -0.0087 -1.0000 -0.0031
vn 0.1109 -0.9938 -0.0048
vn 0.3183 -0.0059 -0.9480
vn 0.2699 -0.7889 -0.5521
vn 0.4499 0.0449 -0.8920
vn 0.1571 -0.8904 -0.4273
vn 0.0619 -0.9697 -0.2364
vn 0.4580 0.0599 -0.8869
vn 0.0621 -0.8813 -0.4684
vn 0.0182 -0.6666 -0.7452
vn 0.2391 -0.8349 -0.4957
vn -0.0001 1.0000 0.0024
vn 0.0003 1.0000 0.0052
vn -0.0013 1.0000 -0.0039
vn 0.1453 -0.9834 -0.1088
vn 0.5355 -0.7552 -0.3779
vn 0.1613 -0.9857 -0.0481
vn 0.6356 -0.7451 -0.2022
vn 0.1532 -0.9874 -0.0388
vn 0.1509 -0.9691 -0.1953
vn 0.2613 -0.8330 -0.4877
vn 0.6181 0.0292 -0.7856
vn 0.6363 -0.0363 -0.7706
vn 0.5700 -0.0574 -0.8196
vn 0.7627 -0.1862 -0.6193
vn 0.7665 -0.3666 -0.5273
vn 0.2082 -0.9726 -0.1038
vn 0.5547 -0.7066 -0.4393
vn 0.1145 -0.9203 -0.3740
vn 0.4647 -0.8682 -0.1737
vn 0.8045 -0.5906 -0.0630
vn 0.9512 -0.2309 -0.2050
vn 0.2621 -0.0298 -0.9646
vn 0.6998 0.0054 -0.7143
vn 0.6055 0.3863 -0.6958
vn 0.7278 0.6857 -0.0100
vn 0.3104 0.9442 -0.1099
vn 0.2660 0.9397 -0.2150
vn 0.9598 0.0192 -0.2802
vn 0.6385 -0.7427 -0.2018
vn 0.7316 -0.0040 -0.6818
vn 0.3360 -0.8950 -0.2935
vn 0.1619 -0.9736 -0.1611
vn 0.7868 0.0267 -0.6167
vn 0.6976 0.0072 -0.7165
vn 0.6703 0.0168 -0.7419
vn 0.6984 0.0021 -0.7157
vn 0.7947 0.0068 -0.6070
vn 0.7601 -0.0021 -0.6499
vn -0.1382 0.9902 0.0175
vn 0.2019 -0.9696 -0.1383
vn 0.2544 -0.9660 -0.0462
vn 0.2231 -0.9735 -0.0509
vn 0.9709 0.0076 -0.2392
vn 0.8730 -0.0254 -0.4870
vn 0.8064 -0.0033 -0.5914
vn 0.8809 0.0165 -0.4730
vn 0.9768 0.0027 -0.2140
vn 0.8894 -0.0054 -0.4572
vn 0.9396 -0.0069 -0.3422
vn 0.7944 -0.0108 -0.6073
vn 0.8224 0.0014 -0.5689
vn 0.6310 0.7000 -0.3345
vn 0.6771 0.6925 -0.2490
vn 0.7094 0.6808 -0.1826
vn 0.9956 0.0238 -0.0909
vn 0.9980 -0.0024 -0.0625
vn 0.9962 0.0080 -0.0866
vn 0.9958 -0.0131 -0.0906
vn 0.9946 -0.0094 -0.1029
vn -0.0896 -0.9677 -0.2358
vn -0.2143 -0.9764 0.0275
vn -0.2309 -0.9689 -0.0889
vn 0.0042 -1.0000 0.0050
vn -0.0047 -0.6714 0.7411
vn 0.1207 -0.4073 0.9053
vn -0.0436 -0.7071 0.7058
vn -0.0007 -0.8169 0.5767
vn 0.0002 1.0000 0.0008
vn 0.0006 1.0000 -0.0082
vn -0.0447 0.9754 -0.2157
vn -0.4565 -0.8671 -0.1992
vn -0.0035 -1.0000 -0.0046
vn -0.3467 -0.8237 -0.4488
vn 0.0027 -1.0000 0.0066
vn 0.0882 -0.9841 0.1543
vn 0.0721 -0.9846 0.1591
vn 0.0823 -0.9905 0.1103
vn 0.0566 -0.9781 0.2003
vn 0.2198 0.0388 0.9748
vn 0.2241 -0.0080 0.9745
vn 0.0647 -0.0218 0.9977
vn 0.1455 -0.0101 0.9893
vn 0.1224 -0.4110 0.9034
vn 0.2012 -0.5271 0.8256
vn 0.0714 -0.7909 0.6078
vn 0.1215 -0.7775 0.6170
vn 0.1654 -0.9858 0.0285
vn 0.1668 -0.9704 0.1748
vn 0.2374 -0.8721 0.4278
vn 0.0835 -0.9682 0.2360
vn 0.1054 -0.9720 0.2101
vn 0.4424 0.1341 0.8868
vn 0.4801 -0.0082 0.8772
vn 0.4231 -0.0267 0.9057
vn 0.1187 -0.7695 0.6275
vn -0.0113 0.9999 -0.0034
vn 0.1597 -0.9868 0.0282
vn 0.1308 -0.9873 0.0898
vn 0.0961 -0.9631 0.2513
vn 0.1514 -0.9611 0.2312
vn 0.4981 -0.3856 0.7766
vn 0.6328 -0.5685 0.5257
vn 0.7563 -0.2270 0.6136
vn 0.0784 -0.9256 0.3703
vn -0.2120 0.9646 -0.1568
vn -0.0569 0.9952 0.0793
vn 0.5510 0.8277 0.1063
vn 1.0000 -0.0003 0.0035
vn 0.7161 -0.0018 0.6980
vn 0.9297 0.0197 0.3677
vn 0.6409 -0.7673 0.0247
vn 0.6006 -0.7751 0.1963
vn 0.4211 -0.8989 0.1207
vn 0.2783 -0.9483 0.1524
vn 0.7868 0.0049 0.6172
vn 0.1530 -0.9753 0.1591
vn 0.5050 -0.6237 0.5966
vn 0.5865 -0.5219 0.6193
vn 0.7260 -0.0062 0.6876
vn -0.1128 0.9922 -0.0532
vn -0.1638 0.9861 -0.0282
vn 0.4223 -0.9058 0.0330
vn 0.2140 -0.9761 0.0372
vn 0.1507 -0.9870 0.0552
vn 0.9631 0.1327 0.2342
vn 0.2063 -0.9715 0.1166
vn 0.2258 -0.9611 0.1588
vn 0.8630 0.0547 0.5022
vn 0.9204 -0.0038 0.3911
vn 0.2282 -0.9664 0.1183
vn 0.8188 0.0049 0.5740
vn 0.8702 0.0781 0.4865
vn 0.9412 -0.0086 0.3378
vn 0.8406 -0.0032 0.5417
vn 0.8583 -0.0296 0.5123
vn 0.8405 0.0367 0.5406
vn 0.9724 0.0460 0.2287
vn 0.9475 -0.0395 0.3172
vn 0.8803 -0.0321 0.4733
vn -0.0023 1.0000 0.0003
vn 0.0009 1.0000 0.0002
vn 0.6140 0.7655 0.1923
vn 0.9732 -0.0010 0.2301
vn 0.8827 -0.0069 0.4700
vn 0.6281 0.7295 0.2708
vn 0.9492 -0.0053 0.3146
vn 0.5905 0.7281 0.3480
vn 0.9921 0.0556 0.1126
vn 0.9972 0.0063 0.0752
vn 0.9969 -0.0093 0.0777
vn 0.7207 0.6913 -0.0517
vn -0.0000 1.0000 0.0001
vn -0.0007 1.0000 0.0005
vn 0.0008 0.7344 0.6787
vn -0.0040 1.0000 0.0006
vn -0.0000 1.0000 -0.0010
vn -0.0004 1.0000 -0.0002
vn 0.0210 0.9998 0.0029
vn 0.9221 0.3835 0.0521
vn 0.4943 0.8277 0.2659
vn 0.6547 0.6107 0.4455
s 0
f 17//1 13//1 1//1
f 18//2 16//2 11//2
f 21//3 23//3 19//3
f 25//4 42//4 39//4
f 31//5 15//5 12//5
f 16//6 37//6 8//6
f 39//7 42//7 43//7
f 26//8 45//8 42//8
f 40//9 45//9 47//9
f 53//10 52//10 50//10
f 53//11 32//11 52//11
f 55//12 33//12 34//12
f 61//13 98//13 62//13
f 61//14 70//14 69//14
f 56//15 91//15 90//15
f 85//16 93//16 114//16
f 49//17 93//17 85//17
f 59//18 97//18 95//18
f 62//19 98//19 96//19
f 80//20 120//20 102//20
f 105//21 85//21 104//21
f 111//22 88//22 110//22
f 94//23 116//23 115//23
f 95//24 116//24 94//24
f 95//25 117//25 130//25
f 66//26 118//26 65//26
f 123//27 110//27 109//27
f 123//28 109//28 122//28
f 104//29 114//29 129//29
f 116//30 130//30 115//30
f 135//31 1//31 139//31
f 136//32 3//32 135//32
f 144//33 140//33 143//33
f 142//34 143//34 140//34
f 144//35 148//35 141//35
f 150//36 148//36 144//36
f 152//37 136//37 148//37
f 154//38 150//38 151//38
f 138//39 155//39 28//39
f 157//40 158//40 155//40
f 160//41 15//41 32//41
f 178//42 142//42 160//42
f 147//43 162//43 181//43
f 165//44 151//44 164//44
f 30//45 166//45 26//45
f 169//46 167//46 159//46
f 167//47 170//47 200//47
f 172//48 169//48 171//48
f 176//49 160//49 32//49
f 182//50 180//50 181//50
f 184//51 163//51 183//51
f 184//52 164//52 163//52
f 185//53 164//53 184//53
f 194//54 193//54 188//54
f 195//55 192//55 193//55
f 174//56 200//56 84//56
f 195//57 204//57 192//57
f 197//58 195//58 193//58
f 183//59 211//59 212//59
f 213//60 184//60 183//60
f 214//61 184//61 213//61
f 197//62 217//62 196//62
f 84//63 218//63 48//63
f 228//64 208//64 209//64
f 229//65 212//65 211//65
f 233//66 214//66 213//66
f 215//67 214//67 233//67
f 234//68 235//68 215//68
f 219//69 237//69 218//69
f 225//70 240//70 362//70
f 242//71 230//71 232//71
f 245//72 233//72 244//72
f 246//73 233//73 245//73
f 247//74 236//74 235//74
f 101//75 102//75 119//75
f 222//76 249//76 220//76
f 220//77 249//77 238//77
f 120//78 277//78 276//78
f 254//79 269//79 268//79
f 255//80 271//80 269//80
f 256//81 257//81 271//81
f 257//82 272//82 271//82
f 262//83 279//83 278//83
f 262//84 270//84 302//84
f 271//85 286//85 269//85
f 291//86 118//86 307//86
f 276//87 319//87 294//87
f 297//88 296//88 279//88
f 298//89 299//89 281//89
f 284//90 285//90 300//90
f 286//91 303//91 285//91
f 304//92 305//92 290//92
f 313//93 315//93 311//93
f 326//94 297//94 324//94
f 306//95 331//95 329//95
f 338//96 340//96 339//96
f 337//97 342//97 340//97
f 328//98 342//98 337//98
f 328//99 345//99 342//99
f 330//100 347//100 344//100
f 333//101 334//101 347//101
f 348//102 350//102 344//102
f 339//103 340//103 355//103
f 340//104 343//104 357//104
f 352//105 353//105 360//105
f 365//106 227//106 363//106
f 366//107 364//107 365//107
f 374//108 231//108 241//108
f 243//109 242//109 375//109
f 371//110 363//110 370//110
f 373//111 367//111 366//111
f 373//112 374//112 367//112
f 377//113 375//113 376//113
f 377//114 376//114 388//114
f 378//115 245//115 392//115
f 380//116 196//116 369//116
f 237//117 382//117 381//117
f 237//118 397//118 382//118
f 401//119 387//119 386//119
f 393//120 392//120 391//120
f 402//121 401//121 386//121
f 403//122 404//122 401//122
f 408//123 407//123 406//123
f 415//124 414//124 413//124
f 418//125 416//125 417//125
f 419//126 380//126 369//126
f 381//127 382//127 295//127
f 421//128 423//128 417//128
f 427//129 403//129 402//129
f 438//130 422//130 435//130
f 437//131 438//131 435//131
f 427//132 426//132 341//132
f 439//133 442//133 444//133
f 443//134 445//134 441//134
f 460//135 448//135 447//135
f 448//136 449//136 442//136
f 448//137 450//137 449//137
f 335//138 452//138 353//138
f 356//139 357//139 440//139
f 358//140 460//140 447//140
f 358//141 359//141 460//141
f 360//142 462//142 359//142
f 119//143 261//143 275//143
f 261//144 294//144 275//144
f 2//145 11//145 17//145
f 5//146 2//146 3//146
f 4//147 5//147 6//147
f 36//148 7//148 8//148
f 11//149 10//149 9//149
f 14//150 13//150 9//150
f 11//151 9//151 13//151
f 15//152 14//152 12//152
f 8//153 10//153 11//153
f 16//154 8//154 11//154
f 2//155 18//155 11//155
f 11//156 13//156 17//156
f 20//157 19//157 16//157
f 19//158 20//158 21//158
f 22//159 2//159 4//159
f 21//160 20//160 22//160
f 27//161 21//161 22//161
f 24//162 25//162 27//162
f 26//163 42//163 25//163
f 29//164 22//164 4//164
f 27//165 29//165 28//165
f 24//166 27//166 28//166
f 10//167 36//167 33//167
f 10//168 33//168 57//168
f 12//169 57//169 31//169
f 35//170 8//170 37//170
f 35//171 36//171 8//171
f 60//172 37//172 23//172
f 23//173 37//173 19//173
f 38//174 23//174 39//174
f 43//175 38//175 39//175
f 44//176 40//176 43//176
f 45//177 44//177 42//177
f 48//178 46//178 166//178
f 51//179 49//179 50//179
f 51//180 50//180 31//180
f 50//181 86//181 53//181
f 56//182 90//182 55//182
f 57//183 33//183 55//183
f 35//184 56//184 34//184
f 56//185 55//185 34//185
f 59//186 58//186 35//186
f 66//187 65//187 74//187
f 69//188 64//188 63//188
f 98//189 61//189 69//189
f 68//190 70//190 71//190
f 70//191 61//191 62//191
f 70//192 38//192 41//192
f 71//193 70//193 41//193
f 72//194 63//194 64//194
f 75//195 74//195 73//195
f 64//196 68//196 72//196
f 79//197 68//197 71//197
f 76//198 101//198 73//198
f 79//199 78//199 81//199
f 80//200 79//200 81//200
f 81//201 78//201 47//201
f 83//202 81//202 82//202
f 47//203 45//203 82//203
f 82//204 45//204 46//204
f 48//205 82//205 46//205
f 87//206 86//206 49//206
f 86//207 87//207 105//207
f 108//208 86//208 105//208
f 90//209 91//209 92//209
f 94//210 92//210 91//210
f 95//211 94//211 58//211
f 97//212 59//212 60//212
f 120//213 80//213 83//213
f 107//214 105//214 106//214
f 105//215 87//215 85//215
f 109//216 108//216 122//216
f 88//217 108//217 109//217
f 88//218 109//218 110//218
f 93//219 113//219 114//219
f 114//220 104//220 85//220
f 117//221 95//221 97//221
f 99//222 96//222 98//222
f 99//223 97//223 96//223
f 99//224 117//224 97//224
f 100//225 67//225 118//225
f 75//226 312//226 74//226
f 103//227 120//227 82//227
f 106//228 104//228 121//228
f 112//229 111//229 124//229
f 125//230 112//230 124//230
f 127//231 124//231 126//231
f 128//232 113//232 92//232
f 115//233 128//233 92//233
f 114//234 113//234 129//234
f 131//235 128//235 115//235
f 99//236 100//236 133//236
f 100//237 118//237 134//237
f 2//238 17//238 135//238
f 148//239 135//239 141//239
f 5//240 136//240 137//240
f 156//241 5//241 137//241
f 139//242 1//242 14//242
f 141//243 140//243 144//243
f 144//244 145//244 147//244
f 135//245 139//245 141//245
f 141//246 139//246 140//246
f 149//247 144//247 147//247
f 144//248 149//248 151//248
f 153//249 152//249 150//249
f 155//250 30//250 24//250
f 155//251 156//251 157//251
f 156//252 152//252 157//252
f 157//253 152//253 158//253
f 158//254 30//254 155//254
f 158//255 153//255 159//255
f 160//256 142//256 15//256
f 161//257 143//257 142//257
f 161//258 142//258 178//258
f 163//259 149//259 147//259
f 163//260 147//260 181//260
f 164//261 151//261 149//261
f 149//262 163//262 164//262
f 168//263 169//263 159//263
f 159//264 165//264 168//264
f 175//265 53//265 54//265
f 160//266 176//266 178//266
f 176//267 32//267 53//267
f 178//268 176//268 177//268
f 163//269 180//269 183//269
f 165//270 164//270 185//270
f 187//271 185//271 189//271
f 185//272 186//272 189//272
f 189//273 186//273 190//273
f 171//274 189//274 191//274
f 84//275 48//275 174//275
f 200//276 170//276 198//276
f 199//277 84//277 198//277
f 172//278 170//278 169//278
f 198//279 170//279 201//279
f 202//280 219//280 201//280
f 203//281 202//281 201//281
f 222//282 221//282 202//282
f 206//283 195//283 197//283
f 197//284 196//284 207//284
f 175//285 89//285 225//285
f 181//286 179//286 210//286
f 211//287 181//287 210//287
f 183//288 212//288 213//288
f 186//289 185//289 215//289
f 190//290 186//290 215//290
f 194//291 216//291 217//291
f 199//292 218//292 84//292
f 219//293 218//293 199//293
f 224//294 89//294 111//294
f 226//295 225//295 227//295
f 179//296 228//296 210//296
f 213//297 229//297 230//297
f 229//298 231//298 232//298
f 230//299 229//299 232//299
f 233//300 213//300 230//300
f 217//301 216//301 236//301
f 419//302 206//302 207//302
f 224//303 112//303 125//303
f 239//304 125//304 127//304
f 224//305 125//305 240//305
f 240//306 239//306 362//306
f 210//307 228//307 241//307
f 231//308 210//308 241//308
f 232//309 231//309 375//309
f 244//310 230//310 242//310
f 244//311 242//311 243//311
f 234//312 233//312 246//312
f 75//313 73//313 260//313
f 202//314 204//314 205//314
f 205//315 222//315 202//315
f 205//316 204//316 195//316
f 106//317 121//317 250//317
f 107//318 106//318 251//318
f 106//319 250//319 251//319
f 122//320 107//320 251//320
f 123//321 122//321 252//321
f 123//322 252//322 126//322
f 128//323 254//323 113//323
f 129//324 113//324 254//324
f 256//325 255//325 130//325
f 257//326 256//326 132//326
f 133//327 257//327 132//327
f 118//328 66//328 259//328
f 258//329 133//329 100//329
f 100//330 134//330 258//330
f 260//331 312//331 75//331
f 277//332 120//332 103//332
f 252//333 251//333 266//333
f 126//334 265//334 253//334
f 253//335 265//335 267//335
f 252//336 266//336 265//336
f 269//337 254//337 255//337
f 256//338 271//338 255//338
f 258//339 291//339 289//339
f 292//340 274//340 275//340
f 276//341 294//341 261//341
f 278//342 263//342 262//342
f 267//343 266//343 371//343
f 266//344 280//344 281//344
f 283//345 268//345 282//345
f 287//346 286//346 271//346
f 272//347 287//347 271//347
f 257//348 289//348 273//348
f 289//349 288//349 273//349
f 273//350 290//350 272//350
f 290//351 287//351 272//351
f 293//352 275//352 294//352
f 316//353 293//353 294//353
f 280//354 264//354 278//354
f 302//355 283//355 300//355
f 262//356 302//356 279//356
f 285//357 269//357 286//357
f 273//358 304//358 290//358
f 288//359 304//359 273//359
f 309//360 310//360 308//360
f 304//361 310//361 305//361
f 306//362 305//362 311//362
f 312//363 313//363 307//363
f 309//364 308//364 313//364
f 292//365 314//365 274//365
f 275//366 314//366 292//366
f 313//367 311//367 309//367
f 293//368 316//368 275//368
f 317//369 311//369 315//369
f 294//370 332//370 316//370
f 318//371 294//371 319//371
f 321//372 300//372 301//372
f 302//373 321//373 324//373
f 325//374 321//374 322//374
f 297//375 279//375 324//375
f 320//376 297//376 326//376
f 322//377 301//377 285//377
f 328//378 322//378 327//378
f 328//379 325//379 322//379
f 329//380 287//380 306//380
f 331//381 306//381 317//381
f 332//382 331//382 317//382
f 334//383 333//383 332//383
f 354//384 334//384 332//384
f 335//385 319//385 295//385
f 336//386 321//386 323//386
f 337//387 323//387 325//387
f 326//388 324//388 336//388
f 337//389 336//389 323//389
f 337//390 338//390 336//390
f 338//391 326//391 336//391
f 338//392 339//392 355//392
f 341//393 320//393 326//393
f 341//394 355//394 440//394
f 337//395 340//395 338//395
f 344//396 345//396 328//396
f 343//397 342//397 345//397
f 352//398 345//398 350//398
f 349//399 348//399 334//399
f 350//400 349//400 351//400
f 440//401 355//401 356//401
f 357//402 355//402 340//402
f 352//403 346//403 345//403
f 352//404 351//404 354//404
f 353//405 352//405 354//405
f 362//406 239//406 361//406
f 227//407 225//407 363//407
f 241//408 364//408 367//408
f 367//409 364//409 366//409
f 277//410 103//410 218//410
f 207//411 380//411 419//411
f 370//412 253//412 267//412
f 373//413 366//413 387//413
f 386//414 365//414 372//414
f 241//415 367//415 374//415
f 376//416 231//416 374//416
f 245//417 377//417 392//417
f 378//418 392//418 393//418
f 247//419 368//419 379//419
f 363//420 385//420 372//420
f 401//421 373//421 387//421
f 404//422 373//422 401//422
f 377//423 388//423 389//423
f 377//424 389//424 391//424
f 378//425 393//425 368//425
f 368//426 393//426 394//426
f 395//427 368//427 394//427
f 248//428 396//428 416//428
f 381//429 295//429 277//429
f 398//430 397//430 399//430
f 424//431 399//431 383//431
f 400//432 385//432 299//432
f 426//433 402//433 400//433
f 386//434 372//434 385//434
f 386//435 400//435 402//435
f 403//436 401//436 402//436
f 406//437 407//437 405//437
f 405//438 404//438 403//438
f 390//439 388//439 407//439
f 390//440 407//440 408//440
f 431//441 408//441 406//441
f 389//442 390//442 408//442
f 408//443 431//443 391//443
f 391//444 431//444 409//444
f 393//445 391//445 410//445
f 391//446 409//446 410//446
f 395//447 394//447 412//447
f 394//448 410//448 413//448
f 411//449 413//449 434//449
f 414//450 412//450 413//450
f 415//451 413//451 411//451
f 435//452 415//452 411//452
f 422//453 415//453 435//453
f 416//454 396//454 395//454
f 416//455 395//455 412//455
f 414//456 416//456 412//456
f 416//457 414//457 417//457
f 415//458 417//458 414//458
f 369//459 248//459 418//459
f 420//460 455//460 397//460
f 420//461 398//461 399//461
f 421//462 415//462 422//462
f 423//463 421//463 425//463
f 419//464 369//464 425//464
f 419//465 425//465 424//465
f 423//466 418//466 417//466
f 426//467 298//467 320//467
f 428//468 403//468 446//468
f 431//469 406//469 428//469
f 431//470 428//470 429//470
f 432//471 431//471 429//471
f 409//472 432//472 434//472
f 434//473 432//473 433//473
f 434//474 410//474 409//474
f 435//475 434//475 433//475
f 435//476 411//476 434//476
f 422//477 438//477 420//477
f 437//478 435//478 433//478
f 441//479 427//479 341//479
f 444//480 441//480 439//480
f 443//481 441//481 444//481
f 447//482 442//482 440//482
f 451//483 460//483 461//483
f 353//484 354//484 335//484
f 458//485 454//485 457//485
f 453//486 462//486 454//486
f 456//487 450//487 458//487
f 453//488 450//488 451//488
f 459//489 437//489 433//489
f 459//490 433//490 456//490
f 358//491 357//491 343//491
f 358//492 447//492 357//492
f 353//493 462//493 360//493
f 462//494 451//494 461//494
f 454//495 462//495 452//495
f 274//496 314//496 73//496
f 314//497 312//497 260//497
f 316//498 313//498 314//498
f 318//499 332//499 294//499
f 332//500 333//500 331//500
f 318//501 354//501 332//501
f 354//502 318//502 335//502
f 354//503 351//503 349//503
f 397//504 238//504 249//504
f 384//505 397//505 249//505
f 383//506 384//506 223//506
f 223//507 205//507 383//507
f 455//508 436//508 397//508
f 420//509 438//509 455//509
f 455//510 438//510 437//510
f 454//511 452//511 335//511
f 454//512 455//512 457//512
f 5//513 4//513 2//513
f 29//514 4//514 6//514
f 28//515 29//515 6//515
f 10//516 8//516 7//516
f 12//517 14//517 9//517
f 9//518 10//518 12//518
f 1//519 13//519 14//519
f 18//520 20//520 16//520
f 2//521 20//521 18//521
f 22//522 20//522 2//522
f 39//523 23//523 21//523
f 27//524 25//524 21//524
f 25//525 39//525 21//525
f 26//526 25//526 24//526
f 29//527 27//527 22//527
f 30//528 26//528 24//528
f 32//529 31//529 52//529
f 36//530 35//530 33//530
f 35//531 34//531 33//531
f 10//532 7//532 36//532
f 12//533 10//533 57//533
f 57//534 51//534 31//534
f 16//535 19//535 37//535
f 23//536 38//536 60//536
f 43//537 41//537 38//537
f 40//538 41//538 43//538
f 42//539 44//539 43//539
f 45//540 40//540 44//540
f 46//541 45//541 26//541
f 40//542 71//542 41//542
f 52//543 31//543 50//543
f 57//544 55//544 90//544
f 93//545 57//545 90//545
f 51//546 57//546 49//546
f 58//547 56//547 35//547
f 37//548 59//548 35//548
f 60//549 59//549 37//549
f 38//550 62//550 60//550
f 68//551 64//551 70//551
f 69//552 70//552 64//552
f 69//553 63//553 65//553
f 69//554 65//554 67//554
f 38//555 70//555 62//555
f 72//556 73//556 63//556
f 73//557 65//557 63//557
f 73//558 74//558 65//558
f 79//559 72//559 68//559
f 78//560 71//560 40//560
f 78//561 79//561 71//561
f 47//562 78//562 40//562
f 79//563 80//563 76//563
f 83//564 80//564 81//564
f 81//565 47//565 82//565
f 86//566 50//566 49//566
f 108//567 53//567 86//567
f 54//568 53//568 108//568
f 88//569 54//569 108//569
f 89//570 54//570 88//570
f 113//571 90//571 92//571
f 49//572 57//572 93//572
f 56//573 94//573 91//573
f 58//574 94//574 56//574
f 94//575 115//575 92//575
f 95//576 58//576 59//576
f 96//577 97//577 60//577
f 62//578 96//578 60//578
f 69//579 67//579 98//579
f 101//580 119//580 73//580
f 77//581 101//581 76//581
f 76//582 102//582 77//582
f 80//583 102//583 76//583
f 77//584 102//584 101//584
f 82//585 120//585 83//585
f 48//586 103//586 82//586
f 49//587 85//587 87//587
f 108//588 105//588 107//588
f 122//589 108//589 107//589
f 111//590 89//590 88//590
f 93//591 90//591 113//591
f 95//592 130//592 116//592
f 99//593 98//593 67//593
f 99//594 67//594 100//594
f 118//595 67//595 65//595
f 106//596 105//596 104//596
f 124//597 111//597 110//597
f 123//598 124//598 110//598
f 126//599 124//599 123//599
f 127//600 125//600 124//600
f 130//601 131//601 115//601
f 117//602 132//602 130//602
f 99//603 132//603 117//603
f 133//604 132//604 99//604
f 102//605 120//605 261//605
f 135//606 17//606 1//606
f 3//607 2//607 135//607
f 136//608 135//608 148//608
f 5//609 3//609 136//609
f 156//610 6//610 5//610
f 156//611 138//611 6//611
f 138//612 28//612 6//612
f 140//613 139//613 14//613
f 140//614 14//614 15//614
f 142//615 140//615 15//615
f 144//616 143//616 145//616
f 146//617 145//617 143//617
f 150//618 144//618 151//618
f 152//619 137//619 136//619
f 150//620 152//620 148//620
f 154//621 153//621 150//621
f 28//622 155//622 24//622
f 156//623 137//623 152//623
f 155//624 138//624 156//624
f 158//625 152//625 153//625
f 167//626 30//626 158//626
f 158//627 159//627 167//627
f 32//628 15//628 31//628
f 146//629 143//629 161//629
f 162//630 145//630 146//630
f 147//631 145//631 162//631
f 181//632 162//632 146//632
f 181//633 146//633 161//633
f 165//634 153//634 154//634
f 165//635 154//635 151//635
f 26//636 166//636 46//636
f 30//637 167//637 166//637
f 167//638 200//638 166//638
f 159//639 153//639 165//639
f 169//640 170//640 167//640
f 171//641 168//641 165//641
f 171//642 165//642 187//642
f 171//643 169//643 168//643
f 173//644 48//644 166//644
f 174//645 48//645 173//645
f 166//646 200//646 173//646
f 176//647 53//647 175//647
f 177//648 176//648 175//648
f 161//649 178//649 179//649
f 181//650 161//650 179//650
f 211//651 182//651 181//651
f 183//652 180//652 182//652
f 163//653 181//653 180//653
f 187//654 165//654 185//654
f 190//655 188//655 189//655
f 194//656 188//656 190//656
f 171//657 191//657 172//657
f 189//658 171//658 187//658
f 188//659 191//659 189//659
f 192//660 191//660 188//660
f 192//661 188//661 193//661
f 174//662 173//662 200//662
f 200//663 198//663 84//663
f 201//664 170//664 172//664
f 201//665 199//665 198//665
f 201//666 219//666 199//666
f 203//667 201//667 172//667
f 203//668 172//668 191//668
f 204//669 203//669 191//669
f 204//670 191//670 192//670
f 205//671 195//671 206//671
f 207//672 206//672 197//672
f 175//673 54//673 89//673
f 179//674 178//674 208//674
f 178//675 177//675 208//675
f 209//676 177//676 175//676
f 208//677 177//677 209//677
f 183//678 182//678 211//678
f 215//679 184//679 214//679
f 185//680 184//680 215//680
f 216//681 194//681 190//681
f 217//682 193//682 194//682
f 197//683 193//683 217//683
f 218//684 103//684 48//684
f 220//685 219//685 202//685
f 221//686 220//686 202//686
f 222//687 220//687 221//687
f 112//688 224//688 111//688
f 240//689 89//689 224//689
f 225//690 89//690 240//690
f 226//691 175//691 225//691
f 209//692 175//692 226//692
f 179//693 208//693 228//693
f 231//694 211//694 210//694
f 229//695 211//695 231//695
f 213//696 212//696 229//696
f 234//697 215//697 233//697
f 235//698 216//698 190//698
f 190//699 215//699 235//699
f 236//700 216//700 235//700
f 196//701 217//701 236//701
f 219//702 238//702 237//702
f 240//703 125//703 239//703
f 209//704 226//704 365//704
f 365//705 226//705 227//705
f 228//706 209//706 364//706
f 241//707 228//707 364//707
f 364//708 209//708 365//708
f 233//709 230//709 244//709
f 235//710 234//710 246//710
f 247//711 235//711 246//711
f 196//712 236//712 248//712
f 207//713 196//713 380//713
f 76//714 73//714 72//714
f 76//715 72//715 79//715
f 119//716 274//716 73//716
f 261//717 119//717 102//717
f 202//718 203//718 204//718
f 238//719 219//719 220//719
f 205//720 223//720 222//720
f 206//721 424//721 205//721
f 222//722 223//722 249//722
f 223//723 384//723 249//723
f 252//724 122//724 251//724
f 131//725 254//725 128//725
f 121//726 104//726 129//726
f 131//727 255//727 254//727
f 130//728 255//728 131//728
f 132//729 256//729 130//729
f 133//730 258//730 257//730
f 74//731 312//731 66//731
f 120//732 276//732 261//732
f 264//733 251//733 250//733
f 264//734 250//734 263//734
f 263//735 250//735 262//735
f 250//736 121//736 262//736
f 126//737 252//737 265//737
f 268//738 129//738 254//738
f 129//739 268//739 283//739
f 270//740 121//740 129//740
f 257//741 273//741 272//741
f 258//742 289//742 257//742
f 291//743 258//743 134//743
f 312//744 259//744 66//744
f 280//745 251//745 264//745
f 278//746 264//746 263//746
f 266//747 251//747 280//747
f 267//748 265//748 266//748
f 281//749 371//749 266//749
f 269//750 282//750 268//750
f 283//751 282//751 284//751
f 269//752 284//752 282//752
f 270//753 262//753 121//753
f 270//754 129//754 283//754
f 285//755 284//755 269//755
f 134//756 118//756 291//756
f 259//757 307//757 118//757
f 289//758 291//758 288//758
f 73//759 314//759 260//759
f 319//760 276//760 277//760
f 295//761 319//761 277//761
f 296//762 280//762 278//762
f 296//763 278//763 279//763
f 298//764 280//764 296//764
f 298//765 296//765 297//765
f 281//766 280//766 298//766
f 302//767 270//767 283//767
f 283//768 284//768 300//768
f 285//769 301//769 300//769
f 303//770 322//770 285//770
f 287//771 303//771 286//771
f 306//772 287//772 290//772
f 306//773 290//773 305//773
f 308//774 291//774 307//774
f 310//775 304//775 288//775
f 308//776 288//776 291//776
f 310//777 288//777 308//777
f 309//778 311//778 310//778
f 310//779 311//779 305//779
f 312//780 307//780 259//780
f 313//781 308//781 307//781
f 314//782 313//782 312//782
f 316//783 315//783 313//783
f 317//784 315//784 316//784
f 332//785 317//785 316//785
f 317//786 306//786 311//786
f 298//787 297//787 320//787
f 322//788 321//788 301//788
f 324//789 279//789 302//789
f 321//790 302//790 300//790
f 325//791 323//791 321//791
f 303//792 327//792 322//792
f 287//793 329//793 303//793
f 329//794 327//794 303//794
f 329//795 330//795 327//795
f 331//796 333//796 329//796
f 335//797 318//797 319//797
f 336//798 324//798 321//798
f 341//799 326//799 338//799
f 355//800 341//800 338//800
f 342//801 343//801 340//801
f 328//802 337//802 325//802
f 330//803 328//803 327//803
f 330//804 344//804 328//804
f 345//805 346//805 343//805
f 347//806 348//806 344//806
f 344//807 350//807 345//807
f 333//808 330//808 329//808
f 347//809 330//809 333//809
f 334//810 348//810 347//810
f 349//811 350//811 348//811
f 350//812 351//812 352//812
f 357//813 356//813 355//813
f 343//814 359//814 358//814
f 346//815 359//815 343//815
f 360//816 359//816 346//816
f 352//817 360//817 346//817
f 239//818 127//818 361//818
f 127//819 126//819 253//819
f 361//820 127//820 253//820
f 363//821 225//821 362//821
f 242//822 232//822 375//822
f 247//823 246//823 368//823
f 248//824 236//824 247//824
f 369//825 196//825 248//825
f 218//826 381//826 277//826
f 237//827 381//827 218//827
f 238//828 397//828 237//828
f 370//829 361//829 253//829
f 371//830 370//830 267//830
f 370//831 362//831 361//831
f 363//832 362//832 370//832
f 365//833 363//833 372//833
f 366//834 365//834 387//834
f 387//835 365//835 386//835
f 376//836 375//836 231//836
f 377//837 243//837 375//837
f 245//838 243//838 377//838
f 245//839 244//839 243//839
f 378//840 246//840 245//840
f 368//841 246//841 378//841
f 395//842 379//842 368//842
f 248//843 247//843 379//843
f 248//844 379//844 396//844
f 385//845 371//845 281//845
f 363//846 371//846 385//846
f 404//847 374//847 373//847
f 388//848 376//848 374//848
f 388//849 374//849 404//849
f 389//850 388//850 390//850
f 391//851 389//851 408//851
f 391//852 392//852 377//852
f 396//853 379//853 395//853
f 383//854 399//854 384//854
f 385//855 281//855 299//855
f 386//856 385//856 400//856
f 405//857 407//857 404//857
f 407//858 388//858 404//858
f 394//859 393//859 410//859
f 412//860 394//860 413//860
f 434//861 413//861 410//861
f 418//862 248//862 416//862
f 397//863 436//863 382//863
f 398//864 420//864 397//864
f 420//865 421//865 422//865
f 421//866 417//866 415//866
f 425//867 369//867 418//867
f 423//868 425//868 418//868
f 426//869 299//869 298//869
f 400//870 299//870 426//870
f 426//871 427//871 402//871
f 428//872 430//872 403//872
f 429//873 428//873 446//873
f 430//874 405//874 403//874
f 406//875 405//875 430//875
f 428//876 406//876 430//876
f 432//877 409//877 431//877
f 382//878 436//878 295//878
f 295//879 436//879 335//879
f 426//880 320//880 341//880
f 440//881 439//881 341//881
f 439//882 441//882 341//882
f 440//883 442//883 439//883
f 441//884 403//884 427//884
f 441//885 445//885 403//885
f 442//886 429//886 443//886
f 442//887 443//887 444//887
f 445//888 446//888 403//888
f 445//889 429//889 446//889
f 429//890 445//890 443//890
f 448//891 442//891 447//891
f 432//892 429//892 449//892
f 449//893 429//893 442//893
f 450//894 432//894 449//894
f 460//895 450//895 448//895
f 451//896 450//896 460//896
f 433//897 432//897 450//897
f 436//898 455//898 335//898
f 455//899 454//899 335//899
f 458//900 453//900 454//900
f 462//901 453//901 451//901
f 456//902 433//902 450//902
f 456//903 458//903 457//903
f 453//904 458//904 450//904
f 459//905 456//905 455//905
f 357//906 447//906 440//906
f 359//907 461//907 460//907
f 462//908 461//908 359//908
f 462//909 353//909 452//909
f 274//143 119//143 275//143
f 314//910 275//910 316//910
f 349//911 334//911 354//911
f 424//912 206//912 419//912
f 384//913 399//913 397//913
f 383//914 205//914 424//914
f 420//915 399//915 424//915
f 424//916 425//916 420//916
f 420//917 425//917 421//917
f 455//918 456//918 457//918
f 455//919 437//919 459//919
