# Blender 4.3.2
# www.blender.org
o link4
v -0.040783 -0.013190 -0.067628
v -0.042537 -0.000998 -0.094208
v -0.042681 0.004551 -0.054829
v -0.032665 -0.035494 -0.061231
v -0.036901 -0.034604 -0.053295
v -0.035293 -0.037679 -0.047295
v -0.037755 -0.035824 -0.043736
v -0.040116 -0.025435 -0.048380
v -0.030186 -0.039406 -0.041107
v -0.034412 -0.038715 -0.022454
v -0.036237 -0.037332 -0.021379
v -0.036911 -0.035441 -0.021171
v -0.032095 -0.036313 -0.016518
v -0.030748 -0.038174 -0.016541
v -0.037162 -0.020014 -0.085055
v -0.033797 -0.026178 -0.074477
v -0.038834 -0.024297 -0.039123
v -0.034804 -0.025024 -0.019777
v -0.034938 -0.019852 -0.096393
v -0.040470 -0.012562 -0.094307
v -0.037110 -0.020249 -0.094225
v -0.032864 -0.025968 -0.094369
v -0.035253 -0.014869 -0.020251
v -0.040304 -0.004639 -0.096358
v -0.036790 0.000615 -0.031854
v -0.036225 -0.000009 -0.021087
v -0.034409 -0.013518 -0.020397
v -0.025711 -0.042325 -0.035367
v -0.022441 -0.042351 -0.033454
v -0.027179 -0.040292 -0.029295
v -0.024318 -0.034878 -0.087401
v -0.027835 -0.034050 -0.073044
v -0.030248 -0.038457 -0.056654
v -0.028868 -0.037590 -0.009573
v -0.028720 -0.034839 -0.010794
v -0.030756 -0.031010 -0.016010
v -0.021740 -0.033140 -0.006865
v -0.028020 -0.039067 0.002563
v -0.027836 -0.037325 0.005534
v -0.028027 -0.036815 -0.005393
v -0.024026 -0.035485 0.006025
v -0.027574 -0.029396 -0.096449
v -0.031111 -0.023922 -0.096096
v -0.029641 -0.030095 -0.093942
v -0.020445 -0.032457 -0.095044
v -0.030511 -0.023848 -0.019409
v -0.027437 -0.027679 -0.017255
v -0.024878 -0.030217 -0.014404
v -0.025715 -0.021035 -0.027171
v -0.032333 -0.019053 -0.021030
v -0.028650 -0.013175 -0.027461
v -0.030918 0.014099 -0.025319
v -0.020035 -0.040100 -0.028965
v -0.017239 -0.032153 -0.096333
v -0.018010 -0.037765 -0.088665
v -0.013490 -0.038820 -0.094461
v -0.022623 -0.037669 -0.071202
v -0.007357 -0.038969 -0.005947
v -0.019864 -0.032949 0.008128
v -0.024600 -0.025713 -0.024032
v -0.010948 -0.025224 -0.032978
v -0.021114 -0.029846 -0.020329
v -0.019737 -0.031867 -0.011385
v -0.016963 -0.031540 -0.000160
v -0.017422 -0.014357 -0.034945
v -0.013479 -0.016075 -0.036912
v -0.021518 -0.016710 -0.031265
v -0.019049 0.000694 -0.096451
v -0.008156 -0.040912 -0.039272
v -0.008857 -0.039419 -0.048686
v -0.013919 -0.036781 -0.096325
v -0.015205 -0.039053 -0.071481
v -0.015008 -0.039859 -0.037443
v -0.010696 -0.039207 -0.033779
v -0.028139 -0.039086 -0.013002
v -0.007767 -0.039008 0.004737
v -0.009662 -0.029323 -0.027033
v -0.011050 -0.031575 -0.019372
v -0.007662 -0.031579 0.005537
v -0.007989 -0.031706 -0.003630
v -0.014512 -0.011428 -0.096417
v -0.013690 0.006032 -0.095492
v -0.012559 0.022265 -0.037220
v -0.000512 -0.040452 -0.046296
v -0.002958 -0.042395 -0.043669
v -0.004146 -0.042333 -0.039955
v 0.001936 -0.039638 -0.036789
v 0.012802 -0.039011 -0.093781
v 0.002016 -0.039109 -0.052072
v 0.003822 -0.039021 -0.008513
v -0.000004 -0.033980 -0.002320
v 0.001046 -0.026772 -0.030745
v 0.004687 -0.029504 -0.024632
v -0.005493 -0.031334 -0.014884
v 0.004456 -0.030530 -0.020328
v -0.001883 -0.031586 -0.008944
v -0.000703 -0.017123 -0.095525
v -0.007983 -0.016462 -0.038058
v 0.004093 -0.022062 -0.034592
v 0.001340 -0.018097 -0.036915
v -0.002082 -0.011932 -0.038063
v -0.002457 0.010516 -0.037961
v -0.026518 -0.039019 0.009560
v -0.024593 -0.038945 0.013824
v -0.022402 -0.037191 0.017215
v -0.025021 -0.037036 0.012590
v -0.020831 -0.039030 0.019064
v -0.018962 -0.038129 0.021294
v -0.012431 -0.035564 0.021607
v -0.011761 -0.031519 0.013610
v -0.011204 -0.033030 0.017921
v -0.014619 -0.037209 0.024207
v -0.014600 -0.039046 0.024156
v -0.009832 -0.038800 0.026667
v 0.000240 -0.033990 0.002463
v 0.000109 -0.038999 0.009118
v 0.000529 -0.036863 0.003619
v 0.004840 -0.031566 0.008760
v -0.002826 -0.032686 0.020367
v -0.003059 -0.039043 0.027823
v -0.005505 -0.037283 0.027752
v 0.002933 -0.039018 0.028015
v 0.003575 -0.037334 0.028254
v -0.038905 0.010080 -0.096381
v -0.041300 0.009469 -0.094380
v -0.038967 0.022970 -0.039519
v -0.038572 0.020390 -0.066722
v -0.034397 0.013066 -0.020293
v -0.037927 0.019092 -0.094092
v -0.035932 0.023538 -0.020267
v -0.032010 0.019235 -0.021251
v -0.034807 0.020065 -0.096284
v -0.037590 0.019364 -0.084986
v -0.033635 0.024760 -0.094055
v -0.039976 0.026425 -0.048778
v -0.037024 0.030480 -0.021715
v -0.033376 0.022042 -0.019955
v -0.030016 0.029848 -0.094765
v -0.029980 0.032480 -0.071824
v -0.036790 0.034810 -0.053196
v -0.036796 0.036431 -0.028619
v -0.036370 0.037366 -0.021172
v -0.032053 0.027962 -0.018132
v -0.032931 0.035667 -0.060510
v -0.035346 0.037956 -0.045146
v -0.037773 0.035639 -0.044968
v -0.028937 0.040008 -0.039030
v -0.033936 0.038775 -0.022393
v -0.031617 0.037889 -0.016714
v -0.025848 0.013208 -0.029279
v -0.024297 0.027648 -0.026046
v -0.028815 0.025081 -0.019964
v -0.028366 0.028775 -0.096359
v -0.026848 0.032786 -0.088901
v -0.020894 0.032102 -0.095488
v -0.030888 0.031268 -0.015935
v -0.025810 0.031604 -0.016889
v -0.025031 0.035165 -0.078244
v -0.029179 0.038371 -0.058151
v -0.023707 0.039517 -0.043243
v -0.026336 0.039308 -0.024828
v -0.029093 0.034356 -0.012085
v -0.029918 0.037648 -0.012928
v -0.028155 0.038970 -0.007488
v -0.028091 0.036994 -0.005584
v -0.028213 0.038500 0.004187
v -0.026573 0.037196 0.008759
v -0.024760 0.042282 -0.036411
v -0.026634 0.041380 -0.031979
v -0.014834 0.011451 -0.096434
v -0.017830 0.022673 -0.034478
v -0.024074 0.020383 -0.029305
v -0.018588 0.031369 -0.096397
v -0.020963 0.033294 -0.022465
v -0.014104 0.036883 -0.096232
v -0.018977 0.037573 -0.087586
v -0.016804 0.038949 -0.073477
v -0.019374 0.036800 -0.010297
v -0.022733 0.041902 -0.032220
v -0.006696 0.022656 -0.038028
v -0.014380 0.030334 -0.032147
v -0.006860 0.032478 -0.032106
v -0.013430 0.038932 -0.094318
v 0.009147 0.039060 -0.066163
v -0.008992 0.039485 -0.048537
v -0.015799 0.039880 -0.037129
v -0.011123 0.040117 -0.039226
v -0.011470 0.039119 -0.033404
v -0.011684 0.035248 -0.026558
v -0.010818 0.037050 -0.021331
v -0.006821 0.039066 -0.011857
v -0.011170 0.037531 -0.005303
v -0.005645 0.037596 -0.010865
v -0.012300 0.037825 0.000004
v -0.012804 0.039062 -0.004143
v -0.000104 0.016053 -0.037488
v -0.000164 0.028736 -0.033564
v 0.012775 0.036611 -0.096365
v -0.004759 0.039235 -0.032629
v -0.003978 0.035382 -0.026744
v 0.004610 0.036986 -0.014434
v 0.000051 0.037892 -0.012258
v 0.004888 0.039078 -0.012682
v -0.003165 0.042503 -0.043287
v -0.003487 0.042209 -0.039654
v -0.026892 0.039087 0.008009
v -0.025099 0.039037 0.012965
v -0.024106 0.037262 0.014344
v -0.021182 0.038496 0.019116
v -0.018480 0.037501 0.021607
v -0.014702 0.037420 0.024079
v -0.016244 0.039073 0.022953
v -0.011553 0.039084 0.007841
v -0.011212 0.038043 0.004747
v -0.010196 0.037156 0.008837
v -0.005973 0.037984 0.010776
v -0.012318 0.038972 0.025401
v -0.009810 0.037502 0.026607
v 0.002672 0.037145 0.013824
v -0.002322 0.039013 0.013157
v 0.000007 0.037889 0.012269
v -0.004747 0.039078 0.027785
v -0.004307 0.037769 0.028123
v 0.012550 -0.037244 -0.096188
v 0.007125 -0.039032 -0.060724
v 0.009205 -0.037217 -0.033820
v 0.006475 -0.039066 -0.029938
v -0.000488 -0.036570 -0.003189
v 0.008582 -0.031589 -0.004470
v -0.002063 -0.022413 -0.096466
v 0.007173 -0.019478 -0.038946
v 0.004910 -0.009839 -0.042453
v 0.010465 -0.011064 -0.043423
v 0.018067 0.005375 -0.095518
v 0.012584 -0.038961 -0.077970
v 0.017866 -0.034999 -0.095571
v 0.010187 -0.039016 -0.069238
v 0.008446 -0.036946 -0.050490
v 0.012668 -0.032825 -0.047082
v 0.008866 -0.035891 -0.039416
v 0.011943 -0.037354 -0.028210
v 0.015436 -0.039004 -0.023378
v 0.016143 -0.035861 -0.023482
v 0.012630 -0.032018 -0.027958
v 0.011252 -0.031891 -0.017027
v 0.017171 -0.035666 -0.018614
v 0.018829 -0.033052 -0.009876
v 0.009040 -0.038990 -0.001710
v 0.016212 -0.031575 -0.006544
v 0.013830 -0.026013 -0.040959
v 0.018181 -0.023759 -0.045990
v 0.011085 -0.023899 -0.034551
v 0.009017 -0.025420 -0.030026
v 0.011614 -0.029069 -0.035265
v 0.010001 -0.029947 -0.025169
v 0.010438 -0.019522 -0.096405
v 0.016988 -0.019023 -0.042975
v 0.013595 -0.019451 -0.039677
v 0.017781 -0.011834 -0.096168
v 0.010469 0.010889 -0.043555
v 0.021899 -0.032957 -0.092780
v 0.018382 -0.035387 -0.073595
v 0.018220 -0.030621 -0.053645
v 0.020382 -0.038982 -0.019569
v 0.022901 -0.037342 -0.016607
v 0.022087 -0.035460 -0.010716
v 0.020911 -0.033081 0.005698
v 0.024549 -0.035187 0.000776
v 0.025963 -0.022934 -0.096373
v 0.023804 -0.030235 -0.094351
v 0.023239 -0.028747 -0.067611
v 0.025367 -0.018920 -0.049349
v 0.017631 -0.012414 -0.042686
v 0.021631 -0.000360 -0.043316
v 0.026157 -0.039016 -0.010489
v 0.026463 -0.037219 -0.009783
v 0.028267 -0.037202 0.002979
v 0.028068 -0.038952 -0.003557
v 0.027822 -0.039021 0.003052
v 0.026166 -0.026401 -0.079155
v 0.026979 -0.025205 -0.094333
v 0.029982 -0.017367 -0.094302
v 0.029919 -0.010982 -0.049170
v 0.027922 -0.010172 -0.045657
v 0.030833 -0.004093 -0.095996
v 0.032287 -0.005135 -0.093978
v 0.031712 -0.005292 -0.047954
v 0.030467 0.000183 -0.045217
v 0.032127 0.006197 -0.094296
v 0.032239 0.003390 -0.047963
v 0.008097 -0.039026 0.004519
v 0.006361 -0.033076 0.020235
v 0.008119 -0.037112 0.026850
v 0.009959 -0.031588 0.014682
v 0.014441 -0.033086 0.015722
v 0.019292 -0.037078 0.019982
v 0.008204 -0.038978 0.026896
v 0.011645 -0.038731 0.025898
v 0.015319 -0.037186 0.023709
v 0.016733 -0.031602 0.005221
v 0.018011 -0.038949 0.021754
v 0.022759 -0.038989 0.016321
v 0.021392 -0.038507 0.018892
v 0.026213 -0.039022 0.010505
v 0.023697 -0.037362 0.015573
v 0.025684 -0.037192 0.011718
v 0.004886 0.012097 -0.042221
v 0.000022 0.018725 -0.095813
v 0.011845 0.019006 -0.096446
v 0.003279 0.021746 -0.034776
v 0.008336 0.025593 -0.029646
v 0.006141 0.029029 -0.027945
v 0.005321 0.039026 -0.057155
v 0.000610 0.039387 -0.048777
v 0.007390 0.036843 -0.047605
v 0.008865 0.036287 -0.037430
v 0.002262 0.039548 -0.036628
v 0.007743 0.039013 -0.028869
v 0.005016 0.032979 -0.024497
v 0.005167 0.037955 -0.011026
v 0.015214 0.016018 -0.041539
v 0.013066 0.019873 -0.039150
v 0.008707 0.020323 -0.038427
v 0.011513 0.022900 -0.036100
v 0.015079 0.025294 -0.042846
v 0.011589 0.033082 -0.045418
v 0.012264 0.032015 -0.029549
v 0.011988 0.028326 -0.037185
v 0.011178 0.029786 -0.028453
v 0.013722 0.034488 -0.023889
v 0.012669 0.038964 -0.094096
v 0.012541 0.038974 -0.078167
v 0.010699 0.037228 -0.030066
v 0.014872 0.039041 -0.023897
v 0.015400 0.036075 -0.024162
v 0.016035 0.035808 -0.022667
v 0.012779 0.039045 -0.004757
v 0.010878 0.037971 -0.005841
v 0.013098 0.037121 -0.004840
v 0.012243 0.037944 0.000014
v 0.018236 0.011032 -0.042741
v 0.021608 0.007427 -0.096479
v 0.024937 0.019504 -0.049388
v 0.019222 0.021426 -0.045523
v 0.022400 0.032133 -0.093816
v 0.018609 0.030416 -0.053958
v 0.018300 0.035737 -0.094268
v 0.015693 0.036613 -0.068866
v 0.019863 0.038796 -0.020270
v 0.024237 0.039040 -0.014330
v 0.021655 0.037257 -0.017936
v 0.029159 0.012329 -0.096272
v 0.028866 0.006986 -0.045404
v 0.030464 0.015257 -0.094374
v 0.028859 0.013193 -0.049271
v 0.027768 0.012150 -0.046539
v 0.023657 0.027978 -0.096196
v 0.027751 0.023996 -0.094047
v 0.024803 0.029049 -0.077838
v 0.025572 0.037134 -0.011202
v 0.026599 0.038946 -0.009531
v 0.028169 0.037698 -0.004220
v 0.028253 0.039100 0.000047
v 0.006406 0.039077 0.011878
v 0.006029 0.037962 0.010731
v 0.010225 0.037106 0.025863
v 0.004591 0.038901 0.027890
v 0.008808 0.038567 0.027067
v 0.011151 0.037445 0.005319
v 0.012243 0.039004 0.005224
v 0.022355 0.037206 0.017092
v 0.011997 0.038896 0.025647
v 0.023302 0.039013 0.015877
v 0.016904 0.039007 0.022575
v 0.018084 0.037472 0.021823
v 0.027471 0.037319 0.006666
v 0.025604 0.037569 0.011810
v 0.025958 0.039070 0.010956
vn -0.9957 -0.0901 -0.0228
vn -0.7245 -0.6727 -0.1506
vn -0.5978 -0.7670 -0.2329
vn -0.2877 -0.9573 -0.0297
vn -0.6083 -0.7936 -0.0122
vn -0.9786 -0.1987 0.0530
vn -0.9904 -0.0091 0.1383
vn -0.9163 -0.4004 0.0050
vn -0.8027 -0.5962 0.0107
vn -0.8422 -0.5373 -0.0452
vn -0.9903 0.0426 0.1325
vn -0.2269 -0.9738 -0.0153
vn -0.8068 -0.2713 0.5248
vn -0.0874 -0.9960 0.0189
vn -0.2713 0.7223 0.6361
vn -0.4530 0.7513 0.4799
vn -0.9976 -0.0115 0.0684
vn -0.7095 -0.6035 -0.3639
vn -0.1926 0.4261 0.8839
vn 0.4474 0.8287 0.3361
vn 0.6593 0.5209 0.5422
vn -0.0046 0.0007 -1.0000
vn 0.4144 -0.8829 0.2206
vn -0.3587 0.9329 0.0330
vn 0.1163 0.9414 0.3166
vn -0.0181 -0.0017 -0.9998
vn 0.1311 0.0463 -0.9903
vn 0.2212 0.9355 0.2754
vn -0.0619 0.8969 0.4378
vn 0.1226 0.1433 -0.9821
vn 0.0043 -0.0045 1.0000
vn -0.2286 0.9698 0.0848
vn -0.1385 0.9288 0.3437
vn -0.1984 0.8627 0.4651
vn -0.9437 0.3306 0.0081
vn -0.7973 0.6035 0.0115
vn -0.4854 0.8504 -0.2030
vn -0.9758 0.2134 0.0480
vn -0.2906 0.9567 -0.0164
vn -0.9948 0.0908 0.0455
vn -0.6846 0.0103 0.7288
vn -0.2241 0.6849 -0.6933
vn -0.6249 0.7636 -0.1624
vn -0.6924 0.6765 -0.2509
vn -0.0969 0.9945 -0.0408
vn -0.3934 0.9180 -0.0502
vn -0.9123 -0.0527 0.4061
vn -0.1434 0.9897 0.0042
vn -0.7608 -0.6428 0.0896
vn 0.6386 -0.0027 0.7695
vn -0.0266 0.9993 -0.0249
vn 0.1679 -0.9222 0.3484
vn 0.2777 -0.1073 -0.9547
vn 0.4871 0.7214 0.4922
vn -0.0039 1.0000 -0.0014
vn 0.3209 0.9078 -0.2700
vn -0.0114 -0.9769 0.2133
vn 0.3737 -0.9116 -0.1715
vn 0.1253 -0.9921 -0.0002
vn -0.2714 -0.9388 0.2124
vn -0.0522 -0.9984 -0.0206
vn 0.3480 -0.9175 -0.1924
vn 0.3071 0.9357 -0.1735
vn 0.9893 0.1138 -0.0917
vn 0.6766 0.7301 0.0958
vn 0.7000 -0.0991 0.7072
vn 0.0736 0.7352 0.6739
vn 0.5949 -0.7777 0.2034
vn 0.4352 0.8986 -0.0565
vn -0.0358 -0.9992 0.0191
vn 0.7775 -0.6257 0.0633
vn 0.0073 0.0238 -0.9997
vn 0.5990 -0.1391 -0.7886
vn 0.2150 -0.0942 0.9721
vn 0.0447 0.9573 0.2855
vn 0.3495 0.8486 0.3971
vn 0.5403 -0.1011 0.8354
vn 0.0027 1.0000 -0.0009
vn 0.0033 1.0000 0.0009
vn 0.4451 0.8480 0.2877
vn -0.0537 0.0074 -0.9985
vn -0.5952 -0.4127 0.6895
vn 0.1333 -0.9189 0.3712
vn -0.4951 0.6780 0.5433
vn 0.5563 0.8265 -0.0866
vn 0.4372 0.8719 -0.2203
vn -0.3902 -0.9166 0.0867
vn 0.0116 0.0126 -0.9999
vn 0.4973 0.8676 0.0034
vn 0.7163 0.1255 -0.6864
vn 0.3291 0.2690 0.9052
vn 0.8352 0.5497 -0.0195
vn 0.2561 -0.9665 -0.0172
vn -0.0061 0.2475 0.9689
vn -0.0426 -0.9989 -0.0184
vn -0.0002 0.9999 -0.0111
vn -0.0064 1.0000 0.0037
vn 0.4587 -0.0810 0.8849
vn 0.8507 -0.0986 0.5164
vn -0.7937 -0.1368 -0.5927
vn -0.9843 -0.1758 -0.0157
vn -0.9932 -0.1154 0.0126
vn -0.9552 -0.2707 -0.1199
vn -0.2562 -0.9649 -0.0578
vn -0.6120 -0.7908 -0.0113
vn -0.4304 -0.8349 0.3430
vn -0.6256 -0.4608 0.6296
vn -0.9003 -0.3428 -0.2683
vn -0.9406 -0.3242 -0.1005
vn -0.3613 -0.4010 -0.8418
vn -0.9554 -0.2631 -0.1343
vn -0.5906 0.0115 0.8069
vn -0.0969 0.0421 0.9944
vn 0.7645 0.4473 0.4641
vn 0.2168 -0.0302 0.9757
vn -0.4697 -0.8334 -0.2914
vn 0.0150 -0.9707 0.2396
vn -0.7810 -0.5685 0.2584
vn -0.4067 0.8398 0.3595
vn -0.7833 0.6202 0.0426
vn -0.9765 0.1292 0.1725
vn -0.4982 -0.2688 -0.8243
vn -0.2721 -0.8450 -0.4603
vn -0.2726 -0.8688 -0.4133
vn -0.0941 0.4295 0.8982
vn 0.5641 0.6994 0.4389
vn 0.4706 0.7750 0.4218
vn -0.2871 0.5729 0.7677
vn 0.6336 0.4527 0.6274
vn -0.6157 -0.7051 -0.3518
vn -0.0987 -0.9933 -0.0602
vn 0.1479 0.9693 0.1963
vn 0.5295 0.3120 0.7889
vn 0.1814 0.5774 0.7960
vn -0.0001 -0.0028 -1.0000
vn -0.3058 -0.4128 -0.8579
vn -0.2628 -0.9644 -0.0294
vn -0.1870 -0.9723 -0.1403
vn -0.0778 -0.9618 0.2626
vn 0.6775 -0.6275 0.3838
vn 0.2606 0.8203 0.5092
vn -0.0336 0.9994 -0.0122
vn 0.4874 0.4553 0.7451
vn 0.4800 0.4437 0.7568
vn -0.3467 -0.9331 -0.0952
vn 0.0575 -0.8275 -0.5585
vn 0.0216 -0.9995 -0.0221
vn 0.0028 -1.0000 0.0082
vn 0.0006 0.8233 0.5676
vn -0.0341 0.9605 0.2762
vn 0.0497 0.9709 0.2342
vn 0.0112 0.9993 0.0355
vn -0.0198 0.4950 0.8687
vn -0.0563 0.6532 0.7551
vn -0.0984 0.1293 0.9867
vn -0.9101 0.0607 0.4099
vn -0.4451 0.8842 0.1413
vn -0.5403 0.8396 0.0569
vn -0.1247 -0.9895 0.0734
vn -0.5571 0.8232 0.1099
vn -0.8084 -0.1086 0.5786
vn -0.2277 0.9603 0.1612
vn -0.5433 -0.5148 0.6632
vn -0.5232 0.6208 0.5839
vn -0.5525 -0.0290 0.8330
vn -0.2902 0.9000 0.3253
vn -0.3995 0.8122 0.4252
vn -0.4647 -0.0296 0.8850
vn -0.0753 -0.9684 0.2377
vn 0.0067 1.0000 -0.0041
vn 0.3265 -0.9452 0.0091
vn 0.2833 0.9587 -0.0234
vn 0.1916 -0.9198 -0.3426
vn 0.0021 -1.0000 -0.0058
vn -0.1846 0.8376 0.5142
vn 0.0004 -1.0000 -0.0023
vn -0.0553 -0.0369 0.9978
vn -0.0312 -0.1288 0.9912
vn 0.0008 1.0000 -0.0071
vn -0.6372 0.0627 -0.7681
vn -0.9716 -0.0008 0.2366
vn -0.9766 0.2053 -0.0641
vn 0.1762 -0.0039 0.9843
vn -0.9298 0.3673 0.0234
vn -0.7603 -0.0132 0.6494
vn -0.6021 0.4600 -0.6526
vn -0.9902 -0.0519 0.1300
vn 0.5742 -0.0959 0.8131
vn -0.8276 0.5562 -0.0758
vn -0.8424 0.5368 -0.0479
vn -0.9477 0.2727 -0.1658
vn -0.9901 0.0556 0.1286
vn -0.7518 0.0193 0.6591
vn -0.2512 -0.2332 0.9394
vn 0.2625 -0.5964 0.7586
vn -0.8100 0.4513 -0.3744
vn -0.9479 0.2853 -0.1421
vn -0.6901 0.7237 0.0062
vn -0.5010 0.8654 -0.0001
vn 0.5933 -0.1438 0.7920
vn -0.8098 0.5839 0.0565
vn 0.1998 -0.3289 0.9230
vn -0.0160 -0.5493 0.8355
vn 0.7804 -0.5071 0.3657
vn 0.6663 -0.6381 0.3858
vn -0.5988 0.7973 -0.0759
vn -0.2738 0.9617 -0.0100
vn -0.4834 0.8748 0.0328
vn 0.1758 -0.0399 0.9836
vn -0.0058 0.0039 -1.0000
vn -0.1492 0.5502 -0.8216
vn 0.5167 -0.6549 0.5515
vn -0.4076 0.7940 -0.4510
vn -0.2826 0.2574 -0.9240
vn -0.5038 0.8573 -0.1054
vn -0.4049 0.9140 -0.0267
vn 0.2589 0.8651 0.4297
vn -0.0138 -0.9998 0.0156
vn 0.0002 1.0000 -0.0018
vn 0.2185 0.9158 -0.3370
vn 0.2561 0.9660 -0.0361
vn 0.1368 -0.0053 0.9906
vn 0.4610 -0.0061 0.8874
vn 0.3916 -0.4248 0.8162
vn -0.2923 0.9551 -0.0481
vn 0.0143 0.9996 -0.0260
vn 0.2321 0.9700 -0.0717
vn 0.3088 -0.9138 0.2637
vn 0.0598 -0.9971 0.0478
vn 0.0019 1.0000 0.0020
vn 0.0588 -0.9980 0.0230
vn 0.0374 0.0089 -0.9993
vn 0.0020 0.9998 -0.0221
vn -0.0363 0.9853 0.1666
vn 0.0242 -0.9464 0.3221
vn -0.0887 -0.9779 0.1892
vn -0.3210 -0.8843 0.3391
vn -0.0352 -0.9970 0.0694
vn 0.1526 0.6335 0.7585
vn -0.3505 0.9256 -0.1430
vn -0.0035 0.8687 -0.4954
vn 0.3703 0.9226 0.1076
vn -0.9402 -0.0235 0.3398
vn 0.0003 1.0000 0.0098
vn -0.8444 -0.0587 0.5325
vn -0.6815 -0.4894 0.5441
vn -0.3299 0.8986 0.2892
vn -0.6141 0.2255 0.7563
vn -0.0036 1.0000 -0.0004
vn -0.5457 0.0603 0.8358
vn 0.9930 0.0571 -0.1038
vn 0.3045 -0.9124 -0.2735
vn -0.0162 -0.9997 0.0165
vn -0.0115 -0.9998 -0.0151
vn -0.4577 -0.0532 0.8875
vn -0.0173 -0.9977 0.0656
vn -0.2937 0.2544 0.9214
vn 0.3425 0.3202 -0.8832
vn 0.4878 0.2228 -0.8440
vn 0.1592 0.7938 -0.5870
vn -0.2694 0.1543 0.9506
vn 0.0040 -1.0000 0.0032
vn 0.0025 -1.0000 -0.0033
vn 0.0041 -1.0000 -0.0066
vn 0.2800 -0.9471 0.1569
vn 0.3003 -0.9505 0.0792
vn -0.0533 -0.9604 0.2735
vn -0.1603 0.9129 0.3755
vn -0.0093 0.8008 0.5989
vn 0.0359 0.9991 0.0205
vn 0.3826 0.6502 0.6565
vn 0.4008 0.3949 0.8267
vn -0.0008 0.0009 -1.0000
vn 0.3842 -0.9131 0.1365
vn 0.9142 -0.3154 -0.2545
vn 0.7563 -0.0666 -0.6508
vn 0.0569 -0.9960 -0.0682
vn 0.6820 0.7281 0.0690
vn 0.0027 -1.0000 0.0025
vn 0.4419 0.8329 -0.3331
vn 0.0049 -0.0139 -0.9999
vn 0.7512 -0.5076 0.4221
vn 0.9233 0.0416 0.3818
vn 0.1285 0.7383 0.6622
vn 0.1044 0.9661 0.2360
vn -0.0088 0.9996 -0.0260
vn 0.7736 -0.0946 0.6265
vn 0.6901 -0.2569 0.6766
vn 0.0665 0.8367 0.5436
vn 0.3973 0.7995 0.4504
vn 0.9125 -0.0467 0.4063
vn -0.0597 0.0877 -0.9944
vn 0.1732 0.0059 0.9849
vn -0.1043 0.0051 0.9945
vn 0.6210 -0.6697 -0.4073
vn 0.5193 -0.8545 0.0098
vn 0.5543 -0.8323 -0.0038
vn 0.5545 -0.8084 0.1976
vn 0.7209 0.1241 -0.6819
vn 0.5032 0.7971 -0.3339
vn 0.3492 0.9055 -0.2410
vn 0.0021 -1.0000 0.0009
vn 0.7178 -0.6758 0.1673
vn 0.7074 -0.5803 0.4035
vn -0.0007 -0.0123 -0.9999
vn 0.8568 -0.1055 0.5047
vn 0.8859 0.0310 -0.4629
vn 0.4045 0.8859 -0.2271
vn 0.3901 0.9147 -0.1053
vn 0.9625 -0.0599 -0.2647
vn 0.9154 0.3809 -0.1299
vn 0.8456 -0.5338 0.0032
vn 0.7686 -0.6364 0.0655
vn 0.9335 -0.3578 0.0218
vn 0.8865 -0.4426 0.1348
vn 0.6091 -0.4526 0.6512
vn 0.9826 -0.1854 0.0116
vn 0.2862 -0.0449 0.9571
vn 0.8657 -0.0521 0.4978
vn -0.2647 0.9642 0.0154
vn 0.0248 0.8446 0.5348
vn -0.0026 0.9890 0.1481
vn 0.2934 0.0371 0.9553
vn 0.0031 1.0000 0.0010
vn -0.0011 -1.0000 0.0039
vn 0.2126 0.8582 0.4672
vn 0.0316 -0.9995 -0.0057
vn -0.0012 -1.0000 0.0056
vn 0.3814 0.3213 0.8668
vn 0.3350 0.9421 -0.0127
vn 0.2707 0.9432 0.1924
vn 0.3069 0.9308 0.1986
vn 0.3891 0.8747 0.2889
vn 0.4304 -0.8177 0.3822
vn 0.6379 0.4744 0.6067
vn 0.8332 -0.2545 0.4909
vn 0.9711 -0.2362 0.0336
vn 0.8887 -0.0456 0.4562
vn 0.9552 0.0891 0.2822
vn 0.5032 -0.0086 0.8641
vn -0.3207 -0.2453 0.9149
vn 0.3752 -0.5263 0.7630
vn 0.1236 -0.8485 0.5145
vn -0.3219 -0.5773 0.7504
vn 0.0033 0.6822 -0.7312
vn -0.0012 1.0000 -0.0036
vn 0.0099 0.9999 -0.0140
vn 0.4347 0.8978 -0.0710
vn -0.3411 -0.7614 0.5513
vn -0.4895 -0.6483 0.5831
vn 0.0181 0.9998 -0.0009
vn -0.0560 -0.9579 0.2816
vn -0.0946 -0.2873 0.9532
vn -0.0511 -0.0911 -0.9945
vn 0.1114 -0.4585 0.8817
vn 0.0939 -0.4861 0.8688
vn 0.0467 -0.6970 0.7156
vn 0.8598 0.4591 0.2236
vn 0.8859 -0.0128 0.4638
vn 0.1765 -0.7331 0.6569
vn 0.6160 -0.5718 0.5419
vn 0.9925 -0.0663 0.1031
vn 0.0053 0.6944 -0.7196
vn 0.3562 0.6571 -0.6644
vn 0.5791 0.7815 0.2320
vn 0.6829 0.7281 -0.0593
vn 0.9136 0.3521 -0.2031
vn 0.8921 -0.4507 -0.0327
vn 0.7865 0.1775 -0.5915
vn 0.6017 -0.7020 -0.3810
vn -0.3339 -0.8909 0.3080
vn -0.5428 0.8297 0.1304
vn 0.5799 0.1588 0.7990
vn 0.5966 0.4791 0.6439
vn 0.0184 0.0036 -0.9998
vn 0.7090 0.5795 0.4019
vn 0.7468 0.4849 0.4551
vn 0.3778 0.4604 -0.8033
vn 0.5417 0.5351 -0.6482
vn 0.6625 0.7479 0.0422
vn 0.0616 -0.9725 0.2247
vn 0.5845 0.1746 -0.7924
vn 0.5016 -0.7893 -0.3541
vn 0.7100 -0.1982 -0.6757
vn 0.8040 0.0360 -0.5935
vn 0.0022 1.0000 0.0021
vn -0.0064 -0.9999 -0.0145
vn 0.0271 0.0004 -0.9996
vn 0.6235 0.0505 -0.7802
vn 0.7551 0.2898 0.5881
vn 0.9835 0.1806 0.0086
vn 0.8194 0.3437 0.4586
vn 0.0198 0.0118 -0.9997
vn 0.9430 0.3293 0.0481
vn 0.7428 0.4705 0.4764
vn 0.8162 0.5489 0.1803
vn 0.8414 -0.2205 -0.4934
vn 0.9195 -0.2223 -0.3241
vn -0.1341 0.4284 -0.8936
vn -0.8169 0.5651 -0.1151
vn -0.9754 0.1108 -0.1904
vn -0.9669 0.2498 -0.0509
vn -0.6874 0.2657 -0.6759
vn 0.0198 -0.9997 -0.0156
vn -0.5450 0.6835 -0.4856
vn 0.0194 0.9976 0.0671
vn 0.0183 0.9982 0.0580
vn 0.4938 -0.3952 0.7746
vn 0.1372 -0.9743 0.1786
vn 0.0258 0.9993 0.0255
vn 0.9729 -0.2247 0.0546
vn 0.4137 -0.8896 0.1934
vn 0.8780 0.0629 0.4745
vn 0.9392 -0.0268 0.3422
vn -0.9882 -0.0537 0.1435
vn -0.5497 -0.8032 -0.2295
vn -0.6881 -0.3170 0.6527
vn -0.7501 -0.5694 -0.3364
vn -0.6815 0.1028 0.7246
vn -0.6554 0.0316 0.7546
vn -0.6487 -0.2910 -0.7033
vn -0.5984 -0.4272 -0.6779
vn -0.8800 -0.4750 0.0032
vn -0.5618 -0.1963 -0.8037
vn -0.9041 -0.4269 -0.0207
vn -0.5689 0.0091 0.8224
vn -0.9984 0.0192 0.0535
vn -0.1691 -0.9462 0.2759
vn -0.5474 -0.8324 -0.0861
vn -0.4724 -0.8306 -0.2947
vn -0.6334 -0.7669 0.1037
vn -0.8791 0.1798 0.4415
vn -0.8111 0.2733 0.5171
vn -0.5754 -0.7874 0.2213
vn -0.8922 -0.4516 0.0074
vn -0.4394 0.8969 0.0495
vn -0.5824 -0.5194 -0.6253
vn -0.7852 -0.6177 -0.0433
vn -0.6721 -0.7405 0.0055
vn -0.7740 -0.6142 -0.1542
vn 0.6966 0.2843 0.6588
vn 0.7526 0.2110 0.6238
vn 0.5452 0.2332 0.8052
vn 0.7746 0.0148 0.6323
vn 0.1614 -0.9437 -0.2888
vn 0.0033 -0.8946 0.4468
vn -0.4437 -0.7648 -0.4671
vn -0.4317 -0.8954 -0.1091
vn -0.1868 -0.9708 -0.1505
vn 0.0978 -0.8542 -0.5107
vn 0.0052 -1.0000 0.0012
vn -0.4094 0.9093 0.0747
vn 0.0341 0.0861 -0.9957
vn -0.1899 -0.7389 -0.6465
vn 0.3308 0.7691 0.5469
vn 0.1992 0.9620 0.1867
vn 0.0207 -0.0532 -0.9984
vn -0.7403 -0.5317 -0.4114
vn -0.1848 -0.9818 -0.0434
vn -0.0058 -0.9999 -0.0145
vn -0.0180 -0.9986 -0.0488
vn 0.0848 -0.9934 0.0769
vn 0.1335 0.9440 0.3018
vn -0.0491 0.9987 -0.0169
vn 0.0341 0.9986 0.0406
vn 0.0129 0.9998 -0.0143
vn -0.0052 -0.0056 -1.0000
vn -0.0067 -0.0032 -1.0000
vn 0.2131 0.4352 0.8748
vn 0.0845 0.0487 -0.9952
vn 0.4452 -0.0035 0.8954
vn -0.3644 -0.9236 -0.1193
vn 0.3460 -0.9297 0.1265
vn -0.1028 -0.6514 0.7517
vn -0.0070 -0.9999 -0.0107
vn -0.0492 -0.9679 -0.2465
vn -0.1049 0.9915 0.0766
vn -0.0135 0.5050 0.8630
vn -0.9465 -0.2495 0.2048
vn -0.9213 0.1428 0.3617
vn -0.8615 0.1248 0.4922
vn -0.4909 0.8683 0.0709
vn 0.0048 -1.0000 0.0002
vn -0.0212 -0.9997 0.0115
vn -0.7652 -0.0061 0.6438
vn -0.0024 -1.0000 -0.0037
vn -0.3815 0.8577 0.3445
vn -0.3870 0.8534 0.3493
vn -0.1594 0.8894 0.4285
vn -0.3387 0.3384 0.8779
vn 0.2757 0.9612 -0.0122
vn 0.2397 -0.9677 -0.0775
vn 0.1087 0.8985 -0.4252
vn 0.0013 -1.0000 -0.0004
vn -0.1717 -0.2000 0.9646
vn -0.6490 0.0605 -0.7584
vn -0.9929 0.1170 -0.0201
vn -0.9791 0.1569 -0.1293
vn -0.9868 0.0837 0.1387
vn -0.9623 -0.0004 0.2721
vn 0.8225 -0.0026 0.5688
vn -0.6575 0.2517 -0.7102
vn -0.8204 -0.0097 0.5717
vn 0.0222 0.0008 0.9998
vn -0.6080 0.2568 -0.7513
vn -0.9984 -0.0251 0.0510
vn -0.1339 -0.0221 0.9907
vn 0.8209 -0.2370 0.5195
vn -0.7192 0.4362 -0.5408
vn -0.9920 0.1098 0.0620
vn -0.5708 0.7943 -0.2080
vn -0.6880 0.7092 -0.1537
vn -0.8323 0.5539 -0.0219
vn -0.6747 0.0269 0.7376
vn -0.3675 0.8843 0.2881
vn 0.4746 0.0102 0.8801
vn -0.0041 -0.0012 -1.0000
vn 0.6144 -0.0109 0.7890
vn 0.0008 0.0093 -1.0000
vn 0.6912 -0.3527 0.6308
vn 0.7045 -0.2724 0.6554
vn -0.5095 0.3701 -0.7768
vn -0.2510 0.9130 -0.3217
vn 0.2283 -0.3267 0.9171
vn 0.1922 -0.4894 0.8506
vn 0.7746 -0.5239 0.3543
vn -0.8282 0.4446 -0.3413
vn -0.3974 0.8510 -0.3434
vn -0.1282 0.9913 -0.0291
vn -0.0927 0.9692 -0.2281
vn 0.0215 0.9605 0.2774
vn -0.0176 0.9868 0.1611
vn -0.8711 -0.0947 0.4819
vn -0.9300 -0.1466 0.3370
vn -0.9895 0.0828 0.1188
vn -0.8625 -0.3508 0.3648
vn 0.1605 -0.8052 0.5709
vn -0.9992 -0.0383 -0.0065
vn -0.4691 0.8829 -0.0186
vn -0.1220 0.9814 0.1482
vn -0.1101 0.9534 0.2809
vn 0.6662 0.0065 0.7457
vn -0.0073 0.0005 -1.0000
vn -0.0021 -0.0070 -1.0000
vn 0.6714 -0.2861 0.6836
vn 0.5523 -0.4603 0.6951
vn -0.5609 0.7381 -0.3750
vn -0.3048 0.9287 -0.2112
vn 0.5009 -0.8469 0.1786
vn 0.3162 -0.9218 0.2243
vn 0.1077 -0.8292 0.5485
vn 0.0167 0.9998 0.0070
vn 0.0035 1.0000 0.0021
vn 0.0620 -0.9971 0.0442
vn -0.2354 0.8877 -0.3956
vn 0.2043 0.0029 0.9789
vn 0.1130 -0.1469 -0.9827
vn 0.1393 -0.5044 0.8522
vn -0.6650 0.6149 -0.4239
vn -0.0896 0.9921 -0.0878
vn 0.0265 0.9850 0.1703
vn 0.3837 -0.7773 0.4985
vn 0.2201 -0.7827 0.5822
vn 0.7215 0.6827 0.1158
vn 0.7388 0.3544 0.5733
vn -0.0165 -0.0002 0.9999
vn -0.1165 -0.0352 0.9926
vn 0.0070 -0.0359 -0.9993
vn 0.1507 -0.5085 0.8477
vn -0.1025 -0.5148 0.8511
vn -0.0046 0.0336 -0.9994
vn 0.0265 -0.8849 0.4650
vn -0.3007 -0.7616 0.5741
vn -0.0193 0.9997 0.0172
vn -0.0008 1.0000 0.0026
vn 0.2098 -0.6651 0.7167
vn 0.0700 0.0697 0.9951
vn -0.2610 0.9638 0.0549
vn -0.2302 0.9104 0.3437
vn 0.1950 0.8900 0.4120
vn -0.9434 -0.0277 0.3304
vn -0.8968 -0.1922 0.3984
vn -0.0025 -0.9999 0.0129
vn -0.0023 -0.9996 -0.0264
vn 0.2793 0.9602 0.0063
vn 0.9716 0.0699 -0.2261
vn 0.6392 0.7475 -0.1809
vn 0.0041 -0.9996 0.0297
vn 0.0005 -1.0000 -0.0035
vn -0.0006 1.0000 0.0005
vn -0.5256 0.0862 0.8464
vn -0.0543 0.9903 0.1282
vn 0.1407 -0.7774 -0.6130
vn 0.0093 1.0000 -0.0029
vn 0.5687 -0.8190 -0.0763
vn -0.0080 -0.6756 -0.7373
vn 0.0095 -0.8055 -0.5925
vn 0.4452 -0.8953 -0.0133
vn 0.4625 -0.8856 -0.0432
vn 0.3921 -0.8895 -0.2345
vn 0.0064 -0.9999 0.0078
vn -0.0042 -1.0000 0.0016
vn 0.1076 -0.8672 0.4862
vn -0.4039 0.7211 0.5629
vn 0.0656 0.9629 0.2620
vn 0.0097 0.9997 -0.0220
vn -0.0379 0.1845 -0.9821
vn 0.2400 0.3812 0.8928
vn 0.3825 0.3700 0.8466
vn 0.3742 -0.7284 -0.5740
vn 0.5349 -0.8329 0.1416
vn 0.4460 -0.8852 0.1321
vn 0.6794 -0.7325 0.0440
vn 0.4023 -0.7374 -0.5426
vn 0.8937 -0.0943 -0.4385
vn 0.7630 -0.1919 -0.6172
vn 0.5052 0.8514 -0.1408
vn 0.0043 -1.0000 0.0023
vn 0.8755 -0.3970 0.2755
vn 0.9446 -0.3021 -0.1288
vn 0.8946 -0.4314 0.1168
vn 0.5859 0.6486 0.4859
vn 0.7892 0.4706 0.3946
vn 0.0885 0.9718 0.2184
vn 0.0075 -0.0114 -0.9999
vn 0.1000 0.4367 0.8941
vn -0.0185 0.4020 0.9155
vn -0.0458 0.0385 -0.9982
vn -0.1013 0.0060 0.9948
vn 0.5572 -0.8010 -0.2191
vn 0.6027 -0.1613 -0.7815
vn 0.3125 0.9442 -0.1038
vn 0.5649 0.8131 -0.1404
vn 0.4410 0.8957 -0.0573
vn 0.1934 -0.1937 -0.9618
vn 0.4563 -0.3603 -0.8136
vn 0.7978 -0.5648 0.2109
vn 0.6081 -0.4487 0.6549
vn 0.3186 -0.2508 0.9141
vn -0.2837 0.0409 -0.9581
vn 0.1608 -0.0018 0.9870
vn 0.8021 -0.3087 -0.5113
vn 0.5083 0.8581 -0.0730
vn 0.5950 -0.3731 -0.7118
vn 0.8233 -0.5674 0.0151
vn 0.7086 -0.2689 -0.6524
vn 0.8567 -0.4945 0.1471
vn 0.9459 -0.3212 0.0468
vn 0.9500 -0.3090 0.0451
vn 0.7365 -0.4340 0.5188
vn 0.7748 -0.3558 0.5226
vn -0.0369 -0.0088 -0.9993
vn 0.7719 -0.1289 -0.6225
vn 0.6814 -0.1975 0.7048
vn 0.9981 -0.0606 0.0123
vn -0.2148 -0.9048 -0.3678
vn -0.2454 -0.9694 -0.0051
vn -0.2693 -0.9619 -0.0464
vn -0.3519 0.9306 -0.1011
vn 0.0042 -1.0000 -0.0016
vn 0.0438 0.8580 0.5119
vn 0.2044 -0.2136 0.9553
vn -0.0056 0.9841 0.1774
vn 0.2130 0.9004 0.3793
vn 0.2373 0.8746 0.4228
vn -0.0165 -0.9995 0.0273
vn 0.2759 0.0364 0.9605
vn -0.1282 -0.7648 -0.6314
vn -0.0011 1.0000 0.0023
vn 0.0020 -1.0000 -0.0055
vn 0.0015 -1.0000 -0.0048
vn 0.2167 0.9640 0.1543
vn 0.5847 0.8065 0.0872
vn 0.6639 0.2218 0.7142
vn -0.0062 -1.0000 0.0019
vn 0.5929 0.3013 0.7468
vn -0.0575 -0.9983 -0.0126
vn 0.9525 -0.2247 0.2056
vn 0.8316 -0.2515 0.4952
vn 0.4161 0.9011 0.1220
vn 0.5307 0.0050 0.8476
vn -0.0013 -0.0238 -0.9997
vn 0.5263 -0.2918 0.7987
vn -0.3201 -0.3127 0.8943
vn 0.3021 -0.5503 0.7784
vn 0.0235 0.9997 -0.0005
vn 0.3197 0.9372 0.1394
vn 0.3260 0.9345 0.1430
vn 0.3513 0.9362 0.0002
vn 0.4088 0.8838 -0.2278
vn -0.0037 0.9974 0.0715
vn -0.1478 0.8067 0.5722
vn 0.2303 -0.0101 0.9731
vn 0.1193 -0.4569 0.8815
vn 0.3268 -0.8042 0.4965
vn 0.8814 0.0173 0.4721
vn 0.1472 -0.3618 0.9206
vn 0.0589 -0.6468 0.7604
vn 0.9158 -0.3737 0.1474
vn 0.3851 0.9172 0.1023
vn 0.3274 0.9341 0.1426
vn 0.3987 0.9054 0.1459
vn 0.9163 0.3645 0.1662
vn 0.9307 0.2532 -0.2641
vn 0.3161 0.8308 -0.4580
vn 0.6923 -0.7095 0.1318
vn 0.7857 0.1921 -0.5880
vn -0.0010 1.0000 -0.0042
vn -0.6226 0.4748 0.6220
vn -0.5041 -0.6598 0.5574
vn -0.1783 -0.1477 -0.9728
vn 0.6710 0.2311 0.7045
vn 0.7222 -0.0260 0.6912
vn 0.3400 0.2129 0.9160
vn 0.6023 0.3881 0.6976
vn 0.6565 0.7529 0.0466
vn 0.5466 0.8369 0.0272
vn 0.7129 0.6859 0.1457
vn 0.5745 0.7895 0.2158
vn 0.2437 -0.8536 0.4603
vn 0.1652 0.9729 -0.1615
vn 0.0159 -0.9999 0.0001
vn 0.0019 1.0000 -0.0017
vn -0.0025 1.0000 -0.0035
vn 0.1016 -0.0063 -0.9948
vn 0.8102 -0.0050 -0.5861
vn 0.2524 0.0265 0.9673
vn 0.2053 0.0752 0.9758
vn 0.7121 0.1863 0.6770
vn 0.6116 0.2184 -0.7604
vn 0.6126 0.2190 -0.7594
vn 0.9527 0.2927 0.0820
vn 0.9421 0.3316 0.0503
vn 0.8354 0.5223 0.1713
vn 0.7289 0.4927 -0.4754
vn 0.8920 -0.0989 -0.4410
vn 0.1106 0.9932 -0.0351
vn 0.8865 0.4341 -0.1601
vn 0.9999 0.0141 -0.0016
vn -0.1763 0.7342 -0.6557
vn -0.0721 -0.9422 -0.3272
vn -0.0081 1.0000 -0.0058
vn 0.0968 -0.5963 0.7969
vn 0.1150 -0.5632 0.8183
vn -0.6424 0.4104 -0.6472
vn 0.0110 -0.9999 0.0038
vn 0.0006 1.0000 0.0059
vn 0.0039 1.0000 0.0027
vn 0.1762 0.7953 0.5800
vn 0.4136 -0.3058 0.8576
vn 0.0192 -0.9992 0.0355
vn -0.0041 1.0000 0.0018
vn 0.0355 -0.9993 0.0066
vn 0.7205 0.0852 0.6882
vn 0.7266 0.2439 0.6423
vn 0.9266 0.3210 0.1959
s 0
f 3//1 1//1 8//1
f 7//2 5//2 6//2
f 6//3 5//3 4//3
f 9//4 10//4 6//4
f 10//5 11//5 7//5
f 11//6 8//6 7//6
f 17//7 8//7 11//7
f 15//8 20//8 21//8
f 22//9 15//9 21//9
f 15//10 22//10 16//10
f 12//11 25//11 17//11
f 30//12 10//12 9//12
f 75//13 14//13 10//13
f 75//14 10//14 53//14
f 35//15 48//15 36//15
f 35//16 37//16 48//16
f 39//17 34//17 38//17
f 16//18 32//18 4//18
f 46//19 18//19 36//19
f 47//20 48//20 62//20
f 49//21 50//21 60//21
f 24//22 68//22 19//22
f 53//23 29//23 73//23
f 59//24 64//24 37//24
f 48//25 37//25 63//25
f 43//26 81//26 54//26
f 68//27 82//27 81//27
f 80//28 91//28 96//28
f 77//29 93//29 92//29
f 81//30 97//30 230//30
f 102//31 98//31 101//31
f 110//32 64//32 59//32
f 119//33 110//33 111//33
f 109//34 121//34 119//34
f 3//35 129//35 125//35
f 133//36 134//36 129//36
f 145//37 159//37 144//37
f 141//38 146//38 135//38
f 148//39 147//39 145//39
f 142//40 141//40 136//40
f 149//41 142//41 156//41
f 138//42 155//42 153//42
f 139//43 158//43 134//43
f 139//44 159//44 158//44
f 159//45 160//45 177//45
f 148//46 169//46 147//46
f 163//47 149//47 156//47
f 164//48 206//48 161//48
f 167//49 166//49 165//49
f 171//50 172//50 65//50
f 160//51 186//51 177//51
f 178//52 165//52 162//52
f 68//53 170//53 82//53
f 191//54 192//54 193//54
f 177//55 184//55 183//55
f 213//56 216//56 214//56
f 366//57 223//57 218//57
f 227//58 87//58 226//58
f 227//59 69//59 87//59
f 248//60 228//60 90//60
f 237//61 225//61 235//61
f 241//62 227//62 226//62
f 245//63 249//63 247//63
f 252//64 244//64 254//64
f 244//65 255//65 243//65
f 273//66 258//66 257//66
f 231//67 252//67 258//67
f 262//68 239//68 238//68
f 249//69 267//69 247//69
f 278//70 264//70 275//70
f 261//71 271//71 262//71
f 256//72 259//72 269//72
f 285//73 282//73 269//73
f 288//74 274//74 284//74
f 119//75 292//75 294//75
f 295//76 299//76 296//76
f 301//77 299//77 298//77
f 118//78 300//78 229//78
f 118//79 294//79 300//79
f 295//80 296//80 267//80
f 308//81 198//81 309//81
f 312//82 197//82 310//82
f 201//83 319//83 330//83
f 320//84 338//84 203//84
f 204//85 317//85 314//85
f 318//86 333//86 316//86
f 340//87 338//87 339//87
f 309//88 357//88 342//88
f 332//89 347//89 331//89
f 352//90 354//90 289//90
f 356//91 341//91 353//91
f 358//92 345//92 359//92
f 376//93 360//93 362//93
f 367//94 222//94 223//94
f 366//95 369//95 360//95
f 364//96 378//96 370//96
f 370//97 378//97 337//97
f 374//98 366//98 375//98
f 373//99 371//99 377//99
f 2//100 24//100 20//100
f 2//101 20//101 1//101
f 2//102 1//102 3//102
f 5//103 7//103 8//103
f 9//104 6//104 33//104
f 7//105 6//105 10//105
f 11//106 10//106 14//106
f 13//107 11//107 14//107
f 16//108 5//108 1//108
f 17//109 11//109 12//109
f 19//110 43//110 22//110
f 1//111 5//111 8//111
f 12//112 18//112 23//112
f 18//113 46//113 23//113
f 50//114 23//114 46//114
f 23//115 50//115 27//115
f 33//116 4//116 57//116
f 10//117 30//117 53//117
f 13//118 14//118 34//118
f 35//119 40//119 37//119
f 40//120 34//120 39//120
f 35//121 34//121 40//121
f 43//122 42//122 22//122
f 44//123 42//123 45//123
f 44//124 45//124 31//124
f 46//125 36//125 47//125
f 47//126 60//126 46//126
f 60//127 47//127 62//127
f 47//128 36//128 48//128
f 46//129 60//129 50//129
f 56//130 55//130 45//130
f 33//131 72//131 9//131
f 63//132 78//132 62//132
f 65//133 67//133 66//133
f 67//134 49//134 60//134
f 81//135 19//135 68//135
f 54//136 56//136 45//136
f 55//137 56//137 72//137
f 73//138 70//138 69//138
f 73//139 69//139 74//139
f 53//140 73//140 75//140
f 77//141 61//141 62//141
f 94//142 78//142 64//142
f 66//143 67//143 61//143
f 61//144 67//144 60//144
f 86//145 69//145 85//145
f 85//146 70//146 84//146
f 70//147 72//147 89//147
f 75//148 74//148 58//148
f 77//149 92//149 61//149
f 78//150 93//150 77//150
f 95//151 93//151 94//151
f 96//152 94//152 80//152
f 98//153 99//153 100//153
f 99//154 61//154 92//154
f 98//155 100//155 101//155
f 106//156 103//156 104//156
f 106//157 41//157 39//157
f 59//158 37//158 41//158
f 104//159 103//159 107//159
f 106//160 59//160 41//160
f 105//161 104//161 107//161
f 109//162 106//162 105//162
f 108//163 107//163 113//163
f 105//164 108//164 112//164
f 108//165 113//165 112//165
f 109//166 105//166 112//166
f 111//167 106//167 109//167
f 112//168 113//168 114//168
f 114//169 113//169 120//169
f 110//170 79//170 64//170
f 228//171 76//171 58//171
f 115//172 80//172 79//172
f 76//173 117//173 116//173
f 113//174 107//174 120//174
f 109//175 119//175 111//175
f 120//176 107//176 116//176
f 123//177 121//177 120//177
f 123//178 120//178 122//178
f 110//179 118//179 79//179
f 125//180 24//180 2//180
f 3//181 17//181 126//181
f 133//182 3//182 127//182
f 23//183 27//183 128//183
f 133//184 129//184 3//184
f 26//185 23//185 130//185
f 134//186 132//186 129//186
f 126//187 25//187 136//187
f 137//188 128//188 131//188
f 139//189 133//189 127//189
f 134//190 133//190 139//190
f 127//191 135//191 140//191
f 135//192 126//192 141//192
f 136//193 130//193 142//193
f 130//194 137//194 143//194
f 156//195 130//195 143//195
f 140//196 144//196 127//196
f 140//197 135//197 146//197
f 145//198 146//198 141//198
f 142//199 148//199 145//199
f 52//200 150//200 172//200
f 138//201 134//201 158//201
f 137//202 131//202 143//202
f 143//203 152//203 156//203
f 151//204 152//204 131//204
f 174//205 157//205 151//205
f 158//206 154//206 138//206
f 161//207 149//207 164//207
f 206//208 164//208 166//208
f 150//209 67//209 172//209
f 132//210 170//210 68//210
f 155//211 173//211 153//211
f 174//212 151//212 181//212
f 176//213 155//213 154//213
f 175//214 173//214 155//214
f 176//215 154//215 158//215
f 177//216 176//216 158//216
f 161//217 188//217 179//217
f 167//218 165//218 178//218
f 213//219 195//219 206//219
f 168//220 186//220 160//220
f 179//221 186//221 168//221
f 83//222 98//222 180//222
f 171//223 65//223 83//223
f 171//224 83//224 181//224
f 183//225 176//225 177//225
f 186//226 185//226 177//226
f 179//227 188//227 186//227
f 190//228 174//228 189//228
f 178//229 193//229 192//229
f 191//230 188//230 195//230
f 178//231 190//231 193//231
f 173//232 308//232 170//232
f 184//233 177//233 185//233
f 188//234 199//234 187//234
f 190//235 189//235 200//235
f 201//236 190//236 200//236
f 201//237 200//237 319//237
f 193//238 190//238 201//238
f 202//239 191//239 193//239
f 204//240 185//240 187//240
f 314//241 185//241 204//241
f 317//242 204//242 205//242
f 206//243 167//243 207//243
f 213//244 206//244 207//244
f 207//245 208//245 209//245
f 209//246 208//246 210//246
f 212//247 207//247 209//247
f 212//248 209//248 210//248
f 212//249 213//249 207//249
f 212//250 210//250 211//250
f 213//251 194//251 195//251
f 216//252 215//252 214//252
f 210//253 215//253 366//253
f 210//254 366//254 211//254
f 217//255 211//255 218//255
f 211//256 366//256 218//256
f 217//257 218//257 222//257
f 219//258 215//258 216//258
f 220//259 216//259 213//259
f 220//260 221//260 216//260
f 222//261 218//261 223//261
f 72//262 88//262 235//262
f 72//263 235//263 225//263
f 89//264 72//264 225//264
f 89//265 225//265 238//265
f 240//266 89//266 238//266
f 74//267 69//267 227//267
f 91//268 229//268 96//268
f 93//269 253//269 99//269
f 96//270 245//270 94//270
f 100//271 99//271 231//271
f 232//272 101//272 231//272
f 234//273 97//273 82//273
f 238//274 225//274 237//274
f 244//275 226//275 254//275
f 243//276 241//276 244//276
f 227//277 242//277 264//277
f 245//278 243//278 255//278
f 248//279 90//279 227//279
f 247//280 246//280 245//280
f 224//281 71//281 230//281
f 251//282 250//282 239//282
f 252//283 254//283 250//283
f 255//284 253//284 93//284
f 95//285 255//285 93//285
f 229//286 249//286 245//286
f 258//287 250//287 251//287
f 258//288 251//288 257//288
f 253//289 231//289 99//289
f 252//290 231//290 253//290
f 252//291 250//291 258//291
f 259//292 256//292 97//292
f 260//293 232//293 233//293
f 260//294 273//294 341//294
f 261//295 236//295 270//295
f 235//296 88//296 262//296
f 262//297 88//297 261//297
f 263//298 239//298 262//298
f 265//299 264//299 243//299
f 247//300 266//300 246//300
f 266//301 265//301 246//301
f 248//302 264//302 278//302
f 271//303 263//303 262//303
f 239//304 263//304 272//304
f 256//305 269//305 224//305
f 257//306 251//306 273//306
f 276//307 275//307 265//307
f 266//308 276//308 265//308
f 268//309 276//309 266//309
f 276//310 278//310 275//310
f 277//311 278//311 276//311
f 280//312 270//312 281//312
f 280//313 271//313 261//313
f 282//314 280//314 281//314
f 280//315 272//315 271//315
f 251//316 272//316 284//316
f 286//317 287//317 282//317
f 274//318 273//318 284//318
f 290//319 288//319 287//319
f 115//320 229//320 91//320
f 119//321 121//321 293//321
f 121//322 123//322 293//322
f 293//323 123//323 297//323
f 294//324 118//324 110//324
f 304//325 116//325 291//325
f 299//326 292//326 293//326
f 122//327 116//327 298//327
f 116//328 304//328 301//328
f 299//329 293//329 298//329
f 267//330 249//330 300//330
f 295//331 300//331 294//331
f 267//332 300//332 295//332
f 267//333 296//333 306//333
f 303//334 301//334 302//334
f 296//335 303//335 305//335
f 303//336 302//336 305//336
f 277//337 279//337 278//337
f 305//338 304//338 306//338
f 304//339 277//339 306//339
f 102//340 232//340 307//340
f 180//341 196//341 310//341
f 310//342 307//342 323//342
f 310//343 323//343 311//343
f 312//344 310//344 311//344
f 183//345 198//345 175//345
f 331//346 183//346 184//346
f 314//347 184//347 185//347
f 316//348 314//348 317//348
f 200//349 197//349 319//349
f 197//350 312//350 319//350
f 203//351 318//351 199//351
f 320//352 202//352 201//352
f 321//353 260//353 341//353
f 309//354 234//354 308//354
f 323//355 307//355 260//355
f 322//356 323//356 321//356
f 324//357 323//357 322//357
f 328//358 325//358 326//358
f 325//359 324//359 322//359
f 330//360 312//360 329//360
f 329//361 311//361 324//361
f 328//362 329//362 324//362
f 331//363 198//363 183//363
f 347//364 198//364 331//364
f 346//365 315//365 326//365
f 316//366 326//366 315//366
f 316//367 327//367 328//367
f 327//368 330//368 329//368
f 335//369 327//369 333//369
f 335//370 336//370 330//370
f 339//371 320//371 201//371
f 340//372 337//372 338//372
f 344//373 321//373 341//373
f 344//374 356//374 343//374
f 357//375 309//375 198//375
f 326//376 343//376 346//376
f 325//377 344//377 326//377
f 347//378 357//378 198//378
f 347//379 345//379 357//379
f 359//380 347//380 348//380
f 201//381 336//381 351//381
f 334//382 349//382 335//382
f 336//383 335//383 351//383
f 349//384 351//384 335//384
f 350//385 351//385 349//385
f 350//386 203//386 337//386
f 339//387 351//387 360//387
f 342//388 352//388 269//388
f 289//389 285//389 352//389
f 356//390 353//390 290//390
f 290//391 289//391 354//391
f 356//392 290//392 355//392
f 352//393 342//393 357//393
f 359//394 290//394 354//394
f 356//395 355//395 343//395
f 343//396 359//396 346//396
f 350//397 360//397 351//397
f 360//398 361//398 362//398
f 364//399 221//399 220//399
f 370//400 340//400 369//400
f 340//401 339//401 369//401
f 337//402 340//402 370//402
f 219//403 365//403 369//403
f 219//404 369//404 366//404
f 370//405 365//405 364//405
f 374//406 222//406 372//406
f 372//407 222//407 367//407
f 372//408 366//408 374//408
f 366//409 371//409 375//409
f 373//410 378//410 374//410
f 363//411 376//411 362//411
f 371//412 376//412 377//412
f 373//413 377//413 378//413
f 378//414 377//414 376//414
f 17//415 3//415 8//415
f 33//416 6//416 4//416
f 13//417 12//417 11//417
f 16//418 4//418 5//418
f 12//419 13//419 36//419
f 18//420 12//420 36//420
f 19//421 21//421 20//421
f 21//422 19//422 22//422
f 1//423 15//423 16//423
f 19//424 20//424 24//424
f 15//425 1//425 20//425
f 23//426 26//426 12//426
f 25//427 12//427 26//427
f 30//428 28//428 29//428
f 57//429 32//429 31//429
f 57//430 4//430 32//430
f 30//431 9//431 28//431
f 34//432 36//432 13//432
f 35//433 36//433 34//433
f 75//434 34//434 14//434
f 34//435 75//435 38//435
f 39//436 41//436 40//436
f 42//437 44//437 22//437
f 16//438 22//438 44//438
f 16//439 44//439 31//439
f 32//440 16//440 31//440
f 51//441 50//441 49//441
f 51//442 27//442 50//442
f 67//443 51//443 49//443
f 51//444 52//444 27//444
f 73//445 29//445 28//445
f 53//446 30//446 29//446
f 55//447 31//447 45//447
f 57//448 31//448 55//448
f 33//449 57//449 72//449
f 28//450 9//450 73//450
f 38//451 75//451 58//451
f 64//452 63//452 37//452
f 42//453 43//453 54//453
f 54//454 45//454 42//454
f 61//455 60//455 62//455
f 48//456 63//456 62//456
f 81//457 43//457 19//457
f 54//458 71//458 56//458
f 57//459 55//459 72//459
f 70//460 9//460 72//460
f 73//461 9//461 70//461
f 75//462 73//462 74//462
f 78//463 77//463 62//463
f 63//464 64//464 78//464
f 64//465 80//465 94//465
f 79//466 80//466 64//466
f 54//467 230//467 71//467
f 81//468 230//468 54//468
f 98//469 66//469 61//469
f 82//470 97//470 81//470
f 83//471 65//471 66//471
f 85//472 69//472 70//472
f 87//473 86//473 85//473
f 87//474 69//474 86//474
f 72//475 56//475 88//475
f 84//476 70//476 89//476
f 94//477 93//477 78//477
f 98//478 61//478 99//478
f 103//479 39//479 38//479
f 106//480 39//480 103//480
f 105//481 106//481 104//481
f 41//482 37//482 40//482
f 107//483 38//483 58//483
f 103//484 38//484 107//484
f 108//485 105//485 107//485
f 76//486 107//486 58//486
f 106//487 111//487 59//487
f 59//488 111//488 110//488
f 112//489 121//489 109//489
f 121//490 112//490 114//490
f 115//491 91//491 80//491
f 117//492 76//492 228//492
f 79//493 118//493 115//493
f 116//494 107//494 76//494
f 121//495 114//495 120//495
f 125//496 124//496 24//496
f 125//497 2//497 3//497
f 135//498 127//498 3//498
f 126//499 135//499 3//499
f 126//500 17//500 25//500
f 52//501 128//501 27//501
f 129//502 124//502 125//502
f 130//503 136//503 26//503
f 128//504 130//504 23//504
f 132//505 124//505 129//505
f 26//506 136//506 25//506
f 130//507 128//507 137//507
f 52//508 131//508 128//508
f 134//509 138//509 132//509
f 136//510 141//510 126//510
f 145//511 144//511 140//511
f 145//512 140//512 146//512
f 142//513 145//513 141//513
f 156//514 142//514 130//514
f 142//515 149//515 148//515
f 67//516 150//516 51//516
f 124//517 68//517 24//517
f 150//518 52//518 51//518
f 132//519 68//519 124//519
f 172//520 131//520 52//520
f 151//521 131//521 172//521
f 138//522 153//522 132//522
f 138//523 154//523 155//523
f 143//524 131//524 152//524
f 157//525 156//525 152//525
f 151//526 157//526 152//526
f 144//527 139//527 127//527
f 144//528 159//528 139//528
f 145//529 160//529 159//529
f 147//530 160//530 145//530
f 161//531 169//531 148//531
f 161//532 148//532 149//532
f 163//533 156//533 162//533
f 164//534 163//534 162//534
f 164//535 162//535 165//535
f 163//536 164//536 149//536
f 162//537 156//537 157//537
f 164//538 165//538 166//538
f 169//539 168//539 147//539
f 179//540 168//540 169//540
f 161//541 179//541 169//541
f 65//542 172//542 67//542
f 132//543 173//543 170//543
f 153//544 173//544 132//544
f 171//545 151//545 172//545
f 181//546 151//546 171//546
f 155//547 176//547 175//547
f 159//548 177//548 158//548
f 174//549 178//549 157//549
f 190//550 178//550 174//550
f 162//551 157//551 178//551
f 206//552 188//552 161//552
f 206//553 195//553 188//553
f 167//554 178//554 192//554
f 168//555 160//555 147//555
f 83//556 66//556 98//556
f 170//557 308//557 82//557
f 182//558 181//558 83//558
f 176//559 183//559 175//559
f 186//560 187//560 185//560
f 186//561 188//561 187//561
f 189//562 174//562 181//562
f 182//563 189//563 181//563
f 194//564 192//564 195//564
f 195//565 192//565 191//565
f 102//566 180//566 98//566
f 196//567 180//567 102//567
f 198//568 308//568 173//568
f 182//569 83//569 180//569
f 197//570 182//570 180//570
f 175//571 198//571 173//571
f 200//572 189//572 182//572
f 200//573 182//573 197//573
f 188//574 203//574 199//574
f 191//575 203//575 188//575
f 202//576 193//576 201//576
f 202//577 203//577 191//577
f 187//578 205//578 204//578
f 199//579 205//579 187//579
f 317//580 205//580 199//580
f 206//581 166//581 167//581
f 207//582 167//582 208//582
f 208//583 167//583 215//583
f 215//584 167//584 192//584
f 194//585 215//585 192//585
f 214//586 215//586 194//586
f 213//587 214//587 194//587
f 210//588 208//588 215//588
f 366//589 215//589 219//589
f 212//590 222//590 213//590
f 217//591 212//591 211//591
f 217//592 222//592 212//592
f 221//593 219//593 216//593
f 222//594 220//594 213//594
f 87//595 85//595 84//595
f 71//596 224//596 56//596
f 88//597 56//597 224//597
f 240//598 84//598 89//598
f 240//599 87//599 84//599
f 226//600 87//600 240//600
f 227//601 58//601 74//601
f 90//602 58//602 227//602
f 228//603 58//603 90//603
f 93//604 99//604 92//604
f 94//605 245//605 95//605
f 96//606 229//606 245//606
f 97//607 256//607 230//607
f 232//608 231//608 233//608
f 231//609 101//609 100//609
f 224//610 236//610 88//610
f 238//611 237//611 235//611
f 238//612 235//612 262//612
f 239//613 240//613 238//613
f 242//614 227//614 241//614
f 244//615 241//615 226//615
f 241//616 243//616 242//616
f 245//617 246//617 243//617
f 248//618 227//618 264//618
f 239//619 250//619 240//619
f 240//620 254//620 226//620
f 250//621 254//621 240//621
f 253//622 255//622 252//622
f 252//623 255//623 244//623
f 95//624 245//624 255//624
f 230//625 256//625 224//625
f 233//626 231//626 258//626
f 258//627 273//627 233//627
f 234//628 259//628 97//628
f 260//629 233//629 273//629
f 261//630 88//630 236//630
f 243//631 264//631 242//631
f 243//632 246//632 265//632
f 247//633 268//633 266//633
f 267//634 268//634 247//634
f 269//635 236//635 224//635
f 236//636 269//636 270//636
f 272//637 263//637 271//637
f 272//638 251//638 239//638
f 273//639 251//639 284//639
f 234//640 342//640 259//640
f 341//641 273//641 274//641
f 275//642 264//642 265//642
f 268//643 277//643 276//643
f 270//644 269//644 281//644
f 280//645 261//645 270//645
f 282//646 281//646 269//646
f 283//647 272//647 280//647
f 282//648 283//648 280//648
f 287//649 283//649 282//649
f 283//650 284//650 272//650
f 287//651 284//651 283//651
f 259//652 342//652 269//652
f 285//653 286//653 282//653
f 288//654 284//654 287//654
f 286//655 290//655 287//655
f 291//656 116//656 117//656
f 117//657 228//657 248//657
f 248//658 291//658 117//658
f 118//659 229//659 115//659
f 122//660 120//660 116//660
f 292//661 119//661 293//661
f 297//662 123//662 122//662
f 119//663 294//663 110//663
f 292//664 295//664 294//664
f 292//665 299//665 295//665
f 298//666 116//666 301//666
f 298//667 293//667 297//667
f 297//668 122//668 298//668
f 300//669 249//669 229//669
f 304//670 291//670 248//670
f 304//671 248//671 278//671
f 296//672 305//672 306//672
f 306//673 268//673 267//673
f 301//674 296//674 299//674
f 301//675 304//675 302//675
f 303//676 296//676 301//676
f 304//677 278//677 279//677
f 277//678 304//678 279//678
f 304//679 305//679 302//679
f 306//680 277//680 268//680
f 102//681 101//681 232//681
f 308//682 234//682 82//682
f 196//683 102//683 307//683
f 310//684 197//684 180//684
f 310//685 196//685 307//685
f 332//686 331//686 184//686
f 314//687 313//687 184//687
f 314//688 315//688 313//688
f 316//689 315//689 314//689
f 318//690 316//690 317//690
f 199//691 318//691 317//691
f 202//692 320//692 203//692
f 307//693 232//693 260//693
f 321//694 323//694 260//694
f 324//695 311//695 323//695
f 325//696 328//696 324//696
f 312//697 311//697 329//697
f 330//698 319//698 312//698
f 327//699 329//699 328//699
f 348//700 332//700 184//700
f 313//701 315//701 184//701
f 348//702 184//702 315//702
f 326//703 316//703 328//703
f 316//704 333//704 327//704
f 318//705 334//705 333//705
f 335//706 330//706 327//706
f 334//707 335//707 333//707
f 203//708 334//708 318//708
f 338//709 337//709 203//709
f 339//710 338//710 320//710
f 234//711 309//711 342//711
f 344//712 325//712 322//712
f 344//713 322//713 321//713
f 344//714 341//714 356//714
f 326//715 344//715 343//715
f 347//716 359//716 345//716
f 347//717 332//717 348//717
f 346//718 359//718 348//718
f 315//719 346//719 348//719
f 201//720 330//720 336//720
f 334//721 350//721 349//721
f 339//722 201//722 351//722
f 203//723 350//723 334//723
f 363//724 350//724 337//724
f 352//725 285//725 269//725
f 285//726 289//726 286//726
f 353//727 341//727 274//727
f 288//728 353//728 274//728
f 290//729 353//729 288//729
f 358//730 354//730 357//730
f 354//731 352//731 357//731
f 358//732 359//732 354//732
f 359//733 355//733 290//733
f 343//734 355//734 359//734
f 357//735 345//735 358//735
f 350//736 361//736 360//736
f 363//737 361//737 350//737
f 363//738 362//738 361//738
f 289//739 290//739 286//739
f 364//740 365//740 221//740
f 219//741 221//741 365//741
f 222//742 364//742 220//742
f 367//743 223//743 366//743
f 367//744 366//744 368//744
f 365//745 370//745 369//745
f 371//746 366//746 360//746
f 374//747 378//747 364//747
f 222//748 374//748 364//748
f 368//749 372//749 367//749
f 372//750 368//750 366//750
f 369//751 339//751 360//751
f 378//752 363//752 337//752
f 371//753 360//753 376//753
f 371//754 373//754 374//754
f 371//755 374//755 375//755
f 378//756 376//756 363//756
