# Blender 4.3.2
# www.blender.org
o link5
v -0.008032 -0.034490 -0.127772
v -0.004779 -0.034973 -0.130274
v 0.007582 -0.035849 -0.125929
v 0.005206 -0.035259 -0.130067
v 0.004015 -0.034238 -0.128715
v -0.033356 -0.030497 -0.042791
v -0.030911 -0.030739 -0.033130
v -0.033958 -0.013364 -0.046382
v -0.031313 -0.020056 -0.031145
v -0.031299 -0.019903 -0.007756
v -0.037011 -0.005377 -0.046612
v -0.035167 -0.012964 -0.012173
v -0.035871 -0.002897 -0.056701
v -0.034669 0.002473 -0.059524
v -0.037989 0.001013 -0.049788
v -0.037979 -0.000808 -0.008217
v -0.037038 -0.006517 -0.011548
v -0.036444 -0.001682 -0.005842
v -0.022854 -0.032200 -0.067185
v -0.030341 -0.032205 -0.035712
v -0.020207 -0.032118 -0.017743
v -0.026856 -0.030512 -0.065378
v -0.029885 -0.032124 -0.056499
v -0.030271 -0.029931 -0.059790
v -0.033264 -0.030416 -0.050206
v -0.023398 -0.030822 -0.020597
v -0.027323 -0.027142 -0.023986
v -0.028240 -0.023217 -0.018477
v -0.022715 -0.029131 -0.013312
v -0.027301 -0.025109 -0.007714
v -0.027180 -0.009827 -0.065502
v -0.031653 -0.011908 -0.057189
v -0.032852 -0.015837 -0.027719
v -0.030544 -0.018742 -0.005629
v -0.032414 -0.008068 -0.006032
v -0.030265 -0.000876 -0.065357
v -0.028764 -0.002192 -0.005380
v -0.016963 -0.035210 -0.083261
v -0.017251 -0.035384 -0.079137
v -0.020792 -0.030608 -0.071982
v -0.019325 -0.032852 -0.072078
v -0.016812 -0.034793 -0.076584
v -0.011102 -0.032637 -0.063715
v -0.019696 -0.032410 -0.057840
v -0.018470 -0.032459 -0.036549
v -0.013360 -0.032461 -0.025417
v -0.016911 -0.022943 -0.087892
v -0.016791 -0.026367 -0.091796
v -0.017483 -0.032027 -0.007349
v -0.022407 -0.027938 -0.006195
v -0.016378 -0.030469 -0.005670
v -0.013191 -0.025312 -0.005323
v -0.016923 -0.018613 -0.083508
v -0.018738 -0.013090 -0.075066
v -0.024187 -0.013402 -0.005225
v -0.016060 -0.009780 -0.077830
v -0.015476 -0.013566 -0.079833
v -0.016139 -0.005551 -0.076736
v -0.017851 -0.013428 -0.003351
v -0.020310 -0.003227 -0.072029
v -0.021249 0.000749 -0.003320
v -0.015220 0.007767 -0.000051
v -0.009951 -0.034962 -0.122396
v -0.008443 -0.035821 -0.126547
v -0.013695 -0.034987 -0.111948
v -0.011176 -0.034332 -0.114634
v -0.011131 -0.034939 -0.116649
v -0.005761 -0.035767 -0.113846
v -0.014832 -0.035031 -0.105296
v -0.011114 -0.035768 -0.114887
v -0.013190 -0.034246 -0.106554
v 0.002996 -0.035790 -0.100137
v -0.016946 -0.034753 -0.092698
v -0.014592 -0.032580 -0.099608
v -0.015013 -0.035791 -0.092864
v -0.014851 -0.035053 -0.102470
v -0.012997 -0.033576 -0.058556
v -0.010957 -0.032370 -0.052529
v -0.013028 -0.033578 -0.031563
v -0.015252 -0.030547 -0.096330
v -0.015215 -0.023707 -0.089246
v -0.014026 -0.029116 -0.094228
v -0.010148 -0.024924 -0.084093
v 0.009124 -0.028604 -0.005423
v -0.015178 -0.019448 -0.084947
v -0.008139 -0.021037 -0.079111
v -0.004668 -0.016574 -0.075388
v -0.002653 -0.021041 -0.002805
v -0.004574 -0.016443 -0.000015
v -0.008979 -0.006844 -0.073952
v -0.014133 -0.010100 -0.000015
v -0.005879 -0.035067 -0.118423
v -0.005310 -0.034750 -0.123297
v -0.002951 -0.034946 -0.125663
v 0.001233 -0.035085 -0.126438
v -0.002456 -0.035022 -0.114851
v -0.005113 -0.034351 -0.113785
v -0.005886 -0.032522 -0.092420
v -0.000875 -0.034006 -0.094677
v -0.004813 -0.035869 -0.089872
v 0.018597 -0.032696 -0.071908
v 0.011902 -0.032391 -0.065832
v 0.002206 -0.032124 -0.035607
v 0.017686 -0.031917 -0.007122
v -0.002253 -0.028060 -0.083926
v -0.000944 -0.022420 -0.078159
v 0.016998 -0.030666 -0.005827
v 0.002867 -0.024708 -0.004564
v 0.005524 -0.016392 -0.000008
v -0.004376 -0.007865 -0.000020
v -0.007451 0.004046 -0.000009
v 0.000154 -0.000029 -0.002120
v -0.006851 0.035466 -0.128857
v -0.004680 0.034599 -0.130184
v 0.005105 0.034694 -0.130010
v -0.035700 0.008861 -0.050308
v -0.037410 0.005894 -0.007397
v -0.034807 0.010607 -0.005804
v -0.036369 0.013299 -0.048078
v -0.036321 0.011994 -0.042723
v -0.034643 0.012811 -0.032338
v -0.035119 0.017367 -0.037786
v -0.035058 0.012457 -0.018761
v -0.029614 0.018402 -0.021531
v -0.035669 0.012114 -0.007777
v -0.031874 0.019131 -0.012864
v -0.032726 0.017913 -0.007416
v -0.038593 0.023530 -0.048303
v -0.038848 0.024039 -0.043330
v -0.038922 0.020713 -0.045175
v -0.037325 0.028677 -0.047765
v -0.033705 0.027948 -0.052823
v -0.030740 0.032051 -0.053639
v -0.033353 0.029636 -0.038167
v -0.037675 0.028521 -0.043710
v -0.029776 0.030757 -0.030920
v -0.025552 0.007268 -0.067689
v -0.030664 0.009325 -0.060668
v -0.032438 0.016394 -0.053598
v -0.026005 0.017870 -0.063521
v -0.028028 0.022688 -0.059432
v -0.031013 0.022894 -0.034156
v -0.027093 0.024803 -0.018461
v -0.027670 0.024425 -0.007297
v -0.026319 0.024014 -0.005702
v -0.026447 0.030580 -0.065760
v -0.025624 0.032235 -0.063852
v -0.029533 0.030523 -0.061029
v -0.030312 0.032201 -0.036116
v -0.023598 0.030874 -0.020904
v -0.027485 0.027873 -0.025135
v -0.021378 0.032196 -0.020115
v -0.016419 0.011479 -0.076534
v -0.018009 0.014335 -0.003652
v -0.019569 0.012400 -0.072788
v -0.017303 0.019520 -0.071226
v -0.026728 0.013132 -0.065608
v -0.015414 0.024069 -0.005274
v -0.021911 0.021036 -0.067803
v -0.018665 0.031478 -0.073420
v -0.022899 0.030214 -0.069614
v -0.019636 0.032299 -0.070677
v -0.016227 0.027065 -0.072926
v -0.018806 0.032188 -0.014389
v -0.022417 0.028877 -0.007100
v -0.016753 0.032136 -0.007397
v -0.015991 0.032685 -0.077800
v -0.014040 0.017521 -0.075047
v -0.007711 0.018803 -0.073613
v -0.011400 0.012769 -0.000001
v -0.012556 0.023931 -0.076484
v -0.013269 0.032652 -0.086191
v -0.012216 0.029044 -0.080223
v -0.016491 0.030612 -0.005757
v -0.009904 0.035027 -0.122445
v -0.009039 0.035367 -0.126214
v -0.008219 0.034341 -0.126626
v -0.012515 0.034942 -0.114142
v -0.010729 0.034719 -0.117633
v -0.005678 0.034668 -0.118921
v -0.005565 0.035740 -0.114696
v -0.014940 0.035479 -0.105119
v -0.014032 0.034372 -0.110831
v -0.015088 0.034942 -0.084137
v -0.013477 0.034286 -0.092697
v -0.014312 0.035769 -0.078522
v -0.006267 0.031340 -0.081630
v -0.016504 0.033760 -0.075164
v 0.003535 0.008404 -0.000003
v -0.003060 0.025608 -0.076539
v 0.004492 0.018622 -0.075969
v -0.004164 0.021743 -0.003285
v 0.004468 0.024984 -0.004662
v 0.000216 0.030940 -0.084022
v -0.008504 0.035767 -0.122291
v -0.004708 0.034879 -0.124218
v -0.001373 0.035001 -0.126321
v 0.002742 0.035036 -0.125896
v -0.005126 0.035820 -0.092622
v -0.003052 0.034973 -0.115413
v 0.002367 0.035757 -0.112759
v -0.006514 0.034200 -0.089957
v 0.002580 0.036251 -0.080063
v 0.004215 0.032924 -0.071785
v 0.000358 0.032499 -0.059160
v 0.008486 -0.034503 -0.127233
v 0.004719 -0.035007 -0.124246
v 0.005562 -0.035011 -0.118733
v 0.003047 -0.034999 -0.115416
v 0.005296 -0.035728 -0.114476
v 0.005888 -0.034311 -0.115240
v 0.010411 -0.036004 -0.096548
v 0.003966 -0.039001 -0.087013
v 0.006439 -0.039200 -0.088949
v 0.007536 -0.031642 -0.093124
v 0.008083 -0.037686 -0.084346
v 0.013607 -0.032423 -0.025304
v 0.007100 -0.026741 -0.084965
v 0.007445 -0.020552 -0.079086
v 0.001569 -0.014881 -0.074334
v 0.007714 -0.003558 -0.000019
v 0.004183 0.009408 -0.074384
v 0.009901 -0.035026 -0.122424
v 0.010673 -0.035633 -0.117340
v 0.010375 -0.034475 -0.117447
v 0.007734 -0.034253 -0.103235
v 0.012560 -0.034923 -0.114054
v 0.013197 -0.035773 -0.110996
v 0.014096 -0.033626 -0.102663
v 0.013958 -0.034551 -0.110765
v 0.014871 -0.035134 -0.105221
v 0.014874 -0.035137 -0.102046
v 0.012478 -0.030960 -0.096786
v 0.015027 -0.032145 -0.098306
v 0.016967 -0.034662 -0.092439
v 0.014634 -0.036280 -0.086984
v 0.002805 -0.036103 -0.079642
v 0.013784 -0.033372 -0.058323
v 0.013833 -0.033512 -0.031424
v 0.018962 -0.032437 -0.035388
v 0.016899 -0.025606 -0.090959
v 0.015636 -0.021255 -0.087004
v 0.013303 -0.025417 -0.090591
v 0.013868 -0.015902 -0.081972
v 0.016793 -0.015960 -0.082064
v 0.010665 -0.019204 -0.003258
v 0.013765 -0.009009 -0.079483
v 0.009316 -0.010486 -0.076248
v 0.014801 -0.009060 -0.000019
v 0.013697 0.007433 -0.079399
v 0.017063 -0.035138 -0.088545
v 0.016961 -0.035044 -0.084073
v 0.017229 -0.035225 -0.077405
v 0.018220 -0.033498 -0.076337
v 0.020615 -0.031281 -0.072147
v 0.029586 -0.032168 -0.057421
v 0.020530 -0.032418 -0.057218
v 0.022974 -0.032014 -0.022181
v 0.018719 -0.032003 -0.012927
v 0.016961 -0.028271 -0.093139
v 0.016960 -0.019930 -0.084632
v 0.026934 -0.025425 -0.007778
v 0.025987 -0.024112 -0.005746
v 0.019408 -0.013755 -0.073971
v 0.017295 -0.010909 -0.079857
v 0.019382 -0.005804 -0.078731
v 0.024271 -0.007060 -0.069558
v 0.018842 -0.011520 -0.003280
v 0.025051 -0.008491 -0.003632
v 0.022424 -0.001651 -0.078909
v 0.022174 -0.000122 -0.000300
v 0.030462 -0.032184 -0.036439
v 0.028955 -0.030394 -0.062421
v 0.032383 -0.030496 -0.053827
v 0.031683 -0.030512 -0.035022
v 0.031861 -0.019573 -0.033832
v 0.028065 -0.030189 -0.027363
v 0.026658 -0.025530 -0.018816
v 0.031983 -0.012071 -0.056335
v 0.031109 -0.018859 -0.005992
v 0.029899 -0.011882 -0.005356
v 0.028296 -0.010228 -0.063796
v 0.025485 -0.002008 -0.070364
v 0.033448 -0.001989 -0.061409
v 0.029368 -0.000728 -0.004680
v 0.033405 -0.030481 -0.043617
v 0.033977 -0.013064 -0.046927
v 0.032492 -0.016484 -0.027581
v 0.034603 -0.014296 -0.012058
v 0.037034 -0.006538 -0.011627
v 0.033013 -0.006809 -0.006225
v 0.037479 -0.003462 -0.050957
v 0.038004 -0.000688 -0.008202
v 0.036791 -0.001711 -0.006116
v 0.020239 -0.004702 0.000705
v 0.002149 0.035708 -0.129982
v 0.009006 0.035576 -0.126278
v 0.007729 0.034409 -0.128160
v -0.004087 0.016683 -0.000022
v 0.008379 0.023280 -0.081077
v 0.004865 0.017167 -0.000495
v 0.008926 0.027136 -0.087563
v 0.017647 0.032008 -0.007314
v 0.017800 0.030490 -0.005783
v 0.008873 0.034406 -0.120805
v 0.008314 0.035734 -0.121931
v 0.005360 0.034984 -0.122618
v 0.005212 0.034996 -0.117483
v 0.001481 0.035003 -0.114609
v -0.000277 0.034313 -0.111644
v 0.008459 0.033832 -0.101569
v 0.008213 0.032103 -0.095337
v 0.002472 0.032015 -0.090734
v 0.003374 0.038785 -0.089263
v 0.005357 0.038823 -0.085724
v 0.006071 0.033044 -0.070841
v 0.010657 0.012195 -0.077338
v 0.015536 0.007950 0.000053
v 0.014079 0.013793 -0.080922
v 0.011075 0.013275 -0.000023
v 0.013883 0.020269 -0.085851
v 0.015961 0.021638 -0.087398
v 0.013071 0.029291 -0.094858
v 0.009955 0.034962 -0.122420
v 0.010700 0.035056 -0.117671
v 0.013730 0.034357 -0.111325
v 0.012412 0.035378 -0.114165
v 0.013140 0.035871 -0.097716
v 0.014613 0.034346 -0.105175
v 0.014270 0.035767 -0.106010
v 0.014743 0.032825 -0.099431
v 0.014918 0.035067 -0.102036
v 0.015415 0.035016 -0.097033
v 0.007498 0.038785 -0.089297
v 0.011341 0.037261 -0.087722
v 0.010285 0.032406 -0.059460
v 0.019484 0.009599 -0.079497
v 0.023174 0.009344 -0.072238
v 0.022539 0.005606 -0.078880
v 0.017265 0.014376 -0.081315
v 0.019160 0.015727 -0.074691
v 0.016934 0.012824 -0.003005
v 0.018574 0.020384 -0.005293
v 0.016986 0.019189 -0.083846
v 0.018155 0.032427 -0.076830
v 0.016991 0.024857 -0.089643
v 0.016490 0.028404 -0.093702
v 0.017024 0.034901 -0.091304
v 0.020820 0.031025 -0.071911
v 0.025472 0.032176 -0.026923
v 0.019572 0.031831 -0.014283
v 0.016933 0.035273 -0.084347
v 0.017200 0.035266 -0.077811
v 0.018321 0.033260 -0.073813
v 0.021784 0.032141 -0.068765
v 0.025144 0.010446 -0.067950
v 0.025665 0.004224 -0.069723
v 0.034677 0.002751 -0.059443
v 0.029635 0.010645 -0.061677
v 0.025355 0.009017 -0.003915
v 0.028745 0.022923 -0.020373
v 0.027054 0.025364 -0.007560
v 0.028915 0.021081 -0.005845
v 0.027379 0.030467 -0.064662
v 0.030226 0.032174 -0.055574
v 0.031445 0.030552 -0.056682
v 0.029382 0.030986 -0.030274
v 0.028686 0.026017 -0.026215
v 0.023707 0.030428 -0.020492
v 0.030808 0.032131 -0.037978
v 0.033446 0.012404 -0.051616
v 0.037560 0.003289 -0.049782
v 0.037143 0.006928 -0.007301
v 0.035120 0.010059 -0.005851
v 0.033878 0.013207 -0.036621
v 0.034645 0.014767 -0.007506
v 0.032841 0.019118 -0.038242
v 0.033205 0.030691 -0.048473
v 0.032523 0.030684 -0.038051
v 0.020306 0.004911 0.000625
vn -0.8914 -0.4065 -0.2006
vn -0.4712 -0.8819 -0.0138
vn -0.4651 -0.8851 -0.0154
vn -0.7008 -0.7105 -0.0637
vn -0.0339 -0.9994 -0.0110
vn -0.9283 0.0566 -0.3674
vn -0.8895 0.0240 -0.4563
vn -0.7540 -0.0271 -0.6563
vn -0.0318 -0.0376 0.9988
vn -0.0348 -0.0456 0.9984
vn -0.2832 -0.0700 0.9565
vn -0.0239 -0.9982 0.0555
vn -0.0369 -0.9983 -0.0447
vn 0.0161 -0.9999 0.0020
vn 0.4093 0.6253 -0.6645
vn 0.5821 0.5105 -0.6329
vn -0.1431 -0.2164 0.9658
vn -0.3201 -0.5856 0.7447
vn -0.0474 -0.9988 0.0124
vn 0.0129 -0.9996 0.0237
vn 0.0016 -0.9995 -0.0307
vn 0.0021 -0.5181 0.8553
vn 0.3052 0.0779 0.9491
vn -0.9269 0.2519 -0.2783
vn -0.9866 0.0499 0.1555
vn -0.8895 0.4556 -0.0353
vn -0.7466 0.1256 0.6533
vn -0.7155 0.4036 -0.5703
vn -0.7869 0.2535 0.5626
vn -0.7495 -0.0045 -0.6620
vn -0.6981 0.1111 -0.7073
vn -0.2973 0.0941 0.9501
vn -0.5148 -0.2190 -0.8289
vn -0.0067 1.0000 0.0040
vn 0.2643 -0.2689 -0.9262
vn -0.1311 0.1969 0.9716
vn 0.1923 -0.8244 -0.5324
vn 0.1122 -0.2840 0.9522
vn 0.0152 0.5421 0.8402
vn -0.0496 0.4996 0.8648
vn -0.0001 -0.0009 1.0000
vn -0.2622 -0.9426 -0.2067
vn -0.0026 -0.9252 0.3796
vn -0.2533 0.0253 -0.9670
vn -0.1133 0.3178 0.9414
vn 0.1021 -0.9920 -0.0737
vn 0.4026 -0.6303 0.6638
vn 0.1205 -0.9860 0.1156
vn -0.3929 0.3165 -0.8634
vn 0.3204 -0.4041 0.8568
vn 0.3571 -0.9261 -0.1219
vn 0.4405 -0.8973 0.0289
vn 0.5109 -0.8585 -0.0438
vn 0.0269 -0.9992 -0.0300
vn 0.0374 -0.9991 0.0184
vn 0.9443 -0.0350 -0.3272
vn 1.0000 0.0010 0.0007
vn 1.0000 0.0001 -0.0000
vn 0.9870 0.1148 -0.1125
vn 0.9969 0.0680 -0.0401
vn 0.8664 0.0077 -0.4993
vn 0.0302 -0.0415 0.9987
vn 0.2425 -0.2553 0.9360
vn 0.0218 -0.9998 -0.0017
vn 0.8335 -0.5484 0.0676
vn 0.5637 -0.8242 -0.0552
vn 0.9799 -0.0373 0.1962
vn 0.9781 -0.0071 -0.2081
vn 0.8689 -0.3173 -0.3798
vn 0.1692 -0.1463 0.9747
vn -0.1894 -0.1602 -0.9687
vn 0.0008 0.0029 1.0000
vn -0.5590 0.0020 -0.8292
vn 0.9870 -0.1485 -0.0615
vn 0.1537 0.9415 0.3000
vn 0.0675 0.9977 -0.0016
vn 0.0596 0.0054 -0.9982
vn 0.9415 0.0075 -0.3369
vn 0.9457 -0.0136 -0.3249
vn 0.0721 -0.2365 -0.9690
vn 0.8782 -0.0084 -0.4783
vn 0.9939 -0.0001 -0.1100
vn 0.3138 0.9483 -0.0466
vn 0.7374 0.6396 -0.2173
vn 0.0008 0.9985 0.0556
vn -0.0138 0.9997 0.0208
vn 0.7381 0.3005 -0.6040
vn 0.9538 0.2228 0.2017
vn 0.0497 0.0521 0.9974
vn 0.9486 0.0208 0.3158
vn 0.8212 0.2875 0.4929
vn 0.0127 0.9999 0.0021
vn 0.8937 0.3458 -0.2859
vn 0.1906 0.0050 0.9817
vn 0.3942 0.9186 0.0264
vn 0.9975 0.0263 0.0652
vn -0.0048 -0.0040 1.0000
vn -0.5870 -0.4427 -0.6778
vn -0.9782 0.0068 -0.2077
vn -0.9992 -0.0377 -0.0128
vn -0.9852 0.0014 0.1716
vn -0.9370 -0.3492 0.0092
vn -0.8631 -0.5038 -0.0354
vn -0.8224 -0.1093 -0.5582
vn -0.8358 -0.3729 0.4030
vn -0.7347 -0.4779 0.4815
vn -0.6809 -0.6439 -0.3491
vn -0.4858 -0.8158 -0.3138
vn -0.7849 -0.4063 0.4678
vn -0.7736 -0.5698 0.2772
vn -0.9537 -0.0299 -0.2994
vn -0.7914 -0.6081 -0.0623
vn -0.6783 -0.5166 0.5226
vn -0.8608 -0.1323 0.4914
vn -0.5770 -0.1859 -0.7953
vn -0.7892 -0.3419 -0.5102
vn -0.2547 -0.9316 0.2594
vn -0.0225 -0.9996 -0.0161
vn -0.3304 -0.9316 0.1514
vn -0.0274 -0.9994 0.0202
vn -0.9997 -0.0055 -0.0257
vn -0.9976 0.0013 -0.0697
vn -0.8368 -0.5452 -0.0502
vn -0.6734 -0.4143 -0.6123
vn -0.5407 -0.8068 0.2381
vn -0.5752 -0.8104 0.1109
vn -1.0000 0.0023 -0.0052
vn -0.9811 -0.0306 -0.1909
vn -0.7366 -0.0156 -0.6762
vn -0.7895 0.1398 -0.5976
vn 0.3609 0.4791 -0.8001
vn -0.7308 0.0918 -0.6764
vn -0.4531 -0.0258 0.8911
vn -0.8955 -0.4060 -0.1823
vn -0.9410 -0.0205 -0.3377
vn -0.4937 0.8296 -0.2609
vn -0.0007 -1.0000 0.0044
vn -0.6384 0.7525 -0.1618
vn -0.4768 0.8757 -0.0756
vn -0.3449 0.9337 -0.0960
vn -0.8711 0.4077 -0.2736
vn 0.3573 0.8242 -0.4394
vn -0.0290 -0.9727 0.2301
vn -0.1415 -0.9604 0.2400
vn 0.0269 -0.9687 -0.2469
vn -0.0311 -0.9994 0.0169
vn 0.1969 0.7532 -0.6276
vn -0.1884 0.7355 -0.6508
vn -0.2330 0.6916 -0.6837
vn 0.6645 0.5279 -0.5289
vn 0.0007 -0.0008 1.0000
vn -0.0765 0.9964 -0.0376
vn 0.1222 -0.9716 0.2024
vn 0.0609 -0.8724 0.4850
vn 0.6141 -0.7890 0.0204
vn 0.1727 -0.9730 -0.1533
vn 0.0019 0.9999 -0.0102
vn -0.0014 -0.9084 0.4182
vn 0.4760 -0.8793 0.0148
vn 0.0030 -0.9996 0.0271
vn 0.3197 0.7757 -0.5442
vn 0.0437 0.8766 -0.4792
vn -0.0354 -0.2689 0.9625
vn -0.0010 -0.7193 0.6947
vn 0.2225 0.6713 -0.7070
vn -0.0245 -0.4622 0.8865
vn -0.5868 -0.5192 -0.6214
vn -0.9476 0.0459 -0.3162
vn -0.9965 0.0840 0.0039
vn -0.6222 0.0805 0.7787
vn -0.8978 0.0822 -0.4327
vn -0.9464 0.2637 -0.1863
vn -0.9903 -0.1369 -0.0245
vn -0.9850 0.0797 0.1529
vn -0.9630 0.2675 -0.0327
vn -0.2018 0.9792 0.0194
vn -0.7393 0.3390 0.5818
vn -0.7519 -0.1774 -0.6349
vn -0.9348 -0.2095 -0.2869
vn -0.9053 -0.1904 0.3797
vn -0.8436 0.3733 0.3860
vn -0.8901 0.4541 -0.0378
vn -0.5188 0.3225 0.7917
vn -0.7697 0.2509 -0.5871
vn -0.9970 0.0535 -0.0565
vn -0.9663 0.2464 -0.0747
vn -0.7460 0.1297 0.6532
vn -0.8932 -0.0437 0.4476
vn -0.7198 0.3176 -0.6172
vn -0.8000 0.0517 -0.5977
vn -0.8495 0.2510 -0.4641
vn -0.8417 0.0974 -0.5312
vn -0.7753 0.1866 -0.6034
vn -0.7744 -0.0425 -0.6313
vn -0.9017 0.3661 0.2302
vn -0.8494 0.4593 -0.2601
vn -0.7049 -0.3523 -0.6156
vn -0.5362 0.8049 -0.2541
vn -0.5849 0.7204 -0.3727
vn -0.9350 0.2886 0.2063
vn -0.8002 0.3463 0.4896
vn -0.4711 0.8362 0.2809
vn -0.7734 0.6336 -0.0186
vn -0.0506 0.9987 -0.0073
vn -0.6114 0.1647 0.7740
vn -0.5539 0.2784 0.7846
vn -0.7925 0.3430 -0.5043
vn -0.4893 0.3327 -0.8061
vn -0.4367 0.7642 -0.4746
vn -0.5761 0.6470 -0.4994
vn -0.5500 -0.3868 -0.7402
vn -0.4872 0.8604 0.1494
vn -0.0395 0.0671 0.9970
vn -0.7975 0.4391 -0.4137
vn -0.0075 -0.0042 1.0000
vn 0.3650 0.0170 -0.9308
vn -0.4054 0.3011 0.8631
vn -0.3075 0.5357 0.7865
vn -0.7183 -0.0539 -0.6937
vn -0.7206 -0.3317 -0.6089
vn -0.5717 0.7955 -0.2009
vn -0.8777 -0.1986 -0.4362
vn -0.8882 -0.1035 -0.4477
vn -0.0264 -0.9976 -0.0638
vn 0.0006 -0.9991 0.0422
vn -0.7521 0.6143 -0.2386
vn -0.0380 0.9993 0.0025
vn -0.3484 -0.9373 0.0063
vn -0.8248 -0.5540 -0.1128
vn -0.8391 -0.5182 -0.1653
vn -0.6860 0.7275 -0.0124
vn -0.7557 -0.5754 -0.3127
vn -0.0450 0.8699 0.4912
vn -0.0109 0.9530 0.3027
vn 0.0716 -0.4349 -0.8976
vn 0.0999 -0.5917 -0.8000
vn -0.2788 -0.7202 -0.6352
vn -0.0336 0.9980 -0.0542
vn 0.4684 0.6047 0.6441
vn 0.0661 -0.9967 0.0471
vn 0.5672 0.7946 -0.2166
vn 0.0931 0.8258 -0.5563
vn -0.0013 1.0000 -0.0036
vn -0.0108 -0.9999 -0.0044
vn 0.1164 -0.9383 -0.3257
vn -0.0300 0.9994 -0.0159
vn -0.2488 -0.9399 -0.2341
vn -0.0250 0.9993 0.0260
vn -0.0102 0.9999 0.0003
vn 0.0011 0.0032 1.0000
vn 0.0352 0.9968 0.0717
vn -0.0510 -0.8446 -0.5329
vn -0.1042 0.6284 -0.7709
vn -0.2216 0.9599 -0.1717
vn -0.7847 -0.6013 -0.1503
vn -0.5076 0.8527 -0.1236
vn 0.0034 -1.0000 -0.0038
vn -0.3074 0.9199 -0.2435
vn -0.0071 -0.9991 0.0423
vn -0.1750 0.8519 -0.4936
vn -0.1762 0.7234 -0.6675
vn 0.0308 0.4441 -0.8954
vn 0.0779 -0.3334 0.9395
vn 0.1155 -0.6533 0.7483
vn 0.6575 -0.7034 -0.2701
vn 0.0321 0.9994 -0.0090
vn 0.0333 0.9994 -0.0066
vn 0.7624 -0.5649 -0.3157
vn 0.6945 0.6197 -0.3655
vn -0.0153 -0.9998 -0.0160
vn 0.0354 0.9993 -0.0103
vn -0.0875 0.9899 -0.1115
vn 0.8487 -0.4929 -0.1916
vn 0.3600 -0.9330 -0.0011
vn 0.8270 0.5569 -0.0777
vn -0.0194 -0.9996 -0.0197
vn -0.0509 0.9041 -0.4242
vn 0.2118 0.9106 -0.3548
vn 0.9500 0.2237 -0.2180
vn 0.3696 -0.9097 -0.1894
vn 0.1321 -0.9546 0.2669
vn -0.0142 -0.9602 -0.2790
vn -0.1757 -0.9703 0.1663
vn 0.2386 0.6181 -0.7490
vn -0.6392 0.5481 -0.5395
vn -0.0648 0.6720 -0.7377
vn -0.0092 0.6833 -0.7301
vn 0.3993 -0.4225 0.8137
vn 0.9486 0.3161 0.0150
vn 0.1650 -0.9718 -0.1683
vn -0.0186 -0.9998 -0.0022
vn 0.0366 -0.9991 0.0208
vn 0.8789 -0.4746 -0.0482
vn 0.3928 -0.5480 0.7385
vn 0.4165 0.6748 -0.6092
vn 0.9872 -0.0058 -0.1595
vn 0.9530 -0.0211 -0.3023
vn -0.0206 0.4019 -0.9155
vn 0.9469 0.0448 -0.3183
vn 0.8633 -0.2571 -0.4343
vn 0.8291 -0.2851 -0.4809
vn 0.1715 -0.2405 0.9554
vn 0.5802 -0.3944 0.7126
vn 0.6247 -0.0938 0.7752
vn 0.0242 -0.9994 0.0246
vn 0.5061 -0.7825 -0.3627
vn 0.6147 -0.7206 0.3208
vn 0.9015 -0.0613 0.4284
vn 0.6640 -0.6052 0.4391
vn 0.7558 -0.0161 -0.6546
vn 0.8964 -0.0009 -0.4433
vn 0.9283 -0.0303 -0.3706
vn 0.8252 -0.5639 -0.0327
vn 0.3161 -0.0315 0.9482
vn 0.7188 -0.2747 -0.6386
vn 0.5027 -0.1650 0.8486
vn 0.3080 -0.0430 0.9504
vn 0.3307 -0.0414 0.9428
vn 0.7365 -0.6606 0.1452
vn 0.9874 -0.0024 0.1584
vn 0.9544 -0.2983 -0.0125
vn 0.8752 -0.3442 0.3400
vn 0.0006 0.0007 1.0000
vn -0.1334 0.0016 0.9911
vn 0.3096 -0.5189 0.7968
vn 0.0170 0.0762 -0.9969
vn 0.5321 0.5092 -0.6765
vn -0.3577 -0.1466 -0.9223
vn -0.4053 -0.5007 -0.7649
vn -0.0352 0.4687 0.8827
vn 0.0419 0.1860 0.9817
vn -0.5069 -0.7215 -0.4717
vn -0.4804 -0.8264 -0.2938
vn 0.0009 0.7101 0.7041
vn -0.0551 0.9975 -0.0449
vn -0.3395 0.7923 0.5069
vn -0.2921 0.9237 0.2480
vn 0.0103 -0.9993 -0.0356
vn -0.2439 0.9698 -0.0093
vn -0.2927 -0.8784 -0.3779
vn -0.6579 -0.3615 -0.6607
vn -0.2547 -0.9095 -0.3284
vn 0.0033 -1.0000 -0.0068
vn -0.1126 -0.9871 -0.1139
vn -0.2499 -0.9107 -0.3290
vn -0.1287 0.8822 -0.4529
vn -0.3955 0.8937 0.2120
vn -0.5872 -0.0042 -0.8094
vn -0.0012 -0.0017 1.0000
vn -0.6876 -0.1299 -0.7143
vn 0.0127 -0.6054 -0.7958
vn -0.5870 -0.3645 -0.7229
vn 0.3355 0.4563 0.8242
vn 0.1282 0.2617 0.9566
vn -0.4088 -0.7856 -0.4644
vn 0.0685 -0.6830 -0.7272
vn -0.0575 -0.7079 -0.7040
vn 0.0011 -0.7915 -0.6112
vn -0.6861 -0.5984 -0.4137
vn 0.8396 -0.4650 -0.2807
vn 0.6449 0.7295 -0.2277
vn 0.4038 0.9112 -0.0813
vn 0.8618 0.2459 -0.4436
vn 0.8992 -0.0487 -0.4348
vn 0.0007 1.0000 -0.0029
vn 0.8446 0.4900 -0.2158
vn 0.9785 0.1592 -0.1313
vn -0.0683 -0.9648 -0.2539
vn 0.5325 0.8442 0.0620
vn 0.9765 -0.1913 -0.0990
vn 0.3584 0.9332 -0.0262
vn -0.0055 -0.7252 -0.6885
vn 0.3754 0.7606 0.5297
vn 0.3678 0.9278 -0.0629
vn 0.0417 0.8977 0.4386
vn 0.0037 1.0000 0.0063
vn 0.9120 0.3140 -0.2639
vn 0.6247 0.0894 0.7757
vn 0.7646 0.5277 -0.3701
vn 0.8195 0.3373 -0.4633
vn 0.2113 0.2409 0.9473
vn 0.0968 -0.8062 -0.5837
vn 1.0000 0.0034 0.0042
vn 0.5805 -0.5824 -0.5690
vn 0.9865 -0.0080 -0.1635
vn 0.9610 0.0228 -0.2755
vn 0.9628 0.0005 -0.2703
vn 0.9511 0.3065 -0.0386
vn 0.0304 0.9800 0.1965
vn 0.7613 0.5014 -0.4111
vn 0.0570 0.9983 -0.0095
vn 0.7464 0.0467 -0.6638
vn 0.5233 0.1497 0.8389
vn 0.8694 0.2013 -0.4513
vn 0.0513 0.0283 0.9983
vn 0.7609 0.0351 -0.6480
vn 0.8131 0.0049 -0.5822
vn 0.5302 0.7348 -0.4231
vn 0.4703 0.8289 -0.3030
vn 0.6326 0.7007 -0.3298
vn 0.7616 0.5174 0.3902
vn 0.6785 0.7329 -0.0501
vn 0.4176 0.4883 0.7663
vn 0.0113 0.9999 0.0018
vn 0.9253 -0.0868 -0.3691
vn 0.9569 0.0386 -0.2877
vn 0.9999 -0.0100 -0.0116
vn 0.1942 0.0030 0.9810
vn 0.8562 0.0358 0.5153
vn 0.8234 0.4170 -0.3848
vn 0.9153 0.4001 -0.0455
vn 0.8004 0.2691 0.5356
vn 0.8455 0.5316 -0.0507
vn 0.8130 0.5823 -0.0037
vn 0.6443 0.7645 -0.0194
vn 0.9991 0.0059 0.0423
vn 0.0066 -0.9764 -0.2157
vn -0.9667 -0.0815 0.2427
vn -0.9043 -0.3526 -0.2404
vn -0.9341 -0.3569 0.0081
vn -0.8934 -0.4465 -0.0505
vn -0.9595 -0.2287 -0.1646
vn -0.9880 -0.1542 -0.0058
vn -0.9606 -0.2778 -0.0098
vn -0.9873 -0.1588 -0.0067
vn -0.7730 -0.2796 0.5694
vn -0.0122 -0.9999 -0.0042
vn -0.7886 -0.5504 -0.2742
vn -0.7686 -0.6141 0.1792
vn -0.9101 -0.1086 0.3998
vn -0.5435 -0.7758 0.3206
vn -0.5995 -0.7238 0.3416
vn -0.7983 -0.5658 0.2063
vn -0.5039 -0.4897 0.7116
vn -0.8807 0.0008 -0.4736
vn -0.8540 -0.0165 -0.5201
vn -0.9064 -0.4107 0.0987
vn -0.9070 -0.3994 0.1336
vn -0.8339 -0.5513 -0.0242
vn -0.8771 -0.2159 0.4290
vn -0.0558 -0.0090 0.9984
vn -0.7816 -0.2601 -0.5670
vn -0.0646 -0.0703 0.9954
vn -0.1835 0.0049 0.9830
vn -0.0298 -0.9995 -0.0124
vn -0.0223 -0.9988 0.0442
vn -0.0207 -0.9997 0.0093
vn -0.9998 0.0186 -0.0008
vn -0.9498 0.1416 -0.2790
vn -0.4613 -0.8600 -0.2182
vn -0.6175 -0.7683 0.1686
vn -0.5479 -0.7590 0.3519
vn -0.1730 -0.2124 0.9617
vn -0.3112 -0.5857 0.7484
vn -0.2748 -0.2613 0.9253
vn -0.8459 0.3444 -0.4072
vn -0.7208 0.0964 -0.6864
vn -0.2335 -0.0820 0.9689
vn -0.5872 -0.1425 0.7968
vn -0.6013 -0.7253 -0.3353
vn -0.8385 0.5163 -0.1742
vn -0.8189 -0.5433 -0.1851
vn 0.0046 0.9999 -0.0109
vn -0.3588 -0.9310 -0.0675
vn -0.2172 -0.9761 -0.0092
vn 0.0036 -1.0000 -0.0049
vn -0.4769 -0.8757 -0.0753
vn -0.4288 0.9034 0.0043
vn -0.1107 -0.9936 0.0239
vn 0.0148 -0.9970 -0.0763
vn 0.1585 0.9669 -0.1998
vn -0.4757 -0.8785 -0.0434
vn -0.9187 0.3360 -0.2073
vn -0.1915 -0.9508 -0.2434
vn 0.0338 0.6811 -0.7314
vn 0.6401 0.5919 -0.4898
vn 0.4272 0.7660 -0.4803
vn -0.0050 -0.0640 0.9979
vn -0.2340 0.6917 -0.6832
vn 0.6544 0.5148 -0.5539
vn 0.4380 0.3501 -0.8280
vn -0.3043 0.6162 -0.7265
vn 0.2581 0.4827 -0.8369
vn 0.4349 0.3170 -0.8428
vn -0.3143 -0.4735 0.8228
vn 0.3890 0.2374 -0.8901
vn 0.6413 -0.7558 -0.1322
vn 0.1304 0.9912 -0.0217
vn 0.3429 -0.9391 -0.0211
vn 0.2267 -0.9257 0.3028
vn -0.0358 0.3311 0.9429
vn 0.1157 0.8765 0.4672
vn 0.1678 0.9848 -0.0448
vn 0.0053 0.9999 -0.0157
vn 0.1733 0.9686 -0.1783
vn -0.0700 0.7562 -0.6506
vn 0.0006 -1.0000 -0.0020
vn 0.1876 0.9587 -0.2138
vn 0.0020 -0.9180 0.3967
vn -0.0007 -0.9924 -0.1227
vn 0.1417 -0.9726 0.1844
vn 0.0013 -0.9997 0.0243
vn -0.0021 -0.7322 0.6811
vn 0.0036 -0.1793 0.9838
vn 0.2898 0.6944 -0.6586
vn 0.2100 0.5248 -0.8249
vn 0.1122 0.1935 -0.9747
vn 0.0004 0.0006 1.0000
vn -0.1021 0.7479 -0.6559
vn -0.8243 0.4180 -0.3819
vn -0.8391 0.0046 0.5439
vn -0.9529 0.3026 -0.0218
vn -0.7387 0.6741 -0.0050
vn -0.7983 0.2568 0.5448
vn -0.9511 -0.3020 -0.0651
vn -0.9053 -0.1594 0.3937
vn -0.7693 0.5879 -0.2500
vn -0.6673 -0.0232 -0.7444
vn -0.9665 0.2458 -0.0740
vn -0.4600 0.8879 -0.0056
vn -0.7322 0.4907 0.4723
vn -0.7127 0.2219 -0.6655
vn -0.5429 0.0747 -0.8364
vn -0.0597 0.0049 0.9982
vn -0.8428 0.2599 -0.4713
vn -0.8128 0.3342 -0.4772
vn -0.0368 0.0157 0.9992
vn -0.7899 0.6130 0.0134
vn -0.6131 0.4642 0.6393
vn -0.8097 -0.1963 -0.5530
vn -0.8251 -0.2606 -0.5013
vn -0.8067 -0.2628 -0.5293
vn -0.8086 0.5359 -0.2429
vn -0.4498 0.8931 0.0033
vn -0.7179 0.6481 0.2540
vn -0.9305 -0.0044 0.3663
vn -0.5659 0.7614 0.3162
vn -0.9414 0.2820 0.1851
vn -0.7673 0.5643 0.3048
vn -0.5290 0.5976 0.6025
vn -0.7647 0.0049 -0.6444
vn -0.6448 0.4123 -0.6437
vn -0.6137 0.3506 -0.7074
vn -0.6454 -0.0065 -0.7638
vn -0.6796 0.2198 -0.6999
vn -0.0393 0.0160 0.9991
vn -0.6127 -0.0896 -0.7852
vn -0.5538 0.5649 0.6117
vn -0.6628 0.7487 -0.0090
vn -0.6468 0.7622 0.0257
vn -0.7131 0.6231 0.3212
vn -0.3270 0.4939 0.8057
vn -0.3444 0.6595 0.6682
vn -0.5820 0.6991 -0.4153
vn -0.7990 0.4864 -0.3537
vn -0.0101 0.9999 -0.0005
vn -0.0046 0.0017 1.0000
vn 0.4352 0.0500 -0.8990
vn -0.7532 0.0271 -0.6572
vn -0.7416 -0.4215 -0.5219
vn -0.7018 -0.4497 -0.5525
vn -0.7869 -0.3294 -0.5218
vn -0.8030 -0.5482 -0.2339
vn -0.4648 0.8850 -0.0267
vn -0.4651 0.8849 -0.0232
vn -0.6917 -0.7034 -0.1635
vn -0.8218 -0.5694 -0.0203
vn -0.7658 0.6430 0.0110
vn -0.0215 0.9997 -0.0104
vn -0.0236 -0.9698 -0.2428
vn -0.9842 -0.0669 -0.1642
vn 0.2205 0.0020 -0.9754
vn -0.0523 0.0158 -0.9985
vn -0.1860 -0.2780 -0.9424
vn -0.2751 0.5181 0.8099
vn 0.0668 -0.6414 -0.7643
vn -0.0339 0.0681 0.9971
vn 0.1585 -0.9873 -0.0104
vn -0.1423 0.9865 -0.0810
vn 0.2687 0.9593 0.0875
vn 0.1969 0.9099 0.3650
vn 0.1197 -0.9917 0.0471
vn -0.0068 -0.9990 -0.0436
vn 0.0197 0.9998 -0.0040
vn 0.8015 -0.0377 -0.5967
vn 0.2181 0.9446 -0.2453
vn 0.0996 0.9040 -0.4158
vn -0.0007 -1.0000 -0.0080
vn -0.1738 -0.9330 -0.3152
vn 0.0074 0.9283 0.3717
vn -0.0062 1.0000 0.0043
vn -0.0258 -0.9916 -0.1267
vn 0.0353 0.8123 -0.5822
vn 0.2058 0.8597 -0.4676
vn -0.1354 -0.9588 0.2496
vn -0.1409 0.9718 0.1892
vn -0.9882 -0.0269 0.1511
vn -0.2608 -0.9646 0.0391
vn -0.0354 -0.7438 -0.6675
vn -0.2364 -0.9557 -0.1756
vn -0.0041 1.0000 -0.0043
vn 0.0042 0.9997 -0.0246
vn -0.2194 0.9436 -0.2479
vn -0.2584 -0.9374 -0.2336
vn 0.1305 -0.9364 -0.3256
vn -0.4021 -0.8719 0.2795
vn 0.0545 -0.9263 0.3728
vn 0.0035 -0.9909 0.1345
vn -0.0666 -0.9914 -0.1128
vn -0.0313 -0.9988 0.0389
vn -0.1424 0.8451 -0.5153
vn -0.2281 0.6772 -0.6996
vn -0.2038 0.4962 -0.8440
vn -0.0349 0.0017 -0.9994
vn 0.5245 -0.7474 -0.4078
vn 0.9641 0.2378 -0.1180
vn -0.3551 -0.9329 -0.0610
vn 0.7330 0.6650 -0.1433
vn 0.5607 -0.8079 -0.1815
vn 0.0425 -0.9990 0.0098
vn 0.8387 0.1684 -0.5179
vn 0.8336 -0.4625 -0.3021
vn 0.2232 -0.9744 0.0274
vn 0.8919 0.3346 -0.3043
vn 0.8892 0.4575 -0.0002
vn 0.4714 -0.8799 -0.0593
vn 0.2841 -0.9363 0.2066
vn 0.0454 -0.9942 0.0972
vn -0.4952 0.6792 -0.5417
vn -0.0288 0.7469 -0.6643
vn -0.0414 0.6655 -0.7453
vn 0.0117 0.7979 -0.6026
vn -0.5567 0.6987 -0.4494
vn -0.6242 0.5445 -0.5602
vn -0.0055 -0.2236 0.9747
vn 0.0835 0.3395 -0.9369
vn -0.5710 0.3193 -0.7563
vn -0.6227 0.2574 -0.7389
vn 0.8623 -0.5061 0.0181
vn 0.5793 -0.8093 0.0971
vn -0.0074 -0.9991 0.0420
vn 0.3313 -0.9267 0.1772
vn 0.0324 -0.9993 0.0205
vn 0.7324 -0.5913 0.3375
vn 0.5762 -0.8093 0.1144
vn 0.6282 -0.7780 -0.0083
vn 0.0353 -0.0608 0.9975
vn 0.6700 0.4229 -0.6101
vn 0.1731 -0.2189 0.9603
vn -0.0388 0.1230 -0.9916
vn 0.7101 -0.5396 -0.4523
vn 0.9027 -0.2704 -0.3346
vn 0.3067 -0.5373 0.7856
vn 0.0276 -0.9996 0.0011
vn 0.4937 -0.7981 -0.3454
vn 0.7455 -0.5929 -0.3043
vn 0.5905 -0.7413 0.3189
vn 0.4786 -0.6188 0.6229
vn 0.7598 -0.0194 -0.6498
vn 0.9491 -0.1834 0.2561
vn 0.8860 -0.4450 0.1304
vn 0.8206 -0.5713 -0.0151
vn 0.1189 -0.0696 0.9905
vn 0.5785 -0.5353 0.6155
vn 0.7698 -0.1502 -0.6203
vn 0.7177 -0.2618 -0.6453
vn 0.4637 -0.8858 -0.0200
vn 0.9937 -0.0516 -0.0994
vn 0.8791 -0.4172 -0.2303
vn 0.9663 -0.2560 0.0289
vn 0.9411 -0.3379 0.0125
vn 0.8928 -0.4467 -0.0584
vn 0.8990 -0.1339 0.4170
vn 0.7983 -0.3592 -0.4834
vn 0.9867 -0.1627 -0.0016
vn 0.7778 -0.2751 0.5651
vn 0.6949 -0.5256 0.4909
vn -0.0006 0.0006 1.0000
vn -0.0004 0.0009 1.0000
vn -0.1135 0.0091 0.9935
vn 0.2792 0.8274 -0.4873
vn -0.3139 -0.1109 0.9430
vn -0.3695 -0.7981 -0.4760
vn -0.3891 -0.6612 -0.6414
vn 0.0014 0.1963 0.9806
vn 0.0031 0.7326 0.6806
vn -0.0025 -0.9944 0.1055
vn -0.0554 0.9889 0.1376
vn -0.0112 -0.9820 0.1884
vn -0.2526 -0.9494 0.1867
vn -0.1211 -0.9925 0.0184
vn -0.1613 -0.9869 -0.0023
vn 0.0425 -0.9784 -0.2025
vn -0.3299 0.9189 -0.2162
vn 0.0011 -0.9960 0.0897
vn -0.0065 0.9999 -0.0134
vn -0.2313 -0.9351 -0.2686
vn -0.3954 0.8937 0.2120
vn -0.0001 0.9999 -0.0106
vn -0.0704 0.9974 0.0120
vn 0.0109 0.9986 0.0519
vn -0.4080 -0.0197 -0.9128
vn -0.0043 0.0107 0.9999
vn 0.4423 0.3821 0.8114
vn -0.7137 -0.4377 -0.5468
vn -0.5488 -0.3663 -0.7515
vn 0.3750 0.6756 0.6348
vn -0.4656 -0.8478 -0.2537
vn 0.0732 -0.8019 -0.5929
vn -0.6225 -0.5803 -0.5251
vn 0.0619 0.0530 0.9967
vn 0.4338 0.9003 0.0365
vn -0.0133 -0.9999 0.0017
vn 0.3149 -0.9486 -0.0306
vn 0.0004 1.0000 -0.0023
vn 0.0758 -0.9970 -0.0127
vn 0.2954 0.9487 -0.1126
vn 0.9781 0.1539 -0.1402
vn 0.2053 0.9737 -0.0985
vn 0.3019 0.9379 0.1711
vn 0.0053 0.9282 0.3721
vn -0.0327 0.9975 -0.0621
vn 0.0033 1.0000 0.0084
vn 0.0636 0.0030 -0.9980
vn 0.2590 0.5554 0.7903
vn -0.0457 -0.3738 -0.9264
vn 0.0315 -0.1289 -0.9912
vn 0.9003 0.2971 -0.3182
vn 0.8345 0.3667 -0.4113
vn 0.2931 0.4463 0.8455
vn 0.3898 -0.4108 -0.8242
vn 0.9600 0.0220 -0.2792
vn 0.5645 -0.5859 -0.5814
vn 0.9889 -0.0274 -0.1459
vn 0.7339 0.5771 0.3583
vn 0.5738 0.8073 0.1380
vn 0.4737 0.6486 0.5958
vn 0.3728 0.9239 -0.0861
vn 0.9999 -0.0011 0.0132
vn 0.9525 0.2759 -0.1286
vn 0.0629 0.9971 -0.0428
vn 0.0094 1.0000 0.0027
vn 0.7551 0.0743 -0.6513
vn 0.7881 0.2287 -0.5714
vn 0.1676 0.2166 0.9618
vn 0.9517 0.2752 0.1362
vn 0.7024 0.5057 0.5008
vn 0.5737 0.3226 0.7529
vn 0.7424 0.0271 -0.6695
vn 0.8903 0.0330 -0.4541
vn 0.9349 0.0040 -0.3548
vn 0.7296 0.6630 -0.1676
vn 0.6336 0.7395 0.2271
vn 0.5372 0.7650 0.3554
vn 0.4459 0.8697 0.2117
vn 0.9162 0.1684 0.3635
vn 0.7957 0.5385 0.2772
vn 0.9937 0.1123 0.0001
vn 0.6561 0.0762 0.7508
vn 0.9140 0.4028 -0.0479
vn 0.9528 0.3032 -0.0166
vn 0.9859 0.1629 -0.0372
vn 0.9765 0.0490 -0.2101
vn 0.4529 0.0043 0.8915
s 0
f 13//1 32//1 11//1
f 25//2 23//2 20//2
f 20//3 6//3 25//3
f 30//4 28//4 29//4
f 44//5 19//5 43//5
f 48//6 80//6 73//6
f 40//7 54//7 39//7
f 31//8 54//8 40//8
f 55//9 34//9 52//9
f 52//10 34//10 51//10
f 61//11 55//11 59//11
f 38//12 75//12 100//12
f 237//13 39//13 38//13
f 103//14 45//14 78//14
f 82//15 98//15 80//15
f 57//16 86//16 83//16
f 59//17 52//17 88//17
f 89//18 59//18 88//18
f 237//19 38//19 100//19
f 78//20 43//20 102//20
f 217//21 46//21 103//21
f 109//22 89//22 88//22
f 112//23 111//23 110//23
f 116//24 14//24 15//24
f 121//25 120//25 15//25
f 125//26 126//26 123//26
f 142//27 129//27 122//27
f 131//28 133//28 132//28
f 134//29 135//29 129//29
f 60//30 153//30 58//30
f 157//31 155//31 137//31
f 154//32 37//32 61//32
f 161//33 163//33 159//33
f 149//34 152//34 205//34
f 171//35 169//35 168//35
f 192//36 158//36 154//36
f 187//37 173//37 172//37
f 189//38 111//38 112//38
f 192//39 299//39 301//39
f 193//40 158//40 192//40
f 189//41 170//41 111//41
f 214//42 100//42 72//42
f 253//43 42//43 237//43
f 220//44 222//44 248//44
f 112//45 110//45 221//45
f 236//46 212//46 232//46
f 236//47 237//47 216//47
f 103//48 238//48 257//48
f 220//49 248//49 219//49
f 249//50 109//50 246//50
f 251//51 236//51 235//51
f 252//52 236//52 251//52
f 253//53 236//53 252//53
f 256//54 257//54 102//54
f 259//55 217//55 258//55
f 234//56 260//56 235//56
f 260//57 252//57 235//57
f 260//58 261//58 252//58
f 261//59 260//59 241//59
f 261//60 245//60 254//60
f 264//61 255//61 254//61
f 281//62 84//62 263//62
f 268//63 246//63 84//63
f 272//64 240//64 256//64
f 289//65 280//65 262//65
f 286//66 256//66 274//66
f 286//67 276//67 275//67
f 279//68 287//68 274//68
f 284//69 292//69 279//69
f 285//70 291//70 294//70
f 169//71 191//71 222//71
f 320//72 299//72 189//72
f 317//73 250//73 247//73
f 329//74 332//74 331//74
f 203//75 352//75 335//75
f 203//76 353//76 352//76
f 250//77 339//77 247//77
f 270//78 357//78 283//78
f 339//79 357//79 270//79
f 319//80 337//80 250//80
f 345//81 349//81 341//81
f 344//82 352//82 340//82
f 328//83 352//83 348//83
f 345//84 354//84 349//84
f 336//85 365//85 316//85
f 205//86 351//86 350//86
f 357//87 359//87 358//87
f 377//88 368//88 375//88
f 363//89 304//89 343//89
f 377//90 379//90 368//90
f 367//91 369//91 368//91
f 350//92 370//92 365//92
f 371//93 372//93 358//93
f 374//94 285//94 294//94
f 365//95 379//95 378//95
f 378//96 379//96 377//96
f 189//97 249//97 318//97
f 64//98 1//98 2//98
f 8//99 32//99 25//99
f 8//100 25//100 6//100
f 8//101 6//101 9//101
f 33//102 8//102 9//102
f 12//103 33//103 10//103
f 14//104 36//104 13//104
f 16//105 17//105 18//105
f 17//106 35//106 18//106
f 24//107 22//107 23//107
f 22//108 19//108 23//108
f 27//109 7//109 26//109
f 27//110 26//110 28//110
f 24//111 25//111 32//111
f 33//112 30//112 10//112
f 34//113 10//113 30//113
f 35//114 12//114 34//114
f 31//115 36//115 60//115
f 32//116 13//116 31//116
f 39//117 42//117 41//117
f 45//118 20//118 78//118
f 46//119 45//119 79//119
f 20//120 46//120 21//120
f 48//121 38//121 47//121
f 38//122 39//122 53//122
f 39//123 41//123 40//123
f 40//124 41//124 22//124
f 26//125 21//125 29//125
f 30//126 29//126 49//126
f 47//127 38//127 53//127
f 53//128 39//128 54//128
f 31//129 40//129 22//129
f 56//130 54//130 58//130
f 57//131 53//131 56//131
f 60//132 54//132 31//132
f 62//133 61//133 91//133
f 67//134 63//134 70//134
f 1//135 64//135 63//135
f 66//136 67//136 65//136
f 70//137 64//137 68//137
f 66//138 1//138 63//138
f 71//139 65//139 69//139
f 71//140 66//140 65//140
f 74//141 71//141 76//141
f 80//142 98//142 74//142
f 42//143 39//143 237//143
f 78//144 44//144 77//144
f 45//145 103//145 79//145
f 21//146 46//146 49//146
f 48//147 82//147 80//147
f 47//148 81//148 48//148
f 85//149 47//149 53//149
f 85//150 83//150 81//150
f 111//151 91//151 110//151
f 93//152 5//152 2//152
f 93//153 64//153 94//153
f 64//154 95//154 94//154
f 97//155 92//155 93//155
f 68//156 92//156 96//156
f 226//157 66//157 71//157
f 42//158 253//158 101//158
f 77//159 43//159 78//159
f 49//160 217//160 104//160
f 83//161 105//161 98//161
f 105//162 99//162 98//162
f 52//163 84//163 108//163
f 51//164 104//164 107//164
f 106//165 105//165 86//165
f 88//166 52//166 108//166
f 177//167 113//167 114//167
f 14//168 13//168 15//168
f 117//169 15//169 16//169
f 117//170 18//170 118//170
f 119//171 138//171 116//171
f 120//172 116//172 15//172
f 116//173 120//173 119//173
f 120//174 121//174 122//174
f 121//175 117//175 125//175
f 123//176 121//176 125//176
f 125//177 118//177 127//177
f 139//178 119//178 128//178
f 130//179 128//179 119//179
f 129//180 130//180 122//180
f 142//181 122//181 121//181
f 126//182 125//182 127//182
f 127//183 118//183 145//183
f 131//184 132//184 128//184
f 128//185 130//185 129//185
f 135//186 128//186 129//186
f 134//187 129//187 142//187
f 134//188 142//188 136//188
f 137//189 14//189 138//189
f 157//190 137//190 138//190
f 139//191 138//191 119//191
f 141//192 140//192 139//192
f 141//193 159//193 140//193
f 141//194 139//194 132//194
f 142//195 121//195 124//195
f 143//196 124//196 126//196
f 141//197 146//197 161//197
f 147//198 148//198 133//198
f 147//199 146//199 148//199
f 151//200 142//200 124//200
f 136//201 151//201 150//201
f 150//202 149//202 136//202
f 144//203 143//203 126//203
f 149//204 147//204 133//204
f 61//205 62//205 154//205
f 37//206 154//206 158//206
f 159//207 157//207 140//207
f 159//208 156//208 155//208
f 147//209 161//209 146//209
f 162//210 161//210 147//210
f 160//211 163//211 161//211
f 165//212 166//212 164//212
f 145//213 158//213 174//213
f 188//214 160//214 162//214
f 62//215 111//215 170//215
f 153//216 90//216 58//216
f 62//217 170//217 154//217
f 154//218 170//218 192//218
f 171//219 156//219 163//219
f 113//220 177//220 176//220
f 182//221 195//221 178//221
f 178//222 179//222 183//222
f 195//223 179//223 178//223
f 183//224 179//224 180//224
f 179//225 177//225 180//225
f 182//226 178//226 183//226
f 199//227 195//227 182//227
f 184//228 183//228 185//228
f 185//229 172//229 184//229
f 184//230 172//230 173//230
f 186//231 184//231 188//231
f 167//232 184//232 173//232
f 186//233 188//233 204//233
f 162//234 204//234 188//234
f 190//235 169//235 171//235
f 173//236 190//236 171//236
f 190//237 187//237 194//237
f 195//238 296//238 113//238
f 196//239 296//239 195//239
f 196//240 114//240 197//240
f 180//241 195//241 181//241
f 181//242 309//242 200//242
f 201//243 181//243 199//243
f 185//244 183//244 202//244
f 187//245 185//245 202//245
f 203//246 199//246 186//246
f 194//247 202//247 313//247
f 205//248 204//248 162//248
f 205//249 162//249 147//249
f 189//250 299//250 170//250
f 206//251 5//251 208//251
f 210//252 96//252 209//252
f 97//253 211//253 209//253
f 211//254 208//254 209//254
f 208//255 3//255 210//255
f 211//256 206//256 208//256
f 68//257 210//257 72//257
f 233//258 226//258 215//258
f 102//259 19//259 101//259
f 105//260 218//260 99//260
f 106//261 218//261 105//261
f 220//262 106//262 87//262
f 88//263 108//263 246//263
f 109//264 88//264 246//264
f 3//265 206//265 223//265
f 225//266 206//266 211//266
f 230//267 225//267 211//267
f 228//268 224//268 227//268
f 227//269 225//269 230//269
f 72//270 224//270 228//270
f 226//271 230//271 211//271
f 229//272 230//272 226//272
f 228//273 230//273 231//273
f 232//274 228//274 231//274
f 229//275 231//275 230//275
f 72//276 228//276 212//276
f 233//277 229//277 226//277
f 234//278 229//278 233//278
f 234//279 235//279 232//279
f 236//280 214//280 212//280
f 216//281 213//281 214//281
f 239//282 103//282 240//282
f 217//283 103//283 239//283
f 260//284 233//284 241//284
f 244//285 218//285 219//285
f 242//286 243//286 244//286
f 245//287 242//287 244//287
f 268//288 249//288 246//288
f 252//289 251//289 235//289
f 238//290 102//290 257//290
f 103//291 257//291 240//291
f 217//292 240//292 258//292
f 254//293 253//293 252//293
f 263//294 107//294 104//294
f 242//295 261//295 241//295
f 261//296 254//296 252//296
f 264//297 254//297 245//297
f 265//298 245//298 244//298
f 265//299 264//299 245//299
f 266//300 264//300 265//300
f 267//301 264//301 266//301
f 268//302 281//302 269//302
f 266//303 265//303 270//303
f 271//304 295//304 269//304
f 258//305 240//305 272//305
f 101//306 255//306 273//306
f 277//307 272//307 275//307
f 277//308 275//308 276//308
f 258//309 277//309 278//309
f 282//310 255//310 264//310
f 279//311 273//311 282//311
f 279//312 274//312 273//312
f 289//313 278//313 288//313
f 281//314 280//314 291//314
f 284//315 267//315 283//315
f 271//316 269//316 285//316
f 269//317 281//317 285//317
f 285//318 281//318 291//318
f 275//319 272//319 286//319
f 276//320 286//320 287//320
f 290//321 289//321 292//321
f 293//322 294//322 290//322
f 221//323 109//323 249//323
f 318//324 249//324 295//324
f 295//325 249//325 269//325
f 296//326 115//326 114//326
f 297//327 298//327 115//327
f 317//328 222//328 191//328
f 191//329 190//329 300//329
f 193//330 192//330 301//330
f 301//331 299//331 320//331
f 194//332 302//332 300//332
f 194//333 313//333 302//333
f 166//334 304//334 303//334
f 306//335 297//335 197//335
f 198//336 114//336 305//336
f 307//337 306//337 198//337
f 305//338 114//338 115//338
f 308//339 306//339 307//339
f 310//340 309//340 308//340
f 310//341 308//341 305//341
f 309//342 306//342 308//342
f 310//343 305//343 326//343
f 202//344 326//344 311//344
f 313//345 202//345 312//345
f 314//346 328//346 199//346
f 203//347 314//347 199//347
f 247//348 248//348 317//348
f 189//349 221//349 249//349
f 319//350 250//350 317//350
f 319//351 321//351 340//351
f 300//352 319//352 317//352
f 193//353 301//353 342//353
f 343//354 193//354 342//354
f 302//355 312//355 323//355
f 322//356 323//356 347//356
f 323//357 322//357 321//357
f 323//358 331//358 347//358
f 302//359 321//359 300//359
f 298//360 297//360 324//360
f 326//361 298//361 325//361
f 306//362 325//362 324//362
f 325//363 306//363 327//363
f 326//364 325//364 327//364
f 330//365 201//365 199//365
f 326//366 327//366 330//366
f 332//367 329//367 330//367
f 331//368 311//368 329//368
f 332//369 330//369 328//369
f 333//370 331//370 332//370
f 328//371 333//371 332//371
f 334//372 335//372 314//372
f 203//373 335//373 315//373
f 335//374 352//374 328//374
f 354//375 353//375 204//375
f 303//376 164//376 166//376
f 338//377 357//377 339//377
f 380//378 271//378 360//378
f 337//379 338//379 339//379
f 356//380 338//380 341//380
f 343//381 342//381 360//381
f 321//382 322//382 344//382
f 352//383 344//383 346//383
f 346//384 344//384 322//384
f 345//385 340//385 352//385
f 348//386 347//386 331//386
f 333//387 348//387 331//387
f 353//388 345//388 352//388
f 355//389 354//389 316//389
f 355//390 349//390 354//390
f 351//391 205//391 303//391
f 357//392 284//392 283//392
f 360//393 271//393 285//393
f 338//394 356//394 357//394
f 343//395 374//395 363//395
f 356//396 341//396 349//396
f 364//397 359//397 356//397
f 355//398 364//398 349//398
f 365//399 364//399 355//399
f 365//400 366//400 364//400
f 361//401 369//401 351//401
f 362//402 361//402 351//402
f 363//403 362//403 304//403
f 365//404 336//404 350//404
f 358//405 292//405 284//405
f 372//406 292//406 358//406
f 293//407 292//407 372//407
f 374//408 360//408 285//408
f 373//409 294//409 293//409
f 359//410 371//410 358//410
f 376//411 372//411 375//411
f 376//412 374//412 373//412
f 376//413 375//413 361//413
f 362//414 376//414 361//414
f 379//415 365//415 370//415
f 378//416 377//416 371//416
f 3//417 64//417 2//417
f 9//418 6//418 7//418
f 11//419 32//419 8//419
f 11//420 8//420 33//420
f 12//421 11//421 33//421
f 15//422 13//422 11//422
f 15//423 11//423 17//423
f 17//424 11//424 12//424
f 16//425 15//425 17//425
f 35//426 17//426 12//426
f 78//427 20//427 23//427
f 25//428 24//428 23//428
f 20//429 7//429 6//429
f 9//430 7//430 27//430
f 26//431 7//431 20//431
f 21//432 26//432 20//432
f 28//433 26//433 29//433
f 34//434 30//434 50//434
f 32//435 31//435 24//435
f 31//436 22//436 24//436
f 33//437 9//437 27//437
f 33//438 27//438 28//438
f 33//439 28//439 30//439
f 34//440 12//440 10//440
f 55//441 37//441 34//441
f 13//442 36//442 31//442
f 37//443 18//443 35//443
f 37//444 35//444 34//444
f 44//445 23//445 19//445
f 78//446 23//446 44//446
f 46//447 20//447 45//447
f 38//448 48//448 73//448
f 73//449 80//449 74//449
f 19//450 22//450 41//450
f 49//451 29//451 21//451
f 50//452 30//452 49//452
f 34//453 50//453 51//453
f 50//454 49//454 51//454
f 59//455 55//455 52//455
f 54//456 56//456 53//456
f 60//457 58//457 54//457
f 61//458 37//458 55//458
f 91//459 61//459 59//459
f 70//460 65//460 67//460
f 66//461 63//461 67//461
f 70//462 63//462 64//462
f 66//463 97//463 1//463
f 69//464 65//464 70//464
f 76//465 69//465 70//465
f 100//466 70//466 72//466
f 75//467 73//467 76//467
f 71//468 69//468 76//468
f 76//469 70//469 100//469
f 75//470 76//470 100//470
f 74//471 98//471 71//471
f 38//472 73//472 75//472
f 74//473 76//473 73//473
f 77//474 44//474 43//474
f 48//475 81//475 82//475
f 81//476 83//476 82//476
f 82//477 83//477 98//477
f 52//478 51//478 84//478
f 47//479 85//479 81//479
f 85//480 57//480 83//480
f 57//481 87//481 86//481
f 53//482 57//482 85//482
f 90//483 57//483 56//483
f 90//484 87//484 57//484
f 89//485 91//485 59//485
f 58//486 90//486 56//486
f 68//487 64//487 92//487
f 1//488 93//488 2//488
f 93//489 92//489 64//489
f 93//490 94//490 5//490
f 95//491 64//491 3//491
f 95//492 5//492 94//492
f 97//493 93//493 1//493
f 226//494 97//494 66//494
f 97//495 96//495 92//495
f 97//496 209//496 96//496
f 72//497 70//497 68//497
f 98//498 99//498 71//498
f 41//499 42//499 101//499
f 102//500 43//500 19//500
f 46//501 79//501 103//501
f 49//502 46//502 217//502
f 51//503 49//503 104//503
f 84//504 51//504 107//504
f 86//505 105//505 83//505
f 87//506 106//506 86//506
f 90//507 220//507 87//507
f 110//508 91//508 89//508
f 113//509 296//509 114//509
f 116//510 138//510 14//510
f 117//511 16//511 18//511
f 121//512 15//512 117//512
f 124//513 121//513 123//513
f 118//514 125//514 117//514
f 120//515 130//515 119//515
f 122//516 130//516 120//516
f 124//517 123//517 126//517
f 132//518 139//518 128//518
f 135//519 131//519 128//519
f 131//520 135//520 133//520
f 135//521 134//521 149//521
f 14//522 137//522 36//522
f 36//523 137//523 60//523
f 37//524 118//524 18//524
f 157//525 138//525 139//525
f 139//526 140//526 157//526
f 145//527 118//527 37//527
f 144//528 126//528 127//528
f 144//529 127//529 145//529
f 141//530 161//530 159//530
f 141//531 132//531 148//531
f 148//532 146//532 141//532
f 148//533 132//533 133//533
f 135//534 149//534 133//534
f 134//535 136//535 149//535
f 136//536 142//536 151//536
f 150//537 152//537 149//537
f 143//538 151//538 124//538
f 151//539 143//539 150//539
f 165//540 144//540 145//540
f 155//541 153//541 60//541
f 168//542 153//542 155//542
f 156//543 168//543 155//543
f 155//544 60//544 137//544
f 159//545 155//545 157//545
f 158//546 145//546 37//546
f 159//547 163//547 156//547
f 143//548 152//548 150//548
f 144//549 164//549 143//549
f 165//550 164//550 144//550
f 164//551 152//551 143//551
f 165//552 145//552 174//552
f 166//553 165//553 174//553
f 162//554 160//554 161//554
f 188//555 167//555 160//555
f 205//556 147//556 149//556
f 111//557 62//557 91//557
f 153//558 168//558 90//558
f 171//559 168//559 156//559
f 163//560 167//560 173//560
f 163//561 160//561 167//561
f 163//562 173//562 171//562
f 177//563 175//563 176//563
f 195//564 176//564 175//564
f 195//565 175//565 179//565
f 179//566 175//566 177//566
f 184//567 182//567 183//567
f 186//568 182//568 184//568
f 186//569 199//569 182//569
f 187//570 172//570 185//570
f 188//571 184//571 167//571
f 168//572 169//572 90//572
f 169//573 222//573 90//573
f 190//574 191//574 169//574
f 299//575 192//575 170//575
f 173//576 187//576 190//576
f 174//577 158//577 193//577
f 180//578 177//578 196//578
f 176//579 195//579 113//579
f 195//580 180//580 196//580
f 196//581 197//581 296//581
f 196//582 177//582 114//582
f 183//583 180//583 310//583
f 199//584 181//584 195//584
f 200//585 310//585 180//585
f 181//586 200//586 180//586
f 181//587 201//587 309//587
f 202//588 183//588 326//588
f 194//589 187//589 202//589
f 204//590 203//590 186//590
f 164//591 205//591 152//591
f 3//592 2//592 4//592
f 5//593 4//593 2//593
f 5//594 206//594 4//594
f 207//595 95//595 3//595
f 95//596 207//596 5//596
f 207//597 208//597 5//597
f 3//598 208//598 207//598
f 210//599 68//599 96//599
f 210//600 209//600 208//600
f 226//601 211//601 97//601
f 99//602 226//602 71//602
f 215//603 226//603 99//603
f 213//604 100//604 214//604
f 214//605 72//605 212//605
f 237//606 100//606 213//606
f 237//607 213//607 216//607
f 19//608 41//608 101//608
f 238//609 78//609 102//609
f 103//610 78//610 238//610
f 218//611 215//611 99//611
f 106//612 219//612 218//612
f 220//613 219//613 106//613
f 222//614 220//614 90//614
f 3//615 4//615 206//615
f 225//616 224//616 223//616
f 72//617 210//617 3//617
f 225//618 223//618 206//618
f 3//619 223//619 224//619
f 224//620 72//620 3//620
f 225//621 227//621 224//621
f 230//622 228//622 227//622
f 232//623 212//623 228//623
f 229//624 234//624 232//624
f 232//625 231//625 229//625
f 236//626 232//626 235//626
f 216//627 214//627 236//627
f 253//628 237//628 236//628
f 243//629 233//629 215//629
f 241//630 233//630 243//630
f 243//631 242//631 241//631
f 233//632 260//632 234//632
f 218//633 243//633 215//633
f 218//634 244//634 243//634
f 246//635 108//635 84//635
f 247//636 265//636 244//636
f 248//637 244//637 219//637
f 247//638 244//638 248//638
f 101//639 253//639 254//639
f 255//640 101//640 254//640
f 256//641 102//641 101//641
f 217//642 239//642 240//642
f 259//643 104//643 217//643
f 278//644 259//644 258//644
f 262//645 104//645 259//645
f 278//646 262//646 259//646
f 263//647 84//647 107//647
f 245//648 261//648 242//648
f 281//649 268//649 84//649
f 247//650 270//650 265//650
f 266//651 270//651 267//651
f 270//652 283//652 267//652
f 249//653 268//653 269//653
f 256//654 240//654 257//654
f 101//655 273//655 256//655
f 256//656 273//656 274//656
f 272//657 277//657 258//657
f 262//658 263//658 104//658
f 282//659 273//659 255//659
f 276//660 278//660 277//660
f 276//661 288//661 278//661
f 289//662 262//662 278//662
f 280//663 281//663 263//663
f 280//664 263//664 262//664
f 267//665 282//665 264//665
f 284//666 282//666 267//666
f 286//667 272//667 256//667
f 287//668 286//668 274//668
f 292//669 287//669 279//669
f 288//670 276//670 287//670
f 287//671 292//671 288//671
f 292//672 289//672 288//672
f 291//673 280//673 289//673
f 279//674 282//674 284//674
f 293//675 290//675 292//675
f 290//676 291//676 289//676
f 294//677 291//677 290//677
f 110//678 89//678 109//678
f 110//679 109//679 221//679
f 380//680 318//680 295//680
f 297//681 115//681 296//681
f 189//682 112//682 221//682
f 313//683 312//683 302//683
f 194//684 300//684 190//684
f 304//685 174//685 193//685
f 166//686 174//686 304//686
f 198//687 197//687 114//687
f 197//688 297//688 296//688
f 198//689 306//689 197//689
f 307//690 198//690 305//690
f 298//691 305//691 115//691
f 305//692 308//692 307//692
f 310//693 200//693 309//693
f 309//694 201//694 306//694
f 183//695 310//695 326//695
f 199//696 328//696 330//696
f 312//697 202//697 311//697
f 203//698 315//698 314//698
f 315//699 334//699 314//699
f 205//700 316//700 204//700
f 205//701 336//701 316//701
f 317//702 248//702 222//702
f 318//703 320//703 189//703
f 342//704 320//704 318//704
f 319//705 300//705 321//705
f 191//706 300//706 317//706
f 342//707 301//707 320//707
f 323//708 312//708 311//708
f 331//709 323//709 311//709
f 323//710 321//710 302//710
f 304//711 193//711 343//711
f 306//712 324//712 297//712
f 326//713 305//713 298//713
f 298//714 324//714 325//714
f 330//715 306//715 201//715
f 311//716 326//716 329//716
f 330//717 327//717 306//717
f 330//718 329//718 326//718
f 314//719 335//719 328//719
f 315//720 335//720 334//720
f 204//721 353//721 203//721
f 316//722 354//722 204//722
f 303//723 205//723 164//723
f 339//724 270//724 247//724
f 318//725 380//725 360//725
f 340//726 337//726 319//726
f 337//727 339//727 250//727
f 341//728 337//728 340//728
f 337//729 341//729 338//729
f 360//730 342//730 318//730
f 321//731 344//731 340//731
f 345//732 341//732 340//732
f 322//733 347//733 346//733
f 347//734 348//734 346//734
f 369//735 350//735 351//735
f 303//736 362//736 351//736
f 362//737 303//737 304//737
f 348//738 333//738 328//738
f 348//739 352//739 346//739
f 353//740 354//740 345//740
f 316//741 365//741 355//741
f 350//742 336//742 205//742
f 357//743 358//743 284//743
f 356//744 359//744 357//744
f 343//745 360//745 374//745
f 368//746 361//746 375//746
f 363//747 376//747 362//747
f 374//748 376//748 363//748
f 349//749 364//749 356//749
f 364//750 366//750 359//750
f 366//751 371//751 359//751
f 365//752 378//752 366//752
f 367//753 379//753 370//753
f 369//754 367//754 350//754
f 367//755 370//755 350//755
f 379//756 367//756 368//756
f 369//757 361//757 368//757
f 372//758 373//758 293//758
f 374//759 294//759 373//759
f 371//760 375//760 372//760
f 372//761 376//761 373//761
f 371//762 377//762 375//762
f 366//763 378//763 371//763
f 271//764 380//764 295//764
