# Blender 4.3.2
# www.blender.org
o link1
v -0.043441 -0.010395 -0.014726
v -0.041702 -0.010409 -0.018916
v -0.045121 -0.009986 -0.008903
v -0.045908 -0.010131 0.000716
v -0.040470 -0.011531 0.002262
v -0.043440 -0.002360 -0.014816
v -0.041437 0.000633 -0.012513
v -0.045779 -0.002437 -0.004428
v -0.034552 -0.014978 -0.012727
v -0.034329 -0.011185 -0.030626
v -0.039428 -0.010673 -0.023452
v -0.031068 -0.014787 -0.026031
v -0.036907 -0.012887 -0.016997
v -0.033123 -0.002320 -0.031675
v -0.039516 -0.002147 -0.023362
v -0.039055 -0.000630 -0.020793
v -0.027602 -0.000560 -0.017382
v -0.024509 -0.095313 -0.010832
v -0.025036 -0.087471 -0.023484
v -0.027977 -0.086257 -0.019407
v -0.028004 -0.091401 -0.008319
v -0.027962 -0.092291 0.003482
v -0.028989 -0.081250 -0.016455
v -0.029356 -0.083688 -0.001517
v -0.027964 -0.076183 -0.028237
v -0.029215 -0.070392 -0.022603
v -0.030104 -0.079602 0.002576
v -0.029917 -0.070716 -0.005883
v -0.029594 -0.071554 -0.000162
v -0.028006 -0.065468 -0.031960
v -0.028070 -0.054172 -0.031557
v -0.030083 -0.073267 -0.015535
v -0.030003 -0.057553 -0.019705
v -0.029998 -0.068473 -0.008978
v -0.029733 -0.060028 -0.012028
v -0.026261 -0.061008 -0.006059
v -0.026450 -0.066346 0.001445
v -0.029194 -0.049226 -0.022999
v -0.027230 -0.054386 -0.005695
v -0.026457 -0.053576 0.001422
v -0.027034 -0.047319 -0.032847
v -0.027991 -0.040808 -0.026628
v -0.030061 -0.049096 -0.016593
v -0.030063 -0.050024 -0.007958
v -0.024984 -0.041851 -0.043953
v -0.026376 -0.043867 -0.035995
v -0.029979 -0.042224 -0.009437
v -0.030031 -0.040295 0.004978
v -0.027328 -0.039538 -0.041404
v -0.027315 -0.035459 -0.041491
v -0.024975 -0.030448 -0.038264
v -0.027418 -0.035450 -0.037017
v -0.026652 -0.037580 -0.031802
v -0.025505 -0.030186 -0.036999
v -0.025001 -0.031758 -0.026219
v -0.027850 -0.031110 -0.017377
v -0.028854 -0.036146 -0.012543
v -0.028244 -0.029379 0.003089
v -0.025091 -0.026218 -0.035901
v -0.024498 -0.025259 -0.027491
v -0.027934 -0.027836 -0.014660
v -0.029741 -0.020739 -0.016431
v -0.029416 -0.022312 0.001584
v -0.024534 -0.020052 -0.035888
v -0.027293 -0.018081 -0.032956
v -0.026763 -0.019891 -0.026104
v -0.032924 -0.012615 -0.030163
v -0.028028 -0.002424 -0.036315
v -0.030998 -0.000812 -0.031933
v -0.020064 -0.105589 -0.017795
v -0.020024 -0.103579 -0.022325
v -0.020003 -0.107362 -0.012308
v -0.021546 -0.102200 0.007873
v -0.019028 -0.109022 0.001578
v -0.020104 -0.097158 -0.031821
v -0.020117 -0.100956 -0.026727
v -0.013433 -0.101170 -0.026364
v -0.021265 -0.102955 -0.007381
v -0.021389 -0.095910 -0.024325
v -0.020062 -0.093360 -0.035852
v -0.020113 -0.088887 -0.039504
v -0.021388 -0.083147 -0.036393
v -0.020077 -0.084625 -0.042279
v -0.020093 -0.079911 -0.044668
v -0.020100 -0.074421 -0.046756
v -0.021270 -0.068885 -0.042943
v -0.024861 -0.077954 -0.031567
v -0.022922 -0.066539 -0.039116
v -0.019126 -0.057851 -0.049047
v -0.020120 -0.068389 -0.048193
v -0.022263 -0.054232 -0.040800
v -0.019930 -0.051744 -0.048199
v -0.020873 -0.052019 -0.047500
v -0.023149 -0.046105 -0.046793
v -0.023075 -0.038849 -0.044218
v -0.013958 -0.042768 -0.045813
v -0.021203 -0.028982 -0.038992
v -0.018683 -0.021875 -0.039089
v -0.018876 -0.017062 -0.039987
v -0.025957 -0.012274 -0.038004
v -0.017478 -0.013215 -0.042473
v -0.020243 -0.007123 -0.041163
v -0.023698 -0.002374 -0.039114
v -0.021553 -0.000615 -0.038435
v -0.020262 -0.000445 -0.028184
v -0.018959 0.000005 -0.024895
v -0.024800 0.000011 -0.011988
v -0.011391 -0.000017 -0.008683
v -0.007311 0.000001 0.002528
v -0.020053 -0.108187 -0.008363
v -0.014629 -0.105052 -0.018769
v -0.014137 -0.093307 -0.035921
v -0.012638 -0.085641 -0.041645
v -0.013613 -0.070876 -0.047743
v -0.012800 -0.059966 -0.048902
v -0.011748 -0.031119 -0.040371
v -0.007732 -0.020757 -0.041627
v -0.010609 -0.014274 -0.044672
v -0.014550 -0.008256 -0.043467
v -0.006033 -0.006903 -0.045080
v -0.011858 -0.001113 -0.038992
v -0.005134 -0.000683 -0.038861
v -0.002843 -0.106605 -0.014730
v -0.003390 -0.108745 -0.004869
v -0.003333 -0.101988 -0.025252
v -0.003311 -0.087061 -0.040747
v -0.001928 -0.094253 -0.034946
v -0.004776 -0.079990 -0.044676
v -0.002145 -0.061240 -0.048948
v -0.002271 -0.052677 -0.048367
v -0.003269 -0.043909 -0.046296
v -0.003472 -0.032267 -0.041025
v -0.004911 -0.027931 -0.040477
v -0.003858 -0.014866 -0.045758
v -0.001484 -0.002194 -0.045781
v -0.001696 -0.000560 -0.043711
v -0.006382 -0.001824 -0.041394
v 0.000016 -0.000854 -0.000129
v -0.044786 -0.010094 0.010430
v -0.039915 -0.010768 0.022313
v -0.042359 -0.010067 0.017778
v -0.045285 -0.002203 0.006885
v -0.043397 -0.002433 0.014959
v -0.040347 -0.002068 0.021678
v -0.036594 -0.013235 0.013814
v -0.036178 -0.010994 0.028267
v -0.030378 -0.011665 0.034620
v -0.035537 -0.000655 0.026366
v -0.027761 -0.000531 0.017483
v -0.036221 -0.002464 0.028227
v -0.032108 -0.002375 0.032740
v -0.024620 -0.095773 0.008044
v -0.027958 -0.088339 0.016207
v -0.025220 -0.089804 0.020183
v -0.029554 -0.079552 0.011910
v -0.027961 -0.077434 0.027648
v -0.024599 -0.078420 0.031674
v -0.029964 -0.066747 0.018886
v -0.029069 -0.072033 0.023130
v -0.025468 -0.069621 0.034345
v -0.030041 -0.071065 0.005405
v -0.027184 -0.062682 0.007598
v -0.030006 -0.064490 0.011667
v -0.027909 -0.067479 0.031731
v -0.027489 -0.055463 0.006965
v -0.025429 -0.060007 0.002166
v -0.029978 -0.050090 0.017465
v -0.028827 -0.052333 0.026104
v -0.027969 -0.059538 0.032453
v -0.027849 -0.049694 0.031462
v -0.030069 -0.047666 0.002184
v -0.030059 -0.052690 0.010134
v -0.026641 -0.045864 0.034320
v -0.026904 -0.038919 0.031884
v -0.027823 -0.040480 0.027011
v -0.027302 -0.040045 0.040123
v -0.025305 -0.041622 0.043422
v -0.028954 -0.039018 0.016635
v -0.027826 -0.033081 0.019880
v -0.025737 -0.033253 0.026986
v -0.027438 -0.034764 0.038124
v -0.027269 -0.036115 0.041930
v -0.025347 -0.030934 0.038413
v -0.027956 -0.027702 0.014611
v -0.025126 -0.022300 0.034819
v -0.026114 -0.028729 0.026649
v -0.025025 -0.027205 0.036386
v -0.030342 -0.019389 0.015564
v -0.031495 -0.015750 0.025470
v -0.027650 -0.022330 0.025361
v -0.027434 -0.017102 0.033624
v -0.023675 -0.018844 0.036647
v -0.022955 -0.012901 0.039783
v -0.028329 -0.001155 0.034936
v -0.024135 -0.002646 0.039089
v -0.020180 -0.108199 0.007761
v -0.020209 -0.106580 0.014443
v -0.017360 -0.107317 0.012753
v -0.020127 -0.102811 0.023691
v -0.019612 -0.104543 0.020272
v -0.021301 -0.094751 0.026053
v -0.020164 -0.098980 0.029481
v -0.019978 -0.095817 0.033395
v -0.014393 -0.097402 0.031513
v -0.020004 -0.091564 0.037362
v -0.020009 -0.088240 0.039953
v -0.021395 -0.084862 0.035171
v -0.020076 -0.084320 0.042486
v -0.020125 -0.081130 0.043909
v -0.020074 -0.078092 0.045506
v -0.020049 -0.073178 0.047117
v -0.021532 -0.069619 0.041648
v -0.019998 -0.068488 0.048195
v -0.019189 -0.058602 0.049068
v -0.021992 -0.054785 0.041326
v -0.013650 -0.054678 0.048614
v -0.021515 -0.049883 0.047157
v -0.020538 -0.049168 0.047772
v -0.024182 -0.047015 0.039513
v -0.022932 -0.045961 0.046864
v -0.022983 -0.039794 0.044630
v -0.022463 -0.031411 0.039985
v -0.020107 -0.024287 0.038279
v -0.016742 -0.018174 0.040547
v -0.014456 -0.013526 0.043584
v -0.016921 -0.008088 0.042661
v -0.017344 -0.000028 0.026230
v -0.021784 -0.000747 0.038638
v -0.011524 -0.001138 0.039032
v -0.005755 -0.108501 0.006396
v -0.013643 -0.078677 0.045297
v -0.004693 -0.061532 0.048948
v -0.013244 -0.033648 0.041364
v -0.012343 -0.024025 0.039840
v -0.013783 -0.029134 0.039846
v -0.010276 -0.008532 0.044744
v -0.005607 -0.014689 0.045627
v -0.005754 -0.001394 0.041231
v -0.005621 -0.006148 0.044951
v -0.002342 -0.106616 0.014729
v -0.002992 -0.102031 0.025207
v -0.004408 -0.093293 0.035827
v -0.003352 -0.085992 0.041431
v -0.003384 -0.078419 0.045391
v -0.002670 -0.069902 0.047943
v -0.003402 -0.052891 0.048390
v -0.003221 -0.043097 0.045966
v -0.004007 -0.032494 0.041179
v -0.004145 -0.023753 0.040994
v 0.001320 -0.000010 0.007988
v -0.001651 -0.002252 0.045737
v -0.001671 -0.000684 0.044079
v -0.039493 0.004352 -0.009867
v -0.040820 0.004037 -0.003443
v -0.038934 0.001881 -0.013693
v -0.034750 0.004304 -0.008960
v -0.032043 0.002524 -0.010147
v -0.035295 0.004057 0.000087
v -0.030807 0.001303 -0.000930
v -0.023130 0.000005 0.012334
v -0.040876 0.004115 0.003101
v -0.039492 0.004376 0.009957
v -0.034774 0.004320 0.008954
v -0.039066 0.001860 0.013717
v -0.038357 0.000136 0.017746
v -0.030123 0.001419 0.011289
v 0.004496 -0.032531 -0.041534
v 0.002598 -0.022825 -0.041776
v 0.006242 -0.016126 -0.045601
v 0.008335 -0.002544 -0.045261
v 0.008088 -0.000934 -0.043904
v 0.024763 -0.000507 -0.027132
v 0.000763 -0.000009 -0.008423
v 0.014102 -0.108451 -0.007256
v 0.008773 -0.108672 0.005964
v 0.010461 -0.101981 -0.025372
v 0.013654 -0.085067 -0.042126
v -0.002138 -0.071829 -0.047484
v 0.019036 -0.043194 -0.046003
v 0.014528 -0.031281 -0.041344
v 0.012553 -0.023926 -0.041576
v 0.015081 -0.018858 -0.043658
v 0.018286 -0.000649 -0.040148
v 0.017554 -0.002413 -0.042317
v 0.021283 -0.000005 -0.023177
v 0.011320 -0.000015 -0.007994
v 0.034178 -0.065286 -0.048598
v 0.021043 -0.032369 -0.043183
v 0.019785 -0.026034 -0.042433
v 0.023199 -0.017157 -0.040030
v 0.025620 -0.002401 -0.038035
v 0.034120 -0.096887 -0.031998
v 0.030124 -0.019326 -0.036674
v 0.032389 -0.014252 -0.033142
v 0.029238 -0.000724 -0.033476
v 0.032084 -0.002430 -0.032740
v 0.025799 -0.000555 0.025232
v 0.034103 -0.105625 -0.017446
v 0.034188 -0.107120 -0.012632
v 0.033937 -0.108801 -0.004808
v 0.034215 -0.108709 0.004053
v 0.034116 -0.100059 -0.027918
v 0.034323 -0.102998 -0.022796
v 0.034221 -0.092148 -0.036648
v 0.034167 -0.088063 -0.039957
v 0.034139 -0.081005 -0.044089
v 0.034160 -0.073390 -0.046920
v 0.034091 -0.052345 -0.048310
v 0.048621 -0.058128 -0.034210
v 0.034252 -0.044963 -0.046383
v 0.048928 -0.051188 -0.032839
v 0.033716 -0.037538 -0.043586
v 0.032777 -0.029495 -0.039770
v 0.036325 -0.002446 -0.027955
v 0.037654 -0.000678 -0.023064
v 0.040484 -0.002350 -0.021468
v 0.041723 -0.000635 -0.014162
v 0.042405 -0.000644 0.012200
v 0.048961 -0.091471 -0.012867
v 0.048954 -0.086302 -0.021438
v 0.047831 -0.039976 -0.029098
v 0.044310 -0.032802 -0.028412
v 0.047823 -0.035957 -0.015219
v 0.045621 -0.018520 -0.008742
v 0.038537 -0.023788 -0.029607
v 0.044486 -0.029639 -0.022514
v 0.041204 -0.016479 -0.021220
v 0.043916 -0.002538 -0.013415
v 0.044655 -0.001231 -0.006075
v 0.044727 -0.001057 0.003664
v 0.046040 -0.003319 -0.001464
v 0.048711 -0.094059 -0.002950
v 0.048965 -0.080958 -0.026618
v 0.048932 -0.075159 -0.030366
v 0.048953 -0.065629 -0.033381
v 0.048991 -0.047475 0.031564
v 0.048977 -0.045785 -0.030347
v 0.004691 -0.032952 0.041627
v 0.003768 -0.024221 0.041362
v 0.001471 -0.015243 0.046003
v 0.009170 -0.016649 0.045084
v 0.020685 0.000003 0.024498
v -0.002968 -0.000517 0.036761
v 0.008837 -0.002194 0.045033
v 0.010563 -0.000712 0.043018
v 0.013313 -0.101893 0.025490
v 0.014002 -0.092734 0.036458
v 0.014739 -0.084113 0.042653
v 0.033902 -0.074009 0.046950
v 0.033805 -0.058830 0.048987
v 0.017665 -0.049099 0.047707
v 0.020645 -0.040970 0.045373
v 0.015299 -0.033198 0.041862
v 0.013571 -0.026034 0.041225
v 0.016655 -0.020111 0.043143
v 0.011376 -0.000019 0.008007
v 0.019768 -0.002567 0.041479
v 0.020785 -0.028568 0.042509
v 0.022908 -0.017685 0.040255
v 0.022874 -0.000756 0.038119
v 0.034132 -0.105463 0.017699
v 0.034049 -0.089092 0.039298
v 0.033281 -0.033448 0.041718
v 0.027672 -0.027716 0.040686
v 0.031935 -0.014835 0.033747
v 0.030064 -0.002667 0.034773
v 0.034179 -0.107068 0.012743
v 0.034190 -0.103108 0.022845
v 0.034130 -0.100054 0.027911
v 0.034179 -0.096505 0.032398
v 0.034179 -0.083265 0.042875
v 0.034170 -0.068586 0.048025
v 0.034169 -0.047695 0.047351
v 0.033798 -0.039582 0.044514
v 0.031236 -0.022667 0.037149
v 0.038613 -0.000724 0.021837
v 0.031297 -0.000703 0.031285
v 0.036176 -0.002452 0.028181
v 0.048970 -0.093117 0.007348
v 0.048927 -0.085578 0.022408
v 0.034069 -0.079255 0.044931
v 0.048010 -0.032934 0.008915
v 0.047978 -0.040414 0.029181
v 0.045078 -0.029802 0.020271
v 0.040276 -0.026404 0.029111
v 0.045881 -0.016580 0.005355
v 0.042063 -0.015636 0.019460
v 0.045192 -0.002518 0.007764
v 0.043398 -0.002398 0.014768
v 0.040359 -0.002712 0.021859
v 0.048936 -0.089675 0.016333
v 0.048948 -0.080068 0.027362
v 0.048902 -0.070285 0.032549
v 0.048933 -0.057472 0.033999
vn -0.9236 -0.0041 -0.3834
vn -0.9609 -0.0029 -0.2770
vn -0.4006 -0.9016 -0.1632
vn -0.7638 -0.4249 -0.4859
vn -0.9995 0.0299 0.0093
vn -0.9996 0.0285 -0.0078
vn -0.8291 0.2128 0.5171
vn -0.9995 -0.0315 -0.0036
vn -0.9999 0.0109 0.0010
vn -0.9857 0.1655 -0.0331
vn -0.6912 -0.6531 -0.3093
vn -0.6619 -0.0107 -0.7495
vn -0.9749 -0.2149 -0.0574
vn -0.5999 -0.8000 -0.0053
vn 0.0068 -0.8017 -0.5977
vn -0.9751 -0.1991 -0.0980
vn -0.9075 -0.3729 -0.1934
vn -0.8962 -0.2775 -0.3462
vn -0.9785 -0.0743 -0.1925
vn 0.0366 -0.0842 -0.9958
vn -0.9756 -0.0344 -0.2170
vn -0.9192 -0.0047 -0.3937
vn -0.9761 -0.0358 -0.2144
vn -0.0210 0.3347 -0.9421
vn -0.4689 0.0441 -0.8822
vn -0.4681 -0.0225 -0.8834
vn -0.3695 0.0320 -0.9287
vn -0.1960 0.0675 -0.9783
vn -0.2392 0.5595 -0.7936
vn 0.0037 0.9998 -0.0170
vn 0.0116 -0.9773 -0.2115
vn 0.0052 -0.7820 -0.6232
vn -0.0213 -0.6301 -0.7762
vn -0.0055 -0.3238 -0.9461
vn 0.0038 0.0677 -0.9977
vn 0.0042 0.4226 -0.9063
vn -0.9933 -0.0113 0.1148
vn -0.9494 -0.0133 0.3137
vn -0.8809 -0.0092 0.4733
vn -0.5692 -0.7537 0.3286
vn 0.0644 0.9955 0.0702
vn -0.8470 -0.0019 0.5316
vn -0.9959 0.0349 -0.0830
vn -0.9822 -0.0162 0.1870
vn -0.9933 -0.0179 0.1139
vn -0.9858 0.0287 0.1657
vn -0.9901 0.0748 0.1184
vn -0.9494 0.0714 0.3060
vn -0.9991 -0.0102 0.0408
vn -0.9581 -0.0589 0.2802
vn -0.9939 0.0142 0.1089
vn -0.9415 -0.2900 0.1717
vn -0.5534 0.4301 0.7132
vn -0.9807 -0.1776 0.0811
vn -0.9785 -0.1400 0.1517
vn -0.9057 -0.2756 0.3221
vn -0.8802 -0.0170 0.4744
vn -0.4068 0.3378 0.8488
vn -0.0815 0.2576 0.9628
vn 0.0103 0.3198 0.9474
vn -0.3754 0.0317 0.9263
vn -0.4100 -0.0312 0.9115
vn -0.0271 0.2626 0.9645
vn -0.0067 0.9984 0.0555
vn -0.4374 0.0105 0.8992
vn -0.0364 -0.8358 0.5479
vn 0.0996 0.3394 0.9354
vn -0.0241 0.9837 0.1781
vn -0.2094 0.5754 0.7906
vn 0.0191 -0.9155 0.4018
vn 0.0036 -0.4634 0.8861
vn -0.0015 -0.2869 0.9580
vn 0.0109 0.0628 0.9980
vn -0.0207 0.2405 0.9704
vn -0.0443 0.1088 0.9931
vn -0.2115 0.9756 0.0597
vn -0.7678 0.6153 -0.1787
vn 0.0838 0.9390 -0.3334
vn 0.1611 0.9863 0.0366
vn 0.5312 0.8454 0.0551
vn -0.7468 0.6366 0.1927
vn 0.1250 0.8311 0.5419
vn 0.0018 0.9998 -0.0196
vn 0.0154 -0.9998 -0.0105
vn 0.0376 -0.3361 -0.9411
vn 0.0070 0.9999 -0.0144
vn -0.0055 -0.9146 -0.4042
vn -0.0057 -0.1369 -0.9906
vn 0.0010 0.0677 -0.9977
vn -0.0007 0.2433 -0.9699
vn 0.3888 0.0984 -0.9161
vn 0.0001 -0.9708 -0.2401
vn 0.1163 0.3575 -0.9267
vn 0.4625 0.1166 -0.8789
vn 0.0093 -0.8978 -0.4404
vn 0.0174 -0.5050 -0.8629
vn 0.0065 -0.2028 -0.9792
vn 0.8412 0.0334 -0.5397
vn 0.6897 0.3393 -0.6397
vn 0.6988 0.3997 -0.5932
vn 0.9195 0.0400 -0.3910
vn 0.2129 0.9771 -0.0052
vn 0.1085 0.9939 -0.0186
vn 1.0000 0.0005 -0.0004
vn 1.0000 0.0016 0.0027
vn -0.0049 -0.9749 0.2225
vn 0.1197 0.0062 0.9928
vn 0.0012 0.9990 0.0447
vn 0.0667 0.0365 0.9971
vn 0.0100 -0.4074 0.9132
vn -0.0007 0.2762 0.9611
vn 0.0789 0.9779 0.1937
vn 0.0074 0.9999 0.0152
vn 0.0004 -0.9735 0.2288
vn -0.0043 -0.9134 0.4071
vn -0.0092 -0.5830 0.8124
vn 0.0267 0.3310 0.9432
vn 0.2681 0.4186 0.8677
vn 0.2351 0.1529 0.9599
vn 0.4698 0.2594 0.8438
vn 0.4895 0.3103 0.8149
vn 0.4702 0.5185 0.7142
vn 0.0013 -0.0981 0.9952
vn 0.0090 0.1451 0.9894
vn 0.6984 0.3448 0.6272
vn 0.6977 0.3865 0.6031
vn 0.6976 -0.6961 0.1698
vn 0.7019 -0.6294 0.3334
vn 0.7076 -0.3811 0.5950
vn 0.7141 -0.3253 0.6198
vn 0.9204 0.3663 0.1367
vn 0.9955 0.0336 0.0885
vn 0.7327 0.6597 0.1673
vn 0.9174 0.0476 0.3952
vn 0.9999 -0.0116 0.0086
vn 1.0000 -0.0036 0.0060
vn 0.9999 -0.0035 0.0095
vn -0.0008 1.0000 0.0001
vn 0.0009 1.0000 -0.0018
vn -0.2433 -0.9697 -0.0223
vn -0.9088 0.0161 -0.4169
vn -0.6537 0.6971 -0.2944
vn -0.9747 0.0450 -0.2191
vn -0.6750 0.6771 -0.2931
vn -0.4980 0.7828 -0.3730
vn -0.7225 -0.6007 -0.3422
vn -0.7968 -0.5474 -0.2559
vn -0.7595 -0.6489 -0.0462
vn -0.9851 -0.1552 -0.0744
vn -0.9950 -0.0996 -0.0039
vn -0.9800 -0.1910 -0.0553
vn -0.9836 -0.1183 -0.1365
vn -0.8512 -0.4414 -0.2840
vn -0.9939 0.0864 0.0688
vn -1.0000 -0.0055 -0.0043
vn -0.7687 -0.2126 -0.6033
vn -0.9905 -0.0305 -0.1340
vn -0.8658 0.4857 0.1200
vn -0.9916 -0.0014 -0.1294
vn -0.9690 -0.0036 -0.2472
vn -0.9991 0.0158 0.0402
vn -0.9854 0.1494 0.0815
vn -0.9827 -0.1435 0.1169
vn -0.8139 0.0161 -0.5807
vn -0.8657 -0.0221 -0.5001
vn -0.9834 0.0679 -0.1684
vn -0.9994 -0.0177 0.0295
vn -0.8397 -0.5290 0.1224
vn -0.9749 0.0611 -0.2142
vn -0.9789 0.1528 -0.1355
vn -1.0000 0.0060 -0.0021
vn -0.9901 -0.1124 0.0843
vn -0.9878 0.0222 0.1541
vn -0.9997 0.0027 -0.0232
vn -0.9060 0.3283 0.2671
vn -0.9396 0.3415 -0.0225
vn -0.6937 0.5900 -0.4132
vn -0.9477 0.3154 -0.0485
vn -0.9904 0.1009 -0.0941
vn -0.8861 0.2073 -0.4145
vn -0.9514 0.0135 -0.3076
vn -0.9849 -0.1702 -0.0320
vn -0.9506 -0.2937 0.1005
vn -0.7357 -0.6165 -0.2805
vn -0.7063 -0.7068 -0.0409
vn -0.6297 -0.4221 -0.6522
vn -0.7867 -0.2919 -0.5439
vn -0.7605 -0.6399 -0.1102
vn -0.7086 -0.7037 -0.0516
vn -0.7392 -0.6688 0.0801
vn -0.5167 0.6286 -0.5813
vn -0.0639 0.9960 -0.0626
vn -0.9751 -0.2140 -0.0583
vn -0.9750 -0.2219 -0.0078
vn -0.9745 -0.2243 -0.0069
vn -0.9740 -0.1803 -0.1370
vn -0.9857 -0.1508 -0.0755
vn -0.9784 -0.1932 -0.0731
vn -0.8729 -0.4528 -0.1818
vn -0.9814 -0.1347 -0.1370
vn -0.0015 -0.7278 -0.6858
vn -0.9848 -0.0811 -0.1534
vn 0.0143 -0.4521 -0.8919
vn -0.9873 -0.0806 -0.1366
vn -0.8691 -0.3398 -0.3594
vn -0.9374 -0.1389 -0.3193
vn -0.0214 -0.2317 -0.9726
vn -0.6605 0.0014 -0.7508
vn -0.6013 0.0318 -0.7984
vn -0.9211 -0.3299 -0.2069
vn -0.5681 -0.1215 -0.8139
vn -0.4665 -0.3542 -0.8105
vn -0.3348 -0.4225 -0.8422
vn -0.4449 -0.3100 -0.8402
vn -0.3455 0.1484 -0.9266
vn -0.5107 0.0398 -0.8588
vn -0.5423 -0.0324 -0.8395
vn -0.0325 0.3942 -0.9185
vn -0.1355 0.9874 -0.0816
vn 0.1750 -0.9642 -0.1992
vn -0.0162 -0.9965 -0.0820
vn 0.0517 -0.8925 -0.4480
vn 0.1054 -0.3533 -0.9295
vn 0.0717 0.1465 -0.9866
vn -0.0221 0.4712 -0.8817
vn -0.2623 0.5814 -0.7702
vn -0.0513 0.9197 -0.3892
vn 0.0173 -0.9153 -0.4024
vn -0.0092 -0.7725 -0.6349
vn 0.0173 -0.6004 -0.7995
vn 0.0105 -0.4839 -0.8750
vn 0.0110 -0.1369 -0.9905
vn 0.0521 0.1298 -0.9902
vn -0.0151 0.2662 -0.9638
vn -0.0148 0.4122 -0.9110
vn -0.0639 0.1042 -0.9925
vn -0.1802 -0.4825 -0.8571
vn -0.1856 0.0330 -0.9821
vn -0.5751 0.4542 -0.6804
vn -0.4662 0.6705 -0.5771
vn -0.2581 -0.9655 0.0335
vn -0.5923 -0.7809 0.1986
vn -0.6435 0.7225 0.2529
vn -0.4590 -0.8881 0.0230
vn -0.5158 -0.8554 0.0469
vn -0.8462 -0.0031 0.5328
vn -0.6105 0.6684 0.4249
vn -0.7390 -0.0013 0.6737
vn -0.7303 -0.6266 0.2720
vn -0.9898 -0.1358 0.0425
vn -0.9862 -0.1619 0.0353
vn -0.8116 -0.4230 0.4030
vn -0.7328 -0.4632 0.4985
vn -0.9853 -0.1192 0.1225
vn -0.8639 0.3807 -0.3298
vn -0.7973 -0.2255 0.5599
vn -0.9388 -0.0694 -0.3374
vn -0.8020 -0.0806 -0.5919
vn -1.0000 -0.0004 0.0056
vn -0.9960 -0.0292 0.0839
vn -0.3158 0.0988 0.9437
vn -0.8468 -0.4351 -0.3059
vn -0.8747 -0.0805 0.4779
vn -0.9052 -0.1636 0.3923
vn -1.0000 0.0038 0.0037
vn -0.9822 0.1027 0.1575
vn -0.8537 -0.4102 0.3207
vn -0.9919 0.0979 0.0809
vn -0.9861 0.1552 0.0588
vn -0.9227 0.2674 0.2777
vn -0.8662 0.4575 0.2008
vn -0.9845 0.1717 -0.0359
vn -0.8776 -0.1942 0.4384
vn -0.6019 0.2676 0.7524
vn -0.9997 0.0002 0.0249
vn -0.9778 0.1341 0.1611
vn -0.9508 -0.1771 0.2543
vn -0.9898 -0.0733 0.1221
vn -0.7634 -0.6458 0.0129
vn -0.9613 -0.2753 -0.0061
vn -0.8597 -0.5037 0.0851
vn -0.9061 -0.3465 0.2429
vn -0.8802 0.1278 0.4571
vn -0.6391 -0.7440 0.1949
vn -0.6768 -0.2777 0.6818
vn -0.5058 0.7248 0.4677
vn -0.1751 0.9633 0.2035
vn 0.0576 -0.9882 0.1421
vn -0.9022 -0.4310 -0.0158
vn -0.9873 -0.1356 0.0833
vn 0.0338 -0.8334 0.5516
vn -0.8655 -0.4651 0.1859
vn -0.9593 -0.1956 0.2036
vn -0.9827 -0.1147 0.1451
vn -0.8903 -0.3132 0.3305
vn -0.9782 -0.0968 0.1835
vn -0.9979 0.0246 -0.0596
vn -0.9725 -0.0221 0.2317
vn 0.1508 -0.0992 0.9836
vn -0.8664 -0.0315 0.4983
vn 0.1618 -0.7618 0.6273
vn -0.4736 -0.1058 0.8744
vn -0.9256 -0.3193 0.2032
vn -0.1266 0.4867 0.8643
vn -0.0130 0.4852 0.8743
vn -0.4854 -0.0566 0.8725
vn -0.1826 -0.2521 0.9503
vn -0.4035 -0.3531 0.8441
vn -0.5721 -0.0104 0.8201
vn -0.4036 0.6522 0.6417
vn -0.0341 0.9984 0.0457
vn 0.1811 -0.8660 0.4661
vn -0.0307 -0.6873 0.7257
vn 0.1070 -0.5384 0.8359
vn -0.0444 0.3990 0.9159
vn -0.2565 -0.4371 0.8621
vn -0.3035 -0.0942 0.9482
vn 0.0004 1.0000 0.0014
vn 0.0226 0.9394 0.3421
vn -0.0554 0.4955 0.8668
vn -0.2736 0.5586 0.7830
vn 0.0407 -0.7689 0.6381
vn 0.0120 -0.6099 0.7924
vn -0.0328 0.4093 0.9118
vn -0.1292 -0.2142 0.9682
vn 0.0740 0.9906 -0.1149
vn -0.0738 0.0576 0.9956
vn -0.5999 0.4826 0.6382
vn -0.5194 0.6176 0.5906
vn -0.1737 -0.0215 0.9846
vn -0.8306 0.5376 -0.1452
vn -0.2939 0.9557 -0.0139
vn 0.0004 1.0000 0.0002
vn -0.0009 0.9999 0.0122
vn -0.8239 0.5666 -0.0139
vn -0.8101 0.5689 0.1419
vn 0.0054 0.9995 -0.0300
vn 0.5130 0.8566 -0.0556
vn 0.1451 0.9186 0.3676
vn 0.1975 0.7870 0.5844
vn 0.2012 0.9793 -0.0206
vn 0.1576 0.9575 0.2414
vn 0.0013 1.0000 0.0018
vn -0.0030 -0.9158 -0.4017
vn -0.0126 -0.9770 -0.2128
vn -0.0050 -0.7813 -0.6241
vn -0.0136 -0.4877 -0.8729
vn -0.1363 -0.0513 -0.9893
vn -0.0497 -0.1771 -0.9829
vn 0.0150 -0.0046 -0.9999
vn 0.0179 0.7857 -0.6184
vn 0.0046 0.9905 -0.1375
vn 0.0054 0.2305 -0.9731
vn -0.0003 0.3862 -0.9224
vn -0.0266 0.3554 -0.9343
vn 0.0344 0.9851 -0.1682
vn 0.2123 -0.0083 -0.9772
vn 0.2233 0.6483 -0.7279
vn -0.2164 0.2835 -0.9342
vn -0.1369 -0.0679 -0.9883
vn -0.2615 0.0622 -0.9632
vn 0.4056 0.0135 -0.9139
vn 0.3037 0.0320 -0.9522
vn 0.3490 0.6660 -0.6593
vn 0.0035 -0.9550 -0.2966
vn 0.0087 -0.9777 -0.2098
vn -0.0061 -0.7820 -0.6232
vn 0.0072 -0.7005 -0.7136
vn -0.0004 -0.3485 -0.9373
vn 0.4940 0.3372 -0.8014
vn 0.6332 0.0427 -0.7728
vn 0.5141 0.5881 -0.6243
vn 0.0194 0.9996 -0.0205
vn 0.7047 0.3685 -0.6063
vn 0.6874 0.1825 -0.7030
vn 0.7904 0.3147 -0.5256
vn 0.7477 0.0419 -0.6627
vn 0.5395 0.6945 -0.4760
vn 0.8035 -0.0064 -0.5952
vn 0.0197 0.9996 -0.0203
vn 0.0060 1.0000 0.0008
vn 0.7075 -0.6713 -0.2209
vn 0.7165 -0.5922 -0.3688
vn 0.7139 -0.5995 -0.3620
vn 0.7167 -0.6790 -0.1591
vn 0.7097 -0.2472 -0.6597
vn 0.7073 -0.3550 -0.6113
vn 0.7083 -0.1446 -0.6910
vn 0.7162 -0.0453 -0.6964
vn 0.8555 0.4452 -0.2644
vn 0.9232 0.2583 -0.2846
vn 0.6798 0.7072 -0.1943
vn 0.9837 0.0549 -0.1712
vn 0.8488 0.5285 -0.0157
vn 0.9997 -0.0096 -0.0235
vn 1.0000 0.0031 0.0052
vn 0.9612 0.0120 -0.2757
vn 1.0000 -0.0006 -0.0003
vn 0.7365 0.2779 -0.6167
vn 0.9769 0.2053 -0.0589
vn 0.9245 0.3664 -0.1055
vn 0.9907 0.1342 -0.0245
vn -0.0112 -0.9997 0.0194
vn -0.0045 -0.7725 0.6350
vn -0.0087 -0.6080 0.7939
vn -0.0056 0.0652 0.9979
vn 0.0066 0.1412 0.9900
vn -0.0118 0.2404 0.9706
vn -0.0254 0.4098 0.9118
vn -0.0501 0.0249 0.9984
vn 0.0234 -0.4544 0.8905
vn 0.0421 0.7262 0.6862
vn 0.0558 0.7810 0.6220
vn 0.0042 0.9997 0.0220
vn 0.0058 -0.5839 0.8118
vn -0.0109 0.4055 0.9140
vn -0.0202 0.0837 0.9963
vn 0.0214 -0.4532 0.8911
vn -0.0400 -0.2890 0.9565
vn 0.2550 0.0092 0.9669
vn 0.3101 0.0351 0.9500
vn -0.0148 -0.9996 -0.0227
vn -0.0007 -0.9999 0.0103
vn -0.0196 -0.3597 0.9329
vn -0.2940 0.2182 0.9306
vn -0.1582 0.0495 0.9862
vn 0.3789 0.1162 0.9181
vn 0.0125 -0.9825 0.1856
vn 0.0050 -0.9513 0.3082
vn -0.0002 -0.9093 0.4161
vn 0.0156 -0.8563 0.5163
vn -0.0029 -0.7843 0.6204
vn 0.0200 -0.6810 0.7320
vn 0.0097 -0.4560 0.8899
vn -0.0028 0.2769 0.9609
vn 0.0155 0.4158 0.9093
vn 0.2246 0.2169 0.9500
vn 0.1445 0.9895 0.0016
vn 0.5458 0.0133 0.8378
vn 0.0078 0.9998 0.0173
vn 0.4448 0.7039 0.5537
vn 0.9992 0.0407 -0.0036
vn 0.6977 0.0818 0.7117
vn 0.6968 0.3878 0.6034
vn 0.7744 0.3462 0.5296
vn 0.6982 0.2320 0.6773
vn 0.5260 0.7475 0.4056
vn 0.6780 0.6005 0.4239
vn 0.7026 -0.7100 0.0472
vn 0.7073 -0.5582 0.4337
vn 0.7069 -0.4752 0.5239
vn 0.7210 -0.3004 0.6245
vn 0.7176 -0.0800 0.6919
vn 0.7052 0.3155 0.6350
vn 0.8411 0.4637 0.2786
vn 0.9062 0.4202 0.0468
vn 0.9653 0.0025 0.2611
vn 0.9999 -0.0083 0.0070
vn 1.0000 0.0062 -0.0029
vn 0.0054 0.9926 -0.1211
vn 0.0002 1.0000 0.0006
vn 0.0006 1.0000 0.0002
vn -0.0028 1.0000 0.0003
vn -0.3808 -0.9236 -0.0451
vn -0.8941 -0.0044 -0.4478
vn -0.7561 0.6332 -0.1656
vn -0.9959 -0.0381 -0.0821
vn -0.5980 -0.7086 -0.3745
vn -0.5483 -0.8161 -0.1827
vn -0.4055 -0.9016 -0.1507
vn -0.4172 -0.8972 -0.1447
vn -0.3564 -0.9343 -0.0002
vn -0.6044 -0.7947 -0.0559
vn -0.8151 -0.0022 -0.5793
vn -0.7918 0.0356 -0.6097
vn -0.5544 0.7057 -0.4411
vn -0.8003 -0.3795 -0.4642
vn -0.8103 -0.2212 -0.5426
vn -0.9879 -0.0916 -0.1254
vn -0.9988 -0.0383 -0.0308
vn -0.9899 -0.1333 -0.0478
vn -0.9823 -0.0326 -0.1847
vn -0.9998 -0.0089 0.0195
vn -0.8988 0.3435 0.2723
vn -0.8650 -0.1528 0.4780
vn -0.9107 0.3471 0.2240
vn -0.8153 0.0144 -0.5789
vn -0.9899 0.0428 -0.1348
vn -0.8068 -0.2453 0.5374
vn -0.8628 -0.4832 0.1487
vn -0.9809 -0.1503 0.1236
vn -0.8097 -0.5194 -0.2732
vn -0.9047 -0.1799 -0.3863
vn -0.9629 0.0984 -0.2513
vn -0.9999 0.0098 -0.0049
vn -0.7414 -0.0119 -0.6710
vn -0.4201 0.1887 -0.8877
vn -0.3738 0.6192 -0.6906
vn -0.9175 -0.1580 -0.3650
vn -0.9760 0.2045 0.0755
vn -0.9898 0.1056 -0.0956
vn -0.8978 0.3108 -0.3121
vn -0.9854 0.1212 -0.1196
vn -0.9943 0.0886 0.0594
vn -0.9944 0.0872 0.0602
vn -0.9597 -0.1935 0.2036
vn -0.9155 -0.1323 -0.3800
vn -0.9892 0.0779 -0.1243
vn -0.9941 0.1081 -0.0080
vn -0.7046 0.0651 -0.7066
vn -0.9236 -0.3821 -0.0295
vn -0.9032 -0.3025 -0.3046
vn -0.9688 -0.2477 -0.0042
vn -0.6733 0.0041 -0.7393
vn -0.3855 0.7502 -0.5372
vn -0.0155 0.9998 -0.0146
vn -0.0077 1.0000 0.0053
vn 0.0389 -0.9507 -0.3076
vn 0.0003 -0.8590 -0.5120
vn 0.0586 -0.7688 -0.6368
vn -0.9791 -0.1352 -0.1519
vn -0.9798 -0.1372 -0.1452
vn 0.0978 -0.5436 -0.8336
vn -0.9702 -0.0945 -0.2233
vn -0.8737 -0.1562 -0.4606
vn -0.9742 -0.0554 -0.2187
vn -0.0121 -0.1047 -0.9944
vn -0.9308 -0.2426 -0.2733
vn -0.9401 -0.2529 -0.2285
vn -0.5545 0.2834 -0.7824
vn 0.0130 0.2488 -0.9685
vn -0.1638 0.4858 -0.8586
vn -0.3352 0.4525 -0.8263
vn -0.1366 0.0348 -0.9900
vn -0.5321 0.1773 -0.8279
vn -0.5143 -0.1772 -0.8391
vn -0.3907 0.7050 -0.5918
vn -0.0193 0.5542 -0.8321
vn -0.1076 0.9930 -0.0492
vn 0.0178 -0.9140 -0.4054
vn -0.0216 -0.8888 -0.4577
vn -0.0034 -0.6325 -0.7746
vn -0.0131 -0.5966 -0.8024
vn 0.0656 -0.3772 -0.9238
vn -0.0778 -0.3850 -0.9196
vn 0.0217 0.4198 -0.9074
vn -0.0590 0.0936 -0.9939
vn -0.2035 -0.1874 -0.9610
vn -0.2881 -0.5088 -0.8112
vn -0.3063 -0.0099 -0.9519
vn -0.0492 0.5435 -0.8380
vn -0.0231 -0.9539 -0.2994
vn -0.0168 -0.1044 -0.9944
vn -0.1014 0.2178 -0.9707
vn -0.1973 -0.2304 -0.9529
vn -0.1160 -0.5180 -0.8475
vn -0.1552 0.0417 -0.9870
vn -0.3583 0.9046 -0.2311
vn 0.1559 0.9812 0.1140
vn -0.9981 0.0453 0.0426
vn -0.7953 0.6058 0.0222
vn -0.9726 0.0412 0.2286
vn -0.9108 0.0282 0.4120
vn -0.2403 -0.9697 0.0436
vn -0.7005 -0.7136 -0.0070
vn -0.5209 -0.8525 0.0440
vn -0.7150 -0.6790 0.1663
vn -0.7386 -0.0007 0.6742
vn -0.1736 0.8939 0.4132
vn -0.4767 0.8474 0.2337
vn -0.5383 0.6947 0.4770
vn -0.7072 -0.7067 -0.0214
vn -0.8138 -0.5549 0.1726
vn -0.9982 -0.0122 0.0588
vn -0.9700 -0.2360 0.0584
vn -0.9911 -0.0867 0.1010
vn -0.9878 -0.1129 0.1074
vn -0.7722 -0.2532 0.5828
vn -0.8345 0.5391 -0.1143
vn -0.9989 -0.0293 0.0365
vn -0.9995 -0.0300 -0.0037
vn -0.8291 0.3879 -0.4026
vn -0.9586 0.1795 -0.2213
vn -0.9541 -0.1802 -0.2391
vn -0.9999 -0.0030 0.0121
vn -0.8091 -0.0853 -0.5814
vn -0.9908 0.0107 0.1348
vn -0.9764 -0.0205 0.2151
vn -0.7553 -0.0650 0.6522
vn -0.8315 -0.4701 -0.2960
vn -0.9999 0.0060 0.0089
vn -0.9869 0.0725 0.1443
vn -0.9839 0.0801 0.1600
vn -0.9968 -0.0574 -0.0561
vn -0.8559 -0.4106 0.3143
vn 0.2435 0.9614 -0.1278
vn -0.9937 0.1092 0.0256
vn -0.9851 0.1193 0.1241
vn -0.9566 0.2765 0.0920
vn -0.9974 -0.0463 -0.0546
vn -0.9389 0.2439 -0.2428
vn -0.4961 0.0578 0.8664
vn -0.9870 -0.1537 0.0470
vn -0.7475 0.3660 0.5544
vn -0.9619 -0.2734 -0.0066
vn -0.9697 -0.2065 0.1308
vn -0.8140 -0.4810 0.3256
vn -0.6552 -0.1195 0.7460
vn -0.6760 -0.4699 0.5676
vn -0.5621 -0.4333 0.7044
vn -0.0346 0.9993 -0.0163
vn -0.6215 0.0425 0.7822
vn -0.9736 -0.2227 0.0496
vn -0.1115 -0.9659 0.2337
vn -0.4984 -0.8013 0.3310
vn -0.0459 -0.9416 0.3336
vn -0.9208 -0.3900 0.0023
vn -0.8843 -0.4278 0.1872
vn -0.9777 -0.1892 0.0907
vn -0.9838 -0.1088 0.1424
vn -0.9653 -0.1820 0.1875
vn -0.9128 -0.1779 0.3675
vn -0.8755 -0.1956 0.4418
vn -0.9803 -0.0847 0.1786
vn -0.9786 -0.0826 0.1883
vn -0.8577 -0.2250 0.4623
vn -0.9696 -0.0587 0.2373
vn -0.9703 -0.0249 0.2406
vn -0.7083 -0.0044 0.7059
vn -0.9452 -0.2076 0.2519
vn -0.0139 0.1341 0.9909
vn -0.9180 -0.3396 0.2048
vn -0.2994 0.6094 0.7342
vn -0.5374 0.4382 0.7205
vn -0.4249 -0.3816 0.8208
vn -0.0770 0.9964 0.0344
vn -0.0169 -0.9880 0.1532
vn -0.0087 -0.7775 0.6288
vn 0.0529 -0.6809 0.7304
vn 0.1799 -0.6045 0.7760
vn -0.0105 -0.4362 0.8998
vn 0.0025 -0.3114 0.9503
vn 0.0833 -0.2242 0.9710
vn -0.0447 -0.0098 0.9990
vn 0.0993 0.3397 0.9353
vn -0.1987 0.0571 0.9784
vn -0.1229 0.0358 0.9918
vn -0.2160 0.0674 0.9741
vn 0.0291 -0.9992 0.0278
vn 0.0175 -0.9767 0.2138
vn -0.0017 -0.9384 0.3457
vn -0.0128 -0.4813 0.8765
vn -0.0088 -0.2786 0.9604
vn 0.0048 -0.1180 0.9930
vn 0.0346 0.1931 0.9806
vn -0.0205 0.3165 0.9484
vn -0.1400 0.0187 0.9900
vn -0.2393 -0.4722 0.8484
vn -0.3284 0.5763 0.7483
vn -0.5637 0.6539 -0.5047
vn -0.5294 0.8026 -0.2748
vn 0.1094 0.8422 -0.5279
vn 0.0956 0.9355 -0.3401
vn 0.2379 0.7631 -0.6010
vn 0.0103 0.9999 -0.0012
vn 0.5595 0.8281 0.0347
vn 0.2644 0.9350 -0.2363
vn 0.3444 0.9356 0.0778
vn 0.1879 0.9821 -0.0126
vn 0.0027 1.0000 -0.0026
vn 0.0008 1.0000 -0.0001
vn -0.0006 1.0000 -0.0014
vn -0.5252 0.6785 0.5135
vn -0.1795 0.9838 -0.0012
vn 0.5426 0.8391 -0.0384
vn 0.0672 0.9587 0.2763
vn 0.0103 -0.6266 -0.7793
vn -0.0446 0.4114 -0.9104
vn -0.0600 0.1055 -0.9926
vn 0.0215 -0.0207 -0.9996
vn -0.0458 -0.4764 -0.8780
vn 0.0535 0.0168 -0.9984
vn 0.0632 0.6491 -0.7580
vn -0.0124 0.9998 0.0166
vn 0.0171 -0.0269 -0.9995
vn -0.0223 -0.3703 -0.9286
vn 0.0320 -0.5086 -0.8604
vn 0.2227 0.7183 -0.6591
vn -0.0116 -0.3871 -0.9220
vn 0.2492 0.1626 -0.9547
vn -0.1950 -0.2879 -0.9376
vn 0.4684 0.0424 -0.8825
vn 0.3407 0.7620 -0.5507
vn -0.0019 -0.7894 -0.6138
vn -0.0054 -0.6101 -0.7923
vn 0.0001 -0.6295 -0.7770
vn 0.0121 0.0223 -0.9997
vn 0.0052 0.2524 -0.9676
vn 0.0050 0.2513 -0.9679
vn 0.1505 0.4381 -0.8863
vn 0.1880 0.3307 -0.9248
vn 0.5976 0.0103 -0.8018
vn 0.0168 -0.8669 -0.4982
vn 0.7087 -0.4384 -0.5527
vn 0.7004 0.0206 -0.7134
vn 0.7138 0.1052 -0.6924
vn 0.7057 0.1644 -0.6891
vn 0.9069 -0.0895 0.4116
vn 0.5049 0.7588 -0.4115
vn 0.0173 0.9998 -0.0127
vn 0.6242 0.6650 -0.4100
vn 0.0074 1.0000 0.0002
vn 0.7055 -0.6472 -0.2887
vn 0.7099 -0.5010 -0.4951
vn 0.7072 -0.5585 -0.4336
vn 0.7086 -0.6942 -0.1265
vn 0.7130 -0.4888 -0.5028
vn 0.7134 -0.3775 -0.5904
vn 0.7179 -0.2114 -0.6633
vn 0.7126 0.2838 -0.6416
vn 0.7036 0.3702 -0.6066
vn 0.8235 0.4893 -0.2871
vn 0.9451 0.2117 -0.2489
vn 0.8342 0.2561 -0.4884
vn 0.6000 0.7502 -0.2779
vn 0.6819 0.6779 -0.2748
vn 0.9428 0.0032 -0.3333
vn 0.9428 0.2985 -0.1481
vn 0.9898 -0.1417 -0.0120
vn 0.9999 -0.0033 -0.0124
vn 0.9870 0.1582 -0.0275
vn -0.0453 0.0203 0.9988
vn -0.0684 -0.4628 0.8838
vn -0.0837 -0.4744 0.8763
vn -0.6347 0.7725 0.0216
vn 0.0008 -0.9161 0.4009
vn 0.0013 -0.7676 0.6409
vn -0.0117 -0.4634 0.8861
vn -0.0062 -0.2866 0.9580
vn 0.0072 -0.1174 0.9931
vn -0.0131 0.4019 0.9156
vn 0.0200 0.0324 0.9993
vn -0.2354 -0.1864 0.9539
vn 0.0107 0.9998 0.0180
vn 0.4152 0.0126 0.9096
vn 0.2515 0.6643 0.7038
vn 0.2533 0.7342 0.6300
vn -0.0143 -0.7670 0.6415
vn 0.1098 0.2791 0.9540
vn 0.1086 0.9941 -0.0012
vn 0.5730 0.0528 0.8179
vn 0.0131 -0.5234 0.8520
vn 0.0048 -0.1946 0.9809
vn 0.7051 -0.0434 0.7078
vn 0.0172 0.9997 0.0151
vn 0.0159 0.9998 0.0100
vn 0.5684 0.6146 0.5471
vn 0.8152 -0.0190 0.5789
vn 0.8341 0.0076 0.5516
vn 0.7313 0.0551 0.6798
vn 0.7279 -0.6855 -0.0157
vn 0.9841 0.1572 -0.0830
vn 0.7136 -0.5803 0.3924
vn 0.7073 -0.4741 0.5244
vn 0.7028 -0.2359 0.6711
vn 0.7041 -0.1714 0.6891
vn 0.7184 0.1607 0.6768
vn 0.7014 0.2636 0.6623
vn 0.9920 0.1216 -0.0350
vn 0.9529 0.1776 0.2460
vn 0.9584 0.2147 0.1883
vn 0.8906 0.2125 0.4020
vn 0.9997 -0.0200 -0.0156
vn 0.9686 -0.0096 0.2484
vn 0.7005 0.6937 0.1676
vn 0.7071 0.6250 0.3307
vn 0.6325 0.7314 0.2550
vn 0.7167 -0.6503 0.2519
vn 1.0000 -0.0002 -0.0006
vn 0.9976 0.0699 0.0017
vn 0.9849 0.1621 0.0614
vn 0.0006 1.0000 0.0010
vn -0.0013 1.0000 -0.0002
vn 0.0009 1.0000 0.0001
s 0
f 6//1 2//1 1//1
f 6//2 1//2 3//2
f 13//3 1//3 2//3
f 25//4 87//4 20//4
f 28//5 32//5 27//5
f 35//6 32//6 34//6
f 35//7 34//7 36//7
f 44//8 43//8 35//8
f 47//9 43//9 44//9
f 58//10 57//10 47//10
f 13//11 12//11 62//11
f 68//12 100//12 10//12
f 78//13 72//13 110//13
f 74//14 196//14 110//14
f 77//15 76//15 75//15
f 79//16 76//16 71//16
f 18//17 19//17 79//17
f 87//18 82//18 19//18
f 86//19 85//19 84//19
f 89//20 114//20 90//20
f 91//21 90//21 86//21
f 88//22 91//22 86//22
f 91//23 93//23 90//23
f 95//24 96//24 94//24
f 64//25 98//25 59//25
f 100//26 102//26 101//26
f 102//27 119//27 101//27
f 119//28 120//28 118//28
f 137//29 120//29 119//29
f 104//30 105//30 122//30
f 124//31 110//31 123//31
f 125//32 77//32 127//32
f 127//33 113//33 126//33
f 114//34 278//34 128//34
f 115//35 130//35 129//35
f 96//36 116//36 131//36
f 142//37 4//37 139//37
f 143//38 139//38 141//38
f 144//39 141//39 140//39
f 146//40 140//40 189//40
f 148//41 149//41 265//41
f 150//42 140//42 146//42
f 161//43 29//43 27//43
f 168//44 158//44 159//44
f 169//45 168//45 164//45
f 170//46 168//46 169//46
f 175//47 178//47 168//47
f 173//48 174//48 170//48
f 182//49 181//49 176//49
f 186//50 179//50 180//50
f 185//51 186//51 187//51
f 190//52 188//52 184//52
f 195//53 194//53 151//53
f 73//54 197//54 199//54
f 201//55 202//55 205//55
f 207//56 157//56 154//56
f 215//57 160//57 212//57
f 223//58 183//58 222//58
f 233//59 223//59 222//59
f 235//60 223//60 233//60
f 223//61 192//61 187//61
f 226//62 193//62 225//62
f 229//63 228//63 195//63
f 228//64 343//64 227//64
f 226//65 195//65 193//65
f 241//66 204//66 200//66
f 233//67 220//67 218//67
f 229//68 238//68 343//68
f 229//69 226//69 236//69
f 241//70 200//70 240//70
f 244//71 231//71 243//71
f 245//72 231//72 244//72
f 246//73 216//73 232//73
f 247//74 216//74 246//74
f 340//75 236//75 237//75
f 238//76 252//76 343//76
f 254//77 7//77 8//77
f 255//78 257//78 16//78
f 262//79 258//79 256//79
f 256//80 258//80 259//80
f 143//81 261//81 142//81
f 263//82 262//82 264//82
f 105//83 272//83 122//83
f 275//84 124//84 274//84
f 128//85 278//85 277//85
f 136//86 272//86 283//86
f 298//87 123//87 276//87
f 129//88 287//88 278//88
f 130//89 308//89 129//89
f 279//90 308//90 130//90
f 282//91 290//91 289//91
f 299//92 274//92 123//92
f 288//93 312//93 310//93
f 290//94 293//94 288//94
f 298//95 276//95 303//95
f 277//96 306//96 305//96
f 278//97 287//97 307//97
f 314//98 316//98 327//98
f 310//99 313//99 321//99
f 313//100 322//100 321//100
f 316//101 328//101 327//101
f 317//102 318//102 329//102
f 318//103 330//103 329//103
f 320//104 379//104 319//104
f 335//105 311//105 320//105
f 275//106 240//106 230//106
f 344//107 340//107 341//107
f 227//108 343//108 342//108
f 344//109 251//109 340//109
f 349//110 244//110 348//110
f 352//111 247//111 351//111
f 343//112 297//112 342//112
f 343//113 345//113 297//113
f 367//114 240//114 275//114
f 361//115 346//115 240//115
f 348//116 347//116 362//116
f 374//117 352//117 373//117
f 375//118 364//118 363//118
f 364//119 359//119 358//119
f 375//120 359//120 364//120
f 365//121 359//121 375//121
f 360//122 357//122 366//122
f 350//123 245//123 372//123
f 373//124 351//124 350//124
f 383//125 363//125 374//125
f 385//126 363//126 383//126
f 301//127 379//127 361//127
f 391//128 369//128 361//128
f 392//129 371//129 362//129
f 392//130 393//130 381//130
f 382//131 384//131 383//131
f 331//132 388//132 386//132
f 318//133 389//133 330//133
f 389//134 390//134 387//134
f 379//135 392//135 380//135
f 379//136 336//136 393//136
f 394//137 393//137 336//137
f 227//138 342//138 250//138
f 250//139 342//139 356//139
f 5//140 4//140 1//140
f 15//141 2//141 6//141
f 16//142 15//142 7//142
f 8//143 6//143 3//143
f 15//144 6//144 7//144
f 16//145 69//145 15//145
f 19//146 18//146 20//146
f 20//147 18//147 21//147
f 21//148 18//148 22//148
f 20//149 21//149 23//149
f 23//150 21//150 22//150
f 24//151 23//151 22//151
f 25//152 20//152 23//152
f 32//153 26//153 24//153
f 28//154 27//154 29//154
f 30//155 25//155 31//155
f 30//156 87//156 25//156
f 32//157 33//157 26//157
f 37//158 28//158 29//158
f 31//159 26//159 38//159
f 38//160 26//160 33//160
f 33//161 32//161 35//161
f 166//162 36//162 37//162
f 36//163 166//163 40//163
f 31//164 88//164 30//164
f 91//165 88//165 41//165
f 31//166 38//166 42//166
f 33//167 35//167 43//167
f 44//168 40//168 171//168
f 53//169 41//169 42//169
f 47//170 38//170 43//170
f 48//171 44//171 171//171
f 52//172 49//172 46//172
f 52//173 41//173 53//173
f 50//174 49//174 52//174
f 54//175 52//175 53//175
f 54//176 50//176 52//176
f 54//177 51//177 50//177
f 53//178 42//178 55//178
f 42//179 38//179 57//179
f 51//180 54//180 59//180
f 60//181 55//181 56//181
f 61//182 58//182 63//182
f 65//183 59//183 60//183
f 62//184 12//184 66//184
f 65//185 67//185 10//185
f 100//186 65//186 10//186
f 100//187 64//187 65//187
f 12//188 65//188 66//188
f 12//189 67//189 65//189
f 13//190 62//190 9//190
f 69//191 68//191 14//191
f 16//192 104//192 69//192
f 70//193 72//193 78//193
f 110//194 196//194 73//194
f 78//195 110//195 73//195
f 75//196 76//196 79//196
f 71//197 70//197 78//197
f 79//198 71//198 78//198
f 79//199 78//199 18//199
f 82//200 80//200 75//200
f 112//201 75//201 80//201
f 84//202 83//202 86//202
f 113//203 83//203 84//203
f 86//204 83//204 81//204
f 19//205 82//205 79//205
f 88//206 86//206 82//206
f 90//207 114//207 85//207
f 89//208 90//208 93//208
f 92//209 89//209 93//209
f 46//210 94//210 93//210
f 92//211 93//211 94//211
f 101//212 99//212 100//212
f 101//213 118//213 99//213
f 99//214 64//214 100//214
f 119//215 102//215 103//215
f 102//216 100//216 68//216
f 103//217 102//217 68//217
f 104//218 121//218 103//218
f 17//219 106//219 105//219
f 72//220 111//220 110//220
f 74//221 110//221 124//221
f 71//222 77//222 111//222
f 85//223 113//223 84//223
f 92//224 115//224 89//224
f 116//225 95//225 97//225
f 121//226 137//226 119//226
f 122//227 137//227 121//227
f 123//228 111//228 125//228
f 77//229 112//229 127//229
f 127//230 112//230 113//230
f 126//231 113//231 128//231
f 129//232 278//232 114//232
f 131//233 115//233 92//233
f 131//234 92//234 96//234
f 132//235 131//235 116//235
f 133//236 132//236 116//236
f 134//237 117//237 118//237
f 135//238 134//238 120//238
f 135//239 120//239 137//239
f 136//240 135//240 137//240
f 4//241 5//241 139//241
f 139//242 140//242 141//242
f 144//243 264//243 143//243
f 5//244 9//244 145//244
f 140//245 5//245 145//245
f 150//246 144//246 140//246
f 150//247 148//247 144//247
f 151//248 150//248 147//248
f 153//249 152//249 154//249
f 24//250 22//250 153//250
f 24//251 153//251 155//251
f 153//252 154//252 156//252
f 157//253 156//253 154//253
f 155//254 153//254 159//254
f 37//255 161//255 162//255
f 164//256 156//256 160//256
f 165//257 166//257 162//257
f 172//258 162//258 163//258
f 167//259 163//259 158//259
f 168//260 156//260 164//260
f 169//261 160//261 170//261
f 172//262 40//262 165//262
f 173//263 170//263 215//263
f 173//264 215//264 219//264
f 48//265 171//265 172//265
f 178//266 167//266 168//266
f 177//267 176//267 219//267
f 178//268 48//268 167//268
f 58//269 178//269 179//269
f 180//270 179//270 175//270
f 183//271 181//271 182//271
f 180//272 174//272 187//272
f 182//273 176//273 177//273
f 221//274 177//274 220//274
f 184//275 58//275 179//275
f 186//276 184//276 179//276
f 190//277 186//277 185//277
f 186//278 180//278 187//278
f 9//279 62//279 188//279
f 63//280 184//280 188//280
f 188//281 190//281 189//281
f 190//282 185//282 191//282
f 185//283 187//283 192//283
f 189//284 191//284 146//284
f 193//285 191//285 192//285
f 148//286 151//286 194//286
f 194//287 228//287 148//287
f 198//288 196//288 74//288
f 18//289 73//289 152//289
f 73//290 199//290 202//290
f 202//291 199//291 204//291
f 152//292 201//292 154//292
f 202//293 203//293 205//293
f 201//294 205//294 206//294
f 154//295 201//295 207//295
f 207//296 208//296 209//296
f 210//297 211//297 213//297
f 212//298 213//298 218//298
f 216//299 214//299 213//299
f 215//300 170//300 160//300
f 215//301 218//301 217//301
f 220//302 217//302 218//302
f 220//303 219//303 217//303
f 222//304 182//304 221//304
f 222//305 221//305 233//305
f 192//306 223//306 224//306
f 224//307 223//307 234//307
f 193//308 224//308 225//308
f 195//309 147//309 193//309
f 194//310 195//310 228//310
f 228//311 227//311 148//311
f 204//312 199//312 200//312
f 206//313 204//313 242//313
f 208//314 206//314 231//314
f 247//315 233//315 218//315
f 225//316 224//316 237//316
f 236//317 226//317 237//317
f 250//318 109//318 227//318
f 229//319 343//319 228//319
f 195//320 226//320 229//320
f 229//321 236//321 238//321
f 242//322 204//322 241//322
f 243//323 206//323 242//323
f 233//324 247//324 248//324
f 224//325 234//325 249//325
f 250//326 138//326 109//326
f 239//327 236//327 340//327
f 239//328 251//328 238//328
f 251//329 252//329 238//329
f 251//330 239//330 340//330
f 253//331 7//331 254//331
f 261//332 253//332 254//332
f 260//333 109//333 107//333
f 108//334 273//334 107//334
f 254//335 142//335 261//335
f 262//336 261//336 143//336
f 258//337 262//337 263//337
f 259//338 258//338 263//338
f 265//339 266//339 264//339
f 263//340 264//340 266//340
f 260//341 259//341 266//341
f 149//342 260//342 266//342
f 109//343 260//343 227//343
f 125//344 276//344 123//344
f 124//345 123//345 274//345
f 125//346 127//346 276//346
f 128//347 277//347 126//347
f 268//348 267//348 133//348
f 117//349 268//349 133//349
f 135//350 269//350 134//350
f 136//351 271//351 135//351
f 272//352 105//352 106//352
f 279//353 130//353 131//353
f 267//354 279//354 131//354
f 280//355 279//355 267//355
f 283//356 271//356 136//356
f 270//357 282//357 269//357
f 271//358 284//358 270//358
f 280//359 288//359 279//359
f 289//360 280//360 281//360
f 289//361 288//361 280//361
f 290//362 282//362 284//362
f 270//363 284//363 282//363
f 291//364 284//364 283//364
f 123//365 298//365 299//365
f 300//366 274//366 299//366
f 276//367 127//367 292//367
f 292//368 127//368 304//368
f 307//369 306//369 278//369
f 294//370 293//370 290//370
f 296//371 294//371 291//371
f 295//372 296//372 291//372
f 272//373 295//373 283//373
f 325//374 313//374 293//374
f 294//375 325//375 293//375
f 327//376 325//376 294//376
f 296//377 314//377 294//377
f 295//378 314//378 296//378
f 314//379 327//379 294//379
f 272//380 315//380 295//380
f 318//381 272//381 297//381
f 299//382 298//382 319//382
f 302//383 319//383 303//383
f 319//384 302//384 320//384
f 332//385 299//385 319//385
f 306//386 307//386 334//386
f 334//387 305//387 306//387
f 335//388 307//388 287//388
f 309//389 335//389 287//389
f 322//390 326//390 321//390
f 327//391 324//391 326//391
f 317//392 329//392 328//392
f 331//393 324//393 328//393
f 330//394 331//394 329//394
f 334//395 335//395 333//395
f 320//396 333//396 335//396
f 309//397 311//397 335//397
f 336//398 320//398 337//398
f 321//399 337//399 311//399
f 323//400 337//400 321//400
f 323//401 321//401 326//401
f 382//402 323//402 324//402
f 275//403 230//403 124//403
f 242//404 241//404 346//404
f 243//405 242//405 347//405
f 246//406 232//406 350//406
f 351//407 246//407 350//407
f 247//408 246//408 351//408
f 338//409 248//409 247//409
f 339//410 248//410 338//410
f 340//411 339//411 341//411
f 251//412 344//412 252//412
f 252//413 344//413 345//413
f 345//414 343//414 252//414
f 348//415 243//415 347//415
f 353//416 338//416 352//416
f 354//417 338//417 353//417
f 341//418 339//418 355//418
f 355//419 339//419 354//419
f 344//420 341//420 355//420
f 344//421 355//421 357//421
f 275//422 274//422 300//422
f 275//423 300//423 301//423
f 349//424 348//424 381//424
f 358//425 353//425 352//425
f 354//426 353//426 358//426
f 355//427 358//427 359//427
f 275//428 301//428 367//428
f 361//429 240//429 367//429
f 368//430 346//430 361//430
f 346//431 368//431 369//431
f 370//432 346//432 369//432
f 347//433 370//433 362//433
f 381//434 348//434 371//434
f 352//435 351//435 373//435
f 363//436 352//436 374//436
f 364//437 358//437 352//437
f 342//438 272//438 285//438
f 357//439 365//439 366//439
f 377//440 297//440 360//440
f 366//441 377//441 360//441
f 361//442 367//442 301//442
f 350//443 394//443 373//443
f 375//444 363//444 385//444
f 387//445 365//445 385//445
f 385//446 365//446 375//446
f 376//447 377//447 378//447
f 378//448 390//448 376//448
f 379//449 300//449 332//449
f 370//450 369//450 380//450
f 362//451 370//451 380//451
f 381//452 371//452 392//452
f 394//453 372//453 393//453
f 374//454 336//454 383//454
f 385//455 383//455 384//455
f 330//456 388//456 331//456
f 388//457 387//457 386//457
f 379//458 380//458 391//458
f 393//459 392//459 379//459
f 285//460 272//460 106//460
f 273//461 285//461 106//461
f 356//462 286//462 273//462
f 342//463 286//463 356//463
f 1//464 4//464 3//464
f 15//465 11//465 2//465
f 8//466 7//466 6//466
f 4//467 8//467 3//467
f 67//468 11//468 10//468
f 12//469 13//469 67//469
f 13//470 2//470 11//470
f 13//471 11//471 67//471
f 5//472 1//472 13//472
f 9//473 5//473 13//473
f 15//474 10//474 11//474
f 15//475 14//475 10//475
f 15//476 69//476 14//476
f 20//477 87//477 19//477
f 30//478 88//478 87//478
f 26//479 25//479 23//479
f 26//480 23//480 24//480
f 27//481 32//481 24//481
f 26//482 31//482 25//482
f 28//483 34//483 32//483
f 36//484 34//484 28//484
f 39//485 35//485 36//485
f 37//486 36//486 28//486
f 31//487 41//487 88//487
f 38//488 33//488 43//488
f 39//489 44//489 35//489
f 40//490 44//490 39//490
f 39//491 36//491 40//491
f 49//492 45//492 46//492
f 41//493 46//493 91//493
f 42//494 41//494 31//494
f 47//495 44//495 48//495
f 50//496 45//496 49//496
f 50//497 95//497 45//497
f 51//498 97//498 50//498
f 52//499 46//499 41//499
f 55//500 54//500 53//500
f 57//501 56//501 42//501
f 55//502 42//502 56//502
f 57//503 38//503 47//503
f 60//504 54//504 55//504
f 60//505 59//505 54//505
f 61//506 62//506 56//506
f 62//507 60//507 56//507
f 61//508 56//508 57//508
f 58//509 61//509 57//509
f 64//510 59//510 65//510
f 66//511 65//511 60//511
f 62//512 66//512 60//512
f 63//513 62//513 61//513
f 14//514 68//514 10//514
f 104//515 68//515 69//515
f 105//516 104//516 16//516
f 17//517 105//517 16//517
f 72//518 70//518 111//518
f 77//519 71//519 76//519
f 75//520 112//520 77//520
f 82//521 81//521 80//521
f 79//522 82//522 75//522
f 83//523 112//523 81//523
f 82//524 86//524 81//524
f 87//525 88//525 82//525
f 86//526 90//526 85//526
f 115//527 114//527 89//527
f 46//528 93//528 91//528
f 46//529 45//529 94//529
f 95//530 94//530 45//530
f 94//531 96//531 92//531
f 97//532 95//532 50//532
f 59//533 97//533 51//533
f 97//534 98//534 116//534
f 59//535 98//535 97//535
f 64//536 99//536 98//536
f 104//537 103//537 68//537
f 104//538 122//538 121//538
f 107//539 106//539 17//539
f 70//540 71//540 111//540
f 77//541 125//541 111//541
f 80//542 81//542 112//542
f 83//543 113//543 112//543
f 85//544 114//544 113//544
f 114//545 128//545 113//545
f 116//546 96//546 95//546
f 98//547 133//547 116//547
f 117//548 98//548 99//548
f 117//549 99//549 118//549
f 119//550 118//550 101//550
f 103//551 121//551 119//551
f 110//552 111//552 123//552
f 115//553 129//553 114//553
f 131//554 130//554 115//554
f 98//555 117//555 133//555
f 134//556 268//556 117//556
f 120//557 134//557 118//557
f 136//558 137//558 122//558
f 109//559 138//559 273//559
f 142//560 8//560 4//560
f 8//561 142//561 254//561
f 142//562 139//562 143//562
f 144//563 143//563 141//563
f 140//564 139//564 5//564
f 188//565 145//565 9//565
f 189//566 140//566 145//566
f 145//567 188//567 189//567
f 150//568 146//568 147//568
f 144//569 265//569 264//569
f 144//570 148//570 265//570
f 150//571 151//571 148//571
f 22//572 18//572 152//572
f 153//573 22//573 152//573
f 161//574 27//574 155//574
f 155//575 27//575 24//575
f 159//576 158//576 155//576
f 156//577 159//577 153//577
f 160//578 156//578 157//578
f 37//579 29//579 161//579
f 163//580 161//580 155//580
f 163//581 155//581 158//581
f 163//582 162//582 161//582
f 166//583 37//583 162//583
f 165//584 40//584 166//584
f 167//585 172//585 163//585
f 172//586 165//586 162//586
f 168//587 167//587 158//587
f 168//588 159//588 156//588
f 169//589 164//589 160//589
f 172//590 171//590 40//590
f 167//591 48//591 172//591
f 170//592 175//592 168//592
f 175//593 170//593 174//593
f 174//594 173//594 176//594
f 176//595 173//595 219//595
f 178//596 47//596 48//596
f 58//597 47//597 178//597
f 179//598 178//598 175//598
f 180//599 175//599 174//599
f 181//600 174//600 176//600
f 187//601 174//601 181//601
f 221//602 182//602 177//602
f 184//603 63//603 58//603
f 183//604 187//604 181//604
f 188//605 62//605 63//605
f 190//606 184//606 186//606
f 189//607 190//607 191//607
f 192//608 191//608 185//608
f 146//609 191//609 147//609
f 193//610 147//610 191//610
f 148//611 227//611 149//611
f 195//612 151//612 147//612
f 73//613 196//613 197//613
f 197//614 196//614 198//614
f 199//615 197//615 200//615
f 200//616 197//616 198//616
f 18//617 78//617 73//617
f 201//618 152//618 73//618
f 201//619 73//619 202//619
f 208//620 201//620 206//620
f 207//621 201//621 208//621
f 210//622 209//622 208//622
f 212//623 157//623 207//623
f 212//624 207//624 209//624
f 212//625 209//625 210//625
f 212//626 160//626 157//626
f 213//627 212//627 210//627
f 218//628 215//628 212//628
f 214//629 218//629 213//629
f 217//630 219//630 215//630
f 216//631 218//631 214//631
f 220//632 177//632 219//632
f 183//633 182//633 222//633
f 223//634 187//634 183//634
f 224//635 193//635 192//635
f 149//636 227//636 260//636
f 230//637 198//637 74//637
f 203//638 202//638 204//638
f 205//639 203//639 204//639
f 206//640 205//640 204//640
f 210//641 208//641 231//641
f 211//642 210//642 231//642
f 213//643 211//643 231//643
f 216//644 213//644 232//644
f 221//645 220//645 233//645
f 234//646 223//646 235//646
f 234//647 235//647 248//647
f 226//648 225//648 237//648
f 230//649 74//649 124//649
f 240//650 198//650 230//650
f 240//651 200//651 198//651
f 231//652 206//652 243//652
f 213//653 231//653 245//653
f 232//654 213//654 245//654
f 247//655 218//655 216//655
f 248//656 235//656 233//656
f 249//657 234//657 248//657
f 237//658 224//658 249//658
f 236//659 239//659 238//659
f 7//660 253//660 255//660
f 255//661 16//661 7//661
f 256//662 255//662 253//662
f 257//663 17//663 16//663
f 256//664 257//664 255//664
f 262//665 256//665 253//665
f 256//666 259//666 257//666
f 257//667 107//667 17//667
f 259//668 107//668 257//668
f 259//669 260//669 107//669
f 109//670 108//670 107//670
f 273//671 106//671 107//671
f 109//672 273//672 108//672
f 264//673 262//673 143//673
f 262//674 253//674 261//674
f 266//675 259//675 263//675
f 265//676 149//676 266//676
f 126//677 277//677 127//677
f 267//678 131//678 132//678
f 133//679 267//679 132//679
f 268//680 280//680 267//680
f 268//681 134//681 269//681
f 135//682 270//682 269//682
f 271//683 270//683 135//683
f 122//684 272//684 136//684
f 268//685 281//685 280//685
f 268//686 282//686 281//686
f 282//687 268//687 269//687
f 271//688 283//688 284//688
f 278//689 306//689 277//689
f 290//690 288//690 289//690
f 282//691 289//691 281//691
f 284//692 291//692 290//692
f 295//693 291//693 283//693
f 292//694 302//694 276//694
f 127//695 277//695 305//695
f 305//696 304//696 127//696
f 308//697 287//697 129//697
f 279//698 310//698 308//698
f 288//699 310//699 279//699
f 288//700 313//700 312//700
f 293//701 313//701 288//701
f 291//702 294//702 290//702
f 303//703 276//703 302//703
f 333//704 304//704 305//704
f 287//705 308//705 309//705
f 308//706 311//706 309//706
f 311//707 308//707 310//707
f 312//708 313//708 310//708
f 315//709 314//709 295//709
f 317//710 315//710 272//710
f 315//711 316//711 314//711
f 318//712 317//712 272//712
f 303//713 319//713 298//713
f 304//714 320//714 292//714
f 302//715 292//715 320//715
f 332//716 300//716 299//716
f 320//717 304//717 333//717
f 334//718 333//718 305//718
f 335//719 334//719 307//719
f 310//720 321//720 311//720
f 313//721 325//721 322//721
f 325//722 326//722 322//722
f 326//723 324//723 323//723
f 327//724 326//724 325//724
f 317//725 316//725 315//725
f 328//726 316//726 317//726
f 328//727 324//727 327//727
f 328//728 329//728 331//728
f 319//729 379//729 332//729
f 311//730 337//730 320//730
f 323//731 382//731 337//731
f 339//732 249//732 248//732
f 237//733 249//733 339//733
f 340//734 237//734 339//734
f 250//735 273//735 138//735
f 241//736 240//736 346//736
f 347//737 242//737 346//737
f 244//738 243//738 348//738
f 245//739 244//739 349//739
f 350//740 232//740 245//740
f 247//741 352//741 338//741
f 354//742 339//742 338//742
f 358//743 355//743 354//743
f 345//744 360//744 297//744
f 357//745 355//745 359//745
f 344//746 357//746 345//746
f 345//747 357//747 360//747
f 370//748 347//748 346//748
f 364//749 352//749 363//749
f 342//750 297//750 272//750
f 357//751 359//751 365//751
f 362//752 371//752 348//752
f 245//753 349//753 372//753
f 394//754 350//754 372//754
f 297//755 376//755 318//755
f 377//756 376//756 297//756
f 366//757 378//757 377//757
f 378//758 365//758 387//758
f 390//759 378//759 387//759
f 378//760 366//760 365//760
f 379//761 301//761 300//761
f 369//762 368//762 361//762
f 391//763 380//763 369//763
f 380//764 392//764 362//764
f 393//765 349//765 381//765
f 393//766 372//766 349//766
f 336//767 373//767 394//767
f 374//768 373//768 336//768
f 386//769 382//769 324//769
f 387//770 382//770 386//770
f 387//771 384//771 382//771
f 387//772 385//772 384//772
f 324//773 331//773 386//773
f 388//774 389//774 387//774
f 330//775 389//775 388//775
f 389//776 376//776 390//776
f 376//777 389//777 318//777
f 391//778 361//778 379//778
f 336//779 379//779 320//779
f 382//780 336//780 337//780
f 382//781 383//781 336//781
f 273//782 286//782 285//782
f 342//783 285//783 286//783
f 356//784 273//784 250//784
