# Blender 4.3.2
# www.blender.org
o link6
v -0.024993 -0.026711 -0.009716
v -0.025111 -0.023644 -0.015874
v -0.025367 -0.028174 -0.002921
v -0.025334 -0.020202 -0.020023
v -0.025280 -0.016825 -0.022907
v -0.025325 -0.012120 -0.025604
v -0.024962 -0.008650 -0.027117
v -0.025288 -0.003743 -0.028062
v -0.025164 0.002570 -0.028261
v -0.026500 0.000291 -0.017583
v -0.026745 0.000342 -0.008981
v -0.027613 -0.000256 0.001477
v -0.011285 -0.025612 -0.012869
v -0.020378 -0.028657 -0.003029
v -0.015459 -0.030202 -0.002741
v -0.010823 -0.033396 -0.001095
v 0.026878 -0.018592 -0.021581
v 0.026961 -0.007879 -0.027449
v 0.025731 -0.000402 -0.028464
v -0.006049 -0.030305 -0.008744
v -0.006767 -0.037151 -0.003577
v -0.006768 -0.037298 0.003722
v -0.002546 -0.037376 -0.006872
v -0.009164 -0.032151 -0.005853
v 0.027040 -0.021676 -0.018475
v -0.025179 -0.027630 0.006658
v -0.025377 -0.025487 0.012254
v -0.025288 -0.022484 0.017420
v -0.025677 -0.005572 -0.002160
v -0.025026 -0.018896 0.021295
v -0.025285 -0.014777 0.024299
v -0.024989 -0.009641 0.026826
v -0.026527 -0.000333 0.009477
v -0.026642 0.000979 0.018774
v -0.025302 -0.004788 0.027959
v -0.023565 -0.000360 0.028471
v -0.017224 -0.028506 0.005387
v -0.008459 -0.033560 0.005116
v -0.012063 -0.027276 0.009856
v -0.004222 -0.031505 0.008554
v -0.000780 -0.037313 0.007501
v -0.002014 -0.024921 0.014179
v 0.008297 -0.018368 0.021784
v -0.031486 0.005363 -0.003265
v -0.032800 0.016641 -0.017123
v -0.032920 0.010721 -0.017427
v -0.034235 0.009689 -0.008778
v -0.037915 0.009839 0.002672
v -0.038138 0.024658 -0.002864
v -0.037910 0.009830 -0.002867
v -0.033627 0.020199 -0.010534
v -0.038802 0.024766 0.000025
v -0.035454 0.022371 -0.006542
v -0.033334 0.026486 -0.006523
v -0.037678 0.032022 -0.001513
v -0.035535 0.032067 -0.004073
v -0.031648 0.032252 -0.004838
v -0.026055 0.004010 -0.025105
v -0.032909 0.008991 -0.014830
v -0.030702 0.006254 -0.008126
v -0.025247 0.013242 -0.025183
v -0.030765 0.012947 -0.019856
v -0.029162 0.009419 -0.021111
v -0.025048 0.022797 -0.017130
v -0.025079 0.019215 -0.021023
v -0.026199 0.025972 -0.011446
v -0.029126 0.028689 -0.007524
v -0.025473 0.031465 -0.001178
v -0.018919 0.029012 -0.003763
v -0.024946 0.008693 -0.027171
v -0.014933 0.032263 0.000061
v -0.020489 0.031003 -0.000564
v 0.027013 0.007910 -0.027433
v 0.027231 0.014597 -0.024448
v 0.026737 0.018768 -0.021433
v 0.000196 0.025352 -0.013657
v -0.012535 0.027159 -0.010181
v -0.012028 0.033922 -0.000024
v -0.007568 0.031751 -0.007356
v -0.007876 0.036920 -0.000106
v 0.027118 0.021703 -0.018436
v -0.006422 0.037437 -0.003469
v -0.004004 0.037113 -0.006284
v 0.001676 0.037348 -0.007217
v -0.037960 0.019722 0.003032
v -0.034264 0.009659 0.008669
v -0.033500 0.020019 0.011002
v -0.032772 0.016711 0.017108
v -0.032408 0.012344 0.018746
v -0.038042 0.025165 0.002924
v -0.035568 0.021905 0.006583
v -0.036460 0.032190 0.003543
v -0.033111 0.026644 0.006624
v -0.031618 0.005464 0.002759
v -0.030521 0.006102 0.008149
v -0.032974 0.009503 0.016035
v -0.025287 0.005118 0.027950
v -0.030384 0.009327 0.019594
v -0.029035 0.013809 0.020972
v -0.027907 0.009396 0.022820
v -0.025115 0.011735 0.025914
v -0.025947 0.025854 0.011714
v -0.029178 0.017904 0.018428
v -0.025115 0.017939 0.022156
v -0.032260 0.031788 0.005039
v -0.028984 0.028063 0.008094
v -0.025039 0.022418 0.017571
v -0.030072 0.032188 0.003813
v -0.021966 0.030294 0.001750
v -0.014010 0.026535 0.010845
v 0.027172 0.016294 0.023333
v -0.007801 0.031910 0.006886
v -0.006878 0.028082 0.010422
v 0.014354 0.020414 0.020013
v -0.005710 0.037339 0.004734
v 0.001859 0.037352 0.007038
v -0.002070 0.037065 0.007088
v 0.002042 -0.029542 -0.009739
v 0.003356 -0.037117 -0.006640
v 0.006978 -0.037366 -0.002828
v 0.005484 -0.037288 0.005686
v 0.008247 -0.034752 -0.006407
v -0.001038 -0.026188 -0.012939
v 0.012738 -0.033494 -0.006629
v 0.019746 -0.032875 -0.007188
v 0.010282 -0.035000 0.004399
v 0.021573 -0.026714 -0.011543
v 0.027151 -0.032910 0.000017
v 0.026869 -0.032110 -0.006204
v 0.020662 -0.008519 -0.004560
v 0.024613 0.002661 -0.016910
v 0.026882 -0.028854 -0.008433
v 0.028006 -0.026279 -0.008957
v 0.027443 -0.024497 -0.012893
v 0.028016 -0.020887 -0.018279
v 0.027996 -0.013528 -0.024234
v 0.027967 -0.017199 -0.011700
v 0.027836 -0.020200 -0.002841
v 0.024067 -0.016288 -0.002561
v 0.027123 -0.013552 -0.025055
v 0.027943 -0.005022 -0.027418
v 0.023138 -0.006204 -0.014164
v 0.027960 -0.008318 -0.019069
v 0.024576 -0.013506 -0.010812
v 0.003618 -0.030370 0.009025
v 0.011314 -0.033636 0.006760
v 0.026859 -0.004474 0.028109
v 0.020520 -0.032846 0.007077
v 0.026997 -0.022830 0.017023
v 0.021112 -0.027026 0.011385
v 0.027062 -0.020159 0.020148
v 0.020953 -0.002838 0.008151
v 0.023385 -0.008758 0.010844
v 0.020905 0.005470 0.006315
v 0.023885 0.000006 0.014419
v 0.026653 -0.032126 0.006364
v 0.027956 -0.031724 0.000393
v 0.027010 -0.027799 0.009761
v 0.027992 -0.023938 0.013916
v 0.027945 -0.019325 0.004570
v 0.027974 -0.015187 0.011079
v 0.022699 -0.013572 0.001606
v 0.027135 -0.013649 0.025050
v 0.027995 -0.017447 0.021665
v 0.027983 -0.009498 0.016450
v 0.027956 -0.009719 0.026657
v 0.028007 -0.000066 0.019306
v 0.028000 -0.005009 0.027224
v 0.027463 -0.001446 0.027282
v 0.001821 0.029738 -0.009750
v 0.006591 0.037048 -0.004430
v 0.007291 0.037382 0.000539
v 0.008730 0.033921 -0.006761
v 0.011197 0.034453 -0.005151
v 0.021847 0.005124 -0.011674
v 0.020735 0.008788 -0.004191
v 0.023173 0.014660 0.001359
v 0.024477 0.015815 -0.005893
v 0.021437 0.027097 -0.011175
v 0.018395 0.032914 -0.007140
v 0.027153 0.032867 0.000055
v 0.027983 0.005918 -0.027135
v 0.027821 0.003867 -0.020035
v 0.027995 0.012833 -0.024181
v 0.027984 0.011093 -0.017497
v 0.028024 0.019403 -0.020036
v 0.024434 0.011538 -0.012482
v 0.027981 0.016356 -0.012579
v 0.027332 0.024379 -0.013095
v 0.027998 0.019865 -0.006270
v 0.027934 0.026948 -0.009434
v 0.026757 0.032159 -0.006157
v 0.027925 0.031681 0.000142
v 0.002510 0.028847 0.010262
v 0.002905 0.024777 0.014263
v 0.005213 0.037158 0.005722
v 0.011177 0.033598 0.006878
v 0.014080 0.033761 0.003475
v 0.023314 0.008863 0.010826
v 0.027227 0.010794 0.026421
v 0.026477 0.032121 0.006468
v 0.021174 0.027287 0.011063
v 0.018814 0.032880 0.007101
v 0.027158 0.004445 0.028124
v 0.028004 0.004872 0.027319
v 0.027984 0.009082 0.016920
v 0.027975 0.015474 0.010892
v 0.027995 0.012978 0.024621
v 0.027930 0.020138 0.003525
v 0.027166 0.024564 0.014260
v 0.027896 0.020569 0.019401
v 0.026774 0.028390 0.009241
v 0.027995 0.024405 0.012457
vn -0.9858 -0.1513 -0.0724
vn -0.9760 -0.2156 -0.0299
vn -0.2370 -0.8444 -0.4804
vn -0.5324 -0.5487 -0.6446
vn -0.4614 -0.4335 -0.7741
vn -0.0216 -0.7005 -0.7133
vn 0.0009 -0.7096 -0.7046
vn 0.0034 -0.8293 -0.5588
vn -0.9999 -0.0138 0.0018
vn -0.8879 -0.3063 0.3434
vn -0.9998 -0.0018 0.0183
vn -0.9999 -0.0063 0.0126
vn -0.1001 -0.9933 0.0584
vn -0.0529 -0.9455 0.3213
vn 0.2440 -0.2054 0.9478
vn -0.0008 -0.8019 0.5975
vn -0.8115 -0.0123 -0.5843
vn -0.6255 0.0933 -0.7746
vn -0.3492 0.2577 -0.9009
vn -0.0520 0.9984 -0.0225
vn 0.1512 0.8618 -0.4842
vn -0.0014 0.5857 -0.8106
vn -0.0015 0.7360 -0.6770
vn -0.1008 0.6823 -0.7241
vn -0.8221 -0.0244 0.5688
vn -0.8542 -0.0024 0.5200
vn -0.9669 -0.0096 0.2548
vn -0.9894 0.0016 0.1453
vn -0.6267 0.4038 0.6665
vn -0.4287 0.7719 0.4694
vn -0.0122 0.8616 0.5074
vn -0.0069 0.7154 0.6987
vn -0.0055 0.9999 0.0125
vn 0.0527 -0.3703 -0.9274
vn 0.0298 -0.6756 -0.7367
vn 0.0017 -0.5676 -0.8233
vn 0.8439 -0.4329 -0.3168
vn 0.5758 -0.5649 -0.5910
vn 0.6256 -0.6772 -0.3873
vn 0.6120 -0.4688 -0.6369
vn 0.6835 0.0655 0.7270
vn 0.9999 0.0111 -0.0043
vn 0.0071 -0.9999 0.0104
vn 0.0005 -0.5705 0.8213
vn -0.0159 -0.7599 0.6498
vn 0.9997 0.0007 -0.0232
vn 0.6469 -0.6287 0.4314
vn 0.7139 0.6942 -0.0924
vn 0.4202 -0.5489 0.7226
vn 1.0000 -0.0023 -0.0006
vn 0.0017 0.7995 -0.6006
vn 0.0034 0.8040 -0.5946
vn 0.0159 0.5638 -0.8258
vn 0.4631 0.0213 -0.8861
vn 0.7358 0.2649 -0.6232
vn 0.8006 -0.2545 0.5425
vn 0.4124 0.6241 -0.6637
vn 0.7268 -0.6011 0.3323
vn 0.9905 -0.0485 -0.1287
vn 0.8366 0.5358 -0.1144
vn 0.0004 0.4896 0.8720
vn 0.0024 0.6320 0.7749
vn 0.0035 0.8000 0.6000
vn 0.0879 0.9931 0.0781
vn 0.0119 0.5655 0.8246
vn 0.3316 0.8856 0.3252
vn 0.0893 0.9883 0.1235
vn 0.9949 -0.0853 0.0530
vn 1.0000 0.0022 -0.0010
vn 0.7975 0.1913 0.5722
vn 0.9995 -0.0315 0.0078
vn 1.0000 -0.0000 -0.0014
vn 1.0000 0.0070 -0.0016
vn -0.9998 -0.0002 -0.0190
vn -0.0306 -0.8949 -0.4452
vn 0.0110 -0.9580 -0.2864
vn -0.0989 -0.9717 -0.2146
vn -0.4359 -0.8218 -0.3671
vn -0.0013 -0.3996 -0.9167
vn -0.0045 -0.4973 -0.8676
vn -0.0689 -0.9974 -0.0201
vn -0.0028 -0.7698 -0.6383
vn -0.9999 -0.0135 -0.0082
vn -0.0952 -0.9940 0.0535
vn -0.0025 -0.5894 0.8079
vn -0.6841 -0.7293 -0.0148
vn -0.8221 -0.4838 0.3002
vn -0.4965 -0.8650 0.0727
vn -0.0219 -0.8557 0.5171
vn 0.0017 -0.7339 0.6793
vn -0.0071 -0.1735 0.9848
vn -0.4672 -0.4866 0.7382
vn -0.4471 -0.4090 0.7955
vn -0.0058 -1.0000 0.0051
vn 0.0004 -0.7290 0.6846
vn -0.7688 0.0482 -0.6376
vn -0.9999 -0.0153 -0.0008
vn -0.6544 -0.7181 -0.2370
vn -0.9893 0.0335 -0.1422
vn -0.9123 -0.0155 -0.4093
vn -0.9611 0.0102 -0.2759
vn -0.9074 -0.3528 -0.2282
vn -0.8273 -0.5601 0.0437
vn -0.7778 -0.6205 -0.1001
vn -0.9261 0.0979 -0.3644
vn -0.6917 -0.0582 -0.7198
vn -0.6309 0.4552 -0.6283
vn -0.4817 0.7444 -0.4624
vn -0.4829 0.5087 -0.7128
vn -0.0300 0.8700 -0.4921
vn 0.1437 0.8737 -0.4649
vn -0.0520 0.9445 -0.3244
vn -0.0023 0.1753 -0.9845
vn 0.0025 0.4005 -0.9163
vn -0.0033 0.5716 -0.8205
vn -0.0170 0.8603 -0.5095
vn -0.4895 0.8465 -0.2095
vn -0.0807 0.5842 -0.8076
vn -0.6142 0.5259 -0.5883
vn -0.1668 0.2987 -0.9396
vn -0.0690 0.9826 -0.1725
vn -0.5706 -0.8212 0.0008
vn -0.5456 -0.7791 0.3087
vn -0.6559 -0.7223 0.2190
vn -0.9850 0.0020 0.1725
vn -0.6282 0.3195 0.7094
vn -0.2893 0.3252 0.9003
vn -0.7595 0.3892 0.5213
vn 0.0001 1.0000 0.0075
vn -0.8200 -0.5723 -0.0084
vn -0.7730 -0.5922 0.2274
vn -0.6775 -0.7282 0.1033
vn -0.8116 -0.5798 0.0717
vn -0.7537 -0.3898 0.5291
vn -0.7625 -0.3608 0.5370
vn -0.6044 0.2353 0.7611
vn -0.5149 -0.1065 0.8506
vn -0.7667 0.0712 0.6380
vn -0.7972 0.1964 0.5709
vn -0.5553 0.6567 0.5103
vn -0.6038 0.6431 0.4709
vn -0.6223 0.3973 0.6745
vn 0.2281 0.7295 0.6449
vn 0.2480 0.9647 0.0890
vn -0.4417 0.5518 0.7074
vn -0.3737 0.6186 0.6911
vn 0.1366 0.9905 -0.0175
vn 0.0484 0.9460 0.3207
vn -0.1301 0.8710 0.4737
vn -0.2343 0.9613 0.1449
vn -0.0233 0.9166 0.3991
vn 0.0070 -0.0019 1.0000
vn -0.3977 0.7958 0.4567
vn -0.5727 0.7981 0.1873
vn -0.0906 0.6290 0.7721
vn -0.6784 0.4813 0.5551
vn -0.0682 0.9734 0.2189
vn -0.4944 0.5225 0.6947
vn 0.0478 -0.9928 -0.1101
vn -0.0033 -0.8077 -0.5896
vn 0.0860 -0.4620 -0.8827
vn 0.5636 -0.8260 0.0127
vn 0.0779 -0.9900 -0.1179
vn 0.0085 -0.5788 -0.8154
vn 0.9122 0.4085 0.0333
vn 0.1721 -0.5568 -0.8126
vn 1.0000 0.0059 0.0040
vn 0.7420 0.6201 0.2548
vn 0.9998 0.0097 0.0182
vn 0.6627 -0.2750 -0.6965
vn 0.7185 -0.2399 -0.6528
vn 1.0000 0.0036 0.0033
vn 0.2760 -0.0845 -0.9574
vn 0.2609 -0.3617 0.8951
vn 0.0501 -0.6585 0.7510
vn 0.0024 -0.3789 0.9254
vn 0.4476 -0.8900 0.0867
vn 0.5013 -0.8259 0.2580
vn 0.0284 -0.6713 0.7407
vn 0.1307 -0.9826 0.1317
vn 0.0054 -0.5953 0.8035
vn -0.0008 -0.8018 0.5976
vn 0.0122 -0.6016 0.7987
vn 0.9336 0.2846 -0.2176
vn 0.7995 -0.5853 0.1351
vn 0.9539 -0.2302 0.1927
vn 0.1321 -0.6189 0.7743
vn 0.0474 -0.8243 0.5641
vn 0.7957 -0.5258 0.3006
vn 0.9986 0.0485 -0.0204
vn 1.0000 -0.0031 -0.0026
vn 1.0000 0.0036 -0.0033
vn 0.7718 0.5386 -0.3380
vn 0.7755 0.5312 -0.3413
vn 0.6822 -0.3943 0.6157
vn 0.7483 0.2136 -0.6280
vn 1.0000 -0.0096 0.0024
vn 0.6348 0.0830 0.7682
vn 0.0006 0.7144 -0.6997
vn 0.2116 0.3123 -0.9261
vn 0.3815 0.7059 -0.5968
vn 0.0032 0.1225 -0.9925
vn 0.0339 0.6577 -0.7525
vn 0.0779 0.9049 -0.4184
vn 0.8990 -0.3256 0.2930
vn 0.8880 -0.4515 0.0877
vn 0.0285 0.5797 -0.8143
vn 0.1466 0.6144 -0.7753
vn 0.1031 0.9875 -0.1192
vn 0.3921 0.0534 -0.9184
vn 1.0000 0.0001 -0.0041
vn 0.9991 -0.0000 0.0419
vn 1.0000 -0.0008 0.0015
vn 0.8350 0.2909 -0.4670
vn 0.7570 -0.5503 0.3523
vn 0.6876 -0.4956 0.5307
vn 0.4727 0.5523 -0.6866
vn 1.0000 -0.0065 0.0032
vn 0.2532 0.8609 -0.4413
vn 0.9958 0.0830 0.0398
vn 0.9959 0.0775 -0.0459
vn 0.7557 -0.6542 0.0317
vn 0.1749 0.7922 -0.5847
vn -0.0040 0.2941 0.9558
vn -0.0058 1.0000 -0.0002
vn -0.0139 0.3536 0.9353
vn 0.0981 0.4523 0.8864
vn 0.5095 0.8508 -0.1290
vn 0.9998 -0.0039 -0.0173
vn 0.9045 -0.0871 -0.4176
vn 0.9177 -0.0971 -0.3852
vn 0.9105 -0.3464 -0.2257
vn 0.0257 0.6744 0.7379
vn 0.0316 0.5865 0.8093
vn 0.0068 0.7676 0.6410
vn 0.1251 0.6081 0.7840
vn 0.1853 0.9827 -0.0031
vn 0.0034 1.0000 0.0023
vn 0.7461 -0.2084 -0.6324
vn 0.7869 -0.1539 -0.5975
vn 0.7051 -0.0643 0.7062
vn 1.0000 0.0005 -0.0017
vn 0.7501 -0.6609 0.0236
vn 1.0000 -0.0011 -0.0067
vn 0.0071 0.8034 0.5954
vn 0.7211 0.3990 0.5664
vn 0.7995 0.5062 0.3233
vn 0.1081 0.9861 0.1262
vn -0.9618 -0.2521 -0.1072
vn -0.9998 -0.0158 -0.0106
vn -0.8076 -0.1627 -0.5669
vn -0.9999 -0.0000 -0.0150
vn -0.9939 -0.0638 -0.0904
vn -0.9780 -0.2071 -0.0265
vn -0.5015 -0.3747 -0.7798
vn -0.3269 -0.8028 -0.4986
vn -0.0027 -0.6494 -0.7604
vn -0.0001 -0.3889 -0.9213
vn -0.0035 -0.1893 -0.9819
vn 0.0010 -0.1343 -0.9909
vn -0.7423 -0.5378 -0.3996
vn -0.0436 -0.6865 -0.7258
vn -0.9857 -0.1662 0.0288
vn -0.9999 -0.0099 0.0114
vn -0.9041 -0.4105 0.1188
vn -0.9802 -0.1975 0.0174
vn -0.9793 -0.2016 0.0163
vn -0.8929 -0.1561 0.4222
vn -0.3040 -0.9436 0.1309
vn -0.0614 -0.9329 0.3550
vn -0.6041 -0.7688 0.2097
vn -0.3762 -0.6858 0.6230
vn -0.0205 -0.8641 0.5028
vn -0.2445 -0.6694 0.7015
vn -0.1939 -0.5989 0.7770
vn -0.5533 -0.7667 -0.3256
vn -0.9465 -0.2703 -0.1762
vn -0.9887 0.0274 -0.1471
vn -0.8491 0.0115 -0.5281
vn -0.9686 0.1021 -0.2265
vn -0.7581 0.1632 -0.6314
vn -0.6483 0.3372 -0.6826
vn -0.7419 0.3848 -0.5491
vn -0.1899 0.5018 -0.8439
vn -0.0470 0.9987 -0.0219
vn -0.7045 -0.4251 -0.5683
vn -0.6890 -0.7216 -0.0678
vn -0.8077 -0.4922 -0.3246
vn -0.8079 -0.5890 -0.0194
vn -0.8240 -0.5187 -0.2279
vn -0.9546 -0.2823 -0.0954
vn -0.7842 0.1663 -0.5979
vn -0.7112 -0.0745 -0.6990
vn -0.8751 -0.4833 -0.0264
vn -0.5093 0.3127 -0.8018
vn -0.5957 0.5935 -0.5411
vn -0.5730 0.6606 -0.4851
vn -0.4386 0.4978 -0.7483
vn 0.4208 0.7169 -0.5558
vn 0.1391 0.8700 -0.4731
vn -0.1212 0.8150 -0.5666
vn -0.0058 -0.0314 -0.9995
vn -0.3588 0.7390 -0.5702
vn -0.3419 0.8239 -0.4519
vn -0.5823 0.8028 -0.1283
vn 0.0015 0.4076 -0.9132
vn -0.1726 0.3081 -0.9356
vn -0.6593 0.5103 -0.5522
vn -0.9997 -0.0054 0.0257
vn -0.5708 -0.8211 0.0012
vn -0.9097 -0.0263 0.4143
vn -0.9782 -0.0034 0.2076
vn -0.9381 -0.2791 -0.2053
vn -0.8290 -0.0014 0.5593
vn -0.9892 0.0413 0.1404
vn -0.9550 0.1953 0.2234
vn -0.9549 0.1953 0.2235
vn -0.6118 0.0682 0.7881
vn -0.0119 0.9568 0.2906
vn -0.8545 -0.5075 0.1112
vn -0.8460 -0.5321 -0.0337
vn -0.7288 -0.3825 0.5679
vn -0.9303 -0.2628 0.2559
vn -0.2859 0.0013 0.9582
vn -0.4371 0.4636 0.7707
vn -0.7926 0.0518 0.6076
vn -0.5405 0.6064 0.5833
vn -0.4154 0.3299 0.8477
vn 0.3145 0.8140 0.4884
vn -0.4609 0.5080 0.7276
vn -0.0021 0.0941 0.9956
vn -0.0030 0.5182 0.8553
vn -0.4237 0.7667 0.4824
vn -0.0128 0.8620 0.5067
vn -0.0996 0.6621 0.7427
vn -0.2633 0.9641 0.0344
vn -0.4528 0.4738 0.7553
vn -0.0129 0.3540 0.9351
vn -0.0890 -0.2959 -0.9511
vn 0.2077 -0.3393 -0.9175
vn 0.4079 -0.8002 -0.4397
vn 0.0477 0.9004 -0.4325
vn 0.2048 -0.8237 -0.5288
vn -0.0065 -0.6293 -0.7771
vn 0.2067 -0.6048 -0.7691
vn 0.8968 0.3179 0.3078
vn 0.8771 0.4362 0.2011
vn 0.9639 0.0524 0.2611
vn 0.1239 -0.9835 -0.1320
vn 0.1131 -0.7178 -0.6870
vn 0.8381 -0.5349 -0.1067
vn 0.9567 -0.2538 -0.1427
vn 0.6752 -0.4184 -0.6075
vn 0.7051 -0.4449 -0.5522
vn 0.2222 -0.8637 -0.4525
vn 0.9954 -0.0801 0.0522
vn 0.9859 -0.0445 -0.1612
vn 0.7083 0.6653 0.2359
vn 0.7342 0.3973 0.5506
vn 0.6678 0.4756 0.5726
vn 0.9997 -0.0030 -0.0248
vn 0.7292 0.0889 0.6785
vn -0.0008 -1.0000 0.0045
vn -0.0306 -0.1957 0.9802
vn 0.0915 -0.4127 0.9062
vn -0.0034 -0.4413 0.8974
vn 0.4730 -0.8366 0.2765
vn 0.0027 -0.2662 0.9639
vn 0.0856 -0.9963 -0.0026
vn -0.0070 -1.0000 0.0024
vn 0.0175 -0.5415 0.8405
vn 0.1616 -0.5977 0.7853
vn 0.9639 0.2341 -0.1267
vn 0.8700 0.1429 -0.4718
vn 0.7682 0.6217 -0.1529
vn 1.0000 -0.0007 0.0049
vn 1.0000 0.0023 -0.0040
vn 0.7479 -0.5122 0.4223
vn 0.7641 -0.4947 0.4140
vn 0.7064 0.4854 -0.5152
vn 1.0000 0.0003 -0.0019
vn 1.0000 0.0033 0.0027
vn 0.7719 0.1824 -0.6089
vn 0.9848 0.1468 0.0925
vn 0.5790 -0.1028 0.8088
vn 0.1067 0.9909 -0.0816
vn 0.2849 0.6905 -0.6648
vn 0.2112 0.9774 0.0078
vn 0.8838 -0.0021 0.4678
vn 0.9886 -0.0074 0.1505
vn 0.8775 -0.4049 0.2571
vn 0.2272 0.5547 -0.8004
vn 0.7221 -0.2436 0.6474
vn 0.9998 -0.0212 -0.0038
vn 0.7656 0.2412 -0.5963
vn 0.7745 -0.2698 0.5722
vn 0.8027 0.5197 -0.2925
vn 0.9397 0.3070 -0.1509
vn 1.0000 0.0078 -0.0029
vn -0.0447 0.6981 0.7146
vn 0.0109 0.9999 -0.0004
vn 0.3591 0.3548 0.8632
vn 0.0001 0.2591 0.9659
vn 0.0282 0.7021 0.7115
vn 0.4670 0.8554 0.2241
vn 0.4781 0.8737 -0.0897
vn 0.9502 -0.2926 -0.1077
vn 0.8554 -0.0295 0.5172
vn 0.6223 0.1964 0.7578
vn 0.7008 -0.4889 -0.5195
vn 0.7697 -0.5392 -0.3417
vn 0.5339 0.4180 0.7350
vn 0.7721 -0.5348 -0.3433
vn 1.0000 -0.0019 -0.0018
vn 0.7801 0.5428 0.3112
vn 0.0186 0.7907 0.6119
vn 0.9987 0.0370 0.0348
vn 0.9253 0.3288 0.1890
vn -0.2235 0.5699 0.7908
vn 0.0397 0.7962 0.6038
vn 0.1392 0.5978 0.7895
vn 0.8236 0.5468 0.1506
s 0
f 4//1 2//1 3//1
f 10//2 8//2 29//2
f 15//3 14//3 13//3
f 21//4 24//4 23//4
f 24//5 20//5 23//5
f 20//6 123//6 118//6
f 25//7 4//7 17//7
f 13//8 2//8 25//8
f 29//9 3//9 27//9
f 31//10 28//10 30//10
f 29//11 27//11 28//11
f 35//12 29//12 31//12
f 37//13 26//13 3//13
f 39//14 26//14 37//14
f 36//15 35//15 32//15
f 149//16 28//16 42//16
f 49//17 53//17 50//17
f 49//18 56//18 54//18
f 56//19 67//19 54//19
f 56//20 92//20 57//20
f 67//21 69//21 66//21
f 65//22 75//22 74//22
f 64//23 81//23 65//23
f 77//24 170//24 76//24
f 91//25 85//25 48//25
f 91//26 48//26 86//26
f 90//27 52//27 85//27
f 97//28 34//28 35//28
f 104//29 99//29 101//29
f 88//30 103//30 87//30
f 110//31 102//31 107//31
f 107//32 104//32 114//32
f 115//33 116//33 82//33
f 23//34 118//34 119//34
f 118//35 123//35 127//35
f 5//36 140//36 17//36
f 134//37 133//37 132//37
f 135//38 25//38 17//38
f 25//39 135//39 134//39
f 140//40 136//40 17//40
f 183//41 131//41 143//41
f 136//42 183//42 143//42
f 121//43 41//43 120//43
f 163//44 31//44 43//44
f 43//45 149//45 151//45
f 130//46 154//46 152//46
f 149//47 158//47 159//47
f 139//48 160//48 138//48
f 164//49 163//49 151//49
f 167//50 168//50 165//50
f 64//51 76//51 81//51
f 76//52 179//52 81//52
f 170//53 173//53 179//53
f 19//54 182//54 141//54
f 73//55 184//55 182//55
f 187//56 175//56 131//56
f 81//57 186//57 75//57
f 190//58 178//58 188//58
f 189//59 191//59 190//59
f 192//60 181//60 193//60
f 101//61 200//61 111//61
f 114//62 104//62 111//62
f 107//63 114//63 195//63
f 116//64 196//64 172//64
f 194//65 202//65 197//65
f 197//66 198//66 172//66
f 197//67 203//67 198//67
f 205//68 169//68 167//68
f 206//69 205//69 167//69
f 208//70 200//70 205//70
f 190//71 213//71 209//71
f 207//72 208//72 206//72
f 190//73 193//73 213//73
f 29//74 5//74 4//74
f 1//75 2//75 13//75
f 14//76 1//76 13//76
f 14//77 3//77 1//77
f 16//78 15//78 24//78
f 7//79 140//79 6//79
f 5//80 6//80 140//80
f 21//81 23//81 22//81
f 4//82 25//82 2//82
f 4//83 3//83 29//83
f 37//84 3//84 14//84
f 31//85 30//85 43//85
f 16//86 21//86 22//86
f 16//87 22//87 38//87
f 37//88 15//88 38//88
f 42//89 27//89 39//89
f 30//90 28//90 43//90
f 36//91 32//91 147//91
f 41//92 38//92 22//92
f 40//93 38//93 41//93
f 22//94 23//94 41//94
f 28//95 149//95 43//95
f 62//96 46//96 45//96
f 49//97 50//97 48//97
f 47//98 60//98 44//98
f 51//99 45//99 47//99
f 51//100 47//100 53//100
f 9//101 8//101 58//101
f 10//102 63//102 58//102
f 59//103 11//103 60//103
f 12//104 44//104 11//104
f 70//105 9//105 61//105
f 61//106 63//106 62//106
f 61//107 62//107 65//107
f 51//108 65//108 45//108
f 66//109 51//109 67//109
f 77//110 64//110 66//110
f 68//111 69//111 67//111
f 69//112 77//112 66//112
f 73//113 9//113 70//113
f 74//114 70//114 61//114
f 65//115 74//115 61//115
f 77//116 76//116 64//116
f 78//117 69//117 71//117
f 170//118 77//118 79//118
f 83//119 79//119 82//119
f 84//120 79//120 83//120
f 82//121 84//121 83//121
f 50//122 94//122 48//122
f 48//123 94//123 86//123
f 86//124 94//124 95//124
f 88//125 86//125 96//125
f 93//126 90//126 91//126
f 92//127 93//127 105//127
f 93//128 91//128 87//128
f 108//129 57//129 92//129
f 44//130 12//130 94//130
f 94//131 12//131 95//131
f 86//132 95//132 96//132
f 96//133 33//133 34//133
f 96//134 34//134 98//134
f 89//135 96//135 98//135
f 88//136 89//136 99//136
f 99//137 89//137 98//137
f 99//138 100//138 101//138
f 101//139 100//139 97//139
f 87//140 103//140 102//140
f 102//141 103//141 107//141
f 103//142 99//142 104//142
f 106//143 108//143 105//143
f 109//144 68//144 108//144
f 93//145 102//145 106//145
f 106//146 102//146 108//146
f 108//147 68//147 57//147
f 72//148 68//148 109//148
f 109//149 110//149 71//149
f 109//150 71//150 72//150
f 110//151 109//151 102//151
f 36//152 147//152 204//152
f 71//153 110//153 112//153
f 115//154 80//154 78//154
f 195//155 113//155 110//155
f 115//156 78//156 112//156
f 116//157 115//157 117//157
f 112//158 113//158 117//158
f 120//159 23//159 119//159
f 13//160 25//160 127//160
f 118//161 124//161 122//161
f 120//162 124//162 126//162
f 125//163 126//163 124//163
f 125//164 118//164 127//164
f 139//165 130//165 162//165
f 129//166 125//166 132//166
f 136//167 137//167 135//167
f 139//168 137//168 144//168
f 137//169 138//169 133//169
f 136//170 140//170 18//170
f 136//171 18//171 141//171
f 137//172 136//172 143//172
f 141//173 18//173 19//173
f 145//174 41//174 121//174
f 42//175 40//175 145//175
f 32//176 163//176 166//176
f 126//177 121//177 120//177
f 146//178 126//178 125//178
f 42//179 145//179 150//179
f 148//180 128//180 156//180
f 145//181 148//181 150//181
f 42//182 150//182 149//182
f 163//183 43//183 151//183
f 152//184 153//184 162//184
f 156//185 128//185 157//185
f 158//186 156//186 157//186
f 150//187 156//187 158//187
f 149//188 150//188 158//188
f 159//189 158//189 157//189
f 138//190 160//190 133//190
f 164//191 160//191 161//191
f 164//192 159//192 160//192
f 153//193 161//193 162//193
f 162//194 161//194 160//194
f 166//195 163//195 164//195
f 155//196 167//196 153//196
f 168//197 166//197 165//197
f 147//198 168//198 169//198
f 81//199 75//199 65//199
f 173//200 170//200 84//200
f 84//201 171//201 173//201
f 73//202 19//202 9//202
f 170//203 179//203 76//203
f 180//204 173//204 174//204
f 187//205 176//205 175//205
f 178//206 177//206 176//206
f 180//207 179//207 173//207
f 180//208 192//208 179//208
f 192//209 180//209 181//209
f 73//210 182//210 19//210
f 184//211 136//211 182//211
f 184//212 183//212 136//212
f 185//213 184//213 188//213
f 186//214 184//214 74//214
f 178//215 187//215 188//215
f 188//216 187//216 185//216
f 186//217 74//217 75//217
f 188//218 184//218 186//218
f 179//219 189//219 81//219
f 189//220 188//220 186//220
f 189//221 190//221 188//221
f 177//222 178//222 190//222
f 179//223 191//223 189//223
f 101//224 97//224 200//224
f 116//225 172//225 84//225
f 117//226 194//226 116//226
f 196//227 194//227 197//227
f 198//228 171//228 172//228
f 154//229 130//229 176//229
f 199//230 152//230 154//230
f 155//231 152//231 199//231
f 154//232 177//232 199//232
f 111//233 211//233 114//233
f 202//234 203//234 197//234
f 210//235 202//235 195//235
f 201//236 203//236 202//236
f 203//237 180//237 198//237
f 181//238 180//238 203//238
f 167//239 155//239 199//239
f 206//240 167//240 199//240
f 204//241 169//241 205//241
f 208//242 205//242 206//242
f 177//243 190//243 209//243
f 213//244 207//244 209//244
f 114//245 210//245 195//245
f 208//246 211//246 111//246
f 210//247 213//247 212//247
f 203//248 201//248 181//248
f 2//249 1//249 3//249
f 29//250 6//250 5//250
f 6//251 8//251 7//251
f 8//252 6//252 29//252
f 10//253 58//253 8//253
f 11//254 10//254 29//254
f 20//255 24//255 15//255
f 20//256 15//256 13//256
f 4//257 5//257 17//257
f 7//258 18//258 140//258
f 18//259 7//259 8//259
f 8//260 19//260 18//260
f 16//261 24//261 21//261
f 20//262 13//262 123//262
f 27//263 3//263 26//263
f 31//264 29//264 28//264
f 12//265 29//265 33//265
f 33//266 29//266 35//266
f 34//267 33//267 35//267
f 32//268 35//268 31//268
f 37//269 14//269 15//269
f 27//270 26//270 39//270
f 38//271 15//271 16//271
f 37//272 38//272 39//272
f 42//273 28//273 27//273
f 40//274 39//274 38//274
f 42//275 39//275 40//275
f 44//276 50//276 47//276
f 47//277 46//277 59//277
f 45//278 46//278 47//278
f 53//279 47//279 50//279
f 55//280 49//280 52//280
f 55//281 56//281 49//281
f 54//282 53//282 49//282
f 54//283 51//283 53//283
f 57//284 67//284 56//284
f 55//285 92//285 56//285
f 46//286 63//286 10//286
f 60//287 47//287 59//287
f 59//288 46//288 10//288
f 59//289 10//289 11//289
f 60//290 11//290 44//290
f 12//291 11//291 29//291
f 63//292 61//292 9//292
f 62//293 63//293 46//293
f 63//294 9//294 58//294
f 45//295 65//295 62//295
f 51//296 64//296 65//296
f 66//297 64//297 51//297
f 67//298 51//298 54//298
f 68//299 67//299 57//299
f 68//300 72//300 69//300
f 71//301 69//301 72//301
f 9//302 19//302 8//302
f 69//303 79//303 77//303
f 78//304 79//304 69//304
f 82//305 78//305 80//305
f 74//306 73//306 70//306
f 79//307 84//307 170//307
f 78//308 82//308 79//308
f 85//309 49//309 48//309
f 50//310 44//310 94//310
f 87//311 91//311 86//311
f 89//312 88//312 96//312
f 85//313 52//313 49//313
f 90//314 85//314 91//314
f 87//315 86//315 88//315
f 92//316 55//316 52//316
f 92//317 52//317 90//317
f 92//318 90//318 93//318
f 105//319 108//319 92//319
f 33//320 95//320 12//320
f 96//321 95//321 33//321
f 100//322 98//322 34//322
f 100//323 34//323 97//323
f 36//324 97//324 35//324
f 88//325 99//325 103//325
f 99//326 98//326 100//326
f 107//327 103//327 104//327
f 105//328 93//328 106//328
f 102//329 109//329 108//329
f 93//330 87//330 102//330
f 204//331 97//331 36//331
f 101//332 111//332 104//332
f 71//333 112//333 78//333
f 110//334 107//334 195//334
f 110//335 113//335 112//335
f 80//336 115//336 82//336
f 115//337 112//337 117//337
f 117//338 113//338 194//338
f 20//339 118//339 23//339
f 122//340 119//340 118//340
f 119//341 122//341 120//341
f 123//342 13//342 127//342
f 120//343 122//343 124//343
f 118//344 125//344 124//344
f 127//345 132//345 125//345
f 142//346 130//346 144//346
f 130//347 139//347 144//347
f 175//348 130//348 142//348
f 128//349 125//349 129//349
f 134//350 132//350 127//350
f 129//351 157//351 128//351
f 133//352 157//352 129//352
f 133//353 129//353 132//353
f 136//354 135//354 17//354
f 134//355 127//355 25//355
f 137//356 134//356 135//356
f 137//357 133//357 134//357
f 139//358 138//358 137//358
f 142//359 144//359 143//359
f 143//360 144//360 137//360
f 141//361 182//361 136//361
f 131//362 142//362 143//362
f 41//363 23//363 120//363
f 145//364 40//364 41//364
f 146//365 145//365 121//365
f 32//366 31//366 163//366
f 146//367 121//367 126//367
f 147//368 32//368 166//368
f 148//369 146//369 125//369
f 128//370 148//370 125//370
f 145//371 146//371 148//371
f 150//372 148//372 156//372
f 130//373 152//373 162//373
f 155//374 153//374 152//374
f 162//375 160//375 139//375
f 133//376 160//376 157//376
f 157//377 160//377 159//377
f 151//378 149//378 159//378
f 164//379 151//379 159//379
f 153//380 165//380 161//380
f 161//381 165//381 164//381
f 165//382 166//382 164//382
f 167//383 165//383 153//383
f 167//384 169//384 168//384
f 168//385 147//385 166//385
f 172//386 171//386 84//386
f 171//387 174//387 173//387
f 174//388 198//388 180//388
f 131//389 175//389 142//389
f 175//390 176//390 130//390
f 187//391 178//391 176//391
f 192//392 191//392 179//392
f 183//393 185//393 131//393
f 184//394 185//394 183//394
f 74//395 184//395 73//395
f 187//396 131//396 185//396
f 81//397 189//397 186//397
f 192//398 193//398 191//398
f 191//399 193//399 190//399
f 194//400 113//400 195//400
f 116//401 84//401 82//401
f 196//402 116//402 194//402
f 200//403 97//403 204//403
f 195//404 202//404 194//404
f 197//405 172//405 196//405
f 198//406 174//406 171//406
f 177//407 154//407 176//407
f 169//408 204//408 147//408
f 200//409 204//409 205//409
f 207//410 206//410 199//410
f 199//411 177//411 207//411
f 111//412 200//412 208//412
f 209//413 207//413 177//413
f 207//414 213//414 208//414
f 213//415 210//415 211//415
f 211//416 210//416 114//416
f 211//417 208//417 213//417
f 193//418 201//418 213//418
f 201//419 212//419 213//419
f 202//420 210//420 212//420
f 212//421 201//421 202//421
f 181//422 201//422 193//422
