# Blender 4.3.2
# www.blender.org
o link3
v -0.028901 -0.032435 -0.135444
v -0.034622 -0.032178 -0.131979
v -0.032448 -0.030659 -0.136304
v -0.036506 -0.028181 -0.132412
v -0.035960 -0.031008 -0.132193
v -0.036500 0.005547 -0.132020
v -0.036057 0.014773 -0.133055
v -0.025056 -0.032017 -0.167295
v -0.027141 -0.032381 -0.161944
v -0.028372 -0.031961 -0.156725
v -0.028467 -0.031478 -0.145136
v -0.029284 -0.031762 -0.141896
v -0.028269 0.032012 -0.146146
v -0.029552 0.031180 -0.141310
v -0.017384 -0.032186 -0.176230
v -0.021601 -0.032252 -0.172257
v -0.019135 -0.032429 -0.152251
v -0.020979 0.018095 -0.172956
v -0.019539 0.032200 -0.174336
v -0.012931 -0.031857 -0.179115
v -0.007212 -0.032310 -0.181262
v -0.013899 -0.032464 -0.166114
v -0.005675 -0.032385 -0.135654
v -0.009621 -0.030855 -0.160652
v -0.011528 -0.030904 -0.148137
v 0.000289 -0.032079 -0.182255
v -0.001212 -0.032241 -0.174163
v -0.002159 -0.031179 -0.164712
v -0.011034 -0.031386 -0.153053
v -0.003585 -0.031448 -0.148471
v -0.000783 -0.030875 -0.141754
v -0.002265 0.032276 -0.182021
v -0.041257 -0.008270 -0.061069
v -0.040076 -0.012254 -0.003312
v -0.042451 0.001907 -0.062206
v -0.042234 -0.003938 -0.002283
v -0.040987 0.004639 -0.000672
v -0.033405 -0.032336 -0.112606
v -0.033943 -0.032118 -0.096282
v -0.036854 -0.021938 -0.107319
v -0.035893 -0.030591 -0.099797
v -0.037451 -0.015769 -0.086365
v -0.034809 -0.030787 -0.089760
v -0.032368 -0.030906 -0.077830
v -0.036718 -0.022039 -0.079674
v -0.030602 -0.024082 -0.045219
v -0.038435 -0.016229 -0.064766
v -0.036592 -0.017291 -0.043719
v -0.036616 -0.016965 -0.000727
v -0.036678 -0.018508 -0.002676
v -0.040315 -0.008579 -0.000710
v -0.036749 0.026171 -0.105051
v -0.034769 0.006614 -0.001406
v -0.028677 -0.031997 -0.072783
v -0.027211 -0.030335 -0.061132
v -0.023628 -0.030815 -0.051608
v -0.022781 -0.030032 -0.035482
v -0.031529 -0.024132 -0.002181
v -0.026414 -0.027952 -0.002250
v -0.029145 -0.024699 -0.000699
v -0.032523 -0.006267 -0.001013
v -0.017131 -0.032257 -0.045276
v -0.013324 -0.032392 -0.002363
v -0.021145 -0.030644 -0.002477
v -0.021974 -0.029102 -0.000685
v -0.032536 -0.014496 -0.001162
v -0.007521 -0.000051 0.000011
v -0.014050 -0.031184 -0.000551
v -0.011031 -0.006471 -0.000636
v -0.000288 -0.032167 -0.111944
v -0.000272 -0.032421 -0.084438
v 0.000893 -0.031420 -0.100050
v 0.005530 -0.019215 -0.000077
v -0.006323 -0.010689 0.000026
v 0.000136 -0.010517 -0.000590
v 0.001346 -0.005681 0.000003
v 0.000081 -0.000103 -0.000782
v -0.026103 0.012239 0.000242
v -0.024627 -0.014923 0.000216
v -0.017327 -0.010899 0.000241
v -0.011348 -0.029898 0.000134
v -0.001106 -0.017460 -0.000035
v -0.032193 0.030764 -0.136663
v -0.036295 0.030456 -0.132417
v -0.034704 0.032191 -0.131723
v -0.029695 0.032347 -0.135213
v -0.025205 0.017852 -0.167043
v -0.026876 0.032263 -0.162917
v -0.023986 0.032311 -0.168926
v -0.028292 0.032362 -0.156971
v -0.019908 0.034308 -0.160609
v -0.015420 0.036873 -0.159814
v -0.018112 0.035463 -0.150965
v -0.021430 0.032664 -0.139051
v -0.014618 0.034619 -0.140269
v -0.013949 0.032244 -0.178512
v -0.015950 0.033177 -0.171124
v -0.011364 0.036259 -0.166692
v -0.000566 0.039557 -0.167779
v -0.007639 0.040958 -0.164061
v -0.011136 0.040917 -0.148029
v -0.009400 0.037744 -0.141170
v -0.009848 0.032872 -0.131441
v -0.012639 0.040761 -0.156571
v -0.005290 0.040870 -0.141998
v -0.008682 0.031982 -0.180916
v -0.001480 0.033544 -0.176347
v 0.003464 0.036656 -0.170357
v -0.002327 0.036980 -0.137352
v 0.004759 0.033509 -0.131430
v -0.004919 0.040992 -0.158396
v -0.000298 0.040020 -0.154137
v 0.000364 0.040978 -0.146362
v -0.042143 0.004875 -0.002227
v -0.039546 0.013276 -0.060040
v -0.038922 0.012421 -0.000764
v -0.037794 0.011997 -0.085448
v -0.036269 0.022637 -0.078566
v -0.039775 0.012897 -0.003411
v -0.035172 0.018474 -0.000695
v -0.031835 0.025788 -0.061113
v -0.036194 0.017714 -0.041830
v -0.031492 0.023199 -0.042445
v -0.036170 0.019038 -0.002130
v -0.031199 0.024400 -0.002080
v -0.028937 0.024738 -0.000685
v -0.035745 0.030747 -0.099268
v -0.033750 0.032161 -0.095665
v -0.034531 0.030949 -0.088520
v -0.033248 0.029817 -0.078689
v -0.011923 0.030240 -0.000017
v -0.028660 0.031963 -0.072347
v -0.031313 0.030989 -0.074622
v -0.023341 0.031613 -0.055978
v -0.024462 0.030027 -0.049073
v -0.022938 0.029919 -0.034121
v -0.023654 0.028481 -0.000821
v -0.025152 0.028822 -0.002792
v -0.016212 0.008690 0.000106
v -0.014450 0.024416 0.000196
v -0.018801 0.031338 -0.002169
v -0.013914 0.032233 -0.001626
v -0.017307 0.032344 -0.047746
v -0.005008 0.005243 -0.000097
v -0.007083 0.012511 0.000002
v 0.000436 0.011790 -0.000476
v -0.004638 0.022031 0.000200
v 0.000757 0.031566 -0.098984
v 0.000227 0.032195 -0.114712
v -0.000282 0.032455 -0.083387
v 0.008632 -0.032265 -0.180875
v 0.011060 -0.032213 -0.172180
v 0.011414 -0.032294 -0.136175
v 0.010616 -0.030829 -0.158657
v 0.003089 -0.031486 -0.158767
v 0.000144 -0.030788 -0.153777
v 0.006528 -0.031461 -0.153075
v 0.008544 -0.031085 -0.145744
v 0.002558 0.032137 -0.182015
v 0.008649 0.032159 -0.180898
v 0.015150 -0.032034 -0.177877
v 0.019780 -0.032462 -0.164759
v 0.020658 -0.032488 -0.143528
v 0.012824 -0.032269 -0.128415
v 0.016114 -0.032044 -0.130344
v 0.018686 -0.031741 -0.151327
v 0.019245 -0.032259 -0.174581
v 0.021830 -0.032193 -0.171951
v 0.024908 -0.032278 -0.167490
v 0.023898 -0.031966 -0.138272
v 0.020678 -0.032249 -0.134225
v 0.026735 -0.032274 -0.163243
v 0.028296 -0.031933 -0.157306
v 0.028049 -0.032212 -0.149126
v 0.026355 -0.032089 -0.142940
v 0.003014 -0.032193 -0.119157
v 0.007972 -0.032391 -0.125818
v 0.007467 -0.032403 -0.064640
v 0.002369 -0.031024 -0.114683
v 0.002465 -0.029435 -0.111301
v 0.004646 -0.029546 -0.117910
v 0.002666 -0.029621 -0.097870
v 0.004627 -0.031220 -0.081391
v 0.005067 -0.029502 -0.086651
v 0.007675 -0.029597 -0.079515
v 0.010417 -0.030240 -0.072448
v 0.006723 -0.012085 -0.092253
v 0.008877 -0.020915 -0.083513
v 0.005221 -0.003777 -0.104365
v 0.007147 -0.011095 0.000037
v 0.006950 -0.000018 -0.118480
v 0.008489 0.005201 -0.089956
v 0.004445 0.002984 0.000027
v 0.012543 -0.032395 -0.040407
v 0.012772 -0.032259 -0.001662
v 0.008479 -0.030805 -0.124345
v 0.014574 -0.029057 -0.065330
v 0.017409 -0.029556 -0.053553
v 0.016194 -0.030666 -0.001788
v 0.013493 -0.029929 0.000131
v 0.011034 0.001061 -0.125977
v 0.017575 -0.020646 -0.070187
v 0.015390 -0.001918 -0.077845
v 0.017542 -0.011210 -0.074471
v 0.010701 -0.005582 -0.000454
v 0.012779 0.000530 0.000040
v 0.019908 -0.029086 -0.035190
v 0.026453 -0.021947 -0.037401
v 0.021918 -0.026763 -0.001445
v 0.027390 -0.021264 -0.001779
v 0.025255 -0.017106 -0.061795
v 0.028170 -0.007706 -0.065356
v 0.019566 0.005206 -0.000038
v 0.028713 -0.017025 -0.051243
v 0.026550 -0.019083 0.000122
v 0.031288 -0.014971 -0.001734
v 0.031330 -0.008189 -0.059405
v 0.033339 -0.008480 -0.050407
v 0.033489 -0.008994 -0.001683
v 0.029639 0.000932 -0.065290
v 0.034676 -0.000522 -0.054708
v 0.034702 -0.000525 -0.001562
v 0.018385 -0.010422 0.000019
v 0.031922 -0.006049 0.000145
v 0.006331 0.036492 -0.137933
v 0.005335 0.041021 -0.164996
v 0.001946 0.040582 -0.140761
v 0.016227 0.018596 -0.177138
v 0.010294 0.018300 -0.180275
v 0.014750 0.032214 -0.178013
v 0.015669 0.032097 -0.130092
v 0.011557 0.033409 -0.173418
v 0.009723 0.040952 -0.161879
v 0.016021 0.036381 -0.159594
v 0.012527 0.035627 -0.166660
v 0.013032 0.040847 -0.153109
v 0.013428 0.036699 -0.143662
v 0.017103 0.033438 -0.138735
v 0.008696 0.040859 -0.144146
v 0.020635 0.032158 -0.134166
v 0.021365 0.020295 -0.172589
v 0.019702 0.032212 -0.174179
v 0.024585 0.032093 -0.168185
v 0.020963 0.033404 -0.162979
v 0.022272 0.033643 -0.150374
v 0.016958 0.036419 -0.151327
v 0.027749 0.032198 -0.160213
v 0.028401 0.032059 -0.151193
v 0.024267 0.032096 -0.138895
v 0.026714 0.032192 -0.143956
v 0.004928 0.013438 -0.100522
v 0.006822 0.011535 0.000031
v 0.004551 0.016157 -0.112093
v 0.007587 0.032259 -0.125351
v 0.003923 0.030101 -0.116606
v 0.001929 0.030420 -0.109699
v 0.002722 0.029731 -0.096922
v 0.003621 0.031195 -0.084693
v 0.005663 0.029550 -0.084684
v 0.008763 0.028953 -0.078114
v 0.007252 0.032442 -0.064705
v 0.017580 0.010093 -0.074725
v 0.008594 0.005408 -0.000534
v 0.008510 0.016477 -0.086142
v 0.010976 0.015460 -0.000270
v 0.008648 0.031106 -0.124766
v 0.021327 0.019427 -0.066131
v 0.011781 0.030072 -0.069911
v 0.014375 0.030008 -0.062979
v 0.012391 0.032397 -0.043869
v 0.012804 0.032314 -0.002039
v 0.024470 0.024145 -0.038534
v 0.018796 0.028538 -0.052467
v 0.019474 0.029408 -0.038299
v 0.019864 0.028709 -0.002700
v 0.027820 0.008128 -0.065527
v 0.032007 0.006857 -0.059066
v 0.028460 0.017007 -0.053262
v 0.032965 0.011436 -0.002460
v 0.031881 0.006354 0.000136
v 0.028641 0.019652 -0.001991
v 0.023809 0.025129 -0.001648
v 0.033657 0.007208 -0.052611
v 0.032041 0.011651 -0.000885
v 0.011414 0.019768 0.000208
v 0.013823 0.030572 -0.000163
v 0.020944 0.024886 0.000131
v 0.027972 0.016536 0.000101
vn -0.6934 -0.0036 -0.7206
vn -0.4372 -0.8988 -0.0309
vn 0.0055 -0.9999 -0.0095
vn -0.8206 0.0022 -0.5715
vn -0.0220 -0.9996 -0.0199
vn 0.0022 -1.0000 0.0009
vn 0.0155 -0.9999 -0.0033
vn -0.0206 -0.9992 -0.0334
vn -0.9949 -0.1007 0.0112
vn -0.8779 -0.4786 -0.0160
vn 0.0726 0.0192 0.9972
vn -0.7367 -0.6760 -0.0166
vn 0.0327 0.0562 0.9979
vn -0.3776 -0.7810 0.4974
vn -0.0142 -0.9997 0.0191
vn 0.0931 0.0627 0.9937
vn 0.1035 0.1614 0.9814
vn 0.0137 -0.0002 0.9999
vn 0.0169 -0.0003 0.9999
vn -0.6792 -0.0015 -0.7339
vn -0.9010 0.0196 -0.4333
vn -0.5436 -0.0008 -0.8393
vn -0.0776 0.9863 -0.1456
vn -0.0075 0.9999 0.0150
vn -0.9594 0.2819 -0.0090
vn 0.1163 0.0031 0.9932
vn -0.8389 0.4203 0.3457
vn -0.9429 0.3175 0.1005
vn -0.9084 0.3850 0.1629
vn -0.7485 0.6406 0.1714
vn -0.6977 0.6924 0.1835
vn -0.0627 0.0637 0.9960
vn -0.0979 0.9947 0.0298
vn -0.2593 0.9601 0.1048
vn 0.0600 -0.0361 0.9975
vn 0.2967 0.9543 -0.0346
vn 0.0027 -1.0000 0.0051
vn 0.0196 -0.9988 0.0458
vn -0.0022 -0.9703 -0.2420
vn -0.0036 -1.0000 0.0069
vn -0.0316 -0.9977 0.0599
vn 0.1190 -0.9926 0.0253
vn -0.1113 -0.9890 0.0976
vn -0.4079 -0.9129 0.0158
vn 0.6269 -0.0020 -0.7791
vn 0.6578 0.0016 0.7532
vn 0.0276 -0.9996 -0.0023
vn 0.2626 -0.9640 -0.0422
vn 0.7411 -0.6541 -0.1516
vn 0.3054 -0.9448 -0.1185
vn 0.9660 -0.1578 -0.2050
vn 0.0025 -0.0146 0.9999
vn -0.2375 0.0822 0.9679
vn 0.0050 -1.0000 0.0035
vn 0.7881 -0.5051 -0.3517
vn 0.7832 -0.4960 -0.3750
vn 0.4221 -0.9065 0.0007
vn 0.5071 -0.0358 0.8611
vn 0.7536 -0.0631 -0.6544
vn 0.8158 -0.2367 -0.5277
vn 0.8632 -0.0212 -0.5044
vn 0.4303 -0.9020 -0.0355
vn 0.7888 -0.4161 -0.4525
vn 0.9384 -0.3454 -0.0065
vn 0.0361 0.9756 -0.2164
vn 0.0796 0.8986 0.4315
vn -0.0339 0.9123 -0.4082
vn 0.4676 -0.0061 -0.8839
vn 0.0515 0.9816 -0.1840
vn 0.0838 0.9771 -0.1958
vn 0.2396 0.9117 -0.3337
vn 0.8073 -0.0000 -0.5902
vn 0.1595 -0.0448 0.9862
vn 0.6217 0.7710 -0.1380
vn 0.8867 0.2374 -0.3968
vn 0.6029 0.0157 0.7977
vn 0.3472 0.9299 -0.1213
vn 0.3401 0.9368 -0.0819
vn -0.0030 1.0000 0.0020
vn 0.3902 0.9207 -0.0020
vn 0.4735 0.8775 -0.0765
vn 0.7930 0.4329 -0.4287
vn 0.0052 0.0343 0.9994
vn -0.7380 -0.1925 -0.6467
vn -0.4334 -0.8986 -0.0681
vn -0.9733 0.0003 -0.2296
vn -1.0000 0.0030 -0.0083
vn -0.8694 0.0007 -0.4941
vn -0.3452 -0.9176 -0.1969
vn -0.6857 -0.0016 -0.7278
vn -0.0076 -0.9997 -0.0249
vn 0.3227 -0.9103 -0.2593
vn 0.1331 -0.9741 0.1827
vn 0.1231 -0.9913 -0.0463
vn -0.0899 -0.9922 -0.0860
vn 0.0639 -0.9825 0.1752
vn -0.0716 -0.9939 -0.0843
vn -0.6855 -0.0370 0.7271
vn -0.6595 -0.7516 0.0138
vn -0.2190 -0.9757 0.0058
vn -0.5334 -0.8399 0.1007
vn -0.9939 -0.1098 0.0059
vn -0.6700 -0.5717 0.4736
vn -0.9999 0.0003 -0.0140
vn -0.9310 -0.3595 0.0634
vn -0.8758 -0.4824 -0.0154
vn 0.0849 0.0355 0.9958
vn -0.9996 0.0036 -0.0295
vn -0.9803 -0.1859 -0.0669
vn -0.0480 -0.9988 -0.0051
vn -0.5012 -0.8456 0.1837
vn -0.6000 -0.7780 0.1865
vn -0.5911 -0.7856 0.1828
vn -0.6584 -0.7493 0.0710
vn -0.5938 -0.8045 -0.0146
vn -0.4980 -0.6766 0.5424
vn -0.3971 -0.6447 0.6532
vn -0.5372 -0.5166 0.6667
vn 0.0657 0.0671 0.9956
vn -0.0442 -0.9990 0.0119
vn -0.2725 -0.9602 0.0610
vn -0.3652 -0.9309 0.0008
vn -0.2183 -0.9757 0.0163
vn 0.0055 -0.9999 0.0087
vn 0.0050 -1.0000 0.0059
vn 0.0053 -0.9999 -0.0092
vn -0.0040 -1.0000 0.0025
vn -0.0466 -0.0750 0.9961
vn -0.1643 -0.0099 0.9864
vn -0.1779 -0.1615 0.9707
vn -0.0075 0.0073 0.9999
vn 0.3118 -0.2625 0.9132
vn -0.0003 -0.0057 1.0000
vn 0.0612 0.1095 0.9921
vn 0.0081 0.0069 0.9999
vn -0.9244 0.0015 -0.3815
vn -0.3788 0.8746 -0.3026
vn -0.4463 0.6538 -0.6111
vn -0.9290 -0.0018 -0.3702
vn -0.4511 0.8745 -0.1780
vn -0.8264 0.5491 -0.1246
vn -0.4286 -0.9030 -0.0282
vn -0.8136 0.0005 -0.5814
vn -0.8134 -0.0071 -0.5816
vn -0.1198 0.9917 -0.0474
vn -0.2537 0.9649 -0.0683
vn -0.3533 0.9278 0.1196
vn -0.2466 0.9565 0.1561
vn -0.0391 0.9992 -0.0019
vn -0.0298 0.9994 0.0181
vn -0.3517 -0.0030 -0.9361
vn -0.4150 0.0020 -0.9098
vn -0.0980 0.9432 -0.3175
vn -0.3061 0.9003 -0.3093
vn -0.5892 0.6964 -0.4096
vn -0.7538 0.6448 -0.1266
vn -0.6610 0.6997 0.2712
vn -0.5820 0.7244 -0.3694
vn -0.0528 0.9986 -0.0089
vn -0.0123 0.9999 -0.0001
vn -0.4744 0.7471 0.4656
vn -0.1698 0.0014 -0.9855
vn 0.2008 0.7917 -0.5770
vn -0.0372 0.8421 0.5380
vn 0.3284 0.9337 -0.1431
vn -0.9999 0.0103 0.0046
vn -0.9688 0.2480 -0.0023
vn -0.9981 -0.0103 -0.0606
vn 0.0740 -0.0571 0.9956
vn -0.9999 0.0080 -0.0154
vn -0.5814 0.5334 0.6144
vn -0.5069 0.5034 0.6998
vn -0.7382 0.6745 0.0063
vn -0.6455 0.7615 0.0586
vn -0.9210 0.3881 0.0332
vn -0.1853 -0.0023 0.9827
vn -0.7331 0.6799 -0.0149
vn -0.3609 0.2970 0.8841
vn -0.4391 0.8925 0.1034
vn -0.7787 0.5949 0.1990
vn -0.5363 0.7944 0.2852
vn -0.3889 0.9097 0.1458
vn -0.6325 0.7656 0.1178
vn -0.6060 0.7953 -0.0193
vn -0.3309 0.9300 0.1599
vn -0.3689 0.9295 0.0065
vn -0.3693 0.8273 0.4233
vn -0.1374 0.5356 0.8332
vn -0.0284 0.9996 0.0041
vn -0.0147 0.9999 0.0012
vn 0.0213 0.0104 0.9997
vn 0.0152 -0.0093 0.9998
vn -0.0271 0.9996 0.0039
vn 0.1035 -0.0287 0.9942
vn -0.0036 0.6261 0.7797
vn -0.0248 0.9997 -0.0087
vn 0.6951 0.7189 0.0053
vn 0.0112 -0.0070 0.9999
vn 0.0051 -1.0000 -0.0076
vn -0.0714 -0.9974 0.0116
vn -0.1125 -0.9910 0.0723
vn -0.0835 -0.9800 -0.1807
vn -0.0674 -0.9922 -0.1052
vn 0.1632 -0.0021 -0.9866
vn 0.1493 -0.9564 -0.2510
vn 0.0244 -0.9997 -0.0012
vn 0.0875 -0.9950 -0.0485
vn -0.0061 -0.9931 -0.1168
vn 0.4179 -0.0030 -0.9085
vn 0.3510 -0.0004 -0.9364
vn -0.0115 -0.9997 -0.0201
vn 0.0189 -0.9993 -0.0320
vn 0.2821 -0.8817 0.3782
vn -0.1488 -0.9880 0.0409
vn -0.1023 -0.9924 -0.0691
vn 0.7131 0.0071 -0.7010
vn 0.7825 0.0015 0.6227
vn 0.0296 -0.9995 -0.0118
vn 0.2986 -0.9541 -0.0236
vn 0.0378 -0.9993 0.0008
vn 0.9186 0.0003 -0.3951
vn 0.9672 -0.0033 -0.2540
vn -0.0049 -1.0000 0.0014
vn 0.6107 -0.6348 0.4734
vn 0.6095 -0.7411 0.2817
vn 0.7603 -0.5931 0.2648
vn 0.4099 -0.9120 0.0166
vn 0.7242 -0.6893 -0.0204
vn 0.5586 -0.8011 -0.2149
vn 0.9471 -0.0678 0.3136
vn 0.9878 -0.1295 0.0865
vn 0.0480 0.0578 0.9972
vn 0.3528 -0.6948 0.6267
vn 0.9010 -0.2781 -0.3331
vn 0.7896 -0.3435 -0.5084
vn 0.2249 -0.0584 0.9726
vn 0.3565 -0.5870 0.7269
vn 0.3009 -0.3615 0.8825
vn 0.7284 -0.5185 -0.4479
vn 0.7578 -0.6052 -0.2437
vn 0.7480 -0.6544 -0.1106
vn 0.6760 -0.3027 -0.6719
vn 0.7499 -0.4247 -0.5071
vn 0.7361 -0.6768 -0.0064
vn 0.4994 -0.4520 0.7391
vn 0.8501 -0.5266 -0.0122
vn 0.8802 -0.4740 -0.0249
vn 0.8795 -0.4751 -0.0263
vn 0.6680 -0.1124 -0.7357
vn 0.8851 -0.1471 -0.4415
vn 0.9899 -0.1418 -0.0005
vn -0.0096 0.0123 0.9999
vn -0.0101 0.0024 0.9999
vn 0.0284 0.9747 -0.2217
vn 0.1298 0.8320 -0.5394
vn 0.0873 0.6281 0.7732
vn 0.0837 0.9874 0.1345
vn -0.3348 0.9383 -0.0871
vn 0.0058 0.9995 0.0322
vn 0.0191 0.9927 0.1191
vn 0.2816 0.7313 0.6211
vn 0.4272 0.0101 -0.9041
vn 0.3455 0.6649 -0.6622
vn 0.2786 0.8834 0.3769
vn 0.2741 0.8473 0.4550
vn 0.1060 0.9798 0.1695
vn 0.6246 0.7473 -0.2268
vn 0.6134 0.7322 0.2958
vn 0.6343 -0.0003 0.7731
vn 0.6122 0.0155 -0.7906
vn 0.6642 -0.0071 -0.7476
vn 0.7753 0.0240 -0.6311
vn 0.1282 0.9779 -0.1651
vn 0.1333 0.9838 -0.1197
vn 0.3540 0.8953 -0.2705
vn 0.1756 0.9767 -0.1237
vn 0.7628 0.6404 -0.0894
vn 0.4703 0.8806 -0.0574
vn 0.1853 0.9741 0.1297
vn 0.9974 0.0052 -0.0720
vn 0.9003 0.0019 0.4352
vn 0.9739 0.0020 0.2270
vn 0.1102 0.9939 0.0074
vn 0.1795 0.9790 0.0970
vn -0.0556 -0.1787 0.9823
vn 0.9858 0.0903 0.1416
vn 0.9855 0.0891 0.1444
vn 0.0006 0.0573 0.9984
vn -0.0783 0.0213 0.9967
vn -0.0722 0.1520 0.9857
vn 0.9807 0.1888 -0.0507
vn 0.9624 0.0854 -0.2578
vn 0.5339 0.8376 0.1154
vn 0.7166 0.6975 0.0037
vn 0.9542 0.1302 0.2694
vn 0.9429 0.1884 -0.2747
vn 0.9468 0.2312 -0.2241
vn -0.0427 0.9745 0.2203
vn 0.5665 0.7226 0.3962
vn 0.7874 0.0165 -0.6163
vn 0.7707 0.3337 -0.5428
vn 0.6036 0.7479 -0.2764
vn 0.8470 0.3871 -0.3644
vn 0.0870 -0.1096 0.9902
vn 0.7620 0.5840 -0.2797
vn 0.7511 0.5848 -0.3063
vn 0.4325 0.8991 -0.0675
vn 0.7585 0.6430 -0.1061
vn 0.4556 0.8901 0.0125
vn 0.4532 0.6716 0.5861
vn 0.6739 0.0682 -0.7357
vn 0.8632 0.4416 -0.2446
vn 0.8839 0.4670 -0.0272
vn 0.4690 0.3633 0.8050
vn 0.5988 0.3539 0.7184
vn 0.8122 0.4035 0.4212
vn 0.7252 0.6885 -0.0054
vn 0.9043 0.0793 -0.4195
vn 0.9914 0.1308 -0.0005
vn 0.7018 0.1142 0.7031
vn 0.8608 0.1612 0.4828
vn -0.0159 -0.1088 0.9939
vn 0.0055 0.0332 0.9994
vn -0.0117 0.0370 0.9992
vn -0.0142 0.0007 0.9999
vn -0.0140 -0.0020 0.9999
vn -0.5215 -0.6885 -0.5039
vn -0.3102 -0.8374 -0.4500
vn -0.9330 0.0044 -0.3599
vn -0.6978 -0.7155 -0.0333
vn -0.4681 0.8828 -0.0407
vn -0.9317 -0.0010 -0.3632
vn -0.8703 0.0009 -0.4926
vn -0.9696 -0.0018 -0.2448
vn -0.0033 -1.0000 -0.0023
vn -0.6844 -0.0015 -0.7291
vn -0.2454 -0.8450 -0.4752
vn -0.0227 -0.9997 -0.0060
vn 0.2429 -0.9655 0.0942
vn 0.1377 -0.9843 0.1103
vn 0.0185 -0.9934 0.1134
vn 0.0474 -0.9948 -0.0905
vn -0.0642 -0.9938 0.0909
vn 0.2633 -0.9643 -0.0276
vn -0.1312 -0.0016 -0.9914
vn -0.9811 -0.1311 -0.1423
vn -0.9930 -0.1175 -0.0079
vn -0.9679 -0.2515 0.0024
vn -0.9124 -0.2744 0.3038
vn -0.9819 -0.1893 0.0045
vn -0.6293 -0.7771 0.0113
vn -0.9942 -0.1075 0.0033
vn -0.6795 -0.7312 0.0591
vn -0.9438 -0.3164 0.0958
vn -0.8975 -0.4029 0.1796
vn -0.9012 -0.4289 0.0633
vn -0.8602 -0.4879 0.1487
vn -0.7461 -0.6651 0.0318
vn -0.7521 -0.6587 -0.0211
vn -0.9383 -0.3448 0.0263
vn -0.8222 -0.3635 0.4379
vn -0.8355 -0.4177 0.3570
vn -0.9999 0.0027 -0.0113
vn -0.2669 -0.0171 0.9636
vn -0.3982 -0.9125 0.0939
vn -0.5551 -0.8076 0.1991
vn -0.5985 -0.8010 -0.0138
vn -0.1726 -0.0176 0.9848
vn -0.0742 -0.9970 0.0217
vn -0.3357 -0.9327 0.1321
vn -0.4547 -0.8906 0.0060
vn -0.2166 -0.7873 0.5773
vn -0.0104 0.0252 0.9996
vn 0.0022 -1.0000 0.0048
vn -0.0045 -1.0000 0.0023
vn -0.1971 -0.8503 0.4881
vn 0.5898 -0.8075 -0.0078
vn 0.0161 -0.4962 0.8681
vn -0.0007 -0.6097 0.7926
vn -0.0572 0.0923 0.9941
vn 0.0978 -0.1450 0.9846
vn 0.0168 0.0059 0.9998
vn -0.1716 -0.1574 0.9725
vn -0.4098 -0.3234 0.8529
vn -0.7197 0.0173 -0.6940
vn -1.0000 0.0013 0.0021
vn -0.9728 0.0005 -0.2316
vn -0.9666 -0.0011 -0.2565
vn -0.1009 0.9941 -0.0406
vn -0.5985 0.0035 -0.8011
vn -0.7723 0.0167 -0.6351
vn -0.1434 0.9800 -0.1381
vn -0.1256 0.9795 -0.1578
vn -0.3087 0.9263 -0.2159
vn -0.4946 0.8691 -0.0120
vn -0.3736 0.8968 -0.2371
vn -0.4249 0.8445 -0.3259
vn -0.2134 0.9300 0.2994
vn -0.3940 0.7922 0.4661
vn -0.2509 0.9148 0.3166
vn -0.2905 0.6793 0.6740
vn -0.6382 0.7635 0.0984
vn -0.0655 0.9757 -0.2089
vn -0.2173 0.8097 -0.5451
vn -0.2642 0.6221 -0.7370
vn -0.3223 0.6146 0.7200
vn -0.0855 0.7364 0.6711
vn -0.0051 1.0000 -0.0035
vn -0.0059 1.0000 0.0037
vn -0.8024 0.0045 0.5968
vn -0.7690 0.2112 0.6033
vn -0.9800 -0.0055 -0.1988
vn -0.9660 0.2549 -0.0421
vn -0.8865 0.3121 0.3416
vn 0.1238 -0.0211 0.9921
vn -0.6673 0.4064 0.6242
vn 0.0564 -0.0578 0.9967
vn -0.9922 0.1202 0.0340
vn -0.9726 0.2073 -0.1049
vn -0.8499 0.5262 0.0282
vn -0.7492 0.6540 0.1045
vn -0.7996 0.6006 0.0008
vn -0.8608 0.5087 -0.0165
vn -0.7602 0.6493 -0.0212
vn -0.9803 0.1968 0.0145
vn -0.5977 0.8015 0.0165
vn -0.9854 0.1657 0.0400
vn -0.8290 0.5270 0.1875
vn -0.0294 -0.0303 0.9991
vn -0.4125 0.9062 0.0929
vn -0.6588 0.7488 0.0726
vn -0.5912 0.8064 -0.0135
vn -0.4769 0.7308 0.4883
vn -0.4597 0.6699 0.5830
vn -0.3144 0.9485 0.0389
vn -0.3792 0.9253 0.0080
vn -0.0922 0.1658 0.9818
vn -0.2026 0.6778 0.7068
vn -0.1817 0.9832 0.0158
vn 0.0493 0.9987 0.0107
vn 0.0639 0.0046 0.9979
vn 0.0266 0.9993 0.0244
vn -0.0027 1.0000 0.0018
vn -0.0017 -0.0056 1.0000
vn 0.0224 -0.0265 0.9994
vn 0.0007 -1.0000 0.0091
vn 0.0071 -0.9845 -0.1750
vn -0.0156 -0.9938 0.1100
vn 0.0118 -0.9967 0.0801
vn 0.0014 0.0037 -1.0000
vn 0.1804 -0.0004 -0.9836
vn -0.0160 -0.9999 0.0061
vn 0.0849 -0.9909 0.1042
vn 0.4673 0.0030 -0.8841
vn 0.0492 -0.9985 -0.0233
vn 0.0216 -0.9994 0.0256
vn -0.0971 -0.9906 -0.0961
vn 0.6479 0.0015 0.7617
vn 0.0659 -0.9971 0.0379
vn 0.0635 -0.9962 0.0598
vn 0.9295 0.0027 -0.3689
vn 0.9995 -0.0045 0.0300
vn 0.9645 -0.0012 0.2642
vn 0.8849 -0.0006 0.4658
vn -0.0042 -1.0000 -0.0028
vn 0.7573 -0.5991 0.2599
vn 0.6204 -0.6128 0.4895
vn 0.9638 -0.2509 0.0904
vn 0.7895 -0.5947 -0.1516
vn 0.3501 -0.9283 -0.1250
vn 0.5841 -0.7560 -0.2954
vn -0.0106 -0.8339 0.5518
vn 0.9754 -0.2200 -0.0177
vn 0.9845 -0.0613 -0.1642
vn 0.8690 -0.2245 -0.4410
vn -0.0810 0.0938 0.9923
vn 0.9816 -0.0771 -0.1746
vn -0.0966 -0.0971 0.9906
vn 0.3841 -0.9168 -0.1090
vn 0.5125 -0.8438 -0.1591
vn 0.3487 -0.9344 -0.0727
vn 0.3229 -0.6379 0.6991
vn 0.8548 -0.0421 0.5173
vn 0.6804 -0.0171 0.7326
vn 0.8943 -0.1850 -0.4074
vn -0.0355 0.0411 0.9985
vn 0.8802 -0.0596 0.4709
vn 0.0489 -0.0203 0.9986
vn -0.0230 -0.0727 0.9971
vn 0.7222 -0.6870 -0.0807
vn 0.4084 -0.9128 0.0023
vn 0.5622 -0.8267 0.0234
vn 0.7452 -0.6342 -0.2062
vn 0.7090 -0.7051 0.0063
vn 0.6036 -0.3790 0.7014
vn 0.8282 -0.4925 -0.2676
vn 0.8685 -0.4498 -0.2084
vn 0.4965 -0.1899 0.8470
vn 0.5346 -0.2218 0.8155
vn 0.6693 -0.1082 -0.7351
vn 0.8763 -0.0928 -0.4728
vn 0.9364 -0.2751 -0.2180
vn 0.9857 -0.1682 -0.0048
vn 0.6644 -0.1058 0.7398
vn 0.0001 0.0195 0.9998
vn -0.0095 0.0030 1.0000
vn -0.0108 0.0045 0.9999
vn 0.1217 0.7484 -0.6520
vn 0.0128 0.9999 0.0057
vn 0.6296 0.6758 -0.3833
vn 0.6602 0.6975 0.2786
vn 0.4818 0.6201 0.6192
vn 0.1085 0.9825 0.1516
vn 0.4099 0.7194 -0.5608
vn 0.0102 0.9999 0.0081
vn 0.0141 0.9999 0.0055
vn 0.7930 -0.0000 0.6092
vn 0.6635 -0.0032 -0.7482
vn 0.3748 0.8635 -0.3373
vn 0.4810 0.8742 -0.0665
vn 0.4913 0.8488 0.1953
vn 0.4243 0.8822 0.2040
vn 0.1301 0.9763 0.1730
vn 0.8230 -0.0020 -0.5680
vn 0.2123 0.9724 -0.0971
vn 0.1899 0.9811 -0.0383
vn 0.2861 0.9580 0.0186
vn 0.1853 0.9767 0.1081
vn 0.9994 0.0230 -0.0272
vn 0.9613 0.0755 -0.2651
vn 0.9909 0.1343 -0.0007
vn 0.0029 -0.0644 0.9979
vn 0.6019 0.6720 0.4314
vn 0.6844 0.7291 -0.0032
vn 0.7474 0.6509 -0.1329
vn 0.3474 0.9298 -0.1212
vn 0.0083 0.7349 0.6781
vn 0.2723 0.9560 -0.1091
vn -0.0021 1.0000 0.0027
vn -0.0021 1.0000 0.0026
vn 0.0437 0.1536 0.9872
vn -0.0435 0.0799 0.9959
vn 0.8732 0.0576 0.4840
vn 0.8937 0.1423 -0.4256
vn -0.0468 -0.1051 0.9934
vn 0.0285 0.0464 0.9985
vn 0.8165 0.1779 -0.5492
vn 0.8618 0.0481 0.5050
vn 0.7554 0.5520 -0.3532
vn 0.3838 0.6738 0.6314
vn -0.0564 0.0079 0.9984
vn 0.6629 0.3455 -0.6642
vn 0.7397 0.6352 -0.2224
vn 0.7215 0.6882 -0.0768
vn 0.6710 0.7414 0.0072
vn 0.4352 0.7653 0.4743
vn 0.4072 0.5477 0.7308
vn 0.6394 0.1366 -0.7567
vn 0.8401 0.1956 -0.5059
vn 0.8015 0.4823 -0.3536
vn 0.4102 0.1605 0.8978
vn 0.8443 0.5350 -0.0306
vn 0.8839 0.4669 -0.0272
vn 0.4910 0.4106 0.7683
vn 0.7498 0.6617 -0.0042
vn 0.9480 0.1936 -0.2528
vn 0.9896 0.1438 0.0015
vn 0.5199 0.0023 0.8542
vn -0.0008 -0.0018 1.0000
vn -0.1403 -0.0952 0.9855
vn 0.0069 0.0023 1.0000
vn 0.0035 -0.0150 0.9999
s 0
f 7//1 3//1 4//1
f 1//2 10//2 9//2
f 17//3 9//3 16//3
f 8//4 18//4 16//4
f 22//5 15//5 21//5
f 23//6 1//6 17//6
f 27//7 22//7 21//7
f 29//8 28//8 155//8
f 40//9 4//9 41//9
f 34//10 48//10 50//10
f 53//11 51//11 66//11
f 58//12 50//12 46//12
f 65//13 66//13 60//13
f 65//14 59//14 64//14
f 176//15 23//15 177//15
f 75//16 74//16 82//16
f 77//17 67//17 76//17
f 139//18 78//18 79//18
f 82//19 80//19 81//19
f 7//20 83//20 3//20
f 88//21 89//21 87//21
f 15//22 96//22 20//22
f 97//23 107//23 96//23
f 101//24 105//24 113//24
f 119//25 35//25 114//25
f 53//26 37//26 51//26
f 124//27 119//27 116//27
f 129//28 127//28 118//28
f 130//29 129//29 118//29
f 133//30 129//30 130//30
f 121//31 135//31 132//31
f 140//32 131//32 78//32
f 132//33 143//33 128//33
f 134//34 143//34 132//34
f 147//35 145//35 146//35
f 148//36 150//36 258//36
f 152//37 21//37 151//37
f 158//38 30//38 157//38
f 153//39 23//39 31//39
f 152//40 151//40 167//40
f 158//41 157//41 166//41
f 170//42 171//42 163//42
f 162//43 154//43 152//43
f 166//44 162//44 163//44
f 161//45 228//45 167//45
f 231//46 201//46 165//46
f 172//47 163//47 162//47
f 183//48 71//48 72//48
f 184//49 183//49 182//49
f 71//50 183//50 178//50
f 182//51 187//51 184//51
f 190//52 82//52 73//52
f 193//53 77//53 76//53
f 195//54 63//54 194//54
f 185//55 202//55 186//55
f 202//56 197//56 186//56
f 194//57 199//57 195//57
f 165//58 201//58 164//58
f 203//59 204//59 188//59
f 188//60 204//60 202//60
f 192//61 203//61 187//61
f 207//62 194//62 198//62
f 212//63 217//63 211//63
f 218//64 219//64 216//64
f 159//65 107//65 160//65
f 109//66 110//66 225//66
f 100//67 226//67 99//67
f 229//68 230//68 228//68
f 107//69 232//69 160//69
f 160//70 232//70 230//70
f 108//71 235//71 232//71
f 241//72 243//72 168//72
f 263//73 252//73 193//73
f 258//74 259//74 257//74
f 259//75 260//75 264//75
f 231//76 266//76 201//76
f 261//77 269//77 268//77
f 261//78 270//78 269//78
f 142//79 271//79 270//79
f 270//80 271//80 274//80
f 269//81 274//81 273//81
f 276//82 267//82 277//82
f 286//83 131//83 140//83
f 4//84 3//84 5//84
f 3//85 12//85 1//85
f 9//86 10//86 90//86
f 13//87 10//87 11//87
f 14//88 3//88 83//88
f 9//89 8//89 16//89
f 15//90 16//90 18//90
f 22//91 16//91 15//91
f 17//92 25//92 23//92
f 24//93 22//93 27//93
f 29//94 17//94 24//94
f 24//95 28//95 29//95
f 156//96 29//96 155//96
f 23//97 25//97 30//97
f 36//98 51//98 37//98
f 5//99 2//99 39//99
f 39//100 2//100 38//100
f 44//101 43//101 39//101
f 42//102 41//102 45//102
f 50//103 58//103 49//103
f 6//104 4//104 40//104
f 33//105 47//105 48//105
f 33//106 48//106 34//106
f 51//107 49//107 66//107
f 52//108 40//108 42//108
f 42//109 45//109 35//109
f 2//110 1//110 38//110
f 55//111 44//111 54//111
f 55//112 54//112 56//112
f 46//113 55//113 56//113
f 46//114 56//114 57//114
f 46//115 57//115 59//115
f 58//116 59//116 60//116
f 59//117 65//117 60//117
f 49//118 58//118 60//118
f 49//119 60//119 66//119
f 62//120 39//120 38//120
f 57//121 56//121 62//121
f 57//122 62//122 64//122
f 62//123 63//123 64//123
f 38//124 23//124 176//124
f 38//125 176//125 70//125
f 38//126 70//126 71//126
f 62//127 71//127 178//127
f 67//128 69//128 76//128
f 78//129 61//129 79//129
f 79//130 66//130 68//130
f 79//131 80//131 139//131
f 67//132 80//132 69//132
f 80//133 79//133 81//133
f 82//134 69//134 80//134
f 82//135 81//135 73//135
f 84//136 7//136 6//136
f 86//137 83//137 84//137
f 86//138 84//138 85//138
f 88//139 87//139 9//139
f 86//140 14//140 83//140
f 13//141 14//141 86//141
f 86//142 90//142 13//142
f 87//143 18//143 8//143
f 18//144 87//144 89//144
f 97//145 89//145 90//145
f 90//146 93//146 91//146
f 94//147 93//147 90//147
f 94//148 95//148 93//148
f 94//149 90//149 86//149
f 86//150 103//150 94//150
f 21//151 20//151 106//151
f 96//152 106//152 20//152
f 32//153 106//153 96//153
f 99//154 97//154 98//154
f 100//155 98//155 92//155
f 104//156 92//156 93//156
f 93//157 95//157 101//157
f 104//158 100//158 92//158
f 101//159 100//159 104//159
f 101//160 111//160 100//160
f 101//161 102//161 105//161
f 106//162 32//162 21//162
f 108//163 107//163 99//163
f 103//164 110//164 109//164
f 113//165 112//165 111//165
f 35//166 36//166 114//166
f 115//167 35//167 119//167
f 52//168 42//168 117//168
f 120//169 116//169 53//169
f 84//170 6//170 52//170
f 120//171 125//171 124//171
f 126//172 125//172 120//172
f 85//173 84//173 127//173
f 128//174 127//174 129//174
f 130//175 118//175 115//175
f 78//176 53//176 61//176
f 125//177 123//177 124//177
f 131//178 53//178 78//178
f 132//179 128//179 129//179
f 121//180 133//180 130//180
f 132//181 133//181 121//181
f 135//182 134//182 132//182
f 135//183 121//183 123//183
f 136//184 123//184 125//184
f 143//185 134//185 135//185
f 141//186 136//186 138//186
f 137//187 141//187 138//187
f 142//188 137//188 131//188
f 143//189 86//189 85//189
f 128//190 143//190 85//190
f 139//191 67//191 144//191
f 139//192 144//192 145//192
f 103//193 86//193 143//193
f 144//194 67//194 77//194
f 142//195 131//195 286//195
f 143//196 150//196 149//196
f 150//197 148//197 149//197
f 78//198 139//198 140//198
f 177//199 23//199 153//199
f 155//200 28//200 152//200
f 156//201 155//201 157//201
f 30//202 156//202 157//202
f 31//203 158//203 153//203
f 159//204 151//204 26//204
f 151//205 161//205 167//205
f 177//206 153//206 164//206
f 155//207 154//207 157//207
f 157//208 154//208 166//208
f 229//209 161//209 151//209
f 229//210 151//210 160//210
f 152//211 167//211 162//211
f 162//212 168//212 169//212
f 164//213 171//213 165//213
f 154//214 162//214 166//214
f 163//215 158//215 166//215
f 168//216 167//216 228//216
f 249//217 171//217 170//217
f 162//218 169//218 172//218
f 174//219 172//219 173//219
f 163//220 172//220 174//220
f 243//221 172//221 169//221
f 247//222 173//222 172//222
f 62//223 178//223 194//223
f 196//224 176//224 177//224
f 179//225 70//225 176//225
f 181//226 179//226 176//226
f 70//227 179//227 72//227
f 182//228 72//228 180//228
f 183//229 184//229 185//229
f 180//230 181//230 191//230
f 189//231 180//231 191//231
f 205//232 76//232 190//232
f 196//233 177//233 164//233
f 185//234 184//234 188//234
f 202//235 185//235 188//235
f 190//236 73//236 205//236
f 200//237 199//237 209//237
f 200//238 209//238 215//238
f 202//239 211//239 197//239
f 214//240 197//240 211//240
f 208//241 198//241 214//241
f 212//242 202//242 204//242
f 212//243 211//243 202//243
f 210//244 207//244 208//244
f 215//245 209//245 210//245
f 216//246 210//246 208//246
f 218//247 208//247 214//247
f 216//248 208//248 218//248
f 203//249 212//249 204//249
f 221//250 212//250 220//250
f 222//251 219//251 221//251
f 73//252 200//252 215//252
f 223//253 215//253 224//253
f 107//254 159//254 32//254
f 108//255 232//255 107//255
f 109//256 225//256 227//256
f 226//257 111//257 112//257
f 113//258 226//258 112//258
f 239//259 113//259 105//259
f 227//260 239//260 105//260
f 239//261 227//261 225//261
f 230//262 229//262 160//262
f 226//263 235//263 108//263
f 238//264 237//264 225//264
f 238//265 225//265 110//265
f 231//266 238//266 110//266
f 236//267 234//267 233//267
f 236//268 239//268 237//268
f 231//269 171//269 240//269
f 242//270 228//270 230//270
f 241//271 228//271 242//271
f 243//272 241//272 242//272
f 232//273 242//273 230//273
f 244//274 242//274 232//274
f 234//275 244//275 235//275
f 244//276 243//276 242//276
f 246//277 234//277 236//277
f 245//278 234//278 246//278
f 249//279 238//279 240//279
f 247//280 248//280 173//280
f 249//281 175//281 250//281
f 248//282 250//282 174//282
f 250//283 248//283 247//283
f 238//284 250//284 245//284
f 144//285 77//285 193//285
f 255//286 253//286 191//286
f 253//287 189//287 191//287
f 146//288 144//288 193//288
f 146//289 193//289 252//289
f 265//290 146//290 252//290
f 257//291 253//291 256//291
f 264//292 192//292 251//292
f 256//293 255//293 149//293
f 148//294 256//294 149//294
f 256//295 253//295 255//295
f 257//296 264//296 251//296
f 259//297 264//297 257//297
f 254//298 110//298 103//298
f 149//299 266//299 254//299
f 262//300 203//300 264//300
f 260//301 267//301 264//301
f 268//302 259//302 258//302
f 259//303 268//303 260//303
f 213//304 206//304 205//304
f 269//305 267//305 268//305
f 269//306 278//306 267//306
f 274//307 269//307 270//307
f 273//308 272//308 278//308
f 271//309 275//309 274//309
f 286//310 282//310 275//310
f 276//311 203//311 262//311
f 283//312 277//312 278//312
f 281//313 283//313 278//313
f 282//314 287//314 281//314
f 281//315 288//315 284//315
f 284//316 279//316 281//316
f 282//317 272//317 274//317
f 277//318 221//318 220//318
f 283//319 222//319 221//319
f 284//320 280//320 222//320
f 284//321 222//321 279//321
f 147//322 265//322 285//322
f 140//323 285//323 286//323
f 287//324 286//324 285//324
f 280//325 213//325 224//325
f 288//326 213//326 280//326
f 2//327 5//327 3//327
f 1//328 2//328 3//328
f 6//329 7//329 4//329
f 12//330 10//330 1//330
f 11//331 10//331 12//331
f 87//332 8//332 9//332
f 14//333 12//333 3//333
f 14//334 11//334 12//334
f 1//335 9//335 17//335
f 18//336 19//336 15//336
f 21//337 15//337 20//337
f 22//338 17//338 16//338
f 24//339 17//339 22//339
f 25//340 17//340 29//340
f 28//341 24//341 27//341
f 30//342 29//342 156//342
f 30//343 25//343 29//343
f 31//344 23//344 30//344
f 21//345 32//345 26//345
f 33//346 35//346 45//346
f 35//347 33//347 36//347
f 36//348 33//348 34//348
f 36//349 34//349 51//349
f 4//350 5//350 41//350
f 41//351 5//351 39//351
f 42//352 40//352 41//352
f 39//353 43//353 41//353
f 45//354 41//354 43//354
f 45//355 43//355 44//355
f 47//356 45//356 44//356
f 46//357 47//357 44//357
f 48//358 47//358 46//358
f 50//359 48//359 46//359
f 47//360 33//360 45//360
f 51//361 34//361 49//361
f 49//362 34//362 50//362
f 52//363 6//363 40//363
f 61//364 53//364 66//364
f 44//365 39//365 54//365
f 46//366 44//366 55//366
f 59//367 58//367 46//367
f 79//368 61//368 66//368
f 62//369 54//369 39//369
f 62//370 56//370 54//370
f 64//371 59//371 57//371
f 68//372 65//372 64//372
f 66//373 65//373 68//373
f 38//374 1//374 23//374
f 62//375 38//375 71//375
f 68//376 64//376 63//376
f 71//377 70//377 72//377
f 81//378 68//378 195//378
f 200//379 81//379 195//379
f 76//380 69//380 74//380
f 76//381 74//381 75//381
f 67//382 139//382 80//382
f 79//383 68//383 81//383
f 74//384 69//384 82//384
f 84//385 83//385 7//385
f 13//386 90//386 10//386
f 90//387 88//387 9//387
f 14//388 13//388 11//388
f 88//389 90//389 89//389
f 96//390 15//390 19//390
f 89//391 19//391 18//391
f 89//392 97//392 19//392
f 19//393 97//393 96//393
f 91//394 97//394 90//394
f 93//395 92//395 91//395
f 91//396 98//396 97//396
f 92//397 98//397 91//397
f 94//398 103//398 95//398
f 95//399 102//399 101//399
f 103//400 109//400 95//400
f 109//401 102//401 95//401
f 101//402 104//402 93//402
f 96//403 107//403 32//403
f 97//404 99//404 107//404
f 98//405 100//405 99//405
f 102//406 109//406 105//406
f 109//407 227//407 105//407
f 100//408 111//408 226//408
f 101//409 113//409 111//409
f 114//410 36//410 37//410
f 116//411 114//411 37//411
f 35//412 117//412 42//412
f 118//413 35//413 115//413
f 119//414 114//414 116//414
f 116//415 37//415 53//415
f 120//416 124//416 116//416
f 120//417 53//417 126//417
f 118//418 52//418 117//418
f 118//419 117//419 35//419
f 122//420 121//420 115//420
f 123//421 121//421 122//421
f 122//422 115//422 119//422
f 124//423 122//423 119//423
f 123//424 122//424 124//424
f 127//425 84//425 52//425
f 127//426 128//426 85//426
f 127//427 52//427 118//427
f 130//428 115//428 121//428
f 131//429 126//429 53//429
f 133//430 132//430 129//430
f 136//431 135//431 123//431
f 138//432 136//432 125//432
f 125//433 137//433 138//433
f 137//434 125//434 126//434
f 135//435 136//435 143//435
f 136//436 141//436 143//436
f 137//437 126//437 131//437
f 137//438 142//438 141//438
f 142//439 143//439 141//439
f 149//440 103//440 143//440
f 145//441 144//441 146//441
f 149//442 254//442 103//442
f 261//443 150//443 143//443
f 140//444 139//444 147//444
f 147//445 139//445 145//445
f 152//446 27//446 21//446
f 21//447 26//447 151//447
f 152//448 28//448 27//448
f 158//449 31//449 30//449
f 32//450 159//450 26//450
f 159//451 160//451 151//451
f 164//452 153//452 163//452
f 154//453 155//453 152//453
f 229//454 228//454 161//454
f 168//455 162//455 167//455
f 164//456 163//456 171//456
f 163//457 153//457 158//457
f 231//458 165//458 171//458
f 175//459 163//459 174//459
f 170//460 163//460 175//460
f 243//461 247//461 172//461
f 248//462 174//462 173//462
f 250//463 175//463 174//463
f 175//464 249//464 170//464
f 63//465 62//465 194//465
f 181//466 180//466 179//466
f 181//467 176//467 196//467
f 179//468 180//468 72//468
f 182//469 183//469 72//469
f 178//470 183//470 186//470
f 186//471 183//471 185//471
f 195//472 68//472 63//472
f 180//473 187//473 182//473
f 189//474 187//474 180//474
f 187//475 188//475 184//475
f 190//476 75//476 82//476
f 189//477 192//477 187//477
f 76//478 75//478 190//478
f 178//479 186//479 198//479
f 198//480 186//480 197//480
f 194//481 178//481 198//481
f 200//482 195//482 199//482
f 201//483 181//483 196//483
f 201//484 196//484 164//484
f 203//485 188//485 187//485
f 205//486 73//486 223//486
f 191//487 181//487 201//487
f 193//488 76//488 205//488
f 206//489 193//489 205//489
f 208//490 207//490 198//490
f 207//491 199//491 194//491
f 209//492 199//492 207//492
f 214//493 198//493 197//493
f 210//494 209//494 207//494
f 215//495 210//495 216//495
f 211//496 217//496 214//496
f 217//497 218//497 214//497
f 215//498 216//498 219//498
f 224//499 215//499 219//499
f 203//500 220//500 212//500
f 212//501 221//501 217//501
f 221//502 218//502 217//502
f 221//503 219//503 218//503
f 222//504 224//504 219//504
f 73//505 81//505 200//505
f 223//506 73//506 215//506
f 213//507 223//507 224//507
f 226//508 108//508 99//508
f 113//509 239//509 226//509
f 233//510 234//510 235//510
f 237//511 246//511 236//511
f 225//512 237//512 239//512
f 254//513 231//513 110//513
f 233//514 235//514 226//514
f 236//515 233//515 226//515
f 239//516 236//516 226//516
f 240//517 171//517 249//517
f 241//518 168//518 228//518
f 235//519 244//519 232//519
f 234//520 245//520 244//520
f 238//521 246//521 237//521
f 238//522 245//522 246//522
f 231//523 240//523 238//523
f 168//524 243//524 169//524
f 244//525 247//525 243//525
f 245//526 247//526 244//526
f 250//527 247//527 245//527
f 249//528 250//528 238//528
f 253//529 251//529 189//529
f 251//530 192//530 189//530
f 257//531 251//531 253//531
f 265//532 147//532 146//532
f 266//533 149//533 255//533
f 257//534 256//534 148//534
f 148//535 258//535 257//535
f 261//536 268//536 258//536
f 142//537 286//537 271//537
f 150//538 261//538 258//538
f 270//539 261//539 143//539
f 142//540 270//540 143//540
f 263//541 193//541 206//541
f 213//542 263//542 206//542
f 201//543 255//543 191//543
f 264//544 203//544 192//544
f 213//545 252//545 263//545
f 265//546 252//546 213//546
f 264//547 267//547 262//547
f 266//548 255//548 201//548
f 260//549 268//549 267//549
f 266//550 231//550 254//550
f 213//551 205//551 223//551
f 267//552 276//552 262//552
f 273//553 278//553 269//553
f 273//554 274//554 272//554
f 274//555 275//555 282//555
f 286//556 275//556 271//556
f 282//557 286//557 287//557
f 276//558 220//558 203//558
f 276//559 277//559 220//559
f 267//560 278//560 277//560
f 284//561 288//561 280//561
f 272//562 281//562 278//562
f 281//563 279//563 283//563
f 281//564 287//564 288//564
f 282//565 281//565 272//565
f 277//566 283//566 221//566
f 283//567 279//567 222//567
f 222//568 280//568 224//568
f 140//569 147//569 285//569
f 285//570 265//570 213//570
f 288//571 287//571 285//571
f 288//572 285//572 213//572
