# Blender 4.3.2
# www.blender.org
o link2
v -0.048168 -0.034235 0.000083
v -0.048256 -0.030072 -0.016051
v -0.048341 -0.007627 -0.003987
v -0.048203 -0.024434 -0.024030
v -0.048375 -0.014913 -0.030134
v -0.048366 0.000175 -0.061974
v -0.048511 -0.000078 -0.040766
v -0.048112 -0.000623 -0.008409
v -0.048307 -0.033008 -0.008413
v -0.042012 -0.024025 -0.033323
v -0.043666 -0.017319 -0.062002
v -0.042581 -0.019616 -0.047919
v -0.046505 -0.014596 -0.036344
v -0.046910 -0.009703 -0.062115
v -0.045936 -0.007923 -0.062653
v -0.045693 0.008836 -0.062753
v -0.040688 0.005925 -0.060846
v -0.045818 -0.000106 -0.000138
v -0.033295 -0.048551 -0.006427
v -0.033460 -0.041644 -0.025644
v -0.033436 -0.046262 -0.015826
v -0.033171 -0.033454 -0.036895
v -0.033009 -0.031727 -0.009328
v -0.032990 -0.030834 0.009906
v -0.037502 -0.025257 -0.061868
v -0.034323 -0.025512 -0.063008
v -0.028481 -0.031401 -0.061994
v -0.030140 -0.021799 0.012744
v -0.040928 -0.019096 -0.062764
v -0.035276 -0.018104 -0.061078
v -0.028698 -0.048432 0.006995
v -0.028897 -0.043698 -0.022063
v -0.028931 -0.046524 -0.014952
v -0.028863 -0.048217 -0.008438
v -0.029240 -0.041253 -0.016442
v -0.031243 -0.043169 -0.004022
v -0.032180 -0.039066 -0.010059
v -0.028513 -0.047261 -0.005354
v -0.022801 -0.033387 -0.050234
v -0.024614 -0.034165 -0.039091
v -0.028075 -0.036747 -0.031575
v -0.027064 -0.035058 -0.035255
v -0.027380 -0.028724 -0.037081
v -0.028960 -0.039367 -0.028914
v -0.028359 -0.042370 -0.021794
v -0.029093 -0.033874 -0.018618
v -0.033019 -0.029221 -0.047474
v -0.028813 -0.022773 -0.030564
v -0.030418 -0.028692 -0.026472
v -0.028979 -0.024314 -0.017983
v -0.030035 -0.023336 -0.012462
v -0.024348 -0.018326 -0.061121
v -0.024454 -0.022517 -0.039318
v -0.030011 -0.016915 -0.030375
v -0.028539 -0.013258 -0.036396
v -0.029420 0.001236 -0.031267
v -0.030006 -0.008190 -0.000952
v -0.027877 0.002551 -0.061387
v -0.030011 0.016688 -0.029997
v -0.030182 -0.005206 -0.009328
v -0.031831 -0.000209 -0.003156
v -0.017609 -0.034592 -0.061745
v -0.020903 -0.032577 -0.062980
v -0.019608 -0.034068 -0.043104
v -0.017874 -0.021887 -0.062988
v -0.014198 -0.017636 -0.064266
v -0.016913 -0.020938 -0.044302
v -0.023759 -0.011798 -0.042806
v -0.015621 -0.010441 -0.066238
v -0.022092 -0.008953 -0.062618
v -0.019130 -0.009324 -0.045474
v -0.019003 -0.000072 -0.065758
v -0.026104 -0.003799 -0.038170
v -0.024325 0.003746 -0.039973
v 0.003338 -0.033081 -0.062927
v -0.015215 -0.034741 -0.044889
v -0.004310 -0.034575 -0.046438
v -0.004801 -0.018231 -0.066179
v -0.002240 -0.019203 -0.046665
v -0.014825 -0.015183 -0.046622
v -0.013883 -0.006515 -0.049313
v -0.009375 -0.011905 -0.050080
v 0.005282 -0.034477 -0.061874
v 0.000977 -0.023330 -0.064163
v 0.001357 -0.007776 -0.066100
v 0.004052 -0.007052 -0.051083
v -0.007309 -0.000675 -0.065879
v 0.000484 -0.000225 -0.064146
v -0.006642 -0.002351 -0.051575
v -0.000035 -0.000023 -0.053125
v -0.048287 -0.032594 0.010235
v -0.048334 -0.005498 0.007579
v -0.048240 -0.027646 0.020162
v -0.048248 -0.019660 0.028036
v -0.048304 -0.010478 0.032383
v -0.048016 -0.000339 0.034554
v -0.033379 -0.048463 0.006888
v -0.033098 -0.036429 0.010343
v -0.033429 -0.045952 0.016880
v -0.033444 -0.042202 0.024625
v -0.033433 -0.037712 0.031122
v -0.031399 -0.035136 0.024719
v -0.033379 -0.032212 0.036762
v -0.033248 -0.020160 0.028475
v -0.033401 -0.026892 0.040796
v -0.032045 -0.015587 0.024405
v -0.032025 -0.013945 0.039093
v -0.033426 -0.019617 0.044844
v -0.033199 -0.006008 0.034147
v -0.032540 0.001245 0.030639
v -0.033348 -0.009591 0.047998
v -0.032960 0.008058 0.036809
v -0.031453 0.006932 0.042370
v -0.033253 -0.002081 0.048931
v -0.028997 -0.046642 0.014768
v -0.031090 -0.041594 0.012047
v -0.028404 -0.044685 0.016058
v -0.028924 -0.043483 0.022571
v -0.028901 -0.039594 0.028741
v -0.028487 -0.037367 0.029284
v -0.028895 -0.034128 0.035158
v -0.031730 -0.025963 0.033182
v -0.028412 -0.025907 0.039656
v -0.028881 -0.026129 0.041395
v -0.028925 -0.018700 0.045195
v -0.028406 -0.018344 0.043754
v -0.028371 -0.009362 0.046887
v -0.029898 -0.013154 0.007489
v -0.028064 -0.006739 0.005939
v -0.030158 -0.006441 0.024167
v -0.028981 -0.011194 0.047681
v -0.028023 -0.000243 0.011957
v -0.029701 0.000022 0.017349
v -0.030192 0.006720 0.023993
v -0.028510 0.014578 0.046352
v -0.028910 0.000917 0.048890
v -0.048374 0.008278 -0.003380
v -0.048253 0.022294 -0.025696
v -0.048268 0.032129 -0.011519
v -0.048058 0.034407 -0.001474
v -0.046046 0.012742 -0.061771
v -0.038026 0.023551 -0.062837
v -0.046376 0.014361 -0.038116
v -0.042019 0.019815 -0.061928
v -0.037603 0.026079 -0.043774
v -0.043311 0.022192 -0.033369
v -0.048106 0.027935 -0.019963
v -0.035893 0.017156 -0.061084
v -0.036159 0.026423 -0.061887
v -0.025258 0.031409 -0.062995
v -0.033301 0.033695 -0.036391
v -0.033054 0.033583 -0.009900
v -0.032570 0.030304 0.001909
v -0.032875 0.037344 0.010782
v -0.033264 0.041867 -0.025542
v -0.033497 0.046115 -0.016201
v -0.033311 0.048813 -0.004969
v -0.030155 0.007461 -0.007291
v -0.029848 0.007980 0.000506
v -0.023503 0.015835 -0.061172
v -0.027420 0.012626 -0.038614
v -0.024521 0.024876 -0.062981
v -0.028908 0.022717 -0.030285
v -0.026541 0.022892 -0.036192
v -0.029025 0.023128 -0.019300
v -0.030280 0.024137 -0.009530
v -0.029677 0.023648 -0.015702
v -0.029022 0.031094 -0.061823
v -0.032323 0.029531 -0.047105
v -0.023232 0.033293 -0.050003
v -0.029443 0.029228 -0.032548
v -0.024725 0.028565 -0.040052
v -0.030419 0.028521 -0.026408
v -0.018896 0.034454 -0.062078
v -0.022140 0.034305 -0.041336
v -0.028070 0.037152 -0.031575
v -0.025491 0.034046 -0.037912
v -0.027178 0.035376 -0.034917
v -0.028930 0.040789 -0.027018
v -0.028350 0.043155 -0.022229
v -0.029172 0.037982 -0.018405
v -0.031373 0.042577 -0.007214
v -0.028952 0.045533 -0.017818
v -0.028495 0.046550 -0.010495
v -0.028662 0.047653 -0.010791
v -0.028924 0.048733 0.005560
v -0.016233 0.008777 -0.066179
v -0.020581 0.007747 -0.044498
v -0.014370 0.017045 -0.064341
v -0.017749 0.015031 -0.045760
v -0.017661 0.021823 -0.063002
v -0.022669 0.022480 -0.040770
v -0.015560 0.020680 -0.044692
v -0.011516 0.010583 -0.050091
v -0.009832 0.016111 -0.066173
v -0.010653 0.014465 -0.048668
v -0.004281 0.023366 -0.063744
v -0.000742 0.019319 -0.046806
v -0.015487 0.034761 -0.044946
v -0.002314 0.007498 -0.066154
v 0.000293 0.008672 -0.051028
v 0.000674 0.019110 -0.066028
v 0.003933 0.034565 -0.061837
v 0.000462 0.034523 -0.047023
v -0.012426 0.034178 -0.045403
v -0.048348 0.007033 0.005447
v -0.048305 0.013361 0.031502
v -0.048206 0.022986 0.025346
v -0.048174 0.033294 0.008211
v -0.048214 0.029445 0.017634
v -0.033381 0.006326 0.048487
v -0.033505 0.014425 0.046662
v -0.032473 0.032130 0.025079
v -0.031431 0.024416 0.035379
v -0.033323 0.023738 0.042833
v -0.032995 0.029110 0.013822
v -0.033443 0.033795 0.035438
v -0.031620 0.040874 0.011523
v -0.033517 0.045961 0.016759
v -0.033389 0.041305 0.026224
v -0.033498 0.048373 0.007050
v -0.028095 0.006765 0.006161
v -0.028302 0.000556 0.008564
v -0.029815 0.012794 0.006525
v -0.030266 0.017962 0.017967
v -0.028885 0.011102 0.047667
v -0.030244 0.024084 0.006926
v -0.032963 0.018684 0.026007
v -0.028869 0.021138 0.044094
v -0.028393 0.018151 0.043866
v -0.028454 0.027326 0.038692
v -0.028898 0.027771 0.040321
v -0.028518 0.034911 0.031956
v -0.028902 0.038639 0.030017
v -0.028458 0.042448 0.021320
v -0.028814 0.033653 0.035492
v -0.028948 0.046670 0.014654
v -0.028398 0.046736 0.010826
v -0.028931 0.043587 0.022332
v 0.007101 -0.033637 -0.047821
v 0.009287 -0.026939 -0.063047
v 0.009128 -0.016553 -0.066177
v 0.008516 0.001299 -0.051018
v 0.013579 -0.031944 -0.061961
v 0.012016 -0.032649 -0.048873
v 0.017874 -0.028255 -0.062969
v 0.017077 -0.030004 -0.049121
v 0.018359 -0.017816 -0.063074
v 0.016597 -0.018674 -0.049013
v 0.016452 -0.009064 -0.066183
v 0.016233 0.008108 -0.066676
v 0.016449 -0.010731 -0.051058
v 0.020497 -0.028035 -0.061805
v 0.021722 -0.026971 -0.049713
v 0.030541 -0.015576 -0.062768
v 0.025058 -0.008208 -0.064281
v 0.022500 -0.011908 -0.049766
v 0.020087 -0.004796 -0.067792
v 0.020431 0.004498 -0.067800
v 0.022475 0.012884 -0.049729
v 0.027037 -0.021962 -0.061656
v 0.025912 -0.022826 -0.050301
v 0.032233 -0.012570 -0.050959
v 0.029218 -0.018828 -0.050997
v 0.033101 -0.010077 -0.062460
v 0.034462 -0.004445 -0.061953
v 0.034302 -0.005140 -0.051153
v 0.008244 0.002375 -0.066154
v 0.010578 0.015533 -0.066180
v 0.004468 0.033047 -0.062920
v 0.016699 0.011764 -0.050962
v 0.009649 0.020751 -0.064311
v 0.016778 0.018537 -0.049014
v 0.017822 0.027979 -0.062977
v 0.010203 0.033231 -0.048387
v 0.013201 0.032157 -0.061909
v 0.025409 0.007960 -0.064271
v 0.018861 0.011945 -0.064366
v 0.014107 0.024022 -0.063048
v 0.021023 0.027650 -0.061869
v 0.017950 0.029680 -0.049394
v 0.024618 0.024503 -0.050155
v 0.029586 0.015914 -0.062962
v 0.027220 0.021736 -0.061688
v 0.029855 0.017727 -0.050791
v 0.034349 0.005028 -0.061916
v 0.032080 0.013324 -0.061923
v 0.032807 0.011024 -0.051026
vn -0.2805 -0.1336 -0.9505
vn -0.7378 -0.5366 -0.4096
vn -0.0339 -0.9712 -0.2360
vn -0.0075 -0.9678 -0.2515
vn -0.1999 -0.9184 -0.3414
vn -0.4041 -0.9056 -0.1290
vn 0.9702 -0.1065 0.2179
vn 0.0014 0.2522 -0.9677
vn -0.0762 0.3508 -0.9333
vn 0.8801 -0.0053 0.4747
vn -0.1147 -0.9895 -0.0878
vn 0.7215 -0.0046 0.6924
vn 0.0050 -1.0000 -0.0033
vn 0.0021 -0.0013 -1.0000
vn 0.1407 -0.0043 0.9900
vn -0.0778 -0.2248 -0.9713
vn 0.0076 0.0030 -1.0000
vn 0.0027 0.0344 -0.9994
vn 0.1029 0.3323 0.9375
vn -1.0000 -0.0016 0.0011
vn -0.6999 -0.6935 0.1708
vn 0.9658 0.0142 -0.2588
vn 0.0065 -1.0000 0.0066
vn 0.0008 -0.9699 0.2437
vn 0.7992 0.5962 -0.0758
vn 0.8179 0.5057 -0.2746
vn 0.0251 -0.8225 0.5682
vn -0.0559 -0.7145 0.6974
vn -0.0035 -0.6043 0.7968
vn 0.9481 -0.1891 0.2557
vn -0.0466 -0.3144 0.9481
vn 1.0000 0.0026 -0.0019
vn 0.8481 -0.1619 0.5045
vn 0.0780 -0.0995 0.9920
vn -0.9445 -0.1823 0.2734
vn -0.9462 0.1882 -0.2632
vn -0.7249 0.5002 -0.4736
vn 0.7362 -0.2145 0.6419
vn -0.0104 -0.0033 -0.9999
vn 0.9679 0.2514 0.0009
vn 0.9839 0.0204 -0.1775
vn 0.8522 -0.0826 0.5167
vn 0.6346 -0.5076 0.5828
vn 0.9914 -0.1222 0.0476
vn -0.0489 0.9714 -0.2325
vn -0.3476 0.2775 -0.8957
vn -0.1220 0.9875 -0.1000
vn 0.5327 -0.0353 0.8456
vn -0.2452 0.4713 -0.8472
vn -0.0012 -0.0328 -0.9995
vn 0.0024 0.0026 -1.0000
vn -0.0049 1.0000 0.0017
vn 0.1246 0.0043 0.9922
vn -1.0000 -0.0034 0.0025
vn -1.0000 0.0083 -0.0008
vn 0.9985 -0.0391 -0.0387
vn 0.9986 0.0299 0.0436
vn 0.8940 0.1352 0.4272
vn 0.9984 0.0394 -0.0397
vn 1.0000 0.0072 -0.0021
vn 0.0486 0.3274 0.9436
vn 0.9369 0.3496 -0.0009
vn -0.0815 0.5898 0.8034
vn 0.9420 -0.3059 -0.1380
vn 0.9850 0.1192 0.1249
vn 0.8104 -0.5858 0.0014
vn 0.0275 0.9277 0.3724
vn 0.0421 0.8401 0.5408
vn -0.0671 0.9971 0.0355
vn 0.1236 0.0006 0.9923
vn -0.0090 0.0008 -1.0000
vn 0.4634 -0.8861 0.0076
vn 0.2123 -0.5042 -0.8371
vn 0.0075 -0.0105 -0.9999
vn -0.0443 -0.0292 -0.9986
vn -0.0037 -0.0057 1.0000
vn 0.1376 0.0013 0.9905
vn 0.1219 0.0041 0.9925
vn -0.0004 -0.0019 -1.0000
vn 0.0239 0.3318 -0.9430
vn 0.1391 0.0031 0.9903
vn -0.0014 -0.0043 1.0000
vn 0.1326 0.0083 0.9911
vn 0.4188 0.9079 0.0208
vn 0.1537 0.1668 -0.9739
vn 0.3389 0.3294 -0.8813
vn 0.1350 0.0115 0.9908
vn -0.9985 -0.0408 -0.0355
vn -1.0000 -0.0002 -0.0068
vn -1.0000 -0.0053 0.0028
vn -0.9991 0.0409 0.0130
vn -0.6942 -0.6703 -0.2623
vn -0.7118 -0.5714 -0.4085
vn -0.8848 -0.4545 -0.1028
vn -0.7114 -0.4979 -0.4959
vn -0.3540 -0.1495 -0.9232
vn -0.9200 -0.3918 0.0070
vn -0.9314 -0.2176 -0.2917
vn -0.9344 -0.2040 -0.2919
vn -0.4140 -0.0480 -0.9090
vn -0.6999 -0.6963 -0.1591
vn 0.9998 -0.0193 -0.0001
vn -0.4667 -0.3759 -0.8005
vn -0.3423 -0.3188 -0.8839
vn -0.7091 -0.7046 0.0268
vn 0.1958 0.0535 -0.9792
vn 0.0391 -0.8445 -0.5341
vn 0.8434 0.4937 0.2122
vn 0.9706 -0.2331 -0.0603
vn 0.7655 -0.5671 -0.3039
vn 0.9872 0.0266 0.1570
vn 0.9250 0.0904 0.3690
vn -0.1721 -0.3304 -0.9280
vn -0.5626 -0.8251 -0.0520
vn -0.3721 -0.9279 0.0230
vn 0.9562 0.1048 0.2735
vn 0.9590 -0.0700 0.2748
vn 0.9890 0.1186 -0.0885
vn 0.9419 -0.2500 0.2245
vn 0.9177 -0.0372 0.3954
vn 0.8683 -0.2561 0.4249
vn 0.9253 0.1785 0.3347
vn 0.9793 0.1991 0.0373
vn 0.9612 -0.2751 -0.0211
vn 0.8553 -0.1259 0.5026
vn -0.1984 -0.7273 -0.6570
vn -0.2810 -0.9594 -0.0263
vn 0.2901 0.8769 0.3833
vn 0.6113 -0.0029 0.7914
vn -0.2661 -0.0593 -0.9621
vn 0.4459 0.1908 0.8745
vn 0.4347 0.1452 0.8888
vn -0.3369 -0.0689 -0.9390
vn 0.5854 -0.2712 0.7641
vn 0.1615 -0.0221 0.9866
vn 0.1804 0.5560 0.8114
vn -0.2085 -0.2966 -0.9320
vn 0.4208 0.2269 0.8783
vn 0.5037 0.2057 0.8390
vn 0.0136 -0.9998 -0.0108
vn -0.0911 -0.4797 -0.8727
vn 0.0253 0.2497 0.9680
vn 0.0324 0.1156 0.9928
vn 0.0200 0.1490 0.9886
vn -1.0000 -0.0031 0.0020
vn -1.0000 -0.0060 -0.0000
vn -0.7108 -0.4942 0.5004
vn -0.6934 -0.7206 0.0004
vn 0.9524 -0.3046 0.0132
vn -0.7085 -0.5018 0.4962
vn 0.9800 0.1529 -0.1274
vn 0.9996 -0.0174 0.0239
vn 0.9942 -0.0428 0.0984
vn -0.7002 -0.2093 0.6825
vn 0.9798 0.0210 -0.1990
vn 0.9260 -0.3586 0.1182
vn 0.9175 -0.3716 0.1418
vn -0.0708 -0.8438 0.5320
vn 0.9743 -0.1943 0.1136
vn 0.9559 -0.2241 0.1900
vn 0.0246 -0.7610 0.6482
vn 0.9451 -0.3260 0.0238
vn 0.9803 -0.1359 0.1431
vn 0.9547 -0.1841 0.2339
vn 0.9999 0.0102 -0.0121
vn 0.9997 -0.0245 0.0057
vn 0.9809 -0.1626 0.1070
vn 0.8632 0.2398 -0.4444
vn 0.0234 -0.4551 0.8901
vn 0.9612 -0.1321 0.2423
vn 0.9415 -0.1491 0.3022
vn 0.9434 -0.1124 0.3120
vn 0.8498 0.1707 -0.4987
vn 0.9463 0.1353 -0.2937
vn 0.9241 -0.2378 0.2993
vn 0.9960 0.0571 -0.0684
vn 0.8940 0.0455 -0.4458
vn 0.0267 -0.1235 0.9920
vn -0.9993 -0.0361 0.0117
vn -0.9998 -0.0018 -0.0182
vn -0.9834 0.1817 -0.0045
vn -0.6446 0.1312 -0.7532
vn -0.3804 0.1931 -0.9044
vn -0.3962 0.2057 -0.8948
vn -0.8680 0.4950 0.0404
vn -0.8287 0.4892 -0.2719
vn -0.6984 0.5506 -0.4572
vn -0.7047 0.6925 -0.1546
vn -0.7038 0.6399 -0.3086
vn -0.7087 0.6911 -0.1419
vn -0.7472 0.6630 -0.0470
vn -0.2991 0.4692 -0.8309
vn -0.5597 0.8282 -0.0289
vn -0.7578 0.5819 -0.2953
vn 0.9812 -0.1913 0.0263
vn -0.0039 -0.0002 -1.0000
vn 0.9542 -0.0495 0.2950
vn 0.8185 0.2030 0.5375
vn 0.7004 0.1369 0.7005
vn 0.9593 0.0135 0.2821
vn 0.9997 -0.0205 -0.0134
vn 0.0087 -0.1953 -0.9807
vn 0.9212 -0.1623 0.3535
vn 0.9837 -0.1792 0.0172
vn 0.9952 0.0203 0.0957
vn 0.9068 0.2029 0.3694
vn 0.7588 0.1826 0.6252
vn 0.9753 0.1397 0.1711
vn 0.9840 -0.0010 0.1783
vn 0.9583 0.2830 0.0393
vn -0.3972 0.9160 -0.0570
vn -0.2361 0.9113 -0.3374
vn 0.9144 -0.2016 0.3511
vn 0.9711 -0.1866 0.1490
vn 0.6417 0.6539 -0.4008
vn 0.8984 0.0506 0.4363
vn 0.8896 0.4415 -0.1168
vn 0.9890 0.1481 -0.0058
vn 0.9678 0.2516 -0.0011
vn 0.7582 0.0272 0.6514
vn 0.5891 0.0039 0.8080
vn -0.4484 0.1619 -0.8791
vn -0.0945 -0.2056 -0.9741
vn 0.4609 0.0136 0.8873
vn -0.3115 0.2726 -0.9103
vn -0.0791 0.2180 -0.9727
vn 0.1170 -0.2281 0.9666
vn -0.2003 0.9795 0.0223
vn 0.0381 0.0043 -0.9993
vn 0.2233 -0.1687 -0.9600
vn 0.0644 -0.0898 0.9939
vn 0.2996 -0.2343 0.9248
vn 0.0646 -0.3561 0.9322
vn -0.0151 0.3172 -0.9482
vn 0.0058 0.5820 -0.8132
vn -0.9999 0.0106 0.0004
vn -1.0000 0.0060 0.0044
vn -0.9359 -0.0601 -0.3472
vn -0.9513 -0.3056 -0.0403
vn -0.7135 0.1380 0.6869
vn -0.7158 0.1431 0.6835
vn -0.6972 0.3914 0.6006
vn 0.9933 -0.0376 0.1091
vn 0.9990 0.0327 0.0319
vn -0.6959 0.2846 0.6594
vn 0.9986 -0.0389 -0.0358
vn 0.9988 -0.0287 -0.0386
vn 0.9433 -0.3316 -0.0177
vn -0.7140 0.6492 0.2622
vn 0.9304 0.2392 0.2778
vn 0.9926 -0.0712 -0.0984
vn 0.9411 0.0069 0.3382
vn 0.9777 0.0104 0.2098
vn 0.9981 0.0459 -0.0423
vn 0.9269 0.2474 0.2822
vn 0.8766 -0.1796 -0.4463
vn 0.9991 0.0372 0.0226
vn -0.0393 0.3806 0.9239
vn 0.9425 0.2915 0.1634
vn -0.0729 0.7733 0.6299
vn 0.8651 -0.3555 -0.3538
vn 0.8437 -0.4403 -0.3072
vn 0.0104 0.6344 0.7729
vn 0.0147 0.7394 0.6731
vn 0.9739 0.1753 0.1440
vn 0.0020 0.9705 0.2411
vn 0.8494 -0.4902 -0.1955
vn 0.8233 0.5530 0.1277
vn -0.0730 0.8945 0.4410
vn 0.9494 0.2921 0.1152
vn -0.0008 0.0080 -1.0000
vn -0.2561 0.1295 0.9579
vn 0.1345 -0.4704 -0.8721
vn 0.2036 -0.9785 0.0322
vn 0.2918 -0.9563 -0.0167
vn 0.0053 -0.0247 -0.9997
vn 0.1299 -0.3991 -0.9076
vn 0.2716 -0.4397 0.8561
vn 0.1306 -0.0039 0.9914
vn -0.0020 0.0011 -1.0000
vn 0.4920 -0.8706 -0.0025
vn 0.1291 -0.0040 0.9916
vn 0.2336 -0.2798 -0.9312
vn 0.2337 -0.5110 -0.8272
vn -0.2092 -0.0017 0.9779
vn 0.6805 -0.7327 -0.0045
vn 0.1298 -0.0164 0.9914
vn 0.4517 -0.2230 0.8638
vn 0.8764 -0.4815 -0.0030
vn 0.1215 -0.0013 0.9926
vn 0.9069 -0.4208 -0.0228
vn 0.9720 -0.2349 -0.0007
vn 0.9634 -0.2678 0.0146
vn -0.1445 -0.2977 -0.9437
vn -0.2007 -0.2225 0.9540
vn -0.0019 -0.0039 -1.0000
vn 0.0359 0.0525 -0.9980
vn 0.1362 0.9901 0.0347
vn -0.0730 0.0110 -0.9973
vn 0.0412 -0.2766 0.9601
vn 0.1451 0.3926 -0.9082
vn 0.2512 0.9677 -0.0211
vn 0.2246 0.5181 -0.8253
vn 0.1047 0.1486 -0.9833
vn 0.1283 0.0218 0.9915
vn 0.3420 0.3314 -0.8793
vn 0.6791 0.4094 -0.6093
vn 0.8653 0.5006 -0.0251
vn 0.6906 0.7230 -0.0176
vn 0.2460 0.0145 -0.9692
vn 0.1245 -0.0002 0.9922
vn 0.9998 0.0119 0.0156
vn 0.4977 0.1355 -0.8567
vn 0.9152 0.4022 0.0238
vn 0.9645 0.2639 -0.0087
vn -1.0000 -0.0069 0.0032
vn -0.6873 -0.5436 -0.4818
vn 0.2629 0.1274 -0.9564
vn -0.8664 -0.4929 -0.0799
vn -0.2746 -0.0018 -0.9616
vn -0.9893 -0.1457 -0.0085
vn -0.9901 -0.1402 -0.0110
vn -0.9491 0.1898 0.2514
vn -0.7107 -0.6978 -0.0891
vn -0.7136 -0.6346 -0.2967
vn 0.9935 0.1092 0.0306
vn -0.3310 -0.4693 -0.8187
vn -0.6924 -0.6978 -0.1838
vn -0.7517 -0.6085 -0.2543
vn 0.2307 0.2730 -0.9340
vn -0.7889 -0.6133 -0.0392
vn 0.0685 -0.9975 -0.0146
vn 0.9192 -0.3289 -0.2164
vn -0.0732 -0.9025 -0.4244
vn 0.0176 -0.9292 -0.3692
vn 0.9275 -0.3489 -0.1342
vn 0.8370 0.5042 0.2127
vn 0.9825 -0.1773 -0.0565
vn 0.9516 0.2919 0.0958
vn 0.9531 -0.3024 -0.0144
vn -0.0605 -0.8170 -0.5734
vn -0.1419 -0.9183 -0.3695
vn -0.0190 -0.8081 -0.5887
vn 0.9710 0.1939 0.1396
vn 0.9146 0.0635 0.3994
vn 0.9366 0.1394 0.3215
vn 0.8036 0.2015 0.5600
vn 0.9860 -0.0007 -0.1668
vn 0.8653 0.2435 0.4380
vn 0.9357 0.3318 0.1202
vn 0.9740 -0.0206 0.2256
vn 0.7761 0.1490 0.6127
vn 0.8084 -0.0993 0.5802
vn 1.0000 0.0074 0.0040
vn 0.9687 0.2395 0.0649
vn 0.0015 -0.0011 -1.0000
vn 0.6248 0.0293 0.7802
vn 0.5565 -0.0385 0.8299
vn -0.3144 -0.0755 -0.9463
vn -0.5175 -0.3198 -0.7937
vn 0.5002 0.2384 0.8324
vn -0.5061 -0.1256 -0.8532
vn -0.4712 -0.1438 -0.8702
vn -0.0022 -0.5253 -0.8509
vn -0.0110 -0.6118 -0.7909
vn -0.1879 -0.9820 0.0180
vn 0.3773 0.0070 0.9260
vn -0.2000 -0.5478 -0.8123
vn 0.1108 0.3368 0.9350
vn -0.0049 -0.0147 -0.9999
vn 0.1946 0.2668 -0.9439
vn 0.2564 0.0774 0.9635
vn -0.9958 -0.0915 0.0031
vn -1.0000 -0.0012 0.0054
vn -1.0000 -0.0015 0.0009
vn -0.7121 -0.6270 0.3159
vn -0.9360 0.3463 -0.0631
vn -0.7139 -0.6925 0.1036
vn -0.7085 -0.6357 0.3064
vn 0.9706 0.2403 0.0126
vn 0.9376 0.3185 -0.1394
vn -0.7001 -0.5869 0.4067
vn 0.9796 0.1534 -0.1295
vn -0.6994 -0.4337 0.5681
vn 0.9777 0.1114 -0.1778
vn -0.7028 -0.3478 0.6206
vn 0.9727 -0.0550 0.2255
vn 0.9877 0.0552 -0.1460
vn -0.7144 -0.3029 0.6308
vn -0.7127 -0.1275 0.6898
vn -0.7003 -0.0792 0.7095
vn 0.9359 0.3496 -0.0432
vn -0.0454 -0.9739 0.2225
vn 0.8205 0.5681 -0.0635
vn 0.9957 -0.0928 0.0061
vn -0.0569 -0.8986 0.4351
vn 0.0345 -0.9265 0.3748
vn 0.8583 0.4653 -0.2162
vn 0.9686 -0.2118 0.1300
vn 0.8549 0.3681 -0.3656
vn 0.8222 0.3790 -0.4246
vn 0.0193 -0.6148 0.7885
vn 0.8598 -0.3788 0.3423
vn -0.0337 -0.4861 0.8733
vn 0.8633 0.2398 -0.4440
vn 0.9988 -0.0357 -0.0337
vn 0.9293 -0.3130 -0.1959
vn 0.9997 -0.0221 0.0096
vn -0.0132 -0.3000 0.9539
vn 0.9063 -0.1268 0.4031
vn 0.9455 0.1370 -0.2952
vn 0.9495 -0.2165 0.2272
vn 0.9919 -0.0449 0.1185
vn 0.8512 -0.0571 0.5217
vn -0.9999 0.0107 0.0013
vn -0.9998 0.0193 0.0067
vn 0.3506 -0.0107 -0.9365
vn 0.2753 -0.1488 -0.9498
vn 0.3118 -0.1530 -0.9377
vn -0.9883 0.1506 -0.0241
vn -0.8111 0.5826 -0.0512
vn -0.7093 0.6258 -0.3243
vn -0.0473 -0.0010 -0.9989
vn -0.6556 0.5844 -0.4782
vn -0.5386 0.8424 0.0192
vn -0.6897 0.5428 -0.4793
vn -0.7402 0.5383 -0.4030
vn 0.9973 0.0702 -0.0214
vn -0.0877 -0.0275 -0.9958
vn 0.8707 -0.0897 0.4836
vn 1.0000 -0.0001 0.0082
vn 0.9740 -0.2254 -0.0233
vn -0.0051 0.0179 -0.9998
vn 0.9992 -0.0086 0.0402
vn -0.0361 -0.2753 -0.9607
vn 0.9192 -0.1508 0.3639
vn 0.8368 -0.4998 0.2237
vn -0.2982 0.4669 -0.8325
vn -0.5472 0.8363 -0.0339
vn -0.3787 0.9254 0.0134
vn 0.8380 -0.1022 0.5359
vn 0.8468 0.0861 0.5248
vn 0.9563 0.2836 0.0710
vn -0.2581 0.7299 -0.6329
vn -0.3153 0.9487 -0.0220
vn -0.1190 0.8633 -0.4905
vn -0.1621 0.9147 -0.3702
vn 0.7108 -0.1673 0.6832
vn 0.0261 0.7984 -0.6016
vn 0.9751 -0.1763 0.1347
vn -0.0191 0.7797 -0.6259
vn 0.9893 -0.1447 0.0168
vn 0.9223 -0.2583 0.2874
vn -0.0309 0.9096 -0.4144
vn 0.0690 0.8910 -0.4486
vn 0.0820 0.8819 -0.4643
vn 0.8730 -0.3663 0.3221
vn 0.0196 0.9570 -0.2896
vn 0.9886 0.1282 -0.0794
vn 0.1673 0.9839 -0.0623
vn -0.1452 -0.0016 -0.9894
vn -0.4191 0.0882 -0.9037
vn 0.6072 -0.0995 0.7883
vn -0.3318 0.0355 -0.9427
vn 0.6093 -0.1223 0.7834
vn 0.3955 -0.3163 0.8623
vn -0.0042 -0.0026 -1.0000
vn 0.4945 0.0647 0.8668
vn 0.4778 -0.0187 0.8783
vn 0.5384 -0.0638 0.8403
vn 0.3228 -0.3882 0.8632
vn 0.2195 -0.7064 0.6730
vn 0.1508 0.0171 0.9884
vn 0.2969 0.0024 0.9549
vn 0.0018 -0.0007 -1.0000
vn -0.0962 0.3815 -0.9194
vn -0.0719 0.1489 -0.9862
vn 0.1429 0.0189 0.9896
vn 0.0123 0.9997 -0.0204
vn 0.1268 -0.1069 0.9861
vn -1.0000 -0.0008 0.0019
vn -1.0000 -0.0000 0.0012
vn -0.9936 0.0041 0.1126
vn -1.0000 0.0036 0.0040
vn -0.9954 0.0960 -0.0010
vn -0.7072 0.5416 0.4544
vn -0.6958 0.0273 0.7178
vn 0.9529 -0.1137 -0.2812
vn 0.9780 -0.1071 -0.1792
vn -0.7136 0.4095 0.5684
vn 0.9994 -0.0014 0.0355
vn -0.7023 0.5538 0.4473
vn -0.6968 0.7171 0.0154
vn -0.6770 0.7321 0.0759
vn -0.7310 0.6625 0.1632
vn -0.6983 0.6385 0.3235
vn 0.9541 -0.1055 -0.2804
vn 0.9334 -0.1562 -0.3231
vn 0.8117 -0.0084 -0.5840
vn -0.0267 0.0523 0.9983
vn 0.9249 0.0431 0.3777
vn 0.9323 0.2799 -0.2290
vn 0.9992 0.0306 0.0256
vn 0.9392 0.1670 0.3001
vn -0.0546 0.2187 0.9743
vn 0.9371 -0.2195 -0.2713
vn 0.0545 0.1189 0.9914
vn 0.9054 0.3238 0.2747
vn 0.0475 0.3490 0.9359
vn 0.8227 -0.2751 -0.4975
vn 0.9614 0.1351 0.2396
vn 0.9135 0.4002 0.0727
vn 0.9622 0.1644 0.2170
vn 0.0426 0.4941 0.8684
vn 0.9649 0.1340 0.2261
vn 0.9632 0.1360 0.2318
vn 0.9788 0.1643 0.1219
vn 0.8288 -0.3676 -0.4218
vn 0.8742 -0.4844 -0.0325
vn -0.0495 0.9741 0.2208
vn 0.8806 -0.4216 -0.2165
vn 0.9339 0.3290 0.1397
vn 0.9539 0.2541 0.1600
vn 0.0877 -0.9950 0.0481
vn 0.1204 -0.0016 0.9927
vn 0.0397 -0.3282 -0.9438
vn 0.0937 0.4956 0.8635
vn -0.3089 0.2046 -0.9288
vn 0.0921 -0.0945 -0.9913
vn 0.2737 -0.2684 -0.9236
vn 0.3627 -0.6138 -0.7013
vn 0.5483 -0.8361 0.0180
vn 0.0272 -0.0114 -0.9996
vn -0.1570 0.2435 0.9571
vn -0.3737 -0.0314 -0.9270
vn 0.5668 -0.0217 -0.8236
vn 0.3986 -0.4091 -0.8208
vn 0.3641 -0.3501 -0.8630
vn 0.7043 -0.7097 0.0157
vn 0.7728 -0.6340 0.0283
vn 0.0545 -0.1617 -0.9853
vn 0.2110 -0.0434 -0.9765
vn 0.8995 -0.4332 -0.0567
vn 0.5839 -0.0122 -0.8117
vn 0.2199 -0.0042 -0.9755
vn 0.0397 -0.2315 0.9720
vn 0.0009 0.0450 -0.9990
vn 0.0650 0.5296 -0.8458
vn 0.1132 0.3528 -0.9288
vn 0.0858 -0.5047 0.8590
vn -0.0035 -0.0026 1.0000
vn 0.4147 0.3713 -0.8307
vn 0.3075 0.3272 -0.8935
vn 0.0018 0.0161 -0.9999
vn 0.1521 0.6089 -0.7785
vn -0.2518 0.0085 -0.9677
vn -0.2085 -0.0019 0.9780
vn 0.2407 0.3742 -0.8955
vn 0.0100 0.0085 -0.9999
vn -0.1503 -0.2716 0.9506
vn 0.1356 0.0114 0.9907
vn 0.3228 0.5532 -0.7680
vn 0.1259 0.0205 0.9918
vn 0.4993 0.8663 -0.0180
vn 0.1290 0.0202 0.9914
vn 0.6148 0.7883 0.0232
vn 0.0712 0.1255 -0.9895
vn 0.7923 0.6093 0.0326
vn 0.2683 0.0177 -0.9632
vn 0.3210 0.0075 -0.9470
vn 0.0912 0.0006 0.9958
vn 0.9917 0.0910 0.0903
s 0
f 14//1 15//1 11//1
f 10//2 22//2 20//2
f 34//3 19//3 21//3
f 34//4 21//4 33//4
f 40//5 42//5 47//5
f 40//6 47//6 39//6
f 41//7 44//7 42//7
f 30//8 52//8 26//8
f 52//9 65//9 26//9
f 59//10 54//10 56//10
f 76//11 40//11 39//11
f 71//12 74//12 73//12
f 77//13 62//13 83//13
f 65//14 75//14 63//14
f 79//15 76//15 77//15
f 66//16 84//16 65//16
f 69//17 85//17 78//17
f 69//18 87//18 85//18
f 90//19 89//19 86//19
f 92//20 9//20 91//20
f 99//21 91//21 97//21
f 112//22 113//22 107//22
f 31//23 97//23 19//23
f 31//24 99//24 97//24
f 38//25 116//25 117//25
f 117//26 102//26 120//26
f 118//27 101//27 100//27
f 121//28 103//28 101//28
f 124//29 105//29 103//29
f 28//30 130//30 106//30
f 131//31 111//31 125//31
f 28//32 134//32 130//32
f 130//33 110//33 106//33
f 136//34 114//34 131//34
f 137//35 8//35 18//35
f 138//36 143//36 7//36
f 147//37 146//37 138//37
f 161//38 192//38 164//38
f 142//39 150//39 162//39
f 163//40 173//40 165//40
f 173//41 181//41 165//41
f 177//42 178//42 172//42
f 178//43 177//43 175//43
f 180//44 184//44 181//44
f 157//45 185//45 156//45
f 160//46 189//46 187//46
f 175//47 199//47 170//47
f 194//48 188//48 81//48
f 189//49 197//49 195//49
f 187//50 200//50 87//50
f 150//51 270//51 191//51
f 174//52 204//52 203//52
f 204//53 205//53 198//53
f 207//54 137//54 206//54
f 209//55 137//55 210//55
f 228//56 213//56 112//56
f 225//57 134//57 133//57
f 110//58 134//58 228//58
f 158//59 227//59 224//59
f 166//60 227//60 158//60
f 229//61 212//61 135//61
f 166//62 153//62 227//62
f 215//63 232//63 217//63
f 154//64 218//64 213//64
f 233//65 236//65 231//65
f 184//66 238//66 182//66
f 219//67 239//67 237//67
f 220//68 234//68 239//68
f 221//69 186//69 157//69
f 249//70 79//70 240//70
f 85//71 268//71 242//71
f 247//72 245//72 244//72
f 242//73 248//73 84//73
f 241//74 248//74 246//74
f 268//75 251//75 250//75
f 243//76 86//76 252//76
f 249//77 254//77 262//77
f 263//78 257//78 249//78
f 195//79 269//79 268//79
f 197//80 279//80 272//80
f 275//81 204//81 198//81
f 271//82 243//82 252//82
f 281//83 275//83 198//83
f 275//84 281//84 276//84
f 272//85 279//85 278//85
f 274//86 280//86 283//86
f 285//87 282//87 260//87
f 5//88 4//88 2//88
f 2//89 9//89 3//89
f 5//90 2//90 3//90
f 7//91 3//91 8//91
f 2//92 20//92 9//92
f 4//93 20//93 2//93
f 13//94 12//94 10//94
f 4//95 13//95 10//95
f 15//96 29//96 11//96
f 14//97 11//97 12//97
f 5//98 7//98 13//98
f 5//99 13//99 4//99
f 6//100 15//100 14//100
f 9//101 21//101 19//101
f 24//102 98//102 23//102
f 29//103 25//103 11//103
f 29//104 26//104 25//104
f 25//105 47//105 12//105
f 30//106 15//106 17//106
f 20//107 44//107 32//107
f 36//108 38//108 35//108
f 38//109 33//109 45//109
f 45//110 44//110 41//110
f 46//111 35//111 45//111
f 23//112 35//112 46//112
f 26//113 63//113 27//113
f 47//114 25//114 27//114
f 47//115 27//115 39//115
f 43//116 49//116 41//116
f 49//117 43//117 48//117
f 46//118 45//118 49//118
f 51//119 23//119 50//119
f 50//120 23//120 46//120
f 53//121 48//121 43//121
f 54//122 48//122 55//122
f 54//123 50//123 48//123
f 50//124 49//124 48//124
f 73//125 56//125 55//125
f 63//126 62//126 27//126
f 39//127 27//127 62//127
f 40//128 76//128 64//128
f 43//129 64//129 53//129
f 66//130 65//130 70//130
f 80//131 68//131 67//131
f 71//132 68//132 80//132
f 70//133 52//133 58//133
f 68//134 71//134 73//134
f 67//135 76//135 79//135
f 82//136 80//136 79//136
f 69//137 78//137 66//137
f 81//138 80//138 82//138
f 81//139 71//139 80//139
f 76//140 62//140 77//140
f 84//141 241//141 65//141
f 252//142 82//142 249//142
f 82//143 252//143 86//143
f 89//144 82//144 86//144
f 92//145 93//145 94//145
f 92//146 94//146 95//146
f 94//147 93//147 103//147
f 97//148 1//148 19//148
f 28//149 24//149 23//149
f 103//150 93//150 101//150
f 104//151 122//151 102//151
f 104//152 98//152 24//152
f 110//153 109//153 104//153
f 95//154 108//154 111//154
f 112//155 107//155 109//155
f 117//156 115//156 31//156
f 117//157 118//157 115//157
f 119//158 101//158 118//158
f 120//159 118//159 117//159
f 120//160 121//160 119//160
f 101//161 119//161 121//161
f 51//162 28//162 23//162
f 123//163 121//163 120//163
f 123//164 124//164 121//164
f 128//165 51//165 60//165
f 128//166 28//166 51//166
f 104//167 24//167 106//167
f 123//168 122//168 107//168
f 108//169 124//169 125//169
f 124//170 123//170 126//170
f 126//171 125//171 124//171
f 127//172 125//172 126//172
f 127//173 126//173 107//173
f 61//174 223//174 57//174
f 133//175 128//175 132//175
f 132//176 129//176 223//176
f 113//177 127//177 107//177
f 111//178 131//178 114//178
f 137//179 7//179 8//179
f 147//180 137//180 139//180
f 7//181 141//181 6//181
f 141//182 16//182 6//182
f 142//183 16//183 141//183
f 144//184 142//184 141//184
f 144//185 141//185 145//185
f 145//186 143//186 146//186
f 146//187 143//187 138//187
f 157//188 156//188 139//188
f 155//189 139//189 156//189
f 139//190 140//190 157//190
f 145//191 149//191 144//191
f 149//192 150//192 142//192
f 169//193 149//193 145//193
f 151//194 169//194 146//194
f 182//195 154//195 152//195
f 148//196 52//196 30//196
f 158//197 61//197 60//197
f 161//198 56//198 74//198
f 161//199 74//199 188//199
f 161//200 59//200 56//200
f 167//201 60//201 59//201
f 162//202 160//202 142//202
f 164//203 59//203 161//203
f 165//204 59//204 163//204
f 166//205 158//205 167//205
f 163//206 164//206 171//206
f 172//207 164//207 192//207
f 171//208 173//208 163//208
f 181//209 167//209 165//209
f 153//210 166//210 152//210
f 175//211 170//211 169//211
f 178//212 175//212 169//212
f 176//213 171//213 178//213
f 176//214 180//214 171//214
f 179//215 180//215 176//215
f 152//216 167//216 181//216
f 183//217 184//217 180//217
f 238//218 184//218 185//218
f 186//219 238//219 185//219
f 74//220 71//220 188//220
f 188//221 71//221 81//221
f 160//222 187//222 58//222
f 191//223 160//223 162//223
f 199//224 172//224 193//224
f 195//225 187//225 189//225
f 191//226 197//226 189//226
f 193//227 190//227 198//227
f 199//228 174//228 170//228
f 87//229 69//229 187//229
f 200//230 88//230 87//230
f 194//231 89//231 201//231
f 89//232 90//232 201//232
f 196//233 194//233 273//233
f 270//234 150//234 174//234
f 203//235 270//235 174//235
f 137//236 207//236 208//236
f 209//237 139//237 137//237
f 206//238 18//238 92//238
f 137//239 18//239 206//239
f 207//240 96//240 212//240
f 212//241 96//241 211//241
f 207//242 217//242 208//242
f 112//243 109//243 110//243
f 228//244 112//244 110//244
f 215//245 207//245 212//245
f 213//246 228//246 216//246
f 213//247 216//247 154//247
f 218//248 154//248 182//248
f 219//249 209//249 210//249
f 133//250 132//250 222//250
f 222//251 132//251 223//251
f 134//252 110//252 130//252
f 135//253 136//253 127//253
f 158//254 224//254 159//254
f 224//255 133//255 222//255
f 113//256 214//256 230//256
f 225//257 224//257 227//257
f 215//258 212//258 229//258
f 216//259 225//259 227//259
f 234//260 220//260 217//260
f 214//261 213//261 233//261
f 233//262 213//262 235//262
f 236//263 217//263 232//263
f 234//264 217//264 236//264
f 236//265 233//265 234//265
f 219//266 186//266 221//266
f 235//267 218//267 238//267
f 238//268 186//268 237//268
f 220//269 239//269 219//269
f 239//270 235//270 237//270
f 242//271 78//271 85//271
f 90//272 86//272 243//272
f 244//273 83//273 75//273
f 245//274 240//274 83//274
f 245//275 83//275 244//275
f 241//276 246//276 75//276
f 246//277 244//277 75//277
f 247//278 240//278 245//278
f 240//279 247//279 249//279
f 268//280 250//280 242//280
f 247//281 244//281 253//281
f 249//282 247//282 254//282
f 256//283 248//283 250//283
f 250//284 258//284 256//284
f 260//285 252//285 257//285
f 253//286 261//286 254//286
f 249//287 262//287 263//287
f 263//288 262//288 264//288
f 263//289 261//289 255//289
f 257//290 263//290 260//290
f 263//291 255//291 265//291
f 267//292 265//292 266//292
f 267//293 263//293 265//293
f 268//294 88//294 200//294
f 201//295 90//295 243//295
f 268//296 200//296 195//296
f 279//297 197//297 270//297
f 275//298 203//298 204//298
f 269//299 251//299 268//299
f 194//300 271//300 273//300
f 276//301 274//301 270//301
f 275//302 276//302 203//302
f 277//303 259//303 251//303
f 279//304 277//304 278//304
f 285//305 260//305 288//305
f 284//306 283//306 280//306
f 287//307 283//307 284//307
f 284//308 285//308 287//308
f 282//309 284//309 280//309
f 286//310 265//310 283//310
f 260//311 263//311 288//311
f 267//312 266//312 286//312
f 287//313 286//313 283//313
f 288//314 287//314 285//314
f 288//315 286//315 287//315
f 7//316 5//316 3//316
f 4//317 10//317 20//317
f 15//318 30//318 29//318
f 13//319 14//319 12//319
f 6//320 16//320 15//320
f 7//321 6//321 14//321
f 7//322 14//322 13//322
f 18//323 8//323 3//323
f 1//324 9//324 19//324
f 9//325 20//325 21//325
f 23//326 98//326 37//326
f 26//327 27//327 25//327
f 47//328 10//328 12//328
f 22//329 10//329 47//329
f 29//330 30//330 26//330
f 12//331 11//331 25//331
f 34//332 31//332 19//332
f 45//333 32//333 44//333
f 21//334 20//334 32//334
f 33//335 21//335 32//335
f 45//336 33//336 32//336
f 37//337 36//337 35//337
f 38//338 34//338 33//338
f 35//339 38//339 45//339
f 38//340 31//340 34//340
f 42//341 44//341 22//341
f 42//342 22//342 47//342
f 22//343 44//343 20//343
f 49//344 45//344 41//344
f 23//345 37//345 35//345
f 43//346 41//346 42//346
f 43//347 42//347 40//347
f 50//348 46//348 49//348
f 55//349 48//349 53//349
f 54//350 51//350 50//350
f 55//351 56//351 54//351
f 68//352 55//352 53//352
f 73//353 55//353 68//353
f 60//354 51//354 54//354
f 60//355 61//355 57//355
f 26//356 65//356 63//356
f 64//357 43//357 40//357
f 67//358 53//358 64//358
f 70//359 65//359 52//359
f 70//360 69//360 66//360
f 68//361 53//361 67//361
f 72//362 69//362 70//362
f 72//363 70//363 58//363
f 63//364 83//364 62//364
f 63//365 75//365 83//365
f 76//366 39//366 62//366
f 67//367 64//367 76//367
f 78//368 84//368 66//368
f 79//369 80//369 67//369
f 241//370 75//370 65//370
f 87//371 88//371 85//371
f 89//372 81//372 82//372
f 91//373 9//373 1//373
f 93//374 92//374 91//374
f 3//375 9//375 92//375
f 93//376 91//376 100//376
f 18//377 3//377 92//377
f 91//378 1//378 97//378
f 99//379 100//379 91//379
f 98//380 36//380 37//380
f 98//381 102//381 116//381
f 93//382 100//382 101//382
f 104//383 102//383 98//383
f 94//384 103//384 105//384
f 107//385 122//385 104//385
f 94//386 105//386 108//386
f 110//387 104//387 106//387
f 104//388 109//388 107//388
f 95//389 94//389 108//389
f 96//390 95//390 111//390
f 114//391 96//391 111//391
f 36//392 98//392 116//392
f 115//393 99//393 31//393
f 116//394 38//394 36//394
f 38//395 117//395 31//395
f 100//396 99//396 118//396
f 118//397 99//397 115//397
f 102//398 117//398 116//398
f 120//399 119//399 118//399
f 122//400 120//400 102//400
f 122//401 123//401 120//401
f 121//402 124//402 103//402
f 28//403 106//403 24//403
f 108//404 105//404 124//404
f 107//405 126//405 123//405
f 57//406 128//406 60//406
f 57//407 129//407 128//407
f 128//408 133//408 28//408
f 125//409 111//409 108//409
f 127//410 131//410 125//410
f 223//411 129//411 57//411
f 129//412 132//412 128//412
f 133//413 134//413 28//413
f 127//414 136//414 131//414
f 138//415 7//415 137//415
f 137//416 147//416 138//416
f 16//417 17//417 15//417
f 142//418 17//418 16//418
f 142//419 148//419 17//419
f 143//420 141//420 7//420
f 145//421 141//421 143//421
f 139//422 155//422 147//422
f 17//423 148//423 30//423
f 144//424 149//424 142//424
f 169//425 145//425 146//425
f 155//426 146//426 147//426
f 155//427 151//427 146//427
f 154//428 153//428 152//428
f 148//429 58//429 52//429
f 56//430 73//430 74//430
f 59//431 60//431 54//431
f 159//432 61//432 158//432
f 148//433 160//433 58//433
f 167//434 158//434 60//434
f 142//435 160//435 148//435
f 164//436 163//436 59//436
f 165//437 167//437 59//437
f 149//438 168//438 150//438
f 169//439 168//439 149//439
f 169//440 170//440 168//440
f 172//441 178//441 171//441
f 172//442 171//442 164//442
f 152//443 166//443 167//443
f 168//444 174//444 150//444
f 170//445 174//445 168//445
f 176//446 178//446 151//446
f 178//447 169//447 151//447
f 175//448 177//448 172//448
f 176//449 151//449 155//449
f 180//450 173//450 171//450
f 179//451 176//451 155//451
f 180//452 181//452 173//452
f 181//453 182//453 152//453
f 156//454 183//454 155//454
f 180//455 179//455 155//455
f 183//456 180//456 155//456
f 184//457 182//457 181//457
f 185//458 183//458 156//458
f 183//459 185//459 184//459
f 186//460 185//460 157//460
f 187//461 69//461 72//461
f 58//462 187//462 72//462
f 190//463 161//463 188//463
f 191//464 189//464 160//464
f 190//465 192//465 161//465
f 193//466 192//466 190//466
f 150//467 191//467 162//467
f 172//468 192//468 193//468
f 199//469 175//469 172//469
f 190//470 188//470 194//470
f 196//471 190//471 194//471
f 198//472 190//472 196//472
f 205//473 199//473 193//473
f 194//474 81//474 89//474
f 187//475 195//475 200//475
f 197//476 202//476 195//476
f 191//477 270//477 197//477
f 205//478 193//478 198//478
f 199//479 204//479 174//479
f 205//480 204//480 199//480
f 207//481 206//481 92//481
f 207//482 92//482 95//482
f 207//483 95//483 96//483
f 210//484 137//484 208//484
f 140//485 139//485 209//485
f 208//486 217//486 210//486
f 114//487 211//487 96//487
f 112//488 214//488 113//488
f 213//489 214//489 112//489
f 215//490 217//490 207//490
f 154//491 216//491 153//491
f 217//492 220//492 210//492
f 221//493 157//493 140//493
f 209//494 219//494 140//494
f 219//495 221//495 140//495
f 220//496 219//496 210//496
f 159//497 223//497 61//497
f 159//498 222//498 223//498
f 113//499 135//499 127//499
f 211//500 114//500 136//500
f 226//501 136//501 135//501
f 224//502 222//502 159//502
f 225//503 133//503 224//503
f 228//504 134//504 225//504
f 212//505 211//505 226//505
f 230//506 135//506 113//506
f 226//507 211//507 136//507
f 228//508 225//508 216//508
f 212//509 226//509 135//509
f 231//510 230//510 214//510
f 229//511 135//511 230//511
f 216//512 227//512 153//512
f 236//513 232//513 231//513
f 232//514 215//514 229//514
f 231//515 232//515 230//515
f 232//516 229//516 230//516
f 235//517 234//517 233//517
f 233//518 231//518 214//518
f 218//519 182//519 238//519
f 219//520 237//520 186//520
f 218//521 235//521 213//521
f 238//522 237//522 235//522
f 239//523 234//523 235//523
f 77//524 83//524 240//524
f 240//525 79//525 77//525
f 78//526 242//526 84//526
f 249//527 82//527 79//527
f 88//528 268//528 85//528
f 84//529 248//529 241//529
f 242//530 250//530 248//530
f 246//531 253//531 244//531
f 247//532 253//532 254//532
f 248//533 255//533 246//533
f 252//534 249//534 257//534
f 251//535 258//535 250//535
f 258//536 259//536 256//536
f 246//537 261//537 253//537
f 255//538 261//538 246//538
f 262//539 254//539 261//539
f 264//540 262//540 261//540
f 256//541 255//541 248//541
f 256//542 265//542 255//542
f 263//543 264//543 261//543
f 259//544 277//544 256//544
f 277//545 265//545 256//545
f 194//546 201//546 271//546
f 202//547 269//547 195//547
f 197//548 272//548 202//548
f 202//549 272//549 269//549
f 198//550 196//550 273//550
f 271//551 201//551 243//551
f 272//552 251//552 269//552
f 272//553 278//553 251//553
f 270//554 274//554 279//554
f 203//555 276//555 270//555
f 259//556 258//556 251//556
f 271//557 252//557 260//557
f 251//558 278//558 277//558
f 274//559 283//559 279//559
f 260//560 273//560 271//560
f 282//561 273//561 260//561
f 276//562 280//562 274//562
f 281//563 198//563 273//563
f 276//564 281//564 280//564
f 282//565 281//565 273//565
f 281//566 282//566 280//566
f 279//567 283//567 277//567
f 285//568 284//568 282//568
f 283//569 265//569 277//569
f 286//570 266//570 265//570
f 267//571 288//571 263//571
f 286//572 288//572 267//572
