# Blender 4.3.2
# www.blender.org
mtllib link5_01.mtl
o link5_01
v -0.014953 -0.009046 -0.005500
v -0.014920 -0.009141 0.000000
v -0.014916 0.009296 -0.005500
v -0.014920 0.009141 -0.000000
v 0.020484 0.005363 0.000700
v 0.020499 0.005373 -0.005500
v -0.012841 -0.011933 -0.005500
v -0.011972 -0.012853 0.000000
v -0.009580 -0.014670 -0.005500
v -0.007811 -0.015702 0.000000
v -0.004751 -0.016920 -0.005500
v -0.003591 -0.017180 0.000000
v 0.000620 -0.017519 -0.005500
v 0.002372 -0.017441 0.000000
v 0.004823 -0.016844 -0.005500
v 0.007335 -0.015930 0.000000
v 0.009686 -0.014664 -0.005500
v 0.011580 -0.013207 0.000000
v 0.014283 -0.010226 -0.005500
v 0.014641 -0.009580 0.000000
v -0.006531 -0.016236 0.000000
v -0.004499 -0.016912 0.000000
v -0.006673 -0.009050 0.000000
v 0.014515 0.009783 -0.000000
v 0.012347 0.008334 -0.000000
v 0.006041 0.016424 -0.000000
v 0.003989 0.017039 -0.000000
v 0.006673 0.009050 -0.000000
v 0.001642 0.013940 -0.000000
v 0.001700 0.013500 -0.000000
v -0.010841 -0.008222 0.000000
v -0.011468 -0.008449 0.000000
v -0.010489 -0.007952 0.000000
v -0.012347 -0.008334 0.000000
v -0.012893 -0.007952 0.000000
v -0.015014 -0.007425 0.000000
v -0.014984 -0.008724 0.000000
v -0.014778 -0.009381 0.000000
v -0.010049 -0.007190 0.000000
v -0.010219 -0.007600 0.000000
v -0.012131 -0.005108 0.000000
v -0.011468 -0.005051 0.000000
v -0.008746 -0.000000 0.000000
v -0.013333 -0.007190 0.000000
v -0.013164 -0.007600 0.000000
v -0.010841 -0.005278 0.000000
v -0.010489 -0.005548 0.000000
v -0.010219 -0.005900 0.000000
v -0.010049 -0.006310 0.000000
v -0.009991 -0.006750 0.000000
v -0.012541 -0.005278 0.000000
v -0.016700 -0.000000 0.000000
v -0.012893 -0.005548 0.000000
v -0.016563 -0.002136 0.000000
v -0.013164 -0.005900 0.000000
v -0.016154 -0.004236 0.000000
v -0.013391 -0.006526 0.000000
v -0.015480 -0.006267 0.000000
v -0.010841 0.008222 -0.000000
v -0.010489 0.007952 -0.000000
v -0.006673 0.009050 -0.000000
v -0.010219 0.007600 -0.000000
v -0.010219 0.005900 -0.000000
v -0.010489 0.005548 -0.000000
v -0.010841 0.005278 -0.000000
v -0.011468 0.005051 -0.000000
v -0.013391 0.006974 -0.000000
v -0.013164 0.007600 -0.000000
v -0.015014 0.007425 -0.000000
v -0.010049 0.007190 -0.000000
v -0.009991 0.006750 -0.000000
v -0.010049 0.006310 -0.000000
v -0.013333 0.006310 -0.000000
v -0.015480 0.006267 -0.000000
v -0.013164 0.005900 -0.000000
v -0.016154 0.004236 -0.000000
v -0.012893 0.005548 -0.000000
v -0.016563 0.002136 -0.000000
v -0.012541 0.005278 -0.000000
v -0.012131 0.005108 -0.000000
v -0.011468 0.008449 -0.000000
v -0.012347 0.008334 -0.000000
v -0.014778 0.009381 -0.000000
v -0.012893 0.007952 -0.000000
v -0.014984 0.008724 -0.000000
v -0.010274 0.014167 -0.000000
v -0.011928 0.012805 -0.000000
v -0.013403 0.011252 -0.000000
v -0.004499 0.016912 -0.000000
v -0.006531 0.016236 -0.000000
v -0.008466 0.015316 -0.000000
v 0.001472 0.012650 -0.000000
v 0.001044 0.012140 -0.000000
v 0.001642 0.013060 -0.000000
v -0.000440 0.011858 -0.000000
v -0.000000 0.011800 -0.000000
v 0.000440 0.011858 -0.000000
v -0.001044 0.012140 -0.000000
v -0.001472 0.012650 -0.000000
v -0.001642 0.013060 -0.000000
v -0.001700 0.013500 -0.000000
v 0.001877 0.017399 -0.000000
v -0.000263 0.017498 -0.000000
v -0.000000 0.015200 -0.000000
v -0.001642 0.013940 -0.000000
v -0.001472 0.014350 -0.000000
v -0.001044 0.014860 -0.000000
v -0.002399 0.017335 -0.000000
v -0.000440 0.015142 -0.000000
v 0.000440 0.015142 -0.000000
v 0.001044 0.014860 -0.000000
v 0.001472 0.014350 -0.000000
v 0.013059 0.011650 -0.000000
v 0.011538 0.013158 -0.000000
v 0.009844 0.014469 -0.000000
v 0.008002 0.015563 -0.000000
v 0.010841 0.008222 -0.000000
v 0.011468 0.008449 -0.000000
v 0.014643 0.008212 -0.000000
v 0.014752 0.008891 -0.000000
v 0.012893 0.007952 -0.000000
v 0.013164 0.007600 -0.000000
v 0.010841 0.005278 -0.000000
v 0.010489 0.005548 -0.000000
v 0.008746 -0.000000 0.000000
v 0.010049 0.007190 -0.000000
v 0.010219 0.007600 -0.000000
v 0.010489 0.007952 -0.000000
v 0.017500 -0.000000 0.000000
v 0.012541 0.005278 -0.000000
v 0.012131 0.005108 -0.000000
v 0.011468 0.005051 -0.000000
v 0.010219 0.005900 -0.000000
v 0.010049 0.006310 -0.000000
v 0.009991 0.006750 -0.000000
v 0.015375 0.004674 -0.000000
v 0.013333 0.006310 -0.000000
v 0.014166 0.006284 -0.000000
v 0.013391 0.006974 -0.000000
v 0.014140 0.006805 -0.000000
v 0.014237 0.007318 -0.000000
v 0.012893 0.005548 -0.000000
v 0.013164 0.005900 -0.000000
v 0.014936 0.004956 -0.000000
v 0.014575 0.005333 -0.000000
v 0.014314 0.005784 -0.000000
v 0.017226 0.004596 -0.000000
v 0.017380 0.002043 -0.000000
v 0.017023 0.004058 -0.000000
v 0.015868 0.004504 -0.000000
v 0.017019 0.004315 -0.000000
v 0.016387 0.004455 -0.000000
v 0.017019 -0.004315 0.000000
v 0.016387 -0.004455 0.000000
v 0.017212 -0.004588 0.000000
v 0.017023 -0.004058 0.000000
v 0.017380 -0.002043 0.000000
v 0.010489 -0.007952 0.000000
v 0.006673 -0.009050 0.000000
v 0.010219 -0.007600 0.000000
v 0.010489 -0.005548 0.000000
v 0.010841 -0.005278 0.000000
v 0.010219 -0.005900 0.000000
v 0.010049 -0.007190 0.000000
v 0.009991 -0.006750 0.000000
v 0.010049 -0.006310 0.000000
v 0.012541 -0.005278 0.000000
v 0.012893 -0.005548 0.000000
v 0.013164 -0.005900 0.000000
v 0.011468 -0.005051 0.000000
v 0.012131 -0.005108 0.000000
v 0.014575 -0.005333 0.000000
v 0.014314 -0.005784 0.000000
v 0.013391 -0.006526 0.000000
v 0.014166 -0.006284 0.000000
v 0.015868 -0.004504 0.000000
v 0.015375 -0.004675 0.000000
v 0.014936 -0.004956 0.000000
v 0.014140 -0.006805 0.000000
v 0.014237 -0.007318 0.000000
v 0.013333 -0.007190 0.000000
v 0.014643 -0.008212 0.000000
v 0.013164 -0.007600 0.000000
v 0.011468 -0.008449 0.000000
v 0.010841 -0.008222 0.000000
v 0.012347 -0.008334 0.000000
v 0.014515 -0.009783 0.000000
v 0.014752 -0.008891 0.000000
v 0.012893 -0.007952 0.000000
v 0.009844 -0.014469 0.000000
v 0.011538 -0.013158 0.000000
v 0.013059 -0.011650 0.000000
v 0.003989 -0.017039 0.000000
v 0.006041 -0.016424 0.000000
v 0.008002 -0.015563 0.000000
v 0.001642 -0.013940 0.000000
v 0.001472 -0.014350 0.000000
v -0.000263 -0.017498 0.000000
v 0.001877 -0.017399 0.000000
v 0.000440 -0.015142 0.000000
v 0.001044 -0.014860 0.000000
v -0.001642 -0.013940 0.000000
v -0.001700 -0.013500 0.000000
v -0.001642 -0.013060 0.000000
v 0.001044 -0.012140 0.000000
v -0.000000 -0.015200 0.000000
v -0.000440 -0.015142 0.000000
v -0.002399 -0.017335 0.000000
v -0.001044 -0.014860 0.000000
v -0.001472 -0.014350 0.000000
v -0.001472 -0.012650 0.000000
v -0.001044 -0.012140 0.000000
v -0.000440 -0.011858 0.000000
v -0.000000 -0.011800 0.000000
v 0.000440 -0.011858 0.000000
v 0.001472 -0.012650 0.000000
v 0.001642 -0.013060 0.000000
v 0.001700 -0.013500 0.000000
v -0.013403 -0.011252 0.000000
v -0.011928 -0.012805 0.000000
v -0.010274 -0.014167 0.000000
v -0.008466 -0.015316 0.000000
v 0.005895 0.004636 -0.000000
v 0.006666 0.003437 -0.000000
v 0.007196 0.002113 -0.000000
v 0.007466 0.000713 -0.000000
v -0.004350 0.006109 -0.000000
v -0.003116 0.006822 -0.000000
v 0.002453 0.007088 -0.000000
v 0.003750 0.006495 -0.000000
v 0.004911 0.005668 -0.000000
v -0.001768 0.007289 -0.000000
v -0.000357 0.007492 -0.000000
v 0.001067 0.007424 -0.000000
v -0.006963 0.002787 -0.000000
v -0.007364 0.001419 -0.000000
v -0.007500 -0.000000 0.000000
v -0.007364 -0.001419 0.000000
v -0.006309 0.004055 -0.000000
v -0.005428 0.005176 -0.000000
v -0.006963 -0.002787 0.000000
v -0.006309 -0.004055 0.000000
v -0.003116 -0.006822 0.000000
v -0.004350 -0.006109 0.000000
v -0.005428 -0.005176 0.000000
v 0.003750 -0.006495 0.000000
v 0.002453 -0.007088 0.000000
v 0.001067 -0.007424 0.000000
v -0.000357 -0.007492 0.000000
v -0.001768 -0.007289 0.000000
v 0.006666 -0.003437 0.000000
v 0.005895 -0.004636 0.000000
v 0.004911 -0.005668 0.000000
v 0.007498 -0.000462 0.000000
v 0.007196 -0.002113 0.000000
v 0.018924 -0.009526 -0.005500
v 0.018889 -0.009539 -0.012000
v 0.020770 -0.004820 -0.012000
v 0.021222 0.002368 -0.012000
v 0.021326 0.000287 0.000700
v 0.020507 -0.005347 0.000700
v 0.020488 -0.005374 -0.005500
v 0.017042 -0.004489 0.000000
v 0.017032 -0.004467 0.000700
v 0.015141 -0.012437 -0.005500
v 0.015114 -0.012673 -0.012000
v 0.016501 -0.010612 -0.012000
v 0.016727 -0.010494 -0.005500
v 0.014742 -0.017742 -0.005500
v 0.014064 -0.018503 -0.012000
v 0.014931 -0.017031 -0.012000
v 0.013045 -0.016002 -0.012000
v 0.012652 -0.015144 -0.005500
v 0.012293 -0.014941 -0.012000
v 0.011207 -0.014941 -0.005500
v 0.010848 -0.015144 -0.012000
v 0.010455 -0.016002 -0.005500
v 0.010530 -0.016574 -0.012000
v 0.010878 -0.017055 -0.005500
v 0.011531 -0.017405 -0.012000
v 0.011969 -0.017405 -0.005500
v 0.012622 -0.017055 -0.012000
v 0.012970 -0.016574 -0.005500
v 0.012970 0.016574 -0.012000
v 0.013045 0.016002 -0.005500
v 0.012622 0.017055 -0.005500
v 0.011969 0.017405 -0.012000
v 0.011531 0.017405 -0.005500
v 0.010878 0.017055 -0.012000
v 0.010530 0.016574 -0.005500
v 0.010455 0.016002 -0.012000
v 0.010848 0.015144 -0.005500
v 0.011207 0.014941 -0.012000
v 0.012293 0.014941 -0.005500
v 0.012652 0.015144 -0.012000
v 0.015141 0.012437 -0.012000
v 0.015114 0.012673 -0.005500
v 0.016501 0.010612 -0.005500
v 0.016727 0.010494 -0.012000
v 0.019052 0.009444 -0.012000
v 0.018889 0.009539 -0.005500
v 0.014906 0.017094 -0.012000
v 0.014920 0.017117 -0.005500
v -0.014221 -0.018296 -0.012000
v -0.015020 -0.007474 -0.012000
v -0.015182 -0.006957 -0.012000
v -0.014551 -0.008195 -0.012000
v -0.004752 0.016010 -0.012000
v -0.006760 0.015271 -0.012000
v -0.005875 0.018036 -0.012000
v -0.013000 0.016287 -0.012000
v -0.014221 0.018296 -0.012000
v 0.010500 0.016287 -0.012000
v 0.005768 0.015672 -0.012000
v 0.010500 -0.016287 -0.012000
v 0.005875 -0.018036 -0.012000
v 0.010750 -0.016890 -0.012000
v 0.011125 -0.017205 -0.012000
v 0.011586 -0.017372 -0.012000
v 0.012232 -0.017287 -0.012000
v 0.014221 -0.018296 -0.012000
v 0.012750 -0.016890 -0.012000
v 0.014646 -0.017661 -0.012000
v 0.014910 -0.016943 -0.012000
v 0.013000 -0.016287 -0.012000
v 0.015000 -0.016184 -0.012000
v 0.016666 -0.001070 -0.012000
v 0.016698 0.000693 -0.012000
v 0.021250 -0.000000 -0.012000
v 0.005768 -0.015672 -0.012000
v 0.007724 -0.014806 -0.012000
v 0.010543 -0.015799 -0.012000
v 0.016451 -0.010729 -0.012000
v 0.015840 -0.011360 -0.012000
v 0.013996 -0.009110 -0.012000
v 0.015046 -0.007246 -0.012000
v 0.009554 -0.013697 -0.012000
v 0.011227 -0.012363 -0.012000
v 0.011585 -0.014873 -0.012000
v 0.012957 -0.015799 -0.012000
v 0.015000 -0.013812 -0.012000
v 0.012750 -0.015355 -0.012000
v 0.015096 -0.012939 -0.012000
v 0.015849 -0.005262 -0.012000
v 0.016392 -0.003192 -0.012000
v 0.011125 -0.015040 -0.012000
v 0.010750 -0.015355 -0.012000
v 0.021128 -0.002273 -0.012000
v 0.018584 -0.009707 -0.012000
v 0.017185 -0.010248 -0.012000
v 0.012716 -0.010825 -0.012000
v 0.012232 -0.014958 -0.012000
v 0.015381 -0.012108 -0.012000
v 0.020764 -0.004519 -0.012000
v 0.020162 -0.006714 -0.012000
v 0.019206 -0.009075 -0.012000
v 0.011586 0.017372 -0.012000
v 0.011125 0.017205 -0.012000
v 0.005875 0.018036 -0.012000
v 0.009554 0.013697 -0.012000
v 0.007724 0.014806 -0.012000
v 0.010750 0.015355 -0.012000
v 0.014221 0.018296 -0.012000
v 0.012232 0.017287 -0.012000
v 0.010543 0.015799 -0.012000
v 0.010750 0.016890 -0.012000
v 0.011125 0.015040 -0.012000
v 0.011227 0.012363 -0.012000
v 0.016392 0.003192 -0.012000
v 0.015849 0.005262 -0.012000
v 0.011585 0.014873 -0.012000
v 0.012716 0.010825 -0.012000
v 0.012232 0.014958 -0.012000
v 0.013996 0.009110 -0.012000
v 0.015046 0.007246 -0.012000
v 0.015000 0.016184 -0.012000
v 0.015000 0.013812 -0.012000
v 0.012750 0.015355 -0.012000
v 0.015096 0.012939 -0.012000
v 0.015381 0.012108 -0.012000
v 0.015840 0.011360 -0.012000
v 0.016451 0.010729 -0.012000
v 0.012957 0.015799 -0.012000
v 0.013000 0.016287 -0.012000
v 0.014910 0.016943 -0.012000
v 0.014646 0.017661 -0.012000
v 0.012750 0.016890 -0.012000
v 0.017185 0.010247 -0.012000
v 0.021128 0.002273 -0.012000
v 0.020764 0.004519 -0.012000
v 0.018584 0.009707 -0.012000
v 0.019206 0.009075 -0.012000
v 0.020162 0.006714 -0.012000
v 0.004831 0.022742 -0.012000
v 0.007181 0.022113 -0.012000
v 0.009452 0.021242 -0.012000
v 0.011619 0.020139 -0.012000
v 0.013659 0.018815 -0.012000
v 0.000482 0.018786 -0.012000
v -0.000000 0.018700 -0.012000
v -0.000482 0.018786 -0.012000
v 0.001000 0.019183 -0.012000
v -0.001250 0.019786 -0.012000
v -0.001000 0.019183 -0.012000
v 0.002429 0.023123 -0.012000
v 0.000482 0.021114 -0.012000
v -0.000000 0.023250 -0.012000
v -0.000000 0.021200 -0.012000
v -0.000482 0.021114 -0.012000
v -0.002429 0.023123 -0.012000
v 0.001250 0.019786 -0.012000
v 0.001164 0.020432 -0.012000
v 0.000884 0.020834 -0.012000
v -0.000884 0.020834 -0.012000
v -0.004831 0.022742 -0.012000
v -0.001164 0.020432 -0.012000
v -0.013659 0.018815 -0.012000
v -0.011619 0.020139 -0.012000
v -0.009452 0.021242 -0.012000
v -0.007181 0.022113 -0.012000
v -0.014551 0.008195 -0.012000
v -0.015182 0.006957 -0.012000
v -0.015020 0.007474 -0.012000
v -0.015000 0.016184 -0.012000
v -0.014910 0.016943 -0.012000
v -0.014646 0.017661 -0.012000
v -0.012957 0.015799 -0.012000
v -0.012750 0.015355 -0.012000
v -0.012232 0.017287 -0.012000
v -0.011586 0.017372 -0.012000
v -0.008657 0.014281 -0.012000
v -0.010412 0.013057 -0.012000
v -0.011125 0.015040 -0.012000
v -0.012750 0.016890 -0.012000
v -0.012232 0.014958 -0.012000
v -0.013384 0.009988 -0.012000
v -0.011996 0.011618 -0.012000
v -0.011585 0.014873 -0.012000
v -0.010750 0.015355 -0.012000
v -0.010543 0.015799 -0.012000
v -0.010500 0.016287 -0.012000
v -0.010750 0.016890 -0.012000
v -0.011125 0.017205 -0.012000
v 0.003716 0.016281 -0.012000
v 0.001604 0.016623 -0.012000
v -0.000535 0.016691 -0.012000
v -0.002665 0.016486 -0.012000
v 0.001604 -0.016623 -0.012000
v 0.003716 -0.016281 -0.012000
v -0.000535 -0.016691 -0.012000
v -0.006760 -0.015271 -0.012000
v -0.004752 -0.016010 -0.012000
v -0.005875 -0.018036 -0.012000
v -0.002665 -0.016486 -0.012000
v -0.012957 -0.015799 -0.012000
v -0.013000 -0.016287 -0.012000
v -0.012232 -0.017287 -0.012000
v -0.011586 -0.017372 -0.012000
v -0.011125 -0.017205 -0.012000
v -0.010750 -0.016890 -0.012000
v -0.012750 -0.016890 -0.012000
v -0.010412 -0.013057 -0.012000
v -0.008657 -0.014281 -0.012000
v -0.010750 -0.015355 -0.012000
v -0.010500 -0.016287 -0.012000
v -0.010543 -0.015799 -0.012000
v -0.012750 -0.015355 -0.012000
v -0.011125 -0.015040 -0.012000
v -0.011585 -0.014873 -0.012000
v -0.011996 -0.011618 -0.012000
v -0.013384 -0.009988 -0.012000
v -0.012232 -0.014958 -0.012000
v -0.014646 -0.017661 -0.012000
v -0.014910 -0.016943 -0.012000
v -0.015000 -0.016184 -0.012000
v -0.009452 -0.021242 -0.012000
v -0.011619 -0.020139 -0.012000
v -0.013659 -0.018815 -0.012000
v -0.004831 -0.022743 -0.012000
v -0.007181 -0.022113 -0.012000
v 0.004831 -0.022742 -0.012000
v 0.002429 -0.023123 -0.012000
v -0.000000 -0.023250 -0.012000
v -0.002429 -0.023123 -0.012000
v 0.013659 -0.018815 -0.012000
v 0.011619 -0.020139 -0.012000
v 0.009452 -0.021242 -0.012000
v 0.007181 -0.022113 -0.012000
v 0.000482 -0.018786 -0.012000
v -0.000000 -0.018700 -0.012000
v -0.000482 -0.021114 -0.012000
v -0.000000 -0.021200 -0.012000
v 0.000482 -0.021114 -0.012000
v 0.000884 -0.020834 -0.012000
v -0.001164 -0.020432 -0.012000
v -0.000884 -0.020834 -0.012000
v 0.001250 -0.019786 -0.012000
v 0.001000 -0.019183 -0.012000
v -0.000482 -0.018786 -0.012000
v -0.001000 -0.019183 -0.012000
v -0.001250 -0.019786 -0.012000
v 0.001164 -0.020432 -0.012000
v 0.001061 0.020702 -0.012000
v 0.001084 0.020625 -0.005500
v 0.000121 0.021245 -0.005500
v -0.000121 0.021245 -0.012000
v -0.001061 0.020702 -0.005500
v -0.001084 0.020625 -0.012000
v -0.001179 0.019331 -0.012000
v -0.001182 0.019407 -0.005500
v -0.000121 0.018655 -0.005500
v 0.000121 0.018655 -0.012000
v 0.001179 0.019331 -0.005500
v 0.001182 0.019407 -0.012000
v -0.015010 -0.007407 -0.012000
v 0.006572 0.015376 -0.013500
v 0.008663 0.014290 -0.012000
v 0.010344 0.013180 -0.013500
v 0.012090 0.011593 -0.012000
v 0.002937 0.016476 -0.013500
v 0.004911 0.016008 -0.012000
v 0.000346 0.016728 -0.012000
v -0.001417 0.016671 -0.013500
v -0.005008 0.015999 -0.012000
v -0.005439 0.015821 -0.013500
v -0.010285 0.013245 -0.013500
v -0.009743 0.013590 -0.012000
v -0.012725 0.010833 -0.012000
v -0.014009 0.009187 -0.013500
v -0.015012 0.007401 -0.012000
v -0.015766 0.005627 -0.013500
v -0.015064 -0.007246 -0.013501
v -0.012196 -0.011510 -0.013500
v -0.012592 -0.011002 -0.012000
v -0.009389 -0.013837 -0.012000
v -0.007795 -0.014838 -0.013500
v -0.005552 -0.015766 -0.012000
v -0.002609 -0.016551 -0.013500
v -0.001607 -0.016667 -0.012000
v 0.002802 -0.016518 -0.013500
v 0.004203 -0.016261 -0.012000
v 0.006966 -0.015202 -0.013500
v 0.010222 -0.013252 -0.013500
v 0.008852 -0.014186 -0.012000
v 0.012150 -0.011502 -0.012000
v 0.013896 -0.009372 -0.013500
v 0.014581 -0.008212 -0.012000
v 0.016135 -0.004428 -0.013500
v 0.016231 -0.004060 -0.012000
v 0.016732 -0.000165 -0.013500
v 0.016732 0.000165 -0.012000
v 0.016231 0.004060 -0.013500
v 0.016135 0.004428 -0.012000
v 0.014195 0.008913 -0.013500
v 0.014561 0.008201 -0.012000
v -0.016613 -0.002415 0.000000
v -0.016458 -0.003011 -0.013500
v -0.016683 0.001262 -0.013500
v -0.016349 0.003760 -0.000000
v 0.012232 -0.017287 -0.005500
v 0.011586 -0.017372 -0.005500
v 0.011619 -0.020139 -0.005500
v 0.002429 -0.023123 -0.005500
v 0.004831 -0.022743 -0.005500
v 0.001164 -0.020432 -0.005500
v -0.001000 -0.019183 -0.005500
v -0.010500 -0.016287 -0.005500
v -0.014984 -0.008724 -0.005500
v -0.015000 -0.016184 -0.005500
v 0.007181 -0.022113 -0.005500
v 0.001250 -0.019786 -0.005500
v 0.009452 -0.021242 -0.005500
v 0.000884 -0.020834 -0.005500
v 0.000482 -0.021114 -0.005500
v -0.000000 -0.023250 -0.005500
v -0.000000 -0.021200 -0.005500
v -0.000482 -0.021114 -0.005500
v -0.002429 -0.023123 -0.005500
v 0.001877 -0.017399 -0.005500
v -0.000263 -0.017498 -0.005500
v -0.000000 -0.018700 -0.005500
v -0.000884 -0.020834 -0.005500
v -0.004831 -0.022743 -0.005500
v -0.001164 -0.020432 -0.005500
v -0.007181 -0.022113 -0.005500
v -0.009452 -0.021242 -0.005500
v -0.001250 -0.019786 -0.005500
v -0.011619 -0.020139 -0.005500
v -0.014794 -0.009342 -0.005500
v -0.012232 -0.014958 -0.005500
v 0.011125 -0.017205 -0.005500
v 0.010750 -0.016890 -0.005500
v -0.002399 -0.017335 -0.005500
v -0.000482 -0.018786 -0.005500
v -0.010750 -0.016890 -0.005500
v -0.011125 -0.017205 -0.005500
v -0.011586 -0.017372 -0.005500
v 0.013659 -0.018815 -0.005500
v 0.012750 -0.016890 -0.005500
v 0.014221 -0.018296 -0.005500
v 0.014646 -0.017661 -0.005500
v 0.013000 -0.016287 -0.005500
v 0.014910 -0.016943 -0.005500
v 0.015000 -0.016184 -0.005500
v 0.012957 -0.015799 -0.005500
v 0.000482 -0.018786 -0.005500
v 0.003989 -0.017039 -0.005500
v 0.001000 -0.019183 -0.005500
v 0.006041 -0.016424 -0.005500
v -0.012232 -0.017287 -0.005500
v -0.013659 -0.018815 -0.005500
v -0.014221 -0.018296 -0.005500
v -0.012750 -0.016890 -0.005500
v -0.014646 -0.017661 -0.005500
v -0.014910 -0.016943 -0.005500
v -0.013000 -0.016287 -0.005500
v -0.010274 -0.014167 -0.005500
v -0.011928 -0.012805 -0.005500
v -0.011585 -0.014873 -0.005500
v -0.008466 -0.015316 -0.005500
v -0.010543 -0.015799 -0.005500
v -0.006531 -0.016236 -0.005500
v -0.004499 -0.016912 -0.005500
v 0.010750 -0.015355 -0.005500
v 0.009844 -0.014469 -0.005500
v 0.010543 -0.015799 -0.005500
v 0.008002 -0.015563 -0.005500
v 0.010500 -0.016287 -0.005500
v 0.011125 -0.015040 -0.005500
v 0.011538 -0.013158 -0.005500
v 0.011585 -0.014873 -0.005500
v -0.012957 -0.015799 -0.005500
v -0.012750 -0.015355 -0.005500
v -0.013403 -0.011252 -0.005500
v 0.012232 -0.014958 -0.005500
v 0.014534 -0.009735 -0.005500
v 0.013059 -0.011650 -0.005500
v -0.011125 -0.015040 -0.005500
v -0.010750 -0.015355 -0.005500
v 0.014643 -0.008213 -0.005500
v 0.016904 -0.004529 -0.005500
v 0.014752 -0.008891 -0.005500
v 0.014314 -0.005784 -0.005500
v 0.014166 -0.006284 -0.005500
v 0.020580 -0.005189 -0.005500
v 0.018584 -0.009707 -0.005500
v 0.019206 -0.009075 -0.005500
v 0.015840 -0.011360 -0.005500
v 0.016451 -0.010729 -0.005500
v 0.020228 -0.005396 -0.005500
v 0.015868 -0.004504 -0.005500
v 0.015375 -0.004675 -0.005500
v 0.014936 -0.004956 -0.005500
v 0.014140 -0.006805 -0.005500
v 0.014237 -0.007318 -0.005500
v 0.012750 -0.015355 -0.005500
v 0.015000 -0.013812 -0.005500
v 0.015096 -0.012939 -0.005500
v 0.015381 -0.012108 -0.005500
v 0.016387 -0.004455 -0.005500
v 0.020162 -0.006714 -0.005500
v 0.017185 -0.010247 -0.005500
v 0.014575 -0.005333 -0.005500
v 0.010091 0.007610 -0.000000
v 0.009948 0.007047 -0.013500
v 0.011079 0.008409 -0.013500
v 0.011855 0.008511 -0.000000
v 0.012591 0.008223 -0.013500
v 0.013279 0.007570 -0.000000
v 0.013500 0.006677 -0.013500
v 0.013135 0.005727 -0.000000
v 0.012089 0.004984 -0.013500
v 0.011750 0.005015 -0.000000
v 0.010330 0.005621 -0.000000
v 0.010423 0.005564 -0.013500
v 0.016097 -0.004407 -0.005500
v -0.010530 0.016574 -0.012000
v -0.010455 0.016002 -0.005500
v -0.010878 0.017055 -0.005500
v -0.011531 0.017405 -0.012000
v -0.011969 0.017405 -0.005500
v -0.012622 0.017055 -0.012000
v -0.012970 0.016574 -0.005500
v -0.013045 0.016002 -0.012000
v -0.012652 0.015144 -0.005500
v -0.012293 0.014941 -0.012000
v -0.011207 0.014941 -0.005500
v -0.010848 0.015144 -0.012000
v -0.010455 -0.016002 -0.012000
v -0.010848 -0.015144 -0.005500
v -0.011207 -0.014941 -0.012000
v -0.012293 -0.014941 -0.005500
v -0.012652 -0.015144 -0.012000
v -0.013045 -0.016002 -0.005500
v -0.012970 -0.016574 -0.012000
v -0.012622 -0.017055 -0.005500
v -0.011969 -0.017405 -0.012000
v -0.011531 -0.017405 -0.005500
v -0.010878 -0.017055 -0.012000
v -0.010530 -0.016574 -0.005500
v 0.001179 -0.019331 -0.012000
v 0.001182 -0.019407 -0.005500
v 0.000121 -0.018655 -0.005500
v -0.000121 -0.018655 -0.012000
v -0.001179 -0.019331 -0.005500
v -0.001182 -0.019407 -0.012000
v -0.001061 -0.020702 -0.012000
v -0.001084 -0.020625 -0.005500
v -0.000121 -0.021245 -0.005500
v 0.000121 -0.021245 -0.012000
v 0.001061 -0.020702 -0.005500
v 0.001084 -0.020625 -0.012000
v -0.001809 -0.013573 0.000000
v -0.001474 -0.012582 -0.013500
v -0.000738 -0.011893 0.000000
v -0.000164 -0.011739 -0.013500
v 0.000817 -0.011968 0.000000
v 0.001603 -0.012659 -0.013500
v 0.001809 -0.013427 0.000000
v 0.001474 -0.014418 -0.013500
v 0.000738 -0.015107 0.000000
v 0.000164 -0.015261 -0.013500
v -0.000817 -0.015032 0.000000
v -0.001603 -0.014341 -0.013500
v -0.013500 -0.006677 -0.013500
v -0.013135 -0.005727 0.000000
v -0.012089 -0.004984 -0.013500
v -0.011750 -0.005015 0.000000
v -0.010330 -0.005621 0.000000
v -0.010423 -0.005564 -0.013500
v -0.009948 -0.007047 -0.013500
v -0.010091 -0.007610 0.000000
v -0.011079 -0.008409 -0.013500
v -0.011855 -0.008511 0.000000
v -0.012591 -0.008223 -0.013500
v -0.013279 -0.007570 0.000000
v -0.013279 0.007570 -0.013500
v -0.012591 0.008223 -0.000000
v -0.011855 0.008511 -0.013500
v -0.011079 0.008409 -0.000000
v -0.010091 0.007610 -0.013500
v -0.009948 0.007047 -0.000000
v -0.010330 0.005621 -0.013500
v -0.010423 0.005564 -0.000000
v -0.012089 0.004984 -0.000000
v -0.011750 0.005015 -0.013500
v -0.013135 0.005727 -0.013500
v -0.013500 0.006677 -0.000000
v -0.014033 -0.018520 -0.005500
v -0.010754 -0.020646 -0.012000
v -0.010370 -0.020842 -0.005500
v -0.006299 -0.022386 -0.012000
v -0.004471 -0.022888 -0.005500
v -0.001433 -0.023235 -0.012000
v 0.001433 -0.023235 -0.005500
v 0.004426 -0.022890 -0.012000
v 0.006273 -0.022402 -0.005500
v 0.010370 -0.020842 -0.012000
v 0.010754 -0.020646 -0.005500
v -0.001691 0.013893 -0.000000
v -0.001227 0.014830 -0.013500
v -0.000738 0.015107 -0.000000
v 0.000738 0.015107 -0.013500
v 0.001227 0.014830 -0.000000
v 0.001691 0.013893 -0.013500
v 0.001603 0.012659 -0.000000
v 0.001474 0.012582 -0.013500
v 0.000164 0.011739 -0.013500
v -0.000164 0.011739 -0.000000
v -0.001603 0.012659 -0.013500
v -0.001474 0.012582 -0.000000
v -0.015016 0.007409 -0.000000
v 0.009948 -0.007047 0.000000
v 0.010330 -0.005621 -0.013500
v 0.010423 -0.005564 0.000000
v 0.012089 -0.004984 0.000000
v 0.011750 -0.005015 -0.013500
v 0.013135 -0.005727 -0.013500
v 0.013500 -0.006677 0.000000
v 0.013279 -0.007570 -0.013500
v 0.012591 -0.008223 0.000000
v 0.011855 -0.008511 -0.013500
v 0.011079 -0.008409 0.000000
v 0.010091 -0.007610 -0.013500
v -0.012232 0.017287 -0.005500
v -0.011586 0.017372 -0.005500
v -0.011619 0.020139 -0.005500
v -0.011928 0.012805 -0.005500
v -0.010274 0.014167 -0.005500
v -0.011125 0.015040 -0.005500
v -0.009452 0.021242 -0.005500
v 0.001000 0.019183 -0.005500
v 0.010500 0.016287 -0.005500
v -0.011585 0.014873 -0.005500
v -0.013403 0.011252 -0.005500
v -0.012232 0.014958 -0.005500
v -0.012750 0.015355 -0.005500
v -0.014794 0.009342 -0.005500
v -0.012957 0.015799 -0.005500
v 0.020580 0.005189 -0.005500
v 0.020162 0.006714 -0.005500
v 0.015000 0.016184 -0.005500
v 0.014910 0.016943 -0.005500
v 0.013000 0.016287 -0.005500
v -0.008466 0.015316 -0.005500
v -0.010750 0.015355 -0.005500
v -0.015000 0.016184 -0.005500
v -0.015000 0.008441 -0.005500
v -0.014963 0.008823 -0.005500
v -0.013659 0.018815 -0.005500
v -0.012750 0.016890 -0.005500
v -0.014221 0.018296 -0.005500
v -0.014646 0.017661 -0.005500
v -0.013000 0.016287 -0.005500
v -0.014910 0.016943 -0.005500
v -0.000000 0.023250 -0.005500
v -0.000000 0.021200 -0.005500
v 0.000482 0.021114 -0.005500
v 0.014534 0.009735 -0.005500
v 0.014752 0.008891 -0.005500
v 0.016904 0.004529 -0.005500
v 0.002429 0.023123 -0.005500
v 0.012750 0.016890 -0.005500
v 0.014646 0.017661 -0.005500
v 0.014221 0.018296 -0.005500
v 0.012232 0.017287 -0.005500
v 0.013659 0.018815 -0.005500
v 0.011619 0.020139 -0.005500
v 0.011586 0.017372 -0.005500
v 0.011125 0.015040 -0.005500
v 0.009844 0.014469 -0.005500
v 0.011585 0.014873 -0.005500
v 0.011538 0.013158 -0.005500
v 0.000884 0.020834 -0.005500
v 0.004831 0.022743 -0.005500
v 0.001164 0.020432 -0.005500
v 0.007181 0.022113 -0.005500
v 0.009452 0.021242 -0.005500
v 0.001250 0.019786 -0.005500
v 0.010750 0.015355 -0.005500
v 0.008002 0.015563 -0.005500
v 0.010543 0.015799 -0.005500
v 0.006041 0.016424 -0.005500
v 0.000482 0.018786 -0.005500
v 0.001877 0.017399 -0.005500
v -0.000263 0.017498 -0.005500
v 0.012957 0.015799 -0.005500
v 0.015000 0.013812 -0.005500
v 0.012750 0.015355 -0.005500
v 0.015096 0.012939 -0.005500
v 0.020228 0.005396 -0.005500
v 0.012232 0.014958 -0.005500
v 0.013059 0.011650 -0.005500
v 0.014643 0.008213 -0.005500
v 0.010750 0.016890 -0.005500
v 0.011125 0.017205 -0.005500
v -0.001250 0.019786 -0.005500
v -0.001164 0.020432 -0.005500
v -0.007181 0.022113 -0.005500
v -0.002429 0.023123 -0.005500
v -0.000482 0.021114 -0.005500
v 0.003989 0.017039 -0.005500
v -0.004499 0.016912 -0.005500
v -0.010500 0.016287 -0.005500
v -0.006531 0.016236 -0.005500
v -0.010543 0.015799 -0.005500
v 0.014237 0.007318 -0.005500
v 0.014140 0.006805 -0.005500
v 0.014166 0.006284 -0.005500
v -0.011125 0.017205 -0.005500
v -0.010750 0.016890 -0.005500
v -0.004831 0.022743 -0.005500
v -0.000884 0.020834 -0.005500
v 0.017185 0.010247 -0.005500
v 0.016451 0.010729 -0.005500
v 0.015840 0.011360 -0.005500
v 0.015375 0.004674 -0.005500
v 0.015868 0.004504 -0.005500
v 0.014936 0.004956 -0.005500
v 0.014575 0.005333 -0.005500
v 0.014314 0.005784 -0.005500
v 0.016387 0.004455 -0.005500
v -0.001000 0.019183 -0.005500
v -0.000482 0.018786 -0.005500
v -0.002399 0.017335 -0.005500
v -0.000000 0.018700 -0.005500
v 0.018584 0.009707 -0.005500
v 0.015381 0.012108 -0.005500
v 0.019206 0.009075 -0.005500
v 0.014034 0.018527 -0.005500
v 0.013883 0.018724 -0.012000
v 0.010370 0.020842 -0.005500
v 0.007565 0.022059 -0.012000
v 0.005783 0.022540 -0.005500
v 0.001433 0.023235 -0.012000
v -0.000306 0.023329 -0.005500
v -0.003788 0.022990 -0.012000
v -0.006255 0.022414 -0.005500
v -0.009477 0.021300 -0.012000
v -0.010754 0.020646 -0.005500
v -0.014073 0.018482 -0.012000
v -0.014739 0.017754 -0.005500
v 0.005768 -0.015672 -0.013500
v 0.003716 -0.016281 -0.013500
v 0.006673 -0.009050 -0.013500
v -0.012893 -0.007952 -0.013500
v -0.014551 -0.008195 -0.013500
v 0.010841 0.008222 -0.013500
v 0.010489 0.007952 -0.013500
v 0.006673 0.009050 -0.013500
v 0.010219 0.007600 -0.013500
v 0.010049 0.006310 -0.013500
v 0.008746 -0.000000 -0.013500
v 0.009991 0.006750 -0.013500
v 0.010049 0.007190 -0.013500
v 0.010219 0.005900 -0.013500
v 0.010489 0.005548 -0.013500
v 0.010841 0.005278 -0.013500
v 0.015046 0.007246 -0.013500
v 0.013391 0.006974 -0.013500
v 0.013164 0.007600 -0.013500
v 0.011468 0.005051 -0.013500
v 0.016698 -0.000693 -0.013500
v 0.012131 0.005108 -0.013500
v 0.012541 0.005278 -0.013500
v 0.016666 0.001070 -0.013500
v 0.012893 0.005548 -0.013500
v 0.016392 0.003192 -0.013500
v 0.013164 0.005900 -0.013500
v 0.015849 0.005262 -0.013500
v 0.013333 0.006310 -0.013500
v 0.011468 0.008449 -0.013500
v 0.012893 0.007952 -0.013500
v 0.013996 0.009110 -0.013500
v 0.012347 0.008334 -0.013500
v 0.012716 0.010825 -0.013500
v 0.009554 0.013697 -0.013500
v 0.011227 0.012363 -0.013500
v 0.003716 0.016281 -0.013500
v 0.005768 0.015672 -0.013500
v 0.007724 0.014806 -0.013500
v 0.001044 0.012140 -0.013500
v -0.000535 0.016691 -0.013500
v 0.001604 0.016623 -0.013500
v 0.000440 0.015142 -0.013500
v -0.001700 0.013500 -0.013500
v -0.001642 0.013060 -0.013500
v -0.006673 0.009050 -0.013500
v -0.000000 0.015200 -0.013500
v -0.000440 0.015142 -0.013500
v -0.002665 0.016486 -0.013500
v -0.001472 0.012650 -0.013500
v -0.001044 0.012140 -0.013500
v -0.000440 0.011858 -0.013500
v -0.000000 0.011800 -0.013500
v 0.000440 0.011858 -0.013500
v 0.001700 0.013500 -0.013500
v 0.001642 0.013060 -0.013500
v 0.001472 0.012650 -0.013500
v 0.001642 0.013940 -0.013500
v 0.001472 0.014350 -0.013500
v 0.001044 0.014860 -0.013500
v -0.001044 0.014860 -0.013500
v -0.004752 0.016010 -0.013500
v -0.001472 0.014350 -0.013500
v -0.001642 0.013940 -0.013500
v -0.008657 0.014281 -0.013500
v -0.006760 0.015271 -0.013500
v -0.013384 0.009989 -0.013500
v -0.011996 0.011618 -0.013500
v -0.010412 0.013057 -0.013500
v -0.010489 0.007952 -0.013500
v -0.010841 0.008222 -0.013500
v -0.011468 0.008449 -0.013500
v -0.010219 0.007600 -0.013500
v -0.013164 0.007600 -0.013500
v -0.013391 0.006974 -0.013500
v -0.014551 0.008195 -0.013500
v -0.010049 0.007190 -0.013500
v -0.015479 0.006267 -0.013500
v -0.012347 0.008334 -0.013500
v -0.012893 0.007952 -0.013500
v -0.013333 0.006310 -0.013500
v -0.016700 -0.000000 -0.013500
v -0.013164 0.005900 -0.013500
v -0.012893 0.005548 -0.013500
v -0.010489 0.005548 -0.013500
v -0.008746 -0.000000 -0.013500
v -0.010841 0.005278 -0.013500
v -0.011468 0.005051 -0.013500
v -0.012541 0.005278 -0.013500
v -0.012131 0.005108 -0.013500
v -0.010219 0.005900 -0.013500
v -0.010049 0.006310 -0.013500
v -0.009991 0.006750 -0.013500
v -0.016563 0.002136 -0.013500
v -0.016154 0.004236 -0.013500
v -0.015479 -0.006267 -0.013500
v -0.016154 -0.004236 -0.013500
v -0.016563 -0.002136 -0.013500
v -0.010841 -0.008222 -0.013500
v -0.010489 -0.007952 -0.013500
v -0.010412 -0.013057 -0.013500
v -0.010219 -0.007600 -0.013500
v -0.010049 -0.007190 -0.013500
v -0.009991 -0.006750 -0.013500
v -0.013164 -0.007600 -0.013500
v -0.010489 -0.005548 -0.013500
v -0.010841 -0.005278 -0.013500
v -0.011468 -0.005051 -0.013500
v -0.012131 -0.005108 -0.013500
v -0.012541 -0.005278 -0.013500
v -0.010049 -0.006310 -0.013500
v -0.010219 -0.005900 -0.013500
v -0.013391 -0.006526 -0.013500
v -0.013333 -0.007190 -0.013500
v -0.012893 -0.005548 -0.013500
v -0.013164 -0.005900 -0.013500
v -0.011468 -0.008449 -0.013500
v -0.012347 -0.008334 -0.013500
v -0.013384 -0.009989 -0.013500
v -0.011996 -0.011618 -0.013500
v -0.004752 -0.016010 -0.013500
v -0.006760 -0.015271 -0.013500
v -0.008657 -0.014281 -0.013500
v -0.001044 -0.014860 -0.013500
v -0.002665 -0.016486 -0.013500
v 0.001604 -0.016623 -0.013500
v -0.000535 -0.016691 -0.013500
v -0.000000 -0.015200 -0.013500
v -0.000440 -0.015142 -0.013500
v 0.001642 -0.013060 -0.013500
v 0.001700 -0.013500 -0.013500
v 0.001642 -0.013940 -0.013500
v -0.001044 -0.012140 -0.013500
v -0.001472 -0.014350 -0.013500
v -0.001642 -0.013940 -0.013500
v 0.000440 -0.015142 -0.013500
v 0.001044 -0.014860 -0.013500
v 0.001472 -0.014350 -0.013500
v 0.001472 -0.012650 -0.013500
v 0.001044 -0.012140 -0.013500
v 0.000440 -0.011858 -0.013500
v -0.000000 -0.011800 -0.013500
v -0.000440 -0.011858 -0.013500
v -0.001472 -0.012650 -0.013500
v -0.001642 -0.013060 -0.013500
v -0.001700 -0.013500 -0.013500
v 0.009554 -0.013697 -0.013500
v 0.007724 -0.014806 -0.013500
v 0.012716 -0.010825 -0.013500
v 0.011227 -0.012363 -0.013500
v 0.010489 -0.007952 -0.013500
v 0.010841 -0.008222 -0.013500
v 0.011468 -0.008449 -0.013500
v 0.012347 -0.008334 -0.013500
v 0.012893 -0.007952 -0.013500
v 0.015046 -0.007246 -0.013500
v 0.013996 -0.009110 -0.013500
v 0.010219 -0.007600 -0.013500
v 0.010049 -0.007190 -0.013500
v 0.011468 -0.005051 -0.013500
v 0.010841 -0.005278 -0.013500
v 0.010489 -0.005548 -0.013500
v 0.013164 -0.007600 -0.013500
v 0.013333 -0.007190 -0.013500
v 0.013391 -0.006750 -0.013500
v 0.015849 -0.005262 -0.013500
v 0.013333 -0.006310 -0.013500
v 0.016392 -0.003192 -0.013500
v 0.013164 -0.005900 -0.013500
v 0.012893 -0.005548 -0.013500
v 0.010219 -0.005900 -0.013500
v 0.010049 -0.006310 -0.013500
v 0.009991 -0.006750 -0.013500
v 0.012541 -0.005278 -0.013500
v 0.012131 -0.005108 -0.013500
v 0.005895 -0.004636 -0.013500
v 0.006666 -0.003437 -0.013500
v 0.007196 -0.002113 -0.013500
v 0.007466 -0.000713 -0.013500
v 0.002453 -0.007088 -0.013500
v 0.003750 -0.006495 -0.013500
v 0.004911 -0.005668 -0.013500
v -0.004350 -0.006109 -0.013500
v -0.003116 -0.006822 -0.013500
v -0.001768 -0.007289 -0.013500
v -0.000357 -0.007492 -0.013500
v 0.001067 -0.007424 -0.013500
v -0.007500 -0.000000 -0.013500
v -0.007364 -0.001419 -0.013500
v -0.006963 -0.002787 -0.013500
v -0.006309 -0.004055 -0.013500
v -0.005428 -0.005176 -0.013500
v -0.006309 0.004055 -0.013500
v -0.006963 0.002787 -0.013500
v -0.007364 0.001419 -0.013500
v -0.003116 0.006822 -0.013500
v -0.004350 0.006109 -0.013500
v -0.005428 0.005176 -0.013500
v 0.003750 0.006495 -0.013500
v 0.002453 0.007088 -0.013500
v 0.001067 0.007424 -0.013500
v -0.000357 0.007492 -0.013500
v -0.001768 0.007289 -0.013500
v 0.007498 0.000462 -0.013500
v 0.007196 0.002113 -0.013500
v 0.006666 0.003437 -0.013500
v 0.005895 0.004636 -0.013500
v 0.004911 0.005668 -0.013500
v -0.015018 -0.007420 0.000000
v -0.014920 -0.017117 -0.005500
v -0.014733 -0.017755 -0.012000
v -0.014931 0.017031 -0.012000
v -0.011972 0.012853 -0.000000
v -0.010122 0.014366 -0.005500
v -0.007811 0.015702 -0.000000
v -0.005328 0.016691 -0.005500
v -0.002894 0.017362 -0.000000
v 0.000007 0.017584 -0.005500
v 0.003074 0.017280 -0.000000
v 0.005236 0.016720 -0.005500
v 0.007335 0.015930 -0.000000
v 0.009135 0.014951 -0.005500
v 0.014288 0.010205 -0.000000
v 0.012476 0.012314 -0.005500
v 0.010723 0.013855 -0.000000
v 0.017041 0.004502 -0.000000
v 0.017039 0.004460 0.000700
v 0.017005 0.004284 0.000700
v 0.017234 0.004601 0.000700
v 0.020657 -0.005021 0.000700
v 0.020228 0.005396 0.000700
v 0.020657 0.005021 0.000700
v 0.020514 0.005249 0.000700
v 0.017234 -0.004601 0.000700
v 0.020228 -0.005396 0.000700
v 0.021128 0.002273 0.000700
v 0.017380 0.002043 0.000700
v 0.021250 -0.000000 0.000700
v 0.017500 -0.000000 0.000700
v 0.021128 -0.002273 0.000700
v 0.017380 -0.002043 0.000700
v 0.017005 -0.004284 0.000700
v 0.020514 -0.005250 0.000700
v -0.007483 -0.000843 0.000000
v -0.007483 0.000843 -0.013500
v -0.007108 0.002649 -0.000000
v -0.006634 0.003564 -0.013500
v -0.005042 0.005565 -0.000000
v -0.004790 0.005783 -0.013500
v -0.002584 0.007073 -0.000000
v -0.001610 0.007413 -0.013500
v 0.000230 0.007527 -0.000000
v 0.001900 0.007287 -0.013500
v 0.003575 0.006673 -0.000000
v 0.004490 0.006019 -0.013500
v 0.006657 0.003637 -0.000000
v 0.006403 0.003963 -0.013500
v 0.007559 0.000529 -0.013500
v 0.007559 -0.000529 0.000000
v 0.006657 -0.003637 -0.013500
v 0.006403 -0.003963 0.000000
v 0.004490 -0.006019 0.000000
v 0.003575 -0.006673 -0.013500
v 0.001900 -0.007287 0.000000
v 0.000230 -0.007527 -0.013500
v -0.001610 -0.007413 0.000000
v -0.002584 -0.007073 -0.013500
v -0.004790 -0.005783 0.000000
v -0.005042 -0.005565 -0.013500
v -0.006634 -0.003564 0.000000
v -0.007108 -0.002649 -0.013500
v 0.017507 -0.000843 0.000700
v 0.017507 0.000843 -0.000000
v 0.014870 0.008998 -0.005500
v 0.014781 0.008576 -0.000000
v 0.014106 0.006876 -0.005500
v 0.014097 0.006740 -0.000000
v 0.014504 0.005365 -0.005500
v 0.014586 0.005256 -0.000000
v 0.015982 0.004419 -0.005500
v 0.015943 0.004455 -0.000000
v 0.014804 -0.004906 0.000000
v 0.014586 -0.005256 -0.005500
v 0.014097 -0.006740 -0.005500
v 0.014106 -0.006876 0.000000
v 0.014780 -0.008584 -0.005500
v 0.014700 -0.008354 0.000000
vn -0.8395 0.5432 0.0140
vn 0.5431 0.8395 0.0177
vn -0.6798 0.7331 0.0206
vn 0.9226 0.3857 0.0063
vn -0.1479 0.9887 0.0251
vn -0.1503 0.9883 0.0265
vn -0.7352 -0.6777 -0.0082
vn -0.9358 -0.3524 0.0082
vn -0.9852 -0.1711 0.0009
vn -0.6824 -0.7309 0.0116
vn -0.5397 -0.8417 -0.0151
vn -0.4502 -0.8929 0.0089
vn -0.2684 -0.9632 -0.0157
vn -0.1880 -0.9821 0.0126
vn 0.0182 -0.9997 -0.0131
vn 0.1268 -0.9918 0.0123
vn 0.2867 -0.9578 -0.0186
vn 0.4165 -0.9090 0.0124
vn 0.5564 -0.8306 -0.0207
vn 0.6633 -0.7483 0.0055
vn 0.8548 -0.5185 -0.0218
vn 0.9317 -0.3628 0.0173
vn -0.0000 -0.0000 1.0000
vn 0.7249 -0.6888 0.0033
vn 0.7212 -0.6927 -0.0025
vn 0.9746 -0.2238 -0.0044
vn 0.9933 0.1144 -0.0164
vn 0.7459 0.6661 -0.0075
vn 0.7210 0.6928 0.0079
vn 0.9999 0.0082 0.0108
vn 0.5532 -0.8329 0.0141
vn 0.7422 -0.6701 0.0079
vn 0.6407 -0.7678 0.0051
vn 0.7879 -0.6157 -0.0081
vn 0.8297 -0.5579 0.0169
vn 0.6011 -0.7991 -0.0065
vn 0.7122 -0.7019 -0.0086
vn 0.8614 -0.5071 -0.0304
vn 0.6379 -0.7698 0.0236
vn -0.6769 -0.7355 -0.0280
vn -0.9930 -0.1154 0.0232
vn -0.9449 0.3262 -0.0277
vn -0.3948 -0.9184 0.0253
vn 0.3948 -0.9184 -0.0253
vn 0.6769 -0.7355 0.0280
vn 0.9930 -0.1154 -0.0232
vn 0.9449 0.3262 0.0277
vn 0.6808 0.7322 -0.0203
vn 0.1892 0.9817 0.0218
vn -0.1892 0.9817 -0.0218
vn -0.6808 0.7322 0.0203
vn -0.6808 -0.7322 -0.0203
vn -0.9449 -0.3262 0.0277
vn -0.9930 0.1154 -0.0232
vn -0.1892 -0.9817 0.0218
vn 0.1892 -0.9817 -0.0218
vn 0.6808 -0.7322 0.0203
vn 0.9449 -0.3262 -0.0277
vn 0.9930 0.1154 0.0232
vn 0.6769 0.7355 -0.0280
vn 0.3948 0.9184 0.0253
vn -0.3948 0.9184 -0.0253
vn -0.6769 0.7355 0.0280
vn 0.6415 0.7671 -0.0064
vn 0.7879 0.6157 0.0081
vn 0.8297 0.5579 -0.0169
vn 0.6048 0.7963 0.0067
vn 0.9940 0.1091 -0.0024
vn 0.9940 0.1089 -0.0067
vn 0.9945 0.1052 -0.0023
vn 0.9951 0.0986 0.0025
vn 0.9952 0.0972 -0.0098
vn 0.9948 0.1017 -0.0075
vn 0.9909 -0.1334 0.0164
vn 0.9908 -0.1335 0.0201
vn 0.9913 -0.1296 0.0207
vn 0.9953 -0.0969 -0.0025
vn 0.9954 -0.0956 0.0094
vn 0.9950 -0.1001 0.0071
vn -0.0000 -0.0000 -1.0000
vn -0.9101 0.4144 0.0044
vn -0.8763 0.4816 -0.0071
vn -0.8190 -0.5738 0.0069
vn -0.8615 -0.5078 -0.0030
vn -0.0730 -0.9973 -0.0116
vn 0.0730 -0.9973 0.0116
vn 0.8190 -0.5738 -0.0069
vn 0.8615 -0.5078 0.0030
vn 0.8763 0.4816 0.0071
vn 0.9101 0.4144 -0.0044
vn 0.0708 0.9974 -0.0131
vn -0.0708 0.9974 0.0131
vn 0.5125 0.8586 -0.0100
vn 0.4048 0.9143 0.0141
vn 0.2920 0.9564 -0.0087
vn 0.6200 0.7842 0.0244
vn 0.7288 0.6806 -0.0751
vn 0.8458 0.5335 0.0084
vn 0.1648 0.9858 0.0333
vn 0.0228 0.9997 -0.0101
vn -0.1034 0.9933 0.0513
vn -0.3062 0.9519 -0.0049
vn -0.3665 0.9304 -0.0048
vn -0.6099 0.7924 0.0136
vn -0.5422 0.8403 0.0025
vn -0.7495 0.6606 -0.0435
vn -0.8293 0.5583 0.0253
vn -0.9420 0.3354 -0.0087
vn -0.9488 0.3153 -0.0212
vn -0.7238 -0.6898 0.0145
vn -0.9480 -0.3182 -0.0103
vn -0.9027 -0.4301 -0.0130
vn -0.7735 -0.6338 0.0100
vn -0.5791 -0.8145 -0.0362
vn -0.4607 -0.8871 0.0280
vn -0.3247 -0.9446 -0.0480
vn -0.1655 -0.9862 -0.0030
vn -0.0593 -0.9982 -0.0132
vn 0.1240 -0.9919 0.0282
vn 0.2588 -0.9656 -0.0262
vn 0.4130 -0.9099 0.0387
vn 0.6217 -0.7830 0.0184
vn 0.5226 -0.8526 0.0052
vn 0.7234 -0.6880 -0.0579
vn 0.8258 -0.5639 0.0059
vn 0.8882 -0.4584 -0.0318
vn 0.9602 -0.2791 -0.0090
vn 0.9719 -0.2352 0.0023
vn 0.9998 -0.0187 -0.0029
vn 0.9998 0.0187 0.0029
vn 0.9700 0.2430 -0.0043
vn 0.9587 0.2844 -0.0088
vn 0.8889 0.4581 0.0007
vn -0.9837 -0.1798 0.0017
vn -0.9904 -0.1378 0.0062
vn -0.9822 -0.1881 -0.0030
vn -0.9971 0.0756 -0.0075
vn -0.9801 0.1982 0.0092
vn -0.9791 0.2033 0.0034
vn 0.3674 -0.9299 0.0168
vn 0.8830 -0.4690 -0.0193
vn 0.9824 -0.1862 0.0122
vn -0.0581 -0.9982 -0.0170
vn -0.5473 -0.8368 0.0175
vn -0.8971 -0.4415 -0.0177
vn -0.9965 0.0799 0.0241
vn -0.8311 0.5558 -0.0175
vn -0.2592 0.9657 0.0126
vn -0.0291 0.9996 -0.0030
vn 0.7956 0.6058 -0.0041
vn 0.7143 0.6999 0.0020
vn -0.4048 -0.9144 0.0078
vn 0.1431 -0.9895 0.0203
vn -0.8318 -0.5551 -0.0041
vn -0.0708 -0.9974 -0.0131
vn -0.8763 -0.4817 0.0071
vn -0.9101 -0.4144 -0.0044
vn 0.0708 -0.9974 0.0131
vn 0.8763 -0.4817 -0.0071
vn 0.9101 -0.4144 0.0044
vn 0.8190 0.5738 0.0069
vn 0.8615 0.5078 -0.0030
vn 0.0730 0.9973 -0.0116
vn -0.0730 0.9973 0.0116
vn -0.8190 0.5738 -0.0069
vn -0.8615 0.5078 0.0030
vn 0.8586 -0.5123 0.0164
vn 0.9997 0.0146 -0.0206
vn 0.8731 0.4872 0.0206
vn 0.4581 -0.8887 -0.0171
vn 0.0476 -0.9987 0.0171
vn -0.4875 -0.8730 -0.0164
vn -0.8731 -0.4872 0.0206
vn -0.9997 -0.0146 -0.0206
vn -0.8586 0.5123 0.0164
vn -0.4581 0.8887 -0.0171
vn -0.0476 0.9987 0.0171
vn 0.4875 0.8730 -0.0164
vn 0.8971 0.4415 -0.0177
vn 0.9965 -0.0799 0.0241
vn 0.8311 -0.5558 -0.0175
vn 0.2592 -0.9657 0.0126
vn 0.0291 -0.9996 -0.0030
vn -0.7956 -0.6058 -0.0041
vn -0.7143 -0.6999 0.0020
vn -0.9824 0.1862 0.0122
vn -0.8830 0.4690 -0.0193
vn -0.3674 0.9299 0.0168
vn 0.0581 0.9982 -0.0170
vn 0.5473 0.8368 0.0175
vn 0.9965 0.0799 -0.0241
vn 0.8971 -0.4415 0.0177
vn 0.5473 -0.8368 -0.0175
vn 0.0581 -0.9982 0.0170
vn -0.3674 -0.9299 -0.0168
vn -0.8830 -0.4690 0.0193
vn -0.9824 -0.1862 -0.0122
vn -0.7956 0.6058 0.0041
vn -0.7143 0.6999 -0.0020
vn 0.2592 0.9657 -0.0126
vn 0.0291 0.9996 0.0030
vn 0.8311 0.5558 0.0175
vn -0.7018 -0.7123 0.0078
vn -0.8854 -0.4641 -0.0269
vn -0.4736 -0.8806 -0.0125
vn -0.4373 -0.8993 0.0076
vn -0.2762 -0.9611 -0.0081
vn -0.1964 -0.9805 0.0109
vn -0.0565 -0.9983 -0.0126
vn 0.0559 -0.9984 0.0119
vn 0.1948 -0.9808 -0.0124
vn 0.2752 -0.9614 0.0066
vn 0.4367 -0.8996 -0.0084
vn 0.4743 -0.8803 0.0128
vn 0.6943 -0.7194 0.0213
vn 0.9693 -0.2455 -0.0113
vn 0.8945 0.4468 0.0188
vn 0.3733 -0.9276 -0.0162
vn -0.3733 -0.9276 0.0162
vn -0.6943 -0.7194 -0.0213
vn -0.9693 -0.2455 0.0113
vn -0.8945 0.4468 -0.0188
vn -0.8341 0.5515 0.0048
vn -0.0494 0.9988 0.0060
vn 0.0494 0.9988 -0.0060
vn 0.8341 0.5515 -0.0048
vn -0.8862 0.4625 0.0264
vn -0.9674 0.2534 -0.0034
vn -0.9791 0.2032 -0.0006
vn -0.9365 0.3505 0.0092
vn 0.7956 -0.6058 0.0041
vn 0.9824 0.1862 -0.0122
vn 0.8830 0.4690 0.0193
vn 0.7143 -0.6999 -0.0020
vn -0.2592 -0.9657 -0.0126
vn -0.0291 -0.9996 0.0030
vn -0.8311 -0.5558 0.0175
vn -0.9965 -0.0799 -0.0241
vn -0.8971 0.4415 0.0177
vn -0.5473 0.8368 -0.0175
vn -0.0581 0.9982 0.0170
vn 0.3674 0.9299 -0.0168
vn 0.0005 -0.0002 1.0000
vn -0.0001 -0.0000 1.0000
vn 0.7117 0.7025 0.0048
vn 0.6864 0.7271 -0.0111
vn 0.4471 0.8945 0.0022
vn 0.3276 0.9447 -0.0158
vn 0.2364 0.9716 0.0111
vn 0.0744 0.9972 -0.0124
vn -0.0099 0.9999 0.0122
vn -0.1675 0.9858 -0.0099
vn -0.2633 0.9646 0.0128
vn -0.4081 0.9129 -0.0105
vn -0.4791 0.8776 0.0153
vn -0.7085 0.7056 -0.0133
vn -0.9627 -0.2704 0.0059
vn 0.8467 0.5321 -0.0035
vn 0.8470 0.5315 -0.0037
vn -0.6879 0.7258 -0.0010
vn -0.5858 0.8101 -0.0232
vn -0.4436 0.8961 0.0124
vn -0.3073 0.9514 -0.0226
vn -0.1611 0.9869 0.0123
vn 0.0023 0.9999 -0.0138
vn 0.1663 0.9860 0.0140
vn 0.2933 0.9558 -0.0187
vn 0.4159 0.9094 0.0093
vn 0.5212 0.8533 -0.0150
vn 0.7181 0.6958 -0.0146
vn 0.8593 0.5112 0.0182
vn 0.9913 0.1301 -0.0214
vn 0.6206 0.7840 0.0144
vn 0.9952 0.0977 -0.0114
vn 0.9952 -0.0977 0.0114
vn 0.9349 -0.3547 -0.0105
vn 0.8771 -0.4802 0.0074
vn 0.6819 -0.7314 -0.0065
vn 0.6269 -0.7790 0.0065
vn 0.3505 -0.9365 -0.0074
vn 0.2180 -0.9759 0.0105
vn -0.0450 -0.9989 -0.0114
vn -0.2430 -0.9700 0.0116
vn -0.4916 -0.8707 -0.0117
vn -0.6000 -0.8000 0.0041
vn -0.8756 -0.4830 -0.0124
vn -0.8571 -0.5151 0.0037
vn -0.9983 -0.0579 0.0109
vn -0.9983 0.0579 -0.0109
vn -0.8756 0.4830 0.0124
vn -0.8571 0.5151 -0.0037
vn -0.6000 0.8000 -0.0041
vn -0.4916 0.8707 0.0117
vn -0.2430 0.9700 -0.0116
vn -0.0450 0.9989 0.0114
vn 0.2180 0.9759 -0.0105
vn 0.3505 0.9365 0.0074
vn 0.6269 0.7790 -0.0065
vn 0.6819 0.7314 0.0065
vn 0.8771 0.4802 -0.0074
vn 0.9349 0.3547 0.0105
vn -0.9879 0.0666 0.1402
vn -0.9873 -0.0672 -0.1440
vn 0.9988 -0.0471 0.0146
vn 0.9988 -0.0497 -0.0012
vn 0.9998 -0.0194 -0.0064
vn 0.8085 0.5885 0.0073
vn 0.7777 0.6287 -0.0041
vn 0.4605 0.8877 0.0053
vn 0.2445 0.9696 -0.0046
vn -0.1013 0.9948 -0.0068
vn 0.6580 -0.7526 -0.0244
vn 0.7830 -0.6219 0.0085
vn 0.9999 0.0106 -0.0050
vn 0.9997 0.0232 -0.0052
vn 0.9991 0.0424 -0.0093
vn 0.9851 0.1721 0.0062
s 1
usemtl link5_01_mat
f 1129//1 5//2 1128//3
f 6//4 1128//3 5//2
s 0
f 1182//5 1128//5 6//6
s 1
f 7//7 2//8 1//9
f 2//8 7//7 8//10
f 9//11 8//10 7//7
f 8//10 9//11 10//12
f 11//13 10//12 9//11
f 10//12 11//13 12//14
f 13//15 12//14 11//13
f 12//14 13//15 14//16
f 15//17 14//16 13//15
f 14//16 15//17 16//18
f 17//19 16//18 15//17
f 16//18 17//19 18//20
f 19//21 18//20 17//19
f 18//20 19//21 20//22
s 0
f 21//23 22//23 23//23
f 26//23 27//23 28//23
f 29//23 30//23 27//23
f 31//23 32//23 23//23
f 31//23 23//23 33//23
f 34//23 38//23 32//23
f 35//23 36//23 34//23
f 37//23 34//23 36//23
f 37//23 38//23 34//23
f 39//23 40//23 23//23
f 33//23 23//23 40//23
f 41//23 42//23 43//23
f 44//23 36//23 45//23
f 45//23 36//23 35//23
f 46//23 43//23 42//23
f 43//23 46//23 47//23
f 47//23 48//23 43//23
f 49//23 43//23 48//23
f 43//23 49//23 23//23
f 50//23 23//23 49//23
f 23//23 50//23 39//23
f 51//23 52//23 53//23
f 54//23 53//23 52//23
f 53//23 54//23 55//23
f 56//23 55//23 54//23
f 55//23 56//23 57//23
f 58//23 57//23 56//23
f 36//23 57//23 58//23
f 57//23 36//23 44//23
f 59//23 60//23 61//23
f 61//23 60//23 62//23
f 63//23 64//23 43//23
f 65//23 43//23 64//23
f 43//23 65//23 66//23
f 67//23 68//23 69//23
f 62//23 70//23 61//23
f 71//23 61//23 70//23
f 61//23 71//23 43//23
f 72//23 43//23 71//23
f 43//23 72//23 63//23
f 52//23 43//23 66//23
f 43//23 52//23 41//23
f 51//23 41//23 52//23
f 67//23 69//23 73//23
f 74//23 73//23 69//23
f 73//23 74//23 75//23
f 76//23 75//23 74//23
f 75//23 76//23 77//23
f 78//23 77//23 76//23
f 77//23 78//23 79//23
f 52//23 79//23 78//23
f 79//23 52//23 80//23
f 66//23 80//23 52//23
f 59//23 61//23 81//23
f 68//23 84//23 69//23
f 69//23 84//23 85//23
f 82//23 85//23 84//23
f 85//23 82//23 83//23
f 86//23 87//23 61//23
f 82//23 81//23 83//23
f 61//23 83//23 81//23
f 83//23 61//23 88//23
f 87//23 88//23 61//23
f 89//23 90//23 61//23
f 91//23 61//23 90//23
f 61//23 91//23 86//23
f 92//23 93//23 28//23
f 27//23 30//23 28//23
f 94//23 28//23 30//23
f 28//23 94//23 92//23
f 95//23 61//23 96//23
f 28//23 96//23 61//23
f 96//23 28//23 97//23
f 93//23 97//23 28//23
f 95//23 98//23 61//23
f 61//23 98//23 99//23
f 99//23 100//23 61//23
f 101//23 61//23 100//23
f 61//23 101//23 89//23
f 102//23 103//23 104//23
f 101//23 105//23 89//23
f 106//23 89//23 105//23
f 107//23 89//23 106//23
f 89//23 107//23 108//23
f 108//23 107//23 103//23
f 109//23 103//23 107//23
f 103//23 109//23 104//23
f 104//23 110//23 102//23
f 111//23 102//23 110//23
f 102//23 111//23 27//23
f 112//23 27//23 111//23
f 27//23 112//23 29//23
f 24//23 113//23 28//23
f 114//23 28//23 113//23
f 114//23 115//23 28//23
f 116//23 28//23 115//23
f 28//23 116//23 26//23
f 117//23 118//23 28//23
f 28//23 118//23 24//23
f 24//23 118//23 25//23
f 25//23 119//23 120//23
f 24//23 25//23 120//23
f 121//23 122//23 119//23
f 123//23 124//23 125//23
f 126//23 127//23 28//23
f 128//23 28//23 127//23
f 121//23 119//23 25//23
f 129//23 130//23 131//23
f 123//23 125//23 132//23
f 124//23 133//23 125//23
f 134//23 125//23 133//23
f 125//23 134//23 28//23
f 135//23 28//23 134//23
f 28//23 135//23 126//23
f 129//23 131//23 125//23
f 132//23 125//23 131//23
f 137//23 138//23 139//23
f 140//23 139//23 138//23
f 141//23 139//23 140//23
f 139//23 141//23 122//23
f 119//23 122//23 141//23
f 130//23 129//23 142//23
f 136//23 142//23 129//23
f 142//23 136//23 143//23
f 136//23 144//23 143//23
f 145//23 143//23 144//23
f 143//23 145//23 137//23
f 146//23 137//23 145//23
f 137//23 146//23 138//23
f 129//23 148//23 136//23
f 149//23 136//23 148//23
f 136//23 149//23 150//23
f 151//23 150//23 149//23
f 150//23 151//23 152//23
f 152//23 151//23 147//23
f 153//23 154//23 155//23
f 156//23 157//23 129//23
f 160//23 159//23 158//23
f 161//23 162//23 125//23
f 161//23 125//23 163//23
f 160//23 164//23 159//23
f 165//23 159//23 164//23
f 159//23 165//23 125//23
f 166//23 125//23 165//23
f 125//23 166//23 163//23
f 167//23 168//23 129//23
f 169//23 129//23 168//23
f 162//23 170//23 125//23
f 125//23 170//23 129//23
f 171//23 129//23 170//23
f 129//23 171//23 167//23
f 172//23 169//23 173//23
f 174//23 173//23 169//23
f 173//23 174//23 175//23
f 154//23 153//23 176//23
f 156//23 176//23 153//23
f 176//23 156//23 177//23
f 129//23 177//23 156//23
f 169//23 177//23 129//23
f 177//23 169//23 178//23
f 172//23 178//23 169//23
f 175//23 174//23 179//23
f 179//23 174//23 180//23
f 181//23 180//23 174//23
f 180//23 181//23 182//23
f 183//23 182//23 181//23
f 159//23 184//23 185//23
f 187//23 184//23 159//23
f 184//23 187//23 186//23
f 187//23 188//23 186//23
f 183//23 189//23 182//23
f 186//23 182//23 189//23
f 182//23 186//23 188//23
f 190//23 191//23 159//23
f 192//23 159//23 191//23
f 159//23 192//23 187//23
f 193//23 194//23 159//23
f 195//23 159//23 194//23
f 159//23 195//23 190//23
f 193//23 196//23 197//23
f 198//23 199//23 200//23
f 201//23 193//23 197//23
f 193//23 201//23 199//23
f 199//23 201//23 200//23
f 22//23 202//23 23//23
f 203//23 23//23 202//23
f 23//23 203//23 204//23
f 200//23 206//23 198//23
f 207//23 198//23 206//23
f 198//23 207//23 208//23
f 209//23 208//23 207//23
f 208//23 209//23 22//23
f 210//23 22//23 209//23
f 22//23 210//23 202//23
f 204//23 211//23 23//23
f 212//23 23//23 211//23
f 212//23 213//23 23//23
f 214//23 23//23 213//23
f 23//23 214//23 159//23
f 215//23 159//23 214//23
f 159//23 215//23 205//23
f 205//23 216//23 159//23
f 217//23 159//23 216//23
f 159//23 217//23 193//23
f 218//23 193//23 217//23
f 193//23 218//23 196//23
f 32//23 38//23 23//23
f 219//23 23//23 38//23
f 23//23 219//23 220//23
f 220//23 221//23 23//23
f 222//23 23//23 221//23
f 23//23 222//23 21//23
f 223//23 224//23 28//23
f 225//23 28//23 224//23
f 28//23 225//23 125//23
f 226//23 125//23 225//23
f 61//23 227//23 228//23
f 229//23 230//23 28//23
f 231//23 28//23 230//23
f 28//23 231//23 223//23
f 228//23 232//23 61//23
f 233//23 61//23 232//23
f 61//23 233//23 28//23
f 234//23 28//23 233//23
f 28//23 234//23 229//23
f 235//23 61//23 236//23
f 43//23 236//23 61//23
f 236//23 43//23 237//23
f 238//23 237//23 43//23
f 235//23 239//23 61//23
f 240//23 61//23 239//23
f 227//23 61//23 240//23
f 238//23 43//23 241//23
f 23//23 241//23 43//23
f 241//23 23//23 242//23
f 243//23 244//23 23//23
f 245//23 23//23 244//23
f 23//23 245//23 242//23
f 246//23 247//23 159//23
f 247//23 248//23 159//23
f 249//23 159//23 248//23
f 159//23 249//23 23//23
f 250//23 23//23 249//23
f 23//23 250//23 243//23
f 251//23 252//23 159//23
f 253//23 159//23 252//23
f 159//23 253//23 246//23
f 226//23 254//23 125//23
f 125//23 254//23 159//23
f 255//23 159//23 254//23
f 159//23 255//23 251//23
f 159//23 185//23 158//23
f 28//23 128//23 117//23
s 1
f 256//24 257//25 258//26
f 259//27 300//28 6//4
f 6//4 300//28 301//29
f 6//4 5//2 259//27
f 260//30 259//27 5//2
f 259//27 260//30 258//26
f 261//31 258//26 260//30
f 262//32 258//26 261//31
f 258//26 262//32 256//24
f 267//33 265//34 266//35
f 265//34 267//33 268//36
f 268//36 267//33 256//24
f 257//25 256//24 267//33
f 270//37 271//38 269//39
f 273//40 272//41 283//42
f 272//41 273//40 274//43
f 275//44 274//43 273//40
f 274//43 275//44 276//45
f 277//46 276//45 275//44
f 276//45 277//46 278//47
f 279//48 278//47 277//46
f 278//47 279//48 280//49
f 281//50 280//49 279//48
f 280//49 281//50 282//51
f 283//42 282//51 281//50
f 282//51 283//42 272//41
f 286//52 284//53 285//54
f 284//53 286//52 287//55
f 288//56 287//55 286//52
f 287//55 288//56 289//57
f 290//58 289//57 288//56
f 289//57 290//58 291//59
f 292//60 291//59 290//58
f 291//59 292//60 293//61
f 294//62 293//61 292//60
f 293//61 294//62 295//63
f 285//54 295//63 294//62
f 295//63 285//54 284//53
f 298//64 296//65 297//66
f 296//65 298//64 299//67
f 299//67 298//64 300//28
f 301//29 300//28 298//64
s 0
f 302//68 303//69 296//70
f 297//71 296//72 303//73
f 269//74 271//75 265//76
f 266//77 265//78 271//79
f 305//80 306//80 307//80
f 308//80 309//80 310//80
f 317//80 316//80 315//80
f 317//80 318//80 316//80
f 319//80 316//80 318//80
f 322//80 321//80 320//80
f 321//80 322//80 323//80
f 323//80 322//80 324//80
f 325//80 324//80 322//80
f 324//80 325//80 326//80
f 327//80 328//80 329//80
f 330//80 331//80 332//80
f 329//80 333//80 334//80
f 335//80 336//80 329//80
f 337//80 338//80 339//80
f 340//80 326//80 325//80
f 326//80 340//80 341//80
f 342//80 341//80 340//80
f 341//80 342//80 343//80
f 336//80 344//80 329//80
f 345//80 329//80 344//80
f 329//80 345//80 327//80
f 339//80 346//80 337//80
f 347//80 337//80 346//80
f 337//80 347//80 331//80
f 331//80 347//80 332//80
f 348//80 349//80 329//80
f 350//80 329//80 349//80
f 329//80 350//80 333//80
f 351//80 352//80 338//80
f 339//80 338//80 352//80
f 351//80 335//80 352//80
f 329//80 352//80 335//80
f 334//80 352//80 329//80
f 352//80 334//80 342//80
f 353//80 342//80 334//80
f 342//80 353//80 343//80
f 348//80 354//80 349//80
f 355//80 349//80 354//80
f 349//80 355//80 356//80
f 357//80 358//80 359//80
f 360//80 361//80 362//80
f 314//80 313//80 361//80
f 365//80 361//80 313//80
f 361//80 365//80 362//80
f 358//80 366//80 359//80
f 359//80 366//80 313//80
f 367//80 360//80 362//80
f 360//80 367//80 368//80
f 369//80 329//80 328//80
f 329//80 369//80 370//80
f 367//80 371//80 368//80
f 368//80 371//80 372//80
f 373//80 372//80 371//80
f 372//80 373//80 374//80
f 375//80 374//80 373//80
f 376//80 377//80 378//80
f 379//80 378//80 377//80
f 378//80 379//80 373//80
f 380//80 373//80 379//80
f 373//80 380//80 381//80
f 375//80 373//80 370//80
f 370//80 373//80 329//80
f 381//80 329//80 373//80
f 329//80 381//80 382//80
f 378//80 383//80 376//80
f 384//80 376//80 383//80
f 376//80 384//80 385//80
f 385//80 384//80 386//80
f 387//80 386//80 384//80
f 386//80 387//80 363//80
f 363//80 387//80 364//80
f 382//80 388//80 329//80
f 391//80 329//80 388//80
f 329//80 391//80 389//80
f 390//80 389//80 391//80
f 393//80 391//80 392//80
f 391//80 393//80 390//80
f 359//80 394//80 395//80
f 395//80 396//80 359//80
f 397//80 359//80 396//80
f 359//80 397//80 398//80
f 364//80 357//80 363//80
f 359//80 363//80 357//80
f 398//80 363//80 359//80
f 399//80 359//80 400//80
f 310//80 400//80 359//80
f 400//80 310//80 401//80
f 402//80 359//80 399//80
f 310//80 403//80 404//80
f 405//80 406//80 407//80
f 401//80 310//80 404//80
f 406//80 408//80 407//80
f 409//80 407//80 408//80
f 407//80 409//80 410//80
f 402//80 411//80 359//80
f 359//80 411//80 394//80
f 412//80 394//80 411//80
f 394//80 412//80 405//80
f 413//80 405//80 412//80
f 405//80 413//80 406//80
f 414//80 410//80 409//80
f 410//80 414//80 415//80
f 416//80 415//80 414//80
f 415//80 416//80 310//80
f 403//80 310//80 416//80
f 417//80 418//80 310//80
f 417//80 310//80 312//80
f 418//80 419//80 310//80
f 420//80 310//80 419//80
f 310//80 420//80 415//80
f 421//80 422//80 423//80
f 424//80 425//80 312//80
f 426//80 312//80 425//80
f 427//80 428//80 421//80
f 430//80 429//80 312//80
f 424//80 421//80 423//80
f 312//80 421//80 424//80
f 421//80 312//80 427//80
f 311//80 427//80 312//80
f 431//80 432//80 433//80
f 312//80 310//80 430//80
f 429//80 434//80 312//80
f 312//80 434//80 311//80
f 435//80 421//80 428//80
f 421//80 435//80 436//80
f 436//80 435//80 437//80
f 438//80 437//80 435//80
f 437//80 438//80 432//80
f 432//80 438//80 433//80
f 433//80 439//80 431//80
f 431//80 439//80 309//80
f 440//80 309//80 439//80
f 441//80 309//80 440//80
f 309//80 441//80 310//80
f 310//80 441//80 442//80
f 443//80 310//80 442//80
f 310//80 443//80 430//80
f 444//80 445//80 359//80
f 446//80 359//80 445//80
f 359//80 446//80 310//80
f 447//80 310//80 446//80
f 310//80 447//80 308//80
f 313//80 314//80 359//80
f 359//80 314//80 444//80
f 448//80 449//80 316//80
f 448//80 316//80 450//80
f 332//80 315//80 330//80
f 316//80 330//80 315//80
f 449//80 330//80 316//80
f 451//80 452//80 453//80
f 454//80 453//80 452//80
f 453//80 454//80 450//80
f 455//80 456//80 304//80
f 458//80 304//80 457//80
f 304//80 458//80 453//80
f 459//80 453//80 458//80
f 453//80 459//80 460//80
f 456//80 461//80 304//80
f 304//80 461//80 457//80
f 462//80 463//80 464//80
f 465//80 453//80 460//80
f 453//80 465//80 451//80
f 466//80 451//80 465//80
f 451//80 466//80 463//80
f 464//80 463//80 466//80
f 464//80 468//80 462//80
f 469//80 462//80 468//80
f 462//80 469//80 470//80
f 470//80 469//80 471//80
f 472//80 471//80 469//80
f 471//80 472//80 307//80
f 307//80 472//80 467//80
f 474//80 304//80 473//80
f 304//80 474//80 475//80
f 467//80 455//80 307//80
f 304//80 307//80 455//80
f 475//80 307//80 304//80
f 307//80 475//80 305//80
f 476//80 477//80 453//80
f 478//80 453//80 477//80
f 453//80 478//80 304//80
f 453//80 480//80 476//80
f 483//80 481//80 482//80
f 481//80 483//80 484//80
f 319//80 321//80 316//80
f 321//80 319//80 320//80
f 321//80 485//80 316//80
f 486//80 316//80 485//80
f 316//80 486//80 487//80
f 487//80 488//80 316//80
f 316//80 488//80 481//80
f 489//80 490//80 316//80
f 491//80 492//80 480//80
f 481//80 480//80 492//80
f 480//80 481//80 479//80
f 484//80 479//80 481//80
f 492//80 493//80 481//80
f 481//80 493//80 494//80
f 495//80 496//80 480//80
f 491//80 480//80 496//80
f 316//80 497//80 498//80
f 450//80 316//80 453//80
f 490//80 453//80 316//80
f 453//80 490//80 499//80
f 500//80 453//80 499//80
f 500//80 501//80 453//80
f 453//80 501//80 480//80
f 495//80 480//80 501//80
f 494//80 502//80 481//80
f 481//80 502//80 316//80
f 497//80 316//80 502//80
f 489//80 316//80 498//80
s 1
f 514//81 513//82 503//83
f 504//84 503//83 513//82
f 505//85 503//83 504//84
f 503//83 505//85 506//86
f 507//87 506//86 505//85
f 506//86 507//87 508//88
f 508//88 507//87 509//89
f 510//90 509//89 507//87
f 511//91 509//89 510//90
f 509//89 511//91 512//92
f 513//82 512//92 511//91
f 512//92 513//82 514//81
f 517//93 516//94 521//95
f 516//94 517//93 518//96
f 519//97 518//96 517//93
f 518//96 519//97 554//98
f 520//99 521//95 516//94
f 521//95 520//99 522//100
f 523//101 522//100 520//99
f 522//100 523//101 524//102
f 525//103 524//102 523//101
f 526//104 524//102 525//103
f 524//102 526//104 527//105
f 527//105 526//104 528//106
f 529//107 528//106 526//104
f 528//106 529//107 530//108
f 531//109 530//108 529//107
f 533//110 515//111 532//112
f 515//111 533//110 534//113
f 534//113 533//110 535//114
f 536//115 535//114 533//110
f 536//115 537//116 535//114
f 536//115 538//117 537//116
f 537//116 538//117 539//118
f 540//119 539//118 538//117
f 539//118 540//119 541//120
f 542//121 541//120 540//119
f 543//122 544//123 542//121
f 542//121 544//123 541//120
f 544//123 543//122 545//124
f 546//125 545//124 543//122
f 545//124 546//125 547//126
f 548//127 547//126 546//125
f 547//126 548//127 549//128
f 550//129 549//128 548//127
f 549//128 550//129 551//130
f 552//131 551//130 550//129
f 551//130 552//131 553//132
f 554//98 553//132 552//131
f 553//132 554//98 555//133
f 555//133 554//98 519//97
f 515//111 1111//134 532//112
f 556//135 532//112 1111//134
f 532//112 556//135 557//136
f 557//136 556//135 558//137
f 559//138 558//137 556//135
f 558//137 559//138 531//109
f 772//139 531//109 559//138
f 531//109 772//139 530//108
s 0
f 560//23 561//23 562//23
f 563//23 564//23 565//23
f 570//23 565//23 564//23
f 565//23 570//23 571//23
f 572//23 571//23 570//23
f 571//23 572//23 562//23
f 565//23 573//23 563//23
f 574//23 563//23 573//23
f 563//23 574//23 575//23
f 574//23 576//23 575//23
f 577//23 575//23 576//23
f 575//23 577//23 578//23
f 579//23 580//23 581//23
f 582//23 578//23 577//23
f 578//23 582//23 583//23
f 584//23 583//23 582//23
f 583//23 584//23 585//23
f 585//23 584//23 586//23
f 587//23 586//23 584//23
f 586//23 587//23 588//23
f 591//23 562//23 561//23
f 562//23 591//23 571//23
f 592//23 571//23 591//23
f 567//23 566//23 593//23
f 594//23 593//23 566//23
f 593//23 594//23 580//23
f 580//23 594//23 581//23
f 566//23 567//23 587//23
f 595//23 587//23 567//23
f 587//23 595//23 588//23
f 596//23 588//23 595//23
f 588//23 596//23 597//23
f 568//23 569//23 589//23
f 598//23 560//23 562//23
f 560//23 598//23 599//23
f 600//23 599//23 598//23
f 601//23 599//23 600//23
f 599//23 601//23 602//23
f 603//23 602//23 601//23
f 604//23 602//23 603//23
f 602//23 604//23 605//23
f 581//23 606//23 579//23
f 579//23 606//23 607//23
f 608//23 607//23 606//23
f 607//23 608//23 609//23
f 610//23 588//23 597//23
f 588//23 610//23 611//23
f 611//23 610//23 612//23
f 613//23 612//23 610//23
f 612//23 613//23 614//23
f 614//23 613//23 615//23
f 616//23 615//23 613//23
f 615//23 616//23 569//23
f 617//23 618//23 619//23
f 620//23 621//23 622//23
f 567//23 622//23 621//23
f 622//23 567//23 623//23
f 593//23 623//23 567//23
f 624//23 625//23 626//23
f 627//23 626//23 625//23
f 626//23 627//23 628//23
f 629//23 625//23 624//23
f 625//23 629//23 630//23
f 631//23 630//23 629//23
f 616//23 632//23 569//23
f 633//23 569//23 632//23
f 569//23 633//23 589//23
f 589//23 633//23 590//23
f 589//23 590//23 634//23
f 634//23 590//23 618//23
f 619//23 618//23 590//23
f 627//23 609//23 628//23
f 608//23 628//23 609//23
f 628//23 608//23 592//23
f 571//23 592//23 608//23
f 635//23 636//23 631//23
f 637//23 631//23 636//23
f 631//23 637//23 630//23
f 619//23 638//23 617//23
f 639//23 617//23 638//23
f 617//23 639//23 620//23
f 620//23 639//23 621//23
f 642//23 641//23 640//23
f 643//23 644//23 641//23
f 645//23 646//23 647//23
f 648//23 649//23 645//23
f 651//23 652//23 653//23
f 644//23 654//23 641//23
f 655//23 641//23 654//23
f 641//23 655//23 640//23
f 605//23 604//23 656//23
f 657//23 656//23 604//23
f 658//23 656//23 657//23
f 656//23 658//23 635//23
f 659//23 635//23 658//23
f 635//23 659//23 648//23
f 648//23 645//23 635//23
f 635//23 645//23 650//23
f 642//23 636//23 641//23
f 635//23 641//23 636//23
f 641//23 635//23 650//23
f 651//23 653//23 660//23
f 661//23 645//23 647//23
f 649//23 662//23 645//23
f 646//23 645//23 662//23
f 660//23 653//23 641//23
f 663//23 641//23 653//23
f 641//23 663//23 643//23
s 1
f 666//140 664//141 665//142
f 664//141 666//140 667//143
f 668//144 667//143 666//140
f 667//143 668//144 669//145
f 670//146 669//145 668//144
f 669//145 670//146 671//147
f 672//148 671//147 670//146
f 671//147 672//148 673//149
f 673//149 672//148 674//150
f 675//151 674//150 672//148
f 665//142 674//150 675//151
f 674//150 665//142 664//141
f 262//32 263//152 676//153
f 263//152 262//32 264//154
f 261//31 264//154 262//32
f 679//52 677//53 678//54
f 677//53 679//52 680//55
f 681//56 680//55 679//52
f 680//55 681//56 682//57
f 683//58 682//57 681//56
f 682//57 683//58 684//59
f 685//60 684//59 683//58
f 684//59 685//60 686//61
f 687//62 686//61 685//60
f 686//61 687//62 688//63
f 678//54 688//63 687//62
f 688//63 678//54 677//53
f 690//40 689//41 700//42
f 689//41 690//40 691//43
f 692//44 691//43 690//40
f 691//43 692//44 693//45
f 694//46 693//45 692//44
f 693//45 694//46 695//47
f 696//48 695//47 694//46
f 695//47 696//48 697//49
f 698//50 697//49 696//48
f 697//49 698//50 699//51
f 700//42 699//51 698//50
f 699//51 700//42 689//41
f 703//155 701//156 702//157
f 701//156 703//155 704//158
f 705//159 704//158 703//155
f 704//158 705//159 706//160
f 706//160 705//159 707//161
f 708//162 707//161 705//159
f 709//163 707//161 708//162
f 707//161 709//163 710//164
f 711//165 710//164 709//163
f 710//164 711//165 712//166
f 712//166 711//165 701//156
f 702//157 701//156 711//165
f 714//167 713//168 724//169
f 713//168 714//167 715//170
f 716//171 715//170 714//167
f 715//170 716//171 717//172
f 718//173 717//172 716//171
f 717//172 718//173 719//174
f 720//175 719//174 718//173
f 719//174 720//175 721//176
f 722//177 721//176 720//175
f 721//176 722//177 723//178
f 724//169 723//178 722//177
f 723//178 724//169 713//168
f 736//179 725//180 726//181
f 727//182 726//181 725//180
f 726//181 727//182 728//183
f 728//183 727//182 729//184
f 730//185 729//184 727//182
f 731//186 729//184 730//185
f 729//184 731//186 732//187
f 733//188 732//187 731//186
f 732//187 733//188 734//189
f 735//190 734//189 733//188
f 734//189 735//190 736//179
f 725//180 736//179 735//190
f 748//191 737//192 738//193
f 739//194 738//193 737//192
f 738//193 739//194 740//195
f 741//196 740//195 739//194
f 740//195 741//196 742//197
f 743//198 742//197 741//196
f 742//197 743//198 744//199
f 744//199 743//198 745//200
f 746//201 745//200 743//198
f 747//202 745//200 746//201
f 745//200 747//202 748//191
f 737//192 748//191 747//202
f 749//203 1113//204 750//205
f 749//203 750//205 751//206
f 752//207 751//206 750//205
f 751//206 752//207 753//208
f 754//209 753//208 752//207
f 753//208 754//209 755//210
f 756//211 755//210 754//209
f 755//210 756//211 757//212
f 758//213 757//212 756//211
f 757//212 758//213 759//214
f 270//37 759//214 758//213
f 759//214 270//37 269//39
f 761//215 760//216 770//217
f 760//216 761//215 762//218
f 763//219 762//218 761//215
f 762//218 763//219 764//220
f 765//221 764//220 763//219
f 764//220 765//221 766//222
f 767//223 766//222 765//221
f 768//224 766//222 767//223
f 766//222 768//224 769//225
f 770//217 769//225 768//224
f 769//225 770//217 771//226
f 771//226 770//217 760//216
f 902//227 1114//228 3//229
f 530//108 3//229 1114//228
f 4//230 3//229 772//139
f 530//108 772//139 3//229
f 774//231 773//232 784//233
f 773//232 774//231 775//234
f 775//234 774//231 776//235
f 777//236 776//235 774//231
f 778//237 776//235 777//236
f 776//235 778//237 779//238
f 780//239 779//238 778//237
f 779//238 780//239 781//240
f 782//241 781//240 780//239
f 781//240 782//241 783//242
f 784//233 783//242 782//241
f 783//242 784//233 773//232
s 0
f 785//23 786//23 787//23
f 788//23 789//23 790//23
f 787//23 786//23 791//23
f 790//23 794//23 788//23
f 788//23 794//23 795//23
f 796//23 797//23 798//23
f 798//23 797//23 799//23
f 802//23 803//23 804//23
f 805//23 806//23 789//23
f 789//23 806//23 790//23
f 795//23 796//23 798//23
f 794//23 796//23 795//23
f 807//23 808//23 809//23
f 810//23 785//23 787//23
f 785//23 810//23 811//23
f 812//23 811//23 810//23
f 813//23 811//23 812//23
f 811//23 813//23 814//23
f 815//23 814//23 813//23
f 807//23 814//23 815//23
f 814//23 807//23 799//23
f 809//23 799//23 807//23
f 799//243 809//243 798//243
f 816//23 817//23 818//23
f 819//23 820//23 821//23
f 816//23 818//23 822//23
f 804//23 803//23 823//23
f 824//23 823//23 803//23
f 825//23 823//23 824//23
f 823//23 825//23 826//23
f 827//23 826//23 825//23
f 828//23 826//23 827//23
f 826//23 828//23 829//23
f 830//23 831//23 832//23
f 833//23 832//23 831//23
f 834//23 822//23 818//23
f 822//23 834//23 835//23
f 836//23 835//23 834//23
f 835//23 836//23 837//23
f 837//23 836//23 838//23
f 839//23 838//23 836//23
f 838//23 839//23 828//23
f 830//23 840//23 831//23
f 831//23 840//23 841//23
f 842//23 841//23 840//23
f 841//23 842//23 843//23
f 793//23 843//23 842//23
f 792//23 844//23 845//23
f 845//23 844//23 846//23
f 792//23 793//23 839//23
f 847//23 802//23 804//23
f 802//23 847//23 848//23
f 849//23 848//23 847//23
f 848//23 849//23 850//23
f 832//23 833//23 852//23
f 853//23 852//23 833//23
f 819//23 852//23 853//23
f 854//23 821//23 820//23
f 793//23 855//23 839//23
f 856//23 839//23 855//23
f 839//23 856//23 828//23
f 829//23 828//23 856//23
f 857//23 858//23 859//23
f 860//23 861//23 816//23
f 816//23 861//23 817//23
f 800//23 801//23 851//23
f 792//23 843//23 793//23
f 843//23 792//23 862//23
f 845//23 862//23 792//23
f 863//23 864//23 865//23
f 865//23 864//23 805//23
f 866//23 805//23 864//23
f 805//23 866//23 806//23
f 854//23 867//23 821//23
f 868//23 821//23 867//23
f 821//23 868//23 869//23
f 870//23 791//23 786//23
f 791//23 870//23 871//23
f 859//23 858//23 872//23
f 872//23 858//23 860//23
f 873//23 860//23 858//23
f 860//23 873//23 861//23
f 874//23 875//23 821//23
f 876//23 821//23 875//23
f 877//23 878//23 879//23
f 880//23 879//23 878//23
f 869//23 881//23 821//23
f 880//23 821//23 881//23
f 821//23 880//23 882//23
f 878//23 882//23 880//23
f 859//23 791//23 857//23
f 871//23 857//23 791//23
f 857//23 871//23 883//23
f 864//23 883//23 871//23
f 863//23 883//23 864//23
f 883//23 863//23 884//23
f 885//23 884//23 863//23
f 846//23 884//23 885//23
f 884//23 846//23 886//23
f 844//23 886//23 846//23
f 821//23 887//23 874//23
f 819//244 821//244 852//244
f 876//23 852//23 821//23
f 852//23 876//23 849//23
f 888//23 849//23 876//23
f 849//23 888//23 850//23
f 889//23 851//23 801//23
f 851//23 889//23 821//23
f 821//23 889//23 887//23
s 1
f 890//245 891//246 892//247
f 893//248 892//247 891//246
f 892//247 893//248 894//249
f 895//250 894//249 893//248
f 894//249 895//250 896//251
f 897//252 896//251 895//250
f 896//251 897//252 898//253
f 897//252 899//254 898//253
f 898//253 899//254 900//255
f 901//256 900//255 899//254
f 900//255 901//256 902//227
s 0
f 903//80 904//80 905//80
f 908//80 909//80 910//80
f 910//80 909//80 911//80
f 912//80 913//80 914//80
f 910//80 914//80 913//80
f 914//80 910//80 915//80
f 911//80 915//80 910//80
f 912//80 916//80 913//80
f 917//80 913//80 916//80
f 913//80 917//80 918//80
f 921//80 919//80 920//80
f 918//80 922//80 913//80
f 913//80 922//80 923//80
f 922//80 924//80 923//80
f 925//80 923//80 924//80
f 923//80 925//80 926//80
f 927//80 926//80 925//80
f 926//80 927//80 928//80
f 929//80 928//80 927//80
f 928//80 929//80 930//80
f 931//80 930//80 929//80
f 930//80 931//80 919//80
f 920//80 919//80 931//80
f 921//80 933//80 919//80
f 919//80 933//80 934//80
f 935//80 934//80 933//80
f 934//80 935//80 936//80
f 937//80 938//80 910//80
f 935//80 932//80 936//80
f 910//80 936//80 932//80
f 938//80 936//80 910//80
f 939//80 940//80 910//80
f 941//80 910//80 940//80
f 937//80 910//80 941//80
f 943//80 944//80 945//80
f 946//80 947//80 948//80
f 945//80 949//80 943//80
f 950//80 943//80 949//80
f 943//80 950//80 951//80
f 947//80 952//80 948//80
f 953//80 948//80 952//80
f 953//80 954//80 948//80
f 955//80 948//80 954//80
f 948//80 955//80 910//80
f 956//80 910//80 955//80
f 910//80 956//80 942//80
f 957//80 939//80 958//80
f 910//80 958//80 939//80
f 958//80 910//80 959//80
f 942//80 959//80 910//80
f 957//80 960//80 939//80
f 961//80 939//80 960//80
f 962//80 939//80 961//80
f 939//80 962//80 944//80
f 944//80 962//80 945//80
f 950//80 963//80 951//80
f 951//80 963//80 964//80
f 965//80 964//80 963//80
f 964//80 965//80 966//80
f 948//80 967//80 968//80
f 966//80 946//80 964//80
f 948//80 964//80 946//80
f 968//80 964//80 948//80
f 969//80 970//80 948//80
f 971//80 948//80 970//80
f 948//80 971//80 967//80
f 972//80 973//80 948//80
f 974//80 948//80 973//80
f 948//80 974//80 969//80
f 975//80 972//80 948//80
f 976//80 977//80 978//80
f 975//80 948//80 979//80
f 978//80 977//80 980//80
f 981//80 969//80 974//80
f 969//80 981//80 978//80
f 982//80 978//80 981//80
f 978//80 982//80 976//80
f 983//80 980//80 977//80
f 980//80 983//80 984//80
f 985//80 984//80 983//80
f 984//80 985//80 986//80
f 987//80 988//80 989//80
f 990//80 989//80 988//80
f 986//80 991//80 984//80
f 992//80 984//80 991//80
f 984//80 992//80 988//80
f 990//80 988//80 992//80
f 987//80 993//80 988//80
f 994//80 988//80 993//80
f 988//80 994//80 948//80
f 995//80 948//80 994//80
f 948//80 995//80 979//80
f 996//80 997//80 984//80
f 980//80 984//80 997//80
f 999//80 984//80 998//80
f 999//80 1000//80 984//80
f 1001//80 1002//80 1003//80
f 1002//80 1004//80 1003//80
f 1005//80 1003//80 1004//80
f 1003//80 1005//80 1006//80
f 906//80 907//80 1007//80
f 988//80 1008//80 1009//80
f 1009//80 1010//80 988//80
f 988//80 1010//80 984//80
f 1011//80 984//80 1010//80
f 984//80 1011//80 1012//80
f 1006//80 1013//80 988//80
f 1014//80 988//80 1013//80
f 988//80 1014//80 1008//80
f 998//80 1015//80 907//80
f 1016//80 907//80 1015//80
f 907//80 1016//80 1007//80
f 1012//80 1017//80 984//80
f 1018//80 984//80 1017//80
f 984//80 1018//80 998//80
f 1015//80 998//80 1018//80
f 1020//80 1021//80 906//80
f 907//80 906//80 1021//80
f 1020//80 1019//80 1021//80
f 1003//80 1021//80 1019//80
f 1021//80 1003//80 1022//80
f 1023//80 1024//80 1003//80
f 1025//80 1003//80 1024//80
f 1028//80 1029//80 1030//80
f 1027//80 1026//80 1029//80
f 1031//80 1029//80 1026//80
f 1029//80 1031//80 1030//80
f 1032//80 905//80 1033//80
f 904//80 1033//80 905//80
f 1033//80 904//80 1034//80
f 1026//80 1027//80 1036//80
f 1023//80 1036//80 1027//80
f 1036//80 1023//80 1037//80
f 1030//80 1038//80 1028//80
f 1039//80 1028//80 1038//80
f 1028//80 1039//80 904//80
f 1040//80 904//80 1039//80
f 904//80 1040//80 1034//80
f 1032//80 1041//80 905//80
f 1042//80 905//80 1041//80
f 1042//80 1043//80 905//80
f 1044//80 905//80 1043//80
f 905//80 1044//80 1003//80
f 1045//80 1003//80 1044//80
f 1003//80 1045//80 1035//80
f 1035//80 1046//80 1003//80
f 1047//80 1003//80 1046//80
f 1003//80 1047//80 1023//80
f 1048//80 1023//80 1047//80
f 1023//80 1048//80 1037//80
f 1050//80 905//80 1049//80
f 905//80 1050//80 903//80
f 1051//80 1052//80 905//80
f 1049//80 905//80 1052//80
f 1053//80 1054//80 905//80
f 1055//80 905//80 1054//80
f 905//80 1055//80 1051//80
f 1056//80 1057//80 1058//80
f 1055//80 1056//80 1051//80
f 1051//80 1056//80 1059//80
f 1058//80 1059//80 1056//80
f 1053//80 905//80 1060//80
f 1061//80 1060//80 905//80
f 1062//80 1063//80 913//80
f 1064//80 913//80 1063//80
f 1065//80 1058//80 1057//80
f 1065//80 1066//80 1058//80
f 1067//80 1058//80 1066//80
f 1058//80 1067//80 1068//80
f 1069//80 1068//80 1067//80
f 1068//80 1069//80 1070//80
f 1071//80 1070//80 1069//80
f 1070//80 1071//80 923//80
f 1072//80 923//80 1071//80
f 1064//80 1073//80 913//80
f 1074//80 913//80 1073//80
f 913//80 1074//80 905//80
f 1075//80 905//80 1074//80
f 905//80 1075//80 1061//80
f 1072//80 1076//80 923//80
f 1077//80 923//80 1076//80
f 923//80 1077//80 913//80
f 1062//80 913//80 1077//80
f 1078//80 1079//80 905//80
f 1080//80 905//80 1079//80
f 905//80 1080//80 913//80
f 1081//80 913//80 1080//80
f 1082//80 1083//80 905//80
f 1084//80 905//80 1083//80
f 905//80 1084//80 1078//80
f 1003//80 1085//80 1086//80
f 1086//80 1087//80 1003//80
f 1088//80 1003//80 1087//80
f 1003//80 1088//80 905//80
f 1089//80 905//80 1088//80
f 905//80 1089//80 1082//80
f 988//80 1090//80 1091//80
f 1006//80 988//80 1003//80
f 1091//80 1003//80 988//80
f 1003//80 1091//80 1092//80
f 1092//80 1093//80 1003//80
f 1094//80 1003//80 1093//80
f 1085//80 1003//80 1094//80
f 1095//80 1096//80 948//80
f 948//80 1096//80 988//80
f 1097//80 988//80 1096//80
f 988//80 1097//80 1090//80
f 1098//80 1099//80 948//80
f 1100//80 948//80 1099//80
f 948//80 1100//80 1095//80
f 910//80 1101//80 1102//80
f 1102//80 1103//80 910//80
f 1104//80 910//80 1103//80
f 910//80 1104//80 948//80
f 1105//80 948//80 1104//80
f 948//80 1105//80 1098//80
f 1081//80 1106//80 913//80
f 913//80 1106//80 910//80
f 1107//80 910//80 1106//80
f 910//80 1107//80 1108//80
f 1108//80 1109//80 910//80
f 1110//80 910//80 1109//80
f 910//80 1110//80 1101//80
f 1019//80 1001//80 1003//80
f 932//80 908//80 910//80
s 1
f 2//8 1111//134 1//9
f 515//111 1//9 1111//134
f 1//9 515//111 1112//257
f 1113//204 1112//257 515//111
f 891//246 303//258 302//259
f 303//258 891//246 890//245
f 901//256 1114//228 902//227
f 1112//257 1113//204 749//203
f 4//230 1115//260 3//229
f 3//229 1115//260 1116//261
f 1117//262 1116//261 1115//260
f 1116//261 1117//262 1118//263
f 1119//264 1118//263 1117//262
f 1118//263 1119//264 1120//265
f 1121//266 1120//265 1119//264
f 1120//265 1121//266 1122//267
f 1121//266 1123//268 1122//267
f 1122//267 1123//268 1124//269
f 1126//270 1125//271 1176//272
f 1125//271 1126//270 1127//273
f 1124//269 1127//273 1126//270
f 1123//268 1127//273 1124//269
s 0
f 1136//23 1137//23 1132//23
f 1131//23 1130//23 1133//23
f 1135//23 1133//23 1134//23
f 1130//23 1134//23 1133//23
f 1134//23 1130//23 1138//23
f 1139//23 1138//23 1130//23
f 1138//23 1139//23 1140//23
f 1141//23 1140//23 1139//23
f 1140//23 1141//23 1142//23
f 1143//23 1142//23 1141//23
f 1142//23 1143//23 1132//23
f 1144//23 1132//23 1143//23
f 1132//23 1144//23 1136//23
f 1137//23 1145//23 1132//23
s 1
f 1146//274 1147//275 1148//276
f 1149//277 1148//276 1147//275
f 1148//276 1149//277 1150//278
f 1151//279 1150//278 1149//277
f 1150//278 1151//279 1152//280
f 1153//281 1152//280 1151//279
f 1152//280 1153//281 1154//282
f 1155//283 1154//282 1153//281
f 1154//282 1155//283 1156//284
f 1157//285 1156//284 1155//283
f 1156//284 1157//285 1158//286
f 1159//287 1158//286 1157//285
f 1160//288 1158//286 1159//287
f 1158//286 1160//288 1161//289
f 1162//290 1161//289 1160//288
f 1161//289 1162//290 1163//291
f 1163//291 1162//290 1164//292
f 1165//293 1164//292 1162//290
f 1164//292 1165//293 1166//294
f 1167//295 1166//294 1165//293
f 1166//294 1167//295 1168//296
f 1169//297 1168//296 1167//295
f 1168//296 1169//297 1170//298
f 1171//299 1170//298 1169//297
f 1170//298 1171//299 1172//300
f 1173//301 1172//300 1171//299
f 1172//300 1173//301 1146//274
f 1147//275 1146//274 1173//301
f 1174//302 263//152 264//154
f 263//152 1174//302 1175//303
f 1129//1 1175//303 1174//302
f 1175//303 1129//1 1128//3
f 1176//272 1177//304 1178//305
f 1179//306 1178//305 1177//304
f 1178//305 1179//306 1180//307
f 1181//308 1180//307 1179//306
f 1180//307 1181//308 1182//309
f 1181//308 1183//310 1182//309
f 1128//311 1182//309 1183//310
f 263//152 1184//312 676//153
f 676//153 1184//312 1185//313
f 1185//313 1184//312 1186//314
f 1187//315 1186//314 1184//312
f 1186//314 1187//315 1188//316
f 1189//317 1188//316 1187//315
f 1188//316 20//22 19//21
f 20//22 1188//316 1189//317
f 1177//304 1176//272 1125//271
