# Blender 4.3.2
# www.blender.org
mtllib link1_03.mtl
o link1_03
v -0.020400 -0.026378 -0.023464
v -0.020400 -0.035909 -0.037380
v -0.020400 -0.035551 -0.037846
v -0.020400 -0.039091 -0.037380
v -0.020400 -0.038625 -0.037023
v -0.020400 -0.040603 -0.036121
v -0.020400 -0.039089 -0.044314
v -0.020400 -0.038082 -0.041144
v -0.020400 -0.042584 -0.045800
v -0.020400 -0.038625 -0.040920
v -0.020400 -0.046337 -0.047038
v -0.020400 -0.039091 -0.040562
v -0.020400 -0.039449 -0.040096
v -0.020400 -0.037307 -0.034147
v -0.020400 -0.032498 -0.040554
v -0.020400 -0.035551 -0.040096
v -0.020400 -0.035721 -0.042562
v -0.020400 -0.035909 -0.040562
v -0.020400 -0.036375 -0.040920
v -0.020400 -0.036918 -0.041144
v -0.020400 -0.037500 -0.041221
v -0.020400 -0.047826 -0.039176
v -0.020400 -0.039673 -0.039553
v -0.020400 -0.047958 -0.039439
v -0.020400 -0.046641 -0.046852
v -0.020400 -0.038082 -0.036798
v -0.020400 -0.037500 -0.036721
v -0.020400 -0.034210 -0.031873
v -0.020400 -0.036918 -0.036798
v -0.020400 -0.031340 -0.029319
v -0.020400 -0.028722 -0.026508
v -0.020400 -0.036375 -0.037023
v -0.020400 -0.026566 -0.035822
v -0.020400 -0.035327 -0.038389
v -0.020400 -0.029441 -0.038303
v -0.020400 -0.035250 -0.038971
v -0.020400 -0.035327 -0.039553
v -0.020400 -0.039750 -0.038971
v -0.020400 -0.044069 -0.037778
v -0.020400 -0.039673 -0.038389
v -0.020400 -0.039449 -0.037846
v -0.020400 -0.005418 -0.021673
v -0.020400 -0.006000 -0.021750
v -0.020400 -0.005912 -0.023759
v -0.020400 -0.008818 -0.024293
v -0.020400 -0.009982 -0.014784
v -0.020400 -0.020121 -0.009520
v -0.020400 -0.004051 -0.018375
v -0.020400 -0.003827 -0.018918
v -0.020400 -0.003750 -0.019500
v -0.020400 -0.002014 -0.022705
v -0.020400 -0.002640 -0.023465
v -0.020400 -0.002192 -0.023119
v -0.020400 -0.004409 -0.021091
v -0.020400 -0.021187 -0.013211
v -0.020400 -0.022594 -0.016786
v -0.020400 -0.024329 -0.020214
v -0.020400 -0.009614 -0.015300
v -0.020400 -0.021892 -0.031136
v -0.020400 -0.002033 -0.016184
v -0.020400 -0.002386 -0.015700
v -0.020400 -0.004409 -0.017909
v -0.020400 -0.008250 -0.019500
v -0.020400 -0.008173 -0.018918
v -0.020400 -0.007949 -0.018375
v -0.020400 -0.007591 -0.017909
v -0.020400 -0.019491 -0.029194
v -0.020400 -0.017019 -0.027576
v -0.020400 -0.006000 -0.017250
v -0.020400 -0.002808 -0.015515
v -0.020400 -0.006582 -0.017327
v -0.020400 -0.009192 -0.015485
v -0.020400 -0.007125 -0.017551
v -0.020400 -0.006582 -0.021673
v -0.020400 -0.007125 -0.021449
v -0.020400 -0.011656 -0.025113
v -0.020400 -0.007591 -0.021091
v -0.020400 -0.014399 -0.026211
v -0.020400 -0.007949 -0.020625
v -0.020400 -0.008173 -0.020082
v -0.020400 -0.005418 -0.017327
v -0.020400 -0.004875 -0.017551
v -0.020400 -0.003827 -0.020082
v -0.020400 -0.004051 -0.020625
v -0.020400 -0.004875 -0.021449
v -0.020400 -0.009614 0.015300
v -0.020400 -0.006000 0.017250
v -0.020400 -0.006582 0.017327
v -0.020400 -0.008173 0.018918
v -0.020400 -0.008250 0.019500
v -0.020400 -0.026378 0.023464
v -0.020400 -0.007949 0.018375
v -0.020400 -0.012827 -0.000582
v -0.020400 -0.012750 0.000000
v -0.020400 -0.012827 0.000582
v -0.020400 -0.013051 -0.001125
v -0.020400 -0.013409 -0.001591
v -0.020400 -0.013875 -0.001949
v -0.020400 -0.016949 -0.001125
v -0.020400 -0.019045 -0.001921
v -0.020400 -0.016591 -0.001591
v -0.020400 -0.019405 -0.005746
v -0.020400 -0.016125 -0.001949
v -0.020400 -0.015582 -0.002173
v -0.020400 -0.015000 -0.002250
v -0.020400 -0.014418 -0.002173
v -0.020400 -0.019491 0.029194
v -0.020400 -0.021893 0.031136
v -0.020400 -0.005912 0.023759
v -0.020400 -0.008818 0.024293
v -0.020400 -0.006582 0.021673
v -0.020400 -0.002192 0.023119
v -0.020400 -0.004409 0.021091
v -0.020400 -0.003750 0.019500
v -0.020400 -0.002033 0.016184
v -0.020400 -0.003827 0.020082
v -0.020400 -0.002014 0.022705
v -0.020400 -0.004051 0.020625
v -0.020400 -0.013875 0.001949
v -0.020400 -0.013409 0.001591
v -0.020400 -0.013051 0.001125
v -0.020400 -0.007949 0.020625
v -0.020400 -0.014399 0.026211
v -0.020400 -0.017019 0.027576
v -0.020400 -0.011656 0.025113
v -0.020400 -0.007591 0.021091
v -0.020400 -0.007125 0.021449
v -0.020400 -0.008173 0.020082
v -0.020400 -0.003827 0.018918
v -0.020400 -0.004051 0.018375
v -0.020400 -0.004409 0.017909
v -0.020400 -0.002386 0.015700
v -0.020400 -0.017173 -0.000582
v -0.020400 -0.017250 0.000000
v -0.020400 -0.019045 0.001921
v -0.020400 -0.006000 0.021750
v -0.020400 -0.005418 0.021673
v -0.020400 -0.002640 0.023465
v -0.020400 -0.004875 0.021449
v -0.020400 -0.002808 0.015515
v -0.020400 -0.004875 0.017551
v -0.020400 -0.005418 0.017327
v -0.020400 -0.009192 0.015485
v -0.020400 -0.017173 0.000582
v -0.020400 -0.016949 0.001125
v -0.020400 -0.019405 0.005746
v -0.020400 -0.016591 0.001591
v -0.020400 -0.020121 0.009520
v -0.020400 -0.016125 0.001949
v -0.020400 -0.015582 0.002173
v -0.020400 -0.007125 0.017551
v -0.020400 -0.007591 0.017909
v -0.020400 -0.009967 0.014816
v -0.020400 -0.024329 0.020214
v -0.020400 -0.022594 0.016786
v -0.020400 -0.014418 0.002173
v -0.020400 -0.015000 0.002250
v -0.020400 -0.021187 0.013211
v -0.020400 -0.037307 0.034147
v -0.020400 -0.038082 0.036798
v -0.020400 -0.040603 0.036121
v -0.020400 -0.038625 0.037023
v -0.020400 -0.036918 0.041145
v -0.020400 -0.035721 0.042562
v -0.020400 -0.037500 0.041221
v -0.020400 -0.039089 0.044314
v -0.020400 -0.038082 0.041145
v -0.020400 -0.036375 0.040920
v -0.020400 -0.035909 0.040562
v -0.020400 -0.032498 0.040554
v -0.020400 -0.035551 0.040096
v -0.020400 -0.035327 0.039554
v -0.020400 -0.029441 0.038303
v -0.020400 -0.035250 0.038971
v -0.020400 -0.026566 0.035822
v -0.020400 -0.035327 0.038389
v -0.020400 -0.035551 0.037846
v -0.020400 -0.035909 0.037380
v -0.020400 -0.047958 0.039439
v -0.020400 -0.039673 0.039554
v -0.020400 -0.039091 0.037380
v -0.020400 -0.039449 0.037846
v -0.020400 -0.044069 0.037778
v -0.020400 -0.039673 0.038389
v -0.020400 -0.047826 0.039176
v -0.020400 -0.039750 0.038971
v -0.020400 -0.028722 0.026508
v -0.020400 -0.031340 0.029319
v -0.020400 -0.036375 0.037023
v -0.020400 -0.034210 0.031873
v -0.020400 -0.036918 0.036798
v -0.020400 -0.037500 0.036721
v -0.020400 -0.038625 0.040920
v -0.020400 -0.042583 0.045800
v -0.020400 -0.039091 0.040562
v -0.020400 -0.046337 0.047038
v -0.020400 -0.046641 0.046852
v -0.020400 -0.039449 0.040096
v -0.023400 -0.009614 -0.015300
v -0.023400 -0.006000 -0.017250
v -0.023400 -0.006582 -0.017327
v -0.023400 -0.008173 -0.018918
v -0.023400 -0.008250 -0.019500
v -0.023400 -0.026378 -0.023464
v -0.023400 -0.002192 -0.023119
v -0.023400 -0.004409 -0.021091
v -0.023400 -0.007125 -0.021449
v -0.023400 -0.006582 -0.021673
v -0.023400 -0.008818 -0.024293
v -0.023400 -0.003750 -0.019500
v -0.023400 -0.002033 -0.016184
v -0.023400 -0.003827 -0.020082
v -0.023400 -0.002014 -0.022705
v -0.023400 -0.004051 -0.020625
v -0.023400 -0.002386 -0.015700
v -0.023400 -0.004409 -0.017909
v -0.023400 -0.007949 -0.018375
v -0.023400 -0.019491 -0.029194
v -0.023400 -0.021892 -0.031136
v -0.023400 -0.005912 -0.023759
v -0.023400 -0.007125 -0.017551
v -0.023400 -0.007591 -0.017909
v -0.023400 -0.009982 -0.014784
v -0.023400 -0.024329 -0.020214
v -0.023400 -0.003827 -0.018918
v -0.023400 -0.004051 -0.018375
v -0.023400 -0.009192 -0.015485
v -0.023400 -0.005418 -0.017327
v -0.023400 -0.002808 -0.015515
v -0.023400 -0.004875 -0.017551
v -0.023400 -0.017019 -0.027576
v -0.023400 -0.007949 -0.020625
v -0.023400 -0.008173 -0.020082
v -0.023400 -0.007591 -0.021091
v -0.023400 -0.011656 -0.025113
v -0.023400 -0.014399 -0.026211
v -0.023400 -0.006000 -0.021750
v -0.023400 -0.005418 -0.021673
v -0.023400 -0.002640 -0.023465
v -0.023400 -0.004875 -0.021449
v -0.023400 -0.005418 0.021673
v -0.023400 -0.006000 0.021750
v -0.023400 -0.005912 0.023759
v -0.023400 -0.008818 0.024293
v -0.023400 -0.009614 0.015300
v -0.023400 -0.009967 0.014816
v -0.023400 -0.014399 0.026211
v -0.023400 -0.008173 0.020082
v -0.023400 -0.008250 0.019500
v -0.023400 -0.002033 0.016184
v -0.023400 -0.002386 0.015700
v -0.023400 -0.004409 0.017909
v -0.023400 -0.013409 -0.001591
v -0.023400 -0.013051 -0.001125
v -0.023400 -0.012827 -0.000582
v -0.023400 -0.004051 0.018375
v -0.023400 -0.003827 0.018918
v -0.023400 -0.003750 0.019500
v -0.023400 -0.002014 0.022705
v -0.023400 -0.002640 0.023465
v -0.023400 -0.002192 0.023119
v -0.023400 -0.004409 0.021091
v -0.023400 -0.012827 0.000582
v -0.023400 -0.013051 0.001125
v -0.023400 -0.013409 0.001591
v -0.023400 -0.013875 0.001949
v -0.023400 -0.015582 -0.002173
v -0.023400 -0.015000 -0.002250
v -0.023400 -0.012750 0.000000
v -0.023400 -0.008173 0.018918
v -0.023400 -0.015582 0.002173
v -0.023400 -0.021893 0.031136
v -0.023400 -0.014418 -0.002173
v -0.023400 -0.013875 -0.001949
v -0.023400 -0.019045 0.001921
v -0.023400 -0.017173 0.000582
v -0.023400 -0.019045 -0.001921
v -0.023400 -0.017250 0.000000
v -0.023400 -0.006582 0.021673
v -0.023400 -0.007125 0.021449
v -0.023400 -0.011656 0.025113
v -0.023400 -0.007591 0.021091
v -0.023400 -0.007949 0.020625
v -0.023400 -0.007949 0.018375
v -0.023400 -0.007591 0.017909
v -0.023400 -0.009192 0.015485
v -0.023400 -0.007125 0.017551
v -0.023400 -0.006582 0.017327
v -0.023400 -0.002808 0.015515
v -0.023400 -0.006000 0.017250
v -0.023400 -0.004875 0.021449
v -0.023400 -0.026378 0.023464
v -0.023400 -0.026566 0.035822
v -0.023400 -0.024329 0.020214
v -0.023400 -0.022594 0.016786
v -0.023400 -0.017173 -0.000582
v -0.023400 -0.016949 -0.001125
v -0.023400 -0.019405 -0.005746
v -0.023400 -0.016591 -0.001591
v -0.023400 -0.020121 -0.009520
v -0.023400 -0.016125 -0.001949
v -0.023400 -0.021187 -0.013211
v -0.023400 -0.022594 -0.016786
v -0.023400 -0.003827 0.020082
v -0.023400 -0.004051 0.020625
v -0.023400 -0.014418 0.002173
v -0.023400 -0.015000 0.002250
v -0.023400 -0.017019 0.027576
v -0.023400 -0.019491 0.029194
v -0.023400 -0.021187 0.013211
v -0.023400 -0.020121 0.009520
v -0.023400 -0.016125 0.001949
v -0.023400 -0.019405 0.005746
v -0.023400 -0.016591 0.001591
v -0.023400 -0.016949 0.001125
v -0.023400 -0.005418 0.017327
v -0.023400 -0.004875 0.017551
v -0.023400 -0.039089 0.044314
v -0.023400 -0.038082 0.041145
v -0.023400 -0.042583 0.045800
v -0.023400 -0.038625 0.040920
v -0.023400 -0.039091 0.040562
v -0.023400 -0.040603 0.036121
v -0.023400 -0.039091 0.037380
v -0.023400 -0.038625 0.037023
v -0.023400 -0.035909 0.037380
v -0.023400 -0.035551 0.037846
v -0.023400 -0.046641 0.046852
v -0.023400 -0.039449 0.040096
v -0.023400 -0.037307 0.034147
v -0.023400 -0.046337 0.047038
v -0.023400 -0.038082 0.036798
v -0.023400 -0.037500 0.036721
v -0.023400 -0.034210 0.031873
v -0.023400 -0.036918 0.036798
v -0.023400 -0.031340 0.029319
v -0.023400 -0.032498 0.040554
v -0.023400 -0.035551 0.040096
v -0.023400 -0.035721 0.042562
v -0.023400 -0.035909 0.040562
v -0.023400 -0.036375 0.040920
v -0.023400 -0.036918 0.041145
v -0.023400 -0.037500 0.041221
v -0.023400 -0.047826 0.039176
v -0.023400 -0.039673 0.039554
v -0.023400 -0.039750 0.038971
v -0.023400 -0.044069 0.037778
v -0.023400 -0.039673 0.038389
v -0.023400 -0.039449 0.037846
v -0.023400 -0.047958 0.039439
v -0.023400 -0.028722 0.026508
v -0.023400 -0.036375 0.037023
v -0.023400 -0.035327 0.038389
v -0.023400 -0.029441 0.038303
v -0.023400 -0.035250 0.038971
v -0.023400 -0.035327 0.039554
v -0.023400 -0.038625 -0.037023
v -0.023400 -0.040603 -0.036121
v -0.023400 -0.038082 -0.036798
v -0.023400 -0.037307 -0.034147
v -0.023400 -0.039449 -0.040096
v -0.023400 -0.039673 -0.039553
v -0.023400 -0.047958 -0.039439
v -0.023400 -0.046337 -0.047038
v -0.023400 -0.039091 -0.040562
v -0.023400 -0.042584 -0.045800
v -0.023400 -0.038625 -0.040920
v -0.023400 -0.039089 -0.044314
v -0.023400 -0.038082 -0.041144
v -0.023400 -0.037500 -0.041221
v -0.023400 -0.035721 -0.042562
v -0.023400 -0.036918 -0.041144
v -0.023400 -0.036375 -0.040920
v -0.023400 -0.035909 -0.040562
v -0.023400 -0.032498 -0.040554
v -0.023400 -0.035551 -0.040096
v -0.023400 -0.035327 -0.039553
v -0.023400 -0.029441 -0.038303
v -0.023400 -0.035250 -0.038971
v -0.023400 -0.026566 -0.035822
v -0.023400 -0.035327 -0.038389
v -0.023400 -0.035551 -0.037846
v -0.023400 -0.035909 -0.037380
v -0.023400 -0.039091 -0.037380
v -0.023400 -0.039449 -0.037846
v -0.023400 -0.044069 -0.037778
v -0.023400 -0.039673 -0.038389
v -0.023400 -0.047826 -0.039176
v -0.023400 -0.039750 -0.038971
v -0.023400 -0.046641 -0.046852
v -0.023400 -0.028722 -0.026508
v -0.023400 -0.031340 -0.029319
v -0.023400 -0.036375 -0.037023
v -0.023400 -0.034210 -0.031873
v -0.023400 -0.036918 -0.036798
v -0.023400 -0.037500 -0.036721
v -0.020400 -0.009891 0.024381
v -0.023400 -0.010702 0.024616
v -0.020400 -0.019883 0.029303
v -0.023400 -0.020253 0.029608
v -0.020400 -0.002201 0.023278
v -0.023400 -0.002186 0.023286
v -0.023400 -0.009785 0.015285
v -0.023400 -0.002232 0.015687
v -0.020400 -0.009797 0.015297
v -0.020400 -0.002187 0.015732
v -0.020400 -0.009852 -0.015246
v -0.023400 -0.009853 -0.015268
v -0.020400 -0.002232 -0.015687
v -0.023400 -0.002187 -0.015732
v -0.020400 -0.020253 -0.029608
v -0.023400 -0.019883 -0.029303
v -0.020400 -0.010702 -0.024616
v -0.023400 -0.009891 -0.024381
v -0.020400 -0.002186 -0.023286
v -0.023400 -0.002201 -0.023278
v -0.023400 -0.028955 -0.038101
v -0.020400 -0.027535 -0.036758
v -0.020400 -0.036827 -0.043378
v -0.023400 -0.039481 -0.044601
v -0.020400 -0.039204 0.035382
v -0.023400 -0.038620 0.035032
v -0.020400 -0.031608 0.029737
v -0.023400 -0.030916 0.029062
v -0.020400 -0.024432 0.020560
v -0.023400 -0.025070 0.021492
v -0.023400 -0.021687 0.014712
v -0.020400 -0.020667 0.011717
v -0.023400 -0.019616 0.007314
v -0.020400 -0.018956 0.002409
v -0.023400 -0.018960 -0.000340
v -0.020400 -0.019692 -0.007881
v -0.023400 -0.019783 -0.008248
v -0.020400 -0.021687 -0.014712
v -0.023400 -0.022689 -0.017273
v -0.020400 -0.025070 -0.021492
v -0.023400 -0.026378 -0.023464
v -0.020400 -0.030916 -0.029062
v -0.023400 -0.031608 -0.029737
v -0.020400 -0.038620 -0.035032
v -0.023400 -0.039204 -0.035382
v -0.020400 -0.047945 -0.039318
v -0.023400 -0.047933 -0.039283
v -0.020400 -0.028955 0.038101
v -0.023400 -0.027535 0.036759
v -0.023400 -0.036827 0.043378
v -0.020400 -0.039481 0.044601
v -0.023400 -0.046520 0.047022
v -0.020400 -0.046543 0.047008
v -0.020400 -0.036980 -0.036733
v -0.023400 -0.037717 -0.036640
v -0.023400 -0.035821 -0.037402
v -0.020400 -0.035550 -0.037756
v -0.023400 -0.035192 -0.039365
v -0.020400 -0.035262 -0.039491
v -0.020400 -0.036523 -0.041098
v -0.023400 -0.036419 -0.040999
v -0.023400 -0.038477 -0.041098
v -0.020400 -0.038581 -0.040999
v -0.020400 -0.039808 -0.039365
v -0.023400 -0.039831 -0.039188
v -0.020400 -0.038995 -0.037169
v -0.023400 -0.039266 -0.037549
v -0.020400 -0.005187 -0.017305
v -0.023400 -0.004505 -0.017698
v -0.020400 -0.003692 -0.019107
v -0.023400 -0.003692 -0.019893
v -0.020400 -0.004505 -0.021302
v -0.023400 -0.005187 -0.021695
v -0.020400 -0.006813 -0.021695
v -0.023400 -0.007495 -0.021302
v -0.020400 -0.008308 -0.019893
v -0.023400 -0.008308 -0.019107
v -0.020400 -0.007495 -0.017698
v -0.023400 -0.006813 -0.017305
v -0.020400 -0.005187 0.021695
v -0.023400 -0.004505 0.021302
v -0.020400 -0.003692 0.019893
v -0.023400 -0.003692 0.019107
v -0.020400 -0.004505 0.017698
v -0.023400 -0.005187 0.017305
v -0.020400 -0.006813 0.017305
v -0.023400 -0.007495 0.017698
v -0.020400 -0.008308 0.019107
v -0.023400 -0.008308 0.019893
v -0.020400 -0.007495 0.021302
v -0.023400 -0.006813 0.021695
v -0.020400 -0.015393 0.002308
v -0.023400 -0.014607 0.002308
v -0.020400 -0.013198 0.001495
v -0.023400 -0.012805 0.000813
v -0.020400 -0.012805 -0.000813
v -0.023400 -0.013198 -0.001495
v -0.020400 -0.014607 -0.002308
v -0.023400 -0.015393 -0.002308
v -0.020400 -0.016802 -0.001495
v -0.023400 -0.017195 -0.000813
v -0.020400 -0.017195 0.000813
v -0.023400 -0.016802 0.001495
v -0.023400 -0.036523 0.041098
v -0.020400 -0.036419 0.040999
v -0.020400 -0.035192 0.039365
v -0.023400 -0.035169 0.039188
v -0.020400 -0.035821 0.037402
v -0.023400 -0.035734 0.037549
v -0.023400 -0.037283 0.036640
v -0.020400 -0.037717 0.036640
v -0.023400 -0.039179 0.037402
v -0.020400 -0.039266 0.037549
v -0.020400 -0.039831 0.039188
v -0.023400 -0.039808 0.039365
v -0.020400 -0.038477 0.041098
v -0.023400 -0.038581 0.040999
v -0.020400 -0.046520 -0.047022
v -0.023400 -0.046543 -0.047008
v -0.020400 -0.047933 0.039283
v -0.023400 -0.047945 0.039318
v 0.023400 -0.005418 -0.021673
v 0.023400 -0.006000 -0.021750
v 0.023400 -0.005912 -0.023759
v 0.023400 -0.008818 -0.024293
v 0.023400 -0.004051 -0.001125
v 0.023400 -0.004409 -0.001591
v 0.023400 -0.005418 -0.017327
v 0.023400 -0.004875 -0.001949
v 0.023400 -0.005418 -0.002173
v 0.023400 -0.006000 -0.017250
v 0.023400 -0.006000 -0.002250
v 0.023400 -0.006582 -0.017327
v 0.023400 -0.006582 -0.002173
v 0.023400 -0.007125 -0.001949
v 0.023400 -0.021904 -0.031146
v 0.023400 -0.035600 -0.037731
v 0.023400 -0.002640 -0.023465
v 0.023400 -0.002192 -0.023119
v 0.023400 -0.004409 -0.021091
v 0.023400 -0.007591 -0.017909
v 0.023400 -0.019989 -0.008952
v 0.023400 -0.007949 -0.018375
v 0.023400 -0.020932 -0.012436
v 0.023400 -0.008173 -0.018918
v 0.023400 -0.022176 -0.015823
v 0.023400 -0.008250 -0.019500
v 0.023400 -0.023714 -0.019088
v 0.023400 -0.008173 -0.020082
v 0.023400 -0.007125 0.021449
v 0.023400 -0.006582 0.021673
v 0.023400 -0.008818 0.024293
v 0.023400 -0.035471 -0.039986
v 0.023400 -0.033299 -0.040696
v 0.023400 -0.038282 -0.034776
v 0.023400 -0.038192 -0.036811
v 0.023400 -0.007125 -0.017551
v 0.023400 -0.019989 0.008952
v 0.023400 -0.019357 0.005399
v 0.023400 -0.036333 -0.042281
v 0.023400 -0.037883 -0.041243
v 0.023400 -0.037180 -0.042456
v 0.023400 -0.036775 -0.041121
v 0.023400 -0.036023 -0.040668
v 0.023400 -0.038190 -0.042232
v 0.023400 -0.037948 -0.042436
v 0.023400 -0.038274 -0.041945
v 0.023400 -0.035309 -0.032731
v 0.023400 -0.019040 0.001804
v 0.023400 -0.019040 -0.001804
v 0.023400 -0.019357 -0.005399
v 0.023400 -0.041697 0.036733
v 0.023400 -0.038282 0.034776
v 0.023400 -0.038192 0.036811
v 0.023400 -0.005912 0.023759
v 0.023400 -0.002192 0.023119
v 0.023400 -0.004409 0.021091
v 0.023400 -0.002014 0.022705
v 0.023400 -0.004875 0.001949
v 0.023400 -0.004409 0.001591
v 0.023400 -0.004051 0.001125
v 0.023400 -0.003827 0.000582
v 0.023400 -0.003750 0.000000
v 0.023400 -0.003750 -0.019500
v 0.023400 -0.002014 -0.022705
v 0.023400 -0.003827 -0.018918
v 0.023400 -0.004051 -0.018375
v 0.023400 -0.004409 -0.017909
v 0.023400 -0.038112 -0.041461
v 0.023400 -0.041697 -0.036733
v 0.023400 -0.041958 -0.037238
v 0.023400 -0.039614 -0.038201
v 0.023400 -0.039175 -0.037441
v 0.023400 -0.040454 0.040861
v 0.023400 -0.041945 0.037688
v 0.023400 -0.039767 0.039065
v 0.023400 -0.007949 0.001125
v 0.023400 -0.007591 0.017909
v 0.023400 -0.008173 0.000582
v 0.023400 -0.008250 0.000000
v 0.023400 -0.007591 -0.001591
v 0.023400 -0.007949 -0.001125
v 0.023400 -0.008173 -0.000582
v 0.023400 -0.004875 -0.017551
v 0.023400 -0.003827 -0.000582
v 0.023400 -0.004875 -0.021449
v 0.023400 -0.035256 -0.039135
v 0.023400 -0.030740 -0.039075
v 0.023400 -0.035289 -0.038552
v 0.023400 -0.028310 -0.037266
v 0.023400 -0.026024 -0.035279
v 0.023400 -0.025533 -0.022205
v 0.023400 -0.027619 -0.025149
v 0.023400 -0.007949 -0.020625
v 0.023400 -0.029956 -0.027899
v 0.023400 -0.032526 -0.030433
v 0.023400 -0.037025 -0.036753
v 0.023400 -0.036226 -0.037116
v 0.023400 -0.037948 0.042436
v 0.023400 -0.037180 0.042457
v 0.023400 -0.036775 0.041121
v 0.023400 -0.036333 0.042281
v 0.023400 -0.036023 0.040668
v 0.023400 -0.033299 0.040696
v 0.023400 -0.021904 0.031146
v 0.023400 -0.035600 0.037731
v 0.023400 -0.036226 0.037117
v 0.023400 -0.037025 0.036753
v 0.023400 -0.035309 0.032731
v 0.023400 -0.038596 0.041289
v 0.023400 -0.038776 0.041767
v 0.023400 -0.005418 0.017327
v 0.023400 -0.004875 0.017551
v 0.023400 -0.004409 0.017909
v 0.023400 -0.003827 -0.020082
v 0.023400 -0.004051 -0.020625
v 0.023400 -0.019491 -0.029194
v 0.023400 -0.017019 -0.027576
v 0.023400 -0.014399 -0.026211
v 0.023400 -0.007591 -0.021091
v 0.023400 -0.011656 -0.025113
v 0.023400 -0.007125 -0.021449
v 0.023400 -0.006582 -0.021673
v 0.023400 -0.039947 -0.041474
v 0.023400 -0.039419 -0.040181
v 0.023400 -0.040454 -0.040861
v 0.023400 -0.039767 -0.039065
v 0.023400 -0.041945 -0.037688
v 0.023400 -0.038274 0.041945
v 0.023400 -0.038112 0.041461
v 0.023400 -0.037883 0.041243
v 0.023400 -0.029956 0.027899
v 0.023400 -0.027619 0.025150
v 0.023400 -0.019491 0.029194
v 0.023400 -0.039614 0.038201
v 0.023400 -0.041958 0.037238
v 0.023400 -0.007591 0.001591
v 0.023400 -0.006582 0.017327
v 0.023400 -0.007125 0.017551
v 0.023400 -0.004051 0.020625
v 0.023400 -0.003827 0.020082
v 0.023400 -0.032526 0.030433
v 0.023400 -0.039175 0.037441
v 0.023400 -0.039419 0.040181
v 0.023400 -0.039947 0.041474
v 0.023400 -0.038636 0.040975
v 0.023400 -0.007125 0.001949
v 0.023400 -0.006582 0.002173
v 0.023400 -0.006000 0.017250
v 0.023400 -0.006000 0.002250
v 0.023400 -0.005418 0.002173
v 0.023400 -0.008250 0.019500
v 0.023400 -0.008173 0.018918
v 0.023400 -0.007949 0.018375
v 0.023400 -0.008173 0.020082
v 0.023400 -0.007949 0.020625
v 0.023400 -0.017019 0.027576
v 0.023400 -0.038596 -0.041289
v 0.023400 -0.038636 -0.040975
v 0.023400 -0.035471 0.039986
v 0.023400 -0.030740 0.039075
v 0.023400 -0.035256 0.039135
v 0.023400 -0.028310 0.037266
v 0.023400 -0.035289 0.038552
v 0.023400 -0.026024 0.035279
v 0.023400 -0.025533 0.022205
v 0.023400 -0.023714 0.019088
v 0.023400 -0.022176 0.015823
v 0.023400 -0.039022 0.041936
v 0.023400 -0.006000 0.021750
v 0.023400 -0.005418 0.021673
v 0.023400 -0.002640 0.023465
v 0.023400 -0.004875 0.021449
v 0.023400 -0.038190 0.042232
v 0.023400 -0.020931 0.012436
v 0.023400 -0.039339 0.041942
v 0.023400 -0.007591 0.021091
v 0.023400 -0.011656 0.025113
v 0.023400 -0.014399 0.026211
v 0.023400 -0.003750 0.019500
v 0.023400 -0.003827 0.018918
v 0.023400 -0.004051 0.018375
v 0.023400 -0.039339 -0.041942
v 0.023400 -0.038776 -0.041767
v 0.023400 -0.039022 -0.041936
v 0.020400 -0.005418 0.021673
v 0.020400 -0.006000 0.021750
v 0.020400 -0.005912 0.023759
v 0.020400 -0.008818 0.024293
v 0.020400 -0.035600 -0.037731
v 0.020400 -0.036226 -0.037116
v 0.020400 -0.007949 -0.020625
v 0.020400 -0.008173 -0.000582
v 0.020400 -0.007949 -0.001125
v 0.020400 -0.006000 -0.017250
v 0.020400 -0.007591 -0.001591
v 0.020400 -0.007125 -0.001949
v 0.020400 -0.004875 -0.001949
v 0.020400 -0.004409 -0.001591
v 0.020400 -0.005418 -0.017327
v 0.020400 -0.004051 -0.001125
v 0.020400 -0.007591 0.017909
v 0.020400 -0.007125 0.017551
v 0.020400 -0.008250 0.000000
v 0.020400 -0.006582 0.017327
v 0.020400 -0.008173 0.000582
v 0.020400 -0.008818 -0.024293
v 0.020400 -0.007125 -0.021449
v 0.020400 -0.006582 -0.021673
v 0.020400 -0.006582 -0.002173
v 0.020400 -0.006000 -0.002250
v 0.020400 -0.005418 -0.002173
v 0.020400 -0.007949 0.020625
v 0.020400 -0.008173 0.020082
v 0.020400 -0.019491 0.029194
v 0.020400 -0.006582 0.002173
v 0.020400 -0.007125 0.001949
v 0.020400 -0.007591 -0.017909
v 0.020400 -0.007949 -0.018375
v 0.020400 -0.020932 -0.012436
v 0.020400 -0.005912 -0.023759
v 0.020400 -0.008250 0.019500
v 0.020400 -0.008173 0.018918
v 0.020400 -0.007949 0.018375
v 0.020400 -0.007591 0.001591
v 0.020400 -0.007949 0.001125
v 0.020400 -0.022176 -0.015823
v 0.020400 -0.008173 -0.018918
v 0.020400 -0.023714 -0.019088
v 0.020400 -0.008250 -0.019500
v 0.020400 -0.025533 -0.022205
v 0.020400 -0.008173 -0.020082
v 0.020400 -0.027619 -0.025149
v 0.020400 -0.002192 -0.023119
v 0.020400 -0.004409 -0.021091
v 0.020400 -0.003750 0.000000
v 0.020400 -0.003827 0.000582
v 0.020400 -0.002014 0.022705
v 0.020400 -0.019989 -0.008952
v 0.020400 -0.019357 -0.005399
v 0.020400 -0.007125 -0.017551
v 0.020400 -0.019040 -0.001804
v 0.020400 -0.038282 -0.034776
v 0.020400 -0.035309 -0.032731
v 0.020400 -0.037025 -0.036753
v 0.020400 -0.021904 -0.031146
v 0.020400 -0.002640 0.023465
v 0.020400 -0.002192 0.023119
v 0.020400 -0.004409 0.021091
v 0.020400 -0.006582 -0.017327
v 0.020400 -0.037902 -0.036757
v 0.020400 -0.038459 -0.036935
v 0.020400 -0.041697 -0.036733
v 0.020400 -0.037948 -0.042436
v 0.020400 -0.037180 -0.042456
v 0.020400 -0.036775 -0.041121
v 0.020400 -0.036333 -0.042281
v 0.020400 -0.033299 -0.040696
v 0.020400 -0.036023 -0.040668
v 0.020400 -0.002014 -0.022705
v 0.020400 -0.004051 -0.020625
v 0.020400 -0.003827 -0.020082
v 0.020400 -0.003750 -0.019500
v 0.020400 -0.003827 -0.018918
v 0.020400 -0.004051 -0.018375
v 0.020400 -0.004051 0.001125
v 0.020400 -0.004409 0.001591
v 0.020400 -0.004875 0.001949
v 0.020400 -0.006000 0.002250
v 0.020400 -0.006000 0.017250
v 0.020400 -0.005418 0.002173
v 0.020400 -0.005418 0.017327
v 0.020400 -0.004875 0.017551
v 0.020400 -0.004409 0.017909
v 0.020400 -0.006582 0.021673
v 0.020400 -0.007125 0.021449
v 0.020400 -0.011656 0.025113
v 0.020400 -0.007591 0.021091
v 0.020400 -0.014399 0.026211
v 0.020400 -0.017019 0.027576
v 0.020400 -0.039175 0.037441
v 0.020400 -0.039614 -0.038201
v 0.020400 -0.041958 -0.037238
v 0.020400 -0.038274 -0.041945
v 0.020400 -0.038112 -0.041461
v 0.020400 -0.037883 -0.041243
v 0.020400 -0.007591 -0.021091
v 0.020400 -0.011656 -0.025113
v 0.020400 -0.006000 -0.021750
v 0.020400 -0.005418 -0.021673
v 0.020400 -0.002640 -0.023465
v 0.020400 -0.004875 -0.021449
v 0.020400 -0.004409 -0.017909
v 0.020400 -0.004875 -0.017551
v 0.020400 -0.003827 -0.000582
v 0.020400 -0.040454 0.040861
v 0.020400 -0.039419 0.040181
v 0.020400 -0.039947 0.041474
v 0.020400 -0.038636 0.040975
v 0.020400 -0.038282 0.034776
v 0.020400 -0.038192 0.036811
v 0.020400 -0.035309 0.032731
v 0.020400 -0.021904 0.031146
v 0.020400 -0.035600 0.037731
v 0.020400 -0.037883 0.041243
v 0.020400 -0.037180 0.042457
v 0.020400 -0.036775 0.041121
v 0.020400 -0.036333 0.042281
v 0.020400 -0.036023 0.040668
v 0.020400 -0.029956 -0.027899
v 0.020400 -0.032526 -0.030433
v 0.020400 -0.039175 -0.037441
v 0.020400 -0.040454 -0.040861
v 0.020400 -0.041945 -0.037688
v 0.020400 -0.039767 -0.039065
v 0.020400 -0.004051 0.020625
v 0.020400 -0.003827 0.020082
v 0.020400 -0.038776 0.041767
v 0.020400 -0.038596 0.041289
v 0.020400 -0.039767 0.039065
v 0.020400 -0.041945 0.037688
v 0.020400 -0.039614 0.038201
v 0.020400 -0.041697 0.036733
v 0.020400 -0.041958 0.037238
v 0.020400 -0.035471 0.039986
v 0.020400 -0.033299 0.040696
v 0.020400 -0.038190 0.042232
v 0.020400 -0.037948 0.042436
v 0.020400 -0.038274 0.041945
v 0.020400 -0.035471 -0.039986
v 0.020400 -0.030740 -0.039075
v 0.020400 -0.035256 -0.039135
v 0.020400 -0.028310 -0.037266
v 0.020400 -0.035289 -0.038552
v 0.020400 -0.026024 -0.035279
v 0.020400 -0.004051 0.018375
v 0.020400 -0.003827 0.018918
v 0.020400 -0.003750 0.019500
v 0.020400 -0.004875 0.021449
v 0.020400 -0.039339 0.041942
v 0.020400 -0.039022 0.041936
v 0.020400 -0.038112 0.041461
v 0.020400 -0.038636 -0.040975
v 0.020400 -0.038596 -0.041289
v 0.020400 -0.039339 -0.041942
v 0.020400 -0.038190 -0.042232
v 0.020400 -0.014399 -0.026211
v 0.020400 -0.017019 -0.027576
v 0.020400 -0.019491 -0.029194
v 0.020400 -0.035256 0.039135
v 0.020400 -0.030740 0.039075
v 0.020400 -0.035289 0.038552
v 0.020400 -0.028310 0.037266
v 0.020400 -0.026024 0.035279
v 0.020400 -0.019040 0.001804
v 0.020400 -0.019357 0.005399
v 0.020400 -0.019989 0.008952
v 0.020400 -0.020931 0.012436
v 0.020400 -0.022176 0.015823
v 0.020400 -0.023714 0.019088
v 0.020400 -0.039419 -0.040181
v 0.020400 -0.039947 -0.041474
v 0.020400 -0.025533 0.022205
v 0.020400 -0.027619 0.025150
v 0.020400 -0.029956 0.027899
v 0.020400 -0.036226 0.037117
v 0.020400 -0.032526 0.030433
v 0.020400 -0.037025 0.036753
v 0.020400 -0.039022 -0.041936
v 0.020400 -0.038776 -0.041767
v 0.023400 -0.002186 -0.023286
v 0.020400 -0.002201 -0.023278
v 0.023400 -0.020161 -0.029547
v 0.020400 -0.019995 -0.029375
v 0.023400 -0.010702 -0.024616
v 0.020400 -0.009891 -0.024381
v 0.023400 -0.042017 0.037089
v 0.020400 -0.042034 0.037088
v 0.023400 -0.035611 0.033083
v 0.020400 -0.034886 0.032537
v 0.023400 -0.028938 0.026816
v 0.020400 -0.027263 0.024852
v 0.023400 -0.023838 0.019536
v 0.020400 -0.021910 0.015442
v 0.023400 -0.019992 0.009417
v 0.020400 -0.019544 0.006875
v 0.023400 -0.018965 0.000320
v 0.020400 -0.018965 -0.000320
v 0.023400 -0.019544 -0.006875
v 0.020400 -0.019992 -0.009417
v 0.023400 -0.021910 -0.015442
v 0.020400 -0.023838 -0.019536
v 0.023400 -0.027263 -0.024852
v 0.020400 -0.028938 -0.026816
v 0.023400 -0.034886 -0.032537
v 0.020400 -0.035611 -0.033083
v 0.023400 -0.009891 0.024381
v 0.020400 -0.010702 0.024616
v 0.023400 -0.019995 0.029375
v 0.020400 -0.020161 0.029547
v 0.023400 -0.002201 0.023278
v 0.020400 -0.002186 0.023286
v 0.020400 -0.039874 -0.039285
v 0.023400 -0.039794 -0.038844
v 0.023400 -0.038837 -0.037050
v 0.020400 -0.038922 -0.037166
v 0.020400 -0.036923 -0.036703
v 0.023400 -0.036803 -0.036782
v 0.023400 -0.035306 -0.038157
v 0.020400 -0.035251 -0.038325
v 0.023400 -0.035857 -0.040713
v 0.020400 -0.035640 -0.040320
v 0.020400 -0.037961 -0.041326
v 0.023400 -0.037992 -0.041274
v 0.020400 -0.035857 0.040713
v 0.023400 -0.035640 0.040320
v 0.023400 -0.035251 0.038325
v 0.020400 -0.035306 0.038157
v 0.023400 -0.036659 0.036833
v 0.020400 -0.036803 0.036782
v 0.023400 -0.038688 0.036955
v 0.020400 -0.038837 0.037050
v 0.023400 -0.039874 0.039285
v 0.020400 -0.039794 0.038844
v 0.020400 -0.038628 0.041089
v 0.023400 -0.038571 0.041068
v 0.023400 -0.005187 0.021695
v 0.020400 -0.004505 0.021302
v 0.023400 -0.003692 0.019893
v 0.020400 -0.003692 0.019107
v 0.023400 -0.004505 0.017698
v 0.020400 -0.005187 0.017305
v 0.023400 -0.006813 0.017305
v 0.020400 -0.007495 0.017698
v 0.023400 -0.008308 0.019107
v 0.020400 -0.008308 0.019893
v 0.023400 -0.007495 0.021302
v 0.020400 -0.006813 0.021695
v 0.023400 -0.005187 -0.017305
v 0.020400 -0.004505 -0.017698
v 0.023400 -0.003692 -0.019107
v 0.020400 -0.003692 -0.019893
v 0.023400 -0.004505 -0.021302
v 0.020400 -0.005187 -0.021695
v 0.023400 -0.006813 -0.021695
v 0.020400 -0.007495 -0.021302
v 0.023400 -0.008308 -0.019893
v 0.020400 -0.008308 -0.019107
v 0.023400 -0.007495 -0.017698
v 0.020400 -0.006813 -0.017305
v 0.023400 -0.006393 0.002308
v 0.020400 -0.005607 0.002308
v 0.023400 -0.004663 0.001831
v 0.020400 -0.004169 0.001337
v 0.023400 -0.003692 0.000393
v 0.020400 -0.003692 -0.000393
v 0.023400 -0.004169 -0.001337
v 0.020400 -0.004663 -0.001831
v 0.023400 -0.005607 -0.002308
v 0.020400 -0.006393 -0.002308
v 0.023400 -0.007337 -0.001831
v 0.020400 -0.007831 -0.001337
v 0.023400 -0.008308 -0.000393
v 0.020400 -0.008308 0.000393
v 0.023400 -0.007831 0.001337
v 0.020400 -0.007337 0.001831
v 0.020400 -0.036383 -0.042358
v 0.023400 -0.036150 -0.042286
v 0.023400 -0.038237 -0.042296
v 0.020400 -0.038258 -0.042262
v 0.020400 -0.042035 -0.037115
v 0.023400 -0.042016 -0.037062
v 0.023400 -0.027969 -0.037083
v 0.020400 -0.028561 -0.037559
v 0.023400 -0.038628 -0.041089
v 0.023400 -0.038988 -0.042003
v 0.020400 -0.038571 -0.041068
v 0.020400 -0.039026 -0.042015
v 0.023400 -0.040303 -0.041124
v 0.020400 -0.040302 -0.041105
v 0.023400 -0.028561 0.037559
v 0.020400 -0.027969 0.037083
v 0.023400 -0.036383 0.042358
v 0.020400 -0.036150 0.042286
v 0.023400 -0.040338 0.041064
v 0.020400 -0.040266 0.041162
v 0.023400 -0.039026 0.042015
v 0.020400 -0.038988 0.042003
v 0.020400 -0.038237 0.042296
v 0.020400 -0.037992 0.041274
v 0.023400 -0.038258 0.042262
v 0.023400 -0.037961 0.041326
vn 1.0000 -0.0000 -0.0000
vn -1.0000 -0.0000 -0.0000
vn -1.0000 -0.0000 -0.0001
vn 0.0055 0.7546 0.6561
vn 0.0073 0.7570 0.6534
vn -0.0035 0.2749 0.9615
vn -0.0069 0.3286 0.9445
vn 0.0050 0.5723 0.8201
vn 0.0099 0.5978 0.8016
vn -0.0100 0.9999 -0.0042
vn -0.0147 0.9999 -0.0060
vn 0.0045 0.1185 -0.9929
vn 0.0075 0.1184 -0.9929
vn 0.0097 0.1183 -0.9929
vn 0.0133 0.1222 -0.9924
vn 0.0139 0.1222 -0.9924
vn 0.0149 0.1222 -0.9924
vn -0.0004 1.0000 -0.0018
vn -0.0001 1.0000 -0.0018
vn 0.0040 1.0000 -0.0022
vn 0.0043 1.0000 -0.0022
vn -0.0075 0.1230 0.9924
vn -0.0106 0.1230 0.9924
vn -0.0128 0.1228 0.9923
vn -0.0132 0.1255 0.9920
vn -0.0139 0.1255 0.9920
vn -0.0149 0.1255 0.9920
vn 0.0147 0.9999 0.0060
vn -0.0073 0.7570 -0.6534
vn 0.0100 0.9999 0.0042
vn -0.0055 0.7546 -0.6561
vn -0.0099 0.5978 -0.8016
vn -0.0050 0.5723 -0.8201
vn 0.0069 0.3286 -0.9445
vn 0.0035 0.2749 -0.9615
vn -0.0495 0.4877 -0.8716
vn 0.0391 0.6142 -0.7882
vn 0.0202 0.6641 -0.7474
vn 0.0128 0.3940 -0.9190
vn 0.0141 -0.4983 -0.8669
vn -0.0025 -0.5094 -0.8605
vn -0.0020 -0.8818 -0.4716
vn 0.0004 -0.8871 -0.4616
vn 0.0011 -0.4962 -0.8682
vn 0.0040 -0.5243 -0.8516
vn -0.0013 -0.6865 -0.7272
vn -0.0090 -0.7231 -0.6907
vn 0.0034 -0.8627 -0.5057
vn 0.0066 -0.8350 -0.5502
vn -0.0273 -0.9285 -0.3703
vn -0.0005 -0.9590 -0.2833
vn -0.0259 -0.9831 -0.1810
vn 0.0141 -0.9981 -0.0607
vn -0.0161 -0.9993 0.0339
vn -0.0028 -0.9833 0.1818
vn 0.0134 -0.9790 0.2033
vn 0.0116 -0.9400 0.3408
vn -0.0241 -0.9062 0.4222
vn -0.0104 -0.8479 0.5301
vn -0.0181 -0.8092 0.5872
vn -0.0065 -0.7130 0.7012
vn -0.0027 -0.6773 0.7357
vn -0.0040 -0.5243 0.8516
vn -0.0011 -0.4962 0.8682
vn -0.0004 -0.8871 0.4616
vn 0.0020 -0.8818 0.4716
vn -0.0391 0.6142 0.7882
vn -0.0202 0.6641 0.7474
vn 0.0495 0.4877 0.8716
vn -0.0128 0.3940 0.9190
vn -0.0141 -0.4983 0.8669
vn 0.0025 -0.5094 0.8605
vn 0.0416 -0.7330 -0.6790
vn -0.0408 -0.2155 -0.9756
vn 0.0358 0.0761 -0.9965
vn -0.0211 -0.8519 -0.5233
vn 0.0124 -0.9833 0.1815
vn -0.0114 -0.9657 0.2593
vn -0.0033 -0.4243 0.9055
vn 0.0125 -0.4796 0.8774
vn 0.0153 0.4374 0.8991
vn -0.0125 0.4796 0.8774
vn -0.0057 0.9877 0.1561
vn -0.0066 0.9928 0.1199
vn -0.0375 0.6657 -0.7453
vn 0.0050 0.7948 -0.6068
vn 0.0546 -0.6403 -0.7662
vn -0.0546 -0.3434 -0.9376
vn 0.0546 0.3434 -0.9376
vn -0.0546 -0.9837 -0.1715
vn 0.0546 -0.9837 0.1715
vn -0.0546 -0.6403 0.7662
vn 0.0546 -0.3434 0.9376
vn -0.0546 0.3434 0.9376
vn 0.0546 0.6403 0.7662
vn -0.0546 0.9837 0.1715
vn 0.0546 0.9837 -0.1715
vn -0.0546 0.6403 -0.7662
vn -0.0546 0.1715 -0.9837
vn 0.0546 -0.1715 -0.9837
vn -0.0546 -0.7662 -0.6403
vn 0.0546 -0.9376 -0.3434
vn -0.0546 -0.9376 0.3434
vn 0.0546 -0.7662 0.6403
vn -0.0546 -0.1715 0.9837
vn 0.0546 0.1715 0.9837
vn -0.0546 0.7662 0.6403
vn 0.0546 0.9376 0.3434
vn -0.0546 0.9376 -0.3434
vn 0.0546 0.7662 -0.6403
vn -0.0153 0.4374 -0.8991
vn 0.0153 -0.4374 -0.8991
vn -0.0125 -0.4796 -0.8774
vn -0.0044 -0.9842 -0.1773
vn 0.0053 -0.9916 -0.1290
vn -0.0257 -0.7369 0.6755
vn 0.0079 -0.7816 0.6238
vn 0.0256 -0.0847 0.9961
vn -0.0256 0.0847 0.9961
vn 0.0257 0.7369 0.6755
vn -0.0079 0.7816 0.6238
vn -0.0053 0.9916 -0.1290
vn 0.0044 0.9842 -0.1773
vn 0.0125 0.4796 -0.8774
vn -0.0139 0.5901 -0.8072
vn -0.0098 0.5766 -0.8169
vn 0.0079 0.3290 -0.9443
vn 0.0036 0.2754 -0.9613
vn -0.0102 0.7569 -0.6535
vn -0.0055 0.7551 -0.6555
vn 0.0034 -0.5652 -0.8250
vn 0.0072 -0.5650 -0.8251
vn 0.0032 -0.5669 -0.8238
vn 0.0239 -0.5735 -0.8188
vn 0.0343 -0.5724 -0.8193
vn 0.0313 -0.5711 -0.8203
vn -0.0325 -0.6842 -0.7286
vn -0.0143 -0.6893 -0.7243
vn 0.0138 -0.7393 -0.6732
vn -0.0135 -0.7993 -0.6008
vn 0.0445 -0.8759 -0.4804
vn -0.0445 -0.9282 -0.3694
vn 0.0166 -0.9713 -0.2373
vn -0.0067 -0.9886 -0.1505
vn -0.0073 -0.9999 -0.0151
vn 0.0073 -0.9999 0.0151
vn 0.0067 -0.9886 0.1505
vn -0.0166 -0.9713 0.2373
vn 0.0445 -0.9282 0.3694
vn -0.0445 -0.8759 0.4804
vn 0.0134 -0.7993 0.6008
vn -0.0138 -0.7393 0.6732
vn 0.0143 -0.6893 0.7243
vn 0.0325 -0.6842 0.7286
vn -0.0243 -0.5724 0.8196
vn -0.0347 -0.5712 0.8201
vn -0.0317 -0.5700 0.8211
vn -0.0111 -0.5665 0.8240
vn -0.0149 -0.5664 0.8240
vn -0.0115 -0.5683 0.8227
vn 0.0055 0.7551 0.6555
vn 0.0102 0.7569 0.6535
vn -0.0036 0.2754 0.9613
vn -0.0079 0.3290 0.9443
vn 0.0098 0.5766 0.8169
vn 0.0139 0.5901 0.8072
vn -0.0123 0.9947 0.1020
vn -0.0177 0.9966 0.0804
vn 0.0086 0.9949 0.1005
vn -0.0193 0.9986 -0.0494
vn 0.0079 0.5854 -0.8107
vn 0.0113 0.6452 -0.7639
vn 0.0152 -0.2676 -0.9634
vn -0.0124 -0.3129 -0.9497
vn -0.0071 -0.9490 -0.3152
vn -0.0076 -0.9606 -0.2780
vn -0.0007 -0.7169 0.6971
vn 0.0193 -0.8058 0.5919
vn 0.0177 -0.7225 0.6911
vn -0.0086 -0.7085 0.7057
vn 0.0007 -0.7169 -0.6971
vn -0.0177 -0.7225 -0.6911
vn 0.0086 -0.7085 -0.7057
vn -0.0193 -0.8058 -0.5919
vn 0.0088 -0.9663 0.2574
vn 0.0182 -0.9514 0.3075
vn -0.0152 -0.3681 0.9297
vn 0.0152 -0.3011 0.9535
vn -0.0182 0.5440 0.8389
vn -0.0088 0.5872 0.8094
vn -0.0007 0.9961 -0.0885
vn 0.0193 0.9986 0.0494
vn 0.0177 0.9966 -0.0804
vn -0.0086 0.9949 -0.1005
vn -0.0367 0.1702 -0.9847
vn 0.0367 -0.1702 -0.9847
vn -0.0405 -0.5888 -0.8073
vn 0.0405 -0.8073 -0.5888
vn -0.0367 -0.9847 -0.1702
vn 0.0367 -0.9847 0.1702
vn -0.0405 -0.8073 0.5888
vn 0.0405 -0.5888 0.8073
vn -0.0367 -0.1702 0.9847
vn 0.0367 0.1702 0.9847
vn -0.0405 0.5888 0.8073
vn 0.0405 0.8073 0.5888
vn -0.0367 0.9847 0.1702
vn 0.0367 0.9847 -0.1702
vn -0.0405 0.8073 -0.5888
vn 0.0405 0.5888 -0.8073
vn 0.0167 -0.7858 -0.6183
vn -0.0086 0.2431 -0.9700
vn 0.0060 0.2889 -0.9573
vn -0.0166 -0.8209 -0.5708
vn 0.0010 0.6291 -0.7773
vn 0.0023 0.6031 -0.7976
vn 0.0126 -0.9213 -0.3886
vn 0.0067 -0.9198 -0.3923
vn 0.0045 -0.7714 -0.6364
vn -0.0042 -0.7779 -0.6284
vn 0.0159 0.2970 -0.9547
vn -0.0077 0.2475 -0.9688
vn -0.0023 0.6031 0.7976
vn -0.0060 0.2889 0.9573
vn 0.0086 0.2431 0.9700
vn -0.0010 0.6291 0.7773
vn -0.0167 -0.7858 0.6183
vn 0.0166 -0.8209 0.5708
vn 0.0050 -0.9212 0.3891
vn 0.0043 -0.7852 0.6192
vn -0.0004 -0.9197 0.3926
vn -0.0063 -0.7653 0.6436
vn 0.0116 0.2459 0.9692
vn -0.0158 0.3006 0.9536
s 0
usemtl link1_03_mat
f 1//1 2//1 3//1
f 4//1 5//1 6//1
f 7//1 8//1 9//1
f 10//1 9//1 8//1
f 9//1 10//1 11//1
f 12//1 11//1 10//1
f 13//1 11//1 12//1
f 6//1 5//1 14//1
f 15//1 16//1 17//1
f 18//1 17//1 16//1
f 18//1 19//1 17//1
f 20//1 17//1 19//1
f 17//1 20//1 7//1
f 21//1 7//1 20//1
f 7//1 21//1 8//1
f 23//1 22//1 24//1
f 23//1 24//1 13//1
f 25//1 13//1 24//1
f 5//1 26//1 14//1
f 27//1 14//1 26//1
f 14//1 27//1 28//1
f 29//1 28//1 27//1
f 28//1 29//1 30//1
f 1//1 31//1 2//1
f 30//1 2//1 31//1
f 2//1 30//1 32//1
f 29//1 32//1 30//1
f 3//1 33//1 1//1
f 34//1 33//1 3//1
f 33//1 34//1 35//1
f 36//1 35//1 34//1
f 35//1 36//1 15//1
f 37//1 15//1 36//1
f 15//1 37//1 16//1
f 13//1 25//1 11//1
f 38//1 22//1 23//1
f 22//1 38//1 39//1
f 40//1 39//1 38//1
f 39//1 40//1 6//1
f 41//1 6//1 40//1
f 6//1 41//1 4//1
f 42//1 43//1 44//1
f 44//1 43//1 45//1
f 48//1 49//1 60//1
f 50//1 60//1 49//1
f 60//1 50//1 51//1
f 52//1 53//1 54//1
f 47//1 55//1 46//1
f 56//1 46//1 55//1
f 57//1 46//1 56//1
f 1//1 46//1 57//1
f 46//1 1//1 58//1
f 33//1 58//1 1//1
f 58//1 33//1 59//1
f 60//1 61//1 62//1
f 63//1 64//1 58//1
f 65//1 58//1 64//1
f 58//1 65//1 66//1
f 67//1 58//1 59//1
f 68//1 58//1 67//1
f 58//1 68//1 63//1
f 69//1 70//1 71//1
f 72//1 71//1 70//1
f 71//1 72//1 73//1
f 43//1 74//1 45//1
f 75//1 45//1 74//1
f 45//1 75//1 76//1
f 77//1 76//1 75//1
f 76//1 77//1 78//1
f 79//1 78//1 77//1
f 78//1 79//1 68//1
f 80//1 68//1 79//1
f 68//1 80//1 63//1
f 48//1 60//1 62//1
f 73//1 72//1 66//1
f 66//1 72//1 58//1
f 69//1 81//1 70//1
f 82//1 70//1 81//1
f 62//1 70//1 82//1
f 70//1 62//1 61//1
f 50//1 83//1 51//1
f 84//1 51//1 83//1
f 54//1 51//1 84//1
f 51//1 54//1 53//1
f 42//1 44//1 85//1
f 52//1 85//1 44//1
f 85//1 52//1 54//1
f 86//1 87//1 88//1
f 89//1 90//1 91//1
f 89//1 91//1 92//1
f 93//1 46//1 94//1
f 153//1 94//1 46//1
f 94//1 153//1 95//1
f 93//1 96//1 46//1
f 97//1 46//1 96//1
f 46//1 97//1 98//1
f 99//1 100//1 101//1
f 102//1 101//1 100//1
f 101//1 102//1 103//1
f 47//1 103//1 102//1
f 103//1 47//1 104//1
f 104//1 47//1 105//1
f 46//1 105//1 47//1
f 105//1 46//1 106//1
f 98//1 106//1 46//1
f 107//1 108//1 91//1
f 109//1 110//1 111//1
f 114//1 115//1 116//1
f 117//1 116//1 115//1
f 116//1 117//1 118//1
f 119//1 120//1 153//1
f 121//1 153//1 120//1
f 153//1 121//1 95//1
f 122//1 123//1 124//1
f 123//1 122//1 125//1
f 126//1 125//1 122//1
f 125//1 126//1 110//1
f 127//1 110//1 126//1
f 110//1 127//1 111//1
f 124//1 107//1 122//1
f 91//1 122//1 107//1
f 122//1 91//1 128//1
f 90//1 128//1 91//1
f 114//1 129//1 115//1
f 130//1 115//1 129//1
f 131//1 115//1 130//1
f 132//1 115//1 131//1
f 99//1 133//1 100//1
f 134//1 100//1 133//1
f 100//1 134//1 135//1
f 111//1 136//1 109//1
f 137//1 109//1 136//1
f 109//1 137//1 138//1
f 139//1 138//1 137//1
f 113//1 138//1 139//1
f 112//1 138//1 113//1
f 118//1 117//1 113//1
f 113//1 117//1 112//1
f 132//1 131//1 140//1
f 131//1 141//1 140//1
f 142//1 140//1 141//1
f 140//1 142//1 143//1
f 87//1 143//1 142//1
f 86//1 143//1 87//1
f 134//1 144//1 135//1
f 145//1 135//1 144//1
f 135//1 145//1 146//1
f 147//1 146//1 145//1
f 146//1 147//1 148//1
f 149//1 148//1 147//1
f 148//1 149//1 150//1
f 88//1 151//1 86//1
f 152//1 86//1 151//1
f 92//1 86//1 152//1
f 86//1 92//1 153//1
f 91//1 153//1 92//1
f 154//1 153//1 91//1
f 153//1 154//1 155//1
f 119//1 153//1 156//1
f 156//1 153//1 157//1
f 155//1 157//1 153//1
f 157//1 155//1 150//1
f 158//1 150//1 155//1
f 150//1 158//1 148//1
f 159//1 160//1 161//1
f 162//1 161//1 160//1
f 163//1 164//1 165//1
f 166//1 165//1 164//1
f 165//1 166//1 167//1
f 163//1 168//1 164//1
f 169//1 164//1 168//1
f 164//1 169//1 170//1
f 169//1 171//1 170//1
f 172//1 170//1 171//1
f 170//1 172//1 173//1
f 174//1 173//1 172//1
f 173//1 174//1 175//1
f 176//1 175//1 174//1
f 177//1 175//1 176//1
f 175//1 177//1 178//1
f 185//1 180//1 179//1
f 162//1 181//1 161//1
f 182//1 161//1 181//1
f 161//1 182//1 183//1
f 184//1 183//1 182//1
f 183//1 184//1 185//1
f 186//1 185//1 184//1
f 180//1 185//1 186//1
f 175//1 91//1 108//1
f 178//1 91//1 175//1
f 91//1 178//1 187//1
f 187//1 178//1 188//1
f 189//1 188//1 178//1
f 188//1 189//1 190//1
f 191//1 190//1 189//1
f 190//1 191//1 159//1
f 192//1 159//1 191//1
f 159//1 192//1 160//1
f 167//1 166//1 193//1
f 194//1 193//1 166//1
f 193//1 194//1 195//1
f 196//1 195//1 194//1
f 195//1 197//1 198//1
f 198//1 197//1 180//1
f 179//1 180//1 197//1
f 195//1 196//1 197//1
f 199//2 200//2 201//2
f 202//2 203//2 204//2
f 207//2 208//2 209//2
f 210//2 211//2 212//2
f 213//2 212//2 211//2
f 212//2 213//2 214//2
f 202//2 204//2 217//2
f 218//2 219//2 204//2
f 209//2 208//2 220//2
f 201//2 221//2 199//2
f 222//2 199//2 221//2
f 217//2 199//2 222//2
f 199//2 217//2 223//2
f 204//2 223//2 217//2
f 224//2 223//2 204//2
f 210//2 225//2 211//2
f 226//2 211//2 225//2
f 216//2 211//2 226//2
f 215//2 211//2 216//2
f 199//3 227//3 200//3
f 200//2 227//2 228//2
f 229//2 228//2 227//2
f 228//2 229//2 230//2
f 231//2 218//2 232//2
f 204//2 232//2 218//2
f 232//2 204//2 233//2
f 203//2 233//2 204//2
f 207//2 209//2 234//2
f 235//2 234//2 209//2
f 234//2 235//2 232//2
f 236//2 232//2 235//2
f 232//2 236//2 231//2
f 230//2 229//2 216//2
f 216//2 229//2 215//2
f 208//2 237//2 220//2
f 238//2 220//2 237//2
f 220//2 238//2 239//2
f 240//2 239//2 238//2
f 206//2 239//2 240//2
f 205//2 239//2 206//2
f 214//2 213//2 206//2
f 206//2 213//2 205//2
f 241//2 242//2 243//2
f 243//2 242//2 244//2
f 245//2 246//2 247//2
f 248//2 249//2 247//2
f 250//2 251//2 252//2
f 253//2 254//2 223//2
f 255//2 223//2 254//2
f 256//2 257//2 250//2
f 258//2 250//2 257//2
f 250//2 258//2 259//2
f 260//2 261//2 262//2
f 263//2 264//2 247//2
f 265//2 247//2 264//2
f 247//2 265//2 266//2
f 267//2 268//2 223//2
f 263//2 247//2 269//2
f 246//2 269//2 247//2
f 269//2 246//2 255//2
f 255//2 246//2 223//2
f 249//2 245//2 247//2
f 245//2 249//2 270//2
f 268//2 273//2 223//2
f 274//2 223//2 273//2
f 223//2 274//2 253//2
f 275//2 276//2 277//2
f 278//2 277//2 276//2
f 242//2 279//2 244//2
f 280//2 244//2 279//2
f 244//2 280//2 281//2
f 282//2 281//2 280//2
f 281//2 282//2 247//2
f 283//2 247//2 282//2
f 247//2 283//2 248//2
f 270//2 284//2 245//2
f 285//2 245//2 284//2
f 245//2 285//2 286//2
f 285//2 287//2 286//2
f 288//2 286//2 287//2
f 286//2 288//2 289//2
f 290//2 289//2 288//2
f 241//2 243//2 291//2
f 260//2 291//2 243//2
f 291//2 260//2 262//2
f 292//2 293//2 294//2
f 272//2 294//2 293//2
f 294//2 272//2 295//2
f 278//2 296//2 277//2
f 297//2 277//2 296//2
f 277//2 297//2 298//2
f 299//2 298//2 297//2
f 298//2 299//2 300//2
f 299//2 301//2 300//2
f 267//2 300//2 301//2
f 223//2 300//2 267//2
f 300//2 223//2 302//2
f 302//2 223//2 303//2
f 224//2 303//2 223//2
f 258//2 304//2 259//2
f 305//2 259//2 304//2
f 262//2 259//2 305//2
f 259//2 262//2 261//2
f 266//2 306//2 247//2
f 307//2 247//2 306//2
f 247//2 307//2 308//2
f 271//2 308//2 307//2
f 308//2 271//2 309//2
f 272//2 309//2 271//2
f 295//2 272//2 310//2
f 271//2 310//2 272//2
f 310//2 271//2 311//2
f 312//2 311//2 271//2
f 311//2 312//2 313//2
f 314//2 313//2 312//2
f 313//2 314//2 275//2
f 315//2 275//2 314//2
f 275//2 315//2 276//2
f 256//2 250//2 252//2
f 290//2 316//2 289//2
f 317//2 289//2 316//2
f 252//2 289//2 317//2
f 289//2 252//2 251//2
f 318//2 319//2 320//2
f 321//2 320//2 319//2
f 320//2 321//2 331//2
f 322//2 331//2 321//2
f 323//2 324//2 325//2
f 292//2 326//2 327//2
f 328//2 322//2 329//2
f 323//2 325//2 330//2
f 322//2 328//2 331//2
f 325//2 332//2 330//2
f 333//2 330//2 332//2
f 330//2 333//2 334//2
f 335//2 334//2 333//2
f 334//2 335//2 336//2
f 337//2 338//2 339//2
f 340//2 339//2 338//2
f 340//2 341//2 339//2
f 342//2 339//2 341//2
f 339//2 342//2 318//2
f 343//2 318//2 342//2
f 318//2 343//2 319//2
f 346//2 344//2 345//2
f 344//2 346//2 347//2
f 348//2 347//2 346//2
f 347//2 348//2 323//2
f 349//2 323//2 348//2
f 323//2 349//2 324//2
f 345//2 344//2 350//2
f 345//2 350//2 329//2
f 328//2 329//2 350//2
f 292//2 351//2 326//2
f 336//2 326//2 351//2
f 326//2 336//2 352//2
f 335//2 352//2 336//2
f 327//2 293//2 292//2
f 353//2 293//2 327//2
f 293//2 353//2 354//2
f 355//2 354//2 353//2
f 354//2 355//2 337//2
f 356//2 337//2 355//2
f 337//2 356//2 338//2
f 357//2 358//2 359//2
f 360//2 359//2 358//2
f 361//2 390//2 362//2
f 363//2 362//2 390//2
f 365//2 364//2 361//2
f 364//2 365//2 366//2
f 367//2 366//2 365//2
f 366//2 367//2 368//2
f 367//2 369//2 368//2
f 370//2 368//2 369//2
f 368//2 370//2 371//2
f 372//2 371//2 370//2
f 372//2 373//2 371//2
f 374//2 371//2 373//2
f 371//2 374//2 375//2
f 374//2 376//2 375//2
f 377//2 375//2 376//2
f 375//2 377//2 378//2
f 379//2 378//2 377//2
f 378//2 379//2 380//2
f 381//2 380//2 379//2
f 382//2 380//2 381//2
f 380//2 382//2 383//2
f 362//2 363//2 388//2
f 357//2 384//2 358//2
f 385//2 358//2 384//2
f 358//2 385//2 386//2
f 387//2 386//2 385//2
f 386//2 387//2 388//2
f 389//2 388//2 387//2
f 362//2 388//2 389//2
f 361//2 364//2 390//2
f 380//2 204//2 219//2
f 383//2 204//2 380//2
f 204//2 383//2 391//2
f 391//2 383//2 392//2
f 393//2 392//2 383//2
f 392//2 393//2 394//2
f 395//2 394//2 393//2
f 394//2 395//2 360//2
f 396//2 360//2 395//2
f 360//2 396//2 359//2
s 1
f 401//4 402//5 397//6
f 398//7 397//6 402//5
f 397//6 398//7 399//8
f 400//9 399//8 398//7
f 401//4 406//10 402//5
f 404//11 402//5 406//10
s 0
f 403//12 404//13 405//14
f 406//15 405//16 404//17
s 1
f 407//18 408//19 405//20
f 403//21 405//20 408//19
s 0
f 407//22 409//23 408//24
f 410//25 408//26 409//27
s 1
f 409//28 415//29 410//30
f 416//31 410//30 415//29
f 411//32 412//33 413//34
f 414//35 413//34 412//33
f 413//34 414//35 415//29
f 416//31 415//29 414//35
f 419//36 417//37 418//38
f 417//37 419//36 420//39
f 514//40 420//39 419//36
f 420//39 514//40 515//41
f 412//33 411//32 417//37
f 418//38 417//37 411//32
f 516//42 517//43 421//44
f 422//45 421//44 517//43
f 421//44 422//45 423//46
f 424//47 423//46 422//45
f 423//46 424//47 425//48
f 426//49 425//48 424//47
f 427//50 425//48 426//49
f 425//48 427//50 428//51
f 429//52 428//51 427//50
f 428//51 429//52 430//53
f 431//54 430//53 429//52
f 430//53 431//54 432//55
f 433//56 432//55 431//54
f 432//55 433//56 434//57
f 435//58 434//57 433//56
f 434//57 435//58 436//59
f 437//60 436//59 435//58
f 436//59 437//60 438//61
f 439//62 438//61 437//60
f 438//61 439//62 440//63
f 441//64 440//63 439//62
f 440//63 441//64 442//65
f 443//66 442//65 441//64
f 399//8 400//9 444//67
f 445//68 444//67 400//9
f 446//69 444//67 445//68
f 444//67 446//69 447//70
f 448//71 447//70 446//69
f 447//70 448//71 449//72
f 452//73 450//74 451//75
f 450//74 452//73 453//76
f 454//77 453//76 452//73
f 453//76 454//77 455//78
f 455//78 454//77 456//79
f 457//80 456//79 454//77
f 458//81 456//79 457//80
f 456//79 458//81 459//82
f 459//82 458//81 460//83
f 461//84 460//83 458//81
f 460//83 461//84 462//85
f 463//86 462//85 461//84
f 451//75 462//85 463//86
f 462//85 451//75 450//74
f 465//87 464//88 475//89
f 464//88 465//87 466//90
f 467//91 466//90 465//87
f 466//90 467//91 468//92
f 469//93 468//92 467//91
f 468//92 469//93 470//94
f 471//95 470//94 469//93
f 470//94 471//95 472//96
f 473//97 472//96 471//95
f 472//96 473//97 474//98
f 475//89 474//98 473//97
f 474//98 475//89 464//88
f 477//87 476//88 487//89
f 476//88 477//87 478//90
f 479//91 478//90 477//87
f 478//90 479//91 480//92
f 481//93 480//92 479//91
f 480//92 481//93 482//94
f 483//95 482//94 481//93
f 482//94 483//95 484//96
f 485//97 484//96 483//95
f 484//96 485//97 486//98
f 487//89 486//98 485//97
f 486//98 487//89 476//88
f 488//99 489//100 490//101
f 491//102 490//101 489//100
f 490//101 491//102 492//103
f 493//104 492//103 491//102
f 492//103 493//104 494//105
f 495//106 494//105 493//104
f 494//105 495//106 496//107
f 497//108 496//107 495//106
f 496//107 497//108 498//109
f 499//110 498//109 497//108
f 498//109 499//110 488//99
f 489//100 488//99 499//110
f 512//111 500//112 501//113
f 501//113 500//112 502//114
f 503//115 502//114 500//112
f 502//114 503//115 504//116
f 505//117 504//116 503//115
f 506//118 504//116 505//117
f 504//116 506//118 507//119
f 508//120 507//119 506//118
f 507//119 508//120 509//121
f 509//121 508//120 510//122
f 511//123 510//122 508//120
f 510//122 511//123 512//111
f 513//124 512//111 511//123
f 500//112 512//111 513//124
f 514//40 442//65 515//41
f 443//66 515//41 442//65
f 516//42 449//72 517//43
f 448//71 517//43 449//72
s 0
f 518//1 519//1 520//1
f 520//1 519//1 521//1
f 522//1 523//1 524//1
f 523//1 525//1 524//1
f 526//1 524//1 525//1
f 524//1 526//1 527//1
f 528//1 527//1 526//1
f 527//1 528//1 529//1
f 530//1 529//1 528//1
f 529//1 530//1 531//1
f 534//1 535//1 536//1
f 537//1 538//1 539//1
f 540//1 539//1 538//1
f 539//1 540//1 541//1
f 542//1 541//1 540//1
f 541//1 542//1 543//1
f 544//1 543//1 542//1
f 543//1 544//1 545//1
f 546//1 547//1 548//1
f 553//1 554//1 555//1
f 550//1 549//1 556//1
f 558//1 557//1 562//1
f 557//1 558//1 559//1
f 556//1 559//1 558//1
f 559//1 556//1 560//1
f 549//1 560//1 556//1
f 561//1 562//1 563//1
f 551//1 552//1 564//1
f 555//1 565//1 553//1
f 566//1 553//1 565//1
f 553//1 566//1 537//1
f 567//1 537//1 566//1
f 537//1 567//1 538//1
f 568//1 569//1 570//1
f 548//1 547//1 571//1
f 574//1 575//1 576//1
f 576//1 577//1 574//1
f 578//1 574//1 577//1
f 574//1 578//1 579//1
f 580//1 581//1 582//1
f 574//1 582//1 581//1
f 582//1 574//1 583//1
f 584//1 583//1 574//1
f 562//1 557//1 585//1
f 563//1 562//1 585//1
f 586//1 587//1 588//1
f 552//1 551//1 589//1
f 586//1 589//1 551//1
f 590//1 591//1 592//1
f 593//1 594//1 595//1
f 596//1 595//1 594//1
f 531//1 597//1 529//1
f 598//1 529//1 597//1
f 529//1 598//1 599//1
f 584//1 574//1 600//1
f 579//1 600//1 574//1
f 600//1 579//1 524//1
f 601//1 524//1 579//1
f 524//1 601//1 522//1
f 518//1 520//1 602//1
f 534//1 602//1 520//1
f 602//1 534//1 536//1
f 549//1 550//1 603//1
f 604//1 603//1 550//1
f 603//1 604//1 605//1
f 606//1 605//1 604//1
f 605//1 606//1 533//1
f 607//1 533//1 606//1
f 533//1 607//1 532//1
f 589//1 586//1 588//1
f 544//1 608//1 545//1
f 609//1 545//1 608//1
f 545//1 609//1 610//1
f 611//1 610//1 609//1
f 610//1 611//1 612//1
f 552//1 613//1 564//1
f 564//1 613//1 612//1
f 614//1 612//1 613//1
f 612//1 614//1 610//1
f 533//1 610//1 614//1
f 615//1 647//1 616//1
f 617//1 616//1 647//1
f 616//1 617//1 618//1
f 619//1 618//1 617//1
f 618//1 619//1 620//1
f 623//1 624//1 625//1
f 625//1 624//1 569//1
f 570//1 569//1 624//1
f 692//1 626//1 627//1
f 628//1 575//1 629//1
f 630//1 629//1 575//1
f 580//1 631//1 581//1
f 632//1 581//1 631//1
f 536//1 581//1 632//1
f 581//1 536//1 535//1
f 532//1 633//1 533//1
f 634//1 533//1 633//1
f 533//1 634//1 610//1
f 635//1 610//1 634//1
f 610//1 635//1 636//1
f 637//1 636//1 635//1
f 636//1 637//1 638//1
f 521//1 638//1 637//1
f 638//1 521//1 639//1
f 519//1 639//1 521//1
f 699//1 675//1 640//1
f 641//1 640//1 675//1
f 640//1 641//1 642//1
f 643//1 642//1 641//1
f 642//1 643//1 644//1
f 588//1 644//1 643//1
f 644//1 588//1 587//1
f 646//1 647//1 615//1
f 648//1 649//1 650//1
f 592//1 591//1 651//1
f 651//1 591//1 652//1
f 653//1 654//1 593//1
f 655//1 593//1 654//1
f 593//1 655//1 594//1
f 599//1 596//1 650//1
f 574//1 656//1 657//1
f 646//1 615//1 645//1
f 625//1 658//1 623//1
f 648//1 623//1 658//1
f 623//1 648//1 622//1
f 650//1 622//1 648//1
f 622//1 650//1 621//1
f 570//1 659//1 568//1
f 651//1 568//1 659//1
f 652//1 568//1 651//1
f 660//1 590//1 592//1
f 590//1 660//1 661//1
f 662//1 661//1 660//1
f 661//1 662//1 692//1
f 653//1 663//1 654//1
f 664//1 654//1 663//1
f 654//1 664//1 665//1
f 666//1 665//1 664//1
f 665//1 666//1 628//1
f 667//1 628//1 666//1
f 628//1 667//1 575//1
f 668//1 650//1 669//1
f 596//1 669//1 650//1
f 669//1 596//1 670//1
f 594//1 670//1 596//1
f 668//1 671//1 650//1
f 672//1 650//1 671//1
f 650//1 672//1 673//1
f 656//1 574//1 573//1
f 573//1 574//1 572//1
f 699//1 674//1 675//1
f 619//1 676//1 620//1
f 620//1 676//1 677//1
f 678//1 677//1 676//1
f 677//1 678//1 679//1
f 680//1 679//1 678//1
f 679//1 680//1 681//1
f 622//1 681//1 680//1
f 681//1 622//1 621//1
f 649//1 682//1 650//1
f 683//1 650//1 682//1
f 650//1 683//1 684//1
f 626//1 692//1 662//1
f 692//1 627//1 685//1
f 547//1 686//1 571//1
f 687//1 571//1 686//1
f 571//1 687//1 688//1
f 689//1 688//1 687//1
f 573//1 688//1 689//1
f 572//1 688//1 573//1
f 615//1 690//1 645//1
f 599//1 650//1 529//1
f 684//1 529//1 650//1
f 529//1 684//1 553//1
f 691//1 553//1 684//1
f 553//1 691//1 554//1
f 546//1 548//1 693//1
f 694//1 693//1 548//1
f 693//1 694//1 672//1
f 695//1 672//1 694//1
f 672//1 695//1 673//1
f 657//1 696//1 574//1
f 697//1 574//1 696//1
f 574//1 697//1 575//1
f 698//1 575//1 697//1
f 575//1 698//1 630//1
f 674//1 699//1 700//1
f 699//1 701//1 700//1
f 702//2 703//2 704//2
f 704//2 703//2 705//2
f 706//2 707//2 708//2
f 709//2 710//2 711//2
f 712//2 711//2 710//2
f 711//2 712//2 713//2
f 714//2 715//2 716//2
f 717//2 716//2 715//2
f 718//2 719//2 720//2
f 721//2 720//2 719//2
f 720//2 721//2 722//2
f 723//2 724//2 725//2
f 713//2 726//2 711//2
f 727//2 711//2 726//2
f 711//2 727//2 716//2
f 728//2 716//2 727//2
f 716//2 728//2 714//2
f 729//2 730//2 731//2
f 732//2 733//2 721//2
f 734//2 735//2 736//2
f 723//2 725//2 737//2
f 730//2 738//2 731//2
f 739//2 731//2 738//2
f 731//2 739//2 740//2
f 733//2 741//2 721//2
f 742//2 721//2 741//2
f 721//2 742//2 722//2
f 736//2 735//2 743//2
f 744//2 743//2 735//2
f 743//2 744//2 745//2
f 746//2 745//2 744//2
f 745//2 746//2 747//2
f 748//2 747//2 746//2
f 747//2 748//2 749//2
f 752//2 753//2 754//2
f 736//2 755//2 734//2
f 756//2 734//2 755//2
f 734//2 756//2 757//2
f 758//2 757//2 756//2
f 759//2 760//2 761//2
f 763//2 764//2 765//2
f 711//2 766//2 709//2
f 731//2 709//2 766//2
f 709//2 731//2 720//2
f 740//2 720//2 731//2
f 720//2 740//2 718//2
f 761//2 767//2 759//2
f 768//2 759//2 767//2
f 759//2 768//2 769//2
f 770//2 802//2 771//2
f 772//2 771//2 802//2
f 771//2 772//2 773//2
f 774//2 773//2 775//2
f 776//2 777//2 778//2
f 778//2 779//2 776//2
f 780//2 776//2 779//2
f 776//2 780//2 754//2
f 781//2 754//2 780//2
f 753//2 782//2 754//2
f 783//2 754//2 782//2
f 754//2 783//2 784//2
f 732//2 721//2 785//2
f 786//2 785//2 721//2
f 785//2 786//2 787//2
f 788//2 787//2 786//2
f 787//2 788//2 784//2
f 789//2 784//2 788//2
f 784//2 789//2 790//2
f 703//2 791//2 705//2
f 792//2 705//2 791//2
f 705//2 792//2 793//2
f 794//2 793//2 792//2
f 793//2 794//2 795//2
f 729//2 795//2 794//2
f 795//2 729//2 796//2
f 731//2 796//2 729//2
f 801//2 802//2 770//2
f 773//2 772//2 775//2
f 724//2 723//2 803//2
f 804//2 803//2 723//2
f 803//2 804//2 708//2
f 725//2 805//2 737//2
f 806//2 737//2 805//2
f 737//2 806//2 807//2
f 808//2 807//2 806//2
f 751//2 807//2 808//2
f 750//2 807//2 751//2
f 781//2 809//2 754//2
f 810//2 754//2 809//2
f 754//2 810//2 752//2
f 716//2 752//2 810//2
f 752//2 716//2 811//2
f 717//2 811//2 716//2
f 814//2 813//2 812//2
f 813//2 814//2 815//2
f 856//2 815//2 814//2
f 839//2 797//2 816//2
f 797//2 817//2 816//2
f 816//2 817//2 818//2
f 822//2 821//2 844//2
f 821//2 822//2 823//2
f 824//2 823//2 822//2
f 823//2 824//2 825//2
f 749//2 748//2 826//2
f 708//2 826//2 748//2
f 826//2 708//2 827//2
f 707//2 827//2 708//2
f 827//2 707//2 760//2
f 761//2 760//2 707//2
f 768//2 828//2 769//2
f 798//2 769//2 828//2
f 799//2 769//2 798//2
f 829//2 830//2 831//2
f 801//2 770//2 800//2
f 777//2 776//2 751//2
f 751//2 776//2 750//2
f 754//2 765//2 764//2
f 765//2 754//2 832//2
f 832//2 754//2 833//2
f 835//2 856//2 834//2
f 836//2 812//2 813//2
f 812//2 836//2 837//2
f 838//2 837//2 836//2
f 839//2 840//2 838//2
f 838//2 840//2 837//2
f 825//2 824//2 841//2
f 842//2 841//2 824//2
f 843//2 844//2 845//2
f 831//2 830//2 798//2
f 798//2 830//2 799//2
f 775//2 846//2 774//2
f 774//2 846//2 847//2
f 848//2 847//2 846//2
f 847//2 848//2 849//2
f 850//2 849//2 848//2
f 849//2 850//2 851//2
f 706//2 851//2 850//2
f 851//2 706//2 762//2
f 790//2 852//2 784//2
f 853//2 784//2 852//2
f 784//2 853//2 754//2
f 854//2 754//2 853//2
f 754//2 854//2 833//2
f 702//2 704//2 855//2
f 763//2 855//2 704//2
f 855//2 763//2 765//2
f 797//2 839//2 838//2
f 844//2 821//2 858//2
f 845//2 844//2 858//2
f 859//2 860//2 861//2
f 770//2 862//2 800//2
f 804//2 863//2 708//2
f 864//2 708//2 863//2
f 708//2 864//2 706//2
f 865//2 706//2 864//2
f 706//2 865//2 762//2
f 835//2 815//2 856//2
f 841//2 842//2 866//2
f 867//2 866//2 842//2
f 866//2 867//2 868//2
f 869//2 868//2 867//2
f 868//2 869//2 820//2
f 870//2 820//2 869//2
f 820//2 870//2 819//2
f 834//2 856//2 857//2
f 758//2 871//2 757//2
f 872//2 757//2 871//2
f 757//2 872//2 766//2
f 873//2 766//2 872//2
f 766//2 873//2 731//2
f 873//2 874//2 731//2
f 875//2 731//2 874//2
f 731//2 875//2 876//2
f 877//2 829//2 831//2
f 829//2 877//2 878//2
f 859//2 878//2 877//2
f 878//2 859//2 861//2
f 876//2 879//2 731//2
f 880//2 731//2 879//2
f 731//2 880//2 881//2
f 819//2 731//2 820//2
f 881//2 820//2 731//2
f 820//2 881//2 882//2
f 883//2 882//2 881//2
f 882//2 883//2 884//2
f 818//2 884//2 883//2
f 817//2 884//2 818//2
f 886//2 861//2 860//2
f 885//2 861//2 886//2
s 1
f 889//125 890//126 891//127
f 892//128 891//127 890//126
f 891//127 892//128 887//129
f 888//130 887//129 892//128
s 0
f 893//131 894//132 895//133
f 896//134 895//135 894//136
s 1
f 895//137 896//138 897//139
f 898//140 897//139 896//138
f 897//139 898//140 899//141
f 900//142 899//141 898//140
f 899//141 900//142 901//143
f 902//144 901//143 900//142
f 901//143 902//144 903//145
f 904//146 903//145 902//144
f 903//145 904//146 905//147
f 906//148 905//147 904//146
f 905//147 906//148 907//149
f 908//150 907//149 906//148
f 907//149 908//150 909//151
f 910//152 909//151 908//150
f 909//151 910//152 911//153
f 912//154 911//153 910//152
s 0
f 911//155 912//156 988//157
f 987//158 988//159 912//160
s 1
f 917//161 918//162 913//163
f 914//164 913//163 918//162
f 913//163 914//164 915//165
f 916//166 915//165 914//164
f 917//161 887//129 918//162
f 888//130 918//162 887//129
f 919//167 991//168 993//169
f 991//168 919//167 920//170
f 920//170 919//167 921//171
f 922//172 921//171 919//167
f 923//173 921//171 922//172
f 921//171 923//173 924//174
f 924//174 923//173 925//175
f 926//176 925//175 923//173
f 925//175 926//176 927//177
f 928//178 927//177 926//176
f 929//179 927//177 928//178
f 927//177 929//179 930//180
f 931//181 1008//182 1006//183
f 1008//182 931//181 932//184
f 932//184 931//181 933//185
f 934//186 933//185 931//181
f 933//185 934//186 935//187
f 936//188 935//187 934//186
f 935//187 936//188 937//189
f 938//190 937//189 936//188
f 937//189 938//190 939//191
f 940//192 939//191 938//190
f 941//193 939//191 940//192
f 939//191 941//193 942//194
f 944//87 943//88 954//89
f 943//88 944//87 945//90
f 946//91 945//90 944//87
f 945//90 946//91 947//92
f 948//93 947//92 946//91
f 947//92 948//93 949//94
f 950//95 949//94 948//93
f 949//94 950//95 951//96
f 952//97 951//96 950//95
f 951//96 952//97 953//98
f 954//89 953//98 952//97
f 953//98 954//89 943//88
f 956//87 955//88 966//89
f 955//88 956//87 957//90
f 958//91 957//90 956//87
f 957//90 958//91 959//92
f 960//93 959//92 958//91
f 959//92 960//93 961//94
f 962//95 961//94 960//93
f 961//94 962//95 963//96
f 964//97 963//96 962//95
f 963//96 964//97 965//98
f 966//89 965//98 964//97
f 965//98 966//89 955//88
f 967//195 968//196 969//197
f 970//198 969//197 968//196
f 969//197 970//198 971//199
f 972//200 971//199 970//198
f 971//199 972//200 973//201
f 974//202 973//201 972//200
f 973//201 974//202 975//203
f 976//204 975//203 974//202
f 975//203 976//204 977//205
f 978//206 977//205 976//204
f 977//205 978//206 979//207
f 980//208 979//207 978//206
f 979//207 980//208 981//209
f 982//210 981//209 980//208
f 981//209 982//210 967//195
f 968//196 967//195 982//210
f 985//211 983//212 984//213
f 983//212 985//211 986//214
f 890//126 889//125 989//215
f 890//126 989//215 990//216
f 984//213 990//216 989//215
f 990//216 984//213 983//212
f 988//217 987//218 995//219
f 996//220 995//219 987//218
f 991//168 992//221 993//169
f 994//222 993//169 992//221
f 985//211 930//180 986//214
f 929//179 986//214 930//180
f 994//222 992//221 995//219
f 994//222 995//219 996//220
f 997//223 1000//224 999//225
f 1000//224 997//223 998//226
f 915//165 998//226 997//223
f 998//226 915//165 916//166
f 1005//227 1007//228 999//225
f 1005//227 999//225 1000//224
f 893//229 1001//230 894//231
f 1002//232 894//231 1001//230
f 1003//233 1002//232 1001//230
f 1002//232 1003//233 1004//234
f 1005//227 1006//183 1007//228
f 1008//182 1007//228 1006//183
f 941//193 1004//234 942//194
f 1003//233 942//194 1004//234
