# Blender 4.3.2
# www.blender.org
mtllib link1_02.mtl
o link1_02
v -0.020400 -0.004463 0.020137
v -0.020400 -0.004987 0.020820
v -0.020458 -0.002000 0.013690
v -0.020400 -0.004463 0.018863
v -0.020400 -0.004350 0.019500
v -0.020400 -0.006217 0.021149
v -0.020400 -0.005573 0.021094
v -0.020400 -0.007013 0.020820
v -0.020400 -0.007537 0.020137
v -0.020416 -0.010000 0.014004
v -0.020400 -0.007650 0.019500
v -0.020400 -0.007537 0.018863
v -0.020400 -0.007013 0.018180
v -0.020400 -0.004987 0.018180
v -0.020400 -0.006427 0.017906
v -0.020400 -0.005783 0.017851
v -0.021488 -0.010000 0.012646
v -0.039112 -0.010000 0.012387
v -0.039100 0.000000 0.012342
v -0.020400 -0.004463 -0.018863
v -0.020400 -0.004987 -0.018180
v -0.020448 -0.002000 -0.013761
v -0.020400 -0.004463 -0.020137
v -0.020365 -0.002000 -0.023576
v -0.020400 -0.004987 -0.020820
v -0.020400 -0.004350 -0.019500
v -0.020400 -0.005783 -0.017851
v -0.020449 -0.010000 -0.013640
v -0.020400 -0.006427 -0.017906
v -0.020400 -0.007537 -0.020137
v -0.020387 -0.010000 -0.023464
v -0.020400 -0.007013 -0.020820
v -0.020400 -0.007650 -0.019500
v -0.020400 -0.007537 -0.018863
v -0.020400 -0.007013 -0.018180
v -0.020400 -0.006427 -0.021094
v -0.020400 -0.005783 -0.021149
v -0.016309 -0.000000 -0.026549
v 0.020371 -0.002000 -0.023570
v 0.020385 -0.010000 -0.023475
v 0.015203 -0.010000 -0.027301
v -0.016404 -0.010000 -0.026531
v -0.009811 -0.000000 -0.029608
v -0.009711 -0.010000 -0.029609
v -0.003384 -0.010000 -0.030962
v -0.001556 -0.000000 -0.031149
v 0.005489 -0.010000 -0.030704
v 0.007567 -0.000000 -0.030301
v 0.015796 -0.000000 -0.026857
v 0.020440 -0.000000 -0.023580
v -0.040753 0.004400 -0.005611
v -0.039626 0.004400 -0.010503
v -0.039665 -0.000000 -0.010501
v -0.039076 -0.000000 -0.012354
v -0.039130 -0.010000 -0.012359
v -0.040742 -0.010000 0.005819
v -0.041077 0.004400 0.002347
v -0.040977 -0.010000 -0.004214
v -0.023802 -0.000000 -0.012541
v -0.023628 -0.002000 -0.012570
v -0.035108 -0.000000 -0.005261
v -0.035456 0.000000 0.001759
v -0.039756 0.000000 0.010329
v -0.039307 0.000000 0.011956
v -0.005058 0.000000 0.030705
v -0.008364 0.000000 0.029974
v -0.005964 -0.000000 -0.005125
v -0.003536 -0.000000 -0.003536
v -0.002500 -0.000000 -0.004330
v -0.001294 -0.000000 -0.004830
v 0.000000 -0.000000 -0.005000
v 0.005964 -0.000000 -0.005125
v 0.001294 -0.000000 -0.004830
v 0.002500 -0.000000 -0.004330
v -0.005964 0.000000 0.005125
v -0.004830 0.000000 0.001294
v -0.005000 0.000000 0.000000
v -0.004830 -0.000000 -0.001294
v -0.004330 -0.000000 -0.002500
v 0.003536 0.000000 0.003536
v 0.002500 0.000000 0.004330
v 0.005964 0.000000 0.005125
v 0.001294 0.000000 0.004830
v 0.000000 0.000000 0.005000
v -0.001294 0.000000 0.004830
v -0.002500 0.000000 0.004330
v -0.003536 0.000000 0.003536
v -0.004330 0.000000 0.002500
v 0.003536 -0.000000 -0.003536
v 0.004330 -0.000000 -0.002500
v 0.004330 0.000000 0.002500
v 0.004830 -0.000000 -0.001294
v 0.005000 -0.000000 -0.000000
v 0.004830 0.000000 0.001294
v -0.022429 -0.000000 -0.014115
v -0.022800 -0.000000 -0.013273
v -0.005964 -0.000000 -0.012000
v -0.023400 -0.000000 -0.012768
v -0.014640 -0.000000 -0.027461
v -0.017536 -0.000000 -0.025708
v -0.020182 -0.000000 -0.023737
v -0.020795 -0.000000 -0.023523
v -0.022120 -0.000000 -0.023469
v -0.008364 -0.000000 -0.029974
v -0.011570 -0.000000 -0.028888
v -0.022384 -0.000000 -0.023158
v -0.005058 -0.000000 -0.030705
v 0.002750 -0.000000 -0.016000
v 0.002656 -0.000000 -0.015288
v 0.005964 -0.000000 -0.012000
v -0.000712 -0.000000 -0.018656
v -0.001693 -0.000000 -0.031073
v 0.000000 -0.000000 -0.018750
v 0.001693 -0.000000 -0.031073
v -0.002200 -0.000000 -0.017688
v -0.001375 -0.000000 -0.018382
v 0.001375 -0.000000 -0.018382
v 0.002200 -0.000000 -0.017688
v 0.005058 -0.000000 -0.030705
v 0.002656 -0.000000 -0.016712
v 0.002200 -0.000000 -0.014312
v 0.001375 -0.000000 -0.013618
v -0.001375 -0.000000 -0.013618
v -0.002200 -0.000000 -0.014312
v 0.000712 -0.000000 -0.018656
v 0.000712 -0.000000 -0.013344
v 0.000000 -0.000000 -0.013250
v -0.000712 -0.000000 -0.013344
v -0.002656 -0.000000 -0.015288
v -0.002750 -0.000000 -0.016000
v -0.002656 -0.000000 -0.016712
v 0.008364 -0.000000 -0.029974
v 0.020182 -0.000000 -0.023737
v 0.020795 -0.000000 -0.023523
v 0.022391 -0.000000 -0.023142
v 0.017536 -0.000000 -0.025708
v 0.014640 -0.000000 -0.027461
v 0.011570 -0.000000 -0.028888
v 0.022120 -0.000000 -0.023469
v 0.022400 0.000000 0.012000
v 0.020795 0.000000 0.023523
v 0.022120 0.000000 0.023469
v 0.017536 0.000000 0.025708
v 0.020182 0.000000 0.023737
v 0.005964 0.000000 0.012000
v 0.022384 0.000000 0.023158
v 0.008364 0.000000 0.029974
v 0.011570 0.000000 0.028888
v 0.014640 0.000000 0.027461
v 0.005058 0.000000 0.030705
v -0.001693 0.000000 0.031073
v 0.001693 0.000000 0.031073
v -0.017536 0.000000 0.025708
v -0.014640 0.000000 0.027461
v -0.011570 0.000000 0.028888
v -0.023400 0.000000 0.012768
v -0.022800 0.000000 0.013273
v -0.005964 0.000000 0.012000
v -0.022429 0.000000 0.014115
v -0.038604 0.000000 0.012486
v -0.024068 0.000000 0.012514
v -0.022384 0.000000 0.023158
v -0.020182 0.000000 0.023737
v -0.022120 0.000000 0.023469
v -0.020795 0.000000 0.023523
v -0.039017 0.000000 0.012309
v -0.034394 0.000000 0.008877
v -0.034568 0.000000 0.009231
v -0.035108 0.000000 0.005261
v -0.039402 0.000000 0.010534
v -0.035456 -0.000000 -0.001759
v -0.034568 -0.000000 -0.009231
v -0.034394 -0.000000 -0.008877
v -0.039756 -0.000000 -0.010329
v -0.039307 -0.000000 -0.011956
v -0.039402 -0.000000 -0.010534
v -0.024068 -0.000000 -0.012514
v -0.038604 -0.000000 -0.012486
v -0.039017 -0.000000 -0.012309
v -0.013856 -0.000000 -0.005250
v -0.014568 -0.000000 -0.005344
v -0.015544 -0.000000 -0.005800
v -0.016238 -0.000000 -0.006625
v -0.015231 -0.000000 -0.010382
v -0.015801 -0.000000 -0.009945
v -0.016238 -0.000000 -0.009375
v -0.012481 -0.000000 -0.010382
v -0.011912 -0.000000 -0.009945
v -0.011475 -0.000000 -0.009375
v -0.011200 -0.000000 -0.008712
v -0.016513 -0.000000 -0.007288
v -0.016606 -0.000000 -0.008000
v -0.016513 -0.000000 -0.008712
v -0.011106 -0.000000 -0.008000
v -0.011200 -0.000000 -0.007288
v -0.011475 -0.000000 -0.006625
v -0.011912 -0.000000 -0.006055
v -0.012481 -0.000000 -0.005618
v -0.013145 -0.000000 -0.005344
v -0.014568 -0.000000 -0.010656
v -0.013495 -0.000000 -0.010749
v -0.015231 0.000000 0.010382
v -0.015801 0.000000 0.009945
v -0.016513 0.000000 0.007288
v -0.016238 0.000000 0.006625
v -0.014568 0.000000 0.010656
v -0.013495 0.000000 0.010749
v -0.016238 0.000000 0.009375
v -0.016513 0.000000 0.008712
v -0.016606 0.000000 0.008000
v -0.013856 0.000000 0.005250
v -0.013145 0.000000 0.005344
v -0.012481 0.000000 0.005618
v -0.011912 0.000000 0.006055
v -0.015544 0.000000 0.005800
v -0.014568 0.000000 0.005344
v -0.011106 0.000000 0.008000
v -0.011200 0.000000 0.008712
v -0.011475 0.000000 0.009375
v -0.011475 0.000000 0.006625
v -0.011200 0.000000 0.007288
v -0.011912 0.000000 0.009945
v -0.012481 0.000000 0.010382
v -0.000712 0.000000 0.018656
v -0.001375 0.000000 0.018382
v -0.002200 0.000000 0.017688
v -0.002200 0.000000 0.014312
v -0.001375 0.000000 0.013618
v 0.001375 0.000000 0.013618
v 0.002200 0.000000 0.014312
v 0.002656 0.000000 0.016712
v 0.002200 0.000000 0.017688
v -0.000712 0.000000 0.013344
v -0.000000 0.000000 0.013250
v 0.000712 0.000000 0.013344
v -0.002656 0.000000 0.016712
v -0.002750 0.000000 0.016000
v -0.002656 0.000000 0.015288
v 0.002656 0.000000 0.015288
v 0.002750 0.000000 0.016000
v 0.001375 0.000000 0.018382
v 0.000712 0.000000 0.018656
v -0.000000 0.000000 0.018750
v 0.016513 -0.000000 -0.007288
v 0.016238 -0.000000 -0.006625
v 0.022400 0.000000 0.000000
v 0.013856 -0.000000 -0.005250
v 0.013145 -0.000000 -0.005344
v 0.012481 -0.000000 -0.005618
v 0.011912 -0.000000 -0.006055
v 0.011200 -0.000000 -0.008712
v 0.011475 -0.000000 -0.009375
v 0.011912 -0.000000 -0.009945
v 0.012481 -0.000000 -0.010382
v 0.015544 -0.000000 -0.005800
v 0.014568 -0.000000 -0.005344
v 0.015231 -0.000000 -0.010382
v 0.015801 -0.000000 -0.009945
v 0.011475 -0.000000 -0.006625
v 0.011200 -0.000000 -0.007288
v 0.011106 -0.000000 -0.008000
v 0.013495 -0.000000 -0.010749
v 0.014568 -0.000000 -0.010656
v 0.016238 -0.000000 -0.009375
v 0.016513 -0.000000 -0.008712
v 0.016606 -0.000000 -0.008000
v 0.014568 0.000000 0.010656
v 0.013495 0.000000 0.010749
v 0.012481 0.000000 0.010382
v 0.016606 0.000000 0.008000
v 0.016513 0.000000 0.008712
v 0.016238 0.000000 0.009375
v 0.015801 0.000000 0.009945
v 0.015231 0.000000 0.010382
v 0.011912 0.000000 0.006055
v 0.012481 0.000000 0.005618
v 0.013145 0.000000 0.005344
v 0.013856 0.000000 0.005250
v 0.014568 0.000000 0.005344
v 0.015544 0.000000 0.005800
v 0.011912 0.000000 0.009945
v 0.011475 0.000000 0.009375
v 0.011200 0.000000 0.008712
v 0.011106 0.000000 0.008000
v 0.011200 0.000000 0.007288
v 0.011475 0.000000 0.006625
v 0.016238 0.000000 0.006625
v 0.016513 0.000000 0.007288
v 0.000636 -0.004500 -0.013264
v 0.002152 -0.000000 -0.014014
v 0.002600 -0.004500 -0.014806
v 0.002600 -0.000000 -0.017194
v 0.002152 -0.004500 -0.017986
v 0.000636 -0.000000 -0.018736
v -0.000636 -0.004500 -0.018736
v -0.002152 -0.000000 -0.017986
v -0.002600 -0.004500 -0.017194
v -0.002600 -0.000000 -0.014806
v -0.002152 -0.004500 -0.014014
v -0.000636 -0.000000 -0.013264
v -0.012863 -0.004500 -0.005317
v -0.012662 -0.000000 -0.005400
v -0.011322 -0.004500 -0.006879
v -0.010931 -0.000000 -0.008118
v -0.011173 -0.004500 -0.008994
v -0.012863 -0.000000 -0.010683
v -0.013039 -0.004500 -0.010687
v -0.015842 -0.004500 -0.010152
v -0.014977 -0.000000 -0.010534
v -0.016540 -0.000000 -0.008994
v -0.016592 -0.004500 -0.007364
v -0.015842 -0.000000 -0.005848
v -0.015341 -0.004500 -0.005616
v -0.012863 -0.004500 0.010683
v -0.013039 0.000000 0.010687
v -0.011173 0.000000 0.008994
v -0.010931 -0.004500 0.008118
v -0.011322 0.000000 0.006879
v -0.012662 -0.004500 0.005400
v -0.012863 0.000000 0.005317
v -0.015842 -0.004500 0.005848
v -0.015341 0.000000 0.005616
v -0.016592 0.000000 0.007364
v -0.016540 -0.004500 0.008994
v -0.015842 0.000000 0.010152
v -0.014977 -0.004500 0.010534
v 0.000636 -0.004500 0.018736
v 0.002152 0.000000 0.017986
v 0.002600 -0.004500 0.017194
v 0.002600 0.000000 0.014806
v 0.002152 -0.004500 0.014014
v 0.000636 0.000000 0.013264
v -0.000636 -0.004500 0.013264
v -0.002152 0.000000 0.014014
v -0.002600 -0.004500 0.014806
v -0.002600 0.000000 0.017194
v -0.002152 -0.004500 0.017986
v -0.000636 0.000000 0.018736
v 0.015842 -0.004500 0.010152
v 0.014977 0.000000 0.010534
v 0.016540 0.000000 0.008994
v 0.016592 -0.004500 0.007364
v 0.015842 0.000000 0.005848
v 0.015341 -0.004500 0.005616
v 0.012863 -0.004500 0.005317
v 0.012662 0.000000 0.005400
v 0.011322 -0.004500 0.006879
v 0.010931 0.000000 0.008118
v 0.011173 -0.004500 0.008994
v 0.012863 0.000000 0.010683
v 0.013039 -0.004500 0.010687
v 0.015842 -0.004500 -0.005848
v 0.015341 -0.000000 -0.005616
v 0.016592 -0.000000 -0.007364
v 0.016540 -0.004500 -0.008994
v 0.015842 -0.000000 -0.010152
v 0.014977 -0.004500 -0.010534
v 0.012863 -0.004500 -0.010683
v 0.013039 -0.000000 -0.010687
v 0.011173 -0.000000 -0.008994
v 0.010931 -0.004500 -0.008118
v 0.011322 -0.000000 -0.006879
v 0.012662 -0.004500 -0.005400
v 0.012863 -0.000000 -0.005317
v -0.018445 -0.010000 0.009229
v -0.017970 -0.010000 0.010375
v -0.021003 -0.010000 0.010375
v 0.018445 -0.010000 -0.009229
v 0.017970 -0.010000 -0.010375
v 0.020400 -0.010000 -0.008812
v 0.010498 -0.010000 -0.011359
v 0.009743 -0.010000 -0.010375
v 0.005964 -0.010000 -0.008812
v -0.020414 -0.010000 -0.014168
v -0.017215 -0.010000 -0.011359
v -0.004588 -0.010000 -0.017229
v -0.004750 -0.010000 -0.016000
v 0.004750 -0.010000 -0.016000
v 0.005058 -0.010000 0.030705
v 0.004750 -0.010000 0.016000
v -0.020827 -0.010000 0.013226
v -0.021400 -0.010000 0.012768
v -0.022015 -0.010000 0.012529
v -0.038604 -0.010000 0.012486
v -0.039017 -0.010000 0.012309
v -0.039339 -0.010000 0.011910
v -0.013856 -0.010000 0.012750
v -0.012627 -0.010000 0.012588
v -0.004750 -0.010000 0.016000
v -0.020414 -0.010000 0.014168
v -0.015086 -0.010000 0.012588
v -0.009743 -0.010000 0.010375
v -0.004875 -0.010000 0.010375
v -0.010498 -0.010000 0.011359
v -0.011481 -0.010000 0.012114
v -0.017215 -0.010000 0.011359
v -0.016231 -0.010000 0.012114
v -0.005058 -0.010000 0.030705
v -0.008364 -0.010000 0.029974
v -0.011570 -0.010000 0.028888
v -0.014640 -0.010000 0.027461
v -0.017536 -0.010000 0.025708
v -0.020369 -0.010000 0.023496
v -0.004588 -0.010000 0.017229
v -0.004114 -0.010000 0.018375
v -0.003359 -0.010000 0.019359
v -0.002375 -0.010000 0.020114
v -0.001229 -0.010000 0.020588
v -0.001693 -0.010000 0.031073
v -0.000000 -0.010000 0.020750
v 0.001693 -0.010000 0.031073
v 0.001229 -0.010000 0.020588
v 0.002375 -0.010000 0.020114
v 0.003359 -0.010000 0.019359
v 0.004114 -0.010000 0.018375
v 0.004588 -0.010000 0.017229
v 0.014640 -0.010000 0.027461
v 0.011570 -0.010000 0.028888
v 0.017536 -0.010000 0.025708
v 0.008363 -0.010000 0.029974
v 0.020386 -0.010000 0.023472
v 0.008363 -0.010000 -0.029974
v 0.011570 -0.010000 -0.028888
v 0.014640 -0.010000 -0.027461
v 0.017536 -0.010000 -0.025708
v 0.020380 -0.010000 -0.023479
v 0.004114 -0.010000 -0.018375
v 0.003359 -0.010000 -0.019359
v 0.005058 -0.010000 -0.030705
v 0.004588 -0.010000 -0.017229
v 0.002375 -0.010000 -0.020114
v 0.001229 -0.010000 -0.020588
v 0.001693 -0.010000 -0.031073
v 0.000000 -0.010000 -0.020750
v -0.001693 -0.010000 -0.031073
v -0.001229 -0.010000 -0.020588
v -0.005058 -0.010000 -0.030705
v -0.002375 -0.010000 -0.020114
v -0.003359 -0.010000 -0.019359
v -0.004114 -0.010000 -0.018375
v -0.017536 -0.010000 -0.025708
v -0.020369 -0.010000 -0.023496
v -0.014640 -0.010000 -0.027461
v -0.011570 -0.010000 -0.028888
v -0.008364 -0.010000 -0.029974
v -0.009743 -0.010000 -0.010375
v -0.010498 -0.010000 -0.011359
v -0.016231 -0.010000 -0.012114
v -0.015086 -0.010000 -0.012588
v -0.011481 -0.010000 -0.012114
v -0.012627 -0.010000 -0.012588
v -0.013856 -0.010000 -0.012750
v -0.017970 -0.010000 -0.010375
v -0.020827 -0.010000 -0.013226
v -0.018445 -0.010000 -0.009229
v -0.021400 -0.010000 -0.012768
v -0.022015 -0.010000 -0.012529
v -0.039339 -0.010000 -0.011910
v -0.038604 -0.010000 -0.012486
v -0.039017 -0.010000 -0.012309
v -0.040330 -0.010000 -0.007920
v -0.040907 -0.010000 -0.003979
v -0.038100 -0.010000 0.000000
v -0.041100 -0.010000 0.000000
v -0.040330 -0.010000 0.007920
v -0.040907 -0.010000 0.003979
v 0.017215 -0.010000 -0.011359
v 0.016231 -0.010000 -0.012114
v 0.015086 -0.010000 -0.012588
v 0.013856 -0.010000 -0.012750
v 0.012627 -0.010000 -0.012588
v 0.011481 -0.010000 -0.012114
v 0.018606 -0.010000 -0.008000
v 0.018445 -0.010000 -0.006771
v 0.009268 -0.010000 -0.006771
v 0.009743 -0.010000 -0.005625
v 0.005000 -0.010000 0.000000
v 0.010498 -0.010000 -0.004641
v 0.020400 -0.010000 0.000000
v 0.015086 -0.010000 -0.003412
v 0.016231 -0.010000 -0.003886
v 0.017215 -0.010000 -0.004641
v 0.017970 -0.010000 -0.005625
v 0.011481 -0.010000 -0.003886
v 0.012627 -0.010000 -0.003412
v 0.013856 -0.010000 -0.003250
v 0.009268 -0.010000 -0.009229
v 0.009106 -0.010000 -0.008000
v -0.009106 -0.010000 -0.008000
v -0.009268 -0.010000 -0.009229
v -0.004875 -0.010000 -0.008812
v -0.017215 -0.010000 -0.004641
v -0.016231 -0.010000 -0.003886
v -0.021003 -0.010000 0.000000
v -0.018606 -0.010000 -0.008000
v -0.018445 -0.010000 -0.006771
v -0.023409 -0.010000 -0.007817
v -0.017970 -0.010000 -0.005625
v -0.012627 -0.010000 -0.003412
v -0.005000 -0.010000 0.000000
v -0.013856 -0.010000 -0.003250
v -0.015086 -0.010000 -0.003412
v -0.011481 -0.010000 -0.003886
v -0.010498 -0.010000 -0.004641
v -0.004830 -0.010000 -0.001294
v -0.009743 -0.010000 -0.005625
v -0.009268 -0.010000 -0.006771
v 0.000000 -0.010000 -0.011250
v 0.001229 -0.010000 -0.011412
v 0.002375 -0.010000 -0.011886
v 0.003359 -0.010000 -0.012641
v 0.004114 -0.010000 -0.013625
v 0.004588 -0.010000 -0.014771
v -0.004588 -0.010000 -0.014771
v -0.004114 -0.010000 -0.013625
v -0.003359 -0.010000 -0.012641
v -0.002375 -0.010000 -0.011886
v -0.001229 -0.010000 -0.011412
v 0.002375 -0.010000 0.011886
v 0.005964 -0.010000 0.010375
v 0.003359 -0.010000 0.012641
v 0.004114 -0.010000 0.013625
v -0.002375 -0.010000 0.011886
v -0.003359 -0.010000 0.012641
v -0.004114 -0.010000 0.013625
v 0.004588 -0.010000 0.014771
v 0.001229 -0.010000 0.011412
v -0.000000 -0.010000 0.011250
v -0.001229 -0.010000 0.011412
v -0.004588 -0.010000 0.014771
v 0.011481 -0.010000 0.003886
v 0.010498 -0.010000 0.004641
v 0.009743 -0.010000 0.005625
v 0.009268 -0.010000 0.006771
v 0.009106 -0.010000 0.008000
v 0.018445 -0.010000 0.006771
v 0.018606 -0.010000 0.008000
v 0.018445 -0.010000 0.009229
v 0.017970 -0.010000 0.005625
v 0.017215 -0.010000 0.004641
v 0.016231 -0.010000 0.003886
v 0.015086 -0.010000 0.003412
v 0.013856 -0.010000 0.003250
v 0.012627 -0.010000 0.003412
v 0.009268 -0.010000 0.009229
v 0.009743 -0.010000 0.010375
v 0.010498 -0.010000 0.011359
v 0.011481 -0.010000 0.012114
v 0.012627 -0.010000 0.012588
v 0.013856 -0.010000 0.012750
v 0.015086 -0.010000 0.012588
v 0.016231 -0.010000 0.012114
v 0.017215 -0.010000 0.011359
v 0.017970 -0.010000 0.010375
v -0.009268 -0.010000 0.009229
v -0.009106 -0.010000 0.008000
v -0.004830 -0.010000 0.001294
v -0.018445 -0.010000 0.006771
v -0.018606 -0.010000 0.008000
v -0.009268 -0.010000 0.006771
v -0.009743 -0.010000 0.005625
v -0.010498 -0.010000 0.004641
v -0.011481 -0.010000 0.003886
v -0.012627 -0.010000 0.003412
v -0.013856 -0.010000 0.003250
v -0.015086 -0.010000 0.003412
v -0.016231 -0.010000 0.003886
v -0.017215 -0.010000 0.004641
v -0.017970 -0.010000 0.005625
v -0.002500 -0.010000 -0.004330
v -0.003536 -0.010000 -0.003536
v 0.004330 -0.010000 -0.002500
v 0.003536 -0.010000 -0.003536
v 0.002500 -0.010000 -0.004330
v -0.004330 -0.010000 -0.002500
v 0.001294 -0.010000 -0.004830
v 0.000000 -0.010000 -0.005000
v -0.001294 -0.010000 -0.004830
v 0.004830 -0.010000 -0.001294
v -0.004330 -0.010000 0.002500
v -0.003536 -0.010000 0.003536
v 0.001294 -0.010000 0.004830
v 0.002500 -0.010000 0.004330
v 0.003536 -0.010000 0.003536
v -0.002500 -0.010000 0.004330
v -0.001294 -0.010000 0.004830
v 0.000000 -0.010000 0.005000
v 0.004330 -0.010000 0.002500
v 0.004830 -0.010000 0.001294
v -0.023668 -0.010000 -0.008500
v -0.024172 -0.010000 -0.009100
v -0.035646 -0.010000 -0.009478
v -0.036394 -0.010000 -0.009197
v -0.037222 -0.010000 -0.008141
v -0.036888 -0.010000 -0.008731
v -0.025015 -0.010000 -0.009471
v -0.037200 -0.010000 0.008187
v -0.036888 -0.010000 0.008731
v -0.023668 -0.010000 0.008500
v -0.024172 -0.010000 0.009100
v -0.023429 -0.010000 0.007885
v -0.036394 -0.010000 0.009197
v -0.035646 -0.010000 0.009478
v -0.037892 -0.010000 0.003980
v -0.025015 -0.010000 0.009471
v -0.037892 -0.010000 -0.003980
v -0.020369 -0.002000 0.023571
v -0.020368 -0.010000 0.023575
v 0.015209 -0.010000 0.027364
v 0.013414 0.000000 0.028126
v 0.006365 0.000000 0.030508
v 0.006075 -0.010000 0.030546
v -0.000000 -0.010000 0.031178
v -0.003398 0.000000 0.031071
v -0.006495 -0.010000 0.030495
v -0.020467 0.000000 0.023575
v -0.014946 0.000000 0.027489
v -0.013414 -0.010000 0.028126
v 0.020400 -0.007537 0.020137
v 0.020400 -0.007013 0.020820
v 0.020386 -0.010000 0.023466
v 0.020400 -0.004463 0.000637
v 0.020400 -0.004350 0.000000
v 0.020400 -0.004987 0.018180
v 0.020378 -0.002000 0.023569
v 0.020400 -0.004987 -0.018180
v 0.020400 -0.006637 -0.001537
v 0.020400 -0.007167 -0.001167
v 0.020400 -0.007537 -0.000637
v 0.020400 -0.007013 -0.020820
v 0.020400 -0.006217 -0.021149
v 0.020400 -0.007537 -0.020137
v 0.020400 -0.010000 -0.011379
v 0.020400 -0.007650 -0.019500
v 0.020400 -0.007537 -0.018863
v 0.020400 -0.004463 -0.018863
v 0.020400 -0.005573 -0.021094
v 0.020400 -0.006427 0.021094
v 0.020400 -0.005783 0.021149
v 0.020400 -0.004987 0.020820
v 0.020400 -0.005363 0.001537
v 0.020400 -0.007537 0.018863
v 0.020400 -0.010000 0.013563
v 0.020400 -0.007650 0.019500
v 0.020400 -0.007013 -0.018180
v 0.020400 -0.005363 -0.001537
v 0.020400 -0.006217 -0.017851
v 0.020400 -0.004833 -0.001167
v 0.020400 -0.004463 -0.000637
v 0.020400 -0.004463 0.020137
v 0.020400 -0.004833 0.001167
v 0.020400 -0.007650 0.000000
v 0.020400 -0.007537 0.000637
v 0.020400 -0.007167 0.001167
v 0.020400 -0.007013 0.018180
v 0.020400 -0.004350 -0.019500
v 0.020400 -0.004463 -0.020137
v 0.020400 -0.006000 -0.001650
v 0.020400 -0.004350 0.019500
v 0.020400 -0.004463 0.018863
v 0.020400 -0.005573 -0.017906
v 0.020400 -0.004987 -0.020820
v 0.020400 -0.006637 0.001537
v 0.020400 -0.006000 0.001650
v 0.020400 -0.005783 0.017851
v 0.020400 -0.006427 0.017906
v -0.021762 -0.002000 0.012561
v -0.021695 -0.002000 -0.012586
v -0.021821 -0.010000 -0.012553
v -0.011475 -0.004500 0.006625
v -0.009743 -0.004500 0.005625
v -0.011200 -0.004500 0.007288
v -0.009268 -0.004500 0.006771
v -0.011106 -0.004500 0.008000
v -0.009106 -0.004500 0.008000
v -0.011200 -0.004500 0.008712
v -0.009268 -0.004500 0.009229
v -0.011475 -0.004500 0.009375
v -0.009743 -0.004500 0.010375
v -0.011912 -0.004500 0.009945
v -0.010498 -0.004500 0.011359
v -0.012481 -0.004500 0.010382
v -0.011481 -0.004500 0.012114
v -0.013495 -0.004500 0.010749
v -0.012627 -0.004500 0.012588
v -0.013856 -0.004500 0.012750
v -0.014568 -0.004500 0.010656
v -0.015086 -0.004500 0.012588
v -0.015544 -0.004500 0.010200
v -0.016231 -0.004500 0.012114
v -0.017215 -0.004500 0.011359
v -0.016238 -0.004500 0.009375
v -0.017970 -0.004500 0.010375
v -0.016513 -0.004500 0.008712
v -0.018445 -0.004500 0.009229
v -0.016606 -0.004500 0.008000
v -0.018606 -0.004500 0.008000
v -0.016513 -0.004500 0.007288
v -0.018445 -0.004500 0.006771
v -0.016238 -0.004500 0.006625
v -0.017970 -0.004500 0.005625
v -0.015544 -0.004500 0.005800
v -0.017215 -0.004500 0.004641
v -0.016231 -0.004500 0.003886
v -0.014568 -0.004500 0.005344
v -0.015086 -0.004500 0.003412
v -0.013856 -0.004500 0.005250
v -0.013856 -0.004500 0.003250
v -0.013145 -0.004500 0.005344
v -0.012627 -0.004500 0.003412
v -0.012481 -0.004500 0.005618
v -0.011481 -0.004500 0.003886
v -0.011912 -0.004500 0.006055
v -0.010498 -0.004500 0.004641
v -0.012759 -0.004500 0.003275
v -0.014954 -0.010000 0.003275
v -0.011921 -0.010000 0.003623
v -0.009739 -0.004500 0.005435
v -0.009576 -0.010000 0.005717
v -0.009131 -0.004500 0.009098
v -0.009366 -0.010000 0.010063
v -0.011291 -0.004500 0.012117
v -0.012759 -0.010000 0.012725
v -0.014954 -0.004500 0.012725
v -0.016422 -0.010000 0.012117
v -0.017583 -0.004500 0.011003
v -0.018320 -0.010000 0.009726
v -0.018777 -0.004500 0.007542
v -0.018347 -0.010000 0.005937
v -0.016421 -0.004500 0.003883
v 0.011200 -0.004500 0.008712
v 0.009268 -0.004500 0.009229
v 0.011106 -0.004500 0.008000
v 0.009106 -0.004500 0.008000
v 0.011200 -0.004500 0.007288
v 0.009268 -0.004500 0.006771
v 0.011475 -0.004500 0.006625
v 0.009743 -0.004500 0.005625
v 0.011912 -0.004500 0.006055
v 0.010498 -0.004500 0.004641
v 0.012481 -0.004500 0.005618
v 0.011481 -0.004500 0.003886
v 0.013145 -0.004500 0.005344
v 0.012627 -0.004500 0.003412
v 0.013856 -0.004500 0.005250
v 0.013856 -0.004500 0.003250
v 0.014568 -0.004500 0.005344
v 0.015086 -0.004500 0.003412
v 0.015544 -0.004500 0.005800
v 0.016231 -0.004500 0.003886
v 0.017215 -0.004500 0.004641
v 0.016238 -0.004500 0.006625
v 0.017970 -0.004500 0.005625
v 0.016513 -0.004500 0.007288
v 0.018445 -0.004500 0.006771
v 0.016606 -0.004500 0.008000
v 0.018606 -0.004500 0.008000
v 0.016513 -0.004500 0.008712
v 0.018445 -0.004500 0.009229
v 0.016238 -0.004500 0.009375
v 0.017970 -0.004500 0.010375
v 0.015801 -0.004500 0.009945
v 0.017215 -0.004500 0.011359
v 0.015231 -0.004500 0.010382
v 0.016231 -0.004500 0.012114
v 0.014568 -0.004500 0.010656
v 0.015086 -0.004500 0.012588
v 0.013495 -0.004500 0.010749
v 0.013856 -0.004500 0.012750
v 0.012627 -0.004500 0.012588
v 0.012481 -0.004500 0.010382
v 0.011481 -0.004500 0.012114
v 0.011912 -0.004500 0.009945
v 0.010498 -0.004500 0.011359
v 0.011475 -0.004500 0.009375
v 0.009743 -0.004500 0.010375
v 0.012445 -0.004500 0.003359
v 0.012759 -0.010000 0.003275
v 0.016714 -0.004500 0.003968
v 0.016421 -0.010000 0.003883
v 0.018777 -0.010000 0.007542
v 0.018777 -0.004500 0.008458
v 0.017583 -0.010000 0.011003
v 0.016422 -0.004500 0.012117
v 0.014954 -0.010000 0.012725
v 0.012759 -0.004500 0.012725
v 0.011291 -0.010000 0.012117
v 0.009366 -0.004500 0.010063
v 0.009131 -0.010000 0.009098
v 0.009576 -0.004500 0.005717
v 0.009739 -0.010000 0.005435
v -0.002750 -0.004500 0.016000
v -0.004750 -0.004500 0.016000
v -0.002656 -0.004500 0.015288
v -0.004588 -0.004500 0.014771
v -0.002200 -0.004500 0.014312
v -0.004114 -0.004500 0.013625
v -0.003359 -0.004500 0.012641
v -0.001375 -0.004500 0.013618
v -0.002375 -0.004500 0.011886
v -0.000712 -0.004500 0.013344
v -0.001229 -0.004500 0.011412
v -0.000000 -0.004500 0.013250
v -0.000000 -0.004500 0.011250
v 0.000712 -0.004500 0.013344
v 0.001229 -0.004500 0.011412
v 0.001375 -0.004500 0.013618
v 0.002375 -0.004500 0.011886
v 0.002200 -0.004500 0.014312
v 0.003359 -0.004500 0.012641
v 0.004114 -0.004500 0.013625
v 0.002656 -0.004500 0.015288
v 0.004588 -0.004500 0.014771
v 0.002750 -0.004500 0.016000
v 0.004750 -0.004500 0.016000
v 0.002656 -0.004500 0.016712
v 0.004588 -0.004500 0.017229
v 0.002200 -0.004500 0.017688
v 0.004114 -0.004500 0.018375
v 0.003359 -0.004500 0.019359
v 0.001375 -0.004500 0.018382
v 0.002375 -0.004500 0.020114
v 0.000712 -0.004500 0.018656
v 0.001229 -0.004500 0.020588
v -0.000000 -0.004500 0.018750
v -0.000000 -0.004500 0.020750
v -0.000712 -0.004500 0.018656
v -0.001229 -0.004500 0.020588
v -0.001375 -0.004500 0.018382
v -0.002375 -0.004500 0.020114
v -0.002200 -0.004500 0.017688
v -0.003359 -0.004500 0.019359
v -0.004114 -0.004500 0.018375
v -0.002656 -0.004500 0.016712
v -0.004588 -0.004500 0.017229
v 0.004709 -0.004500 0.017112
v 0.004828 -0.010000 0.016131
v 0.003727 -0.010000 0.019003
v 0.002565 -0.004500 0.020117
v 0.001098 -0.010000 0.020725
v -0.001098 -0.004500 0.020725
v -0.003155 -0.010000 0.019804
v -0.004489 -0.004500 0.018066
v -0.004869 -0.010000 0.015165
v -0.004464 -0.004500 0.014273
v -0.002063 -0.004500 0.011509
v -0.002284 -0.010000 0.011720
v 0.001412 -0.010000 0.011359
v 0.002284 -0.004500 0.011720
v 0.003865 -0.010000 0.013177
v 0.004377 -0.004500 0.014065
v -0.001375 -0.004500 -0.013618
v -0.002375 -0.004500 -0.011886
v -0.002200 -0.004500 -0.014312
v -0.003359 -0.004500 -0.012641
v -0.004114 -0.004500 -0.013625
v -0.002656 -0.004500 -0.015288
v -0.004588 -0.004500 -0.014771
v -0.002750 -0.004500 -0.016000
v -0.004750 -0.004500 -0.016000
v -0.002656 -0.004500 -0.016712
v -0.004588 -0.004500 -0.017229
v -0.002200 -0.004500 -0.017688
v -0.004114 -0.004500 -0.018375
v -0.003359 -0.004500 -0.019359
v -0.001375 -0.004500 -0.018382
v -0.002375 -0.004500 -0.020114
v -0.000712 -0.004500 -0.018656
v -0.001229 -0.004500 -0.020588
v 0.000000 -0.004500 -0.018750
v 0.000000 -0.004500 -0.020750
v 0.000712 -0.004500 -0.018656
v 0.001229 -0.004500 -0.020588
v 0.001375 -0.004500 -0.018382
v 0.002375 -0.004500 -0.020114
v 0.002200 -0.004500 -0.017688
v 0.003359 -0.004500 -0.019359
v 0.004114 -0.004500 -0.018375
v 0.002656 -0.004500 -0.016712
v 0.004588 -0.004500 -0.017229
v 0.002750 -0.004500 -0.016000
v 0.004750 -0.004500 -0.016000
v 0.002656 -0.004500 -0.015288
v 0.004588 -0.004500 -0.014771
v 0.002200 -0.004500 -0.014312
v 0.004114 -0.004500 -0.013625
v 0.003359 -0.004500 -0.012641
v 0.001375 -0.004500 -0.013618
v 0.002375 -0.004500 -0.011886
v 0.000712 -0.004500 -0.013344
v 0.001229 -0.004500 -0.011412
v 0.000000 -0.004500 -0.013250
v 0.000000 -0.004500 -0.011250
v -0.000712 -0.004500 -0.013344
v -0.001229 -0.004500 -0.011412
v 0.004489 -0.004500 -0.018066
v 0.004869 -0.010000 -0.015165
v 0.004464 -0.004500 -0.014273
v 0.002063 -0.004500 -0.011509
v 0.002284 -0.010000 -0.011720
v -0.001412 -0.010000 -0.011359
v -0.002284 -0.004500 -0.011720
v -0.003865 -0.010000 -0.013177
v -0.004377 -0.004500 -0.014065
v -0.004828 -0.010000 -0.016131
v -0.004709 -0.004500 -0.017112
v -0.003727 -0.010000 -0.019003
v -0.002565 -0.004500 -0.020117
v -0.001098 -0.010000 -0.020725
v 0.001098 -0.004500 -0.020725
v 0.003155 -0.010000 -0.019804
v -0.011912 -0.004500 -0.009945
v -0.010498 -0.004500 -0.011359
v -0.011475 -0.004500 -0.009375
v -0.009743 -0.004500 -0.010375
v -0.011200 -0.004500 -0.008712
v -0.009268 -0.004500 -0.009229
v -0.011106 -0.004500 -0.008000
v -0.009106 -0.004500 -0.008000
v -0.011200 -0.004500 -0.007288
v -0.009268 -0.004500 -0.006771
v -0.011475 -0.004500 -0.006625
v -0.009743 -0.004500 -0.005625
v -0.011912 -0.004500 -0.006055
v -0.010498 -0.004500 -0.004641
v -0.012481 -0.004500 -0.005618
v -0.011481 -0.004500 -0.003886
v -0.013145 -0.004500 -0.005344
v -0.012627 -0.004500 -0.003412
v -0.013856 -0.004500 -0.005250
v -0.013856 -0.004500 -0.003250
v -0.014568 -0.004500 -0.005344
v -0.015086 -0.004500 -0.003412
v -0.015544 -0.004500 -0.005800
v -0.016231 -0.004500 -0.003886
v -0.017215 -0.004500 -0.004641
v -0.016238 -0.004500 -0.006625
v -0.017970 -0.004500 -0.005625
v -0.016513 -0.004500 -0.007288
v -0.018445 -0.004500 -0.006771
v -0.016606 -0.004500 -0.008000
v -0.018606 -0.004500 -0.008000
v -0.016513 -0.004500 -0.008712
v -0.018445 -0.004500 -0.009229
v -0.016238 -0.004500 -0.009375
v -0.017970 -0.004500 -0.010375
v -0.015801 -0.004500 -0.009945
v -0.017215 -0.004500 -0.011359
v -0.015231 -0.004500 -0.010382
v -0.016231 -0.004500 -0.012114
v -0.014568 -0.004500 -0.010656
v -0.015086 -0.004500 -0.012588
v -0.013495 -0.004500 -0.010749
v -0.013856 -0.004500 -0.012750
v -0.012627 -0.004500 -0.012588
v -0.012481 -0.004500 -0.010382
v -0.011481 -0.004500 -0.012114
v -0.009236 -0.004500 -0.006269
v -0.009029 -0.010000 -0.007869
v -0.010129 -0.010000 -0.004998
v -0.011921 -0.004500 -0.003623
v -0.012759 -0.010000 -0.003275
v -0.014954 -0.004500 -0.003275
v -0.017012 -0.010000 -0.004196
v -0.018345 -0.004500 -0.005934
v -0.018690 -0.010000 -0.008200
v -0.018320 -0.004500 -0.009726
v -0.017583 -0.010000 -0.011003
v -0.016422 -0.004500 -0.012117
v -0.014954 -0.010000 -0.012725
v -0.012759 -0.004500 -0.012725
v -0.010701 -0.010000 -0.011804
v -0.009739 -0.004500 -0.010565
v 0.015544 -0.004500 -0.005800
v 0.017215 -0.004500 -0.004641
v 0.016231 -0.004500 -0.003886
v 0.014568 -0.004500 -0.005344
v 0.015086 -0.004500 -0.003412
v 0.013856 -0.004500 -0.005250
v 0.013856 -0.004500 -0.003250
v 0.013145 -0.004500 -0.005344
v 0.012627 -0.004500 -0.003412
v 0.012481 -0.004500 -0.005618
v 0.011481 -0.004500 -0.003886
v 0.011912 -0.004500 -0.006055
v 0.010498 -0.004500 -0.004641
v 0.011475 -0.004500 -0.006625
v 0.009743 -0.004500 -0.005625
v 0.011200 -0.004500 -0.007288
v 0.009268 -0.004500 -0.006771
v 0.011106 -0.004500 -0.008000
v 0.009106 -0.004500 -0.008000
v 0.011200 -0.004500 -0.008712
v 0.009268 -0.004500 -0.009229
v 0.011475 -0.004500 -0.009375
v 0.009743 -0.004500 -0.010375
v 0.011912 -0.004500 -0.009945
v 0.010498 -0.004500 -0.011359
v 0.012481 -0.004500 -0.010382
v 0.011481 -0.004500 -0.012114
v 0.013495 -0.004500 -0.010749
v 0.012627 -0.004500 -0.012588
v 0.013856 -0.004500 -0.012750
v 0.014568 -0.004500 -0.010656
v 0.015086 -0.004500 -0.012588
v 0.015231 -0.004500 -0.010382
v 0.016231 -0.004500 -0.012114
v 0.015801 -0.004500 -0.009945
v 0.017215 -0.004500 -0.011359
v 0.016238 -0.004500 -0.009375
v 0.017970 -0.004500 -0.010375
v 0.016513 -0.004500 -0.008712
v 0.018445 -0.004500 -0.009229
v 0.016606 -0.004500 -0.008000
v 0.018606 -0.004500 -0.008000
v 0.016513 -0.004500 -0.007288
v 0.018445 -0.004500 -0.006771
v 0.016238 -0.004500 -0.006625
v 0.017970 -0.004500 -0.005625
v 0.018759 -0.004500 -0.007551
v 0.018684 -0.010000 -0.007869
v 0.016714 -0.010000 -0.003968
v 0.016421 -0.004500 -0.003883
v 0.012759 -0.004500 -0.003275
v 0.012445 -0.010000 -0.003359
v 0.009368 -0.004500 -0.005934
v 0.009248 -0.010000 -0.006258
v 0.009393 -0.004500 -0.009727
v 0.009739 -0.010000 -0.010565
v 0.011291 -0.004500 -0.012117
v 0.012759 -0.010000 -0.012725
v 0.014954 -0.004500 -0.012725
v 0.017012 -0.010000 -0.011804
v 0.017583 -0.004500 -0.011003
v 0.004860 -0.010000 -0.001520
v 0.004957 -0.000000 -0.001171
v 0.004545 -0.010000 0.002423
v 0.004223 0.000000 0.002973
v -0.004957 0.000000 0.001171
v -0.004860 -0.010000 0.001520
v -0.002708 0.000000 0.004395
v -0.002172 -0.010000 0.004727
v 0.000775 0.000000 0.004978
v 0.001818 -0.010000 0.004699
v -0.004545 -0.010000 -0.002423
v -0.004223 -0.000000 -0.002973
v 0.002708 -0.000000 -0.004395
v 0.002172 -0.010000 -0.004727
v -0.000775 -0.000000 -0.004978
v -0.001818 -0.010000 -0.004699
v -0.035456 0.004400 -0.001759
v -0.041100 0.004400 -0.000000
v -0.035456 0.004400 0.001759
v -0.040907 0.004400 0.003979
v -0.035108 0.004400 0.005261
v -0.040330 0.004400 0.007920
v -0.039762 0.004400 0.010322
v -0.034394 0.004400 -0.008877
v -0.035108 0.004400 -0.005261
v -0.040330 0.004400 -0.007920
v -0.040907 0.004400 -0.003979
v -0.039402 0.004400 0.010534
v -0.034568 0.004400 0.009231
v -0.034394 0.004400 0.008877
v -0.039762 0.004400 -0.010322
v -0.039402 0.004400 -0.010534
v -0.034568 0.004400 -0.009231
v -0.034424 0.004400 0.009117
v -0.039676 0.004400 0.010497
v -0.034418 0.000000 0.009123
v -0.039668 0.000000 0.010491
v -0.035698 0.004400 0.000463
v -0.035532 0.000000 0.001652
v -0.034490 -0.000000 -0.009168
v -0.034418 0.004400 -0.009123
v -0.021400 -0.002000 0.012768
v -0.020800 -0.002000 0.013273
v -0.022800 -0.002000 0.013273
v -0.022429 -0.002000 0.014115
v -0.023400 -0.002000 0.012768
v -0.022015 -0.002000 0.012529
v -0.024015 -0.002000 0.012529
v -0.020429 -0.002000 0.014115
v -0.020371 -0.002000 0.023489
v -0.020795 -0.002000 0.023523
v -0.020126 -0.002000 0.023765
v -0.022058 -0.002000 0.023484
v -0.022369 -0.002000 0.023220
v -0.022461 0.000000 0.013862
v -0.022528 -0.002000 0.013640
v -0.022306 -0.002000 0.023384
v -0.022284 0.000000 0.023406
v -0.023628 0.000000 0.012570
v -0.023762 -0.002000 0.012561
v -0.020126 -0.002000 -0.023765
v -0.022015 -0.002000 -0.012529
v -0.024015 -0.002000 -0.012529
v -0.023400 -0.002000 -0.012768
v -0.022800 -0.002000 -0.013273
v -0.021400 -0.002000 -0.012768
v -0.020800 -0.002000 -0.013273
v -0.022429 -0.002000 -0.014115
v -0.020429 -0.002000 -0.014115
v -0.020795 -0.002000 -0.023523
v -0.020371 -0.002000 -0.023489
v -0.022384 -0.002000 -0.023158
v -0.022120 -0.002000 -0.023469
v -0.022284 -0.002000 -0.023406
v -0.022306 -0.000000 -0.023384
v -0.022528 -0.000000 -0.013640
v -0.022461 -0.002000 -0.013862
v -0.020501 -0.000000 -0.023558
v 0.020126 -0.002000 0.023765
v 0.020371 -0.002000 0.023489
v 0.020371 -0.002000 -0.023489
v 0.020126 -0.002000 -0.023765
v 0.020795 -0.002000 0.023523
v 0.020795 -0.002000 -0.023523
v 0.022120 -0.002000 -0.023469
v 0.022384 -0.002000 -0.023158
v 0.022384 -0.002000 0.023158
v 0.022120 -0.002000 0.023469
v 0.022333 0.000000 0.023369
v 0.022319 -0.002000 0.023388
v 0.022317 -0.002000 -0.023378
v 0.022333 -0.000000 -0.023381
v 0.020483 0.000000 0.023569
v -0.008900 -0.004388 0.019990
v -0.020400 -0.004388 0.019010
v -0.008900 -0.004599 0.018507
v -0.020400 -0.005614 0.017786
v -0.008900 -0.006386 0.017786
v -0.020400 -0.007401 0.018507
v -0.008900 -0.007612 0.019010
v -0.020400 -0.007612 0.019990
v -0.008900 -0.007401 0.020493
v -0.020400 -0.006386 0.021214
v -0.008900 -0.005614 0.021214
v -0.020400 -0.004599 0.020493
v -0.007909 -0.006000 0.019500
v -0.008900 -0.004406 0.019073
v -0.008900 -0.004571 0.018675
v -0.008900 -0.004350 0.019500
v -0.007909 -0.006000 0.019500
v -0.007909 -0.006000 0.019500
v -0.008900 -0.005175 0.018071
v -0.008900 -0.005573 0.017906
v -0.008900 -0.004833 0.018333
v -0.007909 -0.006000 0.019500
v -0.007909 -0.006000 0.019500
v -0.007909 -0.006000 0.019500
v -0.008900 -0.006427 0.017906
v -0.008900 -0.006825 0.018071
v -0.008900 -0.006000 0.017850
v -0.007909 -0.006000 0.019500
v -0.007909 -0.006000 0.019500
v -0.007909 -0.006000 0.019500
v -0.008900 -0.007429 0.018675
v -0.008900 -0.007594 0.019073
v -0.008900 -0.007167 0.018333
v -0.007909 -0.006000 0.019500
v -0.007909 -0.006000 0.019500
v -0.007909 -0.006000 0.019500
v -0.008900 -0.007594 0.019927
v -0.008900 -0.007429 0.020325
v -0.008900 -0.007650 0.019500
v -0.007909 -0.006000 0.019500
v -0.007909 -0.006000 0.019500
v -0.007909 -0.006000 0.019500
v -0.008900 -0.006825 0.020929
v -0.008900 -0.006427 0.021094
v -0.008900 -0.007167 0.020667
v -0.007909 -0.006000 0.019500
v -0.007909 -0.006000 0.019500
v -0.007909 -0.006000 0.019500
v -0.008900 -0.005573 0.021094
v -0.008900 -0.005175 0.020929
v -0.008900 -0.006000 0.021150
v -0.007909 -0.006000 0.019500
v -0.007909 -0.006000 0.019500
v -0.007909 -0.006000 0.019500
v -0.008900 -0.004571 0.020325
v -0.008900 -0.004406 0.019927
v -0.008900 -0.004833 0.020667
v -0.007909 -0.006000 0.019500
v -0.007909 -0.006000 0.019500
v -0.007909 -0.006000 0.019500
v -0.008900 -0.004388 -0.019010
v -0.020400 -0.004388 -0.019990
v -0.008900 -0.004599 -0.020493
v -0.020400 -0.005614 -0.021214
v -0.008900 -0.006386 -0.021214
v -0.020400 -0.007401 -0.020493
v -0.008900 -0.007612 -0.019990
v -0.020400 -0.007612 -0.019010
v -0.008900 -0.007401 -0.018507
v -0.020400 -0.006386 -0.017786
v -0.008900 -0.005614 -0.017786
v -0.020400 -0.004599 -0.018507
v -0.007909 -0.006000 -0.019500
v -0.008900 -0.004406 -0.019927
v -0.008900 -0.004571 -0.020325
v -0.008900 -0.004350 -0.019500
v -0.007909 -0.006000 -0.019500
v -0.007909 -0.006000 -0.019500
v -0.008900 -0.005175 -0.020929
v -0.008900 -0.005573 -0.021094
v -0.008900 -0.004833 -0.020667
v -0.007909 -0.006000 -0.019500
v -0.007909 -0.006000 -0.019500
v -0.007909 -0.006000 -0.019500
v -0.008900 -0.006427 -0.021094
v -0.008900 -0.006825 -0.020929
v -0.008900 -0.006000 -0.021150
v -0.007909 -0.006000 -0.019500
v -0.007909 -0.006000 -0.019500
v -0.007909 -0.006000 -0.019500
v -0.008900 -0.007429 -0.020325
v -0.008900 -0.007594 -0.019927
v -0.008900 -0.007167 -0.020667
v -0.007909 -0.006000 -0.019500
v -0.007909 -0.006000 -0.019500
v -0.007909 -0.006000 -0.019500
v -0.008900 -0.007594 -0.019073
v -0.008900 -0.007429 -0.018675
v -0.008900 -0.007650 -0.019500
v -0.007909 -0.006000 -0.019500
v -0.007909 -0.006000 -0.019500
v -0.007909 -0.006000 -0.019500
v -0.008900 -0.006825 -0.018071
v -0.008900 -0.006427 -0.017906
v -0.008900 -0.007167 -0.018333
v -0.007909 -0.006000 -0.019500
v -0.007909 -0.006000 -0.019500
v -0.007909 -0.006000 -0.019500
v -0.008900 -0.005573 -0.017906
v -0.008900 -0.005175 -0.018071
v -0.008900 -0.006000 -0.017850
v -0.007909 -0.006000 -0.019500
v -0.007909 -0.006000 -0.019500
v -0.007909 -0.006000 -0.019500
v -0.008900 -0.004571 -0.018675
v -0.008900 -0.004406 -0.019073
v -0.008900 -0.004833 -0.018333
v -0.007909 -0.006000 -0.019500
v -0.007909 -0.006000 -0.019500
v -0.007909 -0.006000 -0.019500
v 0.007909 -0.006000 0.000000
v 0.008900 -0.007594 -0.000427
v 0.008900 -0.007429 -0.000825
v 0.008900 -0.007650 0.000000
v 0.007909 -0.006000 0.000000
v 0.007909 -0.006000 0.000000
v 0.008900 -0.006825 -0.001429
v 0.008900 -0.006427 -0.001594
v 0.008900 -0.007167 -0.001167
v 0.007909 -0.006000 0.000000
v 0.007909 -0.006000 0.000000
v 0.007909 -0.006000 0.000000
v 0.008900 -0.005573 -0.001594
v 0.008900 -0.005175 -0.001429
v 0.008900 -0.006000 -0.001650
v 0.007909 -0.006000 0.000000
v 0.007909 -0.006000 0.000000
v 0.007909 -0.006000 0.000000
v 0.008900 -0.004571 -0.000825
v 0.008900 -0.004406 -0.000427
v 0.008900 -0.004833 -0.001167
v 0.007909 -0.006000 0.000000
v 0.007909 -0.006000 0.000000
v 0.007909 -0.006000 0.000000
v 0.008900 -0.004406 0.000427
v 0.008900 -0.004571 0.000825
v 0.008900 -0.004350 0.000000
v 0.007909 -0.006000 0.000000
v 0.007909 -0.006000 0.000000
v 0.007909 -0.006000 0.000000
v 0.008900 -0.005175 0.001429
v 0.008900 -0.005573 0.001594
v 0.008900 -0.004833 0.001167
v 0.007909 -0.006000 0.000000
v 0.007909 -0.006000 0.000000
v 0.007909 -0.006000 0.000000
v 0.008900 -0.006427 0.001594
v 0.008900 -0.006825 0.001429
v 0.008900 -0.006000 0.001650
v 0.007909 -0.006000 0.000000
v 0.007909 -0.006000 0.000000
v 0.007909 -0.006000 0.000000
v 0.008900 -0.007429 0.000825
v 0.008900 -0.007594 0.000427
v 0.008900 -0.007167 0.001167
v 0.007909 -0.006000 0.000000
v 0.007909 -0.006000 0.000000
v 0.007909 -0.006000 0.000000
v 0.020400 -0.007778 -0.000310
v 0.008900 -0.006310 -0.001778
v 0.020400 -0.005690 -0.001778
v 0.008900 -0.004222 -0.000310
v 0.020400 -0.004222 0.000310
v 0.008900 -0.005690 0.001778
v 0.020400 -0.006310 0.001778
v 0.008900 -0.007778 0.000310
v 0.008900 -0.007612 -0.019010
v 0.020400 -0.007612 -0.019990
v 0.008900 -0.007401 -0.020493
v 0.020400 -0.006386 -0.021214
v 0.008900 -0.005614 -0.021214
v 0.020400 -0.004599 -0.020493
v 0.008900 -0.004388 -0.019990
v 0.020400 -0.004388 -0.019010
v 0.008900 -0.004599 -0.018507
v 0.020400 -0.005614 -0.017786
v 0.008900 -0.006386 -0.017786
v 0.020400 -0.007401 -0.018507
v 0.007909 -0.006000 -0.019500
v 0.008900 -0.007594 -0.019927
v 0.008900 -0.007429 -0.020325
v 0.008900 -0.007650 -0.019500
v 0.007909 -0.006000 -0.019500
v 0.007909 -0.006000 -0.019500
v 0.008900 -0.006825 -0.020929
v 0.008900 -0.006427 -0.021094
v 0.008900 -0.007167 -0.020667
v 0.007909 -0.006000 -0.019500
v 0.007909 -0.006000 -0.019500
v 0.007909 -0.006000 -0.019500
v 0.008900 -0.005573 -0.021094
v 0.008900 -0.005175 -0.020929
v 0.008900 -0.006000 -0.021150
v 0.007909 -0.006000 -0.019500
v 0.007909 -0.006000 -0.019500
v 0.007909 -0.006000 -0.019500
v 0.008900 -0.004571 -0.020325
v 0.008900 -0.004406 -0.019927
v 0.008900 -0.004833 -0.020667
v 0.007909 -0.006000 -0.019500
v 0.007909 -0.006000 -0.019500
v 0.007909 -0.006000 -0.019500
v 0.008900 -0.004406 -0.019073
v 0.008900 -0.004571 -0.018675
v 0.008900 -0.004350 -0.019500
v 0.007909 -0.006000 -0.019500
v 0.007909 -0.006000 -0.019500
v 0.007909 -0.006000 -0.019500
v 0.008900 -0.005175 -0.018071
v 0.008900 -0.005573 -0.017906
v 0.008900 -0.004833 -0.018333
v 0.007909 -0.006000 -0.019500
v 0.007909 -0.006000 -0.019500
v 0.007909 -0.006000 -0.019500
v 0.008900 -0.006427 -0.017906
v 0.008900 -0.006825 -0.018071
v 0.008900 -0.006000 -0.017850
v 0.007909 -0.006000 -0.019500
v 0.007909 -0.006000 -0.019500
v 0.007909 -0.006000 -0.019500
v 0.008900 -0.007429 -0.018675
v 0.008900 -0.007594 -0.019073
v 0.008900 -0.007167 -0.018333
v 0.007909 -0.006000 -0.019500
v 0.007909 -0.006000 -0.019500
v 0.007909 -0.006000 -0.019500
v 0.008900 -0.007612 0.019990
v 0.020400 -0.007612 0.019010
v 0.008900 -0.007401 0.018507
v 0.020400 -0.006386 0.017786
v 0.008900 -0.005614 0.017786
v 0.020400 -0.004599 0.018507
v 0.008900 -0.004388 0.019010
v 0.020400 -0.004388 0.019990
v 0.008900 -0.004599 0.020493
v 0.020400 -0.005614 0.021214
v 0.008900 -0.006386 0.021214
v 0.020400 -0.007401 0.020493
v 0.007909 -0.006000 0.019500
v 0.008900 -0.007594 0.019073
v 0.008900 -0.007429 0.018675
v 0.008900 -0.007650 0.019500
v 0.007909 -0.006000 0.019500
v 0.007909 -0.006000 0.019500
v 0.008900 -0.006825 0.018071
v 0.008900 -0.006427 0.017906
v 0.008900 -0.007167 0.018333
v 0.007909 -0.006000 0.019500
v 0.007909 -0.006000 0.019500
v 0.007909 -0.006000 0.019500
v 0.008900 -0.005573 0.017906
v 0.008900 -0.005175 0.018071
v 0.008900 -0.006000 0.017850
v 0.007909 -0.006000 0.019500
v 0.007909 -0.006000 0.019500
v 0.007909 -0.006000 0.019500
v 0.008900 -0.004571 0.018675
v 0.008900 -0.004406 0.019073
v 0.008900 -0.004833 0.018333
v 0.007909 -0.006000 0.019500
v 0.007909 -0.006000 0.019500
v 0.007909 -0.006000 0.019500
v 0.008900 -0.004406 0.019927
v 0.008900 -0.004571 0.020325
v 0.008900 -0.004350 0.019500
v 0.007909 -0.006000 0.019500
v 0.007909 -0.006000 0.019500
v 0.007909 -0.006000 0.019500
v 0.008900 -0.005175 0.020929
v 0.008900 -0.005573 0.021094
v 0.008900 -0.004833 0.020667
v 0.007909 -0.006000 0.019500
v 0.007909 -0.006000 0.019500
v 0.007909 -0.006000 0.019500
v 0.008900 -0.006427 0.021094
v 0.008900 -0.006825 0.020929
v 0.008900 -0.006000 0.021150
v 0.007909 -0.006000 0.019500
v 0.007909 -0.006000 0.019500
v 0.007909 -0.006000 0.019500
v 0.008900 -0.007429 0.020325
v 0.008900 -0.007594 0.019927
v 0.008900 -0.007167 0.020667
v 0.007909 -0.006000 0.019500
v 0.007909 -0.006000 0.019500
v 0.007909 -0.006000 0.019500
v -0.035646 -0.003000 -0.009478
v -0.037892 -0.003000 -0.003980
v -0.037200 -0.003000 -0.008187
v -0.023429 -0.003000 -0.007885
v -0.038100 -0.003000 0.000000
v -0.023429 -0.003000 0.007885
v -0.037892 -0.003000 0.003980
v -0.025015 -0.003000 -0.009471
v -0.024172 -0.003000 -0.009100
v -0.024172 -0.003000 0.009100
v -0.023668 -0.003000 0.008500
v -0.035646 -0.003000 0.009478
v -0.036394 -0.003000 0.009197
v -0.036888 -0.003000 -0.008731
v -0.036394 -0.003000 -0.009197
v -0.023668 -0.003000 -0.008500
v -0.037200 -0.003000 0.008187
v -0.025015 -0.003000 0.009471
v -0.036888 -0.003000 0.008731
v -0.023435 -0.010000 -0.008038
v -0.023461 -0.003000 -0.008138
v -0.024540 -0.010000 0.009372
v -0.036719 -0.010000 0.009191
v -0.024510 -0.003000 0.009383
v -0.036692 -0.003000 0.009174
v -0.038075 -0.003000 0.002348
v -0.038204 -0.010000 -0.000000
v -0.037378 -0.003000 -0.007936
v -0.036829 -0.010000 -0.009106
v -0.036083 -0.003000 -0.009413
v -0.024510 -0.010000 -0.009383
v -0.024540 -0.003000 -0.009372
v -0.023449 -0.010000 0.008114
v -0.023442 -0.003000 0.008054
vn -1.0000 0.0088 0.0028
vn -1.0000 0.0047 0.0062
vn -0.6551 -0.0094 0.7554
vn -0.9088 -0.0082 0.4171
vn -1.0000 -0.0039 0.0073
vn -0.9998 0.0174 -0.0024
vn -0.9999 0.0001 0.0135
vn -0.8817 -0.0128 0.4717
vn -0.9999 0.0011 0.0116
vn -1.0000 -0.0047 0.0066
vn -1.0000 -0.0062 0.0050
vn -1.0000 -0.0061 0.0050
vn -0.9999 0.0114 -0.0020
vn -1.0000 0.0047 0.0008
vn -1.0000 0.0019 0.0024
vn -0.9254 0.0109 0.3789
vn -1.0000 0.0025 0.0019
vn -0.9999 -0.0067 0.0085
vn -1.0000 0.0007 0.0034
vn -1.0000 -0.0035 0.0084
vn -0.0800 0.0101 0.9967
vn -0.0800 0.0118 0.9967
vn -0.0786 0.0112 0.9968
vn -0.1694 -0.0007 0.9856
vn -0.7034 -0.0013 0.7108
vn -0.0653 -0.0217 0.9976
vn -0.4018 -0.0061 0.9157
vn -0.6009 0.0043 0.7993
vn -0.9999 -0.0123 -0.0036
vn -1.0000 -0.0056 -0.0072
vn -0.9175 -0.0068 -0.3977
vn -0.9999 0.0097 -0.0031
vn -0.6585 -0.0054 -0.7526
vn -1.0000 0.0050 -0.0071
vn -1.0000 -0.0001 -0.0062
vn -0.9999 -0.0010 -0.0104
vn -0.8466 0.0030 -0.5322
vn -1.0000 0.0020 -0.0098
vn -1.0000 -0.0019 -0.0026
vn -0.8975 -0.0042 -0.4409
vn -1.0000 -0.0036 -0.0012
vn -1.0000 0.0029 -0.0049
vn -1.0000 0.0052 -0.0063
vn -0.9999 0.0144 -0.0026
vn -1.0000 0.0038 -0.0082
vn -1.0000 0.0075 -0.0058
vn -1.0000 -0.0007 -0.0042
vn -1.0000 0.0024 -0.0089
vn -0.3381 -0.0121 -0.9410
vn -0.5096 -0.0011 -0.8604
vn 0.4716 -0.0072 -0.8818
vn 0.6680 -0.0125 -0.7441
vn 0.8931 -0.0057 -0.4497
vn -0.5159 -0.0031 -0.8566
vn -0.3108 0.0043 -0.9505
vn -0.3148 -0.0031 -0.9492
vn -0.0981 -0.0076 -0.9951
vn -0.0460 0.0071 -0.9989
vn 0.1783 -0.0153 -0.9839
vn 0.2452 0.0055 -0.9695
vn 0.4886 0.0098 -0.8725
vn 0.3544 -0.0087 -0.9351
vn -0.9908 0.0058 -0.1352
vn -0.5133 0.0043 -0.8582
vn -0.8437 -0.0003 -0.5367
vn -0.5940 0.0036 -0.8045
vn -0.6260 -0.0059 -0.7798
vn -0.8396 -0.0018 0.5433
vn -0.9907 -0.0074 0.1361
vn -0.9948 -0.0089 -0.1014
vn -0.9980 0.0082 0.0624
vn -0.5367 0.0104 0.8437
vn -0.3389 -0.0183 -0.9406
vn -0.2064 0.0044 -0.9785
vn -0.3308 0.0009 -0.9437
vn -0.3707 -0.0068 -0.9287
vn -0.0000 1.0000 -0.0000
vn -0.7469 -0.0558 -0.6626
vn -0.1994 0.0501 -0.9786
vn 0.1994 -0.0501 -0.9786
vn -0.9281 0.0492 -0.3692
vn -0.9281 -0.0492 0.3692
vn -0.7469 0.0558 0.6626
vn -0.1994 -0.0501 0.9786
vn 0.1994 0.0501 0.9786
vn 0.7469 -0.0558 0.6626
vn 0.9281 0.0492 0.3692
vn 0.9281 -0.0492 -0.3692
vn 0.7469 0.0558 -0.6626
vn -0.3134 -0.0085 -0.9496
vn -0.4051 -0.0427 -0.9133
vn -0.9044 0.0196 -0.4263
vn -0.9973 -0.0630 0.0386
vn -0.9219 0.0250 0.3866
vn -0.3772 -0.0007 0.9261
vn -0.2604 0.0094 0.9655
vn 0.6611 0.0337 0.7496
vn 0.3696 0.0078 0.9291
vn 0.9564 -0.0550 0.2868
vn 0.9820 0.0394 -0.1849
vn 0.6643 -0.0467 -0.7460
vn 0.4827 0.0086 -0.8758
vn -0.9219 -0.0250 -0.3866
vn -0.3772 0.0007 -0.9261
vn -0.2604 -0.0094 -0.9655
vn -0.9973 0.0630 -0.0386
vn -0.9044 -0.0196 0.4263
vn -0.4051 0.0427 0.9133
vn -0.3134 0.0085 0.9496
vn 0.6643 0.0467 0.7460
vn 0.4827 -0.0086 0.8758
vn 0.9820 -0.0394 0.1849
vn 0.9564 0.0550 -0.2868
vn 0.6611 -0.0337 -0.7496
vn 0.3696 -0.0078 -0.9291
vn 0.2604 0.0094 -0.9655
vn 0.3772 -0.0007 -0.9261
vn -0.6611 0.0337 -0.7496
vn -0.3696 0.0078 -0.9291
vn -0.9564 -0.0550 -0.2868
vn -0.9820 0.0394 0.1849
vn -0.6643 -0.0467 0.7460
vn -0.4827 0.0086 0.8758
vn 0.3134 -0.0085 0.9496
vn 0.4051 -0.0427 0.9133
vn 0.9044 0.0196 0.4263
vn 0.9973 -0.0630 -0.0386
vn 0.9219 0.0250 -0.3866
vn 0.4051 0.0427 -0.9133
vn 0.3134 0.0085 -0.9496
vn -0.6643 0.0467 -0.7460
vn -0.4827 -0.0086 -0.8758
vn -0.9820 -0.0394 -0.1849
vn -0.9564 0.0550 0.2868
vn -0.6611 -0.0337 0.7496
vn -0.3696 -0.0078 0.9291
vn 0.3772 0.0007 0.9261
vn 0.2604 -0.0094 0.9655
vn 0.9219 -0.0250 0.3866
vn 0.9973 0.0630 0.0386
vn 0.9044 -0.0196 -0.4263
vn -0.0000 -1.0000 -0.0000
vn 0.4713 0.0001 0.8820
vn 0.8955 -0.0062 0.4450
vn 0.6744 -0.0163 0.7381
vn 0.3395 0.0062 0.9406
vn 0.4207 0.0064 0.9072
vn 0.2030 0.0045 0.9792
vn 0.2156 -0.0026 0.9765
vn 0.0080 -0.0010 1.0000
vn -0.1192 0.0221 0.9926
vn -0.2275 0.0049 0.9738
vn -0.3402 -0.0188 0.9402
vn -0.4561 0.0017 0.8899
vn -0.4275 -0.0079 0.9040
vn 1.0000 -0.0039 0.0013
vn 1.0000 -0.0021 0.0028
vn 1.0000 -0.0000 -0.0000
vn 1.0000 0.0007 -0.0081
vn 1.0000 -0.0022 -0.0032
vn 1.0000 -0.0039 -0.0016
vn 1.0000 -0.0045 -0.0013
vn 1.0000 0.0005 0.0005
vn 0.9999 0.0100 0.0003
vn 1.0000 0.0016 -0.0095
vn 1.0000 -0.0000 0.0066
vn 1.0000 -0.0001 0.0094
vn 1.0000 0.0033 0.0046
vn 1.0000 -0.0035 0.0014
vn 1.0000 -0.0038 0.0013
vn 1.0000 0.0063 0.0020
vn 0.9999 0.0163 0.0022
vn 1.0000 0.0082 -0.0027
vn 0.9999 0.0125 -0.0017
vn 1.0000 0.0095 -0.0002
vn 0.9996 0.0296 -0.0020
vn 1.0000 -0.0003 -0.0000
vn 1.0000 0.0044 -0.0059
vn -0.7689 0.0156 0.6392
vn -0.6545 -0.0144 0.7559
vn -0.4180 0.0203 0.9082
vn -0.2335 -0.0361 0.9717
vn 0.2613 0.0383 0.9645
vn -0.8506 -0.0213 0.5253
vn -0.8988 0.0230 0.4377
vn -0.9774 -0.0269 -0.2096
vn -0.9111 0.0402 -0.4103
vn -0.5298 -0.0345 -0.8474
vn -0.2428 0.0466 -0.9690
vn 0.2088 -0.0355 -0.9773
vn 0.5140 0.0355 -0.8570
vn 0.7889 -0.0383 -0.6133
vn 0.9384 0.0381 -0.3434
vn 0.9934 -0.0439 0.1057
vn 0.8985 0.0418 0.4369
vn 0.5440 -0.0441 0.8379
vn 0.2719 -0.0151 0.9622
vn 0.2171 0.0032 0.9761
vn -0.5890 -0.0234 0.8078
vn -0.5378 0.0156 0.8429
vn -0.9914 0.0195 0.1297
vn -0.9960 -0.0495 -0.0738
vn -0.7898 0.0262 -0.6128
vn -0.5481 -0.0487 -0.8350
vn -0.2088 0.0355 -0.9773
vn 0.2428 -0.0466 -0.9690
vn 0.5298 0.0345 -0.8474
vn 0.9111 -0.0402 -0.4103
vn 0.9774 0.0269 -0.2096
vn 0.8900 -0.0244 0.4554
vn 0.8480 0.0137 0.5299
vn -0.7806 0.0289 -0.6244
vn -0.9678 -0.0332 -0.2496
vn -0.9993 0.0287 -0.0229
vn -0.5318 -0.0423 -0.8458
vn -0.1906 0.0436 -0.9807
vn 0.2375 -0.0452 -0.9703
vn 0.6466 0.0594 -0.7605
vn 0.9044 -0.0346 -0.4252
vn 0.9835 0.0357 0.1771
vn 0.9211 -0.0049 0.3892
vn 0.4186 0.0003 0.9082
vn 0.5020 0.0131 0.8648
vn -0.2618 0.0174 0.9650
vn -0.4369 -0.0358 0.8988
vn -0.8112 0.0274 0.5841
vn -0.9133 -0.0268 0.4065
vn -0.9044 -0.0346 0.4252
vn -0.9835 0.0357 -0.1771
vn -0.9211 -0.0049 -0.3892
vn -0.4186 0.0003 -0.9082
vn -0.5020 0.0131 -0.8648
vn 0.2618 0.0174 -0.9650
vn 0.4369 -0.0358 -0.8988
vn 0.8112 0.0274 -0.5841
vn 0.9133 -0.0268 -0.4065
vn 0.9993 0.0287 0.0229
vn 0.9678 -0.0332 0.2496
vn 0.7806 0.0289 0.6244
vn 0.5318 -0.0423 0.8458
vn 0.1906 0.0436 0.9807
vn -0.2375 -0.0452 0.9703
vn -0.6466 0.0594 0.7605
vn -0.7702 0.0306 -0.6370
vn -0.9404 -0.0419 -0.3374
vn -0.9990 0.0394 0.0189
vn -0.4308 -0.0358 -0.9017
vn -0.1975 0.0408 -0.9795
vn 0.2561 -0.0368 -0.9660
vn 0.6343 0.0520 -0.7713
vn 0.9044 -0.0418 -0.4246
vn 0.9990 0.0433 0.0076
vn 0.9397 -0.0384 0.3398
vn 0.7778 0.0330 0.6277
vn 0.5140 -0.0355 0.8570
vn -0.2214 -0.0378 0.9745
vn -0.6384 0.0499 0.7681
vn -0.8631 -0.0449 0.5030
vn -0.5812 0.0128 -0.8137
vn -0.9951 0.0109 -0.0979
vn -0.9997 0.0146 -0.0174
vn -0.5397 -0.0157 -0.8417
vn 0.2378 -0.0046 -0.9713
vn 0.2935 0.0162 -0.9558
vn 0.8998 -0.0125 -0.4362
vn 0.9344 0.0268 -0.3552
vn 0.9461 -0.0181 0.3234
vn 0.8638 0.0404 0.5023
vn 0.5131 -0.0326 0.8577
vn 0.2070 0.0490 0.9771
vn -0.2064 -0.0309 0.9780
vn -0.6562 0.0293 0.7540
vn -0.8122 -0.0006 0.5834
vn -0.8895 0.0134 -0.4567
vn -0.9759 -0.0140 0.2178
vn -0.9532 0.0133 0.3021
vn -0.8205 -0.0216 -0.5713
vn 0.5378 -0.0147 -0.8429
vn 0.9532 0.0133 -0.3021
vn 0.9759 -0.0140 -0.2178
vn 0.4213 0.0198 -0.9067
vn -0.1777 -0.0207 -0.9839
vn -0.3460 0.0190 -0.9380
vn 0.8895 0.0134 0.4567
vn 0.8205 -0.0216 0.5713
vn -0.5378 -0.0147 0.8429
vn -0.4213 0.0198 0.9067
vn 0.1777 -0.0207 0.9839
vn 0.3460 0.0190 0.9380
vn 0.8344 0.0019 0.5511
vn 0.8341 0.0005 0.5516
vn 0.8222 0.0069 -0.5691
vn 0.8342 -0.0104 -0.5514
vn 0.9997 0.0257 -0.0003
vn 0.9986 0.0251 -0.0465
vn -0.9964 0.0104 0.0837
vn -0.9964 0.0109 0.0838
vn -0.9964 0.0109 0.0837
vn -0.9956 0.0309 0.0880
vn -0.9956 0.0317 0.0879
vn -0.9956 0.0320 0.0880
vn -0.0959 -0.0100 0.9953
vn -0.0942 -0.0084 0.9955
vn -0.6974 -0.0000 0.7167
vn -0.7413 -0.0496 0.6693
vn -0.9964 -0.0104 -0.0837
vn -0.9964 -0.0109 -0.0838
vn -0.9964 -0.0109 -0.0837
vn -0.9956 -0.0309 -0.0880
vn -0.9956 -0.0317 -0.0879
vn -0.9956 -0.0320 -0.0880
vn -0.6948 -0.0027 -0.7192
vn -0.7413 0.0496 -0.6693
vn -0.0957 0.0100 -0.9954
vn -0.0917 0.0065 -0.9958
vn 0.7397 -0.0067 -0.6729
vn 0.7432 -0.0090 -0.6690
vn 0.7382 -0.0035 0.6746
vn 0.7474 0.0012 0.6643
vn -0.0155 -0.9489 -0.3151
vn 0.0155 -0.9489 0.3151
vn -0.0192 -0.7898 0.6131
vn 0.0227 -0.2012 0.9793
vn -0.0227 0.2012 0.9793
vn 0.0192 0.7898 0.6131
vn -0.0155 0.9489 0.3151
vn 0.0155 0.9489 -0.3151
vn -0.0192 0.7898 -0.6131
vn 0.0227 0.2012 -0.9793
vn -0.0227 -0.2012 -0.9793
vn 0.0192 -0.7898 -0.6131
vn -0.8552 -0.4788 0.1984
vn -0.8572 -0.4975 0.1333
vn -0.8572 -0.4460 0.2575
vn -0.8572 -0.5150 -0.0000
vn -0.8552 -0.5139 0.0676
vn -0.8552 -0.1984 0.4788
vn -0.8572 -0.2575 0.4460
vn -0.8572 -0.1333 0.4975
vn -0.8572 -0.3642 0.3642
vn -0.8572 -0.2576 0.4460
vn -0.8552 -0.3155 0.4112
vn -0.8552 -0.4112 0.3155
vn -0.8552 0.1984 0.4788
vn -0.8572 0.1333 0.4975
vn -0.8572 0.2575 0.4460
vn -0.8572 -0.0000 0.5150
vn -0.8552 0.0676 0.5139
vn -0.8552 -0.0676 0.5139
vn -0.8552 0.4788 0.1984
vn -0.8572 0.4460 0.2575
vn -0.8572 0.4975 0.1333
vn -0.8572 0.3642 0.3642
vn -0.8552 0.4112 0.3155
vn -0.8572 0.2576 0.4460
vn -0.8552 0.3155 0.4112
vn -0.8552 0.4788 -0.1984
vn -0.8572 0.4975 -0.1333
vn -0.8572 0.4460 -0.2575
vn -0.8572 0.5150 -0.0000
vn -0.8552 0.5139 -0.0676
vn -0.8552 0.5139 0.0676
vn -0.8552 0.1984 -0.4788
vn -0.8572 0.2575 -0.4460
vn -0.8572 0.1333 -0.4975
vn -0.8572 0.3642 -0.3642
vn -0.8572 0.2576 -0.4460
vn -0.8552 0.3155 -0.4112
vn -0.8552 0.4112 -0.3155
vn -0.8552 -0.1984 -0.4788
vn -0.8572 -0.1333 -0.4975
vn -0.8572 -0.2575 -0.4460
vn -0.8572 -0.0000 -0.5150
vn -0.8552 -0.0676 -0.5139
vn -0.8552 0.0676 -0.5139
vn -0.8552 -0.4788 -0.1984
vn -0.8572 -0.4460 -0.2575
vn -0.8572 -0.4975 -0.1333
vn -0.8572 -0.3642 -0.3642
vn -0.8552 -0.4112 -0.3155
vn -0.8572 -0.2576 -0.4460
vn -0.8552 -0.3155 -0.4112
vn -0.8552 -0.5139 -0.0676
vn 0.8552 0.4788 0.1983
vn 0.8572 0.4975 0.1333
vn 0.8572 0.4460 0.2575
vn 0.8572 0.5150 -0.0000
vn 0.8552 0.5139 0.0676
vn 0.8552 0.1983 0.4788
vn 0.8572 0.2575 0.4460
vn 0.8572 0.1333 0.4975
vn 0.8572 0.3642 0.3642
vn 0.8552 0.3155 0.4112
vn 0.8552 0.4112 0.3155
vn 0.8552 -0.1983 0.4788
vn 0.8572 -0.1333 0.4975
vn 0.8572 -0.2575 0.4460
vn 0.8572 -0.0000 0.5150
vn 0.8552 -0.0676 0.5139
vn 0.8552 0.0676 0.5139
vn 0.8552 -0.4788 0.1983
vn 0.8572 -0.4460 0.2575
vn 0.8572 -0.4975 0.1333
vn 0.8572 -0.3642 0.3642
vn 0.8552 -0.4112 0.3155
vn 0.8552 -0.3155 0.4112
vn 0.8552 -0.4788 -0.1983
vn 0.8572 -0.4975 -0.1333
vn 0.8572 -0.4460 -0.2575
vn 0.8572 -0.5150 -0.0000
vn 0.8552 -0.5139 -0.0676
vn 0.8552 -0.5139 0.0676
vn 0.8552 -0.1983 -0.4788
vn 0.8572 -0.2575 -0.4460
vn 0.8572 -0.1333 -0.4975
vn 0.8572 -0.3642 -0.3642
vn 0.8552 -0.3155 -0.4112
vn 0.8552 -0.4112 -0.3155
vn 0.8552 0.1983 -0.4788
vn 0.8572 0.1333 -0.4975
vn 0.8572 0.2575 -0.4460
vn 0.8572 -0.0000 -0.5150
vn 0.8552 0.0676 -0.5139
vn 0.8552 -0.0676 -0.5139
vn 0.8552 0.4788 -0.1983
vn 0.8572 0.4460 -0.2575
vn 0.8572 0.4975 -0.1333
vn 0.8572 0.3642 -0.3642
vn 0.8552 0.4112 -0.3155
vn 0.8552 0.3155 -0.4112
vn 0.8552 0.5139 -0.0676
vn 0.0369 0.9845 -0.1717
vn -0.0369 0.9845 0.1717
vn 0.0369 0.1717 0.9845
vn -0.0369 -0.1717 0.9845
vn 0.0369 -0.9845 0.1717
vn -0.0369 -0.9845 -0.1717
vn 0.0369 -0.1717 -0.9845
vn -0.0369 0.1717 -0.9845
vn 0.8552 0.4788 0.1984
vn 0.8552 0.1984 0.4788
vn 0.8572 0.2576 0.4460
vn 0.8552 -0.1984 0.4788
vn 0.8552 -0.4788 0.1984
vn 0.8572 -0.2576 0.4460
vn 0.8552 -0.4788 -0.1984
vn 0.8552 -0.1984 -0.4788
vn 0.8572 -0.2576 -0.4460
vn 0.8552 0.1984 -0.4788
vn 0.8552 0.4788 -0.1984
vn 0.8572 0.2576 -0.4460
vn -0.4143 -0.0032 0.9101
vn 0.3920 -0.0101 0.9199
vn -0.4287 0.0099 0.9034
vn 0.6573 0.0486 0.7520
vn -0.9371 0.0021 -0.3492
vn -0.9437 -0.0025 -0.3307
vn -0.9446 0.0018 0.3283
vn -0.9360 -0.0035 0.3520
vn -0.4076 0.0032 -0.9131
vn 0.6474 0.0094 -0.7621
vn -0.4233 -0.0017 -0.9060
vn 0.6391 -0.0043 -0.7691
vn 0.9968 -0.0050 -0.0796
vn 0.9999 0.0110 -0.0040
vn 0.9273 -0.0157 0.3739
s 1
usemtl link1_02_mat
f 1//1 2//2 607//3
f 3//4 4//5 607//3
f 5//6 607//3 4//5
f 607//3 5//6 1//1
f 6//7 608//8 7//9
f 607//3 7//9 608//8
f 7//9 607//3 2//2
f 8//10 608//8 6//7
f 8//10 9//11 608//8
f 608//8 9//11 10//12
s 0
f 11//13 10//13 9//13
f 11//14 12//14 10//14
s 1
f 13//15 10//16 12//17
f 4//5 3//4 14//18
f 13//15 15//19 10//16
f 16//20 10//16 15//19
f 10//16 16//20 3//4
f 3//4 16//20 14//18
s 0
f 17//21 667//22 18//23
s 1
f 1094//24 18//25 667//26
f 1094//24 1093//27 18//25
f 18//25 1093//27 19//28
f 20//29 21//30 22//31
f 23//32 24//33 25//34
f 26//35 24//33 23//32
f 24//33 26//35 22//31
f 20//29 22//31 26//35
f 27//36 22//31 21//30
f 22//31 27//36 28//37
f 28//37 27//36 29//38
f 32//39 31//40 30//41
f 30//41 31//40 33//42
f 28//43 33//42 31//40
s 0
f 33//44 28//44 34//44
s 1
f 29//38 35//45 28//37
s 0
f 34//46 28//46 35//46
s 1
f 32//39 36//47 31//40
f 37//48 31//40 36//47
f 31//40 37//48 24//33
f 24//33 37//48 25//34
f 24//33 1112//49 38//50
f 41//51 39//52 40//53
f 31//40 24//33 42//54
f 24//33 38//50 42//54
f 43//55 42//54 38//50
f 42//54 43//55 44//56
f 44//56 43//55 45//57
f 46//58 45//57 43//55
f 45//57 46//58 47//59
f 48//60 47//59 46//58
f 47//59 48//60 41//51
f 49//61 41//51 48//60
f 50//62 41//51 49//61
f 41//51 50//62 39//52
f 51//63 52//64 53//65
f 54//66 55//67 53//65
f 1071//68 18//25 19//28
f 56//69 18//25 1071//68
f 51//63 58//70 57//71
f 56//69 57//71 58//70
f 57//71 56//69 1069//72
f 1071//68 1069//72 56//69
f 58//70 53//65 55//67
f 53//65 58//70 51//63
f 54//66 59//73 55//67
f 60//74 55//67 59//73
f 55//67 60//74 669//75
f 668//76 669//75 60//74
s 0
f 67//77 68//77 69//77
f 69//77 70//77 67//77
f 71//77 67//77 70//77
f 67//77 71//77 72//77
f 73//77 72//77 71//77
f 72//77 73//77 74//77
f 75//77 76//77 77//77
f 75//77 77//77 67//77
f 77//77 78//77 67//77
f 79//77 67//77 78//77
f 68//77 67//77 79//77
f 80//77 81//77 82//77
f 81//77 83//77 82//77
f 84//77 82//77 83//77
f 82//77 84//77 75//77
f 85//77 75//77 84//77
f 75//77 85//77 86//77
f 86//77 87//77 75//77
f 88//77 75//77 87//77
f 75//77 88//77 76//77
f 74//77 89//77 72//77
f 90//77 72//77 89//77
f 80//77 82//77 91//77
f 90//77 92//77 72//77
f 93//77 72//77 92//77
f 72//77 93//77 82//77
f 94//77 82//77 93//77
f 82//77 94//77 91//77
f 95//77 96//77 97//77
f 97//77 96//77 98//77
f 99//77 100//77 97//77
f 100//77 101//77 97//77
f 97//77 101//77 95//77
f 102//77 95//77 101//77
f 95//77 102//77 103//77
f 105//77 97//77 104//77
f 97//77 105//77 99//77
f 103//77 106//77 95//77
f 104//77 97//77 107//77
f 108//77 109//77 110//77
f 107//77 111//77 112//77
f 113//77 112//77 111//77
f 112//77 113//77 114//77
f 116//77 107//77 115//77
f 107//77 116//77 111//77
f 117//77 118//77 119//77
f 119//77 118//77 120//77
f 109//77 121//77 110//77
f 110//77 121//77 122//77
f 123//77 124//77 97//77
f 114//77 113//77 119//77
f 125//77 119//77 113//77
f 119//77 125//77 117//77
f 122//77 126//77 110//77
f 127//77 110//77 126//77
f 110//77 127//77 97//77
f 128//77 97//77 127//77
f 97//77 128//77 123//77
f 124//77 129//77 97//77
f 130//77 97//77 129//77
f 97//77 130//77 107//77
f 131//77 107//77 130//77
f 107//77 131//77 115//77
f 120//77 108//77 119//77
f 110//77 119//77 108//77
f 119//77 110//77 132//77
f 133//77 110//77 134//77
f 135//77 134//77 110//77
f 136//77 110//77 133//77
f 110//77 136//77 137//77
f 137//77 138//77 110//77
f 132//77 110//77 138//77
f 135//77 139//77 134//77
f 140//77 141//77 142//77
f 143//77 144//77 145//77
f 145//77 144//77 140//77
f 141//77 140//77 144//77
f 142//77 146//77 140//77
f 148//77 149//77 147//77
f 143//77 147//77 149//77
f 65//77 151//77 66//77
f 152//77 66//77 151//77
f 66//77 152//77 147//77
f 150//77 147//77 152//77
f 66//77 153//77 154//77
f 154//77 155//77 66//77
f 156//77 157//77 158//77
f 158//77 157//77 159//77
f 158//77 161//77 156//77
f 158//77 163//77 66//77
f 153//77 66//77 163//77
f 162//77 164//77 159//77
f 165//77 159//77 164//77
f 159//77 165//77 158//77
f 163//77 158//77 165//77
f 161//77 64//77 160//77
f 166//77 160//77 64//77
f 168//77 161//77 167//77
f 169//77 167//77 161//77
f 170//77 63//77 64//77
f 161//77 168//77 64//77
f 170//77 64//77 168//77
f 61//77 171//77 62//77
f 172//77 173//77 177//77
f 177//77 173//77 62//77
f 62//77 173//77 61//77
f 176//77 175//77 174//77
f 175//77 176//77 177//77
f 172//77 177//77 176//77
f 98//77 177//77 97//77
f 178//77 175//77 177//77
f 175//77 178//77 179//77
f 180//77 181//77 62//77
f 181//77 182//77 62//77
f 62//77 182//77 183//77
f 184//77 177//77 185//77
f 186//77 185//77 177//77
f 187//77 188//77 97//77
f 189//77 97//77 188//77
f 97//77 189//77 190//77
f 183//77 191//77 62//77
f 192//77 62//77 191//77
f 62//77 192//77 177//77
f 193//77 177//77 192//77
f 177//77 193//77 186//77
f 190//77 194//77 67//77
f 195//77 67//77 194//77
f 67//77 195//77 196//77
f 196//77 197//77 67//77
f 198//77 67//77 197//77
f 67//77 198//77 199//77
f 184//77 200//77 177//77
f 201//77 177//77 200//77
f 177//77 201//77 97//77
f 97//77 201//77 187//77
f 202//77 203//77 161//77
f 204//77 205//77 169//77
f 202//77 161//77 206//77
f 206//77 161//77 207//77
f 158//77 207//77 161//77
f 203//77 208//77 161//77
f 209//77 161//77 208//77
f 161//77 209//77 169//77
f 210//77 169//77 209//77
f 169//77 210//77 204//77
f 211//77 212//77 75//77
f 213//77 75//77 212//77
f 75//77 213//77 214//77
f 205//77 215//77 169//77
f 169//77 215//77 216//77
f 217//77 218//77 158//77
f 219//77 158//77 218//77
f 199//77 180//77 67//77
f 62//77 67//77 180//77
f 67//77 62//77 75//77
f 169//77 75//77 62//77
f 75//77 169//77 211//77
f 216//77 211//77 169//77
f 214//77 220//77 75//77
f 221//77 75//77 220//77
f 75//77 221//77 217//77
f 219//77 222//77 158//77
f 223//77 158//77 222//77
f 158//77 223//77 207//77
f 224//77 225//77 66//77
f 226//77 66//77 225//77
f 228//77 158//77 227//77
f 229//77 230//77 145//77
f 231//77 232//77 147//77
f 228//77 233//77 158//77
f 234//77 158//77 233//77
f 158//77 234//77 145//77
f 235//77 145//77 234//77
f 145//77 235//77 229//77
f 226//77 236//77 66//77
f 237//77 66//77 236//77
f 66//77 237//77 158//77
f 238//77 158//77 237//77
f 158//77 238//77 227//77
f 239//77 145//77 230//77
f 145//77 239//77 240//77
f 232//77 241//77 147//77
f 242//77 147//77 241//77
f 147//77 242//77 66//77
f 243//77 66//77 242//77
f 66//77 243//77 224//77
f 143//77 145//77 147//77
f 240//77 147//77 145//77
f 147//77 240//77 231//77
f 244//77 245//77 246//77
f 247//77 248//77 72//77
f 249//77 72//77 248//77
f 72//77 249//77 250//77
f 251//77 252//77 110//77
f 253//77 110//77 252//77
f 110//77 253//77 254//77
f 245//77 255//77 246//77
f 246//77 255//77 256//77
f 257//77 258//77 135//77
f 250//77 259//77 72//77
f 260//77 72//77 259//77
f 72//77 260//77 261//77
f 254//77 262//77 110//77
f 110//77 262//77 135//77
f 263//77 135//77 262//77
f 135//77 263//77 257//77
f 258//77 264//77 135//77
f 265//77 135//77 264//77
f 135//77 265//77 246//77
f 266//77 246//77 265//77
f 246//77 266//77 244//77
f 190//77 67//77 97//77
f 72//77 97//77 67//77
f 97//77 72//77 110//77
f 261//77 110//77 72//77
f 110//77 261//77 251//77
f 140//77 267//77 268//77
f 140//77 268//77 145//77
f 145//77 268//77 269//77
f 246//77 270//77 140//77
f 271//77 140//77 270//77
f 140//77 271//77 272//77
f 272//77 273//77 140//77
f 274//77 140//77 273//77
f 140//77 274//77 267//77
f 275//77 276//77 82//77
f 277//77 82//77 276//77
f 277//77 278//77 82//77
f 246//77 82//77 278//77
f 82//77 246//77 72//77
f 72//77 246//77 247//77
f 256//77 247//77 246//77
f 278//77 279//77 246//77
f 280//77 246//77 279//77
f 269//77 281//77 145//77
f 282//77 145//77 281//77
f 145//77 282//77 283//77
f 284//77 285//77 82//77
f 286//77 82//77 285//77
f 82//77 286//77 275//77
f 280//77 287//77 246//77
f 288//77 246//77 287//77
f 246//77 288//77 270//77
f 217//77 158//77 75//77
f 145//77 75//77 158//77
f 75//77 145//77 82//77
f 283//77 82//77 145//77
f 82//77 283//77 284//77
s 1
f 290//78 289//79 300//80
f 289//79 290//78 291//81
f 292//82 291//81 290//78
f 291//81 292//82 293//83
f 294//84 293//83 292//82
f 293//83 294//84 295//85
f 296//86 295//85 294//84
f 295//85 296//86 297//87
f 298//88 297//87 296//86
f 297//87 298//88 299//89
f 300//80 299//89 298//88
f 299//89 300//80 289//79
f 301//90 302//91 303//92
f 304//93 303//92 302//91
f 303//92 304//93 305//94
f 306//95 305//94 304//93
f 305//94 306//95 307//96
f 307//96 306//95 308//97
f 309//98 308//97 306//95
f 310//99 308//97 309//98
f 308//97 310//99 311//100
f 312//101 311//100 310//99
f 311//100 312//101 313//102
f 313//102 312//101 301//90
f 302//91 301//90 312//101
f 316//103 314//104 315//105
f 314//104 316//103 317//106
f 318//107 317//106 316//103
f 317//106 318//107 319//108
f 320//109 319//108 318//107
f 319//108 320//109 321//110
f 322//111 321//110 320//109
f 323//112 321//110 322//111
f 321//110 323//112 324//113
f 325//114 324//113 323//112
f 324//113 325//114 326//115
f 326//115 325//114 314//104
f 315//105 314//104 325//114
f 328//78 327//79 338//80
f 327//79 328//78 329//81
f 330//82 329//81 328//78
f 329//81 330//82 331//83
f 332//84 331//83 330//82
f 331//83 332//84 333//85
f 334//86 333//85 332//84
f 333//85 334//86 335//87
f 336//88 335//87 334//86
f 335//87 336//88 337//89
f 338//80 337//89 336//88
f 337//89 338//80 327//79
f 351//116 350//117 339//118
f 340//119 339//118 350//117
f 341//120 339//118 340//119
f 339//118 341//120 342//121
f 343//122 342//121 341//120
f 342//121 343//122 344//123
f 344//123 343//122 345//124
f 346//125 345//124 343//122
f 345//124 346//125 347//126
f 348//127 347//126 346//125
f 347//126 348//127 349//128
f 350//117 349//128 348//127
f 349//128 350//117 351//116
f 363//129 364//130 352//131
f 353//132 352//131 364//130
f 354//133 352//131 353//132
f 352//131 354//133 355//134
f 356//135 355//134 354//133
f 355//134 356//135 357//136
f 357//136 356//135 358//137
f 359//138 358//137 356//135
f 360//139 358//137 359//138
f 358//137 360//139 361//140
f 362//141 361//140 360//139
f 361//140 362//141 363//129
f 364//130 363//129 362//141
s 0
f 365//142 366//142 367//142
f 368//142 369//142 370//142
f 371//142 372//142 373//142
f 367//142 381//142 382//142
f 382//142 383//142 367//142
f 367//142 383//142 386//142
f 384//142 386//142 383//142
f 386//142 384//142 385//142
f 387//142 388//142 389//142
f 392//142 393//142 394//142
f 389//142 394//142 393//142
f 394//142 389//142 395//142
f 388//142 395//142 389//142
f 366//142 381//142 367//142
f 396//142 381//142 366//142
f 381//142 396//142 390//142
f 397//142 390//142 396//142
f 390//142 397//142 391//142
f 391//142 387//142 390//142
f 389//142 390//142 387//142
f 390//142 389//142 403//142
f 399//142 389//142 398//142
f 389//142 399//142 400//142
f 400//142 401//142 389//142
f 402//142 389//142 401//142
f 389//142 402//142 403//142
f 389//142 404//142 398//142
f 405//142 398//142 404//142
f 398//142 405//142 406//142
f 406//142 407//142 398//142
f 408//142 398//142 407//142
f 398//142 408//142 409//142
f 410//142 409//142 408//142
f 409//142 410//142 411//142
f 412//142 411//142 410//142
f 411//142 412//142 379//142
f 413//142 379//142 412//142
f 379//142 413//142 414//142
f 414//142 415//142 379//142
f 416//142 379//142 415//142
f 379//142 416//142 380//142
f 417//142 418//142 380//142
f 417//142 380//142 419//142
f 418//142 420//142 380//142
f 380//142 420//142 379//142
f 380//142 421//142 419//142
f 423//142 378//142 422//142
f 378//142 423//142 424//142
f 424//142 425//142 378//142
f 426//142 378//142 425//142
f 427//142 428//142 429//142
f 422//142 378//142 429//142
f 430//142 429//142 378//142
f 429//142 430//142 427//142
f 428//142 431//142 429//142
f 432//142 429//142 431//142
f 429//142 432//142 433//142
f 434//142 433//142 432//142
f 433//142 434//142 435//142
f 436//142 435//142 434//142
f 435//142 436//142 437//142
f 436//142 438//142 437//142
f 439//142 437//142 438//142
f 437//142 439//142 440//142
f 442//142 441//142 377//142
f 374//142 442//142 377//142
f 441//142 443//142 377//142
f 444//142 377//142 443//142
f 377//142 444//142 445//142
f 440//142 376//142 437//142
f 377//142 437//142 376//142
f 445//142 437//142 377//142
f 446//142 447//142 377//142
f 375//142 374//142 448//142
f 448//142 374//142 449//142
f 447//142 450//142 377//142
f 451//142 377//142 450//142
f 377//142 451//142 374//142
f 452//142 374//142 451//142
f 374//142 452//142 449//142
f 453//142 454//142 375//142
f 375//142 454//142 374//142
f 454//142 455//142 456//142
f 457//142 456//142 455//142
f 458//142 459//142 455//142
f 457//142 455//142 459//142
f 460//142 459//142 458//142
f 463//142 462//142 461//142
f 462//142 463//142 464//142
f 386//142 465//142 463//142
f 466//142 463//142 465//142
f 463//142 466//142 464//142
f 370//142 369//142 426//142
f 467//142 426//142 369//142
f 426//142 467//142 468//142
f 468//142 469//142 426//142
f 470//142 426//142 469//142
f 426//142 470//142 378//142
f 471//142 378//142 470//142
f 378//142 471//142 472//142
f 368//142 370//142 473//142
f 473//142 370//142 474//142
f 475//142 476//142 477//142
f 478//142 477//142 476//142
f 479//142 480//142 481//142
f 481//142 482//142 479//142
f 483//142 479//142 482//142
f 479//142 483//142 370//142
f 474//142 370//142 483//142
f 478//142 484//142 477//142
f 485//142 477//142 484//142
f 477//142 485//142 479//142
f 486//142 479//142 485//142
f 479//142 486//142 480//142
f 487//142 488//142 373//142
f 475//142 373//142 488//142
f 489//142 490//142 491//142
f 492//142 493//142 494//142
f 495//142 496//142 497//142
f 497//142 496//142 494//142
f 498//142 494//142 496//142
f 494//142 498//142 492//142
f 499//142 500//142 501//142
f 494//142 501//142 500//142
f 501//142 494//142 502//142
f 493//142 502//142 494//142
f 499//142 503//142 500//142
f 504//142 500//142 503//142
f 500//142 504//142 505//142
f 506//142 505//142 504//142
f 505//142 506//142 491//142
f 507//142 491//142 506//142
f 495//142 497//142 455//142
f 454//142 453//142 455//142
f 377//142 491//142 446//142
f 490//142 446//142 491//142
f 491//142 508//142 373//142
f 509//142 373//142 508//142
f 373//142 509//142 510//142
f 510//142 511//142 373//142
f 512//142 373//142 511//142
f 373//142 512//142 513//142
f 377//142 514//142 491//142
f 515//142 491//142 514//142
f 491//142 515//142 516//142
f 516//142 517//142 491//142
f 518//142 491//142 517//142
f 491//142 518//142 508//142
f 519//142 520//142 521//142
f 522//142 521//142 520//142
f 523//142 524//142 393//142
f 525//142 393//142 524//142
f 526//142 520//142 380//142
f 520//142 526//142 522//142
f 519//142 527//142 520//142
f 528//142 520//142 527//142
f 520//142 528//142 393//142
f 529//142 393//142 528//142
f 393//142 529//142 523//142
f 525//142 530//142 393//142
f 389//142 393//142 530//142
f 531//142 532//142 477//142
f 532//142 533//142 477//142
f 534//142 477//142 533//142
f 477//142 534//142 520//142
f 535//142 520//142 534//142
f 536//142 479//142 537//142
f 421//142 537//142 479//142
f 537//142 421//142 538//142
f 536//142 539//142 479//142
f 540//142 479//142 539//142
f 479//142 540//142 541//142
f 541//142 542//142 479//142
f 543//142 479//142 542//142
f 479//142 543//142 477//142
f 544//142 477//142 543//142
f 477//142 544//142 531//142
f 535//142 545//142 520//142
f 546//142 520//142 545//142
f 520//142 546//142 380//142
f 547//142 380//142 546//142
f 547//142 548//142 380//142
f 549//142 380//142 548//142
f 380//142 549//142 421//142
f 550//142 421//142 549//142
f 421//142 550//142 551//142
f 551//142 552//142 421//142
f 553//142 421//142 552//142
f 554//142 421//142 553//142
f 421//142 554//142 538//142
f 392//142 555//142 393//142
f 556//142 393//142 555//142
f 393//142 556//142 557//142
f 494//142 558//142 367//142
f 559//142 367//142 558//142
f 367//142 559//142 365//142
f 556//142 560//142 557//142
f 561//142 557//142 560//142
f 557//142 561//142 500//142
f 562//142 500//142 561//142
f 500//142 562//142 563//142
f 563//142 564//142 500//142
f 565//142 500//142 564//142
f 500//142 565//142 494//142
f 566//142 494//142 565//142
f 494//142 566//142 567//142
f 567//142 568//142 494//142
f 569//142 494//142 568//142
f 494//142 569//142 558//142
f 570//142 571//142 491//142
f 572//142 573//142 373//142
f 574//142 373//142 573//142
f 571//142 575//142 491//142
f 505//142 491//142 575//142
f 574//142 576//142 373//142
f 577//142 373//142 576//142
f 373//142 577//142 491//142
f 578//142 491//142 577//142
f 491//142 578//142 570//142
f 475//142 477//142 373//142
f 579//142 373//142 477//142
f 373//142 579//142 572//142
f 580//142 393//142 557//142
f 393//142 580//142 581//142
f 582//142 583//142 520//142
f 584//142 520//142 583//142
f 581//142 585//142 393//142
f 586//142 393//142 585//142
f 393//142 586//142 520//142
f 587//142 520//142 586//142
f 520//142 587//142 582//142
f 584//142 588//142 520//142
f 589//142 520//142 588//142
f 590//142 591//142 455//142
f 455//142 497//142 590//142
f 592//142 593//142 458//142
f 458//142 594//142 461//142
f 594//142 458//142 595//142
f 593//142 595//142 458//142
f 591//142 596//142 455//142
f 455//142 596//142 458//142
f 592//142 458//142 596//142
f 597//142 598//142 386//142
f 599//142 367//142 600//142
f 599//142 601//142 367//142
f 367//142 601//142 494//142
f 497//142 494//142 601//142
f 598//142 602//142 386//142
f 386//142 602//142 603//142
f 604//142 386//142 463//142
f 386//142 604//142 597//142
f 605//142 386//142 603//142
f 386//142 605//142 367//142
f 367//142 605//142 600//142
f 606//142 461//142 594//142
f 461//142 606//142 463//142
f 472//142 371//142 378//142
f 373//142 378//142 371//142
f 513//142 378//142 373//142
f 520//142 589//142 477//142
f 372//142 487//142 373//142
f 507//142 489//142 491//142
s 1
f 609//143 621//144 625//145
f 1127//146 609//143 625//145
f 610//147 609//143 1127//146
f 611//148 609//143 610//147
f 609//143 611//148 612//149
f 612//149 611//148 613//150
f 611//148 614//151 613//150
f 613//150 614//151 615//152
f 616//153 607//3 617//154
f 608//8 617//154 607//3
f 618//155 617//154 608//8
f 615//152 617//154 618//155
f 617//154 615//152 614//151
f 619//156 620//157 621//144
s 0
f 622//158 623//158 624//158
f 627//158 628//158 633//158
f 629//158 633//158 628//158
s 1
f 631//159 630//160 40//53
f 630//160 632//161 40//53
f 40//53 632//161 633//162
s 0
f 632//158 634//158 633//158
f 635//158 633//158 634//158
s 1
f 626//163 636//164 625//145
f 625//145 636//164 39//52
f 39//52 631//159 40//53
f 631//159 39//52 637//165
f 638//166 621//144 620//157
f 621//144 638//166 625//145
f 638//166 639//167 625//145
f 625//145 639//167 640//168
s 0
f 644//158 643//158 642//158
s 1
f 643//169 644//170 621//144
f 619//156 621//144 644//170
s 0
f 635//158 645//158 633//158
f 627//158 633//158 645//158
f 646//158 647//158 648//158
f 649//158 648//158 647//158
s 1
f 650//171 625//145 640//168
s 0
f 641//158 651//158 624//158
f 622//158 624//158 651//158
f 629//158 652//158 633//158
f 653//158 633//158 652//158
f 633//158 653//158 643//158
f 643//158 653//158 654//158
f 643//158 655//158 642//158
s 1
f 636//164 656//172 39//52
f 657//173 39//52 656//172
s 0
f 658//158 647//158 646//158
f 627//158 647//158 658//158
f 647//158 627//158 645//158
s 1
f 650//171 659//174 625//145
f 660//175 625//145 659//174
f 625//145 660//175 623//176
s 0
f 623//158 660//158 624//158
s 1
f 626//163 625//145 661//163
f 623//176 661//163 625//145
s 0
f 661//158 623//158 647//158
f 649//177 647//177 623//177
s 1
f 657//173 662//178 39//52
f 39//52 662//178 637//165
s 0
f 654//158 663//158 643//158
f 643//158 663//158 664//158
f 665//158 641//158 624//158
f 641//158 665//158 664//158
f 664//158 665//158 643//158
f 666//158 643//158 665//158
f 643//158 666//158 655//158
s 1
f 10//16 3//4 17//179
f 667//180 17//179 3//4
f 22//31 28//37 668//76
f 669//75 668//76 28//37
s 0
f 670//142 671//142 672//142
f 673//142 672//142 671//142
f 672//142 673//142 674//142
f 675//142 674//142 673//142
f 674//142 675//142 676//142
f 677//142 676//142 675//142
f 676//142 677//142 678//142
f 679//142 678//142 677//142
f 678//142 679//142 680//142
f 681//142 680//142 679//142
f 680//142 681//142 682//142
f 683//142 682//142 681//142
f 682//142 683//142 684//142
f 685//142 684//142 683//142
f 686//142 684//142 685//142
f 684//142 686//142 687//142
f 688//142 687//142 686//142
f 687//142 688//142 689//142
f 690//142 689//142 688//142
f 691//142 689//142 690//142
f 689//142 691//142 692//142
f 693//142 692//142 691//142
f 692//142 693//142 694//142
f 695//142 694//142 693//142
f 694//142 695//142 696//142
f 697//142 696//142 695//142
f 696//142 697//142 698//142
f 699//142 698//142 697//142
f 698//142 699//142 700//142
f 701//142 700//142 699//142
f 700//142 701//142 702//142
f 703//142 702//142 701//142
f 704//142 702//142 703//142
f 702//142 704//142 705//142
f 706//142 705//142 704//142
f 705//142 706//142 707//142
f 708//142 707//142 706//142
f 707//142 708//142 709//142
f 710//142 709//142 708//142
f 709//142 710//142 711//142
f 712//142 711//142 710//142
f 711//142 712//142 713//142
f 714//142 713//142 712//142
f 713//142 714//142 670//142
f 671//142 670//142 714//142
s 1
f 717//181 715//182 716//183
f 715//182 717//181 718//184
f 719//185 718//184 717//181
f 718//184 719//185 720//186
f 721//187 720//186 719//185
f 720//186 721//187 722//188
f 723//189 722//188 721//187
f 722//188 723//189 724//190
f 725//191 724//190 723//189
f 724//190 725//191 726//192
f 727//193 726//192 725//191
f 726//192 727//193 728//194
f 729//195 728//194 727//193
f 728//194 729//195 730//196
f 716//183 730//196 729//195
f 730//196 716//183 715//182
s 0
f 731//142 732//142 733//142
f 734//142 733//142 732//142
f 733//142 734//142 735//142
f 736//142 735//142 734//142
f 735//142 736//142 737//142
f 738//142 737//142 736//142
f 737//142 738//142 739//142
f 740//142 739//142 738//142
f 739//142 740//142 741//142
f 742//142 741//142 740//142
f 741//142 742//142 743//142
f 744//142 743//142 742//142
f 743//142 744//142 745//142
f 746//142 745//142 744//142
f 745//142 746//142 747//142
f 748//142 747//142 746//142
f 747//142 748//142 749//142
f 750//142 749//142 748//142
f 751//142 749//142 750//142
f 749//142 751//142 752//142
f 753//142 752//142 751//142
f 752//142 753//142 754//142
f 755//142 754//142 753//142
f 754//142 755//142 756//142
f 757//142 756//142 755//142
f 756//142 757//142 758//142
f 759//142 758//142 757//142
f 758//142 759//142 760//142
f 761//142 760//142 759//142
f 760//142 761//142 762//142
f 763//142 762//142 761//142
f 762//142 763//142 764//142
f 765//142 764//142 763//142
f 764//142 765//142 766//142
f 767//142 766//142 765//142
f 766//142 767//142 768//142
f 769//142 768//142 767//142
f 770//142 768//142 769//142
f 768//142 770//142 771//142
f 772//142 771//142 770//142
f 771//142 772//142 773//142
f 774//142 773//142 772//142
f 773//142 774//142 775//142
f 776//142 775//142 774//142
f 775//142 776//142 731//142
f 732//142 731//142 776//142
s 1
f 777//197 778//198 779//199
f 780//200 779//199 778//198
f 781//201 779//199 780//200
f 779//199 781//201 782//202
f 783//203 782//202 781//201
f 782//202 783//203 784//204
f 785//205 784//204 783//203
f 784//204 785//205 786//206
f 787//207 786//206 785//205
f 786//206 787//207 788//208
f 789//209 788//208 787//207
f 788//208 789//209 790//210
f 791//211 790//210 789//209
f 790//210 791//211 777//197
f 778//198 777//197 791//211
s 0
f 792//142 793//142 794//142
f 795//142 794//142 793//142
f 794//142 795//142 796//142
f 797//142 796//142 795//142
f 798//142 796//142 797//142
f 796//142 798//142 799//142
f 800//142 799//142 798//142
f 799//142 800//142 801//142
f 802//142 801//142 800//142
f 801//142 802//142 803//142
f 804//142 803//142 802//142
f 803//142 804//142 805//142
f 806//142 805//142 804//142
f 805//142 806//142 807//142
f 808//142 807//142 806//142
f 807//142 808//142 809//142
f 810//142 809//142 808//142
f 811//142 809//142 810//142
f 809//142 811//142 812//142
f 813//142 812//142 811//142
f 812//142 813//142 814//142
f 815//142 814//142 813//142
f 814//142 815//142 816//142
f 817//142 816//142 815//142
f 816//142 817//142 818//142
f 819//142 818//142 817//142
f 820//142 818//142 819//142
f 818//142 820//142 821//142
f 822//142 821//142 820//142
f 821//142 822//142 823//142
f 824//142 823//142 822//142
f 823//142 824//142 825//142
f 826//142 825//142 824//142
f 825//142 826//142 827//142
f 828//142 827//142 826//142
f 827//142 828//142 829//142
f 830//142 829//142 828//142
f 829//142 830//142 831//142
f 832//142 831//142 830//142
f 833//142 831//142 832//142
f 831//142 833//142 834//142
f 835//142 834//142 833//142
f 834//142 835//142 792//142
f 793//142 792//142 835//142
s 1
f 838//212 836//213 837//214
f 836//213 838//212 839//215
f 840//216 839//215 838//212
f 839//215 840//216 841//217
f 842//218 841//217 840//216
f 841//217 842//218 843//219
f 842//218 844//220 843//219
f 843//219 844//220 845//221
f 845//221 844//220 846//222
f 847//223 846//222 844//220
f 848//224 846//222 847//223
f 846//222 848//224 849//225
f 850//226 849//225 848//224
f 849//225 850//226 851//227
f 837//214 851//227 850//226
f 851//227 837//214 836//213
s 0
f 852//142 853//142 854//142
f 855//142 854//142 853//142
f 856//142 854//142 855//142
f 854//142 856//142 857//142
f 858//142 857//142 856//142
f 857//142 858//142 859//142
f 860//142 859//142 858//142
f 859//142 860//142 861//142
f 862//142 861//142 860//142
f 861//142 862//142 863//142
f 864//142 863//142 862//142
f 865//142 863//142 864//142
f 863//142 865//142 866//142
f 867//142 866//142 865//142
f 866//142 867//142 868//142
f 869//142 868//142 867//142
f 868//142 869//142 870//142
f 871//142 870//142 869//142
f 870//142 871//142 872//142
f 873//142 872//142 871//142
f 872//142 873//142 874//142
f 875//142 874//142 873//142
f 874//142 875//142 876//142
f 877//142 876//142 875//142
f 878//142 876//142 877//142
f 876//142 878//142 879//142
f 880//142 879//142 878//142
f 879//142 880//142 881//142
f 882//142 881//142 880//142
f 881//142 882//142 883//142
f 884//142 883//142 882//142
f 883//142 884//142 885//142
f 886//142 885//142 884//142
f 887//142 885//142 886//142
f 885//142 887//142 888//142
f 889//142 888//142 887//142
f 888//142 889//142 890//142
f 891//142 890//142 889//142
f 890//142 891//142 892//142
f 893//142 892//142 891//142
f 892//142 893//142 894//142
f 895//142 894//142 893//142
f 894//142 895//142 852//142
f 853//142 852//142 895//142
s 1
f 896//228 897//229 898//230
f 898//230 897//229 899//231
f 900//232 899//231 897//229
f 901//233 899//231 900//232
f 899//231 901//233 902//234
f 903//235 902//234 901//233
f 902//234 903//235 904//236
f 905//237 904//236 903//235
f 904//236 905//237 906//238
f 907//239 906//238 905//237
f 906//238 907//239 908//240
f 909//241 908//240 907//239
f 908//240 909//241 910//242
f 911//243 910//242 909//241
f 910//242 911//243 896//228
f 897//229 896//228 911//243
s 0
f 912//142 913//142 914//142
f 915//142 914//142 913//142
f 914//142 915//142 916//142
f 917//142 916//142 915//142
f 916//142 917//142 918//142
f 919//142 918//142 917//142
f 918//142 919//142 920//142
f 921//142 920//142 919//142
f 920//142 921//142 922//142
f 923//142 922//142 921//142
f 922//142 923//142 924//142
f 925//142 924//142 923//142
f 924//142 925//142 926//142
f 927//142 926//142 925//142
f 926//142 927//142 928//142
f 929//142 928//142 927//142
f 928//142 929//142 930//142
f 931//142 930//142 929//142
f 930//142 931//142 932//142
f 933//142 932//142 931//142
f 932//142 933//142 934//142
f 935//142 934//142 933//142
f 936//142 934//142 935//142
f 934//142 936//142 937//142
f 938//142 937//142 936//142
f 937//142 938//142 939//142
f 940//142 939//142 938//142
f 939//142 940//142 941//142
f 942//142 941//142 940//142
f 941//142 942//142 943//142
f 944//142 943//142 942//142
f 943//142 944//142 945//142
f 946//142 945//142 944//142
f 945//142 946//142 947//142
f 948//142 947//142 946//142
f 947//142 948//142 949//142
f 950//142 949//142 948//142
f 949//142 950//142 951//142
f 952//142 951//142 950//142
f 951//142 952//142 953//142
f 954//142 953//142 952//142
f 955//142 953//142 954//142
f 953//142 955//142 956//142
f 957//142 956//142 955//142
f 956//142 957//142 912//142
f 913//142 912//142 957//142
s 1
f 960//244 958//245 959//246
f 958//245 960//244 961//247
f 962//248 961//247 960//244
f 961//247 962//248 963//249
f 964//250 963//249 962//248
f 963//249 964//250 965//251
f 964//250 966//252 965//251
f 965//251 966//252 967//253
f 968//254 967//253 966//252
f 967//253 968//254 969//255
f 970//241 969//255 968//254
f 969//255 970//241 971//256
f 972//257 971//256 970//241
f 971//256 972//257 973//258
f 959//246 973//258 972//257
f 973//258 959//246 958//245
s 0
f 976//142 974//142 975//142
f 974//142 976//142 977//142
f 978//142 977//142 976//142
f 977//142 978//142 979//142
f 980//142 979//142 978//142
f 979//142 980//142 981//142
f 982//142 981//142 980//142
f 981//142 982//142 983//142
f 984//142 983//142 982//142
f 983//142 984//142 985//142
f 986//142 985//142 984//142
f 985//142 986//142 987//142
f 988//142 987//142 986//142
f 987//142 988//142 989//142
f 990//142 989//142 988//142
f 989//142 990//142 991//142
f 992//142 991//142 990//142
f 991//142 992//142 993//142
f 994//142 993//142 992//142
f 993//142 994//142 995//142
f 996//142 995//142 994//142
f 995//142 996//142 997//142
f 998//142 997//142 996//142
f 997//142 998//142 999//142
f 1000//142 999//142 998//142
f 999//142 1000//142 1001//142
f 1002//142 1001//142 1000//142
f 1003//142 1001//142 1002//142
f 1001//142 1003//142 1004//142
f 1005//142 1004//142 1003//142
f 1004//142 1005//142 1006//142
f 1007//142 1006//142 1005//142
f 1006//142 1007//142 1008//142
f 1009//142 1008//142 1007//142
f 1008//142 1009//142 1010//142
f 1011//142 1010//142 1009//142
f 1010//142 1011//142 1012//142
f 1013//142 1012//142 1011//142
f 1012//142 1013//142 1014//142
f 1015//142 1014//142 1013//142
f 1014//142 1015//142 1016//142
f 1017//142 1016//142 1015//142
f 1016//142 1017//142 1018//142
f 1019//142 1018//142 1017//142
f 1018//142 1019//142 974//142
f 975//142 974//142 1019//142
s 1
f 1022//259 1020//260 1021//261
f 1020//260 1022//259 1023//262
f 1023//262 1022//259 1024//263
f 1025//264 1024//263 1022//259
f 1024//263 1025//264 1026//265
f 1027//266 1026//265 1025//264
f 1026//265 1027//266 1028//267
f 1029//268 1028//267 1027//266
f 1028//267 1029//268 1030//269
f 1031//270 1030//269 1029//268
f 1030//269 1031//270 1032//271
f 1033//272 1032//271 1031//270
f 1032//271 1033//272 1034//273
f 1034//273 1033//272 1020//260
f 1021//261 1020//260 1033//272
f 1037//274 1036//275 1035//276
f 1036//275 1037//274 1038//277
f 1041//278 1040//279 1039//280
f 1040//279 1041//278 1042//281
f 1043//282 1042//281 1041//278
f 1042//281 1043//282 1044//283
f 1038//277 1044//283 1043//282
f 1044//283 1038//277 1037//274
f 1045//284 1039//280 1040//279
f 1039//280 1045//284 1046//285
f 1047//286 1035//276 1036//275
f 1035//276 1047//286 1048//287
f 1049//288 1048//287 1047//286
f 1048//287 1049//288 1050//289
f 1046//285 1050//289 1049//288
f 1050//289 1046//285 1045//284
s 0
f 1051//77 1052//77 1053//77
f 1054//77 1053//77 1052//77
f 1053//77 1054//77 1055//77
f 1056//77 1055//77 1054//77
f 1055//77 1056//77 1064//77
f 1057//77 1064//77 1056//77
f 1064//77 1057//77 1062//77
f 1058//77 1065//77 1059//77
f 1060//77 1059//77 1065//77
f 1059//77 1060//77 1051//77
f 1061//77 1051//77 1060//77
f 1051//77 1061//77 1052//77
f 1062//77 1063//77 1064//77
f 1066//77 1065//77 1067//77
f 1058//77 1067//77 1065//77
s 1
f 1068//290 1069//72 1070//291
f 1071//68 1070//291 1069//72
f 1074//292 53//65 1075//293
f 52//64 1075//293 53//65
f 1072//294 1068//290 1070//291
f 1070//291 1073//295 1072//294
f 1074//292 1072//294 1073//295
f 1072//294 1074//292 1075//293
s 0
f 1076//142 1077//142 1078//142
f 1079//142 1078//142 1077//142
f 1078//142 1080//142 1081//142
f 1082//142 1081//142 1080//142
f 1083//142 1079//142 1077//142
f 1079//142 1083//142 1088//142
f 1078//142 1081//142 1076//142
f 1085//142 1084//142 1086//142
f 1087//142 1088//142 1085//142
f 1083//142 1085//142 1088//142
f 1084//142 1085//142 1083//142
f 1092//296 1089//297 1091//298
f 1090//299 1091//300 1089//301
s 1
f 1091//302 607//3 1092//303
f 616//153 1092//303 607//3
f 1093//27 1090//304 1089//305
f 1090//304 1093//27 1094//24
s 0
f 1097//142 1098//142 1096//142
f 1099//142 1096//142 1098//142
f 1096//142 1099//142 1100//142
f 1100//142 1099//142 1101//142
f 1102//142 1101//142 1099//142
f 1101//142 1102//142 1103//142
f 1095//142 1105//142 1104//142
f 1103//142 1104//142 1105//142
f 1102//142 1104//142 1103//142
f 1104//142 1102//142 1106//142
f 1106//142 1107//142 1104//142
f 1108//306 1111//307 1109//308
f 1110//309 1109//310 1111//311
s 1
f 1110//312 60//74 59//73
f 60//74 1110//312 1111//313
f 1109//314 1112//49 1108//315
f 24//33 1108//315 1112//49
s 0
f 1113//142 1114//142 1117//142
f 1118//142 1115//142 1116//142
f 1119//142 1117//142 1118//142
f 1117//142 1119//142 1122//142
f 1115//142 1117//142 1114//142
f 1117//142 1115//142 1118//142
f 1119//142 1120//142 1122//142
f 1121//142 1122//142 1120//142
s 1
f 1125//316 1126//317 1124//318
f 1123//319 1124//318 1126//317
f 1125//316 39//52 1126//317
f 50//62 1126//317 39//52
f 1123//319 1127//146 1124//318
f 625//145 1124//318 1127//146
f 1128//320 1129//321 1130//322
f 1131//323 1130//322 1129//321
f 1130//322 1131//323 1132//324
f 1133//325 1132//324 1131//323
f 1132//324 1133//325 1134//326
f 1135//327 1134//326 1133//325
f 1134//326 1135//327 1136//328
f 1137//329 1136//328 1135//327
f 1136//328 1137//329 1138//330
f 1139//331 1138//330 1137//329
f 1138//330 1139//331 1128//320
f 1129//321 1128//320 1139//331
f 1140//332 1141//333 1142//334
f 1143//335 1141//333 1144//336
f 1145//337 1146//338 1147//339
f 1148//340 1146//341 1149//342
f 1142//334 1148//340 1150//343
f 1151//344 1152//345 1153//346
f 1154//347 1152//345 1155//348
f 1147//339 1154//347 1156//349
f 1157//350 1158//351 1159//352
f 1160//353 1158//351 1161//354
f 1153//355 1160//353 1162//356
f 1163//357 1164//358 1165//359
f 1166//360 1164//358 1167//361
f 1159//352 1166//360 1168//362
f 1169//363 1170//364 1171//365
f 1172//366 1170//367 1173//368
f 1165//359 1172//366 1174//369
f 1175//370 1176//371 1177//372
f 1178//373 1176//371 1179//374
f 1171//365 1178//373 1180//375
f 1181//376 1182//377 1183//378
f 1184//379 1182//377 1185//380
f 1177//381 1184//379 1186//382
f 1183//378 1143//335 1187//383
f 1188//320 1189//321 1190//322
f 1191//323 1190//322 1189//321
f 1190//322 1191//323 1192//324
f 1193//325 1192//324 1191//323
f 1192//324 1193//325 1194//326
f 1195//327 1194//326 1193//325
f 1194//326 1195//327 1196//328
f 1197//329 1196//328 1195//327
f 1196//328 1197//329 1198//330
f 1199//331 1198//330 1197//329
f 1198//330 1199//331 1188//320
f 1189//321 1188//320 1199//331
f 1200//332 1201//333 1202//334
f 1203//335 1201//333 1204//336
f 1205//337 1206//338 1207//339
f 1208//340 1206//341 1209//342
f 1202//334 1208//340 1210//343
f 1211//344 1212//345 1213//346
f 1214//347 1212//345 1215//348
f 1207//339 1214//347 1216//349
f 1217//350 1218//351 1219//352
f 1220//353 1218//351 1221//354
f 1213//355 1220//353 1222//356
f 1223//357 1224//358 1225//359
f 1226//360 1224//358 1227//361
f 1219//352 1226//360 1228//362
f 1229//363 1230//364 1231//365
f 1232//366 1230//367 1233//368
f 1225//359 1232//366 1234//369
f 1235//370 1236//371 1237//372
f 1238//373 1236//371 1239//374
f 1231//365 1238//373 1240//375
f 1241//376 1242//377 1243//378
f 1244//379 1242//377 1245//380
f 1237//381 1244//379 1246//382
f 1243//378 1203//335 1247//383
f 1248//384 1249//385 1250//386
f 1251//387 1249//385 1252//388
f 1253//389 1254//390 1255//391
f 1256//392 1254//390 1257//393
f 1250//386 1256//392 1258//394
f 1259//395 1260//396 1261//397
f 1262//398 1260//396 1263//399
f 1255//391 1262//398 1264//400
f 1265//401 1266//402 1267//403
f 1268//404 1266//402 1269//405
f 1261//397 1268//404 1270//406
f 1271//407 1272//408 1273//409
f 1274//410 1272//408 1275//411
f 1267//403 1274//410 1276//412
f 1277//413 1278//414 1279//415
f 1280//416 1278//414 1281//417
f 1273//409 1280//416 1282//418
f 1283//419 1284//420 1285//421
f 1286//422 1284//420 1287//423
f 1279//415 1286//422 1288//424
f 1289//425 1290//426 1291//427
f 1292//428 1290//426 1293//429
f 1285//421 1292//428 1294//430
f 1291//427 1251//387 1295//431
f 1303//432 1296//433 1297//434
f 1298//435 1297//434 1296//433
f 1297//434 1298//435 1299//436
f 1300//437 1299//436 1298//435
f 1299//436 1300//437 1301//438
f 1302//439 1301//438 1300//437
f 1301//438 1302//439 1303//432
f 1296//433 1303//432 1302//439
f 1304//327 1305//326 1306//325
f 1307//324 1306//325 1305//326
f 1306//325 1307//324 1308//323
f 1309//322 1308//323 1307//324
f 1308//323 1309//322 1310//321
f 1311//320 1310//321 1309//322
f 1310//321 1311//320 1312//331
f 1313//330 1312//331 1311//320
f 1312//331 1313//330 1314//329
f 1315//328 1314//329 1313//330
f 1314//329 1315//328 1304//327
f 1305//326 1304//327 1315//328
f 1316//440 1317//385 1318//386
f 1319//387 1317//385 1320//388
f 1321//441 1322//390 1323//391
f 1324//392 1322//442 1325//393
f 1318//386 1324//392 1326//394
f 1327//443 1328//396 1329//397
f 1330//398 1328//396 1331//399
f 1323//391 1330//398 1332//400
f 1333//444 1334//402 1335//403
f 1336//404 1334//402 1337//405
f 1329//445 1336//404 1338//406
f 1339//446 1340//408 1341//409
f 1342//410 1340//408 1343//411
f 1335//403 1342//410 1344//412
f 1345//447 1346//414 1347//415
f 1348//416 1346//448 1349//417
f 1341//409 1348//416 1350//418
f 1351//449 1352//420 1353//421
f 1354//422 1352//420 1355//423
f 1347//415 1354//422 1356//424
f 1357//450 1358//426 1359//427
f 1360//428 1358//426 1361//429
f 1353//451 1360//428 1362//430
f 1359//427 1319//387 1363//431
f 1364//327 1365//326 1366//325
f 1367//324 1366//325 1365//326
f 1366//325 1367//324 1368//323
f 1369//322 1368//323 1367//324
f 1368//323 1369//322 1370//321
f 1371//320 1370//321 1369//322
f 1370//321 1371//320 1372//331
f 1373//330 1372//331 1371//320
f 1372//331 1373//330 1374//329
f 1375//328 1374//329 1373//330
f 1374//329 1375//328 1364//327
f 1365//326 1364//327 1375//328
f 1376//440 1377//385 1378//386
f 1379//387 1377//385 1380//388
f 1381//441 1382//390 1383//391
f 1384//392 1382//442 1385//393
f 1378//386 1384//392 1386//394
f 1387//443 1388//396 1389//397
f 1390//398 1388//396 1391//399
f 1383//391 1390//398 1392//400
f 1393//444 1394//402 1395//403
f 1396//404 1394//402 1397//405
f 1389//445 1396//404 1398//406
f 1399//446 1400//408 1401//409
f 1402//410 1400//408 1403//411
f 1395//403 1402//410 1404//412
f 1405//447 1406//414 1407//415
f 1408//416 1406//448 1409//417
f 1401//409 1408//416 1410//418
f 1411//449 1412//420 1413//421
f 1414//422 1412//420 1415//423
f 1407//415 1414//422 1416//424
f 1417//450 1418//426 1419//427
f 1420//428 1418//426 1421//429
f 1413//451 1420//428 1422//430
f 1419//427 1379//387 1423//431
s 0
f 1424//142 1425//142 1426//142
f 1425//142 1427//142 1428//142
f 1429//142 1428//142 1427//142
f 1428//142 1429//142 1430//142
f 1431//142 1432//142 1427//142
f 1425//142 1424//142 1427//142
f 1431//142 1427//142 1424//142
f 1433//142 1429//142 1434//142
f 1437//142 1424//142 1426//142
f 1438//142 1424//142 1437//142
f 1427//142 1432//142 1439//142
f 1430//142 1435//142 1440//142
f 1435//142 1430//142 1441//142
f 1429//142 1441//142 1430//142
f 1433//142 1441//142 1429//142
f 1442//142 1435//142 1436//142
f 1435//142 1442//142 1440//142
s 1
f 1455//452 1453//453 1454//454
f 1452//455 1454//454 1453//453
f 1456//456 1457//457 1443//458
f 1444//459 1443//458 1457//457
f 1445//460 1446//461 1447//462
f 1448//463 1447//462 1446//461
f 1448//463 1446//461 1449//464
f 1450//465 1449//464 1446//461
f 1449//464 1450//465 1451//466
f 1452//455 1451//466 1450//465
f 1451//466 1452//455 1453//453
f 1443//458 1444//459 1454//454
f 1455//452 1454//454 1444//459
f 1445//460 1447//462 1456//456
f 1457//457 1456//456 1447//462
